<svg xmlns="http://www.w3.org/2000/svg" xmlns:xlink="http://www.w3.org/1999/xlink" fill="none" version="1.1" width="16" height="16" viewBox="0 0 16 16"><defs><clipPath id="master_svg0_173_17096"><rect x="0" y="0" width="16" height="16" rx="0"/></clipPath></defs><g clip-path="url(#master_svg0_173_17096)"><g><g><ellipse cx="7.9999988079071045" cy="4.000162839889526" rx="2.6666667461395264" ry="2.6666667461395264" fill-opacity="0" stroke-opacity="1" stroke="#8A92A6" fill="none" stroke-width="1" stroke-linecap="ROUND" stroke-linejoin="round"/></g><g><path d="M3.40381,10.07031390625Q1.5,11.97412390625,1.5,14.66650390625Q1.5,14.71575390625,1.509607,14.76405390625Q1.519215,14.81234390625,1.53806,14.85784390625Q1.5569060000000001,14.90334390625,1.584265,14.94428390625Q1.611625,14.98523390625,1.646447,15.02005390625Q1.681269,15.05487390625,1.722215,15.08223390625Q1.763161,15.10959390625,1.8086579999999999,15.12844390625Q1.854155,15.14728390625,1.9024549,15.15689390625Q1.9507543,15.16650390625,2,15.16650390625Q2.0492457,15.16650390625,2.0975451,15.15689390625Q2.145845,15.14728390625,2.191342,15.12844390625Q2.236839,15.10959390625,2.277785,15.08223390625Q2.318731,15.05487390625,2.353553,15.02005390625Q2.388375,14.98523390625,2.415735,14.94428390625Q2.443094,14.90334390625,2.4619400000000002,14.85784390625Q2.480785,14.81234390625,2.490393,14.76405390625Q2.5,14.71575390625,2.5,14.66650390625Q2.5,12.38833390625,4.11092,10.77742390625Q5.721830000000001,9.16650390625,8,9.16650390625Q10.27817,9.16650390625,11.88908,10.77742390625Q13.5,12.38833390625,13.5,14.66650390625Q13.5,14.71575390625,13.5096,14.76405390625Q13.5192,14.81234390625,13.5381,14.85784390625Q13.5569,14.90334390625,13.5843,14.94428390625Q13.6116,14.98523390625,13.6464,15.02005390625Q13.6813,15.05487390625,13.7222,15.08223390625Q13.7632,15.10959390625,13.8087,15.12844390625Q13.8542,15.14728390625,13.9025,15.15689390625Q13.9508,15.16650390625,14,15.16650390625Q14.0492,15.16650390625,14.0975,15.15689390625Q14.1458,15.14728390625,14.1913,15.12844390625Q14.2368,15.10959390625,14.2778,15.08223390625Q14.3187,15.05487390625,14.3536,15.02005390625Q14.3884,14.98523390625,14.4157,14.94428390625Q14.4431,14.90334390625,14.4619,14.85784390625Q14.4808,14.81234390625,14.4904,14.76405390625Q14.5,14.71575390625,14.5,14.66650390625Q14.5,11.97412390625,12.5962,10.07031390625Q10.69239,8.16650390625,8,8.16650390625Q5.30762,8.16650390625,3.40381,10.07031390625Z" fill-rule="evenodd" fill="#8A92A6" fill-opacity="1"/></g></g></g></svg>