<svg xmlns="http://www.w3.org/2000/svg" xmlns:xlink="http://www.w3.org/1999/xlink" fill="none" version="1.1" width="20" height="20" viewBox="0 0 20 20"><defs><clipPath id="master_svg0_41_22419"><rect x="0" y="0" width="20" height="20" rx="0"/></clipPath></defs><g clip-path="url(#master_svg0_41_22419)"><g><path d="M10.00016609375,3.3330078125C10.46039609375,3.3330078125,10.83349609375,3.7061038125,10.83349609375,4.1663408125C10.83349609375,4.1663408125,10.83349609375,9.1663378125,10.83349609375,9.1663378125C10.83349609375,9.1663378125,15.83349609375,9.1663378125,15.83349609375,9.1663378125C16.29369609375,9.1663378125,16.66679609375,9.539437812500001,16.66679609375,9.9996778125C16.66679609375,10.459917812499999,16.29369609375,10.8330078125,15.83349609375,10.8330078125C15.83349609375,10.8330078125,10.83349609375,10.8330078125,10.83349609375,10.8330078125C10.83349609375,10.8330078125,10.83349609375,15.8330078125,10.83349609375,15.8330078125C10.83349609375,16.2932078125,10.46039609375,16.6663078125,10.00016609375,16.6663078125C9.539926093750001,16.6663078125,9.16682609375,16.2932078125,9.16682609375,15.8330078125C9.16682609375,15.8330078125,9.16682609375,10.8330078125,9.16682609375,10.8330078125C9.16682609375,10.8330078125,4.16682909375,10.8330078125,4.16682909375,10.8330078125C3.70659209375,10.8330078125,3.33349609375,10.459917812499999,3.33349609375,9.9996778125C3.33349609375,9.539437812500001,3.70659209375,9.1663378125,4.16682909375,9.1663378125C4.16682909375,9.1663378125,9.16682609375,9.1663378125,9.16682609375,9.1663378125C9.16682609375,9.1663378125,9.16682609375,4.1663408125,9.16682609375,4.1663408125C9.16682609375,3.7061038125,9.539926093750001,3.3330078125,10.00016609375,3.3330078125C10.00016609375,3.3330078125,10.00016609375,3.3330078125,10.00016609375,3.3330078125Z" fill="#0D0D0D" fill-opacity="1"/></g></g></svg>