<svg xmlns="http://www.w3.org/2000/svg" xmlns:xlink="http://www.w3.org/1999/xlink" fill="none" version="1.1" width="24" height="24" viewBox="0 0 24 24"><g><g><g><g><g transform="matrix(-1,-1.2246469849340659e-16,1.2246469849340659e-16,-1,48,48)" style="opacity:0;"></g><g><path d="M20.040234375,6.819999492874145C20.040234375,6.819999492874145,14.280234375,2.7899994928741454,14.280234375,2.7899994928741454C12.710234375,1.6899994928741455,10.300234375,1.7500004928741455,8.790234375,2.9200004928741454C8.790234375,2.9200004928741454,3.780234375,6.829999492874146,3.780234375,6.829999492874146C2.780234375,7.609999492874145,1.990234375,9.209999492874147,1.990234375,10.469999492874145C1.990234375,10.469999492874145,1.990234375,17.369959492874145,1.990234375,17.369959492874145C1.990234375,19.919959492874145,4.060234375,21.999959492874144,6.610234375,21.999959492874144C6.610234375,21.999959492874144,17.390234375,21.999959492874144,17.390234375,21.999959492874144C19.940234375,21.999959492874144,22.010234375,19.929959492874147,22.010234375,17.379959492874146C22.010234375,17.379959492874146,22.010234375,10.599999492874145,22.010234375,10.599999492874145C22.010234375,9.249999492874146,21.140234375,7.589999492874146,20.040234375,6.819999492874145ZM12.750234375,17.999959492874147C12.750234375,18.409959492874144,12.410234375,18.749959492874144,12.000234375,18.749959492874144C11.590234375,18.749959492874144,11.250234375,18.409959492874144,11.250234375,17.999959492874147C11.250234375,17.999959492874147,11.250234375,14.999959492874146,11.250234375,14.999959492874146C11.250234375,14.589959492874145,11.590234375,14.249959492874146,12.000234375,14.249959492874146C12.410234375,14.249959492874146,12.750234375,14.589959492874145,12.750234375,14.999959492874146C12.750234375,14.999959492874146,12.750234375,17.999959492874147,12.750234375,17.999959492874147Z" fill="#000000" fill-opacity="1"/></g></g></g></g></g></svg>