<svg xmlns="http://www.w3.org/2000/svg" xmlns:xlink="http://www.w3.org/1999/xlink" fill="none" version="1.1" width="28" height="28" viewBox="0 0 28 28"><g><g style="opacity:0;"><rect x="0" y="0" width="28" height="28" rx="0" fill="#D8D8D8" fill-opacity="1"/></g><g><rect x="0" y="0" width="28" height="28" rx="0" fill="#FFFFFF" fill-opacity="0.009999999776482582"/></g><g><path d="M1.5833334922790527,13.333336984558105L1.5833334922790527,7.6666669845581055Q1.5833334922790527,6.113366984558105,2.6816834922790527,5.015016984558105Q3.7800334922790526,3.9166669845581055,5.333333492279053,3.9166669845581055L22.666633492279054,3.9166669845581055Q24.219933492279054,3.9166669845581055,25.318333492279052,5.015016984558105Q26.416633492279054,6.113366984558105,26.416633492279054,7.6666669845581055L26.416633492279054,13.333336984558105Q26.416633492279054,14.886666984558106,25.318333492279052,15.984966984558106Q24.219933492279054,17.083366984558104,22.666633492279054,17.083366984558104L5.333333492279053,17.083366984558104Q3.7800334922790526,17.083366984558104,2.6816834922790527,15.984966984558106Q1.5833334922790527,14.886666984558106,1.5833334922790527,13.333336984558105ZM3.0833334922790527,13.333336984558105Q3.0833334922790527,14.265316984558105,3.742343492279053,14.924366984558105Q4.401353492279053,15.583366984558106,5.333333492279053,15.583366984558106L22.666633492279054,15.583366984558106Q23.598633492279053,15.583366984558106,24.25763349227905,14.924366984558105Q24.916633492279054,14.265316984558105,24.916633492279054,13.333336984558105L24.916633492279054,7.6666669845581055Q24.916633492279054,6.734686984558106,24.25763349227905,6.075676984558106Q23.598633492279053,5.4166669845581055,22.666633492279054,5.4166669845581055L5.333333492279053,5.4166669845581055Q4.401353492279053,5.4166669845581055,3.742343492279053,6.075676984558106Q3.0833334922790527,6.734686984558106,3.0833334922790527,7.6666669845581055L3.0833334922790527,13.333336984558105Z" fill="#0C0507" fill-opacity="1"/></g><g><path d="M6.25,16.333336984558105L6.25,11.666666984558105Q6.25,11.592798484558106,6.264411,11.520348984558105Q6.278822,11.447899984558106,6.30709,11.379653984558106Q6.335359,11.311408984558106,6.376398,11.249988984558106Q6.417437,11.188569984558105,6.46967,11.136336984558106Q6.521903,11.084103984558105,6.583322,11.043064984558105Q6.644742,11.002025984558106,6.712987,10.973756984558106Q6.781233,10.945488984558105,6.853682,10.931077984558105Q6.9261315,10.916666984558105,7,10.916666984558105L21,10.916666984558105Q21.073900000000002,10.916666984558105,21.1463,10.931077984558105Q21.2188,10.945488984558105,21.287,10.973756984558106Q21.3553,11.002025984558106,21.4167,11.043064984558105Q21.478099999999998,11.084103984558105,21.5303,11.136336984558106Q21.5826,11.188569984558105,21.6236,11.249988984558106Q21.6646,11.311408984558106,21.6929,11.379653984558106Q21.7212,11.447899984558106,21.735599999999998,11.520348984558105Q21.75,11.592798484558106,21.75,11.666666984558105L21.75,16.333336984558105Q21.75,16.407206984558105,21.735599999999998,16.479646984558105Q21.7212,16.552096984558105,21.6929,16.620346984558104Q21.6646,16.688586984558107,21.6236,16.750006984558105Q21.5826,16.811426984558103,21.5303,16.863666984558105Q21.478099999999998,16.915896984558106,21.4167,16.956936984558105Q21.3553,16.997976984558107,21.287,17.026246984558107Q21.2188,17.054506984558106,21.1463,17.068926984558104Q21.073900000000002,17.083336984558105,21,17.083336984558105L7,17.083336984558105Q6.9261315,17.083336984558105,6.853682,17.068926984558104Q6.781233,17.054506984558106,6.712987,17.026246984558107Q6.644742,16.997976984558107,6.583322,16.956936984558105Q6.521903,16.915896984558106,6.46967,16.863666984558105Q6.417437,16.811426984558103,6.376398,16.750006984558105Q6.335359,16.688586984558107,6.30709,16.620346984558104Q6.278822,16.552096984558105,6.264411,16.479646984558105Q6.25,16.407206984558105,6.25,16.333336984558105ZM7.75,12.416666984558105L7.75,15.583336984558105L20.25,15.583336984558105L20.25,12.416666984558105L7.75,12.416666984558105Z" fill="#0C0507" fill-opacity="1"/></g><g><path d="M18.666667938232422,8.916666984558105L20.999997938232422,8.916666984558105Q21.07386793823242,8.916666984558105,21.14631793823242,8.902255984558106Q21.21876793823242,8.887844984558106,21.287017938232424,8.859576984558105Q21.355257938232423,8.831307984558105,21.41667793823242,8.790268984558105Q21.478097938232423,8.749229984558106,21.53032793823242,8.696996984558105Q21.582567938232422,8.644763984558105,21.62360793823242,8.583344984558105Q21.66463793823242,8.521924984558105,21.692907938232423,8.453679984558105Q21.721177938232422,8.385433984558105,21.73558793823242,8.312984984558106Q21.749997938232422,8.240535484558105,21.749997938232422,8.166666984558105Q21.749997938232422,8.092798484558106,21.73558793823242,8.020348984558105Q21.721177938232422,7.947899984558106,21.692907938232423,7.8796539845581055Q21.66463793823242,7.811408984558105,21.62360793823242,7.749988984558105Q21.582567938232422,7.6885699845581055,21.53032793823242,7.636336984558105Q21.478097938232423,7.584103984558105,21.41667793823242,7.5430649845581055Q21.355257938232423,7.502025984558106,21.287017938232424,7.473756984558105Q21.21876793823242,7.445488984558105,21.14631793823242,7.431077984558105Q21.07386793823242,7.4166669845581055,20.999997938232422,7.4166669845581055L18.666667938232422,7.4166669845581055Q18.592799438232422,7.4166669845581055,18.52034993823242,7.431077984558105Q18.447900938232422,7.445488984558105,18.37965493823242,7.473756984558105Q18.311409938232423,7.502025984558106,18.24998993823242,7.5430649845581055Q18.188570938232424,7.584103984558105,18.136337938232423,7.636336984558105Q18.08410493823242,7.6885699845581055,18.043065938232424,7.749988984558105Q18.002026938232422,7.811408984558105,17.97375793823242,7.8796539845581055Q17.945489938232424,7.947899984558106,17.93107893823242,8.020348984558105Q17.916667938232422,8.092798484558106,17.916667938232422,8.166666984558105Q17.916667938232422,8.240535484558105,17.93107893823242,8.312984984558106Q17.945489938232424,8.385433984558105,17.97375793823242,8.453679984558105Q18.002026938232422,8.521924984558105,18.043065938232424,8.583344984558105Q18.08410493823242,8.644763984558105,18.136337938232423,8.696996984558105Q18.188570938232424,8.749229984558106,18.24998993823242,8.790268984558105Q18.311409938232423,8.831307984558105,18.37965493823242,8.859576984558105Q18.447900938232422,8.887844984558106,18.52034993823242,8.902255984558106Q18.592799438232422,8.916666984558105,18.666667938232422,8.916666984558105Z" fill-rule="evenodd" fill="#0C0507" fill-opacity="1"/></g><g><path d="M13.25,19.83333396911621L13.25,23.33333396911621Q13.25,23.40720396911621,13.264410999999999,23.47965396911621Q13.278822,23.55210396911621,13.30709,23.62034396911621Q13.335359,23.688593969116212,13.376398,23.75001396911621Q13.417437,23.811433969116212,13.46967,23.86366396911621Q13.521903,23.915893969116212,13.583322,23.95693396911621Q13.644742,23.99797396911621,13.712987,24.026243969116212Q13.781233,24.05451396911621,13.853682,24.068923969116213Q13.9261315,24.08333396911621,14,24.08333396911621Q14.0738685,24.08333396911621,14.146318,24.068923969116213Q14.218767,24.05451396911621,14.287013,24.026243969116212Q14.355258,23.99797396911621,14.416678,23.95693396911621Q14.478097,23.915893969116212,14.53033,23.86366396911621Q14.582563,23.811433969116212,14.623602,23.75001396911621Q14.664641,23.688593969116212,14.69291,23.62034396911621Q14.721178,23.55210396911621,14.735589000000001,23.47965396911621Q14.75,23.40720396911621,14.75,23.33333396911621L14.75,19.83333396911621Q14.75,19.75946546911621,14.735589000000001,19.68701596911621Q14.721178,19.61456696911621,14.69291,19.54632096911621Q14.664641,19.47807596911621,14.623602,19.41665596911621Q14.582563,19.355236969116213,14.53033,19.30300396911621Q14.478097,19.25077096911621,14.416678,19.209731969116213Q14.355258,19.16869296911621,14.287013,19.14042396911621Q14.218767,19.112155969116213,14.146318,19.09774496911621Q14.0738685,19.08333396911621,14,19.08333396911621Q13.9261315,19.08333396911621,13.853682,19.09774496911621Q13.781233,19.112155969116213,13.712987,19.14042396911621Q13.644742,19.16869296911621,13.583322,19.209731969116213Q13.521903,19.25077096911621,13.46967,19.30300396911621Q13.417437,19.355236969116213,13.376398,19.41665596911621Q13.335359,19.47807596911621,13.30709,19.54632096911621Q13.278822,19.61456696911621,13.264410999999999,19.68701596911621Q13.25,19.75946546911621,13.25,19.83333396911621Z" fill-rule="evenodd" fill="#0C0507" fill-opacity="1"/></g><g><path d="M8.583333969116211,21L8.583333969116211,22.16667Q8.583333969116211,22.24054,8.59774496911621,22.31298Q8.61215596911621,22.38543,8.640423969116211,22.45368Q8.668692969116211,22.52192,8.709731969116211,22.58334Q8.75077096911621,22.64476,8.803003969116212,22.697Q8.855236969116211,22.74923,8.916655969116212,22.79027Q8.978075969116212,22.83131,9.046320969116211,22.85958Q9.114566969116211,22.88784,9.18701596911621,22.90226Q9.259465469116211,22.91667,9.333333969116211,22.91667Q9.40720246911621,22.91667,9.479651969116212,22.90226Q9.55210096911621,22.88784,9.620346969116211,22.85958Q9.68859196911621,22.83131,9.75001196911621,22.79027Q9.811430969116211,22.74923,9.86366396911621,22.697Q9.915896969116211,22.64476,9.956935969116211,22.58334Q9.99797496911621,22.52192,10.02624396911621,22.45368Q10.054511969116211,22.38543,10.068922969116212,22.31298Q10.083333969116211,22.24054,10.083333969116211,22.16667L10.083333969116211,21Q10.083333969116211,20.9261315,10.068922969116212,20.853682Q10.054511969116211,20.781233,10.02624396911621,20.712987Q9.99797496911621,20.644742,9.956935969116211,20.583322Q9.915896969116211,20.521903000000002,9.86366396911621,20.46967Q9.811430969116211,20.417437,9.75001196911621,20.376398000000002Q9.68859196911621,20.335359,9.620346969116211,20.30709Q9.55210096911621,20.278822,9.479651969116212,20.264411Q9.40720246911621,20.25,9.333333969116211,20.25Q9.259465469116211,20.25,9.18701596911621,20.264411Q9.114566969116211,20.278822,9.046320969116211,20.30709Q8.978075969116212,20.335359,8.916655969116212,20.376398000000002Q8.855236969116211,20.417437,8.803003969116212,20.46967Q8.75077096911621,20.521903000000002,8.709731969116211,20.583322Q8.668692969116211,20.644742,8.640423969116211,20.712987Q8.61215596911621,20.781233,8.59774496911621,20.853682Q8.583333969116211,20.9261315,8.583333969116211,21Z" fill-rule="evenodd" fill="#0C0507" fill-opacity="1"/></g><g><path d="M17.916667938232422,21L17.916667938232422,22.16667Q17.916667938232422,22.24054,17.93107893823242,22.31298Q17.945489938232424,22.38543,17.97375793823242,22.45368Q18.002026938232422,22.52192,18.043065938232424,22.58334Q18.08410493823242,22.64476,18.136337938232423,22.697Q18.188570938232424,22.74923,18.24998993823242,22.79027Q18.311409938232423,22.83131,18.37965493823242,22.85958Q18.447900938232422,22.88784,18.52034993823242,22.90226Q18.592799438232422,22.91667,18.666667938232422,22.91667Q18.74053643823242,22.91667,18.812985938232423,22.90226Q18.88543493823242,22.88784,18.953680938232424,22.85958Q19.02192593823242,22.83131,19.083345938232423,22.79027Q19.14476493823242,22.74923,19.19699793823242,22.697Q19.249230938232422,22.64476,19.29026993823242,22.58334Q19.33130893823242,22.52192,19.359577938232423,22.45368Q19.38784593823242,22.38543,19.402256938232423,22.31298Q19.416667938232422,22.24054,19.416667938232422,22.16667L19.416667938232422,21Q19.416667938232422,20.9261315,19.402256938232423,20.853682Q19.38784593823242,20.781233,19.359577938232423,20.712987Q19.33130893823242,20.644742,19.29026993823242,20.583322Q19.249230938232422,20.521903000000002,19.19699793823242,20.46967Q19.14476493823242,20.417437,19.083345938232423,20.376398000000002Q19.02192593823242,20.335359,18.953680938232424,20.30709Q18.88543493823242,20.278822,18.812985938232423,20.264411Q18.74053643823242,20.25,18.666667938232422,20.25Q18.592799438232422,20.25,18.52034993823242,20.264411Q18.447900938232422,20.278822,18.37965493823242,20.30709Q18.311409938232423,20.335359,18.24998993823242,20.376398000000002Q18.188570938232424,20.417437,18.136337938232423,20.46967Q18.08410493823242,20.521903000000002,18.043065938232424,20.583322Q18.002026938232422,20.644742,17.97375793823242,20.712987Q17.945489938232424,20.781233,17.93107893823242,20.853682Q17.916667938232422,20.9261315,17.916667938232422,21Z" fill-rule="evenodd" fill="#0C0507" fill-opacity="1"/></g></g></svg>