<svg xmlns="http://www.w3.org/2000/svg" xmlns:xlink="http://www.w3.org/1999/xlink" fill="none" version="1.1" width="26" height="26" viewBox="0 0 26 26"><g><g><rect x="0" y="0" width="26" height="26" rx="0" fill="#FFFFFF" fill-opacity="0.009999999776482582"/></g><g><path d="M6.5833330154418945,13.54167L6.5833330154418945,22.2083Q6.5833330154418945,22.306800000000003,6.6025480154418945,22.403399999999998Q6.6217630154418945,22.5,6.659454015441894,22.591Q6.697145015441895,22.682000000000002,6.751863015441894,22.7639Q6.806582015441895,22.8458,6.876226015441895,22.915399999999998Q6.945870015441894,22.9851,7.027763015441894,23.0398Q7.109655015441895,23.0945,7.200650015441894,23.132199999999997Q7.291644015441895,23.1699,7.388243015441894,23.1891Q7.484841615441894,23.2083,7.5833330154418945,23.2083L18.416633015441896,23.2083Q18.515133015441897,23.2083,18.611733015441892,23.1891Q18.708333015441895,23.1699,18.799333015441896,23.132199999999997Q18.890333015441897,23.0945,18.972233015441894,23.0398Q19.054133015441895,22.9851,19.123733015441893,22.915399999999998Q19.193433015441894,22.8458,19.248133015441894,22.7639Q19.302833015441895,22.682000000000002,19.340533015441892,22.591Q19.378233015441893,22.5,19.397433015441894,22.403399999999998Q19.416633015441896,22.306800000000003,19.416633015441896,22.2083L19.416633015441896,13.54167Q19.416633015441896,10.88382,17.537263015441894,9.004408Q15.657853015441894,7.125,13.000003015441894,7.125Q10.342153015441895,7.125,8.462741015441894,9.004407Q6.5833330154418945,10.88382,6.5833330154418945,13.54167ZM8.583333015441895,21.2083L17.416663015441895,21.2083L17.416663015441895,13.54167Q17.416663015441895,11.71224,16.123043015441894,10.41862Q14.829423015441893,9.125,13.000003015441894,9.125Q11.170573015441894,9.125,9.876953015441895,10.41862Q8.583333015441895,11.71224,8.583333015441895,13.54167L8.583333015441895,21.2083Z" fill-rule="evenodd" fill="#FFFFFF" fill-opacity="1"/></g><g><path d="M12,2.7083332538604736L12,4.333333253860474Q12,4.431823253860474,12.019214999999999,4.528423253860474Q12.03843,4.625023253860474,12.076121,4.716013253860474Q12.113812,4.8070132538604735,12.16853,4.888903253860473Q12.223249,4.9707932538604735,12.292893,5.040443253860474Q12.362537,5.1100832538604735,12.44443,5.164803253860473Q12.526322,5.219523253860474,12.617317,5.257213253860474Q12.708311,5.294903253860474,12.80491,5.3141232538604735Q12.9015086,5.333333253860474,13,5.333333253860474Q13.0984914,5.333333253860474,13.19509,5.3141232538604735Q13.291689,5.294903253860474,13.382683,5.257213253860474Q13.473678,5.219523253860474,13.55557,5.164803253860473Q13.637463,5.1100832538604735,13.707107,5.040443253860474Q13.776751,4.9707932538604735,13.83147,4.888903253860473Q13.886188,4.8070132538604735,13.923879,4.716013253860474Q13.96157,4.625023253860474,13.980785000000001,4.528423253860474Q14,4.431823253860474,14,4.333333253860474L14,2.7083332538604736Q14,2.6098418538604737,13.980785000000001,2.5132432538604736Q13.96157,2.4166442538604738,13.923879,2.3256502538604735Q13.886188,2.2346552538604736,13.83147,2.1527632538604737Q13.776751,2.0708702538604737,13.707107,2.0012262538604735Q13.637463,1.9315822538604737,13.55557,1.8768632538604737Q13.473678,1.8221452538604737,13.382683,1.7844542538604737Q13.291689,1.7467632538604736,13.19509,1.7275482538604736Q13.0984914,1.7083332538604736,13,1.7083332538604736Q12.9015086,1.7083332538604736,12.80491,1.7275482538604736Q12.708311,1.7467632538604736,12.617317,1.7844542538604737Q12.526322,1.8221452538604737,12.44443,1.8768632538604737Q12.362537,1.9315822538604737,12.292893,2.0012262538604735Q12.223249,2.0708702538604737,12.16853,2.1527632538604737Q12.113812,2.2346552538604736,12.076121,2.3256502538604735Q12.03843,2.4166442538604738,12.019214999999999,2.5132432538604736Q12,2.6098418538604737,12,2.7083332538604736Z" fill-rule="evenodd" fill="#FFFFFF" fill-opacity="1"/></g><g><path d="M20.20741960510254,5.695530375Q20.21262960510254,5.689323375,20.21772960510254,5.683032375Q20.32623960510254,5.549379375,20.383809605102538,5.387134375Q20.44137960510254,5.224889375,20.44137960510254,5.052734374999999Q20.44137960510254,5.009078775,20.43757960510254,4.965589275L20.43733960510254,4.962879975Q20.41952960510254,4.765476375,20.32776960510254,4.589789375Q20.236009605102538,4.414102375,20.084179605102538,4.286696375Q20.07796960510254,4.281488375,20.07167960510254,4.276381375Q19.93802960510254,4.167872375,19.77577960510254,4.110303375Q19.613539605102538,4.052734375,19.44137960510254,4.052734375Q19.33186360510254,4.052734375,19.22494360510254,4.076438375Q19.11802260510254,4.100141375,19.01876760510254,4.1464243750000005Q18.91951160510254,4.192707375,18.83262560510254,4.259376375Q18.74573960510254,4.326045375,18.67534260510254,4.409938375L18.675147605102538,4.410171375L17.630791605102537,5.654759375Q17.51744760510254,5.789834375,17.45713860510254,5.955529375Q17.39682960510254,6.121224375,17.39682960510254,6.297554375Q17.39682960510254,6.341214375,17.400633605102538,6.384704375Q17.41796860510254,6.582854375,17.50981360510254,6.759294375Q17.60165960510254,6.935734375,17.75403360510254,7.063594375Q17.88910860510254,7.176934375,18.05480460510254,7.2372443749999995Q18.22049960510254,7.297554375,18.39682960510254,7.297554375L18.39972064510254,7.297554375Q18.44192790510254,7.297424375,18.48397470510254,7.293754375Q18.68213060510254,7.276414375,18.85856860510254,7.184574375Q19.03500760510254,7.0927243749999995,19.16286760510254,6.940354375L19.163206605102538,6.939944375L20.20741960510254,5.695530375Z" fill-rule="evenodd" fill="#FFFFFF" fill-opacity="1"/></g><g><path d="M22.69504060119629,10.00422202331543L21.09468860119629,10.286430023315429Q20.89879860119629,10.32097302331543,20.73103960119629,10.42785102331543Q20.56328060119629,10.53472902331543,20.44919060119629,10.69767002331543Q20.36091260119629,10.82374802331543,20.31463160119629,10.97053602331543Q20.26835060119629,11.11732402331543,20.26835060119629,11.27123502331543L20.26836160119629,11.27593202331543Q20.26876160119629,11.361061023315429,20.283545601196288,11.44489702331543Q20.298738601196288,11.53105502331543,20.328661601196288,11.61326702331543Q20.35858560119629,11.69547802331543,20.40233060119629,11.771244023315429Q20.44607460119629,11.84701002331543,20.50231160119629,11.91403002331543Q20.55854860119629,11.98104902331543,20.62556860119629,12.037287023315429Q20.69258760119629,12.09351702331543,20.76835460119629,12.13726702331543Q20.84412160119629,12.18100702331543,20.92633360119629,12.21092702331543Q21.00854560119629,12.24084702331543,21.09470360119629,12.25604702331543Q21.180862801196287,12.271237023315429,21.26835060119629,12.271237023315429L21.271697821196287,12.27122702331543Q21.35750670119629,12.27094702331543,21.44201260119629,12.256037023315429L21.44229560119629,12.25598702331543L23.04237060119629,11.97383202331543Q23.238260601196288,11.93928902331543,23.40602060119629,11.83241102331543Q23.57378060119629,11.72553302331543,23.687870601196288,11.56259202331543Q23.77614060119629,11.43651502331543,23.82242060119629,11.28972702331543Q23.868710601196288,11.14293902331543,23.868710601196288,10.98902851506543L23.86869060119629,10.98433001331543Q23.86829060119629,10.89920142331543,23.85351060119629,10.81536502331543Q23.83832060119629,10.72920702331543,23.80839060119629,10.64699602331543Q23.77847060119629,10.564784023315429,23.73473060119629,10.48901802331543Q23.690980601196287,10.41325202331543,23.634740601196288,10.34623302331543Q23.57851060119629,10.27921402331543,23.51149060119629,10.222978023315429Q23.44447060119629,10.166742023315429,23.368700601196288,10.12299902331543Q23.29293060119629,10.07925502331543,23.21072060119629,10.04933302331543Q23.12851060119629,10.01941102331543,23.04235060119629,10.00421902331543Q22.95619060119629,9.98902702331543,22.868710601196288,9.98902702331543L22.86536060119629,9.989033023315429Q22.779550601196288,9.989320023315429,22.69504060119629,10.00422202331543Z" fill-rule="evenodd" fill="#FFFFFF" fill-opacity="1"/></g><g><path d="M2.957788281265259,11.97383702331543L4.558102281265259,12.25598702331543Q4.644252281265259,12.27117702331543,4.731732281265259,12.27117702331543Q4.741692281265259,12.27117702331543,4.751652281265259,12.27098702331543Q4.900442281265259,12.26801702331543,5.041932281265259,12.22185702331543Q5.183412281265259,12.17568702331543,5.3053222812652585,12.09032702331543Q5.468262281265259,11.97623002331543,5.575132281265258,11.808468023315429Q5.682002281265259,11.64070502331543,5.716542281265259,11.44481402331543Q5.731732281265259,11.35866202331543,5.731732281265259,11.27118102331543L5.7317022812652585,11.262716023315429Q5.730962281265259,11.17576302331543,5.7152322812652585,11.09024202331543Q5.699492281265259,11.00472032331543,5.669232281265259,10.92319842331543Q5.638972281265259,10.84167702331543,5.595102281265259,10.76660102331543Q5.551222281265259,10.69152602331543,5.495042281265259,10.62515102331543Q5.438872281265258,10.55877602331543,5.372082281265259,10.50309402331543Q5.305292281265259,10.44741202331543,5.229892281265259,10.40409402331543Q5.154492281265259,10.36077602331543,5.072742281265259,10.33112202331543Q4.991002281265259,10.30146902331543,4.905362281265258,10.28637002331543L3.3050562812652586,10.00421702331543Q3.218903781265259,9.98902702331543,3.1314228327342586,9.98902702331543L3.1229580112652586,9.98906302331543Q3.0360045812652587,9.98979902331543,2.950483281265259,10.00553302331543Q2.864962281265259,10.02126602331543,2.7834402812652588,10.05152602331543Q2.7019182812652587,10.08178502331543,2.6268432812652587,10.12566202331543Q2.551767281265259,10.169538023315429,2.485393281265259,10.22571502331543Q2.4190182812652585,10.28189102331543,2.363335281265259,10.34868102331543Q2.307653281265259,10.41547102331543,2.2643352812652586,10.490870023315429Q2.221017281265259,10.56626902331543,2.1913642812652587,10.64801302331543Q2.161710281265259,10.72975802331543,2.146612281265259,10.81539302331543Q2.131422281265259,10.90154582331543,2.131422281265259,10.98902702331543L2.131458281265259,10.997491293315429Q2.132194281265259,11.08444472331543,2.147928281265259,11.16996602331543Q2.163661281265259,11.25548702331543,2.1939212812652586,11.33700902331543Q2.2241802812652587,11.41853102331543,2.268057281265259,11.49360602331543Q2.311933281265259,11.56868202331543,2.368110281265259,11.63505602331543Q2.4242862812652586,11.701431023315429,2.4910762812652587,11.75711402331543Q2.557866281265259,11.81279602331543,2.633265281265259,11.85611402331543Q2.708664281265259,11.89943202331543,2.790408281265259,11.92908502331543Q2.8721532812652586,11.95873902331543,2.957788281265259,11.97383702331543Z" fill-rule="evenodd" fill="#FFFFFF" fill-opacity="1"/></g><g><path d="M6.837049035186768,6.940034375L6.837316035186768,6.940354375Q6.9077130351867675,7.024244375,6.994599035186767,7.0909143750000005Q7.081484035186768,7.157584375,7.180740035186767,7.203864375Q7.279996035186768,7.250144375,7.386917035186768,7.273854375Q7.493837035186767,7.297554375,7.603354035186768,7.297554375Q7.611454035186767,7.297554375,7.619554035186768,7.297424375Q7.791694035186768,7.294634374999999,7.952984035186768,7.234444375Q8.114274035186767,7.174254375,8.246154035186768,7.063594375Q8.398524035186767,6.935734375,8.490374035186768,6.759294375Q8.582214035186768,6.582854375,8.599554035186767,6.384704375Q8.603354035186769,6.341214375,8.603354035186769,6.297554375L8.603314035186767,6.2882943749999995Q8.601704035186767,6.114364375,8.541454035186767,5.951183375Q8.481204035186767,5.788007375,8.369394035186767,5.654759375L7.324842035186768,4.409939375Q7.254445035186768,4.326045375,7.167559035186768,4.259376375Q7.080674035186767,4.192707375,6.981418035186768,4.1464243750000005Q6.882162035186767,4.100141375,6.775241035186768,4.076437375Q6.668321035186768,4.052734375,6.558804132154568,4.052734375Q6.550701475186767,4.052734375,6.542599935186767,4.052865375Q6.370467035186768,4.055655375,6.209177035186768,4.115845375Q6.047886035186767,4.176035375,5.916009035186768,4.286696375Q5.832115035186767,4.357093375,5.765446035186768,4.443979375Q5.698777035186768,4.530864375,5.652494035186768,4.630120375Q5.606211035186767,4.729376375,5.582507035186768,4.836297375Q5.558804035186768,4.943217375,5.558804035186768,5.052734375Q5.558804035186768,5.060836885,5.558935035186767,5.068938475Q5.561725035186767,5.241071375,5.621915035186768,5.402361375Q5.682105035186767,5.563652375,5.792766035186768,5.695529375L6.837049035186768,6.940034375Z" fill-rule="evenodd" fill="#FFFFFF" fill-opacity="1"/></g><g><path d="M3.25,23.20833396911621L23.2917,23.20833396911621Q23.3902,23.20833396911621,23.4868,23.189118969116212Q23.5834,23.169903969116213,23.6743,23.13221296911621Q23.7653,23.09452196911621,23.8472,23.03980396911621Q23.9291,22.985084969116212,23.9988,22.91544096911621Q24.0684,22.84579696911621,24.1231,22.76390396911621Q24.1779,22.68201196911621,24.2155,22.59101696911621Q24.2532,22.500022969116213,24.2724,22.40342396911621Q24.2917,22.30682536911621,24.2917,22.20833396911621Q24.2917,22.10984256911621,24.2724,22.01324396911621Q24.2532,21.91664496911621,24.2155,21.82565096911621Q24.1779,21.73465596911621,24.1231,21.65276396911621Q24.0684,21.57087096911621,23.9988,21.50122696911621Q23.9291,21.43158296911621,23.8472,21.37686396911621Q23.7653,21.32214596911621,23.6743,21.28445496911621Q23.5834,21.24676396911621,23.4868,21.22754896911621Q23.3902,21.20833396911621,23.2917,21.20833396911621L3.25,21.20833396911621Q3.1515086,21.20833396911621,3.05491,21.22754896911621Q2.958311,21.24676396911621,2.867317,21.28445496911621Q2.776322,21.32214596911621,2.69443,21.37686396911621Q2.612537,21.43158296911621,2.542893,21.50122696911621Q2.473249,21.57087096911621,2.41853,21.65276396911621Q2.3638120000000002,21.73465596911621,2.326121,21.82565096911621Q2.28843,21.91664496911621,2.269215,22.01324396911621Q2.25,22.10984256911621,2.25,22.20833396911621Q2.25,22.30682536911621,2.269215,22.40342396911621Q2.28843,22.500022969116213,2.326121,22.59101696911621Q2.3638120000000002,22.68201196911621,2.41853,22.76390396911621Q2.473249,22.84579696911621,2.542893,22.91544096911621Q2.612537,22.985084969116212,2.69443,23.03980396911621Q2.776322,23.09452196911621,2.867317,23.13221296911621Q2.958311,23.169903969116213,3.05491,23.189118969116212Q3.1515086,23.20833396911621,3.25,23.20833396911621Z" fill-rule="evenodd" fill="#FFFFFF" fill-opacity="1"/></g></g></svg>