<svg xmlns="http://www.w3.org/2000/svg" xmlns:xlink="http://www.w3.org/1999/xlink" fill="none" version="1.1" width="19.63723373413086" height="24" viewBox="0 0 19.63723373413086 24"><g><path d="M8.72766,2.18085C8.72707,2.78378,9.21568,3.27287,9.81862,3.27287C10.4216,3.27287,10.9102,2.78378,10.9096,2.18085L10.9096,1.08989C10.909,0.487789,10.4207,0,9.81862,0C9.21651,7.1864e-8,8.72825,0.487789,8.72766,1.08989L8.72766,2.18085ZM2.63357,4.81442C3.0573,5.25314,3.75842,5.25923,4.18971,4.82794C4.621,4.39665,4.61491,3.69554,4.17619,3.27181L3.40488,2.5005C2.97681,2.08705,2.29637,2.09296,1.87555,2.51378C1.45473,2.9346,1.44882,3.61505,1.86226,4.04311L2.63357,4.81442ZM15.461,3.27181L16.2324,2.5005C16.6561,2.06177,17.3572,2.05568,17.7885,2.48697C18.2198,2.91826,18.2137,3.61939,17.775,4.04311L17.0037,4.81442C16.5799,5.25312,15.8788,5.2592,15.4476,4.82792C15.0163,4.39664,15.0224,3.69554,15.461,3.27181ZM1.09096,19.9024C1.09096,20.3584,1.4597,20.7271,1.91572,20.7271L5.45479,20.7271L5.45479,15.2723C5.45479,14.6698,5.94323,14.1814,6.54575,14.1814C7.14826,14.1814,7.6367,14.6698,7.6367,15.2723L7.6367,20.7271L17.7215,20.7271C18.177,20.7271,18.5463,20.3579,18.5463,19.9024L18.5463,13.0904C18.5479,8.2691,14.6399,4.35975,9.81862,4.35975C4.99729,4.35975,1.08929,8.2691,1.09096,13.0904L1.09096,19.9024ZM0,22.909C0,23.5116,0.488438,24,1.09096,24L18.5463,24C19.1488,24,19.6372,23.5116,19.6372,22.909C19.6372,22.3065,19.1488,21.8181,18.5463,21.8181L1.09096,21.8181C0.488438,21.8181,0,22.3065,0,22.909Z" fill="#FFFFFF" fill-opacity="1"/></g></svg>