<svg xmlns="http://www.w3.org/2000/svg" xmlns:xlink="http://www.w3.org/1999/xlink" fill="none" version="1.1" width="20" height="20" viewBox="0 0 20 20"><defs><clipPath id="master_svg0_63_63136"><rect x="0" y="0" width="20" height="20" rx="0"/></clipPath></defs><g clip-path="url(#master_svg0_63_63136)"><g><path d="M7.5,2.5L3.333333,2.5C2.873096,2.5,2.5,2.873096,2.5,3.333333L2.5,7.5C2.5,7.96025,2.873096,8.33333,3.333333,8.33333L7.5,8.33333C7.96025,8.33333,8.33333,7.96025,8.33333,7.5L8.33333,3.333333C8.33333,2.873096,7.96025,2.5,7.5,2.5Z" fill="#8A92A6" fill-opacity="1"/><path d="M8.66667,7.5L8.66667,3.333333Q8.66667,2.850083,8.32496,2.50837646Q7.98326,2.166667,7.5,2.166667L3.333333,2.166667Q2.850084,2.166667,2.50837536,2.50837536Q2.166667,2.850084,2.166667,3.333333L2.166667,7.5Q2.166667,7.98326,2.50837659,8.32496Q2.850083,8.66667,3.333333,8.66667L7.5,8.66667Q7.98326,8.66667,8.32496,8.32496Q8.66667,7.98326,8.66667,7.5ZM7.85356,2.979779Q8,3.126223,8,3.333333L8,7.5Q8,7.70712,7.85356,7.85356Q7.70712,8,7.5,8L3.333333,8Q3.126223,8,2.979779,7.85356Q2.833333,7.70711,2.833333,7.5L2.833333,3.333333Q2.833333,3.126227,2.97978,2.97978Q3.126226,2.833333,3.333333,2.833333L7.5,2.833333Q7.70711,2.833333,7.85356,2.979779Z" fill-rule="evenodd" fill="#8A92A6" fill-opacity="1"/></g><g><path d="M7.5,11.6669921875L3.333333,11.6669921875C2.873096,11.6669921875,2.5,12.0400751875,2.5,12.5003261875L2.5,16.6669921875C2.5,17.127242187500002,2.873096,17.5003221875,3.333333,17.5003221875L7.5,17.5003221875C7.96025,17.5003221875,8.33333,17.127242187500002,8.33333,16.6669921875L8.33333,12.5003261875C8.33333,12.0400751875,7.96025,11.6669921875,7.5,11.6669921875Z" fill="#8A92A6" fill-opacity="1"/><path d="M8.66667,16.6669921875L8.66667,12.5003261875Q8.66667,12.0170661875,8.32496,11.6753628975Q7.98326,11.3336591875,7.5,11.3336591875L3.333333,11.3336591875Q2.850083,11.3336591875,2.50837655,11.6753616975Q2.166667,12.0170681875,2.166667,12.5003261875L2.166667,16.6669921875Q2.166667,17.1502521875,2.50837653,17.4919521875Q2.850082,17.8336621875,3.333333,17.8336621875L7.5,17.8336621875Q7.98326,17.8336621875,8.32496,17.4919521875Q8.66667,17.1502521875,8.66667,16.6669921875ZM7.85356,12.1467671875Q8,12.2932091875,8,12.5003261875L8,16.6669921875Q8,16.8741121875,7.85356,17.0205521875Q7.70712,17.1669921875,7.5,17.1669921875L3.333333,17.1669921875Q3.126223,17.1669921875,2.979779,17.0205521875Q2.833333,16.8741021875,2.833333,16.6669921875L2.833333,12.5003261875Q2.833333,12.2932121875,2.979779,12.1467681875Q3.126223,12.0003251875,3.333333,12.0003251875L7.5,12.0003251875Q7.70712,12.0003251875,7.85356,12.1467671875Z" fill-rule="evenodd" fill="#8A92A6" fill-opacity="1"/></g><g><path d="M16.66650390625,2.5L12.49983790625,2.5C12.03958690625,2.5,11.66650390625,2.873096,11.66650390625,3.333333L11.66650390625,7.5C11.66650390625,7.96025,12.03958690625,8.33333,12.49983790625,8.33333L16.66650390625,8.33333C17.126753906250002,8.33333,17.49983390625,7.96025,17.49983390625,7.5L17.49983390625,3.333333C17.49983390625,2.873096,17.126753906250002,2.5,16.66650390625,2.5Z" fill="#8A92A6" fill-opacity="1"/><path d="M17.83317390625,7.5L17.83317390625,3.333333Q17.83317390625,2.850083,17.49146390625,2.50837666Q17.14976390625,2.166667,16.66650390625,2.166667L12.49983790625,2.166667Q12.01657990625,2.166667,11.67487341625,2.50837655Q11.33317090625,2.850083,11.33317090625,3.333333L11.33317090625,7.5Q11.33317090625,7.98326,11.67487465625,8.32496Q12.01657890625,8.66667,12.49983790625,8.66667L16.66650390625,8.66667Q17.14976390625,8.66667,17.49146390625,8.32496Q17.83317390625,7.98326,17.83317390625,7.5ZM17.02006390625,2.979779Q17.16650390625,3.126223,17.16650390625,3.333333L17.16650390625,7.5Q17.16650390625,7.70712,17.02006390625,7.85356Q16.87362390625,8,16.66650390625,8L12.49983790625,8Q12.29272090625,8,12.14627890625,7.85356Q11.99983690625,7.70712,11.99983690625,7.5L11.99983690625,3.333333Q11.99983690625,3.126223,12.14627990625,2.979779Q12.29272390625,2.833333,12.49983790625,2.833333L16.66650390625,2.833333Q16.87361390625,2.833333,17.02006390625,2.979779Z" fill-rule="evenodd" fill="#8A92A6" fill-opacity="1"/></g><g><path d="M16.66650390625,11.6669921875L12.49983790625,11.6669921875C12.03958690625,11.6669921875,11.66650390625,12.0400751875,11.66650390625,12.5003261875L11.66650390625,16.6669921875C11.66650390625,17.127242187500002,12.03958690625,17.5003221875,12.49983790625,17.5003221875L16.66650390625,17.5003221875C17.126753906250002,17.5003221875,17.49983390625,17.127242187500002,17.49983390625,16.6669921875L17.49983390625,12.5003261875C17.49983390625,12.0400751875,17.126753906250002,11.6669921875,16.66650390625,11.6669921875Z" fill="#8A92A6" fill-opacity="1"/><path d="M17.83317390625,16.6669921875L17.83317390625,12.5003261875Q17.83317390625,12.0170661875,17.49146390625,11.6753628975Q17.14976390625,11.3336591875,16.66650390625,11.3336591875L12.49983790625,11.3336591875Q12.01657890625,11.3336591875,11.67487461625,11.6753628975Q11.33317090625,12.0170671875,11.33317090625,12.5003261875L11.33317090625,16.6669921875Q11.33317090625,17.1502521875,11.67487461625,17.4919521875Q12.01657790625,17.8336621875,12.49983790625,17.8336621875L16.66650390625,17.8336621875Q17.14976390625,17.8336621875,17.49146390625,17.4919521875Q17.83317390625,17.1502521875,17.83317390625,16.6669921875ZM17.02006390625,12.1467671875Q17.16650390625,12.2932091875,17.16650390625,12.5003261875L17.16650390625,16.6669921875Q17.16650390625,16.8741121875,17.02006390625,17.0205521875Q16.87362390625,17.1669921875,16.66650390625,17.1669921875L12.49983790625,17.1669921875Q12.29272090625,17.1669921875,12.14627890625,17.0205521875Q11.99983690625,16.8741121875,11.99983690625,16.6669921875L11.99983690625,12.5003261875Q11.99983690625,12.2932091875,12.14627890625,12.1467671875Q12.29272090625,12.0003251875,12.49983790625,12.0003251875L16.66650390625,12.0003251875Q16.87362390625,12.0003251875,17.02006390625,12.1467671875Z" fill-rule="evenodd" fill="#8A92A6" fill-opacity="1"/></g></g></svg>