<svg xmlns="http://www.w3.org/2000/svg" xmlns:xlink="http://www.w3.org/1999/xlink" fill="none" version="1.1" width="24" height="24" viewBox="0 0 24 24"><g><g><rect x="0" y="0" width="24" height="24" rx="0" fill="#FFFFFF" fill-opacity="0"/></g><g><path d="M21.75,4.5L21.75,19.5Q21.75,20.432,21.091,21.091Q20.432,21.75,19.5,21.75L4.5,21.75Q3.5680199999999997,21.75,2.909013,21.091Q2.25,20.432,2.25,19.5L2.25,4.5Q2.25,3.5680199999999997,2.909011,2.909011Q3.5680199999999997,2.25,4.5,2.25L19.5,2.25Q20.432,2.25,21.091,2.909014Q21.75,3.5680199999999997,21.75,4.5ZM6.5,12.5C10.055,11.21,13.945,11.21,17.5,12.5L18,7C14.5,5.5,9.5,5.5,6,7L6.5,12.5Z" fill-rule="evenodd" fill="#000000" fill-opacity="1"/></g><g><path d="M11.218080658203125,8.475357875L11.217969658203124,8.475136875Q11.215696658203125,8.470590875,11.213362658203126,8.466075875Q11.146055658203124,8.335902875,11.034699658203126,8.240639875Q10.923344658203124,8.145375875,10.784320658203125,8.099034875Q10.777682658203124,8.096821875,10.771003658203124,8.094732875Q10.661687658203125,8.060546875,10.547149658203123,8.060546875Q10.370098658203124,8.060546875,10.211739658203125,8.139726875000001Q10.207193658203124,8.141999875,10.202678658203125,8.144333875Q10.072505658203125,8.211640875,9.977242658203124,8.322996875Q9.881978658203124,8.434351875,9.835637658203124,8.573375875Q9.833424658203125,8.580013875,9.831335658203125,8.586692875Q9.797149658203125,8.696008875,9.797149658203125,8.810546875Q9.797149658203125,8.987597875,9.876329658203126,9.145956875L9.876439658203125,9.146177875L11.876189658203124,13.145676875L11.876329658203126,13.145956875Q11.923049658203125,13.239386875000001,11.993519658203125,13.316506875Q12.063989658203125,13.393616875,12.152849658203126,13.448536875Q12.241709658203124,13.503456875000001,12.342199658203125,13.531996875Q12.442689658203125,13.560546875,12.547149658203125,13.560546875Q12.560949658203125,13.560546875,12.574739658203125,13.560036875Q12.737179658203125,13.554056875,12.882559658203125,13.481366874999999Q12.975989658203126,13.434646875,13.053109658203125,13.364176875Q13.130219658203124,13.293706875,13.185139658203125,13.204846875000001Q13.240059658203124,13.115986875,13.268599658203126,13.015496875Q13.297149658203125,12.915006875,13.297149658203125,12.810546875Q13.297149658203125,12.796746875,13.296639658203125,12.782956875Q13.290659658203126,12.620516875,13.217969658203124,12.475136875L13.217739658203126,12.474676875L11.218080658203125,8.475357875Z" fill-rule="evenodd" fill="#000000" fill-opacity="1"/></g></g></svg>