<svg xmlns="http://www.w3.org/2000/svg" xmlns:xlink="http://www.w3.org/1999/xlink" fill="none" version="1.1" width="20" height="20" viewBox="0 0 20 20"><defs><clipPath id="master_svg0_41_22410/4_2782"><rect x="0" y="0" width="20" height="20" rx="0"/></clipPath></defs><g clip-path="url(#master_svg0_41_22410/4_2782)"><g><path d="M1.6669921875,16.75L18.3336921875,16.75Q18.4074921875,16.75,18.4799921875,16.764411Q18.5523921875,16.778822,18.6206921875,16.80709Q18.6888921875,16.835359,18.7502921875,16.876398000000002Q18.8117921875,16.917437,18.8639921875,16.96967Q18.9161921875,17.021903000000002,18.9572921875,17.083322Q18.9982921875,17.144742,19.0265921875,17.212987Q19.0547921875,17.281233,19.0692921875,17.353682Q19.0836921875,17.4261315,19.0836921875,17.5Q19.0836921875,17.5738685,19.0692921875,17.646318Q19.0547921875,17.718767,19.0265921875,17.787013Q18.9982921875,17.855258,18.9572921875,17.916678Q18.9161921875,17.978096999999998,18.8639921875,18.03033Q18.8117921875,18.082563,18.7502921875,18.123601999999998Q18.6888921875,18.164641,18.6206921875,18.19291Q18.5523921875,18.221178,18.4799921875,18.235589Q18.4074921875,18.25,18.3336921875,18.25L1.6669921875,18.25Q1.5931236874999999,18.25,1.5206741875,18.235589Q1.4482251875,18.221178,1.3799791875,18.19291Q1.3117341875,18.164641,1.2503141875,18.123601999999998Q1.1888951875,18.082563,1.1366621875,18.03033Q1.0844291875,17.978096999999998,1.0433901875,17.916678Q1.0023511875,17.855258,0.9740821875,17.787013Q0.9458141875,17.718767,0.9314031875,17.646318Q0.9169921875,17.5738685,0.9169921875,17.5Q0.9169921875,17.4261315,0.9314031875,17.353682Q0.9458141875,17.281233,0.9740821875,17.212987Q1.0023511875,17.144742,1.0433901875,17.083322Q1.0844291875,17.021903000000002,1.1366621875,16.96967Q1.1888951875,16.917437,1.2503141875,16.876398000000002Q1.3117341875,16.835359,1.3799791875,16.80709Q1.4482251875,16.778822,1.5206741875,16.764411Q1.5931236874999999,16.75,1.6669921875,16.75Z" fill-rule="evenodd" fill="#232D42" fill-opacity="1" style="mix-blend-mode:passthrough"/></g><g><path d="M2.5830078125,16.49983390625L2.5830078125,10.16650390625Q2.5830078125,9.44162990625,3.0955708125,8.92906690625Q3.6081338125,8.41650390625,4.3330078125,8.41650390625L7.3330078125,8.41650390625Q8.0578778125,8.41650390625,8.5704478125,8.92906690625Q9.0830078125,9.44162990625,9.0830078125,10.16650390625L9.0830078125,16.49983390625Q9.0830078125,17.224713906250003,8.5704478125,17.73727390625Q8.0578778125,18.24983390625,7.3330078125,18.24983390625L4.3330078125,18.24983390625Q3.6081348125,18.24983390625,3.0955708125,17.73727390625Q2.5830078125,17.224713906250003,2.5830078125,16.49983390625ZM4.0830078125,16.49983390625Q4.0830078125,16.74983390625,4.3330078125,16.74983390625L7.3330078125,16.74983390625Q7.5830078125,16.74983390625,7.5830078125,16.49983390625L7.5830078125,10.16650390625Q7.5830078125,9.91650390625,7.3330078125,9.91650390625L4.3330078125,9.91650390625Q4.0830078125,9.91650390625,4.0830078125,10.16650390625L4.0830078125,16.49983390625Z" fill="#232D42" fill-opacity="1" style="mix-blend-mode:passthrough"/></g><g><path d="M7.5830078125,16.49980390625L7.5830078125,2.66650390625Q7.5830078125,1.94162990625,8.0955708125,1.42906690625Q8.6081338125,0.91650390625,9.3330078125,0.91650390625L15.6663378125,0.91650390625Q16.391217812500003,0.91650390625,16.9037778125,1.42906690625Q17.4163378125,1.94163090625,17.4163378125,2.66650390625L17.4163378125,16.49980390625Q17.4163378125,17.22470390625,16.9037778125,17.73730390625Q16.3912078125,18.24980390625,15.6663378125,18.24980390625L9.3330078125,18.24980390625Q8.6081348125,18.24980390625,8.0955708125,17.73730390625Q7.5830078125,17.22470390625,7.5830078125,16.49980390625ZM9.0830078125,16.49980390625Q9.0830078125,16.74980390625,9.3330078125,16.74980390625L15.6663378125,16.74980390625Q15.7698978125,16.74980390625,15.843117812500001,16.67660390625Q15.9163378125,16.60340390625,15.9163378125,16.49980390625L15.9163378125,2.66650390625Q15.9163378125,2.41650390625,15.6663378125,2.41650390625L9.3330078125,2.41650390625Q9.0830078125,2.41650390625,9.0830078125,2.66650390625L9.0830078125,16.49980390625Z" fill="#232D42" fill-opacity="1" style="mix-blend-mode:passthrough"/></g><g><path d="M11.6669921875,12.5869140625L13.3336621875,12.5869140625Q13.4075321875,12.5869140625,13.4799721875,12.601325062499999Q13.5524221875,12.6157360625,13.6206721875,12.6440040625Q13.6889121875,12.6722730625,13.7503321875,12.7133120625Q13.8117521875,12.7543510625,13.8639921875,12.8065840625Q13.9162221875,12.8588170625,13.9572621875,12.9202360625Q13.9983021875,12.9816560625,14.0265721875,13.0499010625Q14.0548321875,13.1181470625,14.0692521875,13.1905960625Q14.0836621875,13.2630455625,14.0836621875,13.3369140625Q14.0836621875,13.4107825625,14.0692521875,13.4832320625Q14.0548321875,13.5556810625,14.0265721875,13.6239270625Q13.9983021875,13.6921720625,13.9572621875,13.7535920625Q13.9162221875,13.8150110625,13.8639921875,13.8672440625Q13.8117521875,13.9194770625,13.7503321875,13.9605160625Q13.6889221875,14.0015550625,13.6206721875,14.0298240625Q13.5524221875,14.0580920625,13.4799721875,14.072503062500001Q13.4075321875,14.0869140625,13.3336621875,14.0869140625L11.6669921875,14.0869140625Q11.5931236875,14.0869140625,11.5206741875,14.072503062500001Q11.4482251875,14.0580920625,11.3799791875,14.0298240625Q11.3117341875,14.0015550625,11.2503141875,13.9605160625Q11.1888951875,13.9194770625,11.1366621875,13.8672440625Q11.0844291875,13.8150110625,11.0433901875,13.7535920625Q11.0023511875,13.6921720625,10.9740821875,13.6239270625Q10.9458141875,13.5556810625,10.931403187499999,13.4832320625Q10.9169921875,13.4107825625,10.9169921875,13.3369140625Q10.9169921875,13.2630455625,10.931403187499999,13.1905960625Q10.9458141875,13.1181470625,10.9740821875,13.0499010625Q11.0023511875,12.9816560625,11.0433901875,12.9202360625Q11.0844291875,12.8588170625,11.1366621875,12.8065840625Q11.1888951875,12.7543510625,11.2503141875,12.7133120625Q11.3117341875,12.6722730625,11.3799791875,12.6440040625Q11.4482251875,12.6157360625,11.5206741875,12.601325062499999Q11.5931236875,12.5869140625,11.6669921875,12.5869140625Z" fill-rule="evenodd" fill="#232D42" fill-opacity="1" style="mix-blend-mode:passthrough"/></g><g><path d="M5,12.5869140625L6.66667,12.5869140625Q6.74054,12.5869140625,6.81298,12.601325062499999Q6.8854299999999995,12.6157360625,6.95368,12.6440040625Q7.02192,12.6722730625,7.08334,12.7133120625Q7.14476,12.7543510625,7.197,12.8065840625Q7.24923,12.8588170625,7.29027,12.9202360625Q7.33131,12.9816560625,7.359579999999999,13.0499010625Q7.387840000000001,13.1181470625,7.40226,13.1905960625Q7.41667,13.2630455625,7.41667,13.3369140625Q7.41667,13.4107825625,7.40226,13.4832320625Q7.387840000000001,13.5556810625,7.359579999999999,13.6239270625Q7.33131,13.6921720625,7.29027,13.7535920625Q7.24923,13.8150110625,7.197,13.8672440625Q7.14476,13.9194770625,7.08334,13.9605160625Q7.021929999999999,14.0015550625,6.95368,14.0298240625Q6.8854299999999995,14.0580920625,6.81298,14.072503062500001Q6.74054,14.0869140625,6.66667,14.0869140625L5,14.0869140625Q4.9261315,14.0869140625,4.853682,14.072503062500001Q4.781233,14.0580920625,4.712987,14.0298240625Q4.644742,14.0015550625,4.583322,13.9605160625Q4.521903,13.9194770625,4.46967,13.8672440625Q4.417437,13.8150110625,4.376398,13.7535920625Q4.335359,13.6921720625,4.30709,13.6239270625Q4.278822,13.5556810625,4.264411,13.4832320625Q4.25,13.4107825625,4.25,13.3369140625Q4.25,13.2630455625,4.264411,13.1905960625Q4.278822,13.1181470625,4.30709,13.0499010625Q4.335359,12.9816560625,4.376398,12.9202360625Q4.417437,12.8588170625,4.46967,12.8065840625Q4.521903,12.7543510625,4.583322,12.7133120625Q4.644742,12.6722730625,4.712987,12.6440040625Q4.781233,12.6157360625,4.853682,12.601325062499999Q4.9261315,12.5869140625,5,12.5869140625Z" fill-rule="evenodd" fill="#232D42" fill-opacity="1" style="mix-blend-mode:passthrough"/></g><g><path d="M11.6669921875,8.8369140625L13.3336621875,8.8369140625Q13.4075321875,8.8369140625,13.4799721875,8.851325062499999Q13.5524221875,8.8657360625,13.6206721875,8.8940040625Q13.6889121875,8.9222730625,13.7503321875,8.9633120625Q13.8117521875,9.0043510625,13.8639921875,9.0565840625Q13.9162221875,9.1088170625,13.9572621875,9.1702360625Q13.9983021875,9.2316560625,14.0265721875,9.2999010625Q14.0548321875,9.3681470625,14.0692521875,9.4405960625Q14.0836621875,9.5130455625,14.0836621875,9.5869140625Q14.0836621875,9.6607825625,14.0692521875,9.7332320625Q14.0548321875,9.8056810625,14.0265721875,9.8739270625Q13.9983021875,9.9421720625,13.9572621875,10.0035920625Q13.9162221875,10.0650110625,13.8639921875,10.1172440625Q13.8117521875,10.1694770625,13.7503321875,10.2105160625Q13.6889221875,10.2515550625,13.6206721875,10.2798240625Q13.5524221875,10.3080920625,13.4799721875,10.322503062500001Q13.4075321875,10.3369140625,13.3336621875,10.3369140625L11.6669921875,10.3369140625Q11.5931236875,10.3369140625,11.5206741875,10.322503062500001Q11.4482251875,10.3080920625,11.3799791875,10.2798240625Q11.3117341875,10.2515550625,11.2503141875,10.2105160625Q11.1888951875,10.1694770625,11.1366621875,10.1172440625Q11.0844291875,10.0650110625,11.0433901875,10.0035920625Q11.0023511875,9.9421720625,10.9740821875,9.8739270625Q10.9458141875,9.8056810625,10.931403187499999,9.7332320625Q10.9169921875,9.6607825625,10.9169921875,9.5869140625Q10.9169921875,9.5130455625,10.931403187499999,9.4405960625Q10.9458141875,9.3681470625,10.9740821875,9.2999010625Q11.0023511875,9.2316560625,11.0433901875,9.1702360625Q11.0844291875,9.1088170625,11.1366621875,9.0565840625Q11.1888951875,9.0043510625,11.2503141875,8.9633120625Q11.3117341875,8.9222730625,11.3799791875,8.8940040625Q11.4482251875,8.8657360625,11.5206741875,8.851325062499999Q11.5931236875,8.8369140625,11.6669921875,8.8369140625Z" fill-rule="evenodd" fill="#232D42" fill-opacity="1" style="mix-blend-mode:passthrough"/></g><g><path d="M11.6669921875,5.0869140625L13.3336621875,5.0869140625Q13.4075321875,5.0869140625,13.4799721875,5.1013250625Q13.5524221875,5.1157360625,13.6206721875,5.1440040625Q13.6889121875,5.1722730625,13.7503321875,5.2133120625Q13.8117521875,5.2543510625,13.8639921875,5.3065840625Q13.9162221875,5.3588170625,13.9572621875,5.4202360625Q13.9983021875,5.4816560625,14.0265721875,5.5499010625Q14.0548321875,5.6181470625,14.0692521875,5.6905960625Q14.0836621875,5.7630455625,14.0836621875,5.8369140625Q14.0836621875,5.9107825625,14.0692521875,5.9832320625Q14.0548321875,6.0556810625,14.0265721875,6.1239270625Q13.9983021875,6.1921720625,13.9572621875,6.2535920625Q13.9162221875,6.3150110625,13.8639921875,6.3672440625Q13.8117521875,6.4194770625,13.7503321875,6.4605160625Q13.6889221875,6.5015550625,13.6206721875,6.5298240625Q13.5524221875,6.5580920625,13.4799721875,6.5725030625Q13.4075321875,6.5869140625,13.3336621875,6.5869140625L11.6669921875,6.5869140625Q11.5931236875,6.5869140625,11.5206741875,6.5725030625Q11.4482251875,6.5580920625,11.3799791875,6.5298240625Q11.3117341875,6.5015550625,11.2503141875,6.4605160625Q11.1888951875,6.4194770625,11.1366621875,6.3672440625Q11.0844291875,6.3150110625,11.0433901875,6.2535920625Q11.0023511875,6.1921720625,10.9740821875,6.1239270625Q10.9458141875,6.0556810625,10.931403187499999,5.9832320625Q10.9169921875,5.9107825625,10.9169921875,5.8369140625Q10.9169921875,5.7630455625,10.931403187499999,5.6905960625Q10.9458141875,5.6181470625,10.9740821875,5.5499010625Q11.0023511875,5.4816560625,11.0433901875,5.4202360625Q11.0844291875,5.3588170625,11.1366621875,5.3065840625Q11.1888951875,5.2543510625,11.2503141875,5.2133120625Q11.3117341875,5.1722730625,11.3799791875,5.1440040625Q11.4482251875,5.1157360625,11.5206741875,5.1013250625Q11.5931236875,5.0869140625,11.6669921875,5.0869140625Z" fill-rule="evenodd" fill="#232D42" fill-opacity="1" style="mix-blend-mode:passthrough"/></g></g></svg>