<svg xmlns="http://www.w3.org/2000/svg" xmlns:xlink="http://www.w3.org/1999/xlink" fill="none" version="1.1" width="16" height="16" viewBox="0 0 16 16"><defs><clipPath id="master_svg0_3_01484"><rect x="0" y="0" width="16" height="16" rx="0"/></clipPath></defs><g clip-path="url(#master_svg0_3_01484)"><g><path d="M7.528511953125,4.862010046875C7.788861953125,4.601660746875,8.210971953125,4.601660746875,8.471321953124999,4.862010046875C8.471321953124999,4.862010046875,12.471321953125,8.862008046875001,12.471321953125,8.862008046875001C12.731651953125,9.122358046875,12.731651953125,9.544468046875,12.471321953125,9.804818046874999C12.210981953125,10.065168046875,11.788851953125,10.065168046875,11.528521953125,9.804818046874999C11.528521953125,9.804818046874999,7.999921953125,6.276218046875,7.999921953125,6.276218046875C7.999921953125,6.276218046875,4.471321953125,9.804818046874999,4.471321953125,9.804818046874999C4.210971953125,10.065168046875,3.788862953125,10.065168046875,3.528513953125,9.804818046874999C3.268164653125,9.544468046875,3.268164653125,9.122358046875,3.528513953125,8.862008046875001C3.528513953125,8.862008046875001,7.528511953125,4.862010046875,7.528511953125,4.862010046875C7.528511953125,4.862010046875,7.528511953125,4.862010046875,7.528511953125,4.862010046875Z" fill="#8A92A6" fill-opacity="1"/></g></g></svg>