<svg xmlns="http://www.w3.org/2000/svg" xmlns:xlink="http://www.w3.org/1999/xlink" fill="none" version="1.1" width="24" height="24" viewBox="0 0 24 24"><defs><clipPath id="master_svg0_82_18170"><rect x="0" y="0" width="24" height="24" rx="0"/></clipPath></defs><g clip-path="url(#master_svg0_82_18170)"><g><path d="M12,18.5L12,22L12,18.5Z" fill-rule="evenodd" fill="#232D42" fill-opacity="1"/></g><g><path d="M18,12L22,12L18,12Z" fill-rule="evenodd" fill="#232D42" fill-opacity="1"/></g><g><path d="M2,12L5.5,12L2,12Z" fill-rule="evenodd" fill="#232D42" fill-opacity="1"/></g><g><path d="M12,5.5L12,2L12,5.5Z" fill-rule="evenodd" fill="#232D42" fill-opacity="1"/></g><g><g><ellipse cx="12" cy="12" rx="8" ry="8" fill-opacity="0" stroke-opacity="1" stroke="#232D42" fill="none" stroke-width="1.5" stroke-linecap="ROUND" stroke-linejoin="round"/></g><g><path d="M11.5,20Q11.5,19.9507543,11.509607,19.9024549Q11.519214999999999,19.854155,11.53806,19.808658Q11.556906,19.763161,11.584265,19.722215Q11.611625,19.681269,11.646447,19.646447Q11.681269,19.611625,11.722215,19.584265Q11.763161,19.556906,11.808658,19.53806Q11.854155,19.519215,11.9024549,19.509607Q11.9507543,19.5,12,19.5Q12.0492457,19.5,12.0975451,19.509607Q12.145845,19.519215,12.191342,19.53806Q12.236839,19.556906,12.277785,19.584265Q12.318731,19.611625,12.353553,19.646447Q12.388375,19.681269,12.415735,19.722215Q12.443094,19.763161,12.46194,19.808658Q12.480785000000001,19.854155,12.490393,19.9024549Q12.5,19.9507543,12.5,20L12.5,22Q12.5,22.04925,12.490393,22.09754Q12.480785000000001,22.14584,12.46194,22.19134Q12.443094,22.23684,12.415735,22.27778Q12.388375,22.31873,12.353553,22.35355Q12.318731,22.38838,12.277785,22.41573Q12.236839,22.44309,12.191342,22.46194Q12.145845,22.48078,12.0975451,22.49039Q12.0492457,22.5,12,22.5Q11.9507543,22.5,11.9024549,22.49039Q11.854155,22.48078,11.808658,22.46194Q11.763161,22.44309,11.722215,22.41573Q11.681269,22.38838,11.646447,22.35355Q11.611625,22.31873,11.584265,22.27779Q11.556906,22.23684,11.53806,22.19134Q11.519214999999999,22.14584,11.509607,22.09754Q11.5,22.04925,11.5,22L11.5,20Z" fill-rule="evenodd" fill="#232D42" fill-opacity="1"/></g><g><path d="M20,11.5L22,11.5Q22.04925,11.5,22.09754,11.509607Q22.14584,11.519214999999999,22.19134,11.53806Q22.23684,11.556906,22.27778,11.584265Q22.31873,11.611625,22.35355,11.646447Q22.38838,11.681269,22.41573,11.722215Q22.44309,11.763161,22.46194,11.808658Q22.48078,11.854155,22.49039,11.9024549Q22.5,11.9507543,22.5,12Q22.5,12.0492457,22.49039,12.0975451Q22.48078,12.145845,22.46194,12.191342Q22.44309,12.236839,22.41573,12.277785Q22.38838,12.318731,22.35355,12.353553Q22.31873,12.388375,22.27779,12.415735Q22.23684,12.443094,22.19134,12.46194Q22.14584,12.480785000000001,22.09754,12.490393Q22.04925,12.5,22,12.5L20,12.5Q19.9507543,12.5,19.9024549,12.490393Q19.854155,12.480785000000001,19.808658,12.46194Q19.763161,12.443094,19.722215,12.415735Q19.681269,12.388375,19.646447,12.353553Q19.611625,12.318731,19.584265,12.277785Q19.556906,12.236839,19.53806,12.191342Q19.519215,12.145845,19.509607,12.0975451Q19.5,12.0492457,19.5,12Q19.5,11.9507543,19.509607,11.9024549Q19.519215,11.854155,19.53806,11.808658Q19.556906,11.763161,19.584265,11.722215Q19.611625,11.681269,19.646447,11.646447Q19.681269,11.611625,19.722215,11.584265Q19.763161,11.556906,19.808658,11.53806Q19.854155,11.519214999999999,19.9024549,11.509607Q19.9507543,11.5,20,11.5Z" fill-rule="evenodd" fill="#232D42" fill-opacity="1"/></g><g><path d="M2,11.5L4,11.5Q4.04925,11.5,4.09754,11.509607Q4.14584,11.519214999999999,4.19134,11.53806Q4.23684,11.556906,4.27778,11.584265Q4.31873,11.611625,4.35355,11.646447Q4.38838,11.681269,4.41573,11.722215Q4.44309,11.763161,4.46194,11.808658Q4.48078,11.854155,4.49039,11.9024549Q4.5,11.9507543,4.5,12Q4.5,12.0492457,4.49039,12.0975451Q4.48078,12.145845,4.46194,12.191342Q4.44309,12.236839,4.41573,12.277785Q4.38838,12.318731,4.35355,12.353553Q4.31873,12.388375,4.2777899999999995,12.415735Q4.23684,12.443094,4.19134,12.46194Q4.14584,12.480785000000001,4.09754,12.490393Q4.04925,12.5,4,12.5L2,12.5Q1.9507543,12.5,1.9024549,12.490393Q1.854155,12.480785000000001,1.8086579999999999,12.46194Q1.763161,12.443094,1.722215,12.415735Q1.681269,12.388375,1.646447,12.353553Q1.611625,12.318731,1.584265,12.277785Q1.5569060000000001,12.236839,1.53806,12.191342Q1.519215,12.145845,1.509607,12.0975451Q1.5,12.0492457,1.5,12Q1.5,11.9507543,1.509607,11.9024549Q1.519215,11.854155,1.53806,11.808658Q1.5569060000000001,11.763161,1.584265,11.722215Q1.611625,11.681269,1.646447,11.646447Q1.681269,11.611625,1.722215,11.584265Q1.763161,11.556906,1.8086579999999999,11.53806Q1.854155,11.519214999999999,1.9024549,11.509607Q1.9507543,11.5,2,11.5Z" fill-rule="evenodd" fill="#232D42" fill-opacity="1"/></g><g><path d="M11.5,2Q11.5,1.9507543,11.509607,1.9024549Q11.519214999999999,1.854155,11.53806,1.8086579999999999Q11.556906,1.763161,11.584265,1.722215Q11.611625,1.681269,11.646447,1.646447Q11.681269,1.611625,11.722215,1.584265Q11.763161,1.5569060000000001,11.808658,1.53806Q11.854155,1.519215,11.9024549,1.509607Q11.9507543,1.5,12,1.5Q12.0492457,1.5,12.0975451,1.509607Q12.145845,1.519215,12.191342,1.53806Q12.236839,1.5569060000000001,12.277785,1.584265Q12.318731,1.611625,12.353553,1.646447Q12.388375,1.681269,12.415735,1.722215Q12.443094,1.763161,12.46194,1.8086579999999999Q12.480785000000001,1.854155,12.490393,1.9024549Q12.5,1.9507543,12.5,2L12.5,4Q12.5,4.04925,12.490393,4.09754Q12.480785000000001,4.14584,12.46194,4.19134Q12.443094,4.23684,12.415735,4.27778Q12.388375,4.31873,12.353553,4.35355Q12.318731,4.38838,12.277785,4.41573Q12.236839,4.44309,12.191342,4.46194Q12.145845,4.48078,12.0975451,4.49039Q12.0492457,4.5,12,4.5Q11.9507543,4.5,11.9024549,4.49039Q11.854155,4.48078,11.808658,4.46194Q11.763161,4.44309,11.722215,4.41573Q11.681269,4.38838,11.646447,4.35355Q11.611625,4.31873,11.584265,4.2777899999999995Q11.556906,4.23684,11.53806,4.19134Q11.519214999999999,4.14584,11.509607,4.09754Q11.5,4.04925,11.5,4L11.5,2Z" fill-rule="evenodd" fill="#232D42" fill-opacity="1"/></g></g><g><ellipse cx="12" cy="12" rx="3" ry="3" fill="#232D42" fill-opacity="1"/></g></g></svg>