<svg xmlns="http://www.w3.org/2000/svg" xmlns:xlink="http://www.w3.org/1999/xlink" fill="none" version="1.1" width="24.545455932617188" height="29.45456886291504" viewBox="0 0 24.545455932617188 29.45456886291504"><g><path d="M12.2883,29.4546C14.544,29.4546,16.3735,27.702,16.389,25.5371L16.389,25.5224L8.18673,25.5224C8.18673,27.6873,10.0317,29.4546,12.2883,29.4546ZM23.2036,20.7867Q21.8315,20.7867,21.8315,15.588L21.8315,11.9357C21.8315,7.35547,18.9352,4.30038,14.9711,3.04857C15.2149,1.62002,14.2085,0.279838,12.7301,0.0442014C12.5847,0.0141909,12.4367,-0.000616264,12.2883,0.0000195694C10.7787,0.0000195694,9.55882,1.1782,9.55882,2.62147C9.55882,2.76875,9.57436,2.91602,9.58909,3.04857C5.82382,4.31511,2.72864,7.35547,2.72864,11.9357L2.72864,15.5438Q2.72864,20.7426,1.40318,20.772C0.609545,20.772,0,21.3611,0,22.0827C0,22.4362,0.152182,22.7602,0.396,23.0106C0.655364,23.2609,0.990818,23.3935,1.35655,23.3935L23.1889,23.3935C23.5546,23.3935,23.8901,23.2609,24.1495,23.0106C24.408,22.7602,24.5455,22.4362,24.5455,22.0827C24.5455,21.7293,24.408,21.4053,24.1495,21.1549C23.9204,20.9193,23.5694,20.7867,23.2036,20.7867Z" fill="#000000" fill-opacity="1"/></g></svg>