<svg xmlns="http://www.w3.org/2000/svg" xmlns:xlink="http://www.w3.org/1999/xlink" fill="none" version="1.1" width="24" height="24" viewBox="0 0 24 24"><defs><clipPath id="master_svg0_234_26025"><rect x="0" y="0" width="24" height="24" rx="0"/></clipPath></defs><g><g clip-path="url(#master_svg0_234_26025)"><g><g><path d="M18.816030517578124,3.155794140625L19.978630517578125,3.155794140625C20.267430517578124,3.155794140625,20.496930517578125,2.918759140625,20.496930517578125,2.637279140625L20.496930517578125,2.518761140625C20.496930517578125,2.237280140625,20.267430517578124,2.000244140625,19.978630517578125,2.000244140625L4.014210517578125,2.000244140625C3.732830517578125,2.000244140625,3.495880517578125,2.229873140625,3.495880517578125,2.518761140625L3.495880517578125,2.637279140625C3.495880517578125,2.918759140625,3.725420517578125,3.155794140625,4.014210517578125,3.155794140625L5.176650517578125,3.155794140625L5.176650517578125,5.392634140625L2.000058160278125,5.392634140625L2.000058160278125,10.192614140625C1.992653527578125,12.118544140625,3.473580517578125,13.740744140625,5.421010517578125,13.918544140625C6.176280517578125,16.533344140624997,8.567990517578124,18.355544140625,11.322520517578125,18.407444140625L11.322520517578125,20.651844140625L7.694240517578125,20.651844140625C7.316600517578125,20.651844140625,7.013010517578125,20.955544140625,7.013010517578125,21.325944140625C7.013010517578125,21.696244140625,7.316600517578125,21.999944140625,7.694240517578125,21.999944140625L16.305830517578123,21.999944140625C16.683530517578127,21.999944140625,16.987030517578127,21.696244140625,16.987030517578127,21.325944140625C16.987030517578127,20.955544140625,16.683530517578127,20.651844140625,16.305830517578123,20.651844140625L12.677530517578125,20.651844140625L12.677530517578125,18.407444140625C15.424730517578125,18.355544140625,17.823830517578124,16.533344140624997,18.579130517578125,13.918544140625C20.519130517578127,13.740744140625,22.000030517578125,12.118544140625,22.000030517578125,10.192614140625L22.000030517578125,5.392634140625L18.816030517578124,5.392634140625L18.816030517578124,3.155794140625ZM14.506530517578126,10.318534140625L15.558030517578125,9.259284140624999C15.831930517578124,8.985214140625,15.928230517578125,8.577804140625,15.802330517578126,8.207434140625C15.683830517578125,7.844474140625,15.365430517578124,7.585214140625,14.987830517578125,7.525954140625L13.580930517578125,7.303734140625L12.936730517578125,5.955594140625C12.766430517578126,5.607444140625001,12.418430517578125,5.377814140625,12.025930517578125,5.377814140625L11.996340517578124,5.377814140625C11.603900517578126,5.377814140625,11.248470517578125,5.607444140625001,11.085570517578125,5.955594140625L10.441370517578125,7.303734140625L9.012270517578125,7.518544140625C8.627230517578125,7.577804140625,8.316230517578125,7.837064140625,8.197760517578125,8.200024140625C8.071880517578126,8.570394140625,8.168140517578125,8.977804140625,8.442110517578126,9.251874140624999L9.493570517578124,10.311134140625L9.241810517578125,11.814834140625C9.174440517578125,12.204244140625,9.339120517578124,12.597244140625,9.663880517578125,12.822244140625C9.974870517578125,13.044444140625,10.389530517578125,13.066644140625,10.730150517578124,12.881444140625L11.996340517578124,12.192644140625L13.269930517578125,12.888944140625C13.610530517578125,13.074044140625,14.025230517578125,13.051844140625,14.336230517578125,12.829644140625C14.662030517578126,12.600044140625,14.824930517578125,12.207444140625,14.758230517578125,11.822234140625L14.506530517578126,10.318534140625ZM5.176650517578125,12.037044140625L5.176650517578125,7.111144140625L3.7105305175781247,7.111144140625L3.7105305175781247,10.192614140625C3.7105305175781247,11.281494140625,4.110380517578125,11.770384140625,5.176650517578125,12.037044140625ZM18.816030517578124,12.037044140625C19.882330517578126,11.770384140625,20.282130517578125,11.281494140625,20.282130517578125,10.192614140625L20.282130517578125,7.111144140625L18.816030517578124,7.111144140625L18.816030517578124,12.037044140625Z" fill-rule="evenodd" fill="#FFFFFF" fill-opacity="1"/></g></g></g></g></svg>