<svg xmlns="http://www.w3.org/2000/svg" xmlns:xlink="http://www.w3.org/1999/xlink" fill="none" version="1.1" width="24" height="24" viewBox="0 0 24 24"><defs><clipPath id="master_svg0_29_516"><rect x="0" y="0" width="24" height="24" rx="0"/></clipPath></defs><g clip-path="url(#master_svg0_29_516)"><g><rect x="0" y="0" width="24" height="24" rx="0" fill="#FFFFFF" fill-opacity="0"/></g><g><path d="M21,3L21,21Q21,21.8284,20.4142,22.4142Q19.8284,23,19,23L5,23Q4.17157,23,3.5857900000000003,22.4142Q3,21.8284,3,21L3,3Q3,2.17157,3.585786,1.5857860000000001Q4.17157,1,5,1L19,1Q19.8284,1,20.4142,1.58579Q21,2.17157,21,3ZM11.70711,11.2071L15.7071,7.20711C15.8946,7.01957,16,6.76522,16,6.5C16,6.23478,15.8946,5.98043,15.7065,5.79232C15.7065,5.79232,15.6985,5.78436,15.6979,5.7838C15.5112,5.60183,15.2607,5.5,15,5.5C14.97,5.5,14.94,5.50135,14.9101,5.50405C14.6769,5.52509,14.4585,5.62731,14.2925,5.79327L11,9.08579L9.70711,7.79289C9.51957,7.60536,9.26522,7.5,9,7.5C8.73478,7.5,8.48043,7.60536,8.29289,7.79289C8.105360000000001,7.98043,8,8.23478,8,8.5C8,8.76522,8.105360000000001,9.01957,8.29289,9.20711L10.29289,11.2071C10.48043,11.3946,10.73478,11.5,11,11.5C11.26522,11.5,11.51957,11.3946,11.70711,11.2071ZM15.5,16L8.5,16C7.94772,16,7.5,15.5523,7.5,15C7.5,14.4477,7.94772,14,8.5,14L15.5,14C16.052300000000002,14,16.5,14.4477,16.5,15C16.5,15.5523,16.052300000000002,16,15.5,16ZM12,19L8.5,19C7.94772,19,7.5,18.5523,7.5,18C7.5,17.4477,7.94772,17,8.5,17L12,17C12.55228,17,13,17.4477,13,18C13,18.5523,12.55228,19,12,19Z" fill-rule="evenodd" fill="#000000" fill-opacity="1"/></g></g></svg>