<svg xmlns="http://www.w3.org/2000/svg" xmlns:xlink="http://www.w3.org/1999/xlink" fill="none" version="1.1" width="24" height="24" viewBox="0 0 24 24"><defs><clipPath id="master_svg0_112_08314"><rect x="0" y="0" width="24" height="24" rx="0"/></clipPath></defs><g clip-path="url(#master_svg0_112_08314)"><g><path d="M19.3861,22L4.615745,22C4.276991,22,4.00187156,21.7291,4,21.3933L4,3.606738C4.00187156,3.270898,4.276991,3,4.615745,3L19.3843,3C19.723,3,19.9981,3.270898,20,3.606738L20,21.3914C20,21.7291,19.724899999999998,22,19.3861,22ZM5.23149,17.084899999999998L5.23149,20.7865L18.770400000000002,20.7865L18.770400000000002,19.484L9.180489999999999,19.484C8.84174,19.484,8.56849,19.2131,8.56849,18.877200000000002C8.56849,18.5414,8.84174,18.2705,9.180489999999999,18.2705L18.770400000000002,18.2705L18.770400000000002,17.0867L5.23149,17.0867L5.23149,17.084899999999998ZM12.36589,11.74111L14.5762,11.74111C14.915,11.74111,15.1901,12.01201,15.192,12.34785L15.192,12.66885L16.7865,12.66885C17.1253,12.66885,17.400399999999998,12.93975,17.4023,13.2756L17.4023,15.8695L18.7685,15.8695L18.7685,4.21533L5.23149,4.21533L5.23149,5.922359999999999L6.2178,5.922359999999999L6.2178,5.60137C6.21967,5.26553,6.49479,4.99463,6.83355,4.99463L11.25605,4.99463C11.594809999999999,4.99463,11.86993,5.26553,11.8718,5.60137L11.8718,9.130469999999999L14.8233,9.130469999999999C15.162,9.130469999999999,15.4353,9.40137,15.4353,9.737210000000001C15.4353,10.07305,15.162,10.34395,14.8233,10.34395L5.23149,10.34395L5.23149,15.8695L9.53983,15.8695L9.53983,13.2756C9.541699999999999,12.93975,9.81682,12.66885,10.15557,12.66885L11.75202,12.66885L11.75202,12.34785C11.75202,12.01201,12.02714,11.74111,12.36589,11.74111ZM15.192,13.8823L15.192,15.8695L16.1727,15.8695L16.1727,13.8823L15.192,13.8823ZM12.98164,12.95644L12.98164,15.8695L13.96233,15.8695L13.96233,12.95644L12.98164,12.95644ZM10.769449999999999,13.8823L10.769449999999999,15.8695L11.75015,15.8695L11.75015,13.8823L10.769449999999999,13.8823ZM9.65961,6.20811L9.65961,9.12305L10.64031,9.12305L10.64031,6.20811L9.65961,6.20811ZM7.4492899999999995,6.20811L7.4492899999999995,9.12305L8.42999,9.12305L8.42999,6.20811L7.4492899999999995,6.20811ZM5.23898,7.13584L5.23898,9.12305L6.2178,9.12305L6.2178,7.13584L5.23898,7.13584ZM7.33326,19.484C7.17043,19.484,7.0132200000000005,19.419,6.89905,19.3059C6.870979999999999,19.278,6.84478,19.2465,6.8223199999999995,19.2131C6.79986,19.1797,6.781140000000001,19.1463,6.76617,19.1092C6.7512,19.0721,6.73997,19.0331,6.73061,18.9941C6.71377,18.9162,6.71377,18.834600000000002,6.73061,18.7566C6.74746,18.6787,6.7774,18.6045,6.8223199999999995,18.5377C6.84478,18.5043,6.870979999999999,18.4728,6.89905,18.4449C7.14048,18.2074,7.5279,18.2074,7.76933,18.4449C7.7974,18.4728,7.8236,18.5043,7.84606,18.5377C7.91344,18.637900000000002,7.949,18.7548,7.949,18.8754C7.949,18.9144,7.94526,18.955199999999998,7.93777,18.9941C7.93028,19.0331,7.91718,19.0721,7.90221,19.1092C7.88724,19.1463,7.86852,19.1797,7.84606,19.2131C7.8236,19.2465,7.7974,19.278,7.76933,19.3059C7.65329,19.419,7.49608,19.4821,7.33326,19.484ZM16.668599999999998,10.34395C16.6274,10.34395,16.5881,10.34023,16.547,10.33281C16.5077,10.325389999999999,16.468400000000003,10.31426,16.4309,10.29756C16.3935,10.28271,16.3579,10.26416,16.324199999999998,10.24189C16.290599999999998,10.21963,16.258699999999997,10.195509999999999,16.2307,10.16582C16.2026,10.13799,16.1764,10.106449999999999,16.1539,10.07305C16.131500000000003,10.03965,16.1128,10.00439,16.0978,9.96729C16.0828,9.93018,16.0716,9.89307,16.0622,9.854099999999999C16.0473,9.77617,16.0473,9.69453,16.0622,9.6166C16.0791,9.53867,16.109,9.46445,16.1539,9.39766C16.1764,9.36426,16.2026,9.33457,16.2307,9.30488C16.258699999999997,9.27705,16.290599999999998,9.25107,16.324199999999998,9.22881C16.3579,9.20654,16.3935,9.18799,16.4309,9.17314C16.468400000000003,9.1583,16.5058,9.14531,16.547,9.137889999999999C16.6256,9.12305,16.707900000000002,9.12305,16.7865,9.137889999999999C16.8258,9.14531,16.865099999999998,9.15644,16.9026,9.17314C16.939999999999998,9.18799,16.9756,9.20654,17.0092,9.22881C17.0766,9.273340000000001,17.1346,9.329,17.1796,9.395800000000001C17.2245,9.4626,17.2544,9.536819999999999,17.2713,9.61475C17.2881,9.69268,17.2881,9.77432,17.2713,9.85225C17.2544,9.93018,17.2245,10.00439,17.1796,10.07119C17.1571,10.10459,17.1309,10.13613,17.102800000000002,10.16396C17.0747,10.1918,17.0429,10.21777,17.0092,10.24004C16.9756,10.2623,16.939999999999998,10.28086,16.9026,10.2957C16.865099999999998,10.31055,16.8277,10.32353,16.7865,10.330960000000001C16.7491,10.34023,16.707900000000002,10.34395,16.668599999999998,10.34395Z" fill="#333333" fill-opacity="1"/><path d="M19.8904,21.8934Q20.1,21.6861,20.1,21.3914L20.1,3.606181Q20.0984,3.312805,19.8886,3.106192Q19.679299999999998,2.9,19.3843,2.9L4.615744,2.9Q4.320661,2.9,4.111362,3.106192Q3.9016365,3.312803,3.9,3.606738L3.9000017,21.3938Q3.9016365,21.6872,4.111362,21.8938Q4.320658,22.1,4.615745,22.1L19.3861,22.1Q19.6816,22.1,19.8904,21.8934ZM19.9,3.607296L19.9,21.3914Q19.9,21.6026,19.7498,21.7512Q19.5994,21.9,19.3861,21.9L4.615745,21.9Q4.402626,21.9,4.251722,21.7513Q4.101171,21.603,4.0999986,21.3927L4.1,3.606738Q4.10117,3.396982,4.251722,3.248667Q4.402629,3.1,4.615744,3.1L19.3843,3.1Q19.5974,3.1,19.7483,3.248667Q19.8988,3.396984,19.9,3.607296ZM11.85202,12.76885L11.85202,12.34785Q11.85202,12.13795,12.00218,11.98971Q12.15269,11.84111,12.36589,11.84111L14.5762,11.84111Q14.7893,11.84111,14.9402,11.98978Q15.0908,12.1381,15.092,12.34841L15.092,12.76885L16.7865,12.76885Q16.9996,12.76885,17.1505,12.91751Q17.301099999999998,13.0658,17.302300000000002,13.2761L17.302300000000002,15.9695L18.868499999999997,15.9695L18.868499999999997,4.11533L5.13149,4.11533L5.13149,6.02236L6.3178,6.02236L6.3178,5.60137Q6.31897,5.39161,6.46952,5.2433Q6.62043,5.09463,6.83355,5.09463L11.25605,5.09463Q11.46917,5.09463,11.62008,5.2433Q11.77063,5.39161,11.771799999999999,5.60192L11.771799999999999,9.23047L14.8233,9.23047Q15.0361,9.23047,15.1859,9.378910000000001Q15.3353,9.527000000000001,15.3353,9.737210000000001Q15.3353,9.94741,15.1859,10.095500000000001Q15.0362,10.24394,14.8233,10.24395L5.13149,10.24395L5.13149,15.9695L9.63983,15.9695L9.63983,13.2756Q9.641,13.0658,9.79155,12.91751Q9.94246,12.76885,10.15557,12.76885L11.85202,12.76885ZM11.86167,11.84738Q11.65202,12.05435,11.65202,12.34785L11.65202,12.56885L10.15557,12.56885Q9.86049,12.56885,9.65119,12.77504Q9.441469999999999,12.98165,9.43983,13.2756L9.43983,15.7695L5.3314900000000005,15.7695L5.3314900000000005,10.44394L14.8233,10.44394Q15.1185,10.443950000000001,15.3267,10.23753Q15.5353,10.03076,15.5353,9.737210000000001Q15.5353,9.44365,15.3267,9.23688Q15.1185,9.030470000000001,14.8233,9.030470000000001L11.9718,9.030470000000001L11.9718,5.60081Q11.97016,5.30743,11.76044,5.100820000000001Q11.55114,4.89463,11.25605,4.89463L6.83355,4.89463Q6.538460000000001,4.89463,6.3291699999999995,5.100820000000001Q6.11944,5.30743,6.1178,5.60137L6.1178,5.82236L5.3314900000000005,5.82236L5.3314900000000005,4.31533L18.6685,4.31533L18.6685,15.7695L17.502299999999998,15.7695L17.502299999999998,13.275Q17.5006,12.98165,17.2909,12.77504Q17.0816,12.56885,16.7865,12.56885L15.292,12.56885L15.292,12.34729Q15.2903,12.05392,15.0806,11.8473Q14.8713,11.64111,14.5762,11.64111L12.36589,11.64111Q12.0706,11.64111,11.86167,11.84738ZM8.52999,9.22305L8.52999,6.10811L7.34929,6.10811L7.34929,9.22305L8.52999,9.22305ZM10.740310000000001,9.22305L10.740310000000001,6.10811L9.55961,6.10811L9.55961,9.22305L10.740310000000001,9.22305ZM8.329989999999999,6.30811L8.329989999999999,9.02305L7.54929,9.02305L7.54929,6.30811L8.329989999999999,6.30811ZM10.54031,6.30811L10.54031,9.02305L9.75961,9.02305L9.75961,6.30811L10.54031,6.30811ZM6.3178,9.22305L6.3178,7.03584L5.13898,7.03584L5.13898,9.22305L6.3178,9.22305ZM6.1178,7.23584L6.1178,9.02305L5.33898,9.02305L5.33898,7.23584L6.1178,7.23584ZM16.8074,10.42878Q16.7444,10.44394,16.668599999999998,10.44394Q16.599800000000002,10.44394,16.5292,10.43123Q16.4539,10.417010000000001,16.3921,10.38975Q16.3274,10.363859999999999,16.2691,10.32532Q16.2027,10.281410000000001,16.1592,10.23574Q16.1097,10.18652,16.070999999999998,10.12885Q16.031399999999998,10.070070000000001,16.0051,10.0047Q15.9816,9.94653,15.965,9.87745L15.9645,9.875219999999999L15.964,9.872969999999999Q15.9376,9.73535,15.964,9.59773L15.9642,9.596599999999999L15.9645,9.595469999999999Q15.9948,9.45504,16.070999999999998,9.34185Q16.102600000000002,9.294730000000001,16.158,9.236170000000001L16.159100000000002,9.235L16.1603,9.23387Q16.2103,9.18423,16.2691,9.14538Q16.3283,9.10627,16.3941,9.08019Q16.4696,9.05022,16.5292,9.039480000000001Q16.6667,9.0135,16.8051,9.039629999999999Q16.8796,9.05369,16.9413,9.08095Q17.0061,9.10684,17.0644,9.14538Q17.185499999999998,9.225439999999999,17.2625,9.34Q17.3386,9.45318,17.369,9.59362Q17.3992,9.73349,17.369,9.873370000000001Q17.3386,10.01381,17.2625,10.12699Q17.223300000000002,10.18532,17.1732,10.23498Q17.1232,10.28461,17.0644,10.32346Q17.005200000000002,10.362580000000001,16.9394,10.38866Q16.8659,10.41783,16.8074,10.42878ZM16.7656,10.23312L16.7625,10.233889999999999Q16.721899999999998,10.24395,16.668599999999998,10.24395Q16.6177,10.24395,16.564700000000002,10.2344Q16.5128,10.224599999999999,16.4717,10.20623L16.4697,10.20538L16.4678,10.2046Q16.421300000000002,10.18615,16.3794,10.158470000000001Q16.3313,10.12668,16.3033,10.09711L16.3022,10.095939999999999L16.301099999999998,10.0948Q16.2651,10.0591,16.2369,10.01725Q16.2091,9.97583,16.1905,9.929870000000001Q16.173000000000002,9.88635,16.16,9.83301Q16.1416,9.7348,16.1602,9.6366Q16.182499999999997,9.53436,16.2369,9.45346Q16.2591,9.42053,16.3022,9.3748Q16.3378,9.33975,16.3794,9.31223Q16.421300000000002,9.28455,16.4678,9.2661Q16.5248,9.243500000000001,16.564700000000002,9.2363Q16.6667,9.21704,16.768,9.23615Q16.820700000000002,9.2461,16.861800000000002,9.26447L16.8637,9.265329999999999L16.8657,9.2661Q16.9122,9.28455,16.9541,9.31223Q17.0419,9.37023,17.096600000000002,9.4516Q17.1513,9.53294,17.1735,9.63587Q17.1946,9.73349,17.1735,9.83112Q17.1513,9.93405,17.096600000000002,10.01539Q17.0684,10.05725,17.032400000000003,10.09295Q16.9964,10.12867,16.9541,10.15661Q16.9122,10.1843,16.8657,10.20274Q16.8087,10.225349999999999,16.7688,10.23254L16.7656,10.23312ZM14.0623,15.9695L14.0623,12.85644L12.88163,12.85644L12.88163,15.9695L14.0623,15.9695ZM13.86233,13.0564L13.86233,15.7695L13.08164,15.7695L13.08164,13.0564L13.86233,13.0564ZM11.85015,15.9695L11.85015,13.7823L10.669450000000001,13.7823L10.669450000000001,15.9695L11.85015,15.9695ZM16.2727,15.9695L16.2727,13.7823L15.092,13.7823L15.092,15.9695L16.2727,15.9695ZM11.65015,13.9823L11.65015,15.7695L10.86945,15.7695L10.86945,13.9823L11.65015,13.9823ZM16.072699999999998,13.9823L16.072699999999998,15.7695L15.292,15.7695L15.292,13.9823L16.072699999999998,13.9823ZM5.23149,17.084899999999998L5.23149,16.9867L18.8704,16.9867L18.8704,18.3705L9.180489999999999,18.3705Q8.967590000000001,18.3705,8.81786,18.519Q8.66849,18.667,8.66849,18.877200000000002Q8.66849,19.0875,8.81786,19.2355Q8.967590000000001,19.384,9.180489999999999,19.384L18.8704,19.384L18.8704,20.8865L5.13149,20.8865L5.13149,17.084899999999998L5.23149,17.084899999999998ZM5.3314900000000005,17.186700000000002L5.3314900000000005,20.6865L18.6704,20.6865L18.6704,19.584L9.180489999999999,19.584Q8.885259999999999,19.584,8.677050000000001,19.3776Q8.46849,19.1708,8.46849,18.877200000000002Q8.46849,18.5837,8.677050000000001,18.3769Q8.885259999999999,18.1705,9.180489999999999,18.1705L18.6704,18.1705L18.6704,17.186700000000002L5.3314900000000005,17.186700000000002ZM7.3344000000000005,19.584Q7.63089,19.5806,7.83916,19.3774L7.839729999999999,19.3769Q7.88983,19.3272,7.9290400000000005,19.2689Q7.97044,19.2073,7.994949999999999,19.1466Q8.024280000000001,19.0739,8.035969999999999,19.013Q8.049,18.9452,8.049,18.8754Q8.049,18.6603,7.92905,18.4819Q7.88982,18.4236,7.83946,18.3736Q7.6292,18.166800000000002,7.3341899999999995,18.166800000000002Q7.03919,18.166800000000002,6.82865,18.3739Q6.778560000000001,18.4236,6.73934,18.4819Q6.66322,18.595100000000002,6.6328700000000005,18.735500000000002Q6.60264,18.8754,6.6328700000000005,19.0153L6.63311,19.0164L6.63338,19.0175Q6.65107,19.0912,6.673439999999999,19.1466Q6.69794,19.2073,6.73933,19.2689Q6.77855,19.3272,6.82865,19.3769Q7.0375499999999995,19.584,7.3344000000000005,19.584ZM7.6995000000000005,19.2343L7.69893,19.2348Q7.5481300000000005,19.3815,7.33211,19.384Q7.11989,19.384,6.96946,19.2348Q6.933450000000001,19.1991,6.9053,19.1573Q6.875579999999999,19.1131,6.85891,19.0718Q6.84224,19.0305,6.82812,18.971899999999998Q6.807370000000001,18.8748,6.82835,18.7778Q6.8506,18.674799999999998,6.9053,18.5935Q6.93346,18.5516,6.96946,18.515900000000002Q7.12107,18.366799999999998,7.3341899999999995,18.366799999999998Q7.5473099999999995,18.366799999999998,7.699199999999999,18.516199999999998Q7.73493,18.5516,7.76308,18.5935Q7.849,18.7213,7.849,18.8754Q7.849,18.9262,7.83957,18.9753Q7.83153,19.0171,7.80947,19.0718Q7.7928,19.1131,7.76308,19.1573Q7.7351600000000005,19.1988,7.6995000000000005,19.2343Z" fill-rule="evenodd" fill="#333333" fill-opacity="1"/></g></g></svg>