<svg xmlns="http://www.w3.org/2000/svg" xmlns:xlink="http://www.w3.org/1999/xlink" fill="none" version="1.1" width="29.5" height="29.5" viewBox="0 0 29.5 29.5"><g><g><path d="M15.125933501815796,16.04065030517578L25.357633501815798,10.113985305175781Q25.442933501815794,10.064562305175782,25.512533501815795,9.994764305175782Q25.582233501815796,9.924966305175781,25.631433501815795,9.83953830517578Q25.680733501815794,9.754109305175781,25.706133501815795,9.658856305175782Q25.731633501815796,9.563603305175782,25.731633501815796,9.464999905175782Q25.731633501815796,9.447064205175781,25.730833501815795,9.429148935175782Q25.722133501815797,9.24693230517578,25.630633501815797,9.089076305175782Q25.555833501815798,8.959985305175781,25.437433501815796,8.869336305175782Q25.318933501815795,8.778686305175782,25.174733501815798,8.740280305175782Q25.079833501815795,8.71500130517578,24.981633501815796,8.715000305175781Q24.969333501815797,8.715000305175781,24.956933501815797,8.71540730517578Q24.768733501815795,8.72161130517578,24.605733501815795,8.81601430517578L14.749833501815797,14.525030305175783L4.824095501815796,8.780922305175782L4.823994501815796,8.780863305175782Q4.649704501815796,8.680000305175781,4.448333389951796,8.680000305175781L4.435591401815796,8.680108305175782Q4.3437275018157955,8.681669305175781,4.254957501815796,8.705358305175782Q4.110816501815796,8.74382330517578,3.992368501815796,8.834520305175781Q3.873920501815796,8.925217305175781,3.799196501815796,9.05433930517578Q3.698333501815796,9.228629305175781,3.698333501815796,9.430000305175781L3.698441501815796,9.442742405175782Q3.700002501815796,9.534606305175782,3.7236915018157957,9.623376305175782Q3.762156501815796,9.767517305175781,3.8528535018157957,9.885965305175782Q3.943550501815796,10.004413305175781,4.072672501815796,10.07913730517578L4.072773501815796,10.079195305175782L14.374343501815796,16.040800305175782Q14.460033501815795,16.09038030517578,14.555633501815796,16.11603030517578Q14.651133501815796,16.141690305175782,14.750133501815796,16.14167030517578Q14.849133501815796,16.14165030517578,14.944733501815795,16.11595030517578Q15.040233501815797,16.090260305175782,15.125933501815796,16.04065030517578Z" fill-rule="evenodd" fill="#2B3D56" fill-opacity="1"/></g><g><path d="M15.5,25.961701068115232L15.5,15.380001068115234Q15.5,15.306132568115235,15.485589000000001,15.233683068115234Q15.471178,15.161234068115235,15.44291,15.092988068115234Q15.414641,15.024743068115235,15.373602,14.963323068115235Q15.332563,14.901904068115234,15.28033,14.849671068115235Q15.228097,14.797438068115234,15.166678,14.756399068115234Q15.105258,14.715360068115235,15.037013,14.687091068115235Q14.968767,14.658823068115234,14.896318,14.644412068115233Q14.8238685,14.630001068115234,14.75,14.630001068115234Q14.6761315,14.630001068115234,14.603682,14.644412068115233Q14.531233,14.658823068115234,14.462987,14.687091068115235Q14.394742,14.715360068115235,14.333322,14.756399068115234Q14.271903,14.797438068115234,14.21967,14.849671068115235Q14.167437,14.901904068115234,14.126398,14.963323068115235Q14.085359,15.024743068115235,14.05709,15.092988068115234Q14.028822,15.161234068115235,14.014410999999999,15.233683068115234Q14,15.306132568115235,14,15.380001068115234L14,25.961701068115232Q14,26.035501068115234,14.014410999999999,26.108001068115236Q14.028822,26.180401068115234,14.05709,26.248701068115235Q14.085359,26.316901068115236,14.126398,26.378401068115235Q14.167437,26.439801068115234,14.21967,26.492001068115236Q14.271903,26.544201068115235,14.333322,26.585301068115236Q14.394742,26.626301068115232,14.462987,26.654601068115234Q14.531233,26.682901068115235,14.603682,26.697301068115234Q14.6761315,26.711701068115232,14.75,26.711701068115232Q14.8238685,26.711701068115232,14.896318,26.697301068115234Q14.968767,26.682901068115235,15.037013,26.654601068115234Q15.105258,26.626301068115232,15.166678,26.585301068115236Q15.228097,26.544201068115235,15.28033,26.492001068115236Q15.332563,26.439801068115234,15.373602,26.378401068115235Q15.414641,26.316901068115236,15.44291,26.248701068115235Q15.471178,26.180401068115234,15.485589000000001,26.108001068115236Q15.5,26.035501068115234,15.5,25.961701068115232Z" fill-rule="evenodd" fill="#2B3D56" fill-opacity="1"/></g><g><path d="M23.769933654403687,6.44053674118042L17.541233654403687,2.97622274118042L17.537033654403686,2.97390274118042Q16.360133654403686,2.32919774118042,14.750233654403687,2.33187674118042Q13.134173654403687,2.3345657411804197,11.967853654403687,2.98934604118042L5.741393654403686,6.44070674118042Q4.504320654403687,7.12569674118042,3.6462406544036865,8.58093674118042Q2.7883336544036865,10.03587674118042,2.7883336544036865,11.44833674118042L2.7883336544036865,18.03996674118042Q2.7883336544036865,19.45246674118042,3.6462406544036865,20.90736674118042Q4.504322654403687,22.36266674118042,5.7416936544036865,23.04776674118042L11.970453654403686,26.51206674118042Q13.139053654403687,27.15796674118042,14.755833654403686,27.15786674118042Q16.372633654403685,27.15796674118042,17.539433654403688,26.51306674118042L23.771233654403687,23.04706674118042Q25.007333654403688,22.36266674118042,25.865433654403688,20.90736674118042Q26.723333654403685,19.45246674118042,26.723333654403685,18.03996674118042L26.723333654403685,11.44833674118042Q26.723333654403685,10.03587674118042,25.865433654403688,8.58093674118042Q25.007333654403688,7.12569674118042,23.769933654403687,6.44053674118042ZM14.752733654403686,3.83187474118042Q15.975933654403686,3.82983874118042,16.814333654403686,4.28834674118042L16.816333654403685,4.28944674118042L23.043333654403686,7.75279674118042Q23.922933654403685,8.23984674118042,24.573333654403687,9.342816741180421Q25.223333654403685,10.44518674118042,25.223333654403685,11.44833674118042L25.223333654403685,18.03996674118042Q25.223333654403685,19.04316674118042,24.573333654403687,20.14546674118042Q23.922933654403685,21.24846674118042,23.042133654403685,21.73626674118042L16.813933654403687,25.20026674118042Q15.985733654403687,25.65796674118042,14.755833654403686,25.65786674118042Q13.525953654403686,25.65786674118042,12.699543654403687,25.20126674118042L6.468313654403687,21.73556674118042Q5.5887036544036865,21.24846674118042,4.9383436544036865,20.14546674118042Q4.2883336544036865,19.04316674118042,4.2883336544036865,18.03996674118042L4.2883336544036865,11.44833674118042Q4.2883336544036865,10.44518674118042,4.9383436544036865,9.342816741180421Q5.5887036544036865,8.23984674118042,6.468603654403687,7.75263674118042L12.702153654403686,4.29731674118042Q13.527603654403686,3.83391274118042,14.752733654403686,3.83187474118042Z" fill-rule="evenodd" fill="#2B3D56" fill-opacity="1"/></g><g transform="matrix(-1,0,0,-1,57.49996566772461,57.499916076660156)" style="opacity:0;"><path d="M27.999982833862305,28.749958038330078L27.999982833862305,56.74995803833008Q27.999982833862305,56.82385803833007,28.014393833862304,56.896258038330075Q28.028804833862306,56.96875803833008,28.057072833862303,57.03695803833008Q28.085341833862305,57.10525803833008,28.126380833862306,57.16665803833008Q28.167419833862304,57.228058038330076,28.219652833862305,57.280258038330075Q28.271885833862306,57.33255803833008,28.333304833862304,57.373558038330074Q28.394724833862306,57.41455803833008,28.462969833862303,57.44285803833008Q28.531215833862305,57.471158038330074,28.603664833862304,57.48555803833008Q28.676114333862305,57.49995803833008,28.749982833862305,57.49995803833008L56.749982833862305,57.49995803833008Q56.8238828338623,57.49995803833008,56.8962828338623,57.48555803833008Q56.968782833862306,57.471158038330074,57.036982833862304,57.44285803833008Q57.105282833862304,57.41455803833008,57.1666828338623,57.373558038330074Q57.2280828338623,57.33255803833008,57.2802828338623,57.280258038330075Q57.332582833862304,57.228058038330076,57.3735828338623,57.16665803833008Q57.414582833862305,57.10525803833008,57.442882833862306,57.03695803833008Q57.4711828338623,56.96875803833008,57.48558283386231,56.896258038330075Q57.499982833862305,56.82385803833007,57.499982833862305,56.74995803833008L57.499982833862305,28.749958038330078Q57.499982833862305,28.67608953833008,57.48558283386231,28.603640038330077Q57.4711828338623,28.53119103833008,57.442882833862306,28.462945038330076Q57.414582833862305,28.39470003833008,57.3735828338623,28.333280038330077Q57.332582833862304,28.27186103833008,57.2802828338623,28.21962803833008Q57.2280828338623,28.167395038330078,57.1666828338623,28.12635603833008Q57.105282833862304,28.08531703833008,57.036982833862304,28.057048038330077Q56.968782833862306,28.02878003833008,56.8962828338623,28.014369038330077Q56.8238828338623,27.999958038330078,56.749982833862305,27.999958038330078L28.749982833862305,27.999958038330078Q28.676114333862305,27.999958038330078,28.603664833862304,28.014369038330077Q28.531215833862305,28.02878003833008,28.462969833862303,28.057048038330077Q28.394724833862306,28.08531703833008,28.333304833862304,28.12635603833008Q28.271885833862306,28.167395038330078,28.219652833862305,28.21962803833008Q28.167419833862304,28.27186103833008,28.126380833862306,28.333280038330077Q28.085341833862305,28.39470003833008,28.057072833862303,28.462945038330076Q28.028804833862306,28.53119103833008,28.014393833862304,28.603640038330077Q27.999982833862305,28.67608953833008,27.999982833862305,28.749958038330078ZM29.499982833862305,55.99995803833008L55.999982833862305,55.99995803833008L55.999982833862305,29.499958038330078L29.499982833862305,29.499958038330078L29.499982833862305,55.99995803833008Z" fill-rule="evenodd" fill="#2B3D56" fill-opacity="1"/></g></g></svg>