<svg xmlns="http://www.w3.org/2000/svg" xmlns:xlink="http://www.w3.org/1999/xlink" fill="none" version="1.1" width="9" height="7.999996185302734" viewBox="0 0 9 7.999996185302734"><g><g><path d="M8.54999998807907,6.737420419006348L8.54999998807907,3.7913904190063477L0.44999998807907104,3.7913904190063477L0.44999998807907104,6.737420419006348C0.44999998807907104,7.202280419006348,0.8529429880790711,7.579140419006348,1.349999988079071,7.579140419006348L7.649999988079071,7.579140419006348C8.147049988079072,7.579140419006348,8.54999998807907,7.202280419006348,8.54999998807907,6.737420419006348Z" fill="#FFFFFF" fill-opacity="1"/></g><g><path d="M7.65,7.999999651641846L1.35,7.999999651641846Q0.790812,7.999999651641846,0.395405,7.630189651641846Q0,7.260389651641846,0,6.737419651641845L0,3.7913906516418456C0,3.558955651641846,0.201472,3.3705296516418457,0.45,3.3705296516418457L8.55,3.3705296516418457C8.79853,3.3705296516418457,9,3.558955651641846,9,3.7913906516418456L9,6.737419651641845Q9,7.260389651641846,8.60459,7.630189651641846Q8.20918,7.999999651641846,7.65,7.999999651641846ZM7.65,7.158279651641846Q7.83639,7.158279651641846,7.96819,7.035009651641846Q8.1,6.911739651641845,8.1,6.737419651641845L8.1,4.212250651641845L0.9,4.212250651641845L0.9,6.737419651641845Q0.9,6.911739651641845,1.0318,7.035009651641846Q1.16361,7.158279651641846,1.35,7.158279651641846L7.65,7.158279651641846Z" fill-rule="evenodd" fill="#FFFFFF" fill-opacity="1"/></g><g><path d="M0.45,5.895693721099853L8.55,5.895693721099853C8.79853,5.895693721099853,9,5.707268721099854,9,5.474833721099854C9,5.242398721099853,8.79853,5.0539727210998535,8.55,5.0539727210998535L0.45,5.0539727210998535C0.201472,5.0539727210998535,0,5.242398721099853,0,5.474833721099854C0,5.707268721099854,0.201472,5.895693721099853,0.45,5.895693721099853Z" fill-rule="evenodd" fill="#82B8B7" fill-opacity="1"/></g><g><path d="M0,4.63311218637085L0,6.31655118637085C0,6.548991186370849,0.201472,6.737411186370849,0.45,6.737411186370849C0.698528,6.737411186370849,0.9,6.548991186370849,0.9,6.31655118637085L0.9,4.63311218637085C0.9,4.400677186370849,0.698528,4.21225118637085,0.45,4.21225118637085C0.201472,4.21225118637085,0,4.400677186370849,0,4.63311218637085Z" fill-rule="evenodd" fill="#FFFFFF" fill-opacity="1"/></g><g><path d="M8.09999942779541,4.63311218637085L8.09999942779541,6.31655118637085C8.09999942779541,6.548991186370849,8.301471427795411,6.737411186370849,8.54999942779541,6.737411186370849C8.79852742779541,6.737411186370849,8.99999942779541,6.548991186370849,8.99999942779541,6.31655118637085L8.99999942779541,4.63311218637085C8.99999942779541,4.400677186370849,8.79852742779541,4.21225118637085,8.54999942779541,4.21225118637085C8.301471427795411,4.21225118637085,8.09999942779541,4.400677186370849,8.09999942779541,4.63311218637085Z" fill-rule="evenodd" fill="#FFFFFF" fill-opacity="1"/></g><g><path d="M0.6936468489813954,1.8289992847442627Q1.6597328489813954,0.7203902847442627,2.373362848981395,0.3273052847442627Q3.5944728489813955,-0.3453027152557373,4.753892848981395,0.3642872847442627Q6.092362848981395,1.1834492847442626,7.324932848981395,2.0808692847442627Q8.026472848981395,2.5916592847442628,8.424122848981396,2.9469792847442626Q9.000002848981396,3.4615592847442627,9.000002848981396,3.7913892847442625C9.000002848981396,4.023829284744263,8.798522848981396,4.212249284744263,8.550002848981395,4.212249284744263L0.4649738489813954,4.212249284744263C0.21644584898139535,4.212249284744263,0.014975448981395363,4.023819284744262,0.014977848981395364,3.7913892847442625Q0.014978348981395363,3.7394292847442627,0.008369748981395364,3.6229392847442625Q-0.017058951018604634,3.1747292847442625,0.07222364898139537,2.869199284744263Q0.21602784898139538,2.3770892847442626,0.6936468489813954,1.8289992847442627ZM1.3912928489813954,2.3607692847442627Q1.0339828489813954,2.7707892847442626,0.9403858489813953,3.0910992847442627Q0.9077918489813953,3.202639284744263,0.9032608489813954,3.3705292847442627L7.586542848981395,3.3705292847442627Q7.260222848981395,3.100479284744263,6.772062848981395,2.7450492847442627Q5.568642848981395,1.8688492847442626,4.261082848981395,1.0686092847442628Q3.569472848981395,0.6453252847442627,2.8301028489813955,1.0525892847442626Q2.2554628489813955,1.3691092847442627,1.3912928489813954,2.3607692847442627Z" fill-rule="evenodd" fill="#FFFFFF" fill-opacity="1"/></g></g></svg>