<svg xmlns="http://www.w3.org/2000/svg" xmlns:xlink="http://www.w3.org/1999/xlink" fill="none" version="1.1" width="24" height="24" viewBox="0 0 24 24"><defs><clipPath id="master_svg0_112_04473"><rect x="0" y="0" width="24" height="24" rx="0"/></clipPath></defs><g><g clip-path="url(#master_svg0_112_04473)"><g><path d="M4.75,10L4.75,22Q4.75,22.073900000000002,4.764411,22.1463Q4.778822,22.2188,4.80709,22.287Q4.835359,22.3553,4.876398,22.4167Q4.917437,22.478099999999998,4.96967,22.5303Q5.021903,22.5826,5.083322,22.6236Q5.144742,22.6646,5.212987,22.6929Q5.281233,22.7212,5.353682,22.7356Q5.4261315,22.75,5.5,22.75Q5.5738685,22.75,5.646318,22.7356Q5.718767,22.7212,5.787013,22.6929Q5.855258,22.6646,5.916678,22.6236Q5.978097,22.5826,6.03033,22.5303Q6.082563,22.478099999999998,6.123602,22.4167Q6.164641,22.3553,6.19291,22.287Q6.221178,22.2188,6.235589,22.1463Q6.25,22.073900000000002,6.25,22L6.25,10.39049L10.92981,7.114625L10.9301,7.114424Q11.004190000000001,7.0625599999999995,11.06383,6.994569Q11.123470000000001,6.926578,11.165230000000001,6.846359Q11.207,6.76614,11.2285,6.678292Q11.25,6.5904443,11.25,6.50000350575Q11.25,6.4881119,11.24962,6.4762297Q11.24254,6.25293,11.114419999999999,6.069903Q11.028870000000001,5.947686,10.90306,5.867512Q10.77725,5.787338,10.63034,5.761412Q10.56567,5.75,10.5,5.75Q10.49259,5.75,10.48518,5.750147Q10.25693,5.754659,10.0699,5.885576L10.06962,5.885777L5.069903,9.385580000000001Q4.995811,9.43744,4.936172,9.50543Q4.876533,9.57342,4.834766,9.65364Q4.792999,9.73386,4.7715,9.82171Q4.75,9.909559999999999,4.75,10Z" fill-rule="evenodd" fill="#333333" fill-opacity="1"/></g><g><path d="M9.75,2L9.75,22Q9.75,22.0739,9.764410999999999,22.1463Q9.778822,22.2188,9.80709,22.287Q9.835359,22.3553,9.876398,22.4167Q9.917437,22.4781,9.96967,22.5303Q10.021903,22.5826,10.083322,22.6236Q10.144742,22.6646,10.212987,22.6929Q10.281233,22.7212,10.353682,22.7356Q10.4261315,22.75,10.5,22.75L19,22.75Q19.07387,22.75,19.14632,22.7356Q19.21877,22.7212,19.287010000000002,22.6929Q19.35526,22.6646,19.41668,22.6236Q19.478099999999998,22.5826,19.53033,22.5303Q19.58256,22.4781,19.6236,22.4167Q19.66464,22.3553,19.692909999999998,22.287Q19.72118,22.2188,19.735590000000002,22.1463Q19.75,22.0739,19.75,22L19.75,14.5Q19.75,14.4105,19.728920000000002,14.3234Q19.70785,14.2364,19.66688,14.1568Q19.625909999999998,14.0772,19.56734,14.0095Q19.508789999999998,13.9417,19.43593,13.8897L16.25,11.61404L16.25,5.5Q16.25,5.40956,16.2285,5.3217099999999995Q16.207,5.23386,16.16523,5.15364Q16.12347,5.0734200000000005,16.06383,5.0054300000000005Q16.00419,4.9374400000000005,15.9301,4.88558L10.930097,1.385576Q10.736417,1.25,10.5,1.25Q10.4261315,1.25,10.353682,1.264411Q10.281233,1.278822,10.212987,1.30709Q10.144742,1.335359,10.083322,1.376398Q10.021903,1.417437,9.96967,1.46967Q9.917437,1.521903,9.876398,1.583322Q9.835359,1.644742,9.80709,1.712987Q9.778822,1.781233,9.764410999999999,1.853682Q9.75,1.9261314999999999,9.75,2ZM11.25,21.25L18.25,21.25L18.25,14.886L15.064070000000001,12.6103Q14.991209999999999,12.5583,14.932649999999999,12.4905Q14.874089999999999,12.4228,14.833120000000001,12.3432Q14.79215,12.2636,14.771080000000001,12.1766Q14.75,12.0895,14.75,12L14.75,5.89049L11.25,3.44049L11.25,21.25Z" fill-rule="evenodd" fill="#333333" fill-opacity="1"/></g><g><path d="M2,22.75L22,22.75Q22.0739,22.75,22.1463,22.735589Q22.2188,22.721178,22.287,22.69291Q22.3553,22.664641,22.4167,22.623601999999998Q22.4781,22.582563,22.5303,22.53033Q22.5826,22.478096999999998,22.6236,22.416678Q22.6646,22.355258,22.6929,22.287013Q22.7212,22.218767,22.7356,22.146318Q22.75,22.0738685,22.75,22Q22.75,21.9261315,22.7356,21.853682Q22.7212,21.781233,22.6929,21.712987Q22.6646,21.644742,22.6236,21.583322Q22.5826,21.521903000000002,22.5303,21.46967Q22.4781,21.417437,22.4167,21.376398000000002Q22.3553,21.335359,22.287,21.30709Q22.2188,21.278822,22.1463,21.264411Q22.0739,21.25,22,21.25L2,21.25Q1.9261314999999999,21.25,1.853682,21.264411Q1.781233,21.278822,1.712987,21.30709Q1.644742,21.335359,1.583322,21.376398000000002Q1.521903,21.417437,1.46967,21.46967Q1.417437,21.521903000000002,1.376398,21.583322Q1.335359,21.644742,1.30709,21.712987Q1.278822,21.781233,1.264411,21.853682Q1.25,21.9261315,1.25,22Q1.25,22.0738685,1.264411,22.146318Q1.278822,22.218767,1.30709,22.287013Q1.335359,22.355258,1.376398,22.416678Q1.417437,22.478096999999998,1.46967,22.53033Q1.521903,22.582563,1.583322,22.623601999999998Q1.644742,22.664641,1.712987,22.69291Q1.781233,22.721178,1.853682,22.735589Q1.9261314999999999,22.75,2,22.75Z" fill-rule="evenodd" fill="#333333" fill-opacity="1"/></g></g></g></svg>