<svg xmlns="http://www.w3.org/2000/svg" xmlns:xlink="http://www.w3.org/1999/xlink" fill="none" version="1.1" width="24" height="24" viewBox="0 0 24 24"><defs><clipPath id="master_svg0_112_04486"><rect x="0" y="0" width="24" height="24" rx="0"/></clipPath></defs><g><g clip-path="url(#master_svg0_112_04486)"><g></g><g><path d="M14.25,3.25L14.25,22Q14.25,22.0739,14.2644,22.1463Q14.2788,22.2188,14.3071,22.287Q14.3354,22.3553,14.3764,22.4167Q14.4174,22.4781,14.4697,22.5303Q14.5219,22.5826,14.5833,22.6236Q14.6447,22.6646,14.713,22.6929Q14.7812,22.7212,14.8537,22.7356Q14.9261,22.75,15,22.75Q15.0739,22.75,15.1463,22.7356Q15.2188,22.7212,15.287,22.6929Q15.3553,22.6646,15.4167,22.6236Q15.4781,22.5826,15.5303,22.5303Q15.5826,22.4781,15.6236,22.4167Q15.6646,22.3553,15.6929,22.287Q15.7212,22.2188,15.7356,22.1463Q15.75,22.0739,15.75,22L15.75,3Q15.75,2.4822366,15.3839,2.116121Q15.0178,1.75,14.5,1.75L4.5,1.75Q3.9822346,1.75,3.616117,2.116118Q3.25,2.4822349,3.25,3L3.25,22Q3.25,22.0739,3.264411,22.1463Q3.278822,22.2188,3.30709,22.287Q3.335359,22.3553,3.376398,22.4167Q3.417437,22.4781,3.46967,22.5303Q3.521903,22.5826,3.583322,22.6236Q3.644742,22.6646,3.712987,22.6929Q3.781233,22.7212,3.853682,22.7356Q3.9261315,22.75,4,22.75Q4.0738685,22.75,4.146318,22.7356Q4.218767,22.7212,4.287013,22.6929Q4.355258,22.6646,4.416678,22.6236Q4.478097,22.5826,4.53033,22.5303Q4.582563,22.4781,4.623602,22.4167Q4.664641,22.3553,4.69291,22.287Q4.721178,22.2188,4.735589,22.1463Q4.75,22.0739,4.75,22L4.75,3.25L14.25,3.25Z" fill-rule="evenodd" fill="#333333" fill-opacity="1"/></g><g><path d="M19.25,10.92432L19.25,22Q19.25,22.073900000000002,19.264409999999998,22.1463Q19.27882,22.2188,19.30709,22.287Q19.33536,22.3553,19.3764,22.4167Q19.41744,22.478099999999998,19.46967,22.5303Q19.5219,22.5826,19.58332,22.6236Q19.64474,22.6646,19.712989999999998,22.6929Q19.78123,22.7212,19.85368,22.735599999999998Q19.92613,22.75,20,22.75Q20.07387,22.75,20.14632,22.735599999999998Q20.21877,22.7212,20.287010000000002,22.6929Q20.35526,22.6646,20.41668,22.6236Q20.4781,22.5826,20.53033,22.5303Q20.58256,22.478099999999998,20.6236,22.4167Q20.66464,22.3553,20.69291,22.287Q20.72118,22.2188,20.735590000000002,22.1463Q20.75,22.073900000000002,20.75,22L20.75,10.499649999999999Q20.75,10.40251,20.72525,10.30857Q20.700499999999998,10.21464,20.652639999999998,10.13011Q20.604779999999998,10.045580000000001,20.53696,9.97603Q20.46914,9.90648,20.38584,9.85651L15.385934,6.856917L15.385839,6.85686Q15.207717,6.75,15.000000388556,6.75Q14.9855011,6.75,14.971013,6.75056Q14.877625,6.754172,14.78798,6.780592Q14.698334,6.807012,14.617914,6.854624Q14.537493,6.902236,14.471217,6.968128Q14.40494,7.03402,14.35686,7.114161Q14.25,7.292283,14.25,7.5Q14.25,7.5144987,14.25056,7.528987Q14.254172,7.622375,14.280592,7.71202Q14.307012,7.801666,14.354624,7.882086Q14.402236,7.9625070000000004,14.468128,8.028783Q14.53402,8.09506,14.614161,8.14314L14.614256,8.143196L19.25,10.92432Z" fill-rule="evenodd" fill="#333333" fill-opacity="1"/></g><g><path d="M2,22.75L22,22.75Q22.0739,22.75,22.1463,22.735589Q22.2188,22.721178,22.287,22.69291Q22.3553,22.664641,22.4167,22.623601999999998Q22.4781,22.582563,22.5303,22.53033Q22.5826,22.478096999999998,22.6236,22.416678Q22.6646,22.355258,22.6929,22.287013Q22.7212,22.218767,22.7356,22.146318Q22.75,22.0738685,22.75,22Q22.75,21.9261315,22.7356,21.853682Q22.7212,21.781233,22.6929,21.712987Q22.6646,21.644742,22.6236,21.583322Q22.5826,21.521903000000002,22.5303,21.46967Q22.4781,21.417437,22.4167,21.376398000000002Q22.3553,21.335359,22.287,21.30709Q22.2188,21.278822,22.1463,21.264411Q22.0739,21.25,22,21.25L2,21.25Q1.9261314999999999,21.25,1.853682,21.264411Q1.781233,21.278822,1.712987,21.30709Q1.644742,21.335359,1.583322,21.376398000000002Q1.521903,21.417437,1.46967,21.46967Q1.417437,21.521903000000002,1.376398,21.583322Q1.335359,21.644742,1.30709,21.712987Q1.278822,21.781233,1.264411,21.853682Q1.25,21.9261315,1.25,22Q1.25,22.0738685,1.264411,22.146318Q1.278822,22.218767,1.30709,22.287013Q1.335359,22.355258,1.376398,22.416678Q1.417437,22.478096999999998,1.46967,22.53033Q1.521903,22.582563,1.583322,22.623601999999998Q1.644742,22.664641,1.712987,22.69291Q1.781233,22.721178,1.853682,22.735589Q1.9261314999999999,22.75,2,22.75Z" fill-rule="evenodd" fill="#333333" fill-opacity="1"/></g></g></g></svg>