<svg xmlns="http://www.w3.org/2000/svg" xmlns:xlink="http://www.w3.org/1999/xlink" fill="none" version="1.1" width="20" height="20" viewBox="0 0 20 20"><defs><clipPath id="master_svg0_211_9610"><rect x="0" y="0" width="20" height="20" rx="0"/></clipPath></defs><g clip-path="url(#master_svg0_211_9610)"><g><path d="M17.412,16.7989L16.989,16.7989L16.989,7.32976C16.989,6.96515,16.700200000000002,6.65415,16.339100000000002,6.65415L13.1618,6.65415C13.069,6.65415,13.0071,6.72922,13.0071,6.81501L13.0071,16.7882L12.3159,16.7882L12.3159,2.9436999999999998C12.3159,2.428954,11.90329,2,11.40812,2L3.8775,2C3.38233,2,2.969697,2.428954,2.969697,2.9436999999999998L2.969697,16.7989L2.577692,16.7989C2.257898,16.7989,2,17.067,2,17.3995C2,17.7319,2.257898,18,2.577692,18L17.4223,18C17.7421,18,18,17.7319,18,17.3995C18,17.067,17.7318,16.7989,17.412,16.7989ZM5.8891,5.8284199999999995L9.406839999999999,5.8284199999999995C9.69568,5.8284199999999995,9.92263,6.06434,9.92263,6.36461C9.92263,6.66488,9.69568,6.9008,9.406839999999999,6.9008L5.8891,6.9008C5.6002600000000005,6.9008,5.37331,6.66488,5.37331,6.36461C5.3836200000000005,6.06434,5.610580000000001,5.8284199999999995,5.8891,5.8284199999999995ZM5.8891,8.76676L9.406839999999999,8.76676C9.69568,8.76676,9.92263,9.00268,9.92263,9.30295C9.92263,9.60322,9.69568,9.83914,9.406839999999999,9.83914L5.8891,9.83914C5.6002600000000005,9.83914,5.37331,9.60322,5.37331,9.30295C5.37331,9.00268,5.610580000000001,8.76676,5.8891,8.76676ZM5.8891,11.72654L9.406839999999999,11.72654C9.69568,11.72654,9.92263,11.96247,9.92263,12.2627C9.92263,12.563,9.69568,12.7989,9.406839999999999,12.7989L5.8891,12.7989C5.6002600000000005,12.7989,5.37331,12.563,5.37331,12.2627C5.37331,11.96247,5.610580000000001,11.72654,5.8891,11.72654Z" fill="#015C5F" fill-opacity="1"/></g></g></svg>