<svg xmlns="http://www.w3.org/2000/svg" xmlns:xlink="http://www.w3.org/1999/xlink" fill="none" version="1.1" width="24" height="24" viewBox="0 0 24 24"><defs><clipPath id="master_svg0_584_03519"><rect x="0" y="0" width="24" height="24" rx="0"/></clipPath></defs><g clip-path="url(#master_svg0_584_03519)"><g><path d="M4.35,8L4.35,4Q4.35,3.9359806,4.36249,3.873191Q4.374979,3.810402,4.399478,3.751256Q4.423978,3.69211,4.459545,3.638879Q4.495112,3.585649,4.540381,3.540381Q4.585649,3.4951119999999998,4.638879,3.459545Q4.69211,3.423978,4.751256,3.399478Q4.810402,3.3749789999999997,4.873191,3.36249Q4.9359806,3.35,5,3.35L19,3.35Q19.064,3.35,19.1268,3.36249Q19.1896,3.3749789999999997,19.2487,3.399478Q19.3079,3.423978,19.3611,3.459545Q19.4143,3.4951119999999998,19.459600000000002,3.540381Q19.5049,3.585649,19.5405,3.638879Q19.576,3.69211,19.6005,3.751256Q19.625,3.810402,19.6375,3.873191Q19.65,3.9359806,19.65,4L19.65,8Q19.65,8.06402,19.6375,8.126809999999999Q19.625,8.1896,19.6005,8.24874Q19.576,8.30789,19.5405,8.36112Q19.5049,8.414349999999999,19.459600000000002,8.459620000000001Q19.4143,8.50489,19.3611,8.54045Q19.3079,8.57602,19.2487,8.60052Q19.1896,8.62502,19.1268,8.637509999999999Q19.064,8.65,19,8.65L5,8.65Q4.9359806,8.65,4.873191,8.637509999999999Q4.810402,8.62502,4.751256,8.60052Q4.69211,8.57602,4.638879,8.54045Q4.585649,8.50489,4.540381,8.459620000000001Q4.495112,8.414349999999999,4.459545,8.36112Q4.423978,8.30789,4.399478,8.24874Q4.374979,8.1896,4.36249,8.126809999999999Q4.35,8.06402,4.35,8ZM18.35,4.65L5.65,4.65L5.65,7.35L18.35,7.35L18.35,4.65Z" fill-rule="evenodd" fill="#333333" fill-opacity="1"/></g><g><path d="M4.35,14L4.35,10Q4.35,9.9359806,4.36249,9.873191Q4.374979,9.810402,4.399478,9.751256Q4.423978,9.69211,4.459545,9.638879Q4.495112,9.585649,4.540381,9.540381Q4.585649,9.495112,4.638879,9.459545Q4.69211,9.423978,4.751256,9.399478Q4.810402,9.374979,4.873191,9.36249Q4.9359806,9.35,5,9.35L19,9.35Q19.064,9.35,19.1268,9.36249Q19.1896,9.374979,19.2487,9.399478Q19.3079,9.423978,19.3611,9.459545Q19.4143,9.495112,19.459600000000002,9.540381Q19.5049,9.585649,19.5405,9.638879Q19.576,9.69211,19.6005,9.751256Q19.625,9.810402,19.6375,9.873191Q19.65,9.9359806,19.65,10L19.65,14Q19.65,14.06402,19.6375,14.126809999999999Q19.625,14.1896,19.6005,14.24874Q19.576,14.30789,19.5405,14.36112Q19.5049,14.414349999999999,19.459600000000002,14.459620000000001Q19.4143,14.50489,19.3611,14.54045Q19.3079,14.57602,19.2487,14.60052Q19.1896,14.62502,19.1268,14.637509999999999Q19.064,14.65,19,14.65L5,14.65Q4.9359806,14.65,4.873191,14.637509999999999Q4.810402,14.62502,4.751256,14.60052Q4.69211,14.57602,4.638879,14.54045Q4.585649,14.50489,4.540381,14.459620000000001Q4.495112,14.414349999999999,4.459545,14.36112Q4.423978,14.30789,4.399478,14.24874Q4.374979,14.1896,4.36249,14.126809999999999Q4.35,14.06402,4.35,14ZM18.35,10.65L5.65,10.65L5.65,13.35L18.35,13.35L18.35,10.65Z" fill-rule="evenodd" fill="#333333" fill-opacity="1"/></g><g><path d="M4.35,20L4.35,16Q4.35,15.9359806,4.36249,15.873191Q4.374979,15.810402,4.399478,15.751256Q4.423978,15.69211,4.459545,15.638879Q4.495112,15.585649,4.540381,15.540381Q4.585649,15.495112,4.638879,15.459545Q4.69211,15.423978,4.751256,15.399478Q4.810402,15.374979,4.873191,15.36249Q4.9359806,15.35,5,15.35L19,15.35Q19.064,15.35,19.1268,15.36249Q19.1896,15.374979,19.2487,15.399478Q19.3079,15.423978,19.3611,15.459545Q19.4143,15.495112,19.459600000000002,15.540381Q19.5049,15.585649,19.5405,15.638879Q19.576,15.69211,19.6005,15.751256Q19.625,15.810402,19.6375,15.873191Q19.65,15.9359806,19.65,16L19.65,20Q19.65,20.06402,19.6375,20.12681Q19.625,20.1896,19.6005,20.248739999999998Q19.576,20.30789,19.5405,20.36112Q19.5049,20.41435,19.459600000000002,20.45962Q19.4143,20.50489,19.3611,20.54045Q19.3079,20.57602,19.2487,20.60052Q19.1896,20.62502,19.1268,20.63751Q19.064,20.65,19,20.65L5,20.65Q4.9359806,20.65,4.873191,20.63751Q4.810402,20.62502,4.751256,20.60052Q4.69211,20.57602,4.638879,20.54045Q4.585649,20.50489,4.540381,20.45962Q4.495112,20.41435,4.459545,20.36112Q4.423978,20.30789,4.399478,20.248739999999998Q4.374979,20.1896,4.36249,20.12681Q4.35,20.06402,4.35,20ZM18.35,16.65L5.65,16.65L5.65,19.35L18.35,19.35L18.35,16.65Z" fill-rule="evenodd" fill="#333333" fill-opacity="1"/></g><g><path d="M11,6.65L13,6.65Q13.06402,6.65,13.126809999999999,6.63751Q13.1896,6.625021,13.24874,6.600522Q13.30789,6.576022,13.36112,6.540455Q13.41435,6.504888,13.459620000000001,6.459619Q13.50489,6.414351,13.54046,6.361121Q13.57602,6.30789,13.60052,6.248744Q13.62502,6.189598,13.637509999999999,6.126809Q13.65,6.0640194,13.65,6Q13.65,5.9359806,13.637509999999999,5.873191Q13.62502,5.810402,13.60052,5.751256Q13.57602,5.69211,13.54046,5.638879Q13.50489,5.585649,13.459620000000001,5.540381Q13.41435,5.495112,13.36112,5.459545Q13.30789,5.423978,13.24874,5.399478Q13.1896,5.374979,13.126809999999999,5.36249Q13.06402,5.35,13,5.35L11,5.35Q10.9359806,5.35,10.873191,5.36249Q10.810402,5.374979,10.751256,5.399478Q10.69211,5.423978,10.638879,5.459545Q10.585649,5.495112,10.540381,5.540381Q10.495112,5.585649,10.459545,5.638879Q10.423978,5.69211,10.399478,5.751256Q10.374979,5.810402,10.36249,5.873191Q10.35,5.9359806,10.35,6Q10.35,6.0640194,10.36249,6.126809Q10.374979,6.189598,10.399478,6.248744Q10.423978,6.30789,10.459545,6.361121Q10.495112,6.414351,10.540381,6.459619Q10.585649,6.504888,10.638879,6.540455Q10.69211,6.576022,10.751256,6.600522Q10.810402,6.625021,10.873191,6.63751Q10.9359806,6.65,11,6.65Z" fill-rule="evenodd" fill="#333333" fill-opacity="1"/></g><g><path d="M11,12.65L13,12.65Q13.06402,12.65,13.126809999999999,12.63751Q13.1896,12.625021,13.24874,12.600522Q13.30789,12.576022,13.36112,12.540455Q13.41435,12.504888,13.459620000000001,12.459619Q13.50489,12.414351,13.54046,12.361121Q13.57602,12.30789,13.60052,12.248744Q13.62502,12.189598,13.637509999999999,12.126809Q13.65,12.0640194,13.65,12Q13.65,11.9359806,13.637509999999999,11.873191Q13.62502,11.810402,13.60052,11.751256Q13.57602,11.69211,13.54046,11.638879Q13.50489,11.585649,13.459620000000001,11.540381Q13.41435,11.495112,13.36112,11.459545Q13.30789,11.423978,13.24874,11.399478Q13.1896,11.374979,13.126809999999999,11.36249Q13.06402,11.35,13,11.35L11,11.35Q10.9359806,11.35,10.873191,11.36249Q10.810402,11.374979,10.751256,11.399478Q10.69211,11.423978,10.638879,11.459545Q10.585649,11.495112,10.540381,11.540381Q10.495112,11.585649,10.459545,11.638879Q10.423978,11.69211,10.399478,11.751256Q10.374979,11.810402,10.36249,11.873191Q10.35,11.9359806,10.35,12Q10.35,12.0640194,10.36249,12.126809Q10.374979,12.189598,10.399478,12.248744Q10.423978,12.30789,10.459545,12.361121Q10.495112,12.414351,10.540381,12.459619Q10.585649,12.504888,10.638879,12.540455Q10.69211,12.576022,10.751256,12.600522Q10.810402,12.625021,10.873191,12.63751Q10.9359806,12.65,11,12.65Z" fill-rule="evenodd" fill="#333333" fill-opacity="1"/></g><g><path d="M11,18.65L13,18.65Q13.06402,18.65,13.126809999999999,18.63751Q13.1896,18.625021,13.24874,18.600522Q13.30789,18.576022000000002,13.36112,18.540455Q13.41435,18.504888,13.459620000000001,18.459619Q13.50489,18.414351,13.54046,18.361121Q13.57602,18.30789,13.60052,18.248744Q13.62502,18.189598,13.637509999999999,18.126809Q13.65,18.0640194,13.65,18Q13.65,17.9359806,13.637509999999999,17.873191Q13.62502,17.810402,13.60052,17.751256Q13.57602,17.69211,13.54046,17.638879Q13.50489,17.585649,13.459620000000001,17.540381Q13.41435,17.495112,13.36112,17.459545Q13.30789,17.423977999999998,13.24874,17.399478Q13.1896,17.374979,13.126809999999999,17.36249Q13.06402,17.35,13,17.35L11,17.35Q10.9359806,17.35,10.873191,17.36249Q10.810402,17.374979,10.751256,17.399478Q10.69211,17.423977999999998,10.638879,17.459545Q10.585649,17.495112,10.540381,17.540381Q10.495112,17.585649,10.459545,17.638879Q10.423978,17.69211,10.399478,17.751256Q10.374979,17.810402,10.36249,17.873191Q10.35,17.9359806,10.35,18Q10.35,18.0640194,10.36249,18.126809Q10.374979,18.189598,10.399478,18.248744Q10.423978,18.30789,10.459545,18.361121Q10.495112,18.414351,10.540381,18.459619Q10.585649,18.504888,10.638879,18.540455Q10.69211,18.576022000000002,10.751256,18.600522Q10.810402,18.625021,10.873191,18.63751Q10.9359806,18.65,11,18.65Z" fill-rule="evenodd" fill="#333333" fill-opacity="1"/></g></g></svg>