<svg xmlns="http://www.w3.org/2000/svg" xmlns:xlink="http://www.w3.org/1999/xlink" fill="none" version="1.1" width="24" height="24" viewBox="0 0 24 24"><g><g><path d="M7.25,5L7.25,2Q7.25,1.9261314999999999,7.264411,1.853682Q7.278822,1.781233,7.30709,1.712987Q7.335359,1.644742,7.376398,1.583322Q7.417437,1.521903,7.46967,1.46967Q7.521903,1.417437,7.583322,1.376398Q7.644742,1.335359,7.712987,1.30709Q7.781233,1.278822,7.853682,1.264411Q7.9261315,1.25,8,1.25Q8.0738685,1.25,8.146318,1.264411Q8.218767,1.278822,8.287013,1.30709Q8.355258,1.335359,8.416678,1.376398Q8.478097,1.417437,8.53033,1.46967Q8.582563,1.521903,8.623602,1.583322Q8.664641,1.644742,8.69291,1.712987Q8.721178,1.781233,8.735589000000001,1.853682Q8.75,1.9261314999999999,8.75,2L8.75,5Q8.75,5.073869999999999,8.735589000000001,5.146319999999999Q8.721178,5.21877,8.69291,5.28701Q8.664641,5.3552599999999995,8.623602,5.4166799999999995Q8.582563,5.4780999999999995,8.53033,5.53033Q8.478097,5.58256,8.416678,5.6236Q8.355258,5.66464,8.287013,5.6929099999999995Q8.218767,5.72118,8.146318,5.73559Q8.0738685,5.75,8,5.75Q7.9261315,5.75,7.853682,5.73559Q7.781233,5.72118,7.712987,5.6929099999999995Q7.644742,5.66464,7.583322,5.6236Q7.521903,5.58256,7.46967,5.53033Q7.417437,5.4780999999999995,7.376398,5.4166799999999995Q7.335359,5.3552599999999995,7.30709,5.28701Q7.278822,5.21877,7.264411,5.146319999999999Q7.25,5.073869999999999,7.25,5ZM8.75,5Q8.75,5.073869999999999,8.735589000000001,5.146319999999999Q8.721178,5.21877,8.69291,5.28701Q8.664641,5.3552599999999995,8.623602,5.4166799999999995Q8.582563,5.4780999999999995,8.53033,5.53033Q8.478097,5.58256,8.416678,5.6236Q8.355258,5.66464,8.287013,5.6929099999999995Q8.218767,5.72118,8.146318,5.73559Q8.0738685,5.75,8,5.75Q7.9261315,5.75,7.853682,5.73559Q7.781233,5.72118,7.712987,5.6929099999999995Q7.644742,5.66464,7.583322,5.6236Q7.521903,5.58256,7.46967,5.53033Q7.417437,5.4780999999999995,7.376398,5.4166799999999995Q7.335359,5.3552599999999995,7.30709,5.28701Q7.278822,5.21877,7.264411,5.146319999999999Q7.25,5.073869999999999,7.25,5Q7.25,4.926130000000001,7.264411,4.853680000000001Q7.278822,4.78123,7.30709,4.71299Q7.335359,4.6447400000000005,7.376398,4.5833200000000005Q7.417437,4.5219000000000005,7.46967,4.46967Q7.521903,4.41744,7.583322,4.3764Q7.644742,4.33536,7.712987,4.3070900000000005Q7.781233,4.27882,7.853682,4.26441Q7.9261315,4.25,8,4.25Q8.0738685,4.25,8.146318,4.26441Q8.218767,4.27882,8.287013,4.3070900000000005Q8.355258,4.33536,8.416678,4.3764Q8.478097,4.41744,8.53033,4.46967Q8.582563,4.5219000000000005,8.623602,4.5833200000000005Q8.664641,4.6447400000000005,8.69291,4.71299Q8.721178,4.78123,8.735589000000001,4.853680000000001Q8.75,4.926130000000001,8.75,5ZM8.75,2Q8.75,2.0738685,8.735589000000001,2.146318Q8.721178,2.218767,8.69291,2.287013Q8.664641,2.355258,8.623602,2.416678Q8.582563,2.478097,8.53033,2.53033Q8.478097,2.582563,8.416678,2.623602Q8.355258,2.664641,8.287013,2.69291Q8.218767,2.721178,8.146318,2.735589Q8.0738685,2.75,8,2.75Q7.9261315,2.75,7.853682,2.735589Q7.781233,2.721178,7.712987,2.69291Q7.644742,2.664641,7.583322,2.623602Q7.521903,2.582563,7.46967,2.53033Q7.417437,2.478097,7.376398,2.416678Q7.335359,2.355258,7.30709,2.287013Q7.278822,2.218767,7.264411,2.146318Q7.25,2.0738685,7.25,2Q7.25,1.9261314999999999,7.264411,1.853682Q7.278822,1.781233,7.30709,1.712987Q7.335359,1.644742,7.376398,1.583322Q7.417437,1.521903,7.46967,1.46967Q7.521903,1.417437,7.583322,1.376398Q7.644742,1.335359,7.712987,1.30709Q7.781233,1.278822,7.853682,1.264411Q7.9261315,1.25,8,1.25Q8.0738685,1.25,8.146318,1.264411Q8.218767,1.278822,8.287013,1.30709Q8.355258,1.335359,8.416678,1.376398Q8.478097,1.417437,8.53033,1.46967Q8.582563,1.521903,8.623602,1.583322Q8.664641,1.644742,8.69291,1.712987Q8.721178,1.781233,8.735589000000001,1.853682Q8.75,1.9261314999999999,8.75,2Z" fill="#000000" fill-opacity="1"/></g><g><path d="M15.25,5L15.25,2Q15.25,1.9261314999999999,15.264410999999999,1.853682Q15.278822,1.781233,15.30709,1.712987Q15.335359,1.644742,15.376398,1.583322Q15.417437,1.521903,15.46967,1.46967Q15.521903,1.417437,15.583322,1.376398Q15.644742,1.335359,15.712987,1.30709Q15.781233,1.278822,15.853682,1.264411Q15.9261315,1.25,16,1.25Q16.0738685,1.25,16.146318,1.264411Q16.218767,1.278822,16.287013,1.30709Q16.355258,1.335359,16.416678,1.376398Q16.478096999999998,1.417437,16.53033,1.46967Q16.582563,1.521903,16.623601999999998,1.583322Q16.664641,1.644742,16.69291,1.712987Q16.721178,1.781233,16.735589,1.853682Q16.75,1.9261314999999999,16.75,2L16.75,5Q16.75,5.073869999999999,16.735589,5.146319999999999Q16.721178,5.21877,16.69291,5.28701Q16.664641,5.3552599999999995,16.623601999999998,5.4166799999999995Q16.582563,5.4780999999999995,16.53033,5.53033Q16.478096999999998,5.58256,16.416678,5.6236Q16.355258,5.66464,16.287013,5.6929099999999995Q16.218767,5.72118,16.146318,5.73559Q16.0738685,5.75,16,5.75Q15.9261315,5.75,15.853682,5.73559Q15.781233,5.72118,15.712987,5.6929099999999995Q15.644742,5.66464,15.583322,5.6236Q15.521903,5.58256,15.46967,5.53033Q15.417437,5.4780999999999995,15.376398,5.4166799999999995Q15.335359,5.3552599999999995,15.30709,5.28701Q15.278822,5.21877,15.264410999999999,5.146319999999999Q15.25,5.073869999999999,15.25,5ZM16.75,5Q16.75,5.073869999999999,16.735589,5.146319999999999Q16.721178,5.21877,16.69291,5.28701Q16.664641,5.3552599999999995,16.623601999999998,5.4166799999999995Q16.582563,5.4780999999999995,16.53033,5.53033Q16.478096999999998,5.58256,16.416678,5.6236Q16.355258,5.66464,16.287013,5.6929099999999995Q16.218767,5.72118,16.146318,5.73559Q16.0738685,5.75,16,5.75Q15.9261315,5.75,15.853682,5.73559Q15.781233,5.72118,15.712987,5.6929099999999995Q15.644742,5.66464,15.583322,5.6236Q15.521903,5.58256,15.46967,5.53033Q15.417437,5.4780999999999995,15.376398,5.4166799999999995Q15.335359,5.3552599999999995,15.30709,5.28701Q15.278822,5.21877,15.264410999999999,5.146319999999999Q15.25,5.073869999999999,15.25,5Q15.25,4.926130000000001,15.264410999999999,4.853680000000001Q15.278822,4.78123,15.30709,4.71299Q15.335359,4.6447400000000005,15.376398,4.5833200000000005Q15.417437,4.5219000000000005,15.46967,4.46967Q15.521903,4.41744,15.583322,4.3764Q15.644742,4.33536,15.712987,4.3070900000000005Q15.781233,4.27882,15.853682,4.26441Q15.9261315,4.25,16,4.25Q16.0738685,4.25,16.146318,4.26441Q16.218767,4.27882,16.287013,4.3070900000000005Q16.355258,4.33536,16.416678,4.3764Q16.478096999999998,4.41744,16.53033,4.46967Q16.582563,4.5219000000000005,16.623601999999998,4.5833200000000005Q16.664641,4.6447400000000005,16.69291,4.71299Q16.721178,4.78123,16.735589,4.853680000000001Q16.75,4.926130000000001,16.75,5ZM16.75,2Q16.75,2.0738685,16.735589,2.146318Q16.721178,2.218767,16.69291,2.287013Q16.664641,2.355258,16.623601999999998,2.416678Q16.582563,2.478097,16.53033,2.53033Q16.478096999999998,2.582563,16.416678,2.623602Q16.355258,2.664641,16.287013,2.69291Q16.218767,2.721178,16.146318,2.735589Q16.0738685,2.75,16,2.75Q15.9261315,2.75,15.853682,2.735589Q15.781233,2.721178,15.712987,2.69291Q15.644742,2.664641,15.583322,2.623602Q15.521903,2.582563,15.46967,2.53033Q15.417437,2.478097,15.376398,2.416678Q15.335359,2.355258,15.30709,2.287013Q15.278822,2.218767,15.264410999999999,2.146318Q15.25,2.0738685,15.25,2Q15.25,1.9261314999999999,15.264410999999999,1.853682Q15.278822,1.781233,15.30709,1.712987Q15.335359,1.644742,15.376398,1.583322Q15.417437,1.521903,15.46967,1.46967Q15.521903,1.417437,15.583322,1.376398Q15.644742,1.335359,15.712987,1.30709Q15.781233,1.278822,15.853682,1.264411Q15.9261315,1.25,16,1.25Q16.0738685,1.25,16.146318,1.264411Q16.218767,1.278822,16.287013,1.30709Q16.355258,1.335359,16.416678,1.376398Q16.478096999999998,1.417437,16.53033,1.46967Q16.582563,1.521903,16.623601999999998,1.583322Q16.664641,1.644742,16.69291,1.712987Q16.721178,1.781233,16.735589,1.853682Q16.75,1.9261314999999999,16.75,2Z" fill="#000000" fill-opacity="1"/></g><g><path d="M20.50000023841858,9.839996337890625L3.500000238418579,9.839996337890625Q3.426131738418579,9.839996337890625,3.353682238418579,9.825585337890626Q3.281233238418579,9.811174337890625,3.212987238418579,9.782906337890624Q3.144742238418579,9.754637337890625,3.083322238418579,9.713598337890625Q3.021903238418579,9.672559337890625,2.969670238418579,9.620326337890624Q2.917437238418579,9.568093337890625,2.876398238418579,9.506674337890624Q2.835359238418579,9.445254337890624,2.807090238418579,9.377009337890625Q2.778822238418579,9.308763337890625,2.764411238418579,9.236314337890626Q2.750000238418579,9.163864837890625,2.750000238418579,9.089996337890625Q2.750000238418579,9.016127837890625,2.764411238418579,8.943678337890624Q2.778822238418579,8.871229337890625,2.807090238418579,8.802983337890625Q2.835359238418579,8.734738337890626,2.876398238418579,8.673318337890626Q2.917437238418579,8.611899337890625,2.969670238418579,8.559666337890626Q3.021903238418579,8.507433337890625,3.083322238418579,8.466394337890625Q3.144742238418579,8.425355337890625,3.212987238418579,8.397086337890626Q3.281233238418579,8.368818337890625,3.353682238418579,8.354407337890624Q3.426131738418579,8.339996337890625,3.500000238418579,8.339996337890625L20.50000023841858,8.339996337890625Q20.573900238418577,8.339996337890625,20.64630023841858,8.354407337890624Q20.71880023841858,8.368818337890625,20.787000238418578,8.397086337890626Q20.85530023841858,8.425355337890625,20.916700238418578,8.466394337890625Q20.97810023841858,8.507433337890625,21.03030023841858,8.559666337890626Q21.08260023841858,8.611899337890625,21.12360023841858,8.673318337890626Q21.16460023841858,8.734738337890626,21.19290023841858,8.802983337890625Q21.22120023841858,8.871229337890625,21.23560023841858,8.943678337890624Q21.25000023841858,9.016127837890625,21.25000023841858,9.089996337890625Q21.25000023841858,9.163864837890625,21.23560023841858,9.236314337890626Q21.22120023841858,9.308763337890625,21.19290023841858,9.377009337890625Q21.16460023841858,9.445254337890624,21.12360023841858,9.506674337890624Q21.08260023841858,9.568093337890625,21.03030023841858,9.620326337890624Q20.97810023841858,9.672559337890625,20.916700238418578,9.713598337890625Q20.85530023841858,9.754637337890625,20.787000238418578,9.782906337890624Q20.71880023841858,9.811174337890625,20.64630023841858,9.825585337890626Q20.573900238418577,9.839996337890625,20.50000023841858,9.839996337890625ZM21.25000023841858,9.089996337890625Q21.25000023841858,9.163864837890625,21.23560023841858,9.236314337890626Q21.22120023841858,9.308763337890625,21.19290023841858,9.377009337890625Q21.16460023841858,9.445254337890624,21.12360023841858,9.506674337890624Q21.08260023841858,9.568093337890625,21.03030023841858,9.620326337890624Q20.97810023841858,9.672559337890625,20.916700238418578,9.713598337890625Q20.85530023841858,9.754637337890625,20.787000238418578,9.782906337890624Q20.71880023841858,9.811174337890625,20.64630023841858,9.825585337890626Q20.573900238418577,9.839996337890625,20.50000023841858,9.839996337890625Q20.42610023841858,9.839996337890625,20.35370023841858,9.825585337890626Q20.281200238418577,9.811174337890625,20.21300023841858,9.782906337890624Q20.14470023841858,9.754637337890625,20.08330023841858,9.713598337890625Q20.021900238418578,9.672559337890625,19.96970023841858,9.620326337890624Q19.91740023841858,9.568093337890625,19.87640023841858,9.506674337890624Q19.83540023841858,9.445254337890624,19.807100238418577,9.377009337890625Q19.77880023841858,9.308763337890625,19.764400238418578,9.236314337890626Q19.75000023841858,9.163864837890625,19.75000023841858,9.089996337890625Q19.75000023841858,9.016127837890625,19.764400238418578,8.943678337890624Q19.77880023841858,8.871229337890625,19.807100238418577,8.802983337890625Q19.83540023841858,8.734738337890626,19.87640023841858,8.673318337890626Q19.91740023841858,8.611899337890625,19.96970023841858,8.559666337890626Q20.021900238418578,8.507433337890625,20.08330023841858,8.466394337890625Q20.14470023841858,8.425355337890625,20.21300023841858,8.397086337890626Q20.281200238418577,8.368818337890625,20.35370023841858,8.354407337890624Q20.42610023841858,8.339996337890625,20.50000023841858,8.339996337890625Q20.573900238418577,8.339996337890625,20.64630023841858,8.354407337890624Q20.71880023841858,8.368818337890625,20.787000238418578,8.397086337890626Q20.85530023841858,8.425355337890625,20.916700238418578,8.466394337890625Q20.97810023841858,8.507433337890625,21.03030023841858,8.559666337890626Q21.08260023841858,8.611899337890625,21.12360023841858,8.673318337890626Q21.16460023841858,8.734738337890626,21.19290023841858,8.802983337890625Q21.22120023841858,8.871229337890625,21.23560023841858,8.943678337890624Q21.25000023841858,9.016127837890625,21.25000023841858,9.089996337890625ZM4.250000238418579,9.089996337890625Q4.250000238418579,9.163864837890625,4.235589238418579,9.236314337890626Q4.221178238418579,9.308763337890625,4.1929102384185795,9.377009337890625Q4.164641238418579,9.445254337890624,4.123602238418579,9.506674337890624Q4.0825632384185795,9.568093337890625,4.030330238418579,9.620326337890624Q3.978097238418579,9.672559337890625,3.916678238418579,9.713598337890625Q3.855258238418579,9.754637337890625,3.787013238418579,9.782906337890624Q3.7187672384185793,9.811174337890625,3.646318238418579,9.825585337890626Q3.573868738418579,9.839996337890625,3.500000238418579,9.839996337890625Q3.426131738418579,9.839996337890625,3.353682238418579,9.825585337890626Q3.281233238418579,9.811174337890625,3.212987238418579,9.782906337890624Q3.144742238418579,9.754637337890625,3.083322238418579,9.713598337890625Q3.021903238418579,9.672559337890625,2.969670238418579,9.620326337890624Q2.917437238418579,9.568093337890625,2.876398238418579,9.506674337890624Q2.835359238418579,9.445254337890624,2.807090238418579,9.377009337890625Q2.778822238418579,9.308763337890625,2.764411238418579,9.236314337890626Q2.750000238418579,9.163864837890625,2.750000238418579,9.089996337890625Q2.750000238418579,9.016127837890625,2.764411238418579,8.943678337890624Q2.778822238418579,8.871229337890625,2.807090238418579,8.802983337890625Q2.835359238418579,8.734738337890626,2.876398238418579,8.673318337890626Q2.917437238418579,8.611899337890625,2.969670238418579,8.559666337890626Q3.021903238418579,8.507433337890625,3.083322238418579,8.466394337890625Q3.144742238418579,8.425355337890625,3.212987238418579,8.397086337890626Q3.281233238418579,8.368818337890625,3.353682238418579,8.354407337890624Q3.426131738418579,8.339996337890625,3.500000238418579,8.339996337890625Q3.573868738418579,8.339996337890625,3.646318238418579,8.354407337890624Q3.7187672384185793,8.368818337890625,3.787013238418579,8.397086337890626Q3.855258238418579,8.425355337890625,3.916678238418579,8.466394337890625Q3.978097238418579,8.507433337890625,4.030330238418579,8.559666337890626Q4.0825632384185795,8.611899337890625,4.123602238418579,8.673318337890626Q4.164641238418579,8.734738337890626,4.1929102384185795,8.802983337890625Q4.221178238418579,8.871229337890625,4.235589238418579,8.943678337890624Q4.250000238418579,9.016127837890625,4.250000238418579,9.089996337890625Z" fill="#000000" fill-opacity="1"/></g><g><g><path d="M21.564930953674317,15.86667Q22.750000953674316,17.223770000000002,22.750000953674316,19Q22.750000953674316,20.33211,22.058380953674316,21.45366Q21.437550953674318,22.49756,20.375020953674316,23.11378Q19.278020953674314,23.75,18.000000953674316,23.75Q16.193310953674317,23.75,14.868279953674316,22.557470000000002L15.370000953674317,22L14.888043953674316,22.57464Q14.314818953674317,22.09387,13.932168853674316,21.4379L14.580002953674317,21.06L13.941624653674316,21.45366Q13.250000953674316,20.33211,13.250000953674316,19Q13.250000953674316,17.03184,14.640920953674316,15.64092Q16.031840953674315,14.25,18.000000953674316,14.25Q20.143040953674316,14.25,21.563170953674316,15.864667L21.564930953674317,15.86667ZM20.436830953674317,16.8553Q19.464700953674317,15.75,18.000000953674316,15.75Q16.653160953674316,15.75,15.701580953674316,16.70158Q14.750000953674316,17.65316,14.750000953674316,19Q14.750000953674316,19.9068,15.218380953674316,20.666330000000002Q15.223200953674317,20.67416,15.227840953674317,20.68209Q15.478870953674317,21.11244,15.851960953674316,21.42536Q15.861990953674317,21.43377,15.871730953674316,21.442529999999998Q16.768920953674318,22.25,18.000000953674316,22.25Q18.874520953674317,22.25,19.622480953674316,21.816209999999998Q20.347710953674316,21.395609999999998,20.781620953674317,20.666330000000002Q21.250000953674316,19.9068,21.250000953674316,19Q21.250000953674316,17.78652,20.435070953674316,16.8533L20.436830953674317,16.8553Z" fill="#000000" fill-opacity="1"/></g><g><path d="M20.069243395080566,18.570595013671873L17.939253395080566,20.540599013671876Q17.886373395080568,20.589499013671876,17.825153395080566,20.627449013671875Q17.763943395080567,20.665389013671874,17.696623395080568,20.690999013671874Q17.629303395080566,20.716599013671875,17.558343395080566,20.728929013671873Q17.487383395080567,20.741249013671876,17.415377395080565,20.739849013671876Q17.343368395080567,20.738439013671876,17.272942395080566,20.723359013671875Q17.202516395080565,20.708279013671874,17.136247395080566,20.680069013671876Q17.069979395080566,20.651859013671874,17.010290395080567,20.611559013671876Q16.950601395080568,20.571249013671874,16.899673395080566,20.520319013671873L15.909675395080566,19.530329013671874Q15.857442395080566,19.478099013671876,15.816402395080566,19.416679013671875Q15.775363395080566,19.355259013671876,15.747095395080567,19.287019013671873Q15.718826395080566,19.218769013671874,15.704415395080566,19.146319013671874Q15.690003395080566,19.073869013671874,15.690003395080566,19.000003013671876Q15.690003395080566,18.926134013671874,15.704414395080565,18.853685013671875Q15.718824395080567,18.781236013671876,15.747092395080566,18.712990013671874Q15.775360395080567,18.644744013671875,15.816399395080566,18.583325013671875Q15.857438395080566,18.521905013671876,15.909671395080567,18.469672013671875Q15.961904395080566,18.417439013671874,16.023323395080567,18.376400013671876Q16.084742395080568,18.335360013671874,16.152988395080566,18.307092013671873Q16.221233395080567,18.278823013671875,16.293682395080566,18.264412013671876Q16.366131995080565,18.250000013671876,16.440000532000568,18.250000013671876Q16.513869095080565,18.250000013671876,16.586318395080568,18.264411013671875Q16.658767395080567,18.278821013671877,16.727013395080565,18.307089013671874Q16.795259395080567,18.335357013671874,16.856678395080568,18.376396013671876Q16.918098395080566,18.417435013671874,16.970331395080567,18.469668013671875L17.960333395080568,19.459659013671875L17.430001395080566,19.989989013671874L16.920754395080568,19.439389013671875L19.050753395080566,17.469383013671877Q19.104983395080566,17.419226013671874,19.167953395080566,17.380613013671876Q19.230923395080566,17.342000013671875,19.300223395080565,17.316415013671875Q19.369523395080567,17.290829013671875,19.442473395080565,17.279254013671874Q19.515433395080567,17.267679013671874,19.589243395080565,17.270559013671875Q19.663053395080567,17.273440013671873,19.734883395080566,17.290665013671877Q19.806723395080567,17.307890013671877,19.873813395080568,17.338798013671877Q19.940903395080568,17.369706013671873,20.000673395080568,17.413109013671875Q20.060453395080565,17.456512013671876,20.110603395080567,17.510742013671877Q20.160763395080565,17.564972013671873,20.199373395080567,17.627945013671876Q20.237983395080565,17.690918013671876,20.263573395080567,17.760214013671874Q20.289153395080568,17.829510013671875,20.300733395080567,17.902466013671877Q20.312303395080566,17.975422013671874,20.309423395080564,18.049234313671874Q20.306543395080567,18.123047013671876,20.289323395080565,18.194879013671876Q20.272093395080567,18.266711013671873,20.241193395080565,18.333802013671875Q20.210283395080566,18.400894013671873,20.166883395080568,18.460666013671876Q20.123473395080566,18.520439013671876,20.069243395080566,18.570595013671873ZM20.310003395080567,18.019989013671875Q20.310003395080567,18.093857513671875,20.295583395080566,18.166307013671876Q20.281173395080565,18.238756013671875,20.252903395080565,18.307002013671877Q20.224643395080566,18.375247013671874,20.183603395080567,18.436667013671876Q20.142563395080565,18.498086013671873,20.090333395080567,18.550319013671874Q20.038093395080566,18.602552013671875,19.976673395080567,18.643591013671873Q19.915253395080565,18.684630013671875,19.847013395080566,18.712899013671876Q19.778763395080567,18.741167013671873,19.706313395080567,18.755578013671876Q19.633863395080567,18.769989013671875,19.560003395080567,18.769989013671875Q19.486133395080564,18.769989013671875,19.413683395080568,18.755578013671876Q19.341233395080565,18.741167013671873,19.272983395080566,18.712899013671876Q19.204743395080566,18.684630013671875,19.143323395080568,18.643591013671873Q19.081903395080566,18.602552013671875,19.029663395080565,18.550319013671874Q18.977433395080567,18.498086013671873,18.936393395080565,18.436667013671876Q18.895353395080566,18.375247013671874,18.867093395080566,18.307002013671877Q18.838823395080567,18.238756013671875,18.824413395080565,18.166307013671876Q18.810003395080567,18.093857513671875,18.810003395080567,18.019989013671875Q18.810003395080567,17.946120513671875,18.824413395080565,17.873671013671874Q18.838823395080567,17.801222013671875,18.867093395080566,17.732976013671873Q18.895353395080566,17.664731013671876,18.936393395080565,17.603311013671874Q18.977433395080567,17.541892013671877,19.029663395080565,17.489659013671876Q19.081903395080566,17.437426013671875,19.143323395080568,17.396387013671877Q19.204743395080566,17.355348013671875,19.272983395080566,17.327079013671874Q19.341233395080565,17.298811013671877,19.413683395080568,17.284400013671874Q19.486133395080564,17.269989013671875,19.560003395080567,17.269989013671875Q19.633863395080567,17.269989013671875,19.706313395080567,17.284400013671874Q19.778763395080567,17.298811013671877,19.847013395080566,17.327079013671874Q19.915253395080565,17.355348013671875,19.976673395080567,17.396387013671877Q20.038093395080566,17.437426013671875,20.090333395080567,17.489659013671876Q20.142563395080565,17.541892013671877,20.183603395080567,17.603311013671874Q20.224643395080566,17.664731013671876,20.252903395080565,17.732976013671873Q20.281173395080565,17.801222013671875,20.295583395080566,17.873671013671874Q20.310003395080567,17.946120513671875,20.310003395080567,18.019989013671875ZM17.190003395080566,19.000000013671876Q17.190003395080566,19.073869013671874,17.175592395080567,19.146319013671874Q17.161181395080565,19.218769013671874,17.132913395080568,19.287009013671874Q17.104644395080566,19.355259013671876,17.063605395080565,19.416679013671875Q17.022566395080567,19.478099013671876,16.970333395080566,19.530329013671874Q16.918100395080565,19.582559013671876,16.856681395080567,19.623599013671875Q16.795261395080566,19.664639013671874,16.727016395080568,19.692909013671876Q16.658770395080566,19.721179013671875,16.586321395080567,19.735589013671873Q16.513871895080566,19.749999013671875,16.440003395080566,19.749999013671875Q16.366134895080567,19.749999013671875,16.293685395080566,19.735589013671873Q16.221236395080567,19.721179013671875,16.152990395080565,19.692909013671876Q16.084745395080567,19.664639013671874,16.023325395080565,19.623599013671875Q15.961906395080566,19.582559013671876,15.909673395080567,19.530329013671874Q15.857440395080566,19.478099013671876,15.816401395080566,19.416679013671875Q15.775362395080567,19.355259013671876,15.747093395080567,19.287009013671874Q15.718825395080566,19.218769013671874,15.704414395080565,19.146319013671874Q15.690003395080566,19.073869013671874,15.690003395080566,19.000000013671876Q15.690003395080566,18.926131013671874,15.704414395080565,18.853682013671875Q15.718825395080566,18.781233013671876,15.747093395080567,18.712987013671874Q15.775362395080567,18.644742013671873,15.816401395080566,18.583322013671875Q15.857440395080566,18.521903013671874,15.909673395080567,18.469670013671873Q15.961906395080566,18.417437013671876,16.023325395080565,18.376398013671874Q16.084745395080567,18.335359013671876,16.152990395080565,18.307090013671875Q16.221236395080567,18.278822013671874,16.293685395080566,18.264411013671875Q16.366134895080567,18.250000013671876,16.440003395080566,18.250000013671876Q16.513871895080566,18.250000013671876,16.586321395080567,18.264411013671875Q16.658770395080566,18.278822013671874,16.727016395080568,18.307090013671875Q16.795261395080566,18.335359013671876,16.856681395080567,18.376398013671874Q16.918100395080565,18.417437013671876,16.970333395080566,18.469670013671873Q17.022566395080567,18.521903013671874,17.063605395080565,18.583322013671875Q17.104644395080566,18.644742013671873,17.132913395080568,18.712987013671874Q17.161181395080565,18.781233013671876,17.175592395080567,18.853682013671875Q17.190003395080566,18.926131013671874,17.190003395080566,19.000000013671876Z" fill="#000000" fill-opacity="1"/></g></g><g><path d="M16,2.750000238418579Q18.8628,2.750000238418579,20.3621,4.364662238418579Q21.75,5.859330238418579,21.75,8.500000238418579L21.75,16.36000023841858Q21.75,16.43390023841858,21.7356,16.50630023841858Q21.7212,16.57880023841858,21.6929,16.647000238418578Q21.6646,16.71520023841858,21.6236,16.776700238418577Q21.5826,16.83810023841858,21.5303,16.89030023841858Q21.4781,16.942600238418578,21.4167,16.98360023841858Q21.3553,17.02460023841858,21.287,17.05290023841858Q21.2188,17.08120023841858,21.1463,17.095600238418577Q21.0739,17.11000023841858,21,17.11000023841858Q20.8383,17.11000023841858,20.691,17.043400238418577Q20.5436,16.97670023841858,20.4368,16.85530023841858Q19.4647,15.750000238418579,18,15.750000238418579Q16.6532,15.750000238418579,15.7016,16.701600238418578Q14.75,17.653200238418577,14.75,19.00000023841858Q14.75,19.90680023841858,15.2184,20.66630023841858Q15.2232,20.674200238418578,15.2278,20.682100238418577Q15.4789,21.11240023841858,15.852,21.42540023841858Q15.9086,21.47280023841858,15.9548,21.53040023841858Q16.0011,21.58800023841858,16.0352,21.65350023841858Q16.0693,21.71910023841858,16.09,21.79000023841858Q16.1107,21.86090023841858,16.1171,21.93450023841858Q16.1236,22.008000238418578,16.1156,22.081500238418577Q16.1075,22.15490023841858,16.0853,22.22540023841858Q16.0631,22.29580023841858,16.0276,22.36060023841858Q15.9921,22.42540023841858,15.9446,22.48200023841858Q15.8378,22.60940023841858,15.687,22.67970023841858Q15.5363,22.75000023841858,15.37,22.75000023841858L8,22.75000023841858Q5.13724,22.75000023841858,3.637905,21.13530023841858Q2.25,19.640700238418578,2.25,17.00000023841858L2.25,8.500000238418579Q2.25,5.859330238418579,3.637905,4.364662238418579Q5.137230000000001,2.750000238418579,8,2.750000238418579L16,2.750000238418579ZM16,4.250000238418579L8,4.250000238418579Q5.79134,4.250000238418579,4.7371,5.385340238418579Q3.75,6.448360238418579,3.75,8.500000238418579L3.75,17.00000023841858Q3.75,21.25000023841858,8,21.25000023841858L15.37,21.25000023841858L15.37,22.00000023841858L14.888,22.57460023841858Q14.3148,22.09390023841858,13.9322,21.437900238418578L14.58,21.060000238418578L13.9416,21.45370023841858Q13.25,20.33210023841858,13.25,19.00000023841858Q13.25,17.03180023841858,14.6409,15.64090023841858Q16.0318,14.250000238418579,18,14.250000238418579Q20.143,14.250000238418579,21.5632,15.864700238418578L21,16.36000023841858L20.25,16.36000023841858L20.25,8.500000238418579Q20.25,4.250000238418579,16,4.250000238418579Z" fill="#000000" fill-opacity="1"/></g><g style="opacity:0;"><path d="M0,0L0,24L24,24L24,0L0,0ZM1,1L1,23L23,23L23,1L1,1Z" fill-rule="evenodd" fill="#000000" fill-opacity="1"/></g><g><path d="M12.0044655625,14.700013160705566L11.9954835625,14.700013160705566Q11.8969925625,14.700013160705566,11.8003935625,14.680803160705567Q11.7037945625,14.661583160705566,11.6128005625,14.623893160705567Q11.5218062625,14.586203160705566,11.4399136625,14.531483160705566Q11.3580205625,14.476763160705566,11.2883775625,14.407123160705567Q11.2187335625,14.337473160705567,11.1640145625,14.255583160705566Q11.1092955625,14.173691160705566,11.0716045625,14.082696160705567Q11.0339135625,13.991702160705566,11.0146985625,13.895103160705567Q10.9954835625,13.798504160705566,10.9954835625,13.700013160705566Q10.9954835625,13.601522160705567,11.0146985625,13.504923160705566Q11.0339135625,13.408324160705567,11.0716045625,13.317330160705566Q11.1092955625,13.226335560705566,11.1640145625,13.144442960705566Q11.2187335625,13.062550160705566,11.2883775625,12.992906160705566Q11.3580205625,12.923262160705566,11.4399136625,12.868543160705567Q11.5218062625,12.813825160705566,11.6128005625,12.776134160705567Q11.7037945625,12.738442160705567,11.8003935625,12.719228160705566Q11.8969925625,12.700013160705566,11.9954835625,12.700013160705566L12.0044655625,12.700013160705566Q12.1029575625,12.700013160705566,12.1995555625,12.719228160705566Q12.2961545625,12.738442160705567,12.3871495625,12.776133160705566Q12.4781435625,12.813825160705566,12.5600365625,12.868543160705567Q12.6419265625,12.923262160705566,12.7115765625,12.992906160705566Q12.7812165625,13.062550160705566,12.8359365625,13.144442960705566Q12.8906565625,13.226335560705566,12.9283465625,13.317330160705566Q12.9660365625,13.408324160705567,12.9852465625,13.504923160705566Q13.0044665625,13.601522160705567,13.0044665625,13.700013160705566Q13.0044665625,13.798504160705566,12.9852465625,13.895103160705567Q12.9660365625,13.991702160705566,12.9283465625,14.082696160705567Q12.8906565625,14.173691160705566,12.8359365625,14.255583160705566Q12.7812165625,14.337473160705567,12.7115765625,14.407123160705567Q12.6419265625,14.476763160705566,12.5600365625,14.531483160705566Q12.4781435625,14.586203160705566,12.3871495625,14.623893160705567Q12.2961545625,14.661583160705566,12.1995555625,14.680803160705567Q12.1029575625,14.700013160705566,12.0044655625,14.700013160705566ZM13.0044665625,13.700013160705566Q13.0044665625,13.798504160705566,12.9852465625,13.895103160705567Q12.9660365625,13.991702160705566,12.9283465625,14.082696160705567Q12.8906565625,14.173691160705566,12.8359365625,14.255583160705566Q12.7812165625,14.337473160705567,12.7115765625,14.407123160705567Q12.6419265625,14.476763160705566,12.5600365625,14.531483160705566Q12.4781435625,14.586203160705566,12.3871495625,14.623893160705567Q12.2961545625,14.661583160705566,12.1995555625,14.680803160705567Q12.1029575625,14.700013160705566,12.0044655625,14.700013160705566Q11.9059745625,14.700013160705566,11.8093755625,14.680803160705567Q11.7127765625,14.661583160705566,11.6217825625,14.623893160705567Q11.5307881625,14.586203160705566,11.4488955625,14.531483160705566Q11.3670025625,14.476763160705566,11.2973585625,14.407123160705567Q11.2277155625,14.337473160705567,11.1729965625,14.255583160705566Q11.1182775625,14.173691160705566,11.0805865625,14.082696160705567Q11.0428955625,13.991702160705566,11.0236805625,13.895103160705567Q11.0044655625,13.798504160705566,11.0044655625,13.700013160705566Q11.0044655625,13.601522160705567,11.0236805625,13.504923160705566Q11.0428955625,13.408324160705567,11.0805865625,13.317330160705566Q11.1182775625,13.226335560705566,11.1729965625,13.144442960705566Q11.2277155625,13.062550160705566,11.2973585625,12.992906160705566Q11.3670025625,12.923262160705566,11.4488955625,12.868543160705567Q11.5307881625,12.813825160705566,11.6217825625,12.776134160705567Q11.7127765625,12.738442160705567,11.8093755625,12.719228160705566Q11.9059745625,12.700013160705566,12.0044655625,12.700013160705566Q12.1029575625,12.700013160705566,12.1995555625,12.719228160705566Q12.2961545625,12.738442160705567,12.3871495625,12.776133160705566Q12.4781435625,12.813825160705566,12.5600365625,12.868543160705567Q12.6419265625,12.923262160705566,12.7115765625,12.992906160705566Q12.7812165625,13.062550160705566,12.8359365625,13.144442960705566Q12.8906565625,13.226335560705566,12.9283465625,13.317330160705566Q12.9660365625,13.408324160705567,12.9852465625,13.504923160705566Q13.0044665625,13.601522160705567,13.0044665625,13.700013160705566ZM12.9954865625,13.700013160705566Q12.9954865625,13.798504160705566,12.9762665625,13.895103160705567Q12.9570565625,13.991702160705566,12.9193665625,14.082696160705567Q12.881676562500001,14.173691160705566,12.8269565625,14.255583160705566Q12.7722365625,14.337473160705567,12.7025865625,14.407123160705567Q12.632946562499999,14.476763160705566,12.5510565625,14.531483160705566Q12.4691615625,14.586203160705566,12.3781675625,14.623893160705567Q12.2871725625,14.661583160705566,12.1905745625,14.680803160705567Q12.0939755625,14.700013160705566,11.9954835625,14.700013160705566Q11.8969925625,14.700013160705566,11.8003935625,14.680803160705567Q11.7037945625,14.661583160705566,11.6128005625,14.623893160705567Q11.5218062625,14.586203160705566,11.4399136625,14.531483160705566Q11.3580205625,14.476763160705566,11.2883775625,14.407123160705567Q11.2187335625,14.337473160705567,11.1640145625,14.255583160705566Q11.1092955625,14.173691160705566,11.0716045625,14.082696160705567Q11.0339135625,13.991702160705566,11.0146985625,13.895103160705567Q10.9954835625,13.798504160705566,10.9954835625,13.700013160705566Q10.9954835625,13.601522160705567,11.0146985625,13.504923160705566Q11.0339135625,13.408324160705567,11.0716045625,13.317330160705566Q11.1092955625,13.226335560705566,11.1640145625,13.144442960705566Q11.2187335625,13.062550160705566,11.2883775625,12.992906160705566Q11.3580205625,12.923262160705566,11.4399136625,12.868543160705567Q11.5218062625,12.813825160705566,11.6128005625,12.776134160705567Q11.7037945625,12.738442160705567,11.8003935625,12.719228160705566Q11.8969925625,12.700013160705566,11.9954835625,12.700013160705566Q12.0939755625,12.700013160705566,12.1905735625,12.719228160705566Q12.2871725625,12.738442160705567,12.3781675625,12.776133160705566Q12.4691615625,12.813825160705566,12.5510565625,12.868543160705567Q12.632946562499999,12.923262160705566,12.7025865625,12.992906160705566Q12.7722365625,13.062550160705566,12.8269565625,13.144442960705566Q12.881676562500001,13.226335560705566,12.9193665625,13.317330160705566Q12.9570565625,13.408324160705567,12.9762665625,13.504923160705566Q12.9954865625,13.601522160705567,12.9954865625,13.700013160705566Z" fill="#000000" fill-opacity="1"/></g><g><path d="M8.303294164337158,14.700013160705566L8.294312164337159,14.700013160705566Q8.195821164337158,14.700013160705566,8.099222164337158,14.680803160705567Q8.002623164337159,14.661583160705566,7.911629164337159,14.623893160705567Q7.820634864337158,14.586203160705566,7.738742264337159,14.531483160705566Q7.656849164337158,14.476763160705566,7.587206164337158,14.407123160705567Q7.517562164337158,14.337473160705567,7.462843164337158,14.255583160705566Q7.408124164337158,14.173691160705566,7.370433164337158,14.082696160705567Q7.332742164337159,13.991702160705566,7.313527164337158,13.895103160705567Q7.294312164337159,13.798504160705566,7.294312164337159,13.700013160705566Q7.294312164337159,13.601522160705567,7.313527164337158,13.504923160705566Q7.332742164337159,13.408324160705567,7.370433164337158,13.317330160705566Q7.408124164337158,13.226335560705566,7.462843164337158,13.144442960705566Q7.517562164337158,13.062550160705566,7.587206164337158,12.992906160705566Q7.656849164337158,12.923262160705566,7.738742264337159,12.868543160705567Q7.820634864337158,12.813825160705566,7.911629164337159,12.776134160705567Q8.002623164337159,12.738442160705567,8.099222164337158,12.719228160705566Q8.195821164337158,12.700013160705566,8.294312164337159,12.700013160705566L8.303294164337158,12.700013160705566Q8.401786164337159,12.700013160705566,8.498384164337159,12.719228160705566Q8.594983164337158,12.738442160705567,8.685978164337158,12.776133160705566Q8.776972164337158,12.813825160705566,8.858865164337159,12.868543160705567Q8.940755164337158,12.923262160705566,9.010405164337158,12.992906160705566Q9.080045164337157,13.062550160705566,9.134765164337159,13.144442960705566Q9.189485164337158,13.226335560705566,9.227175164337158,13.317330160705566Q9.264865164337158,13.408324160705567,9.284075164337159,13.504923160705566Q9.303295164337158,13.601522160705567,9.303295164337158,13.700013160705566Q9.303295164337158,13.798504160705566,9.284075164337159,13.895103160705567Q9.264865164337158,13.991702160705566,9.227175164337158,14.082696160705567Q9.189485164337158,14.173691160705566,9.134765164337159,14.255583160705566Q9.080045164337157,14.337473160705567,9.010405164337158,14.407123160705567Q8.940755164337158,14.476763160705566,8.858865164337159,14.531483160705566Q8.776972164337158,14.586203160705566,8.685978164337158,14.623893160705567Q8.594983164337158,14.661583160705566,8.498384164337159,14.680803160705567Q8.401786164337159,14.700013160705566,8.303294164337158,14.700013160705566ZM9.303295164337158,13.700013160705566Q9.303295164337158,13.798504160705566,9.284075164337159,13.895103160705567Q9.264865164337158,13.991702160705566,9.227175164337158,14.082696160705567Q9.189485164337158,14.173691160705566,9.134765164337159,14.255583160705566Q9.080045164337157,14.337473160705567,9.010405164337158,14.407123160705567Q8.940755164337158,14.476763160705566,8.858865164337159,14.531483160705566Q8.776972164337158,14.586203160705566,8.685978164337158,14.623893160705567Q8.594983164337158,14.661583160705566,8.498384164337159,14.680803160705567Q8.401786164337159,14.700013160705566,8.303294164337158,14.700013160705566Q8.204803164337159,14.700013160705566,8.108204164337158,14.680803160705567Q8.011605164337158,14.661583160705566,7.920611164337158,14.623893160705567Q7.829616764337159,14.586203160705566,7.747724164337158,14.531483160705566Q7.665831164337158,14.476763160705566,7.596187164337159,14.407123160705567Q7.5265441643371584,14.337473160705567,7.471825164337158,14.255583160705566Q7.4171061643371585,14.173691160705566,7.379415164337158,14.082696160705567Q7.341724164337158,13.991702160705566,7.322509164337158,13.895103160705567Q7.303294164337158,13.798504160705566,7.303294164337158,13.700013160705566Q7.303294164337158,13.601522160705567,7.322509164337158,13.504923160705566Q7.341724164337158,13.408324160705567,7.379415164337158,13.317330160705566Q7.4171061643371585,13.226335560705566,7.471825164337158,13.144442960705566Q7.5265441643371584,13.062550160705566,7.596187164337159,12.992906160705566Q7.665831164337158,12.923262160705566,7.747724164337158,12.868543160705567Q7.829616764337159,12.813825160705566,7.920611164337158,12.776134160705567Q8.011605164337158,12.738442160705567,8.108204164337158,12.719228160705566Q8.204803164337159,12.700013160705566,8.303294164337158,12.700013160705566Q8.401786164337159,12.700013160705566,8.498384164337159,12.719228160705566Q8.594983164337158,12.738442160705567,8.685978164337158,12.776133160705566Q8.776972164337158,12.813825160705566,8.858865164337159,12.868543160705567Q8.940755164337158,12.923262160705566,9.010405164337158,12.992906160705566Q9.080045164337157,13.062550160705566,9.134765164337159,13.144442960705566Q9.189485164337158,13.226335560705566,9.227175164337158,13.317330160705566Q9.264865164337158,13.408324160705567,9.284075164337159,13.504923160705566Q9.303295164337158,13.601522160705567,9.303295164337158,13.700013160705566ZM9.294315164337158,13.700013160705566Q9.294315164337158,13.798504160705566,9.275095164337158,13.895103160705567Q9.255885164337158,13.991702160705566,9.218195164337159,14.082696160705567Q9.18050516433716,14.173691160705566,9.125785164337158,14.255583160705566Q9.071065164337158,14.337473160705567,9.001415164337159,14.407123160705567Q8.931775164337157,14.476763160705566,8.849885164337158,14.531483160705566Q8.767990164337158,14.586203160705566,8.676996164337158,14.623893160705567Q8.586001164337159,14.661583160705566,8.489403164337158,14.680803160705567Q8.392804164337159,14.700013160705566,8.294312164337159,14.700013160705566Q8.195821164337158,14.700013160705566,8.099222164337158,14.680803160705567Q8.002623164337159,14.661583160705566,7.911629164337159,14.623893160705567Q7.820634864337158,14.586203160705566,7.738742264337159,14.531483160705566Q7.656849164337158,14.476763160705566,7.587206164337158,14.407123160705567Q7.517562164337158,14.337473160705567,7.462843164337158,14.255583160705566Q7.408124164337158,14.173691160705566,7.370433164337158,14.082696160705567Q7.332742164337159,13.991702160705566,7.313527164337158,13.895103160705567Q7.294312164337159,13.798504160705566,7.294312164337159,13.700013160705566Q7.294312164337159,13.601522160705567,7.313527164337158,13.504923160705566Q7.332742164337159,13.408324160705567,7.370433164337158,13.317330160705566Q7.408124164337158,13.226335560705566,7.462843164337158,13.144442960705566Q7.517562164337158,13.062550160705566,7.587206164337158,12.992906160705566Q7.656849164337158,12.923262160705566,7.738742264337159,12.868543160705567Q7.820634864337158,12.813825160705566,7.911629164337159,12.776134160705567Q8.002623164337159,12.738442160705567,8.099222164337158,12.719228160705566Q8.195821164337158,12.700013160705566,8.294312164337159,12.700013160705566Q8.392804164337159,12.700013160705566,8.489402164337157,12.719228160705566Q8.586001164337159,12.738442160705567,8.676996164337158,12.776133160705566Q8.767990164337158,12.813825160705566,8.849885164337158,12.868543160705567Q8.931775164337157,12.923262160705566,9.001415164337159,12.992906160705566Q9.071065164337158,13.062550160705566,9.125785164337158,13.144442960705566Q9.18050516433716,13.226335560705566,9.218195164337159,13.317330160705566Q9.255885164337158,13.408324160705567,9.275095164337158,13.504923160705566Q9.294315164337158,13.601522160705567,9.294315164337158,13.700013160705566Z" fill="#000000" fill-opacity="1"/></g><g><path d="M8.303294164337158,17.700016021728516L8.294312164337159,17.700016021728516Q8.195821164337158,17.700016021728516,8.099222164337158,17.680806021728515Q8.002623164337159,17.661586021728517,7.911629164337159,17.623896021728516Q7.820634864337158,17.586206021728515,7.738742264337159,17.531486021728515Q7.656849164337158,17.476766021728515,7.587206164337158,17.407126021728516Q7.517562164337158,17.337476021728516,7.462843164337158,17.255586021728515Q7.408124164337158,17.173694021728515,7.370433164337158,17.082699021728516Q7.332742164337159,16.991705021728517,7.313527164337158,16.895106021728516Q7.294312164337159,16.798507021728515,7.294312164337159,16.700016021728516Q7.294312164337159,16.601525021728516,7.313527164337158,16.504926021728515Q7.332742164337159,16.408327021728514,7.370433164337158,16.317333021728516Q7.408124164337158,16.226338421728517,7.462843164337158,16.144445821728517Q7.517562164337158,16.062553021728515,7.587206164337158,15.992909021728515Q7.656849164337158,15.923265021728515,7.738742264337159,15.868546021728516Q7.820634864337158,15.813828021728515,7.911629164337159,15.776137021728516Q8.002623164337159,15.738445021728516,8.099222164337158,15.719231021728515Q8.195821164337158,15.700016021728516,8.294312164337159,15.700016021728516L8.303294164337158,15.700016021728516Q8.401786164337159,15.700016021728516,8.498384164337159,15.719231021728515Q8.594983164337158,15.738445021728516,8.685978164337158,15.776136021728515Q8.776972164337158,15.813828021728515,8.858865164337159,15.868546021728516Q8.940755164337158,15.923265021728515,9.010405164337158,15.992909021728515Q9.080045164337157,16.062553021728515,9.134765164337159,16.144445821728517Q9.189485164337158,16.226338421728517,9.227175164337158,16.317333021728516Q9.264865164337158,16.408327021728514,9.284075164337159,16.504926021728515Q9.303295164337158,16.601525021728516,9.303295164337158,16.700016021728516Q9.303295164337158,16.798507021728515,9.284075164337159,16.895106021728516Q9.264865164337158,16.991705021728517,9.227175164337158,17.082699021728516Q9.189485164337158,17.173694021728515,9.134765164337159,17.255586021728515Q9.080045164337157,17.337476021728516,9.010405164337158,17.407126021728516Q8.940755164337158,17.476766021728515,8.858865164337159,17.531486021728515Q8.776972164337158,17.586206021728515,8.685978164337158,17.623896021728516Q8.594983164337158,17.661586021728517,8.498384164337159,17.680806021728515Q8.401786164337159,17.700016021728516,8.303294164337158,17.700016021728516ZM9.303295164337158,16.700016021728516Q9.303295164337158,16.798507021728515,9.284075164337159,16.895106021728516Q9.264865164337158,16.991705021728517,9.227175164337158,17.082699021728516Q9.189485164337158,17.173694021728515,9.134765164337159,17.255586021728515Q9.080045164337157,17.337476021728516,9.010405164337158,17.407126021728516Q8.940755164337158,17.476766021728515,8.858865164337159,17.531486021728515Q8.776972164337158,17.586206021728515,8.685978164337158,17.623896021728516Q8.594983164337158,17.661586021728517,8.498384164337159,17.680806021728515Q8.401786164337159,17.700016021728516,8.303294164337158,17.700016021728516Q8.204803164337159,17.700016021728516,8.108204164337158,17.680806021728515Q8.011605164337158,17.661586021728517,7.920611164337158,17.623896021728516Q7.829616764337159,17.586206021728515,7.747724164337158,17.531486021728515Q7.665831164337158,17.476766021728515,7.596187164337159,17.407126021728516Q7.5265441643371584,17.337476021728516,7.471825164337158,17.255586021728515Q7.4171061643371585,17.173694021728515,7.379415164337158,17.082699021728516Q7.341724164337158,16.991705021728517,7.322509164337158,16.895106021728516Q7.303294164337158,16.798507021728515,7.303294164337158,16.700016021728516Q7.303294164337158,16.601525021728516,7.322509164337158,16.504926021728515Q7.341724164337158,16.408327021728514,7.379415164337158,16.317333021728516Q7.4171061643371585,16.226338421728517,7.471825164337158,16.144445821728517Q7.5265441643371584,16.062553021728515,7.596187164337159,15.992909021728515Q7.665831164337158,15.923265021728515,7.747724164337158,15.868546021728516Q7.829616764337159,15.813828021728515,7.920611164337158,15.776137021728516Q8.011605164337158,15.738445021728516,8.108204164337158,15.719231021728515Q8.204803164337159,15.700016021728516,8.303294164337158,15.700016021728516Q8.401786164337159,15.700016021728516,8.498384164337159,15.719231021728515Q8.594983164337158,15.738445021728516,8.685978164337158,15.776136021728515Q8.776972164337158,15.813828021728515,8.858865164337159,15.868546021728516Q8.940755164337158,15.923265021728515,9.010405164337158,15.992909021728515Q9.080045164337157,16.062553021728515,9.134765164337159,16.144445821728517Q9.189485164337158,16.226338421728517,9.227175164337158,16.317333021728516Q9.264865164337158,16.408327021728514,9.284075164337159,16.504926021728515Q9.303295164337158,16.601525021728516,9.303295164337158,16.700016021728516ZM9.294315164337158,16.700016021728516Q9.294315164337158,16.798507021728515,9.275095164337158,16.895106021728516Q9.255885164337158,16.991705021728517,9.218195164337159,17.082699021728516Q9.18050516433716,17.173694021728515,9.125785164337158,17.255586021728515Q9.071065164337158,17.337476021728516,9.001415164337159,17.407126021728516Q8.931775164337157,17.476766021728515,8.849885164337158,17.531486021728515Q8.767990164337158,17.586206021728515,8.676996164337158,17.623896021728516Q8.586001164337159,17.661586021728517,8.489403164337158,17.680806021728515Q8.392804164337159,17.700016021728516,8.294312164337159,17.700016021728516Q8.195821164337158,17.700016021728516,8.099222164337158,17.680806021728515Q8.002623164337159,17.661586021728517,7.911629164337159,17.623896021728516Q7.820634864337158,17.586206021728515,7.738742264337159,17.531486021728515Q7.656849164337158,17.476766021728515,7.587206164337158,17.407126021728516Q7.517562164337158,17.337476021728516,7.462843164337158,17.255586021728515Q7.408124164337158,17.173694021728515,7.370433164337158,17.082699021728516Q7.332742164337159,16.991705021728517,7.313527164337158,16.895106021728516Q7.294312164337159,16.798507021728515,7.294312164337159,16.700016021728516Q7.294312164337159,16.601525021728516,7.313527164337158,16.504926021728515Q7.332742164337159,16.408327021728514,7.370433164337158,16.317333021728516Q7.408124164337158,16.226338421728517,7.462843164337158,16.144445821728517Q7.517562164337158,16.062553021728515,7.587206164337158,15.992909021728515Q7.656849164337158,15.923265021728515,7.738742264337159,15.868546021728516Q7.820634864337158,15.813828021728515,7.911629164337159,15.776137021728516Q8.002623164337159,15.738445021728516,8.099222164337158,15.719231021728515Q8.195821164337158,15.700016021728516,8.294312164337159,15.700016021728516Q8.392804164337159,15.700016021728516,8.489402164337157,15.719231021728515Q8.586001164337159,15.738445021728516,8.676996164337158,15.776136021728515Q8.767990164337158,15.813828021728515,8.849885164337158,15.868546021728516Q8.931775164337157,15.923265021728515,9.001415164337159,15.992909021728515Q9.071065164337158,16.062553021728515,9.125785164337158,16.144445821728517Q9.18050516433716,16.226338421728517,9.218195164337159,16.317333021728516Q9.255885164337158,16.408327021728514,9.275095164337158,16.504926021728515Q9.294315164337158,16.601525021728516,9.294315164337158,16.700016021728516Z" fill="#000000" fill-opacity="1"/></g></g></svg>