<svg xmlns="http://www.w3.org/2000/svg" xmlns:xlink="http://www.w3.org/1999/xlink" fill="none" version="1.1" width="28" height="28" viewBox="0 0 28 28"><g><g><path d="" fill="#FFFFFF" fill-opacity="0"/></g><g><path d="M4.666666507720947,11.348373253860474Q4.666666507720947,9.514963253860474,5.400573507720948,7.838983253860474Q6.109096507720947,6.220973253860474,7.400326507720948,4.9737732538604735Q8.691566507720946,3.7265732538604737,10.366706507720949,3.0422122538604737Q12.101866507720947,2.3333332538604736,13.999996507720947,2.3333332538604736Q15.898166507720948,2.3333332538604736,17.633266507720947,3.0422122538604737Q19.308466507720947,3.7265732538604737,20.599666507720947,4.9737732538604735Q21.890866507720947,6.220973253860474,22.599466507720948,7.838983253860474Q23.333366507720946,9.514963253860474,23.333366507720946,11.348373253860474Q23.333366507720946,13.181733253860473,22.599466507720948,14.857733253860474Q21.890866507720947,16.475733253860476,20.599666507720947,17.722933253860475Q19.36836650772095,18.912233253860474,17.78806650772095,19.589733253860473L19.178866507720947,23.545233253860474L20.58816650772095,23.545233253860474C21.194666507720946,23.545233253860474,21.686266507720948,24.020033253860472,21.686266507720948,24.605833253860474C21.686266507720948,25.191533253860474,21.194666507720946,25.666333253860472,20.58816650772095,25.666333253860472L7.411736507720947,25.666333253860472C6.805306507720948,25.666333253860472,6.313696507720947,25.191533253860474,6.313696507720947,24.605833253860474C6.313696507720947,24.020033253860472,6.805306507720948,23.545233253860474,7.411736507720947,23.545233253860474L8.819066507720947,23.545233253860474L10.200286507720946,19.584733253860474Q8.627056507720948,18.907833253860474,7.400326507720948,17.722933253860475Q6.109096507720947,16.475733253860476,5.400574507720947,14.857733253860474Q4.666666507720947,13.181733253860473,4.666666507720947,11.348373253860474ZM13.999996507720947,20.363433253860475L12.246056507720947,20.363433253860475L11.136396507720947,23.545233253860474L16.85956650772095,23.545233253860474L15.740766507720947,20.363433253860475L13.999996507720947,20.363433253860475ZM9.607826507720947,11.348383253860474Q9.607826507720947,9.591133253860473,10.894266507720946,8.348573253860474Q12.180696507720947,7.106003253860473,13.999986507720948,7.106003253860473Q15.819266507720947,7.106003253860473,17.105666507720947,8.348573253860474Q18.392166507720948,9.591133253860473,18.392166507720948,11.348383253860474Q18.392166507720948,13.105633253860473,17.105666507720947,14.348233253860474Q15.819266507720947,15.590733253860474,13.999986507720948,15.590733253860474Q12.180696507720947,15.590733253860474,10.894266507720946,14.348233253860474Q9.607826507720947,13.105633253860473,9.607826507720947,11.348383253860474Z" fill-rule="evenodd" fill="#000000" fill-opacity="1"/></g></g></svg>