<svg xmlns="http://www.w3.org/2000/svg" xmlns:xlink="http://www.w3.org/1999/xlink" fill="none" version="1.1" width="28" height="28" viewBox="0 0 28 28"><defs><clipPath id="master_svg0_1547_07144"><rect x="0" y="0" width="28" height="28" rx="0"/></clipPath></defs><g><g clip-path="url(#master_svg0_1547_07144)"><g><path d="M19.0927739375,16.177932989257812Q19.0927729375,16.223715989257812,19.0838419375,16.268618989257813Q19.0749099375,16.313522989257812,19.0573889375,16.35582098925781Q19.0398689375,16.398118989257814,19.0144329375,16.43618598925781Q18.9889969375,16.474252989257813,18.9566239375,16.506626989257814Q18.9242499375,16.538999989257814,18.8861829375,16.564435989257813Q18.8481159375,16.589871989257812,18.8058179375,16.607391989257813Q18.7635199375,16.624912989257812,18.7186159375,16.633844989257813Q18.6737129375,16.642775989257814,18.6279299375,16.64277698925781Q18.5821469375,16.642775989257814,18.5372429375,16.633844989257813Q18.4923399375,16.624912989257812,18.4500419375,16.607391989257813Q18.4077439375,16.589871989257812,18.3696759375,16.564435989257813Q18.3316089375,16.538999989257814,18.2992359375,16.506626989257814Q18.2668619375,16.474252989257813,18.2414262375,16.43618598925781Q18.2159905375,16.398118989257814,18.1984700375,16.35582098925781Q18.1809496375,16.313522989257812,18.1720177775,16.268618989257813Q18.1630859375,16.223715989257812,18.1630859375,16.177932989257812Q18.1630859375,16.13214998925781,18.1720177775,16.087245989257813Q18.1809496375,16.04234298925781,18.1984700375,16.000044989257812Q18.2159905375,15.957746989257812,18.2414262375,15.919678989257813Q18.2668619375,15.881611989257813,18.2992359375,15.849238989257813Q18.3316089375,15.816864989257812,18.3696759375,15.791429289257813Q18.4077439375,15.765993589257812,18.4500419375,15.748473089257812Q18.4923399375,15.730952689257812,18.5372429375,15.722020829257813Q18.5821469375,15.713088989257812,18.6279299375,15.713088989257812Q18.6737129375,15.713088989257812,18.7186159375,15.722020829257813Q18.7635199375,15.730952689257812,18.8058179375,15.748473089257812Q18.8481159375,15.765993589257812,18.8861829375,15.791429289257813Q18.9242499375,15.816864989257812,18.9566239375,15.849238989257813Q18.9889969375,15.881611989257813,19.0144329375,15.919678989257813Q19.0398689375,15.957746989257812,19.0573889375,16.000044989257812Q19.0749099375,16.04234298925781,19.0838419375,16.087245989257813Q19.0927729375,16.13214998925781,19.0927739375,16.177932989257812Z" fill="#232D42" fill-opacity="1"/></g><g><g><path d="M5.39063,17.1899C5.23792,17.1901,5.089309999999999,17.1414,4.96725,17.051299999999998L2.282201,15.0742C1.884064,14.781,1.9119453,14.1861,2.335829,13.92995L18.2291,4.331038L18.2322,4.329376C19.2562,3.718119,20.5865,3.9797149,21.2918,4.93104C21.298,4.939354,21.3039,4.947668,21.3096,4.956259L23.8617,8.73641C24.0822,9.06304,23.9832,9.50413,23.6432,9.709430000000001L14.2087,15.4049C13.9143,15.5849,13.53,15.5259,13.3055,15.2663C12.9759,14.922,12.5862,14.6384,12.1548,14.4291C11.30349,14.0236,10.46352,14.0533,9.65882,14.5169C7.24699,15.9062,5.85267,17.0211,5.838839999999999,17.0322C5.71258,17.1342,5.55415,17.1899,5.39063,17.1899ZM3.9584900000000003,14.5754L5.383570000000001,15.6252C5.99041,15.1762,7.20719,14.3227,8.94416,13.32191C10.18126,12.6094,11.52224,12.56976,12.822,13.20746C13.2225,13.40656,13.5965,13.65341,13.9355,13.94242L22.2822,8.9038L20.1433,5.73474C19.8658,5.37743,19.3591,5.28196,18.9666,5.5130300000000005L3.9584900000000003,14.5754Z" fill="#0C0507" fill-opacity="1"/></g><g><path d="M11.351139576873779,20.20431962966919C11.113949576873779,20.20431962966919,10.89263957687378,20.08731962966919,10.76208957687378,19.89281962966919L8.59807257687378,16.67138962966919C8.383499676873779,16.351879629669188,8.47334794687378,15.922069629669188,8.79875257687378,15.711379629669189C9.124158576873779,15.500699629669189,9.56189957687378,15.588919629669189,9.77646957687378,15.90842962966919L11.551259576873779,18.551759629669192L22.507929576873778,11.457059629669189L21.81392957687378,10.38231962966919C21.58492957687378,10.05840662966919,21.677029576873778,9.612445629669189,22.01642957687378,9.40170562966919C22.35582957687378,9.19096562966919,22.805629576873777,9.30041176966919,23.00552957687378,9.64236362966919L24.07102957687378,11.29215962966919C24.27712957687378,11.611249629669189,24.18482957687378,12.03362962966919,23.863629576873777,12.24162962966919L11.738959576873778,20.09041962966919C11.623849576873779,20.16491962966919,11.488989576873779,20.20451962966919,11.351139576873779,20.20431962966919Z" fill="#0C0507" fill-opacity="1"/></g><g><path d="M8.528640431671143,20.34927807952881C8.276700431671143,20.34923807952881,8.043910431671142,20.21730807952881,7.917850431671143,20.00313807952881L6.715176231671142,17.95952807952881C6.523485131671142,17.62844807952881,6.639882031671142,17.20752807952881,6.975782431671143,17.017098079528807C7.311684431671143,16.826678079528808,7.741140431671143,16.93814807952881,7.937320431671143,17.26668807952881L8.775320431671142,18.690618079528807L9.831220431671142,18.046548079528808C10.162200431671142,17.84514807952881,10.596780431671142,17.94505807952881,10.802290431671143,18.269808079528808C11.007810431671142,18.59454807952881,10.906570431671142,19.02136807952881,10.576080431671143,19.223548079528808L8.901210431671142,20.24535807952881C8.789320431671143,20.313438079528808,8.660270431671142,20.34943807952881,8.528640431671143,20.34927807952881ZM18.22256043167114,19.74789807952881C16.840660431671143,19.747948079528808,15.720380431671142,18.64797807952881,15.720380431671142,17.29107807952881C15.720330431671142,15.934228079528808,16.840560431671143,14.834258079528809,18.22256043167114,14.834258079528809C19.604460431671143,14.834207198928809,20.724660431671143,15.934298079528809,20.724660431671143,17.29134807952881C20.72296043167114,18.64747807952881,19.603660431671145,19.746368079528807,18.22256043167114,19.74789807952881ZM18.22256043167114,16.22021807952881C17.620060431671142,16.22021807952881,17.131660431671143,16.69977807952881,17.131660431671143,17.29134807952881C17.131660431671143,17.88292807952881,17.620060431671142,18.36248807952881,18.22256043167114,18.36248807952881C18.82506043167114,18.36248807952881,19.313460431671142,17.88292807952881,19.313460431671142,17.29134807952881C19.312760431671144,16.70003807952881,18.824760431671145,16.220828079528808,18.22256043167114,16.22021807952881Z" fill="#0C0507" fill-opacity="1"/></g><g><path d="M25.29436974914551,21.598048826293947L19.464489749145507,21.598048826293947C18.056089749145507,21.596518826293945,16.914877959145507,20.475608826293946,16.913789749145508,19.092728826293946C16.913789749145508,19.033148826293946,16.916329999145507,18.970518826293947,16.921975019145506,18.900948826293945C16.95739304914551,18.446488826293944,17.422387749145507,18.148838826293947,17.860175749145508,18.300398826293947C18.566779749145507,18.545068826293946,19.308429749145507,18.033378826293944,19.313479749145507,17.297716826293946L19.313479749145507,17.280810826293944C19.313479749145507,16.898163826293946,19.629399749145506,16.587967743723944,20.019109749145507,16.587968826293945L25.29436974914551,16.587968826293945C25.684079749145507,16.587967743723944,25.99999974914551,16.898163826293946,25.99999974914551,17.280810826293944L25.99999974914551,20.905208826293944C25.99999974914551,21.287848826293946,25.684079749145507,21.598048826293947,25.29436974914551,21.598048826293947ZM18.52741974914551,19.730148826293945C18.740109749145507,20.032368826293947,19.090349749145506,20.212808826293944,19.464489749145507,20.212918826293944L24.588749749145506,20.212918826293944L24.588749749145506,17.974488826293946L20.62622974914551,17.974488826293946C20.346239749145507,18.918578826293945,19.52120974914551,19.608718826293945,18.52741974914551,19.730148826293945Z" fill="#0C0507" fill-opacity="1"/></g><g><path d="M25.294361580444335,23.999998797302247C24.904655580444334,23.999998797302247,24.588735580444336,23.68980879730225,24.588735580444336,23.307158797302247L24.588735580444336,15.068710797302247C24.588735580444336,14.686064797302246,24.904655580444334,14.375868797302246,25.294361580444335,14.375868797302246C25.684065580444337,14.375868797302246,25.999985580444335,14.686064797302246,25.999985580444335,15.068710797302247L25.999985580444335,23.307158797302247C25.999985580444335,23.68980879730225,25.684065580444337,23.999998797302247,25.294361580444335,23.999998797302247Z" fill="#0C0507" fill-opacity="1"/></g></g></g></g></svg>