<svg xmlns="http://www.w3.org/2000/svg" xmlns:xlink="http://www.w3.org/1999/xlink" fill="none" version="1.1" width="24" height="24" viewBox="0 0 24 24"><g><g><rect x="0" y="0" width="24" height="24" rx="0" fill="#D8D8D8" fill-opacity="0"/></g><g><path d="" fill="#D8D8D8" fill-opacity="0"/><path d="M7.99746,22.75L8,22.75L16,22.75Q16.073900000000002,22.75,16.1463,22.735599999999998Q16.2187,22.7212,16.2869,22.6929Q16.3552,22.6647,16.416600000000003,22.6237Q16.478,22.5826,16.5302,22.5304Q16.5825,22.4782,16.6235,22.416800000000002Q16.6645,22.3554,16.6928,22.2872Q16.7211,22.219,16.735500000000002,22.1466Q16.75,22.0741,16.75,22.0003L16.7506,20.51627Q17.095100000000002,20.32371,17.4239,20.103189999999998Q18.2178,19.57083,18.8943,18.89425Q20.2434,17.54523,20.9835,15.79538Q21.75,13.98315,21.75,12Q21.75,11.9261315,21.7356,11.853682Q21.7212,11.781233,21.6929,11.712987Q21.6646,11.644742,21.6236,11.583322Q21.5826,11.521903,21.5303,11.46967Q21.4781,11.417437,21.4167,11.376398Q21.3553,11.335359,21.287,11.30709Q21.2188,11.278822,21.1463,11.264410999999999Q21.0739,11.25,21,11.25L3,11.25Q2.9261315,11.25,2.853682,11.264410999999999Q2.781233,11.278822,2.712987,11.30709Q2.644742,11.335359,2.583322,11.376398Q2.521903,11.417437,2.46967,11.46967Q2.417437,11.521903,2.376398,11.583322Q2.335359,11.644742,2.30709,11.712987Q2.278822,11.781233,2.264411,11.853682Q2.25,11.9261315,2.25,12Q2.25,13.98315,3.0165134,15.79538Q3.756641,17.54524,5.105729999999999,18.894289999999998Q5.78839,19.57703,6.5906400000000005,20.112949999999998Q6.9153199999999995,20.32983,7.25501,20.51939L7.25,21.99746Q7.24975,22.0713,7.26392,22.1438Q7.27808,22.2163,7.30612,22.2847Q7.33416,22.353,7.37499,22.4146Q7.41582,22.476100000000002,7.46788,22.5285Q7.51993,22.5809,7.58121,22.6222Q7.64249,22.6634,7.71064,22.6919Q7.77879,22.720399999999998,7.85119,22.7351Q7.92359,22.7497,7.99746,22.75ZM8.75255,21.25L8.75655,20.07029Q8.7569,19.96519,8.728349999999999,19.86404Q8.69981,19.76289,8.64456,19.673479999999998Q8.589310000000001,19.58408,8.511610000000001,19.5133Q8.433910000000001,19.442520000000002,8.33975,19.39583Q7.86549,19.16065,7.42386,18.86565Q6.74456,18.41187,6.166370000000001,17.83361Q4.01957,15.68686,3.780072,12.75L20.2199,12.75Q19.9804,15.686869999999999,17.8336,17.83365Q17.2607,18.40662,16.5885,18.85741Q16.1446,19.1551,15.667,19.39247Q15.5732,19.43905,15.4958,19.50951Q15.4185,19.57996,15.3633,19.66891Q15.3082,19.75786,15.2795,19.85851Q15.2508,19.95915,15.2507,20.06381L15.2503,21.25L8.75255,21.25Z" fill-rule="evenodd" fill="#0C0507" fill-opacity="1"/></g><g><path d="" fill="#D8D8D8" fill-opacity="0"/><path d="M12.75,9.00415L12.75,4Q12.75,3.9261315,12.735589000000001,3.853682Q12.721178,3.781233,12.69291,3.712987Q12.664641,3.644742,12.623602,3.583322Q12.582563,3.521903,12.53033,3.46967Q12.478097,3.417437,12.416678,3.376398Q12.355258,3.335359,12.287013,3.30709Q12.218767,3.278822,12.146318,3.264411Q12.0738685,3.25,12,3.25Q11.9261315,3.25,11.853682,3.264411Q11.781233,3.278822,11.712987,3.30709Q11.644742,3.335359,11.583322,3.376398Q11.521903,3.417437,11.46967,3.46967Q11.417437,3.521903,11.376398,3.583322Q11.335359,3.644742,11.30709,3.712987Q11.278822,3.781233,11.264410999999999,3.853682Q11.25,3.9261315,11.25,4L11.25,9.00415Q11.25,9.07802,11.264410999999999,9.15047Q11.278822,9.22292,11.30709,9.29116Q11.335359,9.35941,11.376398,9.420829999999999Q11.417437,9.48225,11.46967,9.53448Q11.521903,9.58671,11.583322,9.627749999999999Q11.644742,9.668790000000001,11.712987,9.69706Q11.781233,9.72533,11.853682,9.739740000000001Q11.9261315,9.75415,12,9.75415Q12.0738685,9.75415,12.146318,9.739740000000001Q12.218767,9.72533,12.287013,9.69706Q12.355258,9.668790000000001,12.416678,9.627749999999999Q12.478097,9.58671,12.53033,9.53448Q12.582563,9.48225,12.623602,9.420829999999999Q12.664641,9.35941,12.69291,9.29116Q12.721178,9.22292,12.735589000000001,9.15047Q12.75,9.07802,12.75,9.00415Z" fill-rule="evenodd" fill="#0C0507" fill-opacity="1"/></g><g><path d="" fill="#D8D8D8" fill-opacity="0"/><path d="M18.75,9.00415L18.75,6Q18.75,5.9261315,18.735589,5.853682Q18.721178,5.781233,18.69291,5.712987Q18.664641,5.644742,18.623601999999998,5.583322Q18.582563,5.521903,18.53033,5.46967Q18.478096999999998,5.417437,18.416678,5.376398Q18.355258,5.335359,18.287013,5.30709Q18.218767,5.278822,18.146318,5.264411Q18.0738685,5.25,18,5.25Q17.9261315,5.25,17.853682,5.264411Q17.781233,5.278822,17.712987,5.30709Q17.644742,5.335359,17.583322,5.376398Q17.521903000000002,5.417437,17.46967,5.46967Q17.417437,5.521903,17.376398000000002,5.583322Q17.335359,5.644742,17.30709,5.712987Q17.278822,5.781233,17.264411,5.853682Q17.25,5.9261315,17.25,6L17.25,9.00415Q17.25,9.07802,17.264411,9.15047Q17.278822,9.22292,17.30709,9.29116Q17.335359,9.35941,17.376398000000002,9.42083Q17.417437,9.48225,17.46967,9.53448Q17.521903000000002,9.58671,17.583322,9.627749999999999Q17.644742,9.66879,17.712987,9.69706Q17.781233,9.72533,17.853682,9.73974Q17.9261315,9.75415,18,9.75415Q18.0738685,9.75415,18.146318,9.73974Q18.218767,9.72533,18.287013,9.69706Q18.355258,9.66879,18.416678,9.627749999999999Q18.478096999999998,9.58671,18.53033,9.53448Q18.582563,9.48225,18.623601999999998,9.42083Q18.664641,9.35941,18.69291,9.29116Q18.721178,9.22292,18.735589,9.15047Q18.75,9.07802,18.75,9.00415Z" fill-rule="evenodd" fill="#0C0507" fill-opacity="1"/></g><g><path d="" fill="#D8D8D8" fill-opacity="0"/><path d="M6.75,9.00415L6.75,6Q6.75,5.9261315,6.735589,5.853682Q6.721178,5.781233,6.69291,5.712987Q6.664641,5.644742,6.623602,5.583322Q6.582563,5.521903,6.53033,5.46967Q6.478097,5.417437,6.416678,5.376398Q6.355258,5.335359,6.287013,5.30709Q6.218767,5.278822,6.146318,5.264411Q6.0738685,5.25,6,5.25Q5.9261315,5.25,5.853682,5.264411Q5.781233,5.278822,5.712987,5.30709Q5.644742,5.335359,5.583322,5.376398Q5.521903,5.417437,5.46967,5.46967Q5.417437,5.521903,5.376398,5.583322Q5.335359,5.644742,5.30709,5.712987Q5.278822,5.781233,5.264411,5.853682Q5.25,5.9261315,5.25,6L5.25,9.00415Q5.25,9.07802,5.264411,9.15047Q5.278822,9.22292,5.30709,9.29116Q5.335359,9.35941,5.376398,9.42083Q5.417437,9.48225,5.46967,9.53448Q5.521903,9.58671,5.583322,9.627749999999999Q5.644742,9.66879,5.712987,9.69706Q5.781233,9.72533,5.853682,9.73974Q5.9261315,9.75415,6,9.75415Q6.0738685,9.75415,6.146318,9.73974Q6.218767,9.72533,6.287013,9.69706Q6.355258,9.66879,6.416678,9.627749999999999Q6.478097,9.58671,6.53033,9.53448Q6.582563,9.48225,6.623602,9.42083Q6.664641,9.35941,6.69291,9.29116Q6.721178,9.22292,6.735589,9.15047Q6.75,9.07802,6.75,9.00415Z" fill-rule="evenodd" fill="#0C0507" fill-opacity="1"/></g><g><path d="" fill="#D8D8D8" fill-opacity="0"/><path d="M18.0554658,4.0554544Q17.25,4.860914,17.25,6Q17.25,6.073869999999999,17.264411,6.146319999999999Q17.278822,6.21877,17.30709,6.28701Q17.335359,6.3552599999999995,17.376398000000002,6.4166799999999995Q17.417437,6.4780999999999995,17.46967,6.53033Q17.521903000000002,6.58256,17.583322,6.6236Q17.644742,6.66464,17.712987,6.6929099999999995Q17.781233,6.72118,17.853682,6.73559Q17.9261315,6.75,18,6.75Q18.0738685,6.75,18.146318,6.73559Q18.218767,6.72118,18.287013,6.6929099999999995Q18.355258,6.66464,18.416678,6.6236Q18.478096999999998,6.58256,18.53033,6.53033Q18.582563,6.4780999999999995,18.623601999999998,6.4166799999999995Q18.664641,6.3552599999999995,18.69291,6.28701Q18.721178,6.21877,18.735589,6.146319999999999Q18.75,6.073869999999999,18.75,6Q18.75,5.48224,19.11612,5.1161200000000004Q19.48224,4.75,20,4.75Q20.07387,4.75,20.14632,4.735589Q20.21877,4.721178,20.28701,4.69291Q20.35526,4.664641,20.41668,4.623602Q20.4781,4.582563,20.53033,4.53033Q20.58256,4.478097,20.6236,4.416678Q20.66464,4.355258,20.69291,4.287013Q20.72118,4.218767,20.735590000000002,4.146318Q20.75,4.0738685,20.75,4Q20.75,3.9261315,20.735590000000002,3.853682Q20.72118,3.781233,20.69291,3.712987Q20.66464,3.644742,20.6236,3.583322Q20.58256,3.521903,20.53033,3.46967Q20.4781,3.417437,20.41668,3.376398Q20.35526,3.335359,20.28701,3.30709Q20.21877,3.278822,20.14632,3.264411Q20.07387,3.25,20,3.25Q18.860926,3.25,18.0554658,4.0554544Z" fill-rule="evenodd" fill="#0C0507" fill-opacity="1"/></g><g><path d="" fill="#D8D8D8" fill-opacity="0"/><path d="M12.0554658,2.0554544Q11.25,2.860914,11.25,4Q11.25,4.073869999999999,11.264410999999999,4.146319999999999Q11.278822,4.21877,11.30709,4.28701Q11.335359,4.3552599999999995,11.376398,4.4166799999999995Q11.417437,4.4780999999999995,11.46967,4.53033Q11.521903,4.58256,11.583322,4.6236Q11.644742,4.66464,11.712987,4.6929099999999995Q11.781233,4.72118,11.853682,4.73559Q11.9261315,4.75,12,4.75Q12.0738685,4.75,12.146318,4.73559Q12.218767,4.72118,12.287013,4.6929099999999995Q12.355258,4.66464,12.416678,4.6236Q12.478097,4.58256,12.53033,4.53033Q12.582563,4.4780999999999995,12.623602,4.4166799999999995Q12.664641,4.3552599999999995,12.69291,4.28701Q12.721178,4.21877,12.735589000000001,4.146319999999999Q12.75,4.073869999999999,12.75,4Q12.75,3.48224,13.11612,3.11612Q13.482240000000001,2.75,14,2.75Q14.07387,2.75,14.14632,2.735589Q14.21877,2.721178,14.28701,2.69291Q14.35526,2.664641,14.41668,2.623602Q14.4781,2.582563,14.53033,2.53033Q14.58256,2.478097,14.6236,2.416678Q14.66464,2.355258,14.69291,2.287013Q14.72118,2.218767,14.73559,2.146318Q14.75,2.0738685,14.75,2Q14.75,1.9261314999999999,14.73559,1.853682Q14.72118,1.781233,14.69291,1.712987Q14.66464,1.644742,14.6236,1.583322Q14.58256,1.521903,14.53033,1.46967Q14.4781,1.417437,14.41668,1.376398Q14.35526,1.335359,14.28701,1.30709Q14.21877,1.278822,14.14632,1.264411Q14.07387,1.25,14,1.25Q12.860926,1.25,12.0554658,2.0554544Z" fill-rule="evenodd" fill="#0C0507" fill-opacity="1"/></g><g><path d="" fill="#D8D8D8" fill-opacity="0"/><path d="M6.0554658,4.0554544Q5.25,4.860914,5.25,6Q5.25,6.073869999999999,5.264411,6.146319999999999Q5.278822,6.21877,5.30709,6.28701Q5.335359,6.3552599999999995,5.376398,6.4166799999999995Q5.417437,6.4780999999999995,5.46967,6.53033Q5.521903,6.58256,5.583322,6.6236Q5.644742,6.66464,5.712987,6.6929099999999995Q5.781233,6.72118,5.853682,6.73559Q5.9261315,6.75,6,6.75Q6.0738685,6.75,6.146318,6.73559Q6.218767,6.72118,6.287013,6.6929099999999995Q6.355258,6.66464,6.416678,6.6236Q6.478097,6.58256,6.53033,6.53033Q6.582563,6.4780999999999995,6.623602,6.4166799999999995Q6.664641,6.3552599999999995,6.69291,6.28701Q6.721178,6.21877,6.735589,6.146319999999999Q6.75,6.073869999999999,6.75,6Q6.75,5.48224,7.1161200000000004,5.1161200000000004Q7.48224,4.75,8,4.75Q8.07387,4.75,8.14632,4.735589Q8.21877,4.721178,8.28701,4.69291Q8.35526,4.664641,8.41668,4.623602Q8.4781,4.582563,8.53033,4.53033Q8.58256,4.478097,8.6236,4.416678Q8.66464,4.355258,8.69291,4.287013Q8.72118,4.218767,8.73559,4.146318Q8.75,4.0738685,8.75,4Q8.75,3.9261315,8.73559,3.853682Q8.72118,3.781233,8.69291,3.712987Q8.66464,3.644742,8.6236,3.583322Q8.58256,3.521903,8.53033,3.46967Q8.4781,3.417437,8.41668,3.376398Q8.35526,3.335359,8.28701,3.30709Q8.21877,3.278822,8.14632,3.264411Q8.07387,3.25,8,3.25Q6.860926,3.25,6.0554658,4.0554544Z" fill-rule="evenodd" fill="#0C0507" fill-opacity="1"/></g></g></svg>