<svg xmlns="http://www.w3.org/2000/svg" xmlns:xlink="http://www.w3.org/1999/xlink" fill="none" version="1.1" width="16" height="16" viewBox="0 0 16 16"><g><g><path d="M14.5,5.333336655540466C14.5,5.606666655540466,14.2733,5.833336655540466,14,5.833336655540466C14,5.833336655540466,2,5.833336655540466,2,5.833336655540466C1.726667,5.833336655540466,1.5,5.606666655540466,1.5,5.333336655540466C1.5,5.059996655540466,1.726667,4.833336655540466,2,4.833336655540466C2,4.833336655540466,2.6799999999999997,4.833336655540466,2.6799999999999997,4.833336655540466C2.6799999999999997,4.833336655540466,2.9333299999999998,3.6266666555404665,2.9333299999999998,3.6266666555404665C3.17333,2.459996655540466,3.67333,1.3866666555404663,5.66,1.3866666555404663C5.66,1.3866666555404663,10.34,1.3866666555404663,10.34,1.3866666555404663C12.3267,1.3866666555404663,12.8267,2.459996655540466,13.0667,3.6266666555404665C13.0667,3.6266666555404665,13.32,4.833336655540466,13.32,4.833336655540466C13.32,4.833336655540466,14,4.833336655540466,14,4.833336655540466C14.2733,4.833336655540466,14.5,5.059996655540466,14.5,5.333336655540466Z" fill="#FFFFFF" fill-opacity="1"/></g><g><path d="M14.786699530506134,9.106663492279052C14.686699530506134,8.006663492279053,14.393299530506134,6.833333492279053,12.253299530506133,6.833333492279053C12.253299530506133,6.833333492279053,3.746669530506134,6.833333492279053,3.746669530506134,6.833333492279053C1.606666530506134,6.833333492279053,1.320000530506134,8.006663492279053,1.2133335305061341,9.106663492279052C1.2133335305061341,9.106663492279052,0.839999960506134,13.166663492279053,0.839999960506134,13.166663492279053C0.7933333305061341,13.673333492279053,0.9600005305061341,14.180003492279052,1.306666530506134,14.560003492279053C1.6599995305061341,14.946663492279052,2.159999530506134,15.166663492279053,2.693329530506134,15.166663492279053C2.693329530506134,15.166663492279053,3.946669530506134,15.166663492279053,3.946669530506134,15.166663492279053C5.026669530506134,15.166663492279053,5.2333295305061345,14.546663492279052,5.366669530506134,14.140003492279053C5.366669530506134,14.140003492279053,5.499999530506134,13.740003492279053,5.499999530506134,13.740003492279053C5.653329530506134,13.280003492279054,5.693329530506134,13.166663492279053,6.293329530506134,13.166663492279053C6.293329530506134,13.166663492279053,9.706669530506135,13.166663492279053,9.706669530506135,13.166663492279053C10.306669530506134,13.166663492279053,10.326669530506134,13.233333492279053,10.499999530506134,13.740003492279053C10.499999530506134,13.740003492279053,10.633329530506135,14.140003492279053,10.633329530506135,14.140003492279053C10.766669530506134,14.546663492279052,10.973299530506134,15.166663492279053,12.053299530506134,15.166663492279053C12.053299530506134,15.166663492279053,13.306699530506133,15.166663492279053,13.306699530506133,15.166663492279053C13.833299530506133,15.166663492279053,14.339999530506134,14.946663492279052,14.693299530506135,14.560003492279053C15.039999530506135,14.180003492279052,15.206699530506134,13.673333492279053,15.159999530506134,13.166663492279053C15.159999530506134,13.166663492279053,14.786699530506134,9.106663492279052,14.786699530506134,9.106663492279052ZM5.999999530506134,10.500003492279053C5.999999530506134,10.500003492279053,3.999999530506134,10.500003492279053,3.999999530506134,10.500003492279053C3.726669530506134,10.500003492279053,3.499999530506134,10.273333492279052,3.499999530506134,10.000003492279053C3.499999530506134,9.726663492279053,3.726669530506134,9.500003492279053,3.999999530506134,9.500003492279053C3.999999530506134,9.500003492279053,5.999999530506134,9.500003492279053,5.999999530506134,9.500003492279053C6.273329530506134,9.500003492279053,6.499999530506134,9.726663492279053,6.499999530506134,10.000003492279053C6.499999530506134,10.273333492279052,6.273329530506134,10.500003492279053,5.999999530506134,10.500003492279053ZM11.999999530506134,10.500003492279053C11.999999530506134,10.500003492279053,9.999999530506134,10.500003492279053,9.999999530506134,10.500003492279053C9.726669530506134,10.500003492279053,9.499999530506134,10.273333492279052,9.499999530506134,10.000003492279053C9.499999530506134,9.726663492279053,9.726669530506134,9.500003492279053,9.999999530506134,9.500003492279053C9.999999530506134,9.500003492279053,11.999999530506134,9.500003492279053,11.999999530506134,9.500003492279053C12.273299530506135,9.500003492279053,12.499999530506134,9.726663492279053,12.499999530506134,10.000003492279053C12.499999530506134,10.273333492279052,12.273299530506135,10.500003492279053,11.999999530506134,10.500003492279053Z" fill="#FFFFFF" fill-opacity="1"/></g><g transform="matrix(-1,-1.2246469849340659e-16,1.2246469849340659e-16,-1,32,32)" style="opacity:0;"><path d="M16,16C16,16,32,16,32,16C32,16,32,32,32,32C32,32,16,32,16,32C16,32,16,16,16,16Z" fill="#FFFFFF" fill-opacity="1"/></g></g></svg>