<svg xmlns="http://www.w3.org/2000/svg" xmlns:xlink="http://www.w3.org/1999/xlink" fill="none" version="1.1" width="24" height="24" viewBox="0 0 24 24"><defs><clipPath id="master_svg0_102_9014"><rect x="0" y="0" width="24" height="24" rx="0"/></clipPath></defs><g clip-path="url(#master_svg0_102_9014)"><g><path d="M9.42407,2.6194589375C11.1256,2.3651282375,12.8555,2.3651282375,14.557,2.6194589375C15.7535,2.8587579375,16.95,3.0501969375,18.0747,3.3612859375C18.9116,3.5745109375,19.5803,4.2025609374999995,19.8455,5.0244109375Q20.5754,7.0823809375,21.3771,9.1044609375C21.4728,9.3317909375,21.7599,9.6668109375,21.9274,9.6428809375C22.8765,9.482510937499999,23.7798,10.1095509375,23.9615,11.0547509375C24.0218,11.2983509375,24.0218,11.5529809375,23.9615,11.7965709375L22.5975,12.1674909375C22.682,12.6423109375,22.7379,13.1218109375,22.765,13.6033109375L22.765,20.2319109375C22.7496,20.6326109375,22.6071,21.0181109375,22.3582,21.3326109375C21.0955,21.5762109375,19.8003,21.6005109375,18.5294,21.4044109375C17.644,20.8421109375,18.1944,19.8968109375,17.9072,19.1311109375L6.27729,19.1311109375C6.04996,19.9447109375,5.91834,21.3087109375,5.65511,21.4044109375C4.35684,21.6320109375,3.02888,21.6320109375,1.73061,21.4044109375C1.45513,21.0386109375,1.30416,20.5941109375,1.29987,20.1361109375C1.22808,19.1789109375,1.22808,18.269610937499998,1.22808,17.336310937500002C1.22808,15.6014109375,1.22808,13.8665109375,1.29987,12.1196309375L0.0315886,11.7846109375C-0.0105295,11.5914509375,-0.0105295,11.3914909375,0.0315886,11.1983309375C0.390537,10.2411309375,0.869135,9.4993009375,2.10152,9.6069909375C2.2451,9.6069909375,2.5203,9.3198309375,2.60405,9.1044609375C3.06143,8.0380009375,3.46085,6.9476009375,3.80055,5.8380309375C4.26073,4.1988509375,5.69299,3.0196179375,7.39003,2.8826889375C8.0481,2.7630389375,8.7301,2.6792849375,9.38818,2.5715999375L9.42407,2.6194589375ZM4.13556,10.013800937500001C9.29515,11.1056309375,14.6261,11.1056309375,19.7857,10.013800937500001C19.343,8.6856909375,18.9003,7.5011609375,18.5892,6.3046609375C18.3986,5.3640009375,17.5626,4.694210937499999,16.603,4.7133209375C14.1263,4.6056409375000005,11.6376,4.521880937500001,9.16084,4.4979609375C8.35162,4.5296809375,7.54871,4.6541309375,6.76785,4.8688709375000006C6.40803,4.9425609375,6.09314,5.1582409375000005,5.89441,5.4671209375C5.22437,6.9148709375,4.72185,8.4104909375,4.13556,10.013800937500001ZM5.15259,15.6612109375C5.58068,15.6844109375,6.01001,15.6603109375,6.43283,15.5895109375C6.76348,15.5132109375,7.04618,15.3000109375,7.21056,15.0032109375C7.27038,14.8237109375,6.99519,14.3810109375,6.75589,14.2733109375C5.78263,13.8173109375,4.7839,13.4178109375,3.76465,13.0768109375C3.26212,12.9093109375,2.68781,12.9452109375,2.56816,13.6511109375C2.32886,14.6921109375,2.56816,15.2664109375,3.34588,15.4339109375C3.95609,15.5536109375,4.54237,15.5775109375,5.21241,15.6373109375L5.15259,15.6612109375ZM18.9482,15.6612109375C19.5783,15.6163109375,20.2054,15.5364109375,20.8267,15.4219109375C21.724,15.2185109375,21.5326,14.4887109375,21.5087,13.8545109375C21.4847,13.2204109375,21.1497,12.9213109375,20.6592,13.0648109375C19.4306,13.4302109375,18.2308,13.8861109375,17.0697,14.4289109375C16.5432,14.6801109375,16.7347,15.3741109375,17.3329,15.5057109375C17.868,15.5859109375,18.4074,15.6339109375,18.9482,15.6493109375L18.9482,15.6612109375Z" fill="#000000" fill-opacity="1"/></g></g></svg>