<svg xmlns="http://www.w3.org/2000/svg" xmlns:xlink="http://www.w3.org/1999/xlink" fill="none" version="1.1" width="24" height="24" viewBox="0 0 24 24"><defs><clipPath id="master_svg0_112_04493"><rect x="0" y="0" width="24" height="24" rx="0"/></clipPath></defs><g><g clip-path="url(#master_svg0_112_04493)"><g><path d="M8.5,15Q8.5,15.07369,8.49278,15.14703Q8.48555,15.22036,8.47118,15.29264Q8.4568,15.36491,8.435410000000001,15.43543Q8.41402,15.505939999999999,8.385819999999999,15.57402Q8.35762,15.64211,8.32288,15.7071Q8.28814,15.772079999999999,8.2472,15.833359999999999Q8.20626,15.89463,8.15952,15.95159Q8.11277,16.00855,8.06066,16.06066Q8.00855,16.11277,7.9515899999999995,16.15952Q7.894629999999999,16.20626,7.833349999999999,16.2472Q7.77208,16.28814,7.7071000000000005,16.32288Q7.642110000000001,16.35762,7.57402,16.38582Q7.50594,16.41402,7.43543,16.43541Q7.36491,16.4568,7.2926400000000005,16.47118Q7.2203599999999994,16.48555,7.14703,16.49278Q7.07369,16.5,7,16.5Q6.92631,16.5,6.85297,16.49278Q6.7796400000000006,16.48555,6.7073599999999995,16.47118Q6.63509,16.4568,6.56457,16.43541Q6.4940560000000005,16.41402,6.425975,16.38582Q6.357894,16.35762,6.292905,16.32288Q6.2279160000000005,16.28814,6.166645,16.2472Q6.105373,16.20626,6.04841,16.15952Q5.991447,16.11277,5.93934,16.06066Q5.887233,16.00855,5.840484,15.95159Q5.793736,15.89463,5.752796,15.83335Q5.711855,15.772079999999999,5.677118,15.7071Q5.642381,15.64211,5.614181,15.57402Q5.5859806,15.505939999999999,5.5645895,15.43543Q5.5431983,15.36491,5.5288221,15.29264Q5.5144458,15.22036,5.50722291,15.14703Q5.5,15.07369,5.5,15Q5.5,14.92631,5.50722291,14.85297Q5.5144458,14.77964,5.5288221,14.70736Q5.5431983,14.63509,5.5645895,14.56457Q5.5859806,14.494056,5.614181,14.425975Q5.642381,14.357894,5.677118,14.292905Q5.711855,14.227916,5.752796,14.166645Q5.793736,14.105373,5.840484,14.04841Q5.887233,13.991447,5.93934,13.93934Q5.991447,13.887233,6.04841,13.840484Q6.105373,13.793735999999999,6.166645,13.752796Q6.2279160000000005,13.711855,6.292905,13.677118Q6.357894,13.642381,6.425975,13.614181Q6.4940560000000005,13.5859806,6.56457,13.5645895Q6.63509,13.5431983,6.7073599999999995,13.5288221Q6.7796400000000006,13.5144458,6.85297,13.50722291Q6.92631,13.5,7,13.5Q7.07369,13.5,7.14703,13.50722291Q7.2203599999999994,13.5144458,7.2926400000000005,13.5288221Q7.36491,13.5431983,7.43543,13.5645895Q7.50594,13.5859806,7.57402,13.614181Q7.642110000000001,13.642381,7.7071000000000005,13.677118Q7.77208,13.711855,7.83336,13.752796Q7.894629999999999,13.793735999999999,7.9515899999999995,13.840484Q8.00855,13.887233,8.06066,13.93934Q8.11277,13.991447,8.15952,14.04841Q8.20626,14.105373,8.2472,14.166645Q8.28814,14.227916,8.32288,14.292905Q8.35762,14.357894,8.385819999999999,14.425975Q8.41402,14.494056,8.435410000000001,14.56457Q8.4568,14.63509,8.47118,14.70736Q8.48555,14.77964,8.49278,14.85297Q8.5,14.92631,8.5,15Z" fill="#333333" fill-opacity="1"/></g><g><path d="M19,15Q19,15.07369,18.99278,15.14703Q18.98555,15.22036,18.97118,15.29264Q18.9568,15.36491,18.93541,15.43543Q18.91402,15.505939999999999,18.88582,15.57402Q18.85762,15.64211,18.82288,15.7071Q18.78814,15.772079999999999,18.7472,15.833359999999999Q18.70626,15.89463,18.65952,15.95159Q18.61277,16.00855,18.56066,16.06066Q18.50855,16.11277,18.45159,16.15952Q18.39463,16.20626,18.33335,16.2472Q18.27208,16.28814,18.2071,16.32288Q18.14211,16.35762,18.07402,16.38582Q18.00594,16.41402,17.93543,16.43541Q17.864910000000002,16.4568,17.79264,16.47118Q17.72036,16.48555,17.64703,16.49278Q17.57369,16.5,17.5,16.5Q17.42631,16.5,17.35297,16.49278Q17.27964,16.48555,17.20736,16.47118Q17.135089999999998,16.4568,17.06457,16.43541Q16.994056,16.41402,16.925975,16.38582Q16.857894,16.35762,16.792905,16.32288Q16.727916,16.28814,16.666645,16.2472Q16.605373,16.20626,16.54841,16.15952Q16.491447,16.11277,16.43934,16.06066Q16.387233,16.00855,16.340484,15.95159Q16.293736,15.89463,16.252796,15.83335Q16.211855,15.772079999999999,16.177118,15.7071Q16.142381,15.64211,16.114181,15.57402Q16.0859806,15.505939999999999,16.0645895,15.43543Q16.0431983,15.36491,16.0288221,15.29264Q16.0144458,15.22036,16.00722291,15.14703Q16,15.07369,16,15Q16,14.92631,16.00722291,14.85297Q16.0144458,14.77964,16.0288221,14.70736Q16.0431983,14.63509,16.0645895,14.56457Q16.0859806,14.494056,16.114181,14.425975Q16.142381,14.357894,16.177118,14.292905Q16.211855,14.227916,16.252796,14.166645Q16.293736,14.105373,16.340484,14.04841Q16.387233,13.991447,16.43934,13.93934Q16.491447,13.887233,16.54841,13.840484Q16.605373,13.793735999999999,16.666645,13.752796Q16.727916,13.711855,16.792905,13.677118Q16.857894,13.642381,16.925975,13.614181Q16.994056,13.5859806,17.06457,13.5645895Q17.135089999999998,13.5431983,17.20736,13.5288221Q17.27964,13.5144458,17.35297,13.50722291Q17.42631,13.5,17.5,13.5Q17.57369,13.5,17.64703,13.50722291Q17.72036,13.5144458,17.79264,13.5288221Q17.864910000000002,13.5431983,17.93543,13.5645895Q18.00594,13.5859806,18.07402,13.614181Q18.14211,13.642381,18.2071,13.677118Q18.27208,13.711855,18.33336,13.752796Q18.39463,13.793735999999999,18.45159,13.840484Q18.50855,13.887233,18.56066,13.93934Q18.61277,13.991447,18.65952,14.04841Q18.70626,14.105373,18.7472,14.166645Q18.78814,14.227916,18.82288,14.292905Q18.85762,14.357894,18.88582,14.425975Q18.91402,14.494056,18.93541,14.56457Q18.9568,14.63509,18.97118,14.70736Q18.98555,14.77964,18.99278,14.85297Q19,14.92631,19,15Z" fill="#333333" fill-opacity="1"/></g><g><path d="M3.76028,19.25L3.5,19.25Q2.5680199999999997,19.25,1.9090135,18.591Q1.25,17.932000000000002,1.25,17L1.25,12.35485Q1.25,11.28919,1.810403,10.38279Q2.37082,9.47636,3.32415,9.00015L3.34984,8.98731L4.42483,4.37571Q4.64248,3.442031,5.3933800000000005,2.84602Q6.14429,2.25,7.103,2.25L16.9471,2.25Q17.913,2.25,18.6668,2.853976Q19.4205,3.457974,19.631,4.40064L20.6558,8.989329999999999L20.6771,8.99996Q21.6299,9.47643,22.19,10.38259Q22.75,11.28878,22.75,12.35405L22.75,17Q22.75,17.932000000000002,22.091,18.591Q21.432,19.25,20.5,19.25L20.2415,19.25Q20.1616,20.229,19.4456,20.9447Q18.6398,21.75,17.500799999999998,21.75Q16.3617,21.75,15.556,20.9447Q14.8399,20.229,14.76,19.25L9.239989999999999,19.25Q9.1602,20.229,8.44459,20.9446Q7.63919,21.75,6.50015,21.75Q5.36112,21.75,4.5557,20.9446Q3.84007,20.229,3.76028,19.25ZM5.25027,18.5Q5.25026,18.426099999999998,5.23585,18.3537Q5.221439999999999,18.2812,5.19317,18.213Q5.16491,18.1447,5.12387,18.0833Q5.0828299999999995,18.021900000000002,5.0306,17.9697Q4.97836,17.9174,4.91694,17.8764Q4.85552,17.8354,4.78728,17.8071Q4.71903,17.7788,4.64658,17.764400000000002Q4.57413,17.75,4.50027,17.75L3.5,17.75Q3.18933,17.75,2.969668,17.5303Q2.75,17.3107,2.75,17L2.75,12.35485Q2.75,11.71545,3.08624,11.1716Q3.42249,10.62776,3.99445,10.34205L4.33547,10.171669999999999Q4.48522,10.09685,4.5889500000000005,9.96545Q4.69268,9.834050000000001,4.7306799999999996,9.671009999999999L5.88567,4.7162299999999995Q5.9846,4.29183,6.32592,4.02091Q6.66724,3.75,7.103,3.75L16.9471,3.75Q17.386200000000002,3.75,17.7288,4.02454Q18.0714,4.29907,18.1671,4.72752L19.2696,9.66422Q19.3065,9.82934,19.4107,9.96264Q19.5148,10.09593,19.6662,10.17159L20.0063,10.34164Q20.5779,10.62748,20.914,11.17118Q21.25,11.71489,21.25,12.35405L21.25,17Q21.25,17.3107,21.0303,17.5303Q20.8107,17.75,20.5,17.75L19.5016,17.75Q19.4277,17.75,19.3552,17.764400000000002Q19.2828,17.7788,19.2145,17.8071Q19.1463,17.8354,19.0849,17.8764Q19.0235,17.9174,18.9712,17.9697Q18.919,18.021900000000002,18.8779,18.0833Q18.8369,18.1447,18.8086,18.213Q18.7804,18.2812,18.766,18.3537Q18.7515,18.426099999999998,18.7516,18.5L18.7516,19Q18.7516,19.5176,18.3852,19.8837Q18.0187,20.25,17.500799999999998,20.25Q16.982799999999997,20.25,16.6164,19.8837Q16.25,19.5176,16.25,19L16.25,18.5Q16.25,18.426099999999998,16.235599999999998,18.3537Q16.2212,18.2812,16.1929,18.213Q16.1646,18.1447,16.1236,18.0833Q16.0826,18.021900000000002,16.0303,17.9697Q15.9781,17.9174,15.9167,17.8764Q15.8553,17.8354,15.787,17.8071Q15.7188,17.7788,15.6463,17.764400000000002Q15.5739,17.75,15.5,17.75L8.5,17.75Q8.42613,17.75,8.35368,17.764400000000002Q8.28123,17.7788,8.21299,17.8071Q8.144739999999999,17.8354,8.08332,17.8764Q8.021899999999999,17.9174,7.96967,17.9697Q7.91744,18.021900000000002,7.8764,18.0833Q7.83536,18.1447,7.80709,18.213Q7.77882,18.2812,7.76441,18.3537Q7.75,18.426099999999998,7.75,18.5L7.75,19.0002Q7.75,19.5179,7.38393,19.8839Q7.01787,20.25,6.50015,20.25Q5.98243,20.25,5.61634,19.8839Q5.25027,19.5179,5.25027,19.0002L5.25027,18.5Z" fill-rule="evenodd" fill="#333333" fill-opacity="1"/></g><g><path d="M7.707126,6.134939Q7.227289,6.5198646,7.0938604,7.12035L7.0938542,7.120378L6.26786,10.837299999999999Q6.235497,10.98293,6.261329,11.12986Q6.28716,11.27679,6.367253,11.402650000000001Q6.447346,11.52852,6.569507,11.61415Q6.691668,11.69978,6.8373,11.732140000000001Q6.9176697,11.75,7,11.75L17,11.75Q17.073900000000002,11.75,17.1463,11.73559Q17.2188,11.72118,17.287,11.692910000000001Q17.3553,11.66464,17.4167,11.6236Q17.478099999999998,11.58256,17.5303,11.53033Q17.5826,11.478100000000001,17.6236,11.41668Q17.6646,11.355260000000001,17.6929,11.28701Q17.7212,11.21877,17.735599999999998,11.14632Q17.75,11.07387,17.75,11Q17.75,10.917670000000001,17.732100000000003,10.837299999999999L16.90614,7.12035Q16.77272,6.5198736,16.29287,6.134939Q15.81302,5.75,15.19785,5.75L8.80215,5.75Q8.18698,5.75,7.707126,6.134939ZM7.934965,10.25L8.55814,7.44575L8.55815,7.445722Q8.60163,7.25,8.80215,7.25L15.19785,7.25Q15.39837,7.25,15.44186,7.44575L16.06504,10.25L7.934965,10.25Z" fill-rule="evenodd" fill="#333333" fill-opacity="1"/></g></g></g></svg>