<svg xmlns="http://www.w3.org/2000/svg" xmlns:xlink="http://www.w3.org/1999/xlink" fill="none" version="1.1" width="18" height="18" viewBox="0 0 18 18"><defs><clipPath id="master_svg0_8_436"><rect x="0" y="0" width="18" height="18" rx="0"/></clipPath></defs><g><g><g clip-path="url(#master_svg0_8_436)"><rect x="0" y="0" width="18" height="18" rx="0" fill="#FFFFFF" fill-opacity="0"/><g><g><path d="M14.6148,1.458029Q13.7166,0.5,11.25,0.5L6.75,0.5Q4.28338,0.5,3.385231,1.458029Q2.5,2.40228,2.5,5L2.5,13Q2.5,15.5977,3.3852320000000002,16.542Q4.28339,17.5,6.75,17.5L11.25,17.5Q13.7166,17.5,14.6148,16.542Q15.5,15.5977,15.5,13L15.5,5Q15.5,2.40228,14.6148,1.458029ZM6.75,1.5L11.25,1.5Q13.2834,1.5,13.8852,2.1419699999999997Q14.5,2.79772,14.5,5L14.5,13Q14.5,15.2023,13.8852,15.858Q13.2834,16.5,11.25,16.5L6.75,16.5Q4.71662,16.5,4.11477,15.858Q3.5,15.2023,3.5,13L3.5,5Q3.5,2.79772,4.11477,2.1419699999999997Q4.71662,1.5,6.75,1.5Z" fill-rule="evenodd" fill="#000000" fill-opacity="1"/></g><g><path d="M10.5,3.300048828125L7.5,3.300048828125Q7.4507543,3.300048828125,7.4024549,3.309655828125Q7.354155,3.319263828125,7.308658,3.3381088281249998Q7.263161,3.356954828125,7.222215,3.384313828125Q7.181269,3.411673828125,7.146447,3.446495828125Q7.111625,3.481317828125,7.084265,3.522263828125Q7.056906,3.563209828125,7.03806,3.608706828125Q7.019215,3.654203828125,7.009607,3.702503728125Q7,3.750803128125,7,3.800048828125Q7,3.849294528125,7.009607,3.897593928125Q7.019215,3.945893828125,7.03806,3.991390828125Q7.056906,4.036887828125,7.084265,4.077833828125Q7.111625,4.118779828125,7.146447,4.153601828125Q7.181269,4.188423828125,7.222215,4.215783828125Q7.263161,4.243142828125,7.308658,4.261988828125Q7.354155,4.280833828125,7.4024549,4.290441828125Q7.4507543,4.300048828125,7.5,4.300048828125L10.5,4.300048828125Q10.54925,4.300048828125,10.59754,4.290441828125Q10.64584,4.280833828125,10.69134,4.261988828125Q10.73684,4.243142828125,10.77778,4.215783828125Q10.81873,4.188423828125,10.85355,4.153601828125Q10.88837,4.118779828125,10.91573,4.077833828125Q10.94309,4.036887828125,10.96194,3.991390828125Q10.98078,3.945893828125,10.99039,3.897593928125Q11,3.849294528125,11,3.800048828125Q11,3.750803128125,10.99039,3.702503728125Q10.98078,3.654203828125,10.96194,3.608706828125Q10.94309,3.563209828125,10.91573,3.522263828125Q10.88837,3.481317828125,10.85355,3.446495828125Q10.81873,3.411673828125,10.77778,3.384313828125Q10.73684,3.356954828125,10.69134,3.3381088281249998Q10.64584,3.319263828125,10.59754,3.309655828125Q10.54925,3.300048828125,10.5,3.300048828125Z" fill-rule="evenodd" fill="#000000" fill-opacity="1"/></g><g><path d="M10.186779618530274,12.221167771875Q9.698139618530274,11.699951171875,8.999999618530273,11.699951171875Q8.301860618530274,11.699951171875,7.813219618530273,12.221167671875Q7.337499618530273,12.728602171875,7.337499618530273,13.439951171875Q7.337499618530273,14.151301171875,7.813219318530273,14.658731171875Q8.301860618530274,15.179951171875,8.999999618530273,15.179951171875Q9.698139618530274,15.179951171875,10.186779618530274,14.658731171875Q10.662499618530273,14.151301171875,10.662499618530273,13.439951171875Q10.662499618530273,12.728602171875,10.186779618530274,12.221167771875ZM8.542756618530273,12.905109171875Q8.735092618530274,12.699951171875,8.999999618530273,12.699951171875Q9.264909618530274,12.699951171875,9.457239618530274,12.905109171875Q9.662499618530273,13.124050171875,9.662499618530273,13.439951171875Q9.662499618530273,13.755851171875,9.457239618530274,13.974791171875Q9.264909618530274,14.179951171875,8.999999618530273,14.179951171875Q8.735092618530274,14.179951171875,8.542756618530273,13.974791171875Q8.337499618530273,13.755851171875,8.337499618530273,13.439951171875Q8.337499618530273,13.124049171875,8.542756618530273,12.905109171875Z" fill-rule="evenodd" fill="#000000" fill-opacity="1"/></g></g></g></g></g></svg>