<svg xmlns="http://www.w3.org/2000/svg" xmlns:xlink="http://www.w3.org/1999/xlink" fill="none" version="1.1" width="28" height="28" viewBox="0 0 28 28"><g><g><rect x="0" y="0" width="28" height="28" rx="0" fill="#FFFFFF" fill-opacity="0.009999999776482582"/></g><g><rect x="0" y="0" width="28" height="28" rx="0" fill="#FFFFFF" fill-opacity="0.009999999776482582"/></g><g><path d="M24.916633492279054,19.674675339889525L21.00003349227905,19.674675339889525Q20.926133492279053,19.674675339889525,20.85363349227905,19.689075339889527Q20.781233492279053,19.703475339889525,20.713033492279052,19.731675339889527Q20.64473349227905,19.759975339889525,20.583333492279053,19.801075339889525Q20.521933492279054,19.842075339889526,20.46963349227905,19.894275339889525Q20.417433492279052,19.946575339889527,20.37643349227905,20.007975339889526Q20.33533349227905,20.069375339889525,20.307133492279053,20.137575339889526Q20.278833492279052,20.205875339889527,20.264433492279053,20.278275339889525Q20.25003349227905,20.350775339889527,20.25003349227905,20.424675339889525Q20.25003349227905,20.498475339889527,20.264433492279053,20.570975339889525Q20.278833492279052,20.643375339889527,20.307133492279053,20.711675339889528Q20.33533349227905,20.779875339889525,20.37643349227905,20.841275339889528Q20.417433492279052,20.902775339889526,20.46963349227905,20.954975339889526Q20.521933492279054,21.007175339889525,20.583333492279053,21.048275339889525Q20.64473349227905,21.089275339889525,20.713033492279052,21.117575339889527Q20.781233492279053,21.145775339889525,20.85363349227905,21.160275339889527Q20.926133492279053,21.174675339889525,21.00003349227905,21.174675339889525L25.666633492279054,21.174675339889525Q25.740533492279052,21.174675339889525,25.812933492279054,21.160175339889527Q25.885433492279052,21.145775339889525,25.953633492279053,21.117575339889527Q26.021933492279054,21.089275339889525,26.083333492279053,21.048275339889525Q26.14473349227905,21.007175339889525,26.197033492279054,20.954975339889526Q26.249233492279053,20.902775339889526,26.290233492279054,20.841275339889528Q26.331333492279054,20.779875339889525,26.359533492279052,20.711675339889528Q26.387833492279054,20.643375339889527,26.402233492279052,20.570975339889525Q26.416633492279054,20.498475339889527,26.416633492279054,20.424675339889525L26.416633492279054,4.674095339889527Q26.416633492279054,3.8803073398895265,25.85513349227905,3.3190713398895264Q25.293833492279052,2.7579753398895264,24.50003349227905,2.7579753398895264L3.5000034922790526,2.7579753398895264Q2.706193492279053,2.7579753398895264,2.144836492279053,3.3190693398895266Q1.5833334922790527,3.8803083398895266,1.5833334922790527,4.674095339889527L1.5833334922790527,20.424675339889525Q1.5833334922790527,20.498475339889527,1.5977444922790527,20.570975339889525Q1.6121554922790526,20.643375339889527,1.6404234922790528,20.711675339889528Q1.6686924922790527,20.779875339889525,1.7097314922790527,20.841275339889528Q1.7507704922790528,20.902775339889526,1.8030034922790528,20.954975339889526Q1.8552364922790527,21.007175339889525,1.9166554922790526,21.048275339889525Q1.9780754922790527,21.089275339889525,2.0463204922790528,21.117575339889527Q2.1145664922790526,21.145775339889525,2.187015492279053,21.160275339889527Q2.2594649922790526,21.174675339889525,2.3333334922790527,21.174675339889525L7.000003492279053,21.174675339889525Q7.073873492279053,21.174675339889525,7.146313492279052,21.160175339889527Q7.218763492279053,21.145775339889525,7.287013492279053,21.117575339889527Q7.3552534922790525,21.089275339889525,7.4166734922790525,21.048275339889525Q7.4780934922790525,21.007175339889525,7.530333492279053,20.954975339889526Q7.582563492279053,20.902775339889526,7.623603492279052,20.841275339889528Q7.664643492279053,20.779875339889525,7.692913492279053,20.711675339889528Q7.7211734922790525,20.643375339889527,7.735593492279053,20.570975339889525Q7.750003492279053,20.498475339889527,7.750003492279053,20.424675339889525Q7.750003492279053,20.350775339889527,7.735593492279053,20.278275339889525Q7.7211734922790525,20.205875339889527,7.692913492279053,20.137575339889526Q7.664643492279053,20.069375339889525,7.623603492279052,20.007975339889526Q7.582563492279053,19.946575339889527,7.530333492279053,19.894275339889525Q7.4780934922790525,19.842075339889526,7.4166734922790525,19.801075339889525Q7.3552534922790525,19.759975339889525,7.287013492279053,19.731675339889527Q7.218763492279053,19.703475339889525,7.146313492279052,19.689075339889527Q7.073873492279053,19.674675339889525,7.000003492279053,19.674675339889525L3.0833334922790527,19.674675339889525L3.0833334922790527,4.674095339889527Q3.0833334922790527,4.501835339889526,3.2052474922790526,4.379978339889527Q3.327307492279053,4.257975339889526,3.5000034922790526,4.257975339889526L24.50003349227905,4.257975339889526Q24.672733492279054,4.257975339889526,24.794733492279054,4.379975339889526Q24.916633492279054,4.501831339889526,24.916633492279054,4.674095339889527L24.916633492279054,19.674675339889525Z" fill-rule="evenodd" fill="#0C0507" fill-opacity="1"/></g><g><path d="M20.583366984558104,24.499997938232422Q20.583366984558104,24.35081793823242,20.526266984558106,24.212987938232423Q20.469166984558107,24.075157938232422,20.363666984558105,23.969667938232423L14.530326984558105,18.136337938232423Q14.478096984558105,18.08410493823242,14.416676984558105,18.043065938232424Q14.355256984558105,18.002026938232422,14.287006984558104,17.97375793823242Q14.218766984558105,17.945489938232424,14.146316984558105,17.93107893823242Q14.073866984558105,17.916667938232422,13.999996984558106,17.916667938232422Q13.926126984558106,17.916667938232422,13.853686984558106,17.93107893823242Q13.781236984558106,17.945489938232424,13.712986984558105,17.97375793823242Q13.644746984558106,18.002026938232422,13.583326984558106,18.043065938232424Q13.521906984558106,18.08410493823242,13.469666984558106,18.136337938232423L7.636336984558105,23.969667938232423Q7.584103984558105,24.021907938232424,7.5430649845581055,24.083327938232422Q7.502025984558106,24.14474793823242,7.473756984558105,24.212987938232423Q7.445488984558105,24.281237938232422,7.431077984558105,24.353677938232423Q7.4166669845581055,24.426127938232423,7.4166669845581055,24.499997938232422Q7.4166669845581055,24.57386793823242,7.431077984558105,24.64631793823242Q7.445488984558105,24.71876793823242,7.473756984558105,24.78700793823242Q7.502025984558106,24.85525793823242,7.5430649845581055,24.91667793823242Q7.584103984558105,24.978097938232423,7.636336984558105,25.03032793823242Q7.741825984558106,25.13581793823242,7.8796539845581055,25.192907938232423Q8.017482984558105,25.249997938232422,8.166666984558105,25.249997938232422L19.833366984558104,25.249997938232422Q19.907166984558106,25.249997938232422,19.979666984558108,25.23558793823242Q20.052066984558106,25.221177938232422,20.120366984558103,25.192907938232423Q20.188566984558108,25.16463793823242,20.249966984558107,25.12360793823242Q20.311466984558106,25.082567938232422,20.363666984558105,25.03032793823242Q20.415866984558107,24.978097938232423,20.456966984558107,24.91667793823242Q20.497966984558104,24.85525793823242,20.526266984558106,24.787017938232424Q20.554466984558104,24.71876793823242,20.568966984558106,24.64631793823242Q20.583366984558104,24.57386793823242,20.583366984558104,24.499997938232422ZM18.022676984558103,23.749997938232422L13.999996984558106,19.72732793823242L9.977326984558106,23.749997938232422L18.022676984558103,23.749997938232422Z" fill-rule="evenodd" fill="#0C0507" fill-opacity="1"/></g></g></svg>