<svg xmlns="http://www.w3.org/2000/svg" xmlns:xlink="http://www.w3.org/1999/xlink" fill="none" version="1.1" width="24" height="24" viewBox="0 0 24 24"><defs><clipPath id="master_svg0_112_10110"><rect x="0" y="0" width="24" height="24" rx="0"/></clipPath></defs><g clip-path="url(#master_svg0_112_10110)"><g><path d="M15.25,9.198080000000001L15.25,14Q15.25,14.07387,15.26441,14.14632Q15.27882,14.21877,15.307089999999999,14.28701Q15.33536,14.355260000000001,15.3764,14.41668Q15.41744,14.478100000000001,15.46967,14.53033Q15.521899999999999,14.58256,15.58332,14.6236Q15.644739999999999,14.66464,15.71299,14.692910000000001Q15.78123,14.72118,15.85368,14.73559Q15.92613,14.75,16,14.75Q16.07387,14.75,16.14632,14.73559Q16.21877,14.72118,16.287010000000002,14.692910000000001Q16.35526,14.66464,16.41668,14.6236Q16.478099999999998,14.58256,16.53033,14.53033Q16.58256,14.478100000000001,16.6236,14.41668Q16.66464,14.355260000000001,16.692909999999998,14.28701Q16.72118,14.21877,16.735590000000002,14.14632Q16.75,14.07387,16.75,14L16.75,9.198080000000001Q16.75,7.929532,15.400179999999999,7.0779456Q14.08783,6.25,12,6.25Q9.91216,6.25,8.599817999999999,7.0779458Q7.25,7.929532,7.25,9.198080000000001L7.25,14Q7.25,14.07387,7.264411,14.14632Q7.278822,14.21877,7.30709,14.28701Q7.335359,14.355260000000001,7.376398,14.41668Q7.417437,14.478100000000001,7.46967,14.53033Q7.521903,14.58256,7.583322,14.6236Q7.644742,14.66464,7.712987,14.692910000000001Q7.781233,14.72118,7.853682,14.73559Q7.9261315,14.75,8,14.75Q8.0738685,14.75,8.146318,14.73559Q8.218767,14.72118,8.287013,14.692910000000001Q8.355258,14.66464,8.416678,14.6236Q8.478097,14.58256,8.53033,14.53033Q8.582563,14.478100000000001,8.623602,14.41668Q8.664641,14.355260000000001,8.69291,14.28701Q8.721178,14.21877,8.735589000000001,14.14632Q8.75,14.07387,8.75,14L8.75,9.198080000000001Q8.75,8.75677,9.40018,8.34657Q10.345790000000001,7.75,12,7.75Q13.654209999999999,7.75,14.599820000000001,8.34657Q15.25,8.75677,15.25,9.198080000000001Z" fill-rule="evenodd" fill="#333333" fill-opacity="1"/></g><g><path d="M6.25,14L6.25,17Q6.25,17.07387,6.264411,17.14632Q6.278822,17.21877,6.30709,17.28701Q6.335359,17.35526,6.376398,17.41668Q6.417437,17.4781,6.46967,17.53033Q6.521903,17.58256,6.583322,17.6236Q6.644742,17.66464,6.712987,17.69291Q6.781233,17.72118,6.853682,17.735590000000002Q6.9261315,17.75,7,17.75L17,17.75Q17.073900000000002,17.75,17.1463,17.735590000000002Q17.2188,17.72118,17.287,17.69291Q17.3553,17.66464,17.4167,17.6236Q17.478099999999998,17.58256,17.5303,17.53033Q17.5826,17.4781,17.6236,17.41668Q17.6646,17.35526,17.6929,17.28701Q17.7212,17.21877,17.735599999999998,17.14632Q17.75,17.07387,17.75,17L17.75,14Q17.75,13.9261315,17.735599999999998,13.853682Q17.7212,13.781233,17.6929,13.712987Q17.6646,13.644742,17.6236,13.583322Q17.5826,13.521903,17.5303,13.46967Q17.478099999999998,13.417437,17.4167,13.376398Q17.3553,13.335359,17.287,13.30709Q17.2188,13.278822,17.1463,13.264410999999999Q17.073900000000002,13.25,17,13.25L7,13.25Q6.9261315,13.25,6.853682,13.264410999999999Q6.781233,13.278822,6.712987,13.30709Q6.644742,13.335359,6.583322,13.376398Q6.521903,13.417437,6.46967,13.46967Q6.417437,13.521903,6.376398,13.583322Q6.335359,13.644742,6.30709,13.712987Q6.278822,13.781233,6.264411,13.853682Q6.25,13.9261315,6.25,14ZM7.75,16.25L7.75,14.75L16.25,14.75L16.25,16.25L7.75,16.25Z" fill-rule="evenodd" fill="#333333" fill-opacity="1"/></g><g><path d="M10,4.75L14,4.75Q14.07387,4.75,14.14632,4.735589Q14.21877,4.721178,14.28701,4.69291Q14.355260000000001,4.664641,14.41668,4.623602Q14.478100000000001,4.582563,14.53033,4.53033Q14.58256,4.478097,14.6236,4.416678Q14.66464,4.355258,14.692910000000001,4.287013Q14.72118,4.218767,14.73559,4.146318Q14.75,4.0738685,14.75,4Q14.75,3.9261315,14.73559,3.853682Q14.72118,3.781233,14.692910000000001,3.712987Q14.66464,3.644742,14.6236,3.583322Q14.58256,3.521903,14.53033,3.46967Q14.478100000000001,3.417437,14.41668,3.376398Q14.355260000000001,3.335359,14.28701,3.30709Q14.21877,3.278822,14.14632,3.264411Q14.07387,3.25,14,3.25L10,3.25Q9.9261315,3.25,9.853682,3.264411Q9.781233,3.278822,9.712987,3.30709Q9.644742,3.335359,9.583322,3.376398Q9.521903,3.417437,9.46967,3.46967Q9.417437,3.521903,9.376398,3.583322Q9.335359,3.644742,9.30709,3.712987Q9.278822,3.781233,9.264410999999999,3.853682Q9.25,3.9261315,9.25,4Q9.25,4.0738685,9.264410999999999,4.146318Q9.278822,4.218767,9.30709,4.287013Q9.335359,4.355258,9.376398,4.416678Q9.417437,4.478097,9.46967,4.53033Q9.521903,4.582563,9.583322,4.623602Q9.644742,4.664641,9.712987,4.69291Q9.781233,4.721178,9.853682,4.735589Q9.9261315,4.75,10,4.75Z" fill-rule="evenodd" fill="#333333" fill-opacity="1"/></g><g><path d="M19.75,14L19.75,10Q19.75,9.9261315,19.735599999999998,9.853682Q19.7212,9.781233,19.6929,9.712987Q19.6646,9.644742,19.6236,9.583322Q19.5826,9.521903,19.5303,9.46967Q19.478099999999998,9.417437,19.4167,9.376398Q19.3553,9.335359,19.287,9.30709Q19.2188,9.278822,19.1463,9.264410999999999Q19.073900000000002,9.25,19,9.25Q18.926099999999998,9.25,18.8537,9.264410999999999Q18.7812,9.278822,18.713,9.30709Q18.6447,9.335359,18.5833,9.376398Q18.521900000000002,9.417437,18.4697,9.46967Q18.4174,9.521903,18.3764,9.583322Q18.3354,9.644742,18.3071,9.712987Q18.2788,9.781233,18.264400000000002,9.853682Q18.25,9.9261315,18.25,10L18.25,13.25L5.75,13.25L5.75,10Q5.75,9.9261315,5.735589,9.853682Q5.721178,9.781233,5.69291,9.712987Q5.664641,9.644742,5.623602,9.583322Q5.582563,9.521903,5.53033,9.46967Q5.478097,9.417437,5.416678,9.376398Q5.355258,9.335359,5.287013,9.30709Q5.218767,9.278822,5.146318,9.264410999999999Q5.0738685,9.25,5,9.25Q4.9261315,9.25,4.853682,9.264410999999999Q4.781233,9.278822,4.712987,9.30709Q4.644742,9.335359,4.583322,9.376398Q4.521903,9.417437,4.46967,9.46967Q4.417437,9.521903,4.376398,9.583322Q4.335359,9.644742,4.30709,9.712987Q4.278822,9.781233,4.264411,9.853682Q4.25,9.9261315,4.25,10L4.25,14Q4.25,14.07387,4.264411,14.14632Q4.278822,14.21877,4.30709,14.28701Q4.335359,14.355260000000001,4.376398,14.41668Q4.417437,14.478100000000001,4.46967,14.53033Q4.521903,14.58256,4.583322,14.6236Q4.644742,14.66464,4.712987,14.692910000000001Q4.781233,14.72118,4.853682,14.73559Q4.9261315,14.75,5,14.75L19,14.75Q19.073900000000002,14.75,19.1463,14.73559Q19.2188,14.72118,19.287,14.692910000000001Q19.3553,14.66464,19.4167,14.6236Q19.478099999999998,14.58256,19.5303,14.53033Q19.5826,14.478100000000001,19.6236,14.41668Q19.6646,14.355260000000001,19.6929,14.28701Q19.7212,14.21877,19.735599999999998,14.14632Q19.75,14.07387,19.75,14Z" fill-rule="evenodd" fill="#333333" fill-opacity="1"/></g><g><path d="M9,21.75L15,21.75Q15.07387,21.75,15.14632,21.735589Q15.21877,21.721178,15.28701,21.69291Q15.355260000000001,21.664641,15.41668,21.623601999999998Q15.478100000000001,21.582563,15.53033,21.53033Q15.58256,21.478096999999998,15.6236,21.416678Q15.66464,21.355258,15.692910000000001,21.287013Q15.72118,21.218767,15.73559,21.146318Q15.75,21.0738685,15.75,21Q15.75,20.9261315,15.73559,20.853682Q15.72118,20.781233,15.692910000000001,20.712987Q15.66464,20.644742,15.6236,20.583322Q15.58256,20.521903000000002,15.53033,20.46967Q15.478100000000001,20.417437,15.41668,20.376398000000002Q15.355260000000001,20.335359,15.28701,20.30709Q15.21877,20.278822,15.14632,20.264411Q15.07387,20.25,15,20.25L9,20.25Q8.9261315,20.25,8.853682,20.264411Q8.781233,20.278822,8.712987,20.30709Q8.644742,20.335359,8.583322,20.376398000000002Q8.521903,20.417437,8.46967,20.46967Q8.417437,20.521903000000002,8.376398,20.583322Q8.335359,20.644742,8.30709,20.712987Q8.278822,20.781233,8.264410999999999,20.853682Q8.25,20.9261315,8.25,21Q8.25,21.0738685,8.264410999999999,21.146318Q8.278822,21.218767,8.30709,21.287013Q8.335359,21.355258,8.376398,21.416678Q8.417437,21.478096999999998,8.46967,21.53033Q8.521903,21.582563,8.583322,21.623601999999998Q8.644742,21.664641,8.712987,21.69291Q8.781233,21.721178,8.853682,21.735589Q8.9261315,21.75,9,21.75Z" fill-rule="evenodd" fill="#333333" fill-opacity="1"/></g><g><path d="M11.25,17L11.25,21Q11.25,21.07387,11.264410999999999,21.14632Q11.278822,21.21877,11.30709,21.287010000000002Q11.335359,21.35526,11.376398,21.41668Q11.417437,21.4781,11.46967,21.53033Q11.521903,21.58256,11.583322,21.6236Q11.644742,21.66464,11.712987,21.69291Q11.781233,21.72118,11.853682,21.735590000000002Q11.9261315,21.75,12,21.75Q12.0738685,21.75,12.146318,21.735590000000002Q12.218767,21.72118,12.287013,21.69291Q12.355258,21.66464,12.416678,21.6236Q12.478097,21.58256,12.53033,21.53033Q12.582563,21.4781,12.623602,21.41668Q12.664641,21.35526,12.69291,21.287010000000002Q12.721178,21.21877,12.735589000000001,21.14632Q12.75,21.07387,12.75,21L12.75,17Q12.75,16.9261315,12.735589000000001,16.853682Q12.721178,16.781233,12.69291,16.712987Q12.664641,16.644742,12.623602,16.583322Q12.582563,16.521903000000002,12.53033,16.46967Q12.478097,16.417437,12.416678,16.376398000000002Q12.355258,16.335359,12.287013,16.30709Q12.218767,16.278822,12.146318,16.264411Q12.0738685,16.25,12,16.25Q11.9261315,16.25,11.853682,16.264411Q11.781233,16.278822,11.712987,16.30709Q11.644742,16.335359,11.583322,16.376398000000002Q11.521903,16.417437,11.46967,16.46967Q11.417437,16.521903000000002,11.376398,16.583322Q11.335359,16.644742,11.30709,16.712987Q11.278822,16.781233,11.264410999999999,16.853682Q11.25,16.9261315,11.25,17Z" fill-rule="evenodd" fill="#333333" fill-opacity="1"/></g><g><path d="M11.25,4L11.25,7Q11.25,7.073869999999999,11.264410999999999,7.146319999999999Q11.278822,7.21877,11.30709,7.28701Q11.335359,7.3552599999999995,11.376398,7.4166799999999995Q11.417437,7.4780999999999995,11.46967,7.53033Q11.521903,7.58256,11.583322,7.6236Q11.644742,7.66464,11.712987,7.6929099999999995Q11.781233,7.72118,11.853682,7.73559Q11.9261315,7.75,12,7.75Q12.0738685,7.75,12.146318,7.73559Q12.218767,7.72118,12.287013,7.6929099999999995Q12.355258,7.66464,12.416678,7.6236Q12.478097,7.58256,12.53033,7.53033Q12.582563,7.4780999999999995,12.623602,7.4166799999999995Q12.664641,7.3552599999999995,12.69291,7.28701Q12.721178,7.21877,12.735589000000001,7.146319999999999Q12.75,7.073869999999999,12.75,7L12.75,4Q12.75,3.9261315,12.735589000000001,3.853682Q12.721178,3.781233,12.69291,3.712987Q12.664641,3.644742,12.623602,3.583322Q12.582563,3.521903,12.53033,3.46967Q12.478097,3.417437,12.416678,3.376398Q12.355258,3.335359,12.287013,3.30709Q12.218767,3.278822,12.146318,3.264411Q12.0738685,3.25,12,3.25Q11.9261315,3.25,11.853682,3.264411Q11.781233,3.278822,11.712987,3.30709Q11.644742,3.335359,11.583322,3.376398Q11.521903,3.417437,11.46967,3.46967Q11.417437,3.521903,11.376398,3.583322Q11.335359,3.644742,11.30709,3.712987Q11.278822,3.781233,11.264410999999999,3.853682Q11.25,3.9261315,11.25,4Z" fill-rule="evenodd" fill="#333333" fill-opacity="1"/></g></g></svg>