<svg xmlns="http://www.w3.org/2000/svg" xmlns:xlink="http://www.w3.org/1999/xlink" fill="none" version="1.1" width="24" height="24" viewBox="0 0 24 24"><defs><clipPath id="master_svg0_112_04500"><rect x="0" y="0" width="24" height="24" rx="0"/></clipPath></defs><g><g clip-path="url(#master_svg0_112_04500)"><g><path d="M11.477110625,12.71867625L10.005000625000001,12.71867625L11.238280625,11.11859625C11.448280624999999,10.84601625,11.397660625,10.454606250000001,11.125080624999999,10.24437625C10.852500625000001,10.034376250000001,10.461090625,10.084766250000001,10.250860625,10.357346249999999L8.244140625,12.96124625C8.099140625,13.14940625,8.073690625,13.40362625,8.178520625,13.61679625C8.283400625,13.82987625,8.500250625,13.96484625,8.737730625000001,13.96484625L10.305940625,13.96484625L9.031640625,15.85670625C8.839450625,16.14220625,8.914920625,16.52960625,9.200390625,16.72180625C9.307260625,16.79370625,9.428200625,16.82820625,9.547970625,16.82820625C9.748360625,16.82800625,9.945000625,16.73160625,10.065470625,16.55300625L11.994140625,13.68968625C12.122810625,13.49867625,12.135700625,13.25210625,12.027420625000001,13.04890625C11.919140625,12.84570625,11.707500625,12.71867625,11.477110625,12.71867625ZM13.597730625,4.19140625L6.617343625,4.19140625C6.273281625,4.19140625,5.994140625,4.47031225,5.994140625,4.81460925L5.994140625,7.93085625C5.994140625,8.27515625,6.273281625,8.55406625,6.617343625,8.55406625L13.597500625,8.55406625C13.941560625000001,8.55406625,14.220700625,8.27515625,14.220700625,7.93085625L14.220700625,4.81484325C14.220940625,4.47054725,13.941800624999999,4.19140625,13.597730625,4.19140625ZM12.974530625,7.30765625L7.240780625,7.30765625L7.240780625,5.43804625L12.974530625,5.43804625L12.974530625,7.30765625Z" fill="#333333" fill-opacity="1"/><path d="M14.320700625,4.81491225L14.320700625,4.81484325Q14.320880625,4.51525525,14.109060625,4.30332125Q13.897250625,4.09140625,13.597730625,4.09140625L6.617343625,4.09140625Q6.317842625,4.09140625,6.106017625,4.30317625Q5.894140625,4.51499825,5.894140625,4.81460925L5.894140625,7.93085625Q5.894140625,8.23046625,6.106017625,8.44229625Q6.317842625,8.65406625,6.617343625,8.65406625L13.597500625,8.65406625Q13.897000625,8.65406625,14.108830625,8.44229625Q14.320700625,8.23046625,14.320700625,7.93085625L14.320700625,4.81491225ZM13.967600625,4.44470625Q14.120850625,4.59803525,14.120700625,4.81477525L14.120700625,7.93085625Q14.120700625,8.14761625,13.967420624999999,8.300856249999999Q13.814170625,8.45406625,13.597500625,8.45406625L6.617343625,8.45406625Q6.400669625,8.45406625,6.247420625,8.300856249999999Q6.094140625,8.14761625,6.094140625,7.93085625L6.094140625,4.81460925Q6.094140625,4.5978562499999995,6.247420625,4.44461625Q6.400670625,4.29140625,6.617343625,4.29140625L13.597730625,4.29140625Q13.814380625,4.29140625,13.967600625,4.44470625ZM13.074530625000001,7.4076562500000005L13.074530625000001,5.33804625L7.140780625,5.33804625L7.140780625,7.4076562500000005L13.074530625000001,7.4076562500000005ZM12.874530625,5.53804625L12.874530625,7.207656249999999L7.340780625,7.207656249999999L7.340780625,5.53804625L12.874530625,5.53804625ZM12.077080625,13.74555625Q12.319880625,13.38510625,12.115670625,13.00187625Q11.911470625,12.61866625,11.477110625,12.61867625L10.208330625,12.61867625L11.317480625,11.17963625Q11.500280625,10.942376249999999,11.461820625,10.645266249999999Q11.423360625,10.34814625,11.186150625,10.16518625Q10.948850625,9.98237625,10.651790625,10.02071625Q10.354620624999999,10.05906625,10.171670625,10.29626625L8.164930625,12.90020625Q7.8900806249999995,13.25686625,8.088780625,13.66092625Q8.287590625,14.06484625,8.737730625000001,14.06484625L10.118010625,14.06484625L8.948700625,15.80080625Q8.781410625,16.04930625,8.838740625,16.34340625Q8.896090625,16.63750625,9.144540625,16.804706250000002Q9.327920625,16.928206250000002,9.547970625,16.928206250000002Q9.933340625,16.92770625,10.148370625,16.60900625L12.077080625,13.74555625ZM11.477110625,12.81867625Q11.791420625,12.81867625,11.939170625,13.09593625Q12.086850625,13.37306625,11.911200625,13.63382625L9.982570625000001,16.49710625Q9.826920625,16.72790625,9.547970625,16.72820625Q9.388970624999999,16.72820625,9.256240625,16.638806250000002Q9.076530625,16.51790625,9.035050625,16.30510625Q8.993560625,16.09230625,9.114580625,15.91260625L10.493860625,13.86484625L8.737730625000001,13.86484625Q8.412060625,13.86484625,8.268250625,13.57266625Q8.124490625,13.28032625,8.323350625,13.02228625L10.330040624999999,10.41841625Q10.462390625000001,10.24681625,10.677390625000001,10.219066250000001Q10.892360625,10.19132625,11.064000625,10.32355625Q11.235640625,10.45593625,11.263470625,10.67094625Q11.291300625,10.885916250000001,11.159080625,11.05754625L9.801670625,12.81867625L11.477110625,12.81867625Z" fill-rule="evenodd" fill="#333333" fill-opacity="1"/></g><g><path d="M21.6186828125,5.99663625L19.7357828125,3.51085625C19.5278828125,3.2361762499999998,19.1371828125,3.18226625,18.8626828125,3.3903862499999997C18.5882828125,3.59827625,18.5343828125,3.98898625,18.7421828125,4.26343625L20.4985828125,6.58234625L20.4985828125,15.45760625L19.4012828125,15.45760625L19.4012828125,9.081956250000001C19.4012828125,8.73765625,19.1221828125,8.45874625,18.7780828125,8.45874625L16.963082812499998,8.45874625L16.963082812499998,3.99226625C16.963082812499998,2.62023625,15.8321828125,1.50390625,14.4421828125,1.50390625L5.7728528125,1.50390625C4.3827728125,1.50390625,3.2519138125,2.62023625,3.2519138125,3.99226625L3.2519138125,19.25480625L2.8780858125,19.25480625C2.5337888125,19.25480625,2.2548828125,19.53370625,2.2548828125,19.87800625L2.2548828125,21.87230625C2.2548828125,22.21660625,2.5340238125,22.49550625,2.8780858125,22.49550625L17.3371828125,22.49550625C17.6814828125,22.49550625,17.9603828125,22.21660625,17.9603828125,21.87230625L17.9603828125,19.87800625C17.9603828125,19.53370625,17.681182812499998,19.25480625,17.3371828125,19.25480625L16.963282812499997,19.25480625L16.963282812499997,9.70538625L18.155082812499998,9.70538625L18.155082812499998,16.080906249999998C18.155082812499998,16.42510625,18.4342828125,16.704106250000002,18.7782828125,16.704106250000002L21.1218828125,16.704106250000002C21.4658828125,16.704106250000002,21.7450828125,16.42510625,21.7450828125,16.080906249999998L21.7450828125,6.37304625C21.7452828125,6.23710625,21.7007828125,6.10492625,21.6186828125,5.99663625ZM16.7136828125,21.24910625L3.5012928125,21.24910625L3.5012928125,20.50120625L16.7139828125,20.50120625L16.7139828125,21.24910625L16.7136828125,21.24910625ZM4.4983228125,19.25480625L4.4983228125,3.99226625C4.4983228125,3.30765625,5.0699628125,2.75031625,5.7728528125,2.75031625L14.4421828125,2.75031625C15.1450828125,2.75031625,15.7166828125,3.30742625,15.7166828125,3.99226625L15.7166828125,19.25480625L4.4983228125,19.25480625Z" fill="#333333" fill-opacity="1"/><path d="M21.8450828125,6.37321625L21.8450828125,6.37304625Q21.8453828125,6.13026625,21.6983828125,5.93625625L19.8154828125,3.45047625Q19.6345828125,3.21144625,19.3378828125,3.17050625Q19.0411828125,3.12956625,18.8022828125,3.31070625Q18.5634828125,3.4916062500000002,18.5224828125,3.78828625Q18.4815828125,4.08496625,18.6624828125,4.32381625L20.3985828125,6.61593625L20.3985828125,15.35760625L19.5012828125,15.35760625L19.5012828125,9.081956250000001Q19.5012828125,8.78233625,19.2893828125,8.57051625Q19.0775828125,8.35874625,18.7780828125,8.35874625L17.0630828125,8.35874625L17.0630828125,3.99226625Q17.0630828125,2.9214262499999997,16.2941828125,2.16240625Q15.5257828125,1.40390635,14.4421828125,1.40390625L5.7728528125,1.40390625Q4.6892628125,1.40390625,3.9208528124999997,2.16240625Q3.1519148125000003,2.9214262499999997,3.1519138125,3.99226625L3.1519138125,19.15480625L2.8780858125,19.15480625Q2.5784418125,19.15480625,2.3666618125,19.36650625Q2.1548828125,19.57830625,2.1548828125,19.87800625L2.1548828125,21.87230625Q2.1548828125,22.17190625,2.3667598125,22.38370625Q2.5785828125,22.59550625,2.8780858125,22.59550625L17.3371828125,22.59550625Q17.6367828125,22.59550625,17.8485828125,22.38370625Q18.060382812500002,22.17190625,18.060382812500002,21.87230625L18.060382812500002,19.87800625Q18.060382812500002,19.57840625,17.848482812500002,19.36650625Q17.6366828125,19.15480625,17.3371828125,19.15480625L17.0632828125,19.15480625L17.0632828125,9.80538625L18.0550828125,9.80538625L18.0550828125,16.080906249999998Q18.0550828125,16.38050625,18.2669828125,16.59230625Q18.4787828125,16.80410625,18.7782828125,16.80410625L21.1218828125,16.80410625Q21.4213828125,16.80410625,21.6331828125,16.59230625Q21.8450828125,16.38050625,21.8450828125,16.080906249999998L21.8450828125,6.37321625ZM21.5389828125,6.05702625Q21.6453828125,6.19739625,21.6450828125,6.37287625L21.6450828125,16.080906249999998Q21.6450828125,16.29760625,21.4917828125,16.45080625Q21.3384828125,16.60410625,21.1218828125,16.60410625L18.7782828125,16.60410625Q18.5616828125,16.60410625,18.4083828125,16.45080625Q18.2550828125,16.29760625,18.2550828125,16.080906249999998L18.2550828125,9.60538625L16.8632828125,9.60538625L16.8632828125,19.35480625L17.3371828125,19.35480625Q17.5537828125,19.35480625,17.707082812499998,19.50800625Q17.8603828125,19.66120625,17.8603828125,19.87800625L17.8603828125,21.87230625Q17.8603828125,22.08910625,17.7071828125,22.24230625Q17.5539828125,22.39550625,17.3371828125,22.39550625L2.8780858125,22.39550625Q2.6614118125,22.39550625,2.5081628125,22.24230625Q2.3548828125,22.08900625,2.3548828125,21.87230625L2.3548828125,19.87800625Q2.3548828125,19.66120625,2.5080838125,19.50800625Q2.6612848125,19.35480625,2.8780858125,19.35480625L3.3519128125,19.35480625L3.3519128125,3.99226625Q3.3519128125,3.0050262500000002,4.0613528125,2.30474225Q4.7713528125,1.60390625,5.7728528125,1.60390625L14.4421828125,1.60390625Q15.4436828125,1.60390615,16.1536828125,2.30474225Q16.8630828125,3.00503625,16.8630828125,3.99226625L16.8630828125,8.55874625L18.7780828125,8.55874625Q18.9947828125,8.55874625,19.1479828125,8.71195625Q19.3012828125,8.86519625,19.3012828125,9.081956250000001L19.3012828125,15.55770625L20.5986828125,15.55770625L20.5986828125,6.54874625L18.8219828125,4.2030562499999995Q18.6909828125,4.03023625,18.7206828125,3.81562625Q18.7502828125,3.60100625,18.9230828125,3.47006625Q19.0958828125,3.33902625,19.3104828125,3.3686362499999998Q19.5250828125,3.39823625,19.6559828125,3.57123625L21.5389828125,6.05702625ZM4.3983228125,19.35480625L15.8166828125,19.35480625L15.8166828125,3.99226625Q15.8166828125,3.43644625,15.4127828125,3.04285625Q15.0099828125,2.65031625,14.4421828125,2.65031625L5.7728528125,2.65031625Q5.2050728125,2.65031625,4.8022028125,3.04294625Q4.3983228125,3.43657625,4.3983228125,3.99226625L4.3983228125,19.35480625ZM15.6166828125,19.15480625L15.6166828125,3.99226625Q15.6166828125,3.52080625,15.2731828125,3.18608625Q14.9286828125,2.85031625,14.4421828125,2.85031625L5.7728528125,2.85031625Q5.2864128125,2.85031625,4.9417928125,3.18617625Q4.5983228125,3.52092625,4.5983228125,3.99226625L4.5983228125,19.15480625L15.6166828125,19.15480625ZM16.7136828125,21.24910625L16.7136828125,21.34910625L3.4012928125,21.34910625L3.4012928125,20.40120625L16.8139828125,20.40120625L16.8139828125,21.24910625L16.7136828125,21.24910625ZM16.613982812499998,21.14910625L16.613982812499998,20.60120625L3.6012928125,20.60120625L3.6012928125,21.14910625L16.613982812499998,21.14910625Z" fill-rule="evenodd" fill="#333333" fill-opacity="1"/></g></g></g></svg>