<svg xmlns="http://www.w3.org/2000/svg" xmlns:xlink="http://www.w3.org/1999/xlink" fill="none" version="1.1" width="18" height="18" viewBox="0 0 18 18"><g><path d="M9,0C11.5449,0.0668571,13.6646,0.947143,15.3583,2.64171C17.0529,4.33543,17.9331,6.45429,18,9C17.9331,11.5449,17.0529,13.6646,15.3583,15.3583C13.6646,17.0529,11.5457,17.9331,9,18C6.45514,17.9331,4.33543,17.0529,2.64171,15.3583C0.947143,13.6646,0.0668571,11.5457,0,9C0.0668571,6.45514,0.947143,4.33543,2.64171,2.64171C4.33543,0.947143,6.45429,0.0668571,9,0ZM7.87457,10.7683L5.886,8.77886C5.73761,8.6364,5.5397,8.55711,5.334,8.55771C5.12898,8.55681,4.93267,8.64054,4.79143,8.78914C4.64411,8.92665,4.56032,9.11905,4.56,9.32057C4.56086,9.522,4.63457,9.70286,4.78114,9.86314L7.33286,12.4149C7.47539,12.5604,7.67179,12.6404,7.87543,12.636C8.07907,12.6404,8.27546,12.5604,8.418,12.4149L13.7014,7.13143C13.9029,6.93,13.9671,6.68571,13.8926,6.39771C13.8347,6.1256,13.6221,5.91302,13.35,5.85514C13.062,5.78143,12.8177,5.84486,12.6171,6.04629L7.87543,10.7674L7.87457,10.7683Z" fill="#FFFFFF" fill-opacity="1"/></g></svg>