<svg xmlns="http://www.w3.org/2000/svg" xmlns:xlink="http://www.w3.org/1999/xlink" fill="none" version="1.1" width="10" height="10" viewBox="0 0 10 10"><g transform="matrix(0,1,-1,0,10,-10)"><g><path d="M14.06611333378601,1.3465061668930054L14.06605333378601,1.3464471668930054Q13.99572733378601,1.2761201668930053,13.903842333786011,1.2380601668930054Q13.811956533786011,1.2000001668930054,13.712500351243811,1.2000001668930054Q13.61304413378601,1.2000001668930054,13.52115833378601,1.2380601668930054Q13.42927333378601,1.2761201668930053,13.358947333786011,1.3464471668930054Q13.28862033378601,1.4167731668930053,13.25056033378601,1.5086581668930052Q13.21250033378601,1.6005439668930053,13.21250033378601,1.7000001668930054Q13.21250033378601,1.7994563668930055,13.25056033378601,1.8913421668930055Q13.28862033378601,1.9832271668930055,13.358947333786011,2.053553166893005L13.359006333786011,2.0536131668930055L16.07561033378601,4.770220166893005Q16.30539033378601,5.000000166893005,16.07561033378601,5.229780166893006L13.35910433378601,7.9462901668930055L13.358947333786011,7.946450166893006Q13.28862033378601,8.016770166893005,13.25056033378601,8.108660166893007Q13.21250033378601,8.200540166893006,13.21250033378601,8.300000166893005Q13.21250033378601,8.312020166893006,13.21307733378601,8.324020166893005Q13.217555333786011,8.417140166893006,13.25529133378601,8.502390166893004Q13.293026333786012,8.587630166893005,13.358947333786011,8.653550166893005Q13.42927333378601,8.723880166893005,13.52115833378601,8.761940166893005Q13.61304413378601,8.800000166893005,13.71250033378601,8.800000166893005Q13.811956533786011,8.800000166893005,13.903842333786011,8.761940166893005Q13.99572733378601,8.723880166893005,14.06605333378601,8.653550166893005L14.06621033378601,8.653400166893006L16.78272033378601,5.936890166893005Q17.16979033378601,5.549820166893005,17.16979033378601,5.000000166893005Q17.16979033378601,4.450190166893005,16.78272033378601,4.063110166893005L14.06611333378601,1.3465061668930054Z" fill-rule="evenodd" fill="#000000" fill-opacity="1"/></g><g transform="matrix(-1,-1.2246469849340659e-16,1.2246469849340659e-16,-1,40,20)" style="opacity:0;"><path d="M20,20L20,10L30,10L30,20L20,20ZM21,19L21,11L29,11L29,19L21,19Z" fill-rule="evenodd" fill="#000000" fill-opacity="1"/></g></g></svg>