<svg xmlns="http://www.w3.org/2000/svg" xmlns:xlink="http://www.w3.org/1999/xlink" fill="none" version="1.1" width="18" height="18" viewBox="0 0 18 18"><g><path d="M12.3575,0.156633L14.337,0.156633L14.337,9.65514L12.3575,9.65514L12.3575,0.156633ZM6.83906,9.81855C7.7488,9.85941,8.64855,9.67556,9.48832,9.30788L9.48832,7.44903C8.79851,7.85757,8.01873,8.07205,7.22895,8.06184C6.43917,8.10269,5.67938,7.78608,5.12953,7.21412C4.59968,6.5911,4.31976,5.78424,4.35975,4.96717C4.31976,4.10924,4.61968,3.28195,5.17952,2.6385C5.74936,2.03591,6.53914,1.70908,7.35891,1.74993C8.1087,1.73972,8.8485,1.93377,9.49832,2.31167L9.49832,0.360902C8.76852,0.105566,7.99874,-0.0169953,7.22895,0.0034316C5.89932,-0.0476356,4.60968,0.47325,3.66994,1.43331C2.7502,2.38316,2.29032,3.60878,2.29032,5.11015C2.27033,6.52982,2.67022,7.67373,3.49999,8.53166C4.31976,9.38959,5.43945,9.81855,6.83906,9.81855ZM17.3761,16.0692C17.1262,16.0079,11.1878,14.578,7.27893,16.0998C4.40973,17.2131,1.3006,15.201,1.25061,15.1704C1.21062,15.1398,1.17063,15.1091,1.13065,15.0887C0.750752,14.8844,0.29088,15.0274,0.0909352,15.4155C-0.109009,15.8036,0.0309519,16.2734,0.410846,16.4777C0.530813,16.5594,2.7402,17.9995,5.40946,17.9995C6.23922,18.0097,7.059,17.8565,7.82878,17.5706C11.2878,16.2224,16.9562,17.591,17.0162,17.6012C17.0362,17.6114,17.0562,17.6114,17.0762,17.6114C17.4961,17.6931,17.896,17.4174,17.986,16.9986C18.0659,16.5696,17.796,16.1611,17.3761,16.0692ZM0.410846,12.28C0.530813,12.3617,2.7402,13.8018,5.40945,13.8018C6.23922,13.812,7.059,13.6588,7.82878,13.3728C11.2878,12.0247,16.9562,13.3933,17.0162,13.4035C17.0362,13.4137,17.0562,13.4137,17.0762,13.4137C17.4961,13.4954,17.896,13.2196,17.986,12.8009C18.0659,12.3719,17.796,11.9634,17.3861,11.8715C17.1362,11.8102,11.1978,10.3803,7.28893,11.9021C4.41973,13.0154,1.3106,11.0033,1.26061,10.9727C1.22062,10.942,1.18063,10.9114,1.14065,10.891C0.760751,10.6867,0.300879,10.8297,0.100935,11.2178C-0.109007,11.6059,0.030954,12.0757,0.410846,12.28Z" fill="#333333" fill-opacity="1"/></g></svg>