<svg xmlns="http://www.w3.org/2000/svg" xmlns:xlink="http://www.w3.org/1999/xlink" fill="none" version="1.1" width="110" height="110" viewBox="0 0 110 110"><g><g><g><ellipse cx="55" cy="3" rx="3" ry="3" fill="#585D77" fill-opacity="0.5"/></g></g><g transform="matrix(0.8660253882408142,0.5,-0.5,0.8660253882408142,13.639089584117755,-39.16495416434191)"><g><ellipse cx="82.90234375" cy="8.868408203125" rx="3" ry="3" fill="#585D77" fill-opacity="0.5"/></g></g><g transform="matrix(0.4999999701976776,0.866025447845459,-0.866025447845459,0.4999999701976776,72.13107323594159,-75.13096930472238)"><g><ellipse cx="104.130859375" cy="27.90185546875" rx="3" ry="3" fill="#585D77" fill-opacity="0.5"/></g></g><g transform="matrix(0,1,-1,0,162,-58)"><g><ellipse cx="113" cy="55" rx="3" ry="3" fill="#585D77" fill-opacity="0.5"/></g></g><g transform="matrix(-0.5000000596046448,0.8660253882408142,-0.8660253882408142,-0.5000000596046448,225.39406309457263,29.672397183603607)"><g><ellipse cx="107.13134765625" cy="82.90185546875" rx="3" ry="3" fill="#585D77" fill-opacity="0.5"/></g></g><g transform="matrix(-0.8660253882408142,0.5000000596046448,-0.5000000596046448,-0.8660253882408142,209.36188918873086,146.16434079504688)"><g><ellipse cx="88.0986328125" cy="104.13134765625" rx="3" ry="3" fill="#585D77" fill-opacity="0.5"/></g></g><g transform="matrix(-1,0,0,-1,116,220)"><g><ellipse cx="61" cy="113" rx="3" ry="3" fill="#585D77" fill-opacity="0.5"/></g></g><g transform="matrix(-0.8660253882408142,-0.4999999701976776,0.4999999701976776,-0.8660253882408142,4.100053399903118,209.3612980881444)"><g><ellipse cx="33.09912109375" cy="107.13134765625" rx="3" ry="3" fill="#585D77" fill-opacity="0.5"/></g></g><g transform="matrix(-0.49999991059303284,-0.866025447845459,0.866025447845459,-0.49999991059303284,-60.39533629160724,135.3279973641329)"><g><ellipse cx="11.8681640625" cy="88.0986328125" rx="3" ry="3" fill="#585D77" fill-opacity="0.5"/></g></g><g transform="matrix(0,-1,1,0,-58,58)"><g><ellipse cx="3" cy="61" rx="3" ry="3" fill="#585D77" fill-opacity="0.5"/></g></g><g transform="matrix(0.49999991059303284,-0.866025447845459,0.866025447845459,0.49999991059303284,-23.13118825975107,20.131900094842422)"><g><ellipse cx="8.869140625" cy="33.09814453125" rx="3" ry="3" fill="#585D77" fill-opacity="0.5"/></g></g><g transform="matrix(0.8660253286361694,-0.5000001788139343,0.5000001788139343,0.8660253286361694,-1.0981098549382295,13.63910697036772)"><g><ellipse cx="27.90185546875" cy="11.86865234375" rx="3" ry="3" fill="#585D77" fill-opacity="0.5"/></g></g></g></svg>