<svg xmlns="http://www.w3.org/2000/svg" xmlns:xlink="http://www.w3.org/1999/xlink" fill="none" version="1.1" width="24" height="24" viewBox="0 0 24 24"><g><g transform="matrix(-1,0,0,-1,48,48)" style="opacity:0;"><path d="M24,24C24,24,48,24,48,24C48,24,48,48,48,48C48,48,24,48,24,48C24,48,24,24,24,24Z" fill="#000000" fill-opacity="1"/></g><g><path d="M12,1C5.939,1,1,5.939,1,12C1,18.061,5.939,23,12,23C18.061,23,23,18.061,23,12C23,5.939,18.061,1,12,1ZM16.785,15.927C16.631,16.191000000000003,16.356,16.334,16.07,16.334C15.927,16.334,15.784,16.301000000000002,15.652,16.213C15.652,16.213,12.242,14.178,12.242,14.178C11.395,13.672,10.768,12.561,10.768,11.582C10.768,11.582,10.768,7.072,10.768,7.072C10.768,6.621,11.142,6.247,11.593,6.247C12.044,6.247,12.418,6.621,12.418,7.072C12.418,7.072,12.418,11.582,12.418,11.582C12.418,11.978,12.748,12.561,13.089,12.759C13.089,12.759,16.499000000000002,14.794,16.499000000000002,14.794C16.895,15.025,17.027,15.531,16.785,15.927Z" fill="#000000" fill-opacity="1"/></g></g></svg>