<svg xmlns="http://www.w3.org/2000/svg" xmlns:xlink="http://www.w3.org/1999/xlink" fill="none" version="1.1" width="24" height="24" viewBox="0 0 24 24"><defs><clipPath id="master_svg0_3_10349"><rect x="0" y="0" width="24" height="24" rx="0"/></clipPath></defs><g clip-path="url(#master_svg0_3_10349)"><g><path d="M5.292892046325684,5.292896337860108C5.683416046325684,4.902372337860108,6.316579046325684,4.902372337860108,6.707109046325684,5.292896337860108C6.707109046325684,5.292896337860108,11.999999046325684,10.585793337860107,11.999999046325684,10.585793337860107C11.999999046325684,10.585793337860107,17.292899046325683,5.292896337860108,17.292899046325683,5.292896337860108C17.683399046325682,4.902372337860108,18.316599046325685,4.902372337860108,18.707099046325684,5.292896337860108C19.097599046325684,5.683420337860108,19.097599046325684,6.3165833378601075,18.707099046325684,6.7071133378601075C18.707099046325684,6.7071133378601075,13.414209046325684,12.000003337860107,13.414209046325684,12.000003337860107C13.414209046325684,12.000003337860107,18.707099046325684,17.292903337860107,18.707099046325684,17.292903337860107C19.097599046325684,17.683403337860106,19.097599046325684,18.31660333786011,18.707099046325684,18.707103337860108C18.316599046325685,19.097603337860107,17.683399046325682,19.097603337860107,17.292899046325683,18.707103337860108C17.292899046325683,18.707103337860108,11.999999046325684,13.414213337860108,11.999999046325684,13.414213337860108C11.999999046325684,13.414213337860108,6.707109046325684,18.707103337860108,6.707109046325684,18.707103337860108C6.316579046325684,19.097603337860107,5.683416046325684,19.097603337860107,5.292892046325684,18.707103337860108C4.902368046325684,18.31660333786011,4.902368046325684,17.683403337860106,5.292892046325684,17.292903337860107C5.292892046325684,17.292903337860107,10.585789046325683,12.000003337860107,10.585789046325683,12.000003337860107C10.585789046325683,12.000003337860107,5.292892046325684,6.7071133378601075,5.292892046325684,6.7071133378601075C4.902368046325684,6.3165833378601075,4.902368046325684,5.683420337860108,5.292892046325684,5.292896337860108C5.292892046325684,5.292896337860108,5.292892046325684,5.292896337860108,5.292892046325684,5.292896337860108Z" fill="#A0AEC0" fill-opacity="1"/></g></g></svg>