<svg xmlns="http://www.w3.org/2000/svg" xmlns:xlink="http://www.w3.org/1999/xlink" fill="none" version="1.1" width="24" height="24" viewBox="0 0 24 24"><defs><clipPath id="master_svg0_448_00034"><rect x="0" y="0" width="24" height="24" rx="0"/></clipPath></defs><g clip-path="url(#master_svg0_448_00034)"><g><path d="M17.25,19.8375L6.75,19.875L6.75,19.8375C3.825,19.65,1.5,17.2125,1.5,14.25C1.5,11.5875,3.375,9.3375,5.8875,8.775C6.6375,6.075,9.075,4.125,12,4.125C14.925,4.125,17.3625,6.075,18.1125,8.775C20.625,9.3375,22.5,11.5875,22.5,14.25C22.5,17.2125,20.175,19.65,17.25,19.8375ZM16.875,10.125C16.65,7.6125,14.55,5.625,12,5.625C9.45,5.625,7.35,7.6125,7.1625,10.125L7.125,10.125C4.8375,10.125,3,11.9625,3,14.25C3,16.5375,4.8375,18.375,7.125,18.375L16.875,18.375C19.1625,18.375,21,16.5375,21,14.25C21,11.9625,19.1625,10.125,16.875,10.125ZM17.25,16.125L18.375,16.125C18.6,16.125,18.7875,16.35,18.7875,16.6875C18.7875,17.0625,18.6,17.25,18.375,17.25L15.75,17.25C15.5625,17.25,15.2625,17.1375,15.2625,16.6875C15.2625,16.35,15.4875,16.125,15.75,16.125Q16.125,16.125,17.25,14.625C17.325,14.5125,17.5875,14.0625,17.625,13.875C17.6625,13.6875,17.6625,13.425,17.2875,13.425C16.875,13.425,16.875,13.8,16.875,13.875C16.875,14.55,15.75,14.475,15.75,13.875C15.75,12.4875,16.8,12.375,17.25,12.375C18.45,12.375,18.825,13.2,18.75,13.875C18.675,14.4375,18.225,15.075,18,15.375Q17.775,15.675,17.25,16.125ZM12.75,17.25C11.5125,17.25,10.5,16.2375,10.5,15L10.5,12.75C10.5,11.5125,11.5125,10.5,12.75,10.5C13.9875,10.5,15,11.5125,15,12.75L15,15C15,16.2375,13.9875,17.25,12.75,17.25ZM13.875,12.75C13.875,12.1125,13.3875,11.625,12.75,11.625C12.1125,11.625,11.625,12.1125,11.625,12.75L11.625,15C11.625,15.6375,12.1125,16.125,12.75,16.125C13.3875,16.125,13.875,15.6375,13.875,15L13.875,12.75ZM5.25,13.875C5.25,12,6.75,10.5,8.625,10.5L9,10.5L9,11.625L8.625,11.625C7.3875,11.625,6.375,12.6375,6.375,13.875C6.375,15.1125,7.3875,16.125,8.625,16.125L9,16.125L9,17.25L8.625,17.25C6.75,17.25,5.25,15.75,5.25,13.875Z" fill="#333333" fill-opacity="1"/></g><g><path d="M9.5625,11.0625Q9.5625,11.117901,9.55169,11.172238Q9.54088,11.226575,9.51968,11.277759Q9.49848,11.328944,9.4677,11.375008Q9.436922,11.421073,9.397747,11.460247Q9.358573,11.499422,9.312508,11.5302Q9.266444,11.56098,9.215259,11.58218Q9.164075,11.60338,9.109738,11.61419Q9.055401,11.625,9,11.625Q8.944599,11.625,8.890262,11.61419Q8.835925,11.60338,8.784741,11.58218Q8.733556,11.56098,8.687492,11.5302Q8.641427,11.499422,8.602252,11.460247Q8.563078,11.421073,8.5322983,11.375008Q8.501519,11.328944,8.4803178,11.277759Q8.4591166,11.226575,8.4483083,11.172238Q8.4375,11.117901,8.4375,11.0625Q8.4375,11.007099,8.4483083,10.952762Q8.4591166,10.898425,8.4803178,10.847241Q8.501519,10.796056,8.5322983,10.749992Q8.563078,10.703927,8.602252,10.664752Q8.641427,10.625578,8.687492,10.5947983Q8.733556,10.564019,8.784741,10.5428178Q8.835925,10.5216166,8.890262,10.5108083Q8.944599,10.5,9,10.5Q9.055401,10.5,9.109738,10.5108083Q9.164075,10.5216166,9.215259,10.5428178Q9.266444,10.564019,9.312508,10.5947983Q9.358573,10.625578,9.397747,10.664752Q9.436922,10.703927,9.4677,10.749992Q9.49848,10.796056,9.51968,10.847241Q9.54088,10.898425,9.55169,10.952762Q9.5625,11.007099,9.5625,11.0625Z" fill="#333333" fill-opacity="1"/></g><g><path d="M9.5625,16.6875Q9.5625,16.742901,9.55169,16.797238Q9.54088,16.851575,9.51968,16.902759Q9.49848,16.953944,9.4677,17.000008Q9.436922,17.046073,9.397747,17.085247Q9.358573,17.124422,9.312508,17.1552Q9.266444,17.18598,9.215259,17.20718Q9.164075,17.22838,9.109738,17.23919Q9.055401,17.25,9,17.25Q8.944599,17.25,8.890262,17.23919Q8.835925,17.22838,8.784741,17.20718Q8.733556,17.18598,8.687492,17.1552Q8.641427,17.124422,8.602252,17.085247Q8.563078,17.046073,8.5322983,17.000008Q8.501519,16.953944,8.4803178,16.902759Q8.4591166,16.851575,8.4483083,16.797238Q8.4375,16.742901,8.4375,16.6875Q8.4375,16.632099,8.4483083,16.577762Q8.4591166,16.523425,8.4803178,16.472241Q8.501519,16.421056,8.5322983,16.374992Q8.563078,16.328927,8.602252,16.289752Q8.641427,16.250578,8.687492,16.2197983Q8.733556,16.189019,8.784741,16.1678178Q8.835925,16.1466166,8.890262,16.1358083Q8.944599,16.125,9,16.125Q9.055401,16.125,9.109738,16.1358083Q9.164075,16.1466166,9.215259,16.1678178Q9.266444,16.189019,9.312508,16.2197983Q9.358573,16.250578,9.397747,16.289752Q9.436922,16.328927,9.4677,16.374992Q9.49848,16.421056,9.51968,16.472241Q9.54088,16.523425,9.55169,16.577762Q9.5625,16.632099,9.5625,16.6875Z" fill="#333333" fill-opacity="1"/></g></g></svg>