<svg xmlns="http://www.w3.org/2000/svg" xmlns:xlink="http://www.w3.org/1999/xlink" fill="none" version="1.1" width="24" height="24" viewBox="0 0 24 24"><defs><clipPath id="master_svg0_584_03533"><rect x="0" y="0" width="24" height="24" rx="0"/></clipPath></defs><g clip-path="url(#master_svg0_584_03533)"><g><rect x="2.5" y="7" width="19" height="14" rx="2" fill-opacity="0" stroke-opacity="1" stroke="#333333" fill="none" stroke-width="1.5"/></g><g><path d="M19.37196,3.651266L19.3721,3.651182Q19.39161,3.640038,19.41041,3.6277470000000003Q19.52553,3.55248,19.60646,3.441259Q19.68738,3.330038,19.72357,3.1973380000000002Q19.72473,3.193111,19.725830000000002,3.188871Q19.75,3.0959823,19.75,3.0000000000000004Q19.75,2.800828,19.65118,2.627898Q19.64004,2.608394,19.62775,2.589593Q19.55248,2.4744669999999998,19.44126,2.393543Q19.33004,2.312618,19.19734,2.276427Q19.19311,2.275274,19.18887,2.274171Q19.09598,2.25,19,2.25Q18.80083,2.25,18.6279,2.348818L18.62775,2.348901L11.627896,6.34882Q11.498368,6.422829999999999,11.407024,6.54078Q11.31568,6.65873,11.276427,6.8026599999999995Q11.25,6.89956,11.25,7Q11.25,7.01015,11.250275,7.0203Q11.255373,7.20858,11.348818,7.3721Q11.398017,7.4582,11.467902,7.52856Q11.537787,7.59891,11.623555,7.64868Q11.709323,7.69846,11.805079,7.72423Q11.9008359,7.75,12,7.75Q12.0157306,7.75,12.0314497,7.74934Q12.213715,7.74169,12.372104,7.65118L12.372528,7.65094L19.37196,3.651266Z" fill-rule="evenodd" fill="#333333" fill-opacity="1"/></g><g><path d="M11.89307,6.36126L5.393073,2.361256Q5.212282,2.25,5.000000419724,2.25Q4.9897349,2.25,4.9794736,2.250281Q4.886051,2.252839,4.796113,2.278245Q4.706175,2.303652,4.625222,2.350353Q4.54427,2.397054,4.477253,2.462193Q4.410237,2.527333,4.361256,2.6069269999999998Q4.25,2.787718,4.25,3Q4.25,3.0102649,4.250281,3.0205264Q4.252839,3.113949,4.278245,3.203887Q4.303652,3.293825,4.350353,3.374778Q4.397054,3.45573,4.462193,3.522747Q4.527333,3.589763,4.606927,3.638744L11.10693,7.63874Q11.28772,7.75,11.5,7.75Q11.510259999999999,7.75,11.52053,7.74972Q11.613949999999999,7.74716,11.703890000000001,7.72176Q11.79383,7.69635,11.874780000000001,7.64965Q11.955729999999999,7.60295,12.02275,7.53781Q12.08976,7.47267,12.13874,7.39307Q12.25,7.21228,12.25,7Q12.25,6.98973,12.24972,6.97947Q12.247160000000001,6.88605,12.22175,6.7961100000000005Q12.196349999999999,6.70618,12.149650000000001,6.6252200000000006Q12.10295,6.54427,12.03781,6.47725Q11.97267,6.41024,11.89307,6.36126Z" fill-rule="evenodd" fill="#333333" fill-opacity="1"/></g><g><path d="M16.75,10L16.75,13Q16.75,13.07387,16.764411,13.14632Q16.778822,13.21877,16.80709,13.28701Q16.835359,13.35526,16.876398000000002,13.41668Q16.917437,13.4781,16.96967,13.53033Q17.021903000000002,13.58256,17.083322,13.6236Q17.144742,13.66464,17.212987,13.69291Q17.281233,13.72118,17.353682,13.73559Q17.4261315,13.75,17.5,13.75Q17.5738685,13.75,17.646318,13.73559Q17.718767,13.72118,17.787013,13.69291Q17.855258,13.66464,17.916678,13.6236Q17.978096999999998,13.58256,18.03033,13.53033Q18.082563,13.4781,18.123601999999998,13.41668Q18.164641,13.35526,18.19291,13.28701Q18.221178,13.21877,18.235589,13.14632Q18.25,13.07387,18.25,13L18.25,10Q18.25,9.9261315,18.235589,9.853682Q18.221178,9.781233,18.19291,9.712987Q18.164641,9.644742,18.123601999999998,9.583322Q18.082563,9.521903,18.03033,9.46967Q17.978096999999998,9.417437,17.916678,9.376398Q17.855258,9.335359,17.787013,9.30709Q17.718767,9.278822,17.646318,9.264410999999999Q17.5738685,9.25,17.5,9.25Q17.4261315,9.25,17.353682,9.264410999999999Q17.281233,9.278822,17.212987,9.30709Q17.144742,9.335359,17.083322,9.376398Q17.021903000000002,9.417437,16.96967,9.46967Q16.917437,9.521903,16.876398000000002,9.583322Q16.835359,9.644742,16.80709,9.712987Q16.778822,9.781233,16.764411,9.853682Q16.75,9.9261315,16.75,10Z" fill-rule="evenodd" fill="#333333" fill-opacity="1"/></g><g><rect x="16.5" y="16" width="2" height="2" rx="1" fill="#333333" fill-opacity="1"/></g></g></svg>