<svg xmlns="http://www.w3.org/2000/svg" xmlns:xlink="http://www.w3.org/1999/xlink" fill="none" version="1.1" width="25.5" height="25.5" viewBox="0 0 25.5 25.5"><g><g><path d="M11.28033,8.28033Q11.385819999999999,8.174841,11.442910000000001,8.037013Q11.5,7.899184,11.5,7.75Q11.5,7.6761315,11.48559,7.603682Q11.47118,7.531233,11.442910000000001,7.462987Q11.41464,7.394742,11.3736,7.333322Q11.33256,7.271903,11.28033,7.21967Q11.228100000000001,7.167437,11.16668,7.126398Q11.105260000000001,7.085359,11.03701,7.05709Q10.96877,7.028822,10.89632,7.014411Q10.82387,7,10.75,7Q10.600819999999999,7,10.46299,7.05709Q10.32516,7.114181,10.21967,7.21967L5.21967,12.21967Q5.167437,12.271899999999999,5.126398,12.33332Q5.085359,12.394739999999999,5.05709,12.46299Q5.028822,12.53123,5.014411,12.60368Q5,12.67613,5,12.75Q5,12.82387,5.014411,12.89632Q5.028822,12.96877,5.05709,13.03701Q5.085359,13.105260000000001,5.126398,13.16668Q5.167437,13.228100000000001,5.21967,13.28033L10.219280000000001,18.279899999999998L10.21967,18.2803Q10.32516,18.3858,10.46299,18.4429Q10.600819999999999,18.5,10.75,18.5Q10.82387,18.5,10.89632,18.485599999999998Q10.96877,18.4712,11.03701,18.4429Q11.105260000000001,18.4146,11.16668,18.3736Q11.228100000000001,18.3326,11.28033,18.2803Q11.33256,18.228099999999998,11.3736,18.1667Q11.41464,18.1053,11.442910000000001,18.037Q11.47118,17.9688,11.48559,17.8963Q11.5,17.823900000000002,11.5,17.75Q11.5,17.60081,11.442910000000001,17.462989999999998Q11.385819999999999,17.32516,11.28033,17.21967L11.27994,17.219279999999998L6.81066,12.75L11.28033,8.28033L11.28033,8.28033Z" fill-rule="evenodd" fill="#2B3D56" fill-opacity="1"/></g><g><path d="M5.75,12L19.75,12Q19.823900000000002,12,19.8963,12.014410999999999Q19.9688,12.028822,20.037,12.05709Q20.1053,12.085359,20.1667,12.126398Q20.228099999999998,12.167437,20.2803,12.21967Q20.3326,12.271903,20.3736,12.333322Q20.4146,12.394742,20.4429,12.462987Q20.4712,12.531233,20.485599999999998,12.603682Q20.5,12.6761315,20.5,12.75Q20.5,12.8238685,20.485599999999998,12.896318Q20.4712,12.968767,20.4429,13.037013Q20.4146,13.105258,20.3736,13.166678Q20.3326,13.228097,20.2803,13.28033Q20.228099999999998,13.332563,20.1667,13.373602Q20.1053,13.414641,20.037,13.44291Q19.9688,13.471178,19.8963,13.485589000000001Q19.823900000000002,13.5,19.75,13.5L5.75,13.5Q5.6761315,13.5,5.603682,13.485589000000001Q5.531233,13.471178,5.462987,13.44291Q5.394742,13.414641,5.333322,13.373602Q5.271903,13.332563,5.21967,13.28033Q5.167437,13.228097,5.126398,13.166678Q5.085359,13.105258,5.05709,13.037013Q5.028822,12.968767,5.014411,12.896318Q5,12.8238685,5,12.75Q5,12.6761315,5.014411,12.603682Q5.028822,12.531233,5.05709,12.462987Q5.085359,12.394742,5.126398,12.333322Q5.167437,12.271903,5.21967,12.21967Q5.271903,12.167437,5.333322,12.126398Q5.394742,12.085359,5.462987,12.05709Q5.531233,12.028822,5.603682,12.014410999999999Q5.6761315,12,5.75,12Z" fill-rule="evenodd" fill="#2B3D56" fill-opacity="1"/></g><g transform="matrix(-1,-1.2246469849340659e-16,1.2246469849340659e-16,-1,49.5,49.5)" style="opacity:0;"><path d="M24,24.75L24,48.75Q24,48.823899999999995,24.014411,48.8963Q24.028822,48.9688,24.05709,49.037Q24.085359,49.1053,24.126398000000002,49.1667Q24.167437,49.2281,24.21967,49.2803Q24.271903000000002,49.3326,24.333322,49.373599999999996Q24.394742,49.4146,24.462987,49.4429Q24.531233,49.471199999999996,24.603682,49.485600000000005Q24.6761315,49.5,24.75,49.5L48.75,49.5Q48.823899999999995,49.5,48.8963,49.485600000000005Q48.9688,49.471199999999996,49.037,49.4429Q49.1053,49.4146,49.1667,49.373599999999996Q49.2281,49.3326,49.2803,49.2803Q49.3326,49.2281,49.373599999999996,49.1667Q49.4146,49.1053,49.4429,49.037Q49.471199999999996,48.9688,49.485600000000005,48.8963Q49.5,48.823899999999995,49.5,48.75L49.5,24.75Q49.5,24.6761315,49.485600000000005,24.603682Q49.471199999999996,24.531233,49.4429,24.462987Q49.4146,24.394742,49.373599999999996,24.333322Q49.3326,24.271903000000002,49.2803,24.21967Q49.2281,24.167437,49.1667,24.126398000000002Q49.1053,24.085359,49.037,24.05709Q48.9688,24.028822,48.8963,24.014411Q48.823899999999995,24,48.75,24L24.75,24Q24.6761315,24,24.603682,24.014411Q24.531233,24.028822,24.462987,24.05709Q24.394742,24.085359,24.333322,24.126398000000002Q24.271903000000002,24.167437,24.21967,24.21967Q24.167437,24.271903000000002,24.126398000000002,24.333322Q24.085359,24.394742,24.05709,24.462987Q24.028822,24.531233,24.014411,24.603682Q24,24.6761315,24,24.75ZM25.5,48L48,48L48,25.5L25.5,25.5L25.5,48Z" fill-rule="evenodd" fill="#2B3D56" fill-opacity="1"/></g></g></svg>