<svg xmlns="http://www.w3.org/2000/svg" xmlns:xlink="http://www.w3.org/1999/xlink" fill="none" version="1.1" width="8" height="8" viewBox="0 0 8 8"><g><path d="M3.50024,7.5Q3.50024,7.54925,3.50985,7.59754Q3.51946,7.64584,3.5383,7.69134Q3.55715,7.73684,3.58451,7.77778Q3.61187,7.81873,3.64669,7.85355Q3.68151,7.88837,3.72246,7.91573Q3.76341,7.94309,3.8089,7.96194Q3.8544,7.98078,3.9027,7.99039Q3.951,8,4.00024,8Q4.04949,8,4.09779,7.99039Q4.14609,7.98078,4.19159,7.96194Q4.23708,7.94309,4.27803,7.91573Q4.31897,7.88837,4.3538,7.85355Q4.38862,7.81873,4.41598,7.77778Q4.44334,7.73684,4.46218,7.69134Q4.48103,7.64584,4.49064,7.59754Q4.50024,7.54925,4.50024,7.5L4.50024,4.50024L7.49976,4.50024Q7.549,4.50024,7.5973,4.49064Q7.6456,4.48103,7.6911,4.46218Q7.73659,4.44334,7.77754,4.41598Q7.81849,4.38862,7.85331,4.3538Q7.88813,4.31897,7.91549,4.27803Q7.94285,4.23708,7.96169,4.19159Q7.98054,4.14609,7.99015,4.09779Q7.99976,4.04949,7.99976,4.00024Q7.99976,3.951,7.99015,3.9027Q7.98054,3.8544,7.96169,3.8089Q7.94285,3.76341,7.91549,3.72246Q7.88813,3.68151,7.85331,3.64669Q7.81849,3.61187,7.77754,3.58451Q7.73659,3.55715,7.6911,3.5383Q7.6456,3.51946,7.5973,3.50985Q7.549,3.50024,7.49976,3.50024L4.50024,3.50024L4.50024,0.5Q4.50024,0.450754,4.49064,0.402454Q4.48103,0.354155,4.46218,0.308658Q4.44334,0.263161,4.41598,0.222215Q4.38862,0.181268,4.3538,0.146446Q4.31897,0.111625,4.27803,0.0842651Q4.23708,0.0569057,4.19159,0.0380602Q4.14609,0.0192147,4.09779,0.00960735Q4.04949,0,4.00024,0Q3.951,0,3.9027,0.00960735Q3.8544,0.0192147,3.8089,0.0380602Q3.76341,0.0569057,3.72246,0.0842651Q3.68151,0.111625,3.64669,0.146446Q3.61187,0.181268,3.58451,0.222215Q3.55715,0.263161,3.5383,0.308658Q3.51946,0.354155,3.50985,0.402454Q3.50024,0.450754,3.50024,0.5L3.50024,3.50024L0.499756,3.50024Q0.45051,3.50024,0.402211,3.50985Q0.353911,3.51946,0.308414,3.5383Q0.262917,3.55715,0.221971,3.58451Q0.181024,3.61187,0.146202,3.64669Q0.11138,3.68151,0.084021,3.72246Q0.0566616,3.76341,0.0378161,3.8089Q0.0189706,3.8544,0.00936322,3.9027Q-0.000244141,3.951,-0.000244141,4.00024Q-0.000244141,4.04949,0.00936322,4.09779Q0.0189706,4.14609,0.0378161,4.19159Q0.0566616,4.23708,0.084021,4.27803Q0.11138,4.31897,0.146202,4.3538Q0.181024,4.38862,0.221971,4.41598Q0.262917,4.44334,0.308414,4.46218Q0.353911,4.48103,0.402211,4.49064Q0.45051,4.50024,0.499756,4.50024L3.50024,4.50024L3.50024,7.5Z" fill-rule="evenodd" fill="#000000" fill-opacity="1"/></g></svg>