<svg xmlns="http://www.w3.org/2000/svg" xmlns:xlink="http://www.w3.org/1999/xlink" fill="none" version="1.1" width="18" height="18" viewBox="0 0 18 18"><g><g><path d="M8.954999618530273,1.657500369934082C8.954999618530273,1.657500369934082,7.147499618530274,5.865001369934082,7.147499618530274,5.865001369934082C7.147499618530274,5.865001369934082,5.339999618530273,5.865001369934082,5.339999618530273,5.865001369934082C5.039999618530273,5.865001369934082,4.747499618530274,5.887501369934082,4.462499618530273,5.947501369934082C4.462499618530273,5.947501369934082,5.212499618530273,4.147501369934082,5.212499618530273,4.147501369934082C5.212499618530273,4.147501369934082,5.242499618530274,4.080001369934083,5.242499618530274,4.080001369934083C5.242499618530274,4.080001369934083,5.287499618530274,3.960001369934082,5.287499618530274,3.960001369934082C5.309999618530274,3.907501369934082,5.324999618530273,3.862501369934082,5.347499618530273,3.825001369934082C6.217499618530273,1.8075003699340821,7.192499618530274,1.177500369934082,8.954999618530273,1.657500369934082Z" fill="#FFFFFF" fill-opacity="1"/></g><g><path d="M14.047587890625,6.0674999856948855C14.047587890625,6.0674999856948855,14.032587890624999,6.059999985694885,14.032587890624999,6.059999985694885C13.582587890625,5.932499985694886,13.125087890625,5.864999985694885,12.660087890625,5.864999985694885C12.660087890625,5.864999985694885,7.965087890625,5.864999985694885,7.965087890625,5.864999985694885C7.965087890625,5.864999985694885,9.652587890625,1.9424998856948852,9.652587890625,1.9424998856948852C9.652587890625,1.9424998856948852,9.675087890625,1.8899999856948853,9.675087890625,1.8899999856948853C9.780087890625,1.9274999856948853,9.892587890625,1.9800000856948852,10.005087890625,2.017499985694885C10.005087890625,2.017499985694885,11.662587890625,2.7149999856948854,11.662587890625,2.7149999856948854C12.585087890625001,3.0974999856948853,13.230087890625,3.4949999856948852,13.627587890625,3.974999985694885C13.695087890625,4.064999985694885,13.755087890625,4.1474999856948855,13.815087890625,4.244999985694886C13.882587890625,4.349999985694885,13.935087890624999,4.454999985694885,13.965087890625,4.5674999856948855C13.995087890625001,4.634999985694885,14.017587890625,4.694999985694885,14.032587890624999,4.762499985694886C14.145087890625,5.144999985694885,14.152587890625,5.579999985694885,14.047587890625,6.0674999856948855Z" fill="#FFFFFF" fill-opacity="1"/></g><g><path d="M9.390000343322754,13.244999465942383C9.390000343322754,13.244999465942383,9.577500343322754,13.244999465942383,9.577500343322754,13.244999465942383C9.802500343322754,13.244999465942383,9.989999343322754,13.042499465942383,9.989999343322754,12.794999465942382C9.989999343322754,12.479999465942383,9.899999343322754,12.434999465942383,9.704999343322754,12.359999465942384C9.704999343322754,12.359999465942384,9.390000343322754,12.247499465942383,9.390000343322754,12.247499465942383C9.390000343322754,12.247499465942383,9.390000343322754,13.244999465942383,9.390000343322754,13.244999465942383Z" fill="#FFFFFF" fill-opacity="1"/></g><g><path d="M13.717500066757202,7.140000771118164C13.380000066757201,7.042500371118164,13.027500066757202,6.989999771118164,12.660000066757203,6.989999771118164C12.660000066757203,6.989999771118164,5.340000066757202,6.989999771118164,5.340000066757202,6.989999771118164C4.8300000667572025,6.989999771118164,4.350000066757202,7.087500071118164,3.9000000667572023,7.2824997711181645C2.595000066757202,7.8449997711181645,1.6800000667572021,9.142499771118164,1.6800000667572021,10.649999771118164C1.6800000667572021,10.649999771118164,1.6800000667572021,12.112499771118163,1.6800000667572021,12.112499771118163C1.6800000667572021,12.292499771118164,1.695000066757202,12.464999771118164,1.7175000667572022,12.644999771118165C1.8825000667572023,15.029999771118163,3.157500066757202,16.304999771118162,5.542500066757202,16.462499771118164C5.715000066757202,16.48499977111816,5.887500066757202,16.499999771118162,6.075000066757202,16.499999771118162C6.075000066757202,16.499999771118162,11.925000066757201,16.499999771118162,11.925000066757201,16.499999771118162C14.700000066757202,16.499999771118162,16.162500066757204,15.179999771118164,16.305000066757202,12.554999771118165C16.312500066757202,12.412499771118163,16.320000066757203,12.262499771118165,16.320000066757203,12.112499771118163C16.320000066757203,12.112499771118163,16.320000066757203,10.649999771118164,16.320000066757203,10.649999771118164C16.320000066757203,8.992499771118164,15.217500066757202,7.597500771118164,13.717500066757202,7.140000771118164ZM9.960000066757202,11.624999771118164C10.305000066757202,11.744999771118163,10.770000066757202,11.999999771118164,10.770000066757202,12.794999771118164C10.770000066757202,13.477499771118165,10.237500066757201,14.024999771118164,9.577500066757203,14.024999771118164C9.577500066757203,14.024999771118164,9.390000066757203,14.024999771118164,9.390000066757203,14.024999771118164C9.390000066757203,14.024999771118164,9.390000066757203,14.189999771118163,9.390000066757203,14.189999771118163C9.390000066757203,14.407499771118164,9.217500066757202,14.579999771118164,9.000000066757202,14.579999771118164C8.782500066757201,14.579999771118164,8.610000066757202,14.407499771118164,8.610000066757202,14.189999771118163C8.610000066757202,14.189999771118163,8.610000066757202,14.024999771118164,8.610000066757202,14.024999771118164C8.610000066757202,14.024999771118164,8.542500066757203,14.024999771118164,8.542500066757203,14.024999771118164C7.822500066757202,14.024999771118164,7.230000066757202,13.417499771118164,7.230000066757202,12.667499771118164C7.230000066757202,12.449999771118165,7.402500066757202,12.277499771118164,7.6200000667572025,12.277499771118164C7.837500066757202,12.277499771118164,8.010000066757202,12.449999771118165,8.010000066757202,12.667499771118164C8.010000066757202,12.982499771118164,8.250000066757202,13.244999771118163,8.542500066757203,13.244999771118163C8.542500066757203,13.244999771118163,8.610000066757202,13.244999771118163,8.610000066757202,13.244999771118163C8.610000066757202,13.244999771118163,8.610000066757202,11.977499771118165,8.610000066757202,11.977499771118165C8.610000066757202,11.977499771118165,8.040000066757202,11.774999771118164,8.040000066757202,11.774999771118164C7.695000066757202,11.654999771118163,7.230000066757202,11.399999771118164,7.230000066757202,10.604999771118164C7.230000066757202,9.922499771118165,7.762500066757202,9.374999771118164,8.422500066757202,9.374999771118164C8.422500066757202,9.374999771118164,8.610000066757202,9.374999771118164,8.610000066757202,9.374999771118164C8.610000066757202,9.374999771118164,8.610000066757202,9.209999771118165,8.610000066757202,9.209999771118165C8.610000066757202,8.992499771118164,8.782500066757201,8.819999771118164,9.000000066757202,8.819999771118164C9.217500066757202,8.819999771118164,9.390000066757203,8.992499771118164,9.390000066757203,9.209999771118165C9.390000066757203,9.209999771118165,9.390000066757203,9.374999771118164,9.390000066757203,9.374999771118164C9.390000066757203,9.374999771118164,9.457500066757202,9.374999771118164,9.457500066757202,9.374999771118164C10.177500066757203,9.374999771118164,10.770000066757202,9.982499771118164,10.770000066757202,10.732499771118164C10.770000066757202,10.949999771118165,10.597500066757203,11.122499771118164,10.380000066757201,11.122499771118164C10.162500066757202,11.122499771118164,9.990000066757203,10.949999771118165,9.990000066757203,10.732499771118164C9.990000066757203,10.417499771118164,9.750000066757202,10.154999771118163,9.457500066757202,10.154999771118163C9.457500066757202,10.154999771118163,9.390000066757203,10.154999771118163,9.390000066757203,10.154999771118163C9.390000066757203,10.154999771118163,9.390000066757203,11.422499771118165,9.390000066757203,11.422499771118165C9.390000066757203,11.422499771118165,9.960000066757202,11.624999771118164,9.960000066757202,11.624999771118164Z" fill="#FFFFFF" fill-opacity="1"/></g><g><path d="M8.010000228881836,10.60499973297119C8.010000228881836,10.919999732971192,8.100000328881835,10.964999732971192,8.295000228881836,11.039999732971191C8.295000228881836,11.039999732971191,8.609999228881836,11.152499732971192,8.609999228881836,11.152499732971192C8.609999228881836,11.152499732971192,8.609999228881836,10.154999732971193,8.609999228881836,10.154999732971193C8.609999228881836,10.154999732971193,8.422499228881836,10.154999732971193,8.422499228881836,10.154999732971193C8.189999228881836,10.154999732971191,8.010000228881836,10.357499732971192,8.010000228881836,10.60499973297119Z" fill="#FFFFFF" fill-opacity="1"/></g><g style="opacity:0;"></g></g></svg>