<svg xmlns="http://www.w3.org/2000/svg" xmlns:xlink="http://www.w3.org/1999/xlink" fill="none" version="1.1" width="20" height="20" viewBox="0 0 20 20"><g><g><g><rect x="0" y="0" width="20" height="20" rx="0" fill="#FFFFFF" fill-opacity="0"/></g><g><path d="M18.700172265625,15.9628953125Q18.713872265625,15.1391953125,18.293872265625,14.4136953125L12.596172265625,4.5720853125000005Q12.176972265625,3.8480533125000003,11.457472265625,3.4497763125Q10.780782265625,3.0751953125,9.999862265625,3.0751953125Q9.218942265625,3.0751953125,8.542252265624999,3.4497763125Q7.822762265625,3.8480533125000003,7.403582265625,4.5720853125000005L1.705808265625,14.4136953125Q1.285807665625,15.1391953125,1.299504846625,15.9628953125Q1.312384565625,16.737595312499998,1.7031132656249999,17.4152953125Q2.093843265625,18.0929953125,2.757762265625,18.4921953125Q3.463822265625,18.9167953125,4.302082265625,18.9167953125L15.697672265625,18.9167953125Q16.535872265625002,18.9167953125,17.241972265625,18.4921953125Q17.905872265625,18.0929953125,18.296572265625,17.4152953125Q18.687372265625,16.737595312499998,18.700172265625,15.9628953125ZM9.000002265625,7.9179853125L9.003462265625,12.0842753125C9.003682265624999,12.3494953125,9.109242265625,12.6037653125,9.296942265624999,12.7911453125C9.484422265625,12.9783253125,9.738532265625,13.0834953125,10.004292265625,13.0834953125C10.269502265625,13.0831953125,10.523772265625,12.9776653125,10.711152265625,12.7899653125C10.898332265625,12.6024753125,11.003462265625,12.3483753125,11.003462265625,12.0824553125L11.000002265625,7.9161653125C10.999782265625,7.6509453125,10.894212265625,7.3966753125,10.706522265625,7.2092953125C10.519032265625,7.0221253125,10.264932265625,6.9169953125,9.999172265625,6.9169953125C9.733952265625,6.9172153125,9.479682265625,7.0227853125,9.292302265625,7.2104753125C9.105132265625,7.3979653125,9.000002265625,7.6520653125,9.000002265625,7.9179853125ZM9.000002265625,14.5834953125L9.000002265625,15.0001953125C9.000002265625,15.5524953125,9.447712265625,16.0001953125,10.000002265625,16.0001953125C10.552282265625,16.0001953125,11.000002265625,15.5524953125,11.000002265625,15.0001953125L11.000002265625,14.5834953125C11.000002265625,14.0311953125,10.552282265625,13.5834953125,10.000002265625,13.5834953125C9.447712265625,13.5834953125,9.000002265625,14.0311953125,9.000002265625,14.5834953125Z" fill-rule="evenodd" fill="#000000" fill-opacity="1"/></g></g></g></svg>