<svg xmlns="http://www.w3.org/2000/svg" xmlns:xlink="http://www.w3.org/1999/xlink" fill="none" version="1.1" width="16" height="16" viewBox="0 0 16 16"><defs><clipPath id="master_svg0_63_66120"><rect x="0" y="0" width="16" height="16" rx="0"/></clipPath></defs><g clip-path="url(#master_svg0_63_66120)"><g><path d="M3.666666626930237,14.500323492279053L12.333366626930237,14.500323492279053Q13.368966626930236,14.500323492279053,14.101166626930237,13.768083492279054Q14.833366626930237,13.035843492279053,14.833366626930237,12.000303492279052L14.833366626930237,6.3333280893490524Q14.833366626930237,6.2840826922790525,14.823766626930237,6.235783692279052Q14.814066626930236,6.187484492279053,14.795266626930237,6.141988492279053Q14.776466626930237,6.0964914922790525,14.749066626930237,6.055545492279053Q14.721666626930237,6.014599492279053,14.686866626930238,5.979778492279053Q14.652066626930237,5.9449564922790525,14.611066626930237,5.917597492279053Q14.570166626930236,5.890238492279053,14.524666626930237,5.8713934922790525Q14.479166626930237,5.852547492279053,14.430866626930237,5.842940492279053Q14.382566626930236,5.833333492279053,14.333366626930237,5.833333492279053L1.6666666269302368,5.833333492279053Q1.6174209269302369,5.833333492279053,1.5691215269302368,5.842940492279053Q1.5208216269302368,5.852548492279053,1.4753246269302367,5.8713934922790525Q1.4298276269302368,5.890239492279052,1.3888816269302369,5.917598492279053Q1.3479356269302367,5.944958492279053,1.3131136269302368,5.979780492279053Q1.278291626930237,6.014602492279053,1.2509316269302369,6.055548492279053Q1.223572626930237,6.096494492279053,1.2047266269302368,6.141991492279053Q1.1858816269302368,6.187488492279053,1.1762736269302367,6.235788392279053Q1.1666666269302368,6.284087792279053,1.1666666269302368,6.333333492279053L1.1666666269302368,12.000323492279053Q1.1666666269302368,13.035863492279052,1.8988996269302367,13.768093492279053Q2.6311326269302366,14.500323492279053,3.666666626930237,14.500323492279053ZM13.394066626930236,13.060983492279053Q12.954766626930237,13.500323492279053,12.333366626930237,13.500323492279053L3.666666626930237,13.500323492279053Q3.045346626930237,13.500323492279053,2.606006626930237,13.060983492279053Q2.166666626930237,12.621643492279052,2.166666626930237,12.000323492279053L2.166666626930237,6.833333492279053L13.833366626930237,6.833333492279053L13.833366626930237,12.000313492279052Q13.833366626930237,12.621633492279052,13.394066626930236,13.060983492279053Z" fill-rule="evenodd" fill="#8A92A6" fill-opacity="1"/></g><g><path d="M14.833366626930237,6.333342799682617L14.833366626930237,4.333112799682617Q14.833366626930237,3.297567799682617,14.101166626930237,2.565315799682617Q13.368966626930236,1.8330647996826173,12.333366626930237,1.8330647996826173L3.666666626930237,1.8330647996826173Q2.6311326269302366,1.8330647996826173,1.8988996269302367,2.565297799682617Q1.1666666269302368,3.297530799682617,1.1666666269302368,4.333062799682617L1.1666666269302368,6.333332799682617Q1.1666666269302368,6.382582799682617,1.1762736269302367,6.430872799682617Q1.1858816269302368,6.479172799682617,1.2047266269302368,6.524672799682617Q1.223572626930237,6.570172799682617,1.2509316269302369,6.611112799682617Q1.278291626930237,6.652062799682617,1.3131136269302368,6.686882799682617Q1.3479356269302367,6.721712799682617,1.3888816269302369,6.749062799682617Q1.4298276269302368,6.776422799682617,1.4753246269302367,6.795272799682617Q1.5208216269302368,6.814122799682617,1.5691215269302368,6.823722799682617Q1.6174209269302369,6.833332799682617,1.6666666269302368,6.833332799682617L14.333366626930237,6.833332799682617Q14.382566626930236,6.833332799682617,14.430866626930237,6.823722799682617Q14.479166626930237,6.814122799682617,14.524666626930237,6.795272799682617Q14.570166626930236,6.776432799682617,14.611066626930237,6.749072799682617Q14.652066626930237,6.721712799682617,14.686866626930238,6.686892799682617Q14.721666626930237,6.652072799682617,14.749066626930237,6.611122799682617Q14.776466626930237,6.570182799682617,14.795266626930237,6.524682799682617Q14.814166626930238,6.479182799682617,14.823766626930237,6.4308827996826174Q14.833366626930237,6.382592799682617,14.833366626930237,6.333342799682617ZM13.394066626930236,3.272415799682617Q13.833366626930237,3.7117627996826172,13.833366626930237,4.333092799682618L13.833366626930237,5.833332799682617L2.166666626930237,5.833332799682617L2.166666626930237,4.333062799682617Q2.166666626930237,3.711742799682617,2.606006626930237,3.2724047996826173Q3.045346626930237,2.8330647996826173,3.666666626930237,2.8330647996826173L12.333366626930237,2.8330647996826173Q12.954666626930237,2.8330647996826173,13.394066626930236,3.272415799682617Z" fill-rule="evenodd" fill="#8A92A6" fill-opacity="1"/></g><g><path d="M4.833333492279053,1.3333333730697632Q4.833333492279053,1.2840876730697632,4.842940492279053,1.2357882730697631Q4.852548492279053,1.1874883730697632,4.8713934922790525,1.141991373069763Q4.890239492279052,1.0964943730697632,4.917598492279053,1.0555483730697632Q4.944958492279053,1.014602373069763,4.979780492279053,0.9797803730697632Q5.014602492279053,0.9449583730697632,5.055548492279053,0.9175983730697632Q5.096494492279053,0.8902393730697632,5.141991492279053,0.8713933730697632Q5.187488492279053,0.8525483730697632,5.235788392279053,0.8429403730697631Q5.284087792279053,0.8333333730697632,5.333333492279053,0.8333333730697632Q5.382579192279053,0.8333333730697632,5.430878592279052,0.8429403730697631Q5.479178492279052,0.8525483730697632,5.524675492279052,0.8713933730697632Q5.5701724922790525,0.8902393730697632,5.6111184922790525,0.9175983730697632Q5.652064492279052,0.9449583730697632,5.6868864922790525,0.9797803730697632Q5.721708492279053,1.014602373069763,5.7490684922790525,1.0555483730697632Q5.776427492279053,1.0964943730697632,5.795273492279053,1.141991373069763Q5.814118492279053,1.1874883730697632,5.823726492279053,1.2357882730697631Q5.833333492279053,1.2840876730697632,5.833333492279053,1.3333333730697632L5.833333492279053,4.000003373069763Q5.833333492279053,4.049243373069763,5.823726492279053,4.0975433730697635Q5.814118492279053,4.145843373069763,5.795273492279053,4.191343373069763Q5.776427492279053,4.236843373069763,5.7490684922790525,4.277783373069763Q5.721708492279053,4.3187333730697635,5.6868864922790525,4.353553373069763Q5.652064492279052,4.388373373069763,5.6111184922790525,4.415733373069763Q5.5701724922790525,4.443093373069763,5.524675492279052,4.461943373069763Q5.479178492279052,4.480783373069763,5.430878592279052,4.490393373069763Q5.382579192279053,4.500003373069763,5.333333492279053,4.500003373069763Q5.284087792279053,4.500003373069763,5.235788392279053,4.490393373069763Q5.187488492279053,4.480783373069763,5.141991492279053,4.461943373069763Q5.096494492279053,4.443093373069763,5.055548492279053,4.415733373069763Q5.014602492279053,4.388373373069763,4.979780492279053,4.353553373069763Q4.944958492279053,4.3187333730697635,4.917598492279053,4.277783373069763Q4.890239492279052,4.236843373069763,4.8713934922790525,4.191343373069763Q4.852548492279053,4.145843373069763,4.842940492279053,4.0975433730697635Q4.833333492279053,4.049243373069763,4.833333492279053,4.000003373069763L4.833333492279053,1.3333333730697632Z" fill-rule="evenodd" fill="#8A92A6" fill-opacity="1"/></g><g><path d="M10.166666984558105,1.3333333730697632Q10.166666984558105,1.2840876730697632,10.176273984558106,1.2357882730697631Q10.185881984558105,1.1874883730697632,10.204726984558105,1.141991373069763Q10.223572984558105,1.0964943730697632,10.250931984558106,1.0555483730697632Q10.278291984558106,1.014602373069763,10.313113984558106,0.9797803730697632Q10.347935984558106,0.9449583730697632,10.388881984558106,0.9175983730697632Q10.429827984558106,0.8902393730697632,10.475324984558105,0.8713933730697632Q10.520821984558106,0.8525483730697632,10.569121884558106,0.8429403730697631Q10.617421284558105,0.8333333730697632,10.666666984558105,0.8333333730697632Q10.715912684558106,0.8333333730697632,10.764212084558105,0.8429403730697631Q10.812511984558105,0.8525483730697632,10.858008984558106,0.8713933730697632Q10.903505984558105,0.8902393730697632,10.944451984558105,0.9175983730697632Q10.985397984558105,0.9449583730697632,11.020219984558105,0.9797803730697632Q11.055041984558105,1.014602373069763,11.082401984558105,1.0555483730697632Q11.109760984558106,1.0964943730697632,11.128606984558106,1.141991373069763Q11.147451984558106,1.1874883730697632,11.157059984558105,1.2357882730697631Q11.166666984558105,1.2840876730697632,11.166666984558105,1.3333333730697632L11.166666984558105,4.000003373069763Q11.166666984558105,4.049243373069763,11.157059984558105,4.0975433730697635Q11.147451984558106,4.145843373069763,11.128606984558106,4.191343373069763Q11.109760984558106,4.236843373069763,11.082401984558105,4.277783373069763Q11.055041984558105,4.3187333730697635,11.020219984558105,4.353553373069763Q10.985397984558105,4.388373373069763,10.944451984558105,4.415733373069763Q10.903505984558105,4.443093373069763,10.858008984558106,4.461943373069763Q10.812511984558105,4.480783373069763,10.764212084558105,4.490393373069763Q10.715912684558106,4.500003373069763,10.666666984558105,4.500003373069763Q10.617421284558105,4.500003373069763,10.569121884558106,4.490393373069763Q10.520821984558106,4.480783373069763,10.475324984558105,4.461943373069763Q10.429827984558106,4.443093373069763,10.388881984558106,4.415733373069763Q10.347935984558106,4.388373373069763,10.313113984558106,4.353553373069763Q10.278291984558106,4.3187333730697635,10.250931984558106,4.277783373069763Q10.223572984558105,4.236843373069763,10.204726984558105,4.191343373069763Q10.185881984558105,4.145843373069763,10.176273984558106,4.0975433730697635Q10.166666984558105,4.049243373069763,10.166666984558105,4.000003373069763L10.166666984558105,1.3333333730697632Z" fill-rule="evenodd" fill="#8A92A6" fill-opacity="1"/></g></g></svg>