<svg xmlns="http://www.w3.org/2000/svg" xmlns:xlink="http://www.w3.org/1999/xlink" fill="none" version="1.1" width="24" height="24" viewBox="0 0 24 24"><defs><clipPath id="master_svg0_112_08290"><rect x="0" y="0" width="24" height="24" rx="0"/></clipPath></defs><g clip-path="url(#master_svg0_112_08290)"><g><path d="M20.3701,20L14.8794,20C14.6806,20,14.5195,19.844839999999998,14.5195,19.65345L14.5195,13.07759L5.15965,13.07759L5.15965,19.65345C5.15965,19.844839999999998,4.9985,20,4.79971,20L3.629898,20C3.282015,20,3,19.728479999999998,3,19.39353L3,11.606469C3,11.271525,3.282015,11,3.629898,11L20.3701,11C20.718,11,21,11.271525,21,11.606469L21,19.39353C21,19.728479999999998,20.718,20,20.3701,20ZM15.2394,19.30689L20.2801,19.30689L20.2801,11.693107L3.719658,11.693107L3.719658,19.30689L4.43954,19.30689L4.43954,12.99095C4.43954,12.65601,4.72156,12.38448,5.06944,12.38448L14.6095,12.38448C14.9573,12.38448,15.2394,12.65601,15.2394,12.99095L15.2394,19.30689Z" fill="#333333" fill-opacity="1"/><path d="M21.0236,20.03848Q21.3,19.77235,21.3,19.39353L21.3,11.606469Q21.3,11.227655,21.0236,10.9615176Q20.752,10.7,20.3701,10.7L3.629898,10.7Q3.248038,10.7,2.9764179,10.9615175Q2.7,11.227654,2.7,11.606469L2.7,19.39353Q2.7,19.77235,2.976418,20.03848Q3.248039,20.3,3.629898,20.3L4.79971,20.3Q5.06975,20.3,5.2623,20.11461Q5.45965,19.924599999999998,5.45965,19.65345L5.45965,13.37759L14.2195,13.37759L14.2195,19.65345Q14.2195,19.924599999999998,14.4168,20.11461Q14.6094,20.3,14.8794,20.3L20.3701,20.3Q20.752,20.3,21.0236,20.03848ZM20.7,11.606469L20.7,19.39353Q20.7,19.7,20.3701,19.7L14.8794,19.7Q14.8513,19.7,14.833,19.682380000000002Q14.8195,19.66939,14.8195,19.65345L14.8195,12.77759L4.85965,12.77759L4.85965,19.65345Q4.85965,19.7,4.79971,19.7L3.629898,19.7Q3.3,19.7,3.3,19.39353L3.3,11.606469Q3.3,11.3,3.629898,11.3L20.3701,11.3Q20.7,11.3,20.7,11.606469ZM14.6095,12.68448Q14.9394,12.68448,14.9394,12.99095L14.9394,19.60689L20.5801,19.60689L20.5801,11.393107L3.419658,11.393107L3.419658,19.60689L4.73954,19.60689L4.73954,12.99095Q4.73954,12.86735,4.83211,12.77823Q4.92947,12.68448,5.06944,12.68448L14.6095,12.68448ZM15.5394,19.00689L15.5394,12.99095Q15.5394,12.61214,15.2629,12.346Q14.9913,12.08448,14.6095,12.08448L5.06944,12.08448Q4.6875800000000005,12.08448,4.41596,12.346Q4.13954,12.61214,4.13954,12.99095L4.13954,19.00689L4.01966,19.00689L4.01966,11.993107L19.9801,11.993107L19.9801,19.00689L15.5394,19.00689Z" fill-rule="evenodd" fill="#333333" fill-opacity="1"/></g><g><path d="M9.5,11C9.223857,11,9,10.925705,9,10.834059L9,10.165941C9,10.0742941,9.223857,10,9.5,10C9.776143,10,10,10.0742941,10,10.165941L10,10.834059C10,10.925705,9.776143,11,9.5,11Z" fill="#333333" fill-opacity="1"/><path d="M9.500001,11.3Q10.3,11.3,10.3,10.834059L10.3,10.165941Q10.3,9.88068,9.94805,9.763874Q9.755589,9.7,9.5,9.7Q8.7,9.7,8.7,10.165941L8.7,10.834059Q8.7,11.3,9.500001,11.3ZM9.7,10.682359L9.7,10.317641Q9.615399,10.3,9.5,10.3Q9.384601,10.3,9.3,10.317641L9.3,10.682359Q9.384601,10.7,9.499999,10.7Q9.615399,10.7,9.7,10.682359Z" fill-rule="evenodd" fill="#333333" fill-opacity="1"/></g><g><path d="M13.32702,10L4.67298,10C4.301304,10,4,9.69509,4,9.31897L4,3.681029C4,3.304907,4.301304,3,4.67298,3L13.32702,3C13.6987,3,14,3.304907,14,3.681029L14,9.31897C14,9.69509,13.6987,10,13.32702,10ZM4.768639,9.22168L13.23088,9.22168L13.23088,3.778318L4.76912,3.778318L4.768639,9.22168Z" fill="#333333" fill-opacity="1"/><path d="M14.0163,10.0114Q14.3,9.72428,14.3,9.31897L14.3,3.681029Q14.3,3.275717,14.0163,2.9886013Q13.73109,2.7,13.32702,2.7L4.67298,2.7Q4.268913,2.7,3.983722,2.9886013Q3.7,3.275717,3.7,3.681029L3.7,9.31897Q3.7,9.72428,3.9837221,10.0114Q4.268913,10.3,4.67298,10.3L13.32702,10.3Q13.73109,10.3,14.0163,10.0114ZM13.7,3.681029L13.7,9.31897Q13.7,9.7,13.32702,9.7L4.67298,9.7Q4.3,9.7,4.3,9.31897L4.3,3.681029Q4.3,3.3,4.67298,3.3L13.32702,3.3Q13.7,3.3,13.7,3.681029ZM13.53088,3.478318L4.469146,3.478318L4.46912,3.778292L4.468613,9.52168L13.53088,9.52168L13.53088,3.478318ZM5.06909,4.07832L5.06867,8.92168L12.93088,8.92168L12.93088,4.07832L5.06909,4.07832Z" fill-rule="evenodd" fill="#333333" fill-opacity="1"/></g><g><path d="M16.399825,11C16.179008,11,16,10.84028,16,10.64326L16,7.78462C16,7.5875900000000005,16.179008,7.42787,16.399825,7.42787C16.620643,7.42787,16.79965,7.5875900000000005,16.79965,7.78462L16.79965,10.64326C16.79965,10.84028,16.620643,11,16.399825,11ZM19.60018,11C19.37936,11,19.20035,10.84028,19.20035,10.64326L19.20035,6.356745C19.20035,6.15972,19.37936,6,19.60018,6C19.820990000000002,6,20,6.15972,20,6.356745L20,10.64326C20,10.84028,19.820990000000002,11,19.60018,11Z" fill="#333333" fill-opacity="1"/><path d="M20.08262,11.11936Q20.3,10.92541,20.3,10.64326L20.3,6.356745Q20.3,6.0745946,20.08262,5.88064Q19.88017,5.7,19.60018,5.7Q19.32018,5.7,19.11773,5.880639Q18.90035,6.0745941,18.90035,6.356745L18.90035,10.64326Q18.90035,10.92541,19.11773,11.11936Q19.32018,11.3,19.60018,11.3Q19.88017,11.3,20.08262,11.11936ZM19.7,6.356745L19.7,10.64326Q19.7,10.7,19.60017,10.7Q19.50035,10.7,19.50035,10.64326L19.50035,6.356745Q19.50035,6.343358,19.51719,6.328337Q19.54894,6.3,19.60018,6.3Q19.67562,6.3,19.69405,6.332413Q19.7,6.342887,19.7,6.356745ZM16.882273,11.11936Q17.09965,10.92541,17.09965,10.64326L17.09965,7.78462Q17.09965,7.50246,16.882274,7.30851Q16.67982,7.12787,16.399825,7.12787Q16.11983,7.12787,15.9173766,7.30851Q15.7,7.50246,15.7,7.78462L15.7,10.64326Q15.7,10.92541,15.9173767,11.11936Q16.119829,11.3,16.399826,11.3Q16.679821,11.3,16.882273,11.11936ZM16.49965,7.78462L16.49965,10.64326Q16.49965,10.7,16.399824,10.7Q16.3,10.7,16.3,10.64326L16.3,7.78462Q16.3,7.72787,16.399825,7.72787Q16.49965,7.72787,16.49965,7.78462Z" fill-rule="evenodd" fill="#333333" fill-opacity="1"/></g></g></svg>