<svg xmlns="http://www.w3.org/2000/svg" xmlns:xlink="http://www.w3.org/1999/xlink" fill="none" version="1.1" width="24" height="24" viewBox="0 0 24 24"><defs><clipPath id="master_svg0_112_08334"><rect x="0" y="0" width="24" height="24" rx="0"/></clipPath></defs><g clip-path="url(#master_svg0_112_08334)"><g><path d="M19.3592,4L4.63636,4C3.733696,4,3,4.7400210000000005,3,5.65047L3,15.0824C3,15.9928,3.733696,16.732799999999997,4.63636,16.732799999999997L9.97233,16.732799999999997L9.97233,17.8788L8.418230000000001,17.8788C8.11141,17.8788,7.8624,18.1299,7.8624,18.4394C7.8624,18.7488,8.11141,19,8.418230000000001,19L15.5506,19C15.8575,19,16.1065,18.7488,16.1065,18.4394C16.1065,18.1299,15.8575,17.8788,15.5506,17.8788L13.9965,17.8788L13.9965,16.732799999999997L19.3636,16.732799999999997C20.2663,16.732799999999997,21,15.9928,21,15.0824L21,5.65271C20.9956,4.742263,20.2619,4,19.3592,4ZM4.63636,5.12124L19.3592,5.12124C19.6482,5.12124,19.8839,5.35895,19.8839,5.65047L19.8839,12.47436L4.1116600000000005,12.47436L4.1116600000000005,5.65271C4.1116600000000005,5.35895,4.3473299999999995,5.12124,4.63636,5.12124ZM12.88043,17.881L11.08177,17.881L11.08177,16.7351L12.88043,16.7351L12.88043,17.881ZM19.3592,15.6138L4.63636,15.6138C4.3473299999999995,15.6138,4.1116600000000005,15.3761,4.1116600000000005,15.0846L4.1116600000000005,13.59785L19.8861,13.59785L19.8861,15.0846C19.8839,15.3761,19.6482,15.6138,19.3592,15.6138Z" fill="#333333" fill-opacity="1"/><path d="M21.15,15.0824L21.15,5.65271L21.15,5.65198Q21.1464,4.907254,20.6229,4.379328Q20.0981,3.85,19.3592,3.85L4.63636,3.85Q3.896853,3.85,3.373161,4.378207Q2.85,4.9058779999999995,2.85,5.65047L2.85,15.0824Q2.85,15.827,3.373161,16.354599999999998Q3.896851,16.8828,4.63636,16.8828L9.822330000000001,16.8828L9.822330000000001,17.7288L8.418230000000001,17.7288Q8.12561,17.7288,7.91874,17.9374Q7.7124,18.1455,7.7124,18.4394Q7.7124,18.7332,7.91874,18.9413Q8.12561,19.15,8.418230000000001,19.15L15.5506,19.15Q15.8433,19.15,16.0501,18.9413Q16.256500000000003,18.7332,16.256500000000003,18.4394Q16.256500000000003,18.1455,16.0501,17.9374Q15.8433,17.7288,15.5506,17.7288L14.1465,17.7288L14.1465,16.8828L19.3636,16.8828Q20.1031,16.8828,20.6268,16.354599999999998Q21.15,15.827,21.15,15.0824ZM20.85,5.65271L20.85,5.65345L20.85,15.0824Q20.85,15.7035,20.4138,16.1434Q19.9781,16.5828,19.3636,16.5828L13.8465,16.5828L13.8465,18.0288L15.5506,18.0288Q15.7182,18.0288,15.8371,18.148600000000002Q15.9565,18.269,15.9565,18.4394Q15.9565,18.6097,15.8371,18.7301Q15.7182,18.85,15.5506,18.85L8.418230000000001,18.85Q8.0124,18.85,8.0124,18.4394Q8.0124,18.0288,8.418230000000001,18.0288L10.12233,18.0288L10.12233,16.5828L4.63636,16.5828Q4.02187,16.5828,3.586202,16.1434Q3.15,15.7035,3.15,15.0824L3.15,5.65047Q3.15,5.02939,3.586202,4.589427Q4.02187,4.15,4.63636,4.15L19.3592,4.15Q19.9731,4.15,20.4099,4.590548Q20.8467,5.03111,20.85,5.65271ZM4.15895,5.17136Q3.96166,5.37094,3.96166,5.65271L3.96166,12.62436L20.0339,12.62436L20.0339,5.65047Q20.0339,5.37007,19.8364,5.17093Q19.6385,4.971244,19.3592,4.971244L4.63636,4.971244Q4.3567800000000005,4.971244,4.15895,5.17136ZM4.26166,12.32436L4.26166,5.65271Q4.26166,5.27124,4.63636,5.27124L19.3592,5.27124Q19.7339,5.27124,19.7339,5.65047L19.7339,12.32436L4.26166,12.32436ZM19.8366,15.5643Q20.034,15.3658,20.0361,15.0858L20.0361,15.0846L20.0361,13.44785L3.96166,13.44785L3.96166,15.0846Q3.96166,15.365,4.1591000000000005,15.5642Q4.35708,15.7638,4.63636,15.7638L19.3592,15.7638Q19.6382,15.7638,19.8366,15.5643ZM19.7361,13.74785L19.7361,15.084L19.7361,15.0846Q19.7327,15.4638,19.3592,15.4638L4.63636,15.4638Q4.4821,15.4638,4.3721499999999995,15.3529Q4.26166,15.2415,4.26166,15.0846L4.26166,13.74785L19.7361,13.74785ZM13.0304,18.031L13.0304,16.5851L10.93177,16.5851L10.93177,18.031L13.0304,18.031ZM12.73044,16.8851L12.73044,17.731L11.23177,17.731L11.23177,16.8851L12.73044,16.8851Z" fill-rule="evenodd" fill="#333333" fill-opacity="1"/></g></g></svg>