<svg xmlns="http://www.w3.org/2000/svg" xmlns:xlink="http://www.w3.org/1999/xlink" fill="none" version="1.1" width="20" height="20" viewBox="0 0 20 20"><g><g><g><g><path d="M18.029595422363283,8.02959542236328Q18.833295422363282,7.225865422363281,18.833295422363282,6.100005422363282L18.833295422363282,3.9083354223632814Q18.833295422363282,2.781415422363281,18.03319542236328,1.9791934223632812Q17.231095422363282,1.1749954223632812,16.099995422363282,1.1749954223632812L3.9083354223632814,1.1749954223632812Q2.781415422363281,1.1749954223632812,1.9791924223632813,1.9751574223632813Q1.1749954223632812,2.7772854223632812,1.1749954223632812,3.9083354223632814L1.1749954223632812,6.100005422363282Q1.1749954223632812,7.226925422363281,1.9751584223632812,8.029145422363282Q2.7772854223632812,8.83333542236328,3.9083354223632814,8.83333542236328L16.099995422363282,8.83333542236328Q17.22589542236328,8.83333542236328,18.029595422363283,8.02959542236328ZM17.833295422363282,3.9083354223632814L17.833295422363282,6.100005422363282Q17.833295422363282,6.811645422363282,17.322495422363282,7.322495422363281Q16.81169542236328,7.833335422363281,16.099995422363282,7.833335422363281L3.9083354223632814,7.833335422363281Q3.1922554223632815,7.833335422363281,2.6831754223632815,7.322945422363281Q2.1749954223632812,6.813465422363281,2.1749954223632812,6.100005422363282L2.1749954223632812,3.9083354223632814Q2.1749954223632812,3.1922554223632815,2.6853854223632814,2.6831754223632815Q3.194875422363281,2.1749954223632812,3.9083354223632814,2.1749954223632812L16.099995422363282,2.1749954223632812Q16.816095422363283,2.1749954223632812,17.32519542236328,2.6853854223632814Q17.833295422363282,3.194875422363281,17.833295422363282,3.9083354223632814Z" fill-rule="evenodd" fill="#000000" fill-opacity="1"/></g><g><path d="M18.029595422363283,18.02959542236328Q18.833295422363282,17.22586542236328,18.833295422363282,16.10000542236328L18.833295422363282,13.908335422363281Q18.833295422363282,12.781415422363281,18.03319542236328,11.97919342236328Q17.231095422363282,11.174995422363281,16.099995422363282,11.174995422363281L3.9083354223632814,11.174995422363281Q2.781415422363281,11.174995422363281,1.9791924223632813,11.975157422363282Q1.1749954223632812,12.777285422363281,1.1749954223632812,13.908335422363281L1.1749954223632812,16.10000542236328Q1.1749954223632812,17.22692542236328,1.9751584223632812,18.029145422363282Q2.7772854223632812,18.83333542236328,3.9083354223632814,18.83333542236328L16.099995422363282,18.83333542236328Q17.22589542236328,18.83333542236328,18.029595422363283,18.02959542236328ZM17.833295422363282,13.908335422363281L17.833295422363282,16.10000542236328Q17.833295422363282,16.81164542236328,17.322495422363282,17.322495422363282Q16.81169542236328,17.83333542236328,16.099995422363282,17.83333542236328L3.9083354223632814,17.83333542236328Q3.1922554223632815,17.83333542236328,2.6831754223632815,17.322945422363283Q2.1749954223632812,16.81346542236328,2.1749954223632812,16.10000542236328L2.1749954223632812,13.908335422363281Q2.1749954223632812,13.192255422363282,2.6853854223632814,12.68317542236328Q3.194875422363281,12.174995422363281,3.9083354223632814,12.174995422363281L16.099995422363282,12.174995422363281Q16.816095422363283,12.174995422363281,17.32519542236328,12.68538542236328Q17.833295422363282,13.194875422363282,17.833295422363282,13.908335422363281Z" fill-rule="evenodd" fill="#000000" fill-opacity="1"/></g><g><path d="M4.5,4.166666507720947L4.5,5.833336507720947Q4.5,5.882576507720947,4.509607,5.9308765077209475Q4.519215,5.979176507720947,4.53806,6.024676507720947Q4.556906,6.070176507720947,4.584265,6.111116507720947Q4.611625,6.1520665077209475,4.646447,6.186886507720947Q4.681269,6.221706507720947,4.722215,6.249066507720947Q4.763161,6.276426507720947,4.808658,6.295276507720947Q4.854155,6.314116507720947,4.9024549,6.323726507720947Q4.9507543,6.333336507720947,5,6.333336507720947Q5.0492457,6.333336507720947,5.0975451,6.323726507720947Q5.145845,6.314116507720947,5.191342,6.295276507720947Q5.236839,6.276426507720947,5.277785,6.249066507720947Q5.318731,6.221706507720947,5.353553,6.186886507720947Q5.388375,6.1520665077209475,5.415735,6.111116507720947Q5.443094,6.070176507720947,5.46194,6.024676507720947Q5.480785,5.979176507720947,5.490393,5.9308765077209475Q5.5,5.882576507720947,5.5,5.833336507720947L5.5,4.166666507720947Q5.5,4.117420807720947,5.490393,4.069121407720948Q5.480785,4.020821507720948,5.46194,3.975324507720947Q5.443094,3.9298275077209475,5.415735,3.888881507720947Q5.388375,3.847935507720947,5.353553,3.8131135077209475Q5.318731,3.7782915077209474,5.277785,3.750931507720947Q5.236839,3.7235725077209474,5.191342,3.704726507720947Q5.145845,3.6858815077209472,5.0975451,3.676273507720947Q5.0492457,3.6666665077209473,5,3.6666665077209473Q4.9507543,3.6666665077209473,4.9024549,3.676273507720947Q4.854155,3.6858815077209472,4.808658,3.704726507720947Q4.763161,3.7235725077209474,4.722215,3.750931507720947Q4.681269,3.7782915077209474,4.646447,3.8131135077209475Q4.611625,3.847935507720947,4.584265,3.888881507720947Q4.556906,3.9298275077209475,4.53806,3.975324507720947Q4.519215,4.020821507720948,4.509607,4.069121407720948Q4.5,4.117420807720947,4.5,4.166666507720947Z" fill-rule="evenodd" fill="#000000" fill-opacity="1"/></g><g><path d="M7.8333330154418945,4.166666507720947L7.8333330154418945,5.833336507720947Q7.8333330154418945,5.882576507720947,7.8429400154418945,5.9308765077209475Q7.8525480154418945,5.979176507720947,7.871393015441894,6.024676507720947Q7.890239015441894,6.070176507720947,7.917598015441895,6.111116507720947Q7.944958015441895,6.1520665077209475,7.979780015441895,6.186886507720947Q8.014602015441895,6.221706507720947,8.055548015441895,6.249066507720947Q8.096494015441895,6.276426507720947,8.141991015441894,6.295276507720947Q8.187488015441895,6.314116507720947,8.235787915441895,6.323726507720947Q8.284087315441894,6.333336507720947,8.333333015441895,6.333336507720947Q8.382578715441895,6.333336507720947,8.430878115441894,6.323726507720947Q8.479178015441894,6.314116507720947,8.524675015441895,6.295276507720947Q8.570172015441894,6.276426507720947,8.611118015441894,6.249066507720947Q8.652064015441894,6.221706507720947,8.686886015441894,6.186886507720947Q8.721708015441894,6.1520665077209475,8.749068015441894,6.111116507720947Q8.776427015441895,6.070176507720947,8.795273015441895,6.024676507720947Q8.814118015441895,5.979176507720947,8.823726015441894,5.9308765077209475Q8.833333015441895,5.882576507720947,8.833333015441895,5.833336507720947L8.833333015441895,4.166666507720947Q8.833333015441895,4.117420807720947,8.823726015441894,4.069121407720948Q8.814118015441895,4.020821507720948,8.795273015441895,3.975324507720947Q8.776427015441895,3.9298275077209475,8.749068015441894,3.888881507720947Q8.721708015441894,3.847935507720947,8.686886015441894,3.8131135077209475Q8.652064015441894,3.7782915077209474,8.611118015441894,3.750931507720947Q8.570172015441894,3.7235725077209474,8.524675015441895,3.704726507720947Q8.479178015441894,3.6858815077209472,8.430878115441894,3.676273507720947Q8.382578715441895,3.6666665077209473,8.333333015441895,3.6666665077209473Q8.284087315441894,3.6666665077209473,8.235787915441895,3.676273507720947Q8.187488015441895,3.6858815077209472,8.141991015441894,3.704726507720947Q8.096494015441895,3.7235725077209474,8.055548015441895,3.750931507720947Q8.014602015441895,3.7782915077209474,7.979780015441895,3.8131135077209475Q7.944958015441895,3.847935507720947,7.917598015441895,3.888881507720947Q7.890239015441894,3.9298275077209475,7.871393015441894,3.975324507720947Q7.8525480154418945,4.020821507720948,7.8429400154418945,4.069121407720948Q7.8333330154418945,4.117420807720947,7.8333330154418945,4.166666507720947Z" fill-rule="evenodd" fill="#000000" fill-opacity="1"/></g><g><path d="M4.5,14.166666030883789L4.5,15.833336030883789Q4.5,15.88257603088379,4.509607,15.93087603088379Q4.519215,15.979176030883789,4.53806,16.02467603088379Q4.556906,16.07017603088379,4.584265,16.11111603088379Q4.611625,16.152066030883788,4.646447,16.18688603088379Q4.681269,16.221706030883787,4.722215,16.24906603088379Q4.763161,16.27642603088379,4.808658,16.29527603088379Q4.854155,16.31411603088379,4.9024549,16.32372603088379Q4.9507543,16.33333603088379,5,16.33333603088379Q5.0492457,16.33333603088379,5.0975451,16.32372603088379Q5.145845,16.31411603088379,5.191342,16.29527603088379Q5.236839,16.27642603088379,5.277785,16.24906603088379Q5.318731,16.221706030883787,5.353553,16.18688603088379Q5.388375,16.152066030883788,5.415735,16.11111603088379Q5.443094,16.07017603088379,5.46194,16.02467603088379Q5.480785,15.979176030883789,5.490393,15.93087603088379Q5.5,15.88257603088379,5.5,15.833336030883789L5.5,14.166666030883789Q5.5,14.117420330883789,5.490393,14.06912093088379Q5.480785,14.02082103088379,5.46194,13.975324030883788Q5.443094,13.92982703088379,5.415735,13.88888103088379Q5.388375,13.84793503088379,5.353553,13.81311303088379Q5.318731,13.77829103088379,5.277785,13.75093103088379Q5.236839,13.723572030883789,5.191342,13.704726030883789Q5.145845,13.685881030883788,5.0975451,13.67627303088379Q5.0492457,13.666666030883789,5,13.666666030883789Q4.9507543,13.666666030883789,4.9024549,13.67627303088379Q4.854155,13.685881030883788,4.808658,13.704726030883789Q4.763161,13.723572030883789,4.722215,13.75093103088379Q4.681269,13.77829103088379,4.646447,13.81311303088379Q4.611625,13.84793503088379,4.584265,13.88888103088379Q4.556906,13.92982703088379,4.53806,13.975324030883788Q4.519215,14.02082103088379,4.509607,14.06912093088379Q4.5,14.117420330883789,4.5,14.166666030883789Z" fill-rule="evenodd" fill="#000000" fill-opacity="1"/></g><g><path d="M7.8333330154418945,14.166666030883789L7.8333330154418945,15.833336030883789Q7.8333330154418945,15.88257603088379,7.8429400154418945,15.93087603088379Q7.8525480154418945,15.979176030883789,7.871393015441894,16.02467603088379Q7.890239015441894,16.07017603088379,7.917598015441895,16.11111603088379Q7.944958015441895,16.152066030883788,7.979780015441895,16.18688603088379Q8.014602015441895,16.221706030883787,8.055548015441895,16.24906603088379Q8.096494015441895,16.27642603088379,8.141991015441894,16.29527603088379Q8.187488015441895,16.31411603088379,8.235787915441895,16.32372603088379Q8.284087315441894,16.33333603088379,8.333333015441895,16.33333603088379Q8.382578715441895,16.33333603088379,8.430878115441894,16.32372603088379Q8.479178015441894,16.31411603088379,8.524675015441895,16.29527603088379Q8.570172015441894,16.27642603088379,8.611118015441894,16.24906603088379Q8.652064015441894,16.221706030883787,8.686886015441894,16.18688603088379Q8.721708015441894,16.152066030883788,8.749068015441894,16.11111603088379Q8.776427015441895,16.07017603088379,8.795273015441895,16.02467603088379Q8.814118015441895,15.979176030883789,8.823726015441894,15.93087603088379Q8.833333015441895,15.88257603088379,8.833333015441895,15.833336030883789L8.833333015441895,14.166666030883789Q8.833333015441895,14.117420330883789,8.823726015441894,14.06912093088379Q8.814118015441895,14.02082103088379,8.795273015441895,13.975324030883788Q8.776427015441895,13.92982703088379,8.749068015441894,13.88888103088379Q8.721708015441894,13.84793503088379,8.686886015441894,13.81311303088379Q8.652064015441894,13.77829103088379,8.611118015441894,13.75093103088379Q8.570172015441894,13.723572030883789,8.524675015441895,13.704726030883789Q8.479178015441894,13.685881030883788,8.430878115441894,13.67627303088379Q8.382578715441895,13.666666030883789,8.333333015441895,13.666666030883789Q8.284087315441894,13.666666030883789,8.235787915441895,13.67627303088379Q8.187488015441895,13.685881030883788,8.141991015441894,13.704726030883789Q8.096494015441895,13.723572030883789,8.055548015441895,13.75093103088379Q8.014602015441895,13.77829103088379,7.979780015441895,13.81311303088379Q7.944958015441895,13.84793503088379,7.917598015441895,13.88888103088379Q7.890239015441894,13.92982703088379,7.871393015441894,13.975324030883788Q7.8525480154418945,14.02082103088379,7.8429400154418945,14.06912093088379Q7.8333330154418945,14.117420330883789,7.8333330154418945,14.166666030883789Z" fill-rule="evenodd" fill="#000000" fill-opacity="1"/></g><g><path d="M11.666666030883789,5.5L14.99999603088379,5.5Q15.04924603088379,5.5,15.09754603088379,5.490393Q15.145846030883789,5.480785,15.19133603088379,5.46194Q15.23683603088379,5.443094,15.277786030883789,5.415735Q15.31872603088379,5.388375,15.353556030883789,5.353553Q15.388376030883789,5.318731,15.415736030883789,5.277785Q15.443096030883789,5.236839,15.46193603088379,5.191342Q15.480786030883788,5.145845,15.490396030883788,5.0975451Q15.49999603088379,5.0492457,15.49999603088379,5Q15.49999603088379,4.9507543,15.490396030883788,4.9024549Q15.480786030883788,4.854155,15.46193603088379,4.808658Q15.443096030883789,4.763161,15.415736030883789,4.722215Q15.388376030883789,4.681269,15.353556030883789,4.646447Q15.31872603088379,4.611625,15.277786030883789,4.584265Q15.23683603088379,4.556906,15.19133603088379,4.53806Q15.145846030883789,4.519215,15.09754603088379,4.509607Q15.04924603088379,4.5,14.99999603088379,4.5L11.666666030883789,4.5Q11.617420330883789,4.5,11.56912093088379,4.509607Q11.52082103088379,4.519215,11.475324030883788,4.53806Q11.42982703088379,4.556906,11.38888103088379,4.584265Q11.34793503088379,4.611625,11.31311303088379,4.646447Q11.27829103088379,4.681269,11.25093103088379,4.722215Q11.223572030883789,4.763161,11.204726030883789,4.808658Q11.185881030883788,4.854155,11.17627303088379,4.9024549Q11.166666030883789,4.9507543,11.166666030883789,5Q11.166666030883789,5.0492457,11.17627303088379,5.0975451Q11.185881030883788,5.145845,11.204726030883789,5.191342Q11.223572030883789,5.236839,11.25093103088379,5.277785Q11.27829103088379,5.318731,11.31311303088379,5.353553Q11.34793503088379,5.388375,11.38888103088379,5.415735Q11.42982703088379,5.443094,11.475324030883788,5.46194Q11.52082103088379,5.480785,11.56912093088379,5.490393Q11.617420330883789,5.5,11.666666030883789,5.5Z" fill-rule="evenodd" fill="#000000" fill-opacity="1"/></g><g><path d="M11.666666030883789,15.5L14.99999603088379,15.5Q15.04924603088379,15.5,15.09754603088379,15.490393Q15.145846030883789,15.480785000000001,15.19133603088379,15.46194Q15.23683603088379,15.443094,15.277786030883789,15.415735Q15.31872603088379,15.388375,15.353556030883789,15.353553Q15.388376030883789,15.318731,15.415736030883789,15.277785Q15.443096030883789,15.236839,15.46193603088379,15.191342Q15.480786030883788,15.145845,15.490396030883788,15.0975451Q15.49999603088379,15.0492457,15.49999603088379,15Q15.49999603088379,14.9507543,15.490396030883788,14.9024549Q15.480786030883788,14.854155,15.46193603088379,14.808658Q15.443096030883789,14.763161,15.415736030883789,14.722215Q15.388376030883789,14.681269,15.353556030883789,14.646447Q15.31872603088379,14.611625,15.277786030883789,14.584265Q15.23683603088379,14.556906,15.19133603088379,14.53806Q15.145846030883789,14.519214999999999,15.09754603088379,14.509607Q15.04924603088379,14.5,14.99999603088379,14.5L11.666666030883789,14.5Q11.617420330883789,14.5,11.56912093088379,14.509607Q11.52082103088379,14.519214999999999,11.475324030883788,14.53806Q11.42982703088379,14.556906,11.38888103088379,14.584265Q11.34793503088379,14.611625,11.31311303088379,14.646447Q11.27829103088379,14.681269,11.25093103088379,14.722215Q11.223572030883789,14.763161,11.204726030883789,14.808658Q11.185881030883788,14.854155,11.17627303088379,14.9024549Q11.166666030883789,14.9507543,11.166666030883789,15Q11.166666030883789,15.0492457,11.17627303088379,15.0975451Q11.185881030883788,15.145845,11.204726030883789,15.191342Q11.223572030883789,15.236839,11.25093103088379,15.277785Q11.27829103088379,15.318731,11.31311303088379,15.353553Q11.34793503088379,15.388375,11.38888103088379,15.415735Q11.42982703088379,15.443094,11.475324030883788,15.46194Q11.52082103088379,15.480785000000001,11.56912093088379,15.490393Q11.617420330883789,15.5,11.666666030883789,15.5Z" fill-rule="evenodd" fill="#000000" fill-opacity="1"/></g><g style="opacity:0;"></g></g></g></g></svg>