<svg xmlns="http://www.w3.org/2000/svg" xmlns:xlink="http://www.w3.org/1999/xlink" fill="none" version="1.1" width="14" height="14" viewBox="0 0 14 14"><g><g><rect x="0" y="0" width="14" height="14.000000953674316" rx="0" fill="#FFFFFF" fill-opacity="0"/></g><g><path d="M7.31149701171875,3.714380505859375Q10.31175701171875,3.830741505859375,12.48938701171875,5.894473505859375Q12.55908701171875,5.960493505859375,12.64818701171875,5.996023505859375Q12.73738701171875,6.0315535058593746,12.83338701171875,6.0315535058593746Q12.84008701171875,6.0315535058593746,12.84678701171875,6.031373505859375Q12.94618701171875,6.028703505859375,13.03698701171875,5.988193505859375Q13.12788701171875,5.947673505859375,13.19628701171875,5.875483505859375Q13.26228701171875,5.805823505859375,13.29778701171875,5.716673505859375Q13.33338701171875,5.627523505859375,13.33338701171875,5.5315535058593746L13.33338701171875,5.530113505859375Q13.33328701171875,5.524123505859375,13.33318701171875,5.518123505859375Q13.33048701171875,5.418703505859375,13.28998701171875,5.327873505859375Q13.24948701171875,5.237043505859376,13.17728701171875,5.1686335058593755Q10.72649701171875,2.846076505859375,7.35025701171875,2.715132505859375Q3.99290701171875,2.584921505859375,1.38379401171875,4.6790035058593755Q1.09390501171875,4.911683505859375,0.8229900117187501,5.168413505859375L0.82284401171875,5.168553505859375L0.82275301171875,5.1686335058593755Q0.74802801171875,5.239453505859375,0.70735801171875,5.334023505859375Q0.66668701171875,5.428603505859375,0.66668701171875,5.5315535058593746Q0.66668701171875,5.537783505859375,0.66684201171875,5.544013505859375Q0.6691530117187501,5.636723505859376,0.70456201171875,5.722443505859375Q0.73997201171875,5.808173505859375,0.8037690117187499,5.875483505859375Q0.8721810117187501,5.947673505859375,0.96301201171875,5.988193505859375Q1.05384201171875,6.028703505859375,1.15326281171875,6.031373505859375Q1.15997368171875,6.0315535058593746,1.16668701171875,6.0315535058593746L1.17728781171875,6.031443505859375Q1.27049301171875,6.0294635058593755,1.35672301171875,5.994033505859376Q1.44295401171875,5.958603505859375,1.51062101171875,5.894473505859375L1.51064001171875,5.894453505859375L1.51097101171875,5.894143505859375Q1.7519900117187501,5.665753505859374,2.00972601171875,5.458883505859375Q4.32747701171875,3.598648505859375,7.31149701171875,3.714380505859375Z" fill-rule="evenodd" fill="#000000" fill-opacity="1"/></g><g><path d="M7.00001701171875,5.333343505859375Q4.40095701171875,5.333343505859375,2.56313401171875,7.171163505859375Q2.49280701171875,7.241493505859375,2.4547470117187498,7.333373505859375Q2.41668701171875,7.425263505859375,2.41668701171875,7.524713505859375Q2.41668701171875,7.624173505859375,2.4547470117187498,7.716063505859375Q2.49280701171875,7.807943505859375,2.56313401171875,7.878273505859375Q2.63346001171875,7.948593505859375,2.72534501171875,7.986653505859374Q2.81723081171875,8.024713505859374,2.91668701171875,8.024713505859374Q3.01614321171875,8.024713505859374,3.10802901171875,7.986653505859374Q3.19991401171875,7.948593505859375,3.27024001171875,7.878273505859375Q4.81516701171875,6.333343505859375,7.00001701171875,6.333343505859375Q9.184867011718751,6.333343505859375,10.72979701171875,7.878273505859375Q10.80012701171875,7.948593505859375,10.89201701171875,7.986653505859374Q10.98389701171875,8.024713505859374,11.08335701171875,8.024713505859374Q11.18280701171875,8.024723505859376,11.27469701171875,7.986653505859374Q11.36657701171875,7.948593505859375,11.43690701171875,7.878273505859375Q11.50723701171875,7.807943505859375,11.54529701171875,7.716063505859375Q11.58335701171875,7.624173505859375,11.58335701171875,7.524713505859375Q11.58335701171875,7.512703505859375,11.58277701171875,7.500703505859375Q11.57829701171875,7.407583505859375,11.54056701171875,7.322333505859375Q11.50282701171875,7.237083505859375,11.43690701171875,7.171163505859375Q9.599087011718751,5.333343505859375,7.00001701171875,5.333343505859375Z" fill-rule="evenodd" fill="#000000" fill-opacity="1"/></g><g><path d="M7.00001701171875,7.95831298828125Q5.42608301171875,7.95831298828125,4.31313401171875,9.07126298828125Q4.24280701171875,9.14158898828125,4.20474701171875,9.23347498828125Q4.16668701171875,9.32535998828125,4.16668701171875,9.42481698828125Q4.16668701171875,9.52427298828125,4.20474701171875,9.61616298828125Q4.24280801171875,9.70804298828125,4.31313401171875,9.77837298828125Q4.38346001171875,9.84869298828125,4.47534501171875,9.88675298828125Q4.56723081171875,9.92481298828125,4.66668701171875,9.92481298828125Q4.76614321171875,9.92481298828125,4.85802901171875,9.88675298828125Q4.94991401171875,9.84869298828125,5.02024001171875,9.77837298828125Q5.84029701171875,8.95831298828125,7.00001701171875,8.95831298828125Q8.15945701171875,8.95831298828125,8.97938701171875,9.77796298828125L8.97979701171875,9.77837298828125Q9.05012701171875,9.84869298828125,9.14200701171875,9.88675298828125Q9.23389701171875,9.92481298828125,9.33335701171875,9.92481298828125Q9.34536701171875,9.92481298828125,9.35736701171875,9.92424298828125Q9.45048701171875,9.91976298828125,9.53573701171875,9.88202298828125Q9.62098701171875,9.84429298828125,9.68690701171875,9.77837298828125Q9.75723701171875,9.70804298828125,9.79529701171875,9.61616298828125Q9.83335701171875,9.52427298828125,9.83335701171875,9.42481698828125Q9.83335701171875,9.32535998828125,9.79529701171875,9.23347498828125Q9.75723701171875,9.14158898828125,9.68690701171875,9.07126298828125Q8.57395701171875,7.95831298828125,7.00001701171875,7.95831298828125Z" fill-rule="evenodd" fill="#000000" fill-opacity="1"/></g><g><path d="M7.72914298828125,10.937510505859375Q7.72914298828125,11.009326505859375,7.71513298828125,11.079763505859376Q7.70112298828125,11.150200505859376,7.67364298828125,11.216553505859375Q7.64616298828125,11.282903505859375,7.60626298828125,11.342613505859376Q7.56636298828125,11.402323505859375,7.51558298828125,11.453113505859374Q7.46479298828125,11.503893505859375,7.40508298828125,11.543793505859375Q7.34537298828125,11.583693505859376,7.27902298828125,11.611173505859375Q7.21266998828125,11.638653505859375,7.14223298828125,11.652663505859374Q7.0717959882812504,11.666673505859375,6.99997998828125,11.666673505859375Q6.92816298828125,11.666673505859375,6.85772598828125,11.652663505859374Q6.78728998828125,11.638653505859375,6.72093998828125,11.611173505859375Q6.65458998828125,11.583693505859376,6.59487598828125,11.543793505859375Q6.53516298828125,11.503893505859375,6.48438098828125,11.453113505859374Q6.43359898828125,11.402323505859375,6.39369998828125,11.342613505859376Q6.35380048828125,11.282903505859375,6.32631748828125,11.216553505859375Q6.29883448828125,11.150200505859376,6.28482368828125,11.079763505859376Q6.27081298828125,11.009326505859375,6.27081298828125,10.937510505859375Q6.27081298828125,10.865693505859374,6.28482368828125,10.795256505859374Q6.29883448828125,10.724820505859375,6.32631748828125,10.658470505859375Q6.35380048828125,10.592120505859375,6.39369998828125,10.532406505859376Q6.43359898828125,10.472693505859375,6.48438098828125,10.421911505859375Q6.53516298828125,10.371129505859376,6.59487598828125,10.331230505859375Q6.65458998828125,10.291331005859375,6.72093998828125,10.263848005859375Q6.78728998828125,10.236365005859374,6.85772598828125,10.222354205859375Q6.92816298828125,10.208343505859375,6.99997998828125,10.208343505859375Q7.0717959882812504,10.208343505859375,7.14223298828125,10.222354205859375Q7.21266998828125,10.236365005859374,7.27902298828125,10.263848005859375Q7.34537298828125,10.291331005859375,7.40508298828125,10.331230505859375Q7.46479298828125,10.371129505859376,7.51558298828125,10.421911505859375Q7.56636298828125,10.472693505859375,7.60626298828125,10.532406505859376Q7.64616298828125,10.592120505859375,7.67364298828125,10.658470505859375Q7.70112298828125,10.724820505859375,7.71513298828125,10.795256505859374Q7.72914298828125,10.865693505859374,7.72914298828125,10.937510505859375Z" fill="#000000" fill-opacity="1"/></g></g></svg>