<svg xmlns="http://www.w3.org/2000/svg" xmlns:xlink="http://www.w3.org/1999/xlink" fill="none" version="1.1" width="8.169921875" height="8.169921875" viewBox="0 0 8.169921875 8.169921875"><g><g></g><g><path d="M3.2806502713897707,1.6846778619003295L3.2805942713897704,1.6846868619003297Q3.2363989713897707,1.6915688619003295,3.1973314713897705,1.7133478619003295Q3.1582644713897707,1.7351278619003296,3.1291714713897707,1.7691008619003297Q3.1000794713897704,1.8030747619003296,3.0845704713897706,1.8450281619003297Q3.0690624713897705,1.8869814619003296,3.0690624713897705,1.9317094619003297Q3.0690624713897705,1.9814378619003297,3.0880924713897704,2.0273798619003296Q3.1071224713897707,2.0733228619003294,3.1422854713897705,2.1084858619003297Q3.1774484713897704,2.1436488619003295,3.2233916713897703,2.1626788619003294Q3.2693343713897707,2.1817098619003295,3.3190624713897705,2.1817098619003295Q3.3384117713897705,2.1817098619003295,3.3575306713897706,2.1787318619003297Q4.421302471389771,2.0130738619003297,5.449502471389771,2.3238098619003296Q6.5090724713897705,2.6440248619003297,7.31673247138977,3.40923786190033L7.31720247138977,3.4096778619003296Q7.38952247138977,3.4782178619003297,7.48916247138977,3.4782178619003297Q7.5388924713897705,3.4782178619003297,7.584842471389771,3.45918786190033Q7.630782471389771,3.44015786190033,7.66594247138977,3.4049978619003296Q7.70110247138977,3.3698378619003293,7.72013247138977,3.32388786190033Q7.73916247138977,3.2779478619003295,7.73916247138977,3.2282178619003297Q7.73916247138977,3.1207078619003297,7.66113247138977,3.0467578619003293Q6.767372471389771,2.1997508619003296,5.594152471389771,1.8451887619003295Q4.4569424713897705,1.5015098619003295,3.2806502713897707,1.6846778619003295Z" fill-rule="evenodd" fill="#000000" fill-opacity="1"/></g><g><path d="M4.907515966485596,3.248582662521362Q5.912067366485596,3.481983962521362,6.6446973664855955,4.214635662521363Q6.717917366485596,4.287858662521362,6.717917366485596,4.3914096625213626Q6.717917366485596,4.4411376625213626,6.698887366485596,4.487079662521362Q6.679857366485596,4.533026662521362,6.6446973664855955,4.568186662521362Q6.609527366485596,4.603346662521362,6.563587366485596,4.622376662521362Q6.517647366485596,4.641406662521362,6.467917366485596,4.641406662521362Q6.364357366485596,4.641406662521362,6.291137366485596,4.568186662521362Q5.659624366485596,3.936648662521362,4.794358766485596,3.7356106625213625Q4.7531060664855955,3.726025662521362,4.717312366485595,3.703388662521362Q4.681517366485596,3.680751662521362,4.655176366485596,3.6475886625213625Q4.628835366485596,3.6144256625213624,4.614886366485596,3.5744367625213624Q4.600937366485596,3.5344482625213622,4.600937366485596,3.4920966625213623Q4.600937366485596,3.4423685625213625,4.619967366485596,3.396425862521362Q4.6389973664855955,3.350482662521362,4.674160366485595,3.3153196625213623Q4.709323366485596,3.2801566625213625,4.755266566485596,3.261126662521362Q4.801209266485595,3.2420966625213623,4.850937366485596,3.2420966625213623Q4.879598466485596,3.2420966625213623,4.907515966485596,3.248582662521362Z" fill-rule="evenodd" fill="#000000" fill-opacity="1"/></g><g><path d="M2.5658615944366456,4.048000595367432Q2.6252155944366455,4.014881595367432,2.6596295944366455,3.9562685953674315Q2.6940435944366454,3.8976563953674317,2.6940435944366454,3.8296875953674316Q2.6940435944366454,3.779959495367432,2.6750135944366455,3.7340167953674315Q2.6559835944366457,3.6880735953674315,2.6208205944366454,3.6529105953674317Q2.5856575944366456,3.617747595367432,2.5397145944366457,3.5987175953674315Q2.4937715944366454,3.5796875953674316,2.4440435944366454,3.5796875953674316Q2.3790135944366453,3.5796875953674316,2.3222265944366454,3.6113745953674314Q1.8836315944366455,3.8561086953674315,1.5253115944366455,4.214428595367432Q1.4520885944366455,4.287651595367431,1.4520885944366455,4.391204595367432Q1.4520885944366455,4.440932595367432,1.4711185944366454,4.486875595367431Q1.4901485944366455,4.532818595367432,1.5253115944366455,4.567981595367431Q1.5604745944366456,4.603144595367431,1.6064177944366456,4.622174595367432Q1.6523604944366455,4.641204595367432,1.7020885944366455,4.641204595367432Q1.8056415944366455,4.641204595367432,1.8788655944366455,4.567981595367431L1.8789685944366454,4.567878595367432Q2.1880655944366456,4.258808595367432,2.5658615944366456,4.048000595367432Z" fill-rule="evenodd" fill="#000000" fill-opacity="1"/></g><g><path d="M3.6404326039733887,5.245639754119873Q3.6800686039733885,5.234781754119873,3.7141426039733885,5.211807754119873Q3.7482186039733887,5.188832754119873,3.773138603973389,5.156159754119873Q3.7980686039733884,5.123486754119873,3.8112286039733885,5.084553054119873Q3.824378603973389,5.045619654119873,3.824378603973389,5.004523754119873Q3.824378603973389,4.954795654119873,3.8053486039733886,4.908852954119873Q3.7863186039733887,4.862909754119873,3.751158603973389,4.827746754119873Q3.7159936039733887,4.792583754119873,3.6700516039733886,4.773553754119873Q3.6241086039733887,4.754523754119873,3.5743806039733887,4.754523754119873Q3.5407566039733886,4.754523754119873,3.5083286039733887,4.763407754119873Q2.9546516039733888,4.915083354119873,2.5465616039733887,5.323172754119873Q2.4733386039733887,5.396395754119873,2.4733386039733887,5.499949754119873Q2.4733386039733887,5.549677754119873,2.4923686039733886,5.595619754119873Q2.511398603973389,5.641562754119873,2.5465616039733887,5.6767257541198735Q2.5817246039733885,5.711888754119873,2.6276678039733885,5.730918754119873Q2.673610503973389,5.749949754119873,2.7233386039733887,5.749949754119873Q2.8268916039733885,5.749949754119873,2.9001156039733886,5.6767257541198735Q3.2144616039733886,5.362379754119873,3.6402536039733886,5.245688754119873L3.6404326039733887,5.245639754119873L3.6404326039733887,5.245639754119873Z" fill-rule="evenodd" fill="#000000" fill-opacity="1"/></g><g><path d="M4.510515896026611,6.382979019256592Q4.510515896026611,6.424889019256592,4.502338896026611,6.465994019256592Q4.494162896026611,6.507099019256592,4.478124896026611,6.545819019256592Q4.462085896026611,6.584539019256592,4.438801896026611,6.619385019256592Q4.4155178960266115,6.6542330192565915,4.385882896026612,6.683867019256592Q4.356248896026611,6.713502019256592,4.321400896026612,6.736786019256591Q4.286554896026612,6.760070019256592,4.247834896026611,6.776109019256592Q4.209114896026612,6.792147019256592,4.168009896026612,6.8003230192565916Q4.126904896026612,6.808500019256591,4.084994896026611,6.808500019256591Q4.0430848960266115,6.808500019256591,4.0019798960266115,6.8003230192565916Q3.960874896026611,6.792147019256592,3.9221548960266115,6.776109019256592Q3.8834348960266114,6.760070019256592,3.8485878960266113,6.736786019256591Q3.8137408960266113,6.713502019256592,3.7841058960266114,6.683867019256592Q3.754471096026611,6.6542330192565915,3.7311870960266114,6.619385019256592Q3.7079030960266115,6.584539019256592,3.6918646960266113,6.545819019256592Q3.6758263960266113,6.507099019256592,3.6676501560266113,6.465994019256592Q3.6594738960266113,6.424889019256592,3.6594738960266113,6.382979019256592Q3.6594738960266113,6.341069019256592,3.6676501560266113,6.299964019256592Q3.6758263960266113,6.258859019256592,3.6918646960266113,6.2201390192565915Q3.7079030960266115,6.181419019256592,3.7311870960266114,6.146572019256592Q3.754471096026611,6.111725019256592,3.7841058960266114,6.082090019256592Q3.8137408960266113,6.052455219256592,3.8485878960266113,6.029171219256591Q3.8834348960266114,6.005887219256592,3.9221548960266115,5.989848819256592Q3.960874896026611,5.973810519256592,4.0019798960266115,5.965634279256592Q4.0430848960266115,5.957458019256592,4.084994896026611,5.957458019256592Q4.126904896026612,5.957458019256592,4.168009896026612,5.965634279256592Q4.209114896026612,5.973810519256592,4.247834896026611,5.989848819256592Q4.286554896026612,6.005887219256592,4.321400896026612,6.029171219256591Q4.356248896026611,6.052455219256592,4.385882896026612,6.082090019256592Q4.4155178960266115,6.111725019256592,4.438801896026611,6.146572019256592Q4.462085896026611,6.181419019256592,4.478124896026611,6.2201390192565915Q4.494162896026611,6.258859019256592,4.502338896026611,6.299964019256592Q4.510515896026611,6.341069019256592,4.510515896026611,6.382979019256592Z" fill="#000000" fill-opacity="1"/></g><g><path d="M1.538467434173584,1.185085857131958L6.985101434173584,6.631722857131958Q7.058331434173584,6.704942857131958,7.058331434173584,6.808502857131958Q7.058331434173584,6.858222857131958,7.039301434173584,6.904172857131958Q7.020271434173584,6.950112857131958,6.985101434173584,6.9852728571319584Q6.949941434173584,7.020442857131958,6.904001434173584,7.039472857131958Q6.858051434173584,7.058502857131958,6.808331434173584,7.058502857131958Q6.704771434173584,7.058502857131958,6.631551434173584,6.9852728571319584L1.184914434173584,1.538638857131958L1.184884434173584,1.538609857131958Q1.111661434173584,1.465385857131958,1.111661434173584,1.361832857131958Q1.111661434173584,1.312104757131958,1.1306914341735839,1.266162057131958Q1.149721434173584,1.220218857131958,1.184884434173584,1.185055857131958Q1.220047434173584,1.149892857131958,1.265990634173584,1.1308628571319579Q1.311933334173584,1.111832857131958,1.361661434173584,1.111832857131958Q1.465214434173584,1.111832857131958,1.538438434173584,1.185055857131958L1.538467434173584,1.185085857131958Z" fill-rule="evenodd" fill="#000000" fill-opacity="1"/></g><g><path d="M1.4185785252952576,2.9503583559265136Q1.4692915252952576,2.915354355926514,1.4979285252952574,2.8607923559265136Q1.5265665252952576,2.806230055926514,1.5265665252952576,2.7446093559265137Q1.5265655252952577,2.694881255926514,1.5075355252952576,2.6489385559265135Q1.4885055252952575,2.6029953559265135,1.4533425252952576,2.5678323559265137Q1.4181795252952576,2.532669355926514,1.3722365252952575,2.5136393559265136Q1.3262945252952576,2.4946093559265137,1.2765665252952576,2.4946093559265137Q1.1986655252952576,2.4946093559265137,1.1345535252952574,2.5388603559265137L1.1345455252952577,2.5388663559265137L1.1344425252952575,2.538937355926514Q0.9800915252952576,2.6454798559265136,0.8336805252952576,2.7630072559265137Q0.6659248252952575,2.8976283559265137,0.5089965252952575,3.0463383559265136L0.5088715252952576,3.046457355926514Q0.43083852529525757,3.1204083559265134,0.43083852529525757,3.2279163559265136Q0.43083852529525757,3.2776443559265136,0.44986852529525756,3.3235863559265137Q0.46889852529525755,3.3695293559265136,0.5040615252952576,3.404692355926514Q0.5392245252952576,3.4398553559265137,0.5851677252952576,3.4588853559265136Q0.6311104252952575,3.4779163559265136,0.6808385252952576,3.4779163559265136Q0.7804813252952576,3.4779163559265136,0.8528055252952575,3.409375355926514L0.8528155252952576,3.409365355926514L0.8529805252952576,3.4092093559265138Q0.9949445252952576,3.2746843559265137,1.1466735252952576,3.1529233559265135Q1.2790435252952577,3.0466683559265135,1.4185785252952576,2.9503583559265136Z" fill-rule="evenodd" fill="#000000" fill-opacity="1"/></g></g></svg>