<svg xmlns="http://www.w3.org/2000/svg" xmlns:xlink="http://www.w3.org/1999/xlink" fill="none" version="1.1" width="24" height="24" viewBox="0 0 24 24"><defs><clipPath id="master_svg0_112_04442"><rect x="0" y="0" width="24" height="24" rx="0"/></clipPath></defs><g clip-path="url(#master_svg0_112_04442)"><g><path d="M7.18859,3.90764C7.58912,3.90764,7.92098,3.55501,7.92098,3.12942C7.92098,3.08078,7.96675,3.0443,8.00108,3.0443L14.9474,3.0443C15.016,3.0443,15.0733,3.09294,15.0847,3.11726C15.1648,3.54285,15.5424,3.81036,15.943,3.73741C16.3435,3.65229,16.5953,3.25101,16.526600000000002,2.8254200000000003C16.3893,2.059352,15.7255,1.5,14.9588,1.5L8.01253,1.5C7.15426,1.5,6.46764,2.241749,6.46764,3.1415699999999998C6.45619,3.55501,6.77662,3.90764,7.18859,3.90764ZM20.9438,18.3778L14.913,8.63781L14.913,5.31818C14.913,4.89259,14.5812,4.53995,14.1806,4.53995C13.7801,4.53995,13.4483,4.89259,13.4483,5.31818L13.4483,8.85669C13.4483,9.01477,13.494,9.17284,13.5741,9.29444L19.7194,19.2168C20.0283,19.7276,20.1199,20.2018,19.9711,20.4936C19.8224,20.7733,19.3989,20.9435,18.8268,20.9435L4.17891,20.9435C3.60673,20.9435,3.18331,20.7733,3.0345500000000003,20.4936C2.88578,20.214,2.9773300000000003,19.7276,3.2748600000000003,19.229L9.43154,9.29444C9.51165,9.17284,9.55742,9.002600000000001,9.55742,8.85669L9.55742,5.2938600000000005C9.55742,4.86827,9.22555,4.51563,8.82503,4.51563C8.4245,4.51563,8.09263,4.86827,8.09263,5.2938600000000005L8.09263,8.63781L2.050393,18.39C1.4438807,19.4236,1.329444,20.4328,1.752859,21.2475C2.176273,22.0622,3.0345500000000003,22.5,4.17891,22.5L18.8268,22.5C19.9711,22.5,20.8294,22.0501,21.2528,21.2475C21.6648,20.4328,21.5618,19.4236,20.9438,18.3778Z" fill="#333333" fill-opacity="1"/><path d="M6.36764,3.1402099999999997Q6.36809,2.424605,6.84523,1.915005Q7.32743,1.4,8.01253,1.4L14.9588,1.4000001Q15.5708,1.4000001,16.043300000000002,1.799038Q16.515700000000002,2.198104,16.6253,2.8094900000000003Q16.683,3.16731,16.4951,3.4627600000000003Q16.3042,3.76287,15.9638,3.83522L15.9623,3.83553L15.9609,3.83579Q15.6177,3.8983,15.3353,3.69551Q15.0611,3.49852,14.9901,3.1543099999999997Q14.9791,3.1443000000000003,14.9474,3.1443000000000003L8.02087,3.1443000000000003Q8.015920000000001,3.49364,7.7778,3.74666Q7.53219,4.00764,7.18859,4.00764Q6.83803,4.00764,6.59614,3.74778Q6.35838,3.49237,6.36764,3.1402099999999997ZM6.74253,3.61151Q6.56009,3.41553,6.5676,3.1443399999999997L6.56764,3.14296L6.56764,3.1415699999999998Q6.56764,2.50411,6.99123,2.0517Q7.41415,1.6,8.01253,1.6L14.9588,1.6Q15.4976,1.6,15.9142,1.9518309999999999Q16.3316,2.304369,16.4279,2.8413500000000003Q16.4735,3.12411,16.3264,3.35542Q16.1809,3.58406,15.9236,3.63929Q15.6648,3.6859,15.452,3.53307Q15.2354,3.37752,15.183,3.09876L15.1806,3.08622L15.1752,3.07468Q15.1138,2.9443,14.9474,2.9443L8.00108,2.9443Q7.93292,2.9443,7.87868,2.99669Q7.82098,3.05243,7.82098,3.12942Q7.82098,3.40895,7.63216,3.60959Q7.44577,3.80764,7.18859,3.80764Q6.9251,3.80764,6.74253,3.61151ZM18.8268,22.6Q20.6523,22.6,21.3413,21.2942L21.3421,21.2927Q22.0063,19.9791,21.0299,18.3269L15.013,8.609359999999999L15.013,5.31818Q15.013,4.95933,14.7699,4.70094Q14.5243,4.43995,14.1806,4.43995Q13.837,4.43995,13.5914,4.70094Q13.3483,4.95933,13.3483,5.31818L13.3483,8.85669Q13.3483,9.13256,13.4898,9.34824L19.6344,19.2695Q20.0949,20.0307,19.882,20.4482Q19.6717,20.8435,18.8268,20.8435L4.17891,20.8435Q3.33394,20.8435,3.12283,20.4467Q2.9069000000000003,20.0407,3.36073,19.2803L9.51584,9.34825Q9.65742,9.132570000000001,9.65742,8.85669L9.65742,5.2938600000000005Q9.65742,4.93501,9.41424,4.67662Q9.16863,4.41563,8.82503,4.41563Q8.48142,4.41563,8.23581,4.67662Q7.99263,4.93501,7.99263,5.2938600000000005L7.99263,8.60934L1.9647540000000001,18.3383L1.964146,18.3394Q0.990798,19.9981,1.664127,21.2937Q2.343055,22.6,4.17891,22.6L18.8268,22.6ZM20.8577,18.4287Q21.7778,19.9856,21.1644,21.2009L21.164,21.2016L21.1636,21.2024Q20.5306,22.4,18.8268,22.4L4.17891,22.4Q2.464509,22.4,1.841591,21.2014Q1.219659,20.0047,2.135425,18.4427L2.136665,18.4406L8.192630000000001,8.66628L8.192630000000001,5.2938600000000005Q8.192630000000001,5.01432,8.38146,4.81368Q8.56784,4.6156299999999995,8.82503,4.6156299999999995Q9.08221,4.6156299999999995,9.2686,4.81368Q9.457419999999999,5.01432,9.457419999999999,5.2938600000000005L9.457419999999999,8.85669Q9.457419999999999,9.07338,9.34803,9.239429999999999L9.34727,9.240590000000001L3.18899,19.1778Q2.67736,20.0351,2.94626,20.5406Q3.21379,21.0435,4.17891,21.0435L18.8268,21.0435Q19.7919,21.0435,20.0602,20.539Q20.3236,20.0224,19.8044,19.1642L13.6584,9.2406L13.6576,9.239429999999999Q13.5483,9.07338,13.5483,8.85669L13.5483,5.31818Q13.5483,5.03864,13.7371,4.838Q13.9235,4.63995,14.1806,4.63995Q14.4378,4.63995,14.6242,4.838Q14.813,5.03864,14.813,5.31818L14.813,8.666260000000001L20.8577,18.4287Z" fill-rule="evenodd" fill="#333333" fill-opacity="1"/></g><g><path d="M6.5263670000000005,20L8.21826,20Q8.77881,20,9.16504,19.75391Q9.55469,19.5249,9.77344,19.17285Q9.85547,19.03955,9.91357,18.9165Q9.96826,18.79004,9.99561,18.62939Q10.053709999999999,18.31152,10.053709999999999,17.5083Q10.053709999999999,16.75293,10.016110000000001,16.44531Q9.96826,16.1377,9.78711,15.857422Q9.28125,15.0234375,8.26953,15.0166016L6.5263670000000005,15.0166016L6.5263670000000005,20ZM7.28174,15.727219L8.18408,15.727219Q8.7583,15.713547,9.07275,16.14854Q9.22656,16.32317,9.26758,16.60403Q9.29834,16.88495,9.29834,17.5357Q9.29834,18.20359,9.26758,18.4468Q9.2334,18.69343,9.10693,18.85439Q8.81982,19.28938,8.18408,19.28938L7.28174,19.28938L7.28174,15.727219ZM10.93555,20L11.69092,20L11.69092,15.0166016L10.93555,15.0166016L10.93555,20ZM12.74023,20L13.49561,20L13.49561,16.45733L13.50928,16.45733L15.76172,20L16.476100000000002,20L16.476100000000002,15.0166016L15.7207,15.0166016L15.7207,18.55927L15.70703,18.55927L13.451170000000001,15.0166016L12.74023,15.0166016L12.74023,20Z" fill="#333333" fill-opacity="1"/></g></g></svg>