<svg xmlns="http://www.w3.org/2000/svg" xmlns:xlink="http://www.w3.org/1999/xlink" fill="none" version="1.1" width="8" height="9" viewBox="0 0 8 9"><g><g><path d="M4.000002604913711,6.954547489471436C6.526312604913712,6.954547489471436,7.578942604913712,5.3061374894714355,7.578942604913712,3.2727274894714355L0.42105260491371155,3.2727274894714355C0.42105260491371155,5.3061374894714355,1.4736826049137115,6.954547489471436,4.000002604913711,6.954547489471436Z" fill="#FFFFFF" fill-opacity="1"/></g><g><path d="M0,3.2727272552642823C0,3.046792255264282,0.188512,2.8636362552642822,0.421053,2.8636362552642822L7.57895,2.8636362552642822C7.81149,2.8636362552642822,8,3.046792255264282,8,3.2727272552642823Q8,5.056626255264282,7.05857,6.140066255264282Q5.99538,7.363636255264282,4,7.363636255264282Q2.00462,7.363636255264282,0.941429,6.140066255264282Q0,5.056626255264282,0,3.2727272552642823ZM1.58489,5.612266255264283Q0.947616,4.878866255264282,0.857093,3.6818182552642824L7.14291,3.6818182552642824Q7.05238,4.878866255264282,6.41511,5.612266255264283Q5.60424,6.545456255264282,4,6.545456255264282Q2.39576,6.545456255264282,1.58489,5.612266255264283Z" fill-rule="evenodd" fill="#FFFFFF" fill-opacity="1"/></g><g><path d="M5.873134072494507,6.620634481048584L6.504704072494507,8.461539481048584C6.578244072494507,8.675879481048584,6.459014072494507,8.907559481048583,6.238414072494507,8.979009481048584C6.195474072494507,8.992909481048585,6.150514072494507,8.999999481048583,6.105264072494506,8.999999481048583L1.894737072494507,8.999999481048583C1.6621960724945068,8.999999481048583,1.4736840724945068,8.816839481048584,1.4736840724945068,8.590909481048584C1.4736840724945068,8.546939481048584,1.4809800024945068,8.503259481048584,1.4952910724945068,8.461539481048584L2.1268700724945067,6.620634481048584C2.181487072494507,6.461437481048584,2.3306300724945066,6.350792521048584,2.5030840724945067,6.341532778048584C2.510824072494507,6.341117328048584,2.518564072494507,6.340909481048584,2.5263140724945066,6.340909481048584C2.571574072494507,6.340909505432284,2.616534072494507,6.347998191048584,2.659464072494507,6.361902681048584C2.7654040724945066,6.396212681048584,2.852974072494507,6.470006481048584,2.902914072494507,6.567049481048584C2.9308040724945066,6.621230481048584,2.945954072494507,6.680752481048584,2.9472740724945066,6.741315481048584C2.9472740724945066,6.741315481048584,2.9473640724945067,6.750000481048584,2.9473640724945067,6.750000481048584C2.9473640724945067,6.793970481048584,2.940074072494507,6.837652481048584,2.925764072494507,6.879366481048584L2.925764072494507,6.879366481048584L2.478914072494507,8.181819481048585L5.5210840724945065,8.181819481048585L5.074274072494507,6.879467481048584L5.074274072494507,6.879467481048584C5.060084072494506,6.838122481048584,5.052794072494507,6.794951481048584,5.052634072494507,6.751476481048584L5.052634072494507,6.750000481048584C5.052634072494507,6.686491481048584,5.067854072494507,6.623853481048584,5.097084072494507,6.567049481048584C5.147024072494506,6.470006481048584,5.234594072494507,6.396212681048584,5.340534072494506,6.361902681048584C5.380964072494507,6.348807711048584,5.423214072494507,6.341753304048584,5.465824072494507,6.340980681548584C5.465824072494507,6.340980681548584,5.473684072494507,6.340909481048584,5.473684072494507,6.340909481048584C5.654914072494507,6.340909871188584,5.815814072494507,6.453585481048584,5.873134072494507,6.620634481048584Z" fill-rule="evenodd" fill="#FFFFFF" fill-opacity="1"/></g><g><path d="M2.5276409490869143,3.2403L2.761550689086914,0.376725C2.778926689086914,0.164011,2.961661689086914,2.43837e-8,3.1812836890869143,0L4.818715689086915,0C5.038335689086914,0,5.2210756890869146,0.164011,5.238445689086914,0.376725L5.472345689086914,3.24011L5.472345689086914,3.24011C5.4732356890869145,3.25104,5.473675689086914,3.26175,5.473685689086913,3.27247L5.473685689086913,3.27247C5.473685689086913,3.48611,5.304875689086915,3.66365,5.085945689086914,3.68054C5.074985689086914,3.68138,5.064005689086914,3.68181,5.053005689086914,3.68182L5.053005689086914,3.68182C4.9524756890869135,3.68182,4.855595689086914,3.64713,4.779395689086915,3.58398C4.6944256890869145,3.51357,4.641735689086914,3.41325,4.632895689086914,3.30509L4.632895689086914,3.30509L4.429755689086914,0.818182L3.570245689086914,0.818182L3.367106689086914,3.30503C3.358266689086914,3.41325,3.3055716890869142,3.51357,3.2206096890869143,3.58398C3.146311689086914,3.64555,3.052297689086914,3.68011,2.954658689086914,3.68176C2.954658689086914,3.68176,2.947368689086914,3.68182,2.947368689086914,3.68182C2.936251689086914,3.68182,2.925138689086914,3.68139,2.914056689086914,3.68054C2.802736689086914,3.67195,2.699485689086914,3.62075,2.627017689086914,3.53821C2.563645889086914,3.46602,2.528069749086914,3.37468,2.526378832386914,3.27981C2.526378832386914,3.27981,2.526315689086914,3.27273,2.526315689086914,3.27273C2.526315689086914,3.26193,2.526755960086914,3.25113,2.5276409490869143,3.2403Z" fill-rule="evenodd" fill="#FFFFFF" fill-opacity="1"/></g><g><path d="M2.709250419654846,5.726394978942871Q2.325820419654846,5.701924978942872,2.018060419654846,5.402904978942871Q1.7103309196548462,5.103919978942871,1.6851208016548462,4.7314329789428715C1.6845497766548463,4.722985978942871,1.6842490183548462,4.714598978942871,1.6842139080948462,4.706208978942871L1.6842104196548462,4.704545978942871C1.6842104196548462,4.489019978942871,1.8563154196548461,4.310460478942871,2.077666419654846,4.296334596942871C2.0862834196548463,4.295784695942871,2.0949154196548463,4.295492481142871,2.1035504196548462,4.295458368282871L2.1052634196548463,4.295454978942871C2.3270914196548462,4.2954550033265715,2.5108714196548463,4.462670978942871,2.525410419654846,4.677733978942871Q2.529853419654846,4.743077978942871,2.613518419654846,4.824365978942871Q2.697070419654846,4.905546978942871,2.764220419654846,4.909956978942871L2.764220419654846,4.909956978942871C2.875870419654846,4.917081978942871,2.979830419654846,4.966908978942871,3.053440419654846,5.048491978942871C3.117820419654846,5.1198339789428715,3.1546704196548463,5.210698978942871,3.157690419654846,5.305534978942871C3.157690419654846,5.305534978942871,3.157890419654846,5.318184978942871,3.157890419654846,5.318184978942871C3.157890419654846,5.327124978942871,3.157590419654846,5.336064978942871,3.1569904196548464,5.3449949789428715C3.1436804196548462,5.541794978942871,2.987750419654846,5.701354978942871,2.786160419654846,5.724454978942871C2.7697904196548464,5.726334978942871,2.7533204196548464,5.727274978942871,2.736840419654846,5.727274978942871C2.727640419654846,5.727274978942871,2.718430419654846,5.726974978942871,2.709250419654846,5.726394978942871Z" fill-rule="evenodd" fill="#82B8B7" fill-opacity="1"/></g></g></svg>