<svg xmlns="http://www.w3.org/2000/svg" xmlns:xlink="http://www.w3.org/1999/xlink" fill="none" version="1.1" width="24" height="24" viewBox="0 0 24 24"><g><g><g><g><path d="M20.5,10.19C20.5,10.19,17.61,10.19,17.61,10.19C15.24,10.19,13.31,8.26,13.31,5.890000000000001C13.31,5.890000000000001,13.31,3,13.31,3C13.31,2.45,12.86,2,12.31,2C12.31,2,8.07,2,8.07,2C4.99,2,2.5,4,2.5,7.57C2.5,7.57,2.5,16.43,2.5,16.43C2.5,20,4.99,22,8.07,22C8.07,22,15.93,22,15.93,22C19.01,22,21.5,20,21.5,16.43C21.5,16.43,21.5,11.19,21.5,11.19C21.5,10.64,21.05,10.19,20.5,10.19ZM11.53,13.53C11.38,13.68,11.19,13.75,11,13.75C10.81,13.75,10.62,13.68,10.469999999999999,13.53C10.469999999999999,13.53,9.75,12.81,9.75,12.81C9.75,12.81,9.75,17,9.75,17C9.75,17.41,9.41,17.75,9,17.75C8.59,17.75,8.25,17.41,8.25,17C8.25,17,8.25,12.81,8.25,12.81C8.25,12.81,7.53,13.53,7.53,13.53C7.24,13.82,6.76,13.82,6.470000000000001,13.53C6.18,13.24,6.18,12.76,6.470000000000001,12.47C6.470000000000001,12.47,8.469999999999999,10.47,8.469999999999999,10.47C8.54,10.41,8.61,10.36,8.690000000000001,10.32C8.71,10.31,8.74,10.3,8.76,10.29C8.82,10.27,8.879999999999999,10.26,8.95,10.25C8.98,10.25,9,10.25,9.030000000000001,10.25C9.11,10.25,9.190000000000001,10.27,9.27,10.3C9.280000000000001,10.3,9.280000000000001,10.3,9.29,10.3C9.370000000000001,10.33,9.45,10.39,9.51,10.45C9.52,10.46,9.530000000000001,10.46,9.530000000000001,10.47C9.530000000000001,10.47,11.53,12.47,11.53,12.47C11.82,12.76,11.82,13.24,11.53,13.53Z" fill="#000000" fill-opacity="1"/></g><g><path d="M17.43017578125,8.810003632888794C18.38017578125,8.820003632888794,19.70017578125,8.820003632888794,20.83017578125,8.820003632888794C21.40017578125,8.820003632888794,21.70017578125,8.150003632888794,21.30017578125,7.750003632888794C19.86017578125,6.300003632888794,17.28017578125,3.6900036328887937,15.800175781250001,2.209999632888794C15.39017578125,1.799999632888794,14.68017578125,2.080000032888794,14.68017578125,2.649999632888794C14.68017578125,2.649999632888794,14.68017578125,6.140003632888794,14.68017578125,6.140003632888794C14.680175781250004,7.600003632888794,15.92017578125,8.810003632888794,17.43017578125,8.810003632888794Z" fill="#000000" fill-opacity="1"/></g><g transform="matrix(-1,-1.2246469849340659e-16,1.2246469849340659e-16,-1,48,48)" style="opacity:0;"></g></g></g></g></svg>