<svg xmlns="http://www.w3.org/2000/svg" xmlns:xlink="http://www.w3.org/1999/xlink" fill="none" version="1.1" width="24" height="24" viewBox="0 0 24 24"><g><g><g><g style="opacity:0;"><path d="M0,0C0,0,24,0,24,0C24,0,24,24,24,24C24,24,0,24,0,24C0,24,0,0,0,0Z" fill="#000000" fill-opacity="1"/></g><g><path d="M20,6C20,6,20,6.24,20,6.24C20,6.24,14.87,6.24,14.87,6.24C11.9,6.24,10.52,7.62,10.52,10.59C10.52,10.59,10.52,15.7,10.52,15.7C10.52,15.7,9.75,15.7,9.75,15.7C9.75,15.7,9.75,19.25,9.75,19.25C9.75,19.25,10.52,19.25,10.52,19.25C10.52,19.25,10.52,20.75,10.52,20.75C10.52,20.75,4.95,20.75,4.95,20.75C4.54,20.75,4.2,20.41,4.2,20C4.2,19.59,4.54,19.25,4.95,19.25C4.95,19.25,8.25,19.25,8.25,19.25C8.25,19.25,8.25,15.7,8.25,15.7C8.25,15.7,6,15.7,6,15.7C2.87,15.7,2.03,14.93,2,11.9C2,11.9,2,6,2,6C2,2.8,2.8,2,6,2C6,2,16,2,16,2C19.2,2,20,2.8,20,6Z" fill="#000000" fill-opacity="1"/></g><g><path d="M20.000000457763672,7.7899999711181644C19.750000457763672,7.759999971118164,19.460000457763673,7.739999771118164,19.15000045776367,7.739999771118164C19.15000045776367,7.739999771118164,14.870000457763672,7.739999771118164,14.870000457763672,7.739999771118164C12.729999457763672,7.739999771118164,12.020000457763672,8.449999771118165,12.020000457763672,10.589999771118164C12.020000457763672,10.589999771118164,12.020000457763672,19.249999771118162,12.020000457763672,19.249999771118162C12.030000457763672,19.869999771118167,12.099999957763671,20.35999977111816,12.250000457763672,20.749999771118162C12.600000457763672,21.659999771118166,13.390000457763673,21.999999771118162,14.870000457763672,21.999999771118162C14.870000457763672,21.999999771118162,19.15000045776367,21.999999771118162,19.15000045776367,21.999999771118162C21.29000045776367,21.999999771118162,22.000000457763672,21.289999771118165,22.000000457763672,19.149999771118164C22.000000457763672,19.149999771118164,22.000000457763672,10.589999771118164,22.000000457763672,10.589999771118164C22.000000457763672,8.759999771118164,21.480000457763673,7.979999771118164,20.000000457763672,7.7899999711181644ZM17.010000457763674,10.089999771118164C17.88000045776367,10.089999771118164,18.58000045776367,10.789999771118165,18.58000045776367,11.659999771118164C18.58000045776367,12.529999771118163,17.88000045776367,13.229999771118164,17.010000457763674,13.229999771118164C16.140000457763673,13.229999771118164,15.440000457763672,12.529999771118163,15.440000457763672,11.659999771118164C15.440000457763672,10.789999771118165,16.140000457763673,10.089999771118164,17.010000457763674,10.089999771118164ZM17.010000457763674,19.149999771118164C15.830000457763672,19.149999771118164,14.870000457763672,18.189999771118163,14.870000457763672,17.009999771118164C14.870000457763672,16.519999771118165,15.040000457763671,16.059999771118164,15.320000457763673,15.699999771118165C15.710000457763671,15.199999771118165,16.320000457763673,14.869999771118163,17.010000457763674,14.869999771118163C17.550000457763673,14.869999771118163,18.04000045776367,15.069999771118164,18.410000457763672,15.389999771118164C18.86000045776367,15.789999771118165,19.15000045776367,16.369999771118167,19.15000045776367,17.009999771118164C19.15000045776367,18.189999771118163,18.190000457763674,19.149999771118164,17.010000457763674,19.149999771118164Z" fill="#000000" fill-opacity="1"/></g><g><path d="M20.000000457763672,7.7899999711181644C19.750000457763672,7.759999971118164,19.460000457763673,7.739999771118164,19.15000045776367,7.739999771118164C19.15000045776367,7.739999771118164,14.870000457763672,7.739999771118164,14.870000457763672,7.739999771118164C12.729999457763672,7.739999771118164,12.020000457763672,8.449999771118165,12.020000457763672,10.589999771118164C12.020000457763672,10.589999771118164,12.020000457763672,19.249999771118162,12.020000457763672,19.249999771118162C12.030000457763672,19.869999771118167,12.099999957763671,20.35999977111816,12.250000457763672,20.749999771118162C12.600000457763672,21.659999771118166,13.390000457763673,21.999999771118162,14.870000457763672,21.999999771118162C14.870000457763672,21.999999771118162,19.15000045776367,21.999999771118162,19.15000045776367,21.999999771118162C21.29000045776367,21.999999771118162,22.000000457763672,21.289999771118165,22.000000457763672,19.149999771118164C22.000000457763672,19.149999771118164,22.000000457763672,10.589999771118164,22.000000457763672,10.589999771118164C22.000000457763672,8.759999771118164,21.480000457763673,7.979999771118164,20.000000457763672,7.7899999711181644ZM17.010000457763674,10.089999771118164C17.88000045776367,10.089999771118164,18.58000045776367,10.789999771118165,18.58000045776367,11.659999771118164C18.58000045776367,12.529999771118163,17.88000045776367,13.229999771118164,17.010000457763674,13.229999771118164C16.140000457763673,13.229999771118164,15.440000457763672,12.529999771118163,15.440000457763672,11.659999771118164C15.440000457763672,10.789999771118165,16.140000457763673,10.089999771118164,17.010000457763674,10.089999771118164ZM17.010000457763674,19.149999771118164C15.830000457763672,19.149999771118164,14.870000457763672,18.189999771118163,14.870000457763672,17.009999771118164C14.870000457763672,16.519999771118165,15.040000457763671,16.059999771118164,15.320000457763673,15.699999771118165C15.710000457763671,15.199999771118165,16.320000457763673,14.869999771118163,17.010000457763674,14.869999771118163C17.550000457763673,14.869999771118163,18.04000045776367,15.069999771118164,18.410000457763672,15.389999771118164C18.86000045776367,15.789999771118165,19.15000045776367,16.369999771118167,19.15000045776367,17.009999771118164C19.15000045776367,18.189999771118163,18.190000457763674,19.149999771118164,17.010000457763674,19.149999771118164Z" fill="#000000" fill-opacity="1"/></g></g></g></g></svg>