<svg xmlns="http://www.w3.org/2000/svg" xmlns:xlink="http://www.w3.org/1999/xlink" fill="none" version="1.1" width="20" height="20" viewBox="0 0 20 20"><g><g><g><g><rect x="0" y="0" width="20" height="20" rx="0" fill="#FFFFFF" fill-opacity="0"/></g><g><path d="M2.916748046875,18.25L17.916748046875,18.25Q17.990648046875002,18.25,18.063048046875,18.235589Q18.135548046875,18.221178,18.203748046875,18.19291Q18.272048046875,18.164641,18.333448046875,18.123601999999998Q18.394848046874998,18.082563,18.447048046875,18.03033Q18.499348046875,17.978096999999998,18.540348046875,17.916678Q18.581348046875,17.855258,18.609648046875,17.787013Q18.637948046875,17.718767,18.652348046874998,17.646318Q18.666748046875,17.5738685,18.666748046875,17.5Q18.666748046875,17.4261315,18.652348046874998,17.353682Q18.637948046875,17.281233,18.609648046875,17.212987Q18.581348046875,17.144742,18.540348046875,17.083322Q18.499348046875,17.021903000000002,18.447048046875,16.96967Q18.394848046874998,16.917437,18.333448046875,16.876398000000002Q18.272048046875,16.835359,18.203748046875,16.80709Q18.135548046875,16.778822,18.063048046875,16.764411Q17.990648046875002,16.75,17.916748046875,16.75L2.916748046875,16.75Q2.842879546875,16.75,2.770430046875,16.764411Q2.697981046875,16.778822,2.629735046875,16.80709Q2.561490046875,16.835359,2.500070046875,16.876398000000002Q2.438651046875,16.917437,2.386418046875,16.96967Q2.334185046875,17.021903000000002,2.293146046875,17.083322Q2.252107046875,17.144742,2.223838046875,17.212987Q2.195570046875,17.281233,2.181159046875,17.353682Q2.166748046875,17.4261315,2.166748046875,17.5Q2.166748046875,17.5738685,2.181159046875,17.646318Q2.195570046875,17.718767,2.223838046875,17.787013Q2.252107046875,17.855258,2.293146046875,17.916678Q2.334185046875,17.978096999999998,2.386418046875,18.03033Q2.438651046875,18.082563,2.500070046875,18.123601999999998Q2.561490046875,18.164641,2.629735046875,18.19291Q2.697981046875,18.221178,2.770430046875,18.235589Q2.842879546875,18.25,2.916748046875,18.25Z" fill-rule="evenodd" fill="#000000" fill-opacity="1"/></g><g><path d="M12.675991953125,1.969554L12.675561953125,1.9699879999999999L4.052603953125,10.60328Q3.9472609531250002,10.70875,3.890255953125,10.84649Q3.833251953125,10.98422,3.833251953125,11.13329L3.833251953125,14.1667Q3.833251953125,14.2405,3.847662953125,14.313Q3.862073953125,14.3854,3.890341953125,14.4537Q3.918610953125,14.5219,3.959649953125,14.5833Q4.000688953125,14.6448,4.052921953125,14.697Q4.105154953125,14.7492,4.166573953125,14.7903Q4.227993953125,14.8313,4.296238953125,14.8596Q4.364484953125,14.8878,4.436933953125,14.9023Q4.509383453125,14.9167,4.583251953125,14.9167L7.632081953125001,14.9167Q7.781311953125,14.9167,7.919171953125,14.8595Q8.057031953125,14.8024,8.162531953125,14.6969L16.780351953125,6.0752500000000005Q16.832551953124998,6.02302,16.873551953125002,5.96162Q16.914651953125002,5.9002099999999995,16.942851953125,5.83198Q16.971151953125002,5.76375,16.985551953125,5.69132Q16.999951953125,5.61889,16.999951953125,5.54504Q16.999951953125,5.47119,16.985551953125,5.398759999999999Q16.971151953125002,5.3263300000000005,16.942851953125,5.258100000000001Q16.914651953125002,5.18987,16.873551953125002,5.12847Q16.832551953124998,5.06706,16.780351953125,5.01483L13.736651953125,1.969786Q13.684431953125,1.917542,13.623021953125,1.8764889999999999Q13.561611953125,1.835437,13.493371953125,1.807153Q13.425131953125,1.77887,13.352691953125,1.764443Q13.280241953125,1.750016,13.206371953125,1.75Q13.132501953125,1.749984,13.060051953125,1.764379Q12.987601953125,1.7787739999999999,12.919351953125,1.8070279999999999Q12.851091953125,1.8352810000000002,12.789671953125,1.876307Q12.728241953125,1.917332,12.675991953125,1.969554ZM13.206411953125,3.56109L5.333251953125,11.44369L5.333251953125,13.4167L7.321331953125,13.4167L15.189451953125,5.54504L13.206411953125,3.56109Z" fill-rule="evenodd" fill="#000000" fill-opacity="1"/></g></g></g></g></svg>