<svg xmlns="http://www.w3.org/2000/svg" xmlns:xlink="http://www.w3.org/1999/xlink" fill="none" version="1.1" width="24" height="24" viewBox="0 0 24 24"><defs><clipPath id="master_svg0_112_11538"><rect x="0" y="0" width="24" height="24" rx="0"/></clipPath></defs><g clip-path="url(#master_svg0_112_11538)"><g><path d="M20.708,2.5C21.146,2.5,21.5,2.854,21.5,3.292L21.5,20.708C21.5,21.1454,21.1454,21.5,20.708,21.5L3.292,21.5C2.854591,21.5,2.500000228882,21.1454,2.5,20.708L2.5,3.292C2.5,2.854,2.854,2.5,3.292,2.5L20.708,2.5ZM13.701,10.174C13.5961,10.07487,13.4318,10.075759999999999,13.328,10.176L8.276,15.126C8.222470000000001,15.1782,8.19497,15.2515,8.201,15.326L8.2,15.346C8.20219,15.4896,8.3204,15.6042,8.464,15.602L11.128,15.602L10.241,19.202C10.23609,19.2223,10.233730000000001,19.2431,10.234,19.264C10.2026,19.3565,10.22799,19.4589,10.299,19.526C10.40347,19.6262,10.5686,19.6253,10.672,19.524L15.724,14.574C15.8507,14.4522,15.8155,14.241,15.656,14.167C15.6091,14.1307,15.5514,14.111,15.492,14.111L12.91,14.111L13.777,10.455C13.7853,10.419509999999999,13.7856,10.38264,13.778,10.347000000000001C13.7755,10.281369999999999,13.7475,10.2193,13.7,10.174L13.701,10.174ZM19.125,4.084L4.875,4.084C4.474,4.084,4.135,4.384,4.089,4.782L4.083,4.875L4.083,8.042C4.083,8.443,4.383,8.780999999999999,4.7829999999999995,8.828L4.875,8.833L19.125,8.833C19.526,8.833,19.865,8.533000000000001,19.911,8.134L19.917,8.042L19.917,4.875C19.917,4.43759,19.5624,4.083,19.125,4.083L19.125,4.084ZM12,4.8740000000000006C12.437,4.8740000000000006,12.792,5.228,12.792,5.666L12.792,7.25C12.792,7.68741,12.43741,8.042,12,8.042C11.56259,8.042,11.208,7.68741,11.208,7.25L11.208,5.667C11.208,5.229,11.563,4.875,12,4.875L12,4.8740000000000006ZM15.958,4.8740000000000006C16.396,4.8740000000000006,16.75,5.228,16.75,5.666L16.75,7.25C16.7348,7.67619,16.384999999999998,8.013860000000001,15.9585,8.013860000000001C15.532,8.013860000000001,15.1822,7.67619,15.167,7.25L15.167,5.667C15.167,5.229,15.521,4.875,15.958,4.875L15.958,4.8740000000000006ZM8.042,4.8740000000000006C8.479,4.8740000000000006,8.833,5.228,8.833,5.666L8.833,7.25C8.84893,7.69816,8.48994,8.07014,8.0415,8.07014C7.59306,8.07014,7.23407,7.69816,7.25,7.25L7.25,5.667C7.25,5.229,7.604,4.875,8.042,4.875L8.042,4.8740000000000006Z" fill="#FFFFFF" fill-opacity="1"/></g></g></svg>