<svg xmlns="http://www.w3.org/2000/svg" xmlns:xlink="http://www.w3.org/1999/xlink" fill="none" version="1.1" width="28" height="28" viewBox="0 0 28 28"><defs><clipPath id="master_svg0_1547_09376"><rect x="0" y="0" width="28" height="28" rx="0"/></clipPath></defs><g><g clip-path="url(#master_svg0_1547_09376)"><g><rect x="4.666748046875" y="2.33349609375" width="18.66666603088379" height="23.333332061767578" rx="2" fill-opacity="0" stroke-opacity="1" stroke="#333333" fill="none" stroke-width="1.5"/></g><g><path d="M7.416748046875,10.50016609375L7.416748046875,5.83349609375Q7.416748046875,5.75962759375,7.431159046875,5.68717809375Q7.445570046875,5.61472909375,7.473838046875,5.54648309375Q7.502107046875,5.47823809375,7.543146046875,5.41681809375Q7.584185046875,5.35539909375,7.636418046875,5.30316609375Q7.688651046875,5.25093309375,7.750070046875,5.20989409375Q7.811490046875,5.16885509375,7.879735046875,5.14058609375Q7.947981046875,5.11231809375,8.020430046875,5.09790709375Q8.092879546875,5.08349609375,8.166748046875,5.08349609375L19.833448046875,5.08349609375Q19.907248046875,5.08349609375,19.979748046875002,5.09790709375Q20.052148046875,5.11231809375,20.120448046874998,5.14058609375Q20.188648046875002,5.16885509375,20.250048046875,5.20989409375Q20.311548046875,5.25093309375,20.363748046875,5.30316609375Q20.415948046875002,5.35539909375,20.457048046875002,5.41681809375Q20.498048046875,5.47823809375,20.526348046875,5.54648309375Q20.554548046875,5.61472909375,20.569048046875,5.68717809375Q20.583448046875,5.75962759375,20.583448046875,5.83349609375L20.583448046875,10.50016609375Q20.583448046875,10.57403609375,20.569048046875,10.64647609375Q20.554548046875,10.71892609375,20.526348046875,10.78717609375Q20.498048046875,10.85541609375,20.457048046875002,10.91683609375Q20.415948046875002,10.97825609375,20.363748046875,11.03049609375Q20.311548046875,11.08272609375,20.250048046875,11.12376609375Q20.188648046875002,11.16480609375,20.120448046874998,11.193076093750001Q20.052148046875,11.22133609375,19.979748046875002,11.23574609375Q19.907248046875,11.25016609375,19.833448046875,11.25016609375L8.166748046875,11.25016609375Q8.092879546875,11.25016609375,8.020430046875,11.23574609375Q7.947981046875,11.22133609375,7.879735046875,11.193076093750001Q7.811490046875,11.16480609375,7.750070046875,11.12376609375Q7.688651046875,11.08272609375,7.636418046875,11.03049609375Q7.584185046875,10.97825609375,7.543146046875,10.91683609375Q7.502107046875,10.85541609375,7.473838046875,10.78717609375Q7.445570046875,10.71892609375,7.431159046875,10.64647609375Q7.416748046875,10.57403609375,7.416748046875,10.50016609375ZM8.916748046875,6.58349609375L8.916748046875,9.75016609375L19.083448046875,9.75016609375L19.083448046875,6.58349609375L8.916748046875,6.58349609375Z" fill="#333333" fill-opacity="1"/></g></g><g><path d="M12.114396030883789,13.708614L9.392172030883788,18.60861Q9.31666603088379,18.74452,9.31666603088379,18.9Q9.31666603088379,18.95909,9.328195030883789,19.01705Q9.339724030883788,19.07501,9.36233803088379,19.12961Q9.38495303088379,19.18421,9.417784030883789,19.23334Q9.45061603088379,19.28248,9.492402030883788,19.32426Q9.534188030883788,19.36605,9.583324030883789,19.39888Q9.632459030883789,19.43171,9.68705603088379,19.45433Q9.741652030883788,19.47694,9.79961203088379,19.48847Q9.857571230883789,19.5,9.916666030883789,19.5L12.59091603088379,19.5L11.566026030883789,23.17203Q11.544356030883788,23.24966,11.54394603088379,23.33025Q11.54353603088379,23.41084,11.564396030883788,23.48869Q11.585266030883789,23.56653,11.62593603088379,23.636110000000002Q11.66660603088379,23.70569,11.724196030883789,23.76207Q11.766426030883789,23.80341,11.81590603088379,23.835720000000002Q11.865386030883789,23.868029999999997,11.92021603088379,23.89006Q11.975046030883789,23.912100000000002,12.033126030883789,23.923009999999998Q12.09120603088379,23.93392,12.150296030883789,23.9333Q12.209386030883788,23.93267,12.267226030883789,23.92053Q12.32505603088379,23.90839,12.379416030883789,23.88519Q12.433766030883788,23.862000000000002,12.482546030883789,23.82865Q12.53133603088379,23.795299999999997,12.57267603088379,23.75308L18.512066030883787,17.68641Q18.59440603088379,17.60231,18.63886603088379,17.49334Q18.683336030883787,17.38436,18.683336030883787,17.26667Q18.683336030883787,17.20757,18.67180603088379,17.14961Q18.66027603088379,17.09165,18.63765603088379,17.03706Q18.61504603088379,16.98246,18.58221603088379,16.933320000000002Q18.549386030883788,16.88419,18.50759603088379,16.8424Q18.46580603088379,16.80062,18.41667603088379,16.76779Q18.36753603088379,16.73495,18.31294603088379,16.71234Q18.25834603088379,16.68972,18.20038603088379,16.6782Q18.14242603088379,16.66667,18.08333603088379,16.66667L15.652236030883788,16.66667L17.554366030883788,14.384111Q17.621756030883788,14.303239,17.657596030883788,14.204255Q17.693436030883788,14.105271,17.693436030883788,14Q17.693436030883788,13.9409052,17.681906030883788,13.882946Q17.670376030883787,13.824985999999999,17.64775603088379,13.77039Q17.62514603088379,13.715793,17.59231603088379,13.666658Q17.55948603088379,13.617522,17.51769603088379,13.575736Q17.475906030883788,13.53395,17.42677603088379,13.501118Q17.37763603088379,13.468287,17.323046030883788,13.445672Q17.268446030883787,13.423058,17.21048603088379,13.411529Q17.152526030883788,13.4,17.09343603088379,13.4L12.63888603088379,13.4Q12.55863603088379,13.4,12.48120603088379,13.42109Q12.403776030883789,13.44218,12.334616030883788,13.482877Q12.265446030883789,13.523575,12.20940603088379,13.581019Q12.153366030883788,13.638462,12.114396030883789,13.708614ZM10.936376030883789,18.3L13.381316030883788,18.3Q13.46347603088379,18.3,13.542616030883789,18.32209Q13.599526030883789,18.33797,13.65225603088379,18.36466Q13.70498603088379,18.39134,13.75148603088379,18.4278Q13.79799603088379,18.46426,13.83649603088379,18.5091Q13.87499603088379,18.55393,13.904016030883788,18.60541Q13.933026030883788,18.65689,13.951446030883789,18.71304Q13.96985603088379,18.769199999999998,13.97695603088379,18.82786Q13.984066030883788,18.88653,13.97958603088379,18.94545Q13.97510603088379,19.00438,13.959226030883789,19.0613L13.35011603088379,21.24364L16.65624603088379,17.86667L14.37121603088379,17.86667Q14.26593603088379,17.86667,14.166956030883789,17.83083Q14.067976030883788,17.79499,13.987096030883789,17.7276Q13.895416030883789,17.6512,13.83994603088379,17.54552Q13.78447603088379,17.43985,13.773676030883788,17.320990000000002Q13.762866030883789,17.20213,13.798376030883789,17.08819Q13.83387603088379,16.97424,13.91027603088379,16.882559999999998L15.812406030883789,14.6L12.99192603088379,14.6L10.936376030883789,18.3Z" fill-rule="evenodd" fill="#333333" fill-opacity="1"/></g></g></svg>