<svg xmlns="http://www.w3.org/2000/svg" xmlns:xlink="http://www.w3.org/1999/xlink" fill="none" version="1.1" width="24" height="24" viewBox="0 0 24 24"><defs><clipPath id="master_svg0_584_03495"><rect x="0" y="0" width="24" height="24" rx="0"/></clipPath></defs><g clip-path="url(#master_svg0_584_03495)"><g><path d="M19.75,21L19.75,10Q19.75,9.9261315,19.735599999999998,9.853682Q19.7212,9.781233,19.6929,9.712987Q19.6646,9.644742,19.6236,9.583322Q19.5826,9.521903,19.5303,9.46967Q19.478099999999998,9.417437,19.4167,9.376398Q19.3553,9.335359,19.287,9.30709Q19.2188,9.278822,19.1463,9.264410999999999Q19.073900000000002,9.25,19,9.25Q18.926099999999998,9.25,18.8537,9.264410999999999Q18.7812,9.278822,18.713,9.30709Q18.6447,9.335359,18.5833,9.376398Q18.521900000000002,9.417437,18.4697,9.46967Q18.4174,9.521903,18.3764,9.583322Q18.3354,9.644742,18.3071,9.712987Q18.2788,9.781233,18.264400000000002,9.853682Q18.25,9.9261315,18.25,10L18.25,20.25L5.75,20.25L5.75,10Q5.75,9.9261315,5.735589,9.853682Q5.721178,9.781233,5.69291,9.712987Q5.664641,9.644742,5.623602,9.583322Q5.582563,9.521903,5.53033,9.46967Q5.478097,9.417437,5.416678,9.376398Q5.355258,9.335359,5.287013,9.30709Q5.218767,9.278822,5.146318,9.264410999999999Q5.0738685,9.25,5,9.25Q4.9261315,9.25,4.853682,9.264410999999999Q4.781233,9.278822,4.712987,9.30709Q4.644742,9.335359,4.583322,9.376398Q4.521903,9.417437,4.46967,9.46967Q4.417437,9.521903,4.376398,9.583322Q4.335359,9.644742,4.30709,9.712987Q4.278822,9.781233,4.264411,9.853682Q4.25,9.9261315,4.25,10L4.25,21Q4.25,21.073900000000002,4.264411,21.1463Q4.278822,21.2188,4.30709,21.287Q4.335359,21.3553,4.376398,21.4167Q4.417437,21.478099999999998,4.46967,21.5303Q4.521903,21.5826,4.583322,21.6236Q4.644742,21.6646,4.712987,21.6929Q4.781233,21.7212,4.853682,21.735599999999998Q4.9261315,21.75,5,21.75L19,21.75Q19.073900000000002,21.75,19.1463,21.735599999999998Q19.2188,21.7212,19.287,21.6929Q19.3553,21.6646,19.4167,21.6236Q19.478099999999998,21.5826,19.5303,21.5303Q19.5826,21.478099999999998,19.6236,21.4167Q19.6646,21.3553,19.6929,21.287Q19.7212,21.2188,19.735599999999998,21.1463Q19.75,21.073900000000002,19.75,21Z" fill-rule="evenodd" fill="#333333" fill-opacity="1"/></g><g><path d="M20.4549,12.51515L20.4555,12.51581Q20.5618,12.62794,20.7037,12.68897Q20.8455,12.75,21,12.75Q21.0093,12.75,21.0186,12.74977Q21.1576,12.74633,21.2862,12.69324Q21.4148,12.64014,21.5158,12.54446Q21.6279,12.43824,21.689,12.29635Q21.75,12.15446,21.75,12Q21.75,11.99072,21.7498,11.98144Q21.7463,11.84237,21.6932,11.71378Q21.6401,11.58519,21.5445,11.48419L21.5438,11.48353L19.176,8.98419Q19.1665,8.97411,19.1566,8.96438L12.52499,2.4643829999999998Q12.47291,2.41334,12.41198,2.373284Q12.35105,2.333229,12.28354,2.3056609999999997Q12.21603,2.278094,12.14448,2.264047Q12.07292,2.25,12,2.25Q11.92708,2.25,11.85553,2.264047Q11.78397,2.278094,11.71646,2.3056609999999997Q11.64896,2.333229,11.58802,2.373284Q11.52709,2.41334,11.47501,2.4643829999999998L4.84343,8.96438Q4.83351,8.97411,4.82396,8.98419L2.455955,11.48375L2.4555350000000002,11.48419Q2.3565519999999998,11.58867,2.303276,11.72237Q2.25,11.85608,2.25,12L2.25,12.00003Q2.25,12.01015,2.250274,12.02026Q2.254304,12.16939,2.315098,12.30563Q2.375891,12.44186,2.484191,12.54446Q2.588674,12.64345,2.722375,12.69672Q2.856075,12.75,3,12.75Q3.0101318,12.75,3.0202629,12.74973Q3.169393,12.7457,3.305628,12.6849Q3.441864,12.62411,3.5444649999999998,12.51581L3.544884,12.51537L5.90334,10.02589L12,4.05019L18.0967,10.02589L20.4549,12.51515Z" fill-rule="evenodd" fill="#333333" fill-opacity="1"/></g><g><path d="M10.47299,10.713191L8.472989,14.38819Q8.4,14.522310000000001,8.4,14.675Q8.4,14.73409,8.411529,14.79205Q8.423058,14.850010000000001,8.445672,14.90461Q8.468287,14.95921,8.501118,15.00834Q8.53395,15.05748,8.575736,15.099260000000001Q8.617522,15.14105,8.666658,15.17388Q8.715793,15.206710000000001,8.77039,15.229330000000001Q8.824985999999999,15.251940000000001,8.882946,15.26347Q8.9409052,15.275,9,15.275L10.75939,15.275L10.05761,17.84176Q10.036249999999999,17.91987,10.03636,18.00085Q10.036480000000001,18.08182,10.05805,18.159869999999998Q10.07963,18.23792,10.12112,18.30745Q10.16262,18.37699,10.22106,18.43304Q10.3072,18.51565,10.41839,18.55901Q10.52958,18.60236,10.64891,18.59987Q10.768229999999999,18.597369999999998,10.877510000000001,18.54941Q10.98679,18.50144,11.0694,18.415300000000002L15.43304,13.8653Q15.513390000000001,13.78152,15.5567,13.6738Q15.6,13.566089999999999,15.6,13.45Q15.6,13.39091,15.588470000000001,13.33295Q15.57694,13.274989999999999,15.55433,13.22039Q15.53171,13.16579,15.49888,13.11666Q15.46605,13.06752,15.42426,13.025739999999999Q15.382480000000001,12.98395,15.33334,12.95112Q15.28421,12.91829,15.229610000000001,12.895669999999999Q15.17501,12.87306,15.117049999999999,12.86153Q15.059090000000001,12.85,15,12.85L13.53706,12.85L14.73752,11.379426Q14.80311,11.299088,14.83792,11.201397Q14.87273,11.103707,14.87273,11Q14.87273,10.9409052,14.8612,10.882946Q14.84967,10.824985999999999,14.82705,10.77039Q14.80444,10.715793,14.771609999999999,10.666658Q14.73878,10.617522,14.69699,10.575736Q14.6552,10.53395,14.606069999999999,10.501118Q14.556930000000001,10.468287,14.50234,10.445672Q14.44774,10.423058,14.38978,10.411529Q14.33182,10.4,14.27273,10.4L11,10.4Q10.91908,10.4,10.84106,10.421435Q10.76304,10.442869,10.693480000000001,10.484207Q10.62392,10.525544,10.56779,10.583832Q10.51167,10.642119,10.47299,10.713191ZM10.00963,14.075L11.54545,14.075Q11.626,14.075,11.70369,14.09624Q11.7607,14.11183,11.813559999999999,14.13823Q11.86643,14.16464,11.91313,14.200849999999999Q11.95983,14.23707,11.99857,14.281690000000001Q12.0373,14.326319999999999,12.06659,14.37765Q12.095880000000001,14.42898,12.11459,14.48503Q12.1333,14.541080000000001,12.14071,14.59971Q12.14813,14.658339999999999,12.14396,14.71729Q12.139800000000001,14.77624,12.12421,14.83324L11.83794,15.88027L13.59324,14.05L12.27273,14.05Q12.16902,14.05,12.07133,14.01519Q11.97364,13.98038,11.8933,13.9148Q11.84752,13.87743,11.80992,13.83184Q11.772310000000001,13.78626,11.74431,13.73422Q11.71632,13.68217,11.69902,13.62567Q11.68172,13.56916,11.67577,13.51037Q11.669830000000001,13.45157,11.67547,13.39275Q11.6811,13.333919999999999,11.69811,13.27733Q11.71512,13.22073,11.742840000000001,13.16854Q11.77056,13.11635,11.807929999999999,13.07057L13.0084,11.6L11.35657,11.6L10.00963,14.075Z" fill-rule="evenodd" fill="#333333" fill-opacity="1"/></g></g></svg>