<svg xmlns="http://www.w3.org/2000/svg" xmlns:xlink="http://www.w3.org/1999/xlink" fill="none" version="1.1" width="28" height="28" viewBox="0 0 28 28"><g><g><rect x="0" y="0" width="28" height="28" rx="0" fill="#000000" fill-opacity="0"/></g><g><path d="M4.5,7L4,7C3.447715,7,3,6.55228,3,6C3,5.447715,3.447715,5,4,5L25,5C25.5523,5,26,5.447715,26,6C26,6.55228,25.5523,7,25,7L24.5,7L24.5,22L25,22C25.5523,22,26,22.4477,26,23C26,23.5523,25.5523,24,25,24L4,24C3.447715,24,3,23.5523,3,23C3,22.4477,3.447715,22,4,22L4.5,22L4.5,7ZM10.70711,17.2071L12.20711,15.7071C12.39464,15.5196,12.5,15.2652,12.5,15C12.5,14.73478,12.39464,14.48043,12.20711,14.29289C12.01957,14.10536,11.76522,14,11.5,14C11.32294,14,11.15073,14.04696,11,14.13397L11,12.5C11,11.94772,10.55228,11.5,10,11.5C9.44772,11.5,9,11.94772,9,12.5L9,14.13397C8.84927,14.04696,8.67706,14,8.5,14C8.23478,14,7.98043,14.10536,7.79289,14.29289C7.60536,14.48043,7.5,14.73478,7.5,15C7.5,15.2652,7.60536,15.5196,7.79289,15.7071L9.2926,17.2068L9.29289,17.2071C9.47386,17.3881,9.72386,17.5,10,17.5C10.27614,17.5,10.52614,17.3881,10.70711,17.2071ZM20,16.5L20,14.86603C20.1507,14.95304,20.3229,15,20.5,15C20.7652,15,21.0196,14.89464,21.2071,14.70711C21.3946,14.51957,21.5,14.26522,21.5,14C21.5,13.73478,21.3946,13.48043,21.2071,13.29289L19.7072,11.79303L19.7071,11.79289C19.5118,11.597629999999999,19.2559,11.5,19,11.5C18.8644,11.5,18.7351,11.52699,18.6172,11.57588C18.499299999999998,11.62468,18.3888,11.69702,18.2929,11.79289L16.7929,13.29289C16.6054,13.48043,16.5,13.73478,16.5,14C16.5,14.26522,16.6054,14.51957,16.7929,14.70711C16.9804,14.89464,17.2348,15,17.5,15C17.6771,15,17.8493,14.95304,18,14.86603L18,16.5C18,17.052300000000002,18.447699999999998,17.5,19,17.5C19.5523,17.5,20,17.052300000000002,20,16.5Z" fill-rule="evenodd" fill="#000000" fill-opacity="1"/></g></g></svg>