<svg xmlns="http://www.w3.org/2000/svg" xmlns:xlink="http://www.w3.org/1999/xlink" fill="none" version="1.1" width="28" height="28" viewBox="0 0 28 28"><defs><clipPath id="master_svg0_77_07295"><rect x="0" y="0" width="28" height="28" rx="0"/></clipPath></defs><g clip-path="url(#master_svg0_77_07295)"><g><path d="M3,4L3,24C3,25.1046,3.916255,26,5.04651,26L22.9535,26C24.0837,26,25,25.1046,25,24L25,4C25,2.895431,24.0837,2,22.9535,2L5.04651,2C3.916255,2,3,2.895431,3,4ZM4.37526,23.659L4.37526,4.341C4.37526,3.78872,4.83338,3.341,5.39851,3.341L13.3124,3.341L13.3124,24.659L5.39851,24.659C4.83338,24.659,4.37526,24.2113,4.37526,23.659ZM22.6015,24.659L14.6881,24.659L14.6881,3.341L22.602,3.341C23.1671,3.341,23.6253,3.78872,23.6253,4.341L23.6253,23.659C23.6253,24.2113,23.1671,24.659,22.602,24.659L22.6015,24.659ZM9.46288,10.312C9.134170000000001,9.94809,8.553460000000001,9.94809,8.22474,10.312L5.92856,12.8735C5.69672,13.1605,5.69672,13.5655,5.92856,13.8525C6.14878,14.1387,6.58833,14.1387,6.80856,13.8525L8.183810000000001,12.3505L8.183810000000001,17.299C8.183810000000001,17.669,8.491299999999999,17.969,8.87144,17.969C9.25107,17.969,9.55856,17.669,9.55856,17.299L9.55856,12.35L10.933810000000001,13.852C11.16464,14.1167,11.58299,14.1167,11.81381,13.852C12.04565,13.565,12.04565,13.16,11.81381,12.873L9.46237,10.3115L9.46288,10.312ZM18.537599999999998,17.688000000000002C18.866300000000003,18.0515,19.4466,18.0515,19.7753,17.688000000000002L22.0714,15.1265C22.3033,14.8395,22.3033,14.4345,22.0714,14.1475C21.8512,13.8613,21.4117,13.8613,21.1914,14.1475L19.8162,15.6495L19.8162,10.701C19.8162,10.331,19.5087,10.031,19.1286,10.031C18.7489,10.031,18.4414,10.331,18.4414,10.701L18.4414,15.65L17.066200000000002,14.148C16.8354,13.8833,16.417,13.8833,16.1862,14.148C15.9543,14.435,15.9543,14.84,16.1862,15.127L18.537599999999998,17.688499999999998L18.537599999999998,17.688000000000002Z" fill="#111111" fill-opacity="1"/></g></g></svg>