<svg xmlns="http://www.w3.org/2000/svg" xmlns:xlink="http://www.w3.org/1999/xlink" fill="none" version="1.1" width="24" height="24" viewBox="0 0 24 24"><g><g><path d="M1.25,9L1.25,15Q1.25,19.0607,3.09467,20.9053Q4.93934,22.75,9,22.75L15,22.75Q19.0607,22.75,20.9053,20.9053Q22.75,19.0607,22.75,15L22.75,9Q22.75,4.93934,20.9053,3.09467Q19.0607,1.25,15,1.25L9,1.25Q4.93934,1.25,3.09467,3.09467Q1.25,4.93934,1.25,9ZM4.15533,19.8447Q2.75,18.4393,2.75,15L2.75,9Q2.75,5.56066,4.15533,4.15533Q5.56066,2.75,9,2.75L15,2.75Q18.4393,2.75,19.8447,4.15533Q21.25,5.56066,21.25,9L21.25,15Q21.25,18.4393,19.8447,19.8447Q18.4393,21.25,15,21.25L9,21.25Q5.56066,21.25,4.15533,19.8447Z" fill-rule="evenodd" fill="#0C0507" fill-opacity="1"/></g><g><path d="M17.262529923706055,9.969795228881836L17.262759923706056,9.969491228881836Q17.281239923706053,9.945653228881836,17.297749923706057,9.920407228881835Q17.419999923706055,9.733412228881836,17.419999923706055,9.510000228881836Q17.419999923706055,9.424187428881837,17.400599923706054,9.340592228881835Q17.381199923706056,9.256997228881836,17.343499923706055,9.179941228881836Q17.305709923706054,9.102884228881836,17.251509923706053,9.036349228881836Q17.197319923706054,8.969814228881836,17.129499923706057,8.917240228881836Q17.105649923706054,8.898758228881835,17.080409923706057,8.882253228881837Q16.893409923706052,8.760000228881836,16.669999923706055,8.760000228881836Q16.622689923706055,8.760000228881836,16.575759923706055,8.765944228881835L16.572549923706056,8.766359228881836Q16.425459923706054,8.785634228881836,16.296789923706054,8.859450228881837Q16.168119923706055,8.933267228881835,16.077239923706053,9.050509228881836L16.076999923706055,9.050813228881836L13.767239923706054,12.030510228881836Q13.613499923706055,12.224880228881837,13.408589923706055,12.066540228881836L11.583789923706055,10.630600228881836Q11.002939923706055,10.181720228881836,10.282679923706056,10.273518228881835Q9.561629923706054,10.365416228881836,9.116539923706055,10.941410228881836L6.736077923706055,14.032010228881836L6.735817923706055,14.032350228881835Q6.660044923706055,14.130720228881836,6.620021923706055,14.248270228881836Q6.579999923706055,14.365820228881836,6.579999923706055,14.490000228881836L6.580024923706055,14.496150228881836Q6.580396923706054,14.541530228881836,6.586238923706055,14.586540228881836Q6.605441923706055,14.734480228881836,6.679798923706055,14.863820228881835Q6.7541549237060545,14.993150228881836,6.872344923706055,15.084180228881836Q6.970722923706055,15.159950228881836,7.088272923706055,15.199980228881836Q7.205822923706054,15.240000228881836,7.329999923706055,15.240000228881836Q7.3396059237060545,15.240000228881836,7.349210023706054,15.239750228881835Q7.432857923706055,15.237610228881836,7.513975923706055,15.217080228881837Q7.595094923706054,15.196560228881836,7.6696949237060545,15.158660228881836Q7.744295923706055,15.120760228881835,7.808708923706055,15.067350228881836Q7.873122923706054,15.013950228881836,7.924181923706055,14.947650228881836L7.924441923706055,14.947320228881836L10.303459923706054,11.858590228881836Q10.368249923706054,11.774750228881835,10.472319923706054,11.761480228881837Q10.576889923706055,11.748150228881837,10.656209923706054,11.809400228881836L12.491409923706055,13.253460228881835Q13.064519923706055,13.696320228881836,13.783729923706055,13.608180228881835Q14.501539923706055,13.520210228881837,14.952759923706054,12.949490228881835L17.262529923706055,9.969795228881836Z" fill-rule="evenodd" fill="#0C0507" fill-opacity="1"/></g><g style="opacity:0;"></g></g></svg>