<svg xmlns="http://www.w3.org/2000/svg" xmlns:xlink="http://www.w3.org/1999/xlink" fill="none" version="1.1" width="20" height="20" viewBox="0 0 20 20"><g><path d="M20,0.833684C20,0.372632,19.6274,0,19.1663,0L0.833684,0C0.372632,0,0,0.372632,0,0.833684L0,19.1663C0,19.6267,0.373253,20,0.833684,20L19.1663,20C19.6267,20,20,19.6267,20,19.1663L20,0.833684ZM10.229,5.77829L10.229,15.789L8.0445,15.7887L8.0445,5.77829C8.0445,5.49909,8.24318,5.2627,8.48138,5.2627L9.7921,5.2627C10.0304,5.2627,10.229,5.49909,10.229,5.77829ZM7.44857,8.78608L7.44857,15.789L5.26392,15.789L5.26392,8.78608C5.25806,8.52878,5.45004,8.31176,5.70097,8.29202L7.01169,8.29202C7.26595,8.30461,7.46181,8.5261,7.44857,8.78608ZM15.7895,8.78608L15.7895,15.789L13.605,15.789L13.605,8.78608C13.5991,8.52885,13.791,8.31184,14.0419,8.29202L15.3526,8.29202C15.6069,8.30461,15.8027,8.5261,15.7895,8.78608ZM13.0092,11.3635L13.0092,15.789L10.8251,15.7888L10.8251,11.3635C10.8251,11.0842,11.0236,10.848,11.262,10.848L12.5723,10.848C12.8106,10.848,13.0092,11.0842,13.0092,11.3635Z" fill-rule="evenodd" fill="#015C5F" fill-opacity="1"/></g></svg>