<svg xmlns="http://www.w3.org/2000/svg" xmlns:xlink="http://www.w3.org/1999/xlink" fill="none" version="1.1" width="20" height="20" viewBox="0 0 20 20"><g><g><g><g><g><g><path d="M7.6,17.5L9.2,17.5Q9.24924,17.5,9.29754,17.4904Q9.345839999999999,17.480800000000002,9.39134,17.4619Q9.43684,17.4431,9.47778,17.4157Q9.51873,17.3884,9.553550000000001,17.3536Q9.588370000000001,17.3187,9.61573,17.2778Q9.64309,17.236800000000002,9.661940000000001,17.1913Q9.68078,17.1458,9.69039,17.0975Q9.7,17.0492,9.7,17Q9.7,16.9508,9.69039,16.9025Q9.68078,16.8542,9.661940000000001,16.8087Q9.64309,16.763199999999998,9.61573,16.7222Q9.588370000000001,16.6813,9.553550000000001,16.6464Q9.51873,16.6116,9.47778,16.5843Q9.43684,16.5569,9.39134,16.5381Q9.345839999999999,16.519199999999998,9.29754,16.5096Q9.24924,16.5,9.2,16.5L7.6,16.5Q4.78787,16.5,3.62925,15.4862Q2.5,14.4981,2.5,12.1L2.5,7.9Q2.5,5.50188,3.62925,4.51379Q4.78787,3.5,7.6,3.5L12.4,3.5Q15.2121,3.5,16.3707,4.51379Q17.5,5.50188,17.5,7.9L17.5,8.6Q17.5,8.64925,17.5096,8.69754Q17.519199999999998,8.745840000000001,17.5381,8.79134Q17.5569,8.836839999999999,17.5843,8.87778Q17.6116,8.91873,17.6464,8.95355Q17.6813,8.98837,17.7222,9.01573Q17.763199999999998,9.04309,17.8087,9.06194Q17.8542,9.08078,17.9025,9.09039Q17.9508,9.1,18,9.1Q18.0459,9.1,18.091,9.09165Q18.1337,9.083739999999999,18.1745,9.068570000000001Q18.2152,9.0534,18.2527,9.03142Q18.2903,9.00944,18.3234,8.98132Q18.3566,8.953199999999999,18.3844,8.91977Q18.4122,8.88635,18.4338,8.84863Q18.4554,8.8109,18.4702,8.770019999999999Q18.485,8.72913,18.4925,8.6863Q18.5,8.64348,18.5,8.6L18.5,7.9Q18.5,5.04812,17.0293,3.761212Q15.5879,2.5,12.4,2.5L7.6,2.5Q4.412129999999999,2.5,2.970748,3.761212Q1.5,5.04812,1.5,7.9L1.5,12.1Q1.5,14.9519,2.9707470000000002,16.238799999999998Q4.412129999999999,17.5,7.6,17.5Z" fill-rule="evenodd" fill="#000000" fill-opacity="1"/></g><g><path d="M13.099999046325683,17C13.099999046325683,17,16.899999046325682,17,16.899999046325682,17C18.399999046325682,17,18.999999046325684,16.4,18.999999046325684,14.9C18.999999046325684,14.9,18.999999046325684,13.1,18.999999046325684,13.1C18.999999046325684,11.6,18.399999046325682,11,16.899999046325682,11C16.899999046325682,11,13.099999046325683,11,13.099999046325683,11C11.599999046325683,11,10.999999046325684,11.6,10.999999046325684,13.1C10.999999046325684,13.1,10.999999046325684,14.9,10.999999046325684,14.9C10.999999046325685,16.4,11.599999046325683,17,13.099999046325683,17Z" fill="#000000" fill-opacity="1"/></g></g><g style="opacity:0;"><path d="M0,20L0,0L20,0L20,20L0,20ZM1,19L1,1L19,1L19,19L1,19Z" fill-rule="evenodd" fill="#000000" fill-opacity="1"/></g></g></g></g></g></svg>