<svg xmlns="http://www.w3.org/2000/svg" xmlns:xlink="http://www.w3.org/1999/xlink" fill="none" version="1.1" width="24" height="24" viewBox="0 0 24 24"><g><g><rect x="0" y="0" width="24" height="24" rx="0" fill="#FFFFFF" fill-opacity="0.009999999776482582"/></g><g><path d="M24,0L0,0L0,24L24,24L24,0Z" fill="#FFFFFF" fill-opacity="0.009999999776482582"/></g><g><path d="M19,1L5,1C4.447715,1,4,1.447715,4,2L4,22C4,22.5523,4.447715,23,5,23L19,23C19.552300000000002,23,20,22.5523,20,22L20,2C20,1.447715,19.552300000000002,1,19,1Z" fill="#015C5F" fill-opacity="1"/><path d="M21,22L21,2Q21,1.171573,20.4142,0.58579Q19.828400000000002,0,19,0L5,0Q4.171573,0,3.585786,0.5857859999999999Q3,1.171573,3,2L3,22Q3,22.8284,3.58579,23.4142Q4.171574,24,5,24L19,24Q19.828400000000002,24,20.4142,23.4142Q21,22.8284,21,22ZM5,2L19,2L19,22L5,22L5,2Z" fill-rule="evenodd" fill="#015C5F" fill-opacity="1"/></g><g><path d="M15,16Q15,16.14738,14.98555,16.29405Q14.97111,16.44072,14.942350000000001,16.58527Q14.913599999999999,16.72982,14.87082,16.87085Q14.82804,17.01189,14.77164,17.148049999999998Q14.71524,17.28421,14.64576,17.414189999999998Q14.57629,17.54417,14.49441,17.666710000000002Q14.41253,17.78925,14.31903,17.90318Q14.22553,18.01711,14.12132,18.12132Q14.017109999999999,18.22553,13.903179999999999,18.319029999999998Q13.78925,18.41253,13.66671,18.494410000000002Q13.544170000000001,18.57629,13.41419,18.64576Q13.28421,18.71524,13.14805,18.771639999999998Q13.011890000000001,18.82804,12.87085,18.870820000000002Q12.72982,18.9136,12.58527,18.94236Q12.440719999999999,18.97111,12.29405,18.98555Q12.14738,19,12,19Q11.85262,19,11.70595,18.98555Q11.559280000000001,18.97111,11.41473,18.94235Q11.27018,18.9136,11.12915,18.870820000000002Q10.98811,18.82804,10.85195,18.771639999999998Q10.71579,18.71524,10.58581,18.64576Q10.45583,18.57629,10.33329,18.494410000000002Q10.21075,18.41253,10.09682,18.319029999999998Q9.982893,18.22553,9.87868,18.12132Q9.774466,18.01711,9.680969,17.90318Q9.587471,17.78925,9.505591,17.666710000000002Q9.423711,17.54417,9.354236,17.414189999999998Q9.284761,17.28421,9.228361,17.148049999999998Q9.171961,17.01189,9.129179,16.87085Q9.0863967,16.72982,9.0576442,16.58527Q9.0288916,16.44072,9.0144458,16.29405Q9,16.14738,9,16Q9,15.85262,9.0144458,15.70595Q9.0288916,15.559280000000001,9.0576442,15.41473Q9.0863967,15.27018,9.129179,15.12915Q9.171961,14.98811,9.228361,14.85195Q9.284761,14.71579,9.354236,14.58581Q9.423711,14.45583,9.505591,14.33329Q9.587471,14.21075,9.680969,14.09682Q9.774466,13.982893,9.87868,13.87868Q9.982893,13.774466,10.09682,13.680969Q10.21075,13.587471,10.33329,13.505591Q10.45583,13.423711,10.58581,13.354236Q10.71579,13.284761,10.85195,13.228361Q10.98811,13.171961,11.12915,13.129179Q11.27018,13.0863967,11.41473,13.0576442Q11.559280000000001,13.0288916,11.70595,13.0144458Q11.85262,13,12,13Q12.14738,13,12.29405,13.0144458Q12.440719999999999,13.0288916,12.58527,13.0576442Q12.72982,13.0863967,12.87085,13.129179Q13.011890000000001,13.171961,13.14805,13.228361Q13.28421,13.284761,13.41419,13.354236Q13.544170000000001,13.423711,13.66671,13.505591Q13.78925,13.587471,13.903179999999999,13.680969Q14.017109999999999,13.774466,14.12132,13.87868Q14.22553,13.982893,14.31903,14.09682Q14.41253,14.21075,14.49441,14.33329Q14.57629,14.45583,14.64576,14.58581Q14.71524,14.71579,14.77164,14.85195Q14.82804,14.98811,14.87082,15.12915Q14.913599999999999,15.27018,14.94236,15.41473Q14.97111,15.559280000000001,14.98555,15.70595Q15,15.85262,15,16Z" fill="#FFFFFF" fill-opacity="1"/><path d="M9.171578,13.171578Q8,14.34316,8,16Q8,17.65684,9.171578,18.82842Q10.34316,20,12,20Q13.656839999999999,20,14.828420000000001,18.82842Q16,17.65684,16,16Q16,14.34316,14.828420000000001,13.171578Q13.656839999999999,12,12,12Q10.34316,12,9.171578,13.171578ZM10.58579,17.41421Q10,16.82842,10,16Q10,15.17158,10.58579,14.58579Q11.17158,14,12,14Q12.82842,14,13.41421,14.58579Q14,15.17158,14,16Q14,16.82842,13.41421,17.41421Q12.82842,18,12,18Q11.17158,18,10.58579,17.41421Z" fill-rule="evenodd" fill="#FFFFFF" fill-opacity="1"/></g><g><path d="M14,7Q14,7.09825,13.99037,7.19603Q13.98074,7.293810000000001,13.96157,7.39018Q13.9424,7.486549999999999,13.913879999999999,7.58057Q13.88536,7.67459,13.847760000000001,7.76537Q13.81016,7.85614,13.76384,7.9427900000000005Q13.71753,8.02945,13.662939999999999,8.111139999999999Q13.60835,8.19284,13.54602,8.26879Q13.48369,8.34474,13.41421,8.41421Q13.34474,8.48369,13.26879,8.54602Q13.19284,8.60835,13.111139999999999,8.662939999999999Q13.02945,8.71753,12.94279,8.76384Q12.85614,8.81016,12.76537,8.847760000000001Q12.67459,8.88536,12.58057,8.913879999999999Q12.48655,8.9424,12.39018,8.96157Q12.29381,8.98074,12.19603,8.99037Q12.09825,9,12,9Q11.90175,9,11.80397,8.99037Q11.70619,8.98074,11.60982,8.96157Q11.51345,8.9424,11.41943,8.913879999999999Q11.32541,8.88536,11.23463,8.847760000000001Q11.14386,8.81016,11.05721,8.76384Q10.970554,8.71753,10.888859,8.662939999999999Q10.807164,8.60835,10.731213,8.54602Q10.655262,8.48369,10.585786,8.41421Q10.516311,8.34474,10.453979,8.26879Q10.391648,8.19284,10.337061,8.111139999999999Q10.282474,8.02945,10.236157,7.9427900000000005Q10.189841,7.85614,10.152241,7.76537Q10.114641,7.67459,10.0861193,7.58057Q10.0575978,7.486549999999999,10.0384294,7.39018Q10.0192611,7.293810000000001,10.00963055,7.19603Q10,7.09825,10,7Q10,6.90175,10.00963055,6.80397Q10.0192611,6.70619,10.0384294,6.60982Q10.0575978,6.51345,10.0861193,6.41943Q10.114641,6.32541,10.152241,6.23463Q10.189841,6.14386,10.236157,6.0572099999999995Q10.282474,5.970554,10.337061,5.888859Q10.391648,5.807164,10.453979,5.731213Q10.516311,5.6552620000000005,10.585786,5.585786Q10.655262,5.516311,10.731213,5.453979Q10.807164,5.391648,10.888859,5.337061Q10.970554,5.282474,11.05721,5.236157Q11.14386,5.189841,11.23463,5.152241Q11.32541,5.114641,11.41943,5.0861193Q11.51345,5.0575978,11.60982,5.0384294Q11.70619,5.0192611,11.80397,5.00963055Q11.90175,5,12,5Q12.09825,5,12.19603,5.00963055Q12.29381,5.0192611,12.39018,5.0384294Q12.48655,5.0575978,12.58057,5.0861193Q12.67459,5.114641,12.76537,5.152241Q12.85614,5.189841,12.94279,5.236157Q13.02945,5.282474,13.111139999999999,5.337061Q13.19284,5.391648,13.26879,5.453979Q13.34474,5.516311,13.41421,5.585786Q13.48369,5.6552620000000005,13.54602,5.731213Q13.60835,5.807164,13.662939999999999,5.888859Q13.71753,5.970554,13.76384,6.0572099999999995Q13.81016,6.14386,13.847760000000001,6.23463Q13.88536,6.32541,13.913879999999999,6.41943Q13.9424,6.51345,13.96157,6.60982Q13.98074,6.70619,13.99037,6.80397Q14,6.90175,14,7Z" fill="#FFFFFF" fill-opacity="1"/><path d="M9.878687,4.878687Q9,5.757374,9,7Q9,8.24263,9.878687,9.121310000000001Q10.757374,10,12,10Q13.24263,10,14.121310000000001,9.121310000000001Q15,8.24263,15,7Q15,5.757374,14.121310000000001,4.878687Q13.24263,4,12,4Q10.757374,4,9.878687,4.878687ZM11.2929,7.7071000000000005Q11,7.4142,11,7Q11,6.5858,11.2929,6.2928999999999995Q11.5858,6,12,6Q12.414200000000001,6,12.7071,6.2928999999999995Q13,6.5858,13,7Q13,7.4142,12.7071,7.7071000000000005Q12.414200000000001,8,12,8Q11.5858,8,11.2929,7.7071000000000005Z" fill-rule="evenodd" fill="#FFFFFF" fill-opacity="1"/></g></g></svg>