<svg xmlns="http://www.w3.org/2000/svg" xmlns:xlink="http://www.w3.org/1999/xlink" fill="none" version="1.1" width="20" height="20" viewBox="0 0 20 20"><g><g transform="matrix(-1,0,0,-1,40,40)"><g><g><g><g><g><g><path d="M27.6,37.5L29.2,37.5Q29.24924,37.5,29.297539999999998,37.4904Q29.34584,37.4808,29.39134,37.4619Q29.43684,37.4431,29.47778,37.4157Q29.518729999999998,37.388400000000004,29.55355,37.3536Q29.58837,37.3187,29.61573,37.2778Q29.64309,37.2368,29.66194,37.1913Q29.68078,37.1458,29.69039,37.0975Q29.7,37.0492,29.7,37Q29.7,36.9508,29.69039,36.9025Q29.68078,36.8542,29.66194,36.8087Q29.64309,36.7632,29.61573,36.7222Q29.58837,36.6813,29.55355,36.6464Q29.518729999999998,36.611599999999996,29.47778,36.5843Q29.43684,36.5569,29.39134,36.5381Q29.34584,36.5192,29.297539999999998,36.5096Q29.24924,36.5,29.2,36.5L27.6,36.5Q24.787869999999998,36.5,23.62925,35.4862Q22.5,34.4981,22.5,32.1L22.5,27.9Q22.5,25.50188,23.62925,24.51379Q24.787869999999998,23.5,27.6,23.5L32.4,23.5Q35.2121,23.5,36.3707,24.51379Q37.5,25.50188,37.5,27.9L37.5,28.6Q37.5,28.649250000000002,37.5096,28.69754Q37.5192,28.74584,37.5381,28.791339999999998Q37.5569,28.83684,37.5843,28.87778Q37.611599999999996,28.91873,37.6464,28.95355Q37.6813,28.98837,37.7222,29.015729999999998Q37.7632,29.04309,37.8087,29.06194Q37.8542,29.08078,37.9025,29.09039Q37.9508,29.1,38,29.1Q38.0459,29.1,38.091,29.09165Q38.133700000000005,29.08374,38.174499999999995,29.06857Q38.215199999999996,29.0534,38.252700000000004,29.03142Q38.2903,29.009439999999998,38.3234,28.98132Q38.3566,28.9532,38.3844,28.91977Q38.4122,28.88635,38.433800000000005,28.84863Q38.4554,28.8109,38.4702,28.77002Q38.485,28.729129999999998,38.4925,28.6863Q38.5,28.64348,38.5,28.6L38.5,27.9Q38.5,25.04812,37.0293,23.761212Q35.5879,22.5,32.4,22.5L27.6,22.5Q24.41213,22.5,22.970748,23.761212Q21.5,25.04812,21.5,27.9L21.5,32.1Q21.5,34.9519,22.970747,36.2388Q24.41213,37.5,27.6,37.5Z" fill-rule="evenodd" fill="#000000" fill-opacity="1"/></g><g><path d="M33.099999046325685,37C33.099999046325685,37,36.89999904632568,37,36.89999904632568,37C38.39999904632568,37,38.999999046325684,36.4,38.999999046325684,34.9C38.999999046325684,34.9,38.999999046325684,33.1,38.999999046325684,33.1C38.999999046325684,31.6,38.39999904632568,31,36.89999904632568,31C36.89999904632568,31,33.099999046325685,31,33.099999046325685,31C31.599999046325685,31,30.999999046325684,31.6,30.999999046325684,33.1C30.999999046325684,33.1,30.999999046325684,34.9,30.999999046325684,34.9C30.999999046325687,36.4,31.599999046325685,37,33.099999046325685,37Z" fill="#000000" fill-opacity="1"/></g></g><g style="opacity:0;"><path d="M20,40L20,20L40,20L40,40L20,40ZM21,39L21,21L39,21L39,39L21,39Z" fill-rule="evenodd" fill="#000000" fill-opacity="1"/></g></g></g></g></g></g></g></svg>