<svg xmlns="http://www.w3.org/2000/svg" xmlns:xlink="http://www.w3.org/1999/xlink" fill="none" version="1.1" width="24" height="24" viewBox="0 0 24 24"><g transform="matrix(0,-1,-1,0,48,48)"><g><path d="M39.25998046875,46.250303125C39.25998046875,46.250303125,32.73998046875,46.250303125,32.73998046875,46.250303125C27.82998046875,46.250303125,25.72998046875,44.150303125,25.72998046875,39.240273125C25.72998046875,39.240273125,25.72998046875,39.110273125,25.72998046875,39.110273125C25.72998046875,34.670273125,27.47998046875,32.530270125,31.39998046875,32.160269725C31.79998046875,32.130269725,32.17998046875,32.430270125,32.21998046875,32.840270125C32.25998046875,33.250273125,31.95998046875,33.620273125,31.53998046875,33.660273125C28.39998046875,33.950273125,27.22998046875,35.430273125,27.22998046875,39.120273125C27.22998046875,39.120273125,27.22998046875,39.250273125,27.22998046875,39.250273125C27.22998046875,43.320303125,28.66998046875,44.760303125,32.73998046875,44.760303125C32.73998046875,44.760303125,39.25998046875,44.760303125,39.25998046875,44.760303125C43.32998046875,44.760303125,44.76998046875,43.320303125,44.76998046875,39.250273125C44.76998046875,39.250273125,44.76998046875,39.120273125,44.76998046875,39.120273125C44.76998046875,35.410273125,43.57998046875,33.930273125,40.37998046875,33.660273125C39.96998046875,33.620273125,39.65998046875,33.260273125,39.69998046875,32.850270125C39.73998046875,32.440270125,40.08998046875,32.130269925,40.50998046875,32.170269925C44.489980468750005,32.510270125,46.26998046875,34.660273125,46.26998046875,39.130273125C46.26998046875,39.130273125,46.26998046875,39.260273125,46.26998046875,39.260273125C46.26998046875,44.150303125,44.16998046875,46.250303125,39.25998046875,46.250303125Z" fill="#8A92A6" fill-opacity="1"/></g><g><path d="M36,39.749140625C35.59,39.749140625,35.25,39.409140625,35.25,38.999140625C35.25,38.999140625,35.25,27.619140625,35.25,27.619140625C35.25,27.209140625,35.59,26.869140625,36,26.869140625C36.41,26.869140625,36.75,27.209140625,36.75,27.619140625C36.75,27.619140625,36.75,38.999140625,36.75,38.999140625C36.75,39.409140625,36.41,39.749140625,36,39.749140625Z" fill="#8A92A6" fill-opacity="1"/></g><g><path d="M39.34984375,30.599453125C39.15984375,30.599453125,38.96984375,30.529453125,38.819843750000004,30.379453125C38.819843750000004,30.379453125,35.99984375,27.559453125,35.99984375,27.559453125C35.99984375,27.559453125,33.17984375,30.379453125,33.17984375,30.379453125C32.88984375,30.669453125,32.40984375,30.669453125,32.11984375,30.379453125C31.82984375,30.089453125,31.82984375,29.609453125,32.11984375,29.319453125C32.11984375,29.319453125,35.46984375,25.969453125,35.46984375,25.969453125C35.75984375,25.679453125,36.23984375,25.679453125,36.52984375,25.969453125C36.52984375,25.969453125,39.87984375,29.319453125,39.87984375,29.319453125C40.16984375,29.609453125,40.16984375,30.089453125,39.87984375,30.379453125C39.73984375,30.529453125,39.53984375,30.599453125,39.34984375,30.599453125Z" fill="#8A92A6" fill-opacity="1"/></g><g style="opacity:0;"></g></g></svg>