<svg xmlns="http://www.w3.org/2000/svg" xmlns:xlink="http://www.w3.org/1999/xlink" fill="none" version="1.1" width="24" height="24" viewBox="0 0 24 24"><g><g><g><g><path d="M15.060330076293944,8.939670076293945Q13.790660076293946,7.670000076293945,12.000000076293945,7.670000076293945Q10.204340076293946,7.670000076293945,8.937170076293945,8.937170076293945Q7.670000076293945,10.204340076293946,7.670000076293945,12.000000076293945Q7.670000076293945,13.790660076293946,8.939670076293945,15.060330076293944Q9.045159076293945,15.165820076293945,9.182988076293945,15.222910076293946Q9.320816076293946,15.280000076293945,9.470000076293946,15.280000076293945Q9.619180076293945,15.280000076293945,9.757010076293945,15.222910076293946Q9.894840076293946,15.165820076293945,10.000330076293945,15.060330076293944L15.060330076293944,10.000330076293945Q15.165820076293945,9.894840076293946,15.222910076293946,9.757010076293945Q15.280000076293945,9.619180076293945,15.280000076293945,9.470000076293946Q15.280000076293945,9.320816076293946,15.222910076293946,9.182988076293945Q15.165820076293945,9.045159076293945,15.060330076293944,8.939670076293945ZM9.997830076293946,9.997830076293946Q10.825660076293946,9.170000076293945,12.000000076293945,9.170000076293945Q12.776380076293945,9.170000076293945,13.403310076293945,9.536030076293946L9.536030076293946,13.403310076293945Q9.170000076293945,12.776380076293945,9.170000076293945,12.000000076293945Q9.170000076293945,10.825660076293946,9.997830076293946,9.997830076293946Z" fill-rule="evenodd" fill="#000000" fill-opacity="1"/></g><g><path d="M5.110900152587891,18.338600019073485L5.110970152587891,18.338600019073485Q5.213020152587891,18.426400019073487,5.33921015258789,18.473200019073488Q5.465410152587891,18.520000019073485,5.60000015258789,18.520000019073485Q5.628190152587891,18.520000019073485,5.656290152587891,18.517900019073487Q5.80506015258789,18.506700019073484,5.9382101525878905,18.43940001907349Q6.071360152587891,18.372100019073486,6.168640152587891,18.259000019073486Q6.256400152587891,18.157000019073486,6.30320015258789,18.03080001907349Q6.35000015258789,17.904600019073484,6.35000015258789,17.770000019073485L6.35000015258789,17.767800019073487Q6.349920152587891,17.740700019073486,6.347880152587891,17.713700019073485Q6.336690152587891,17.564900019073484,6.2694101525878905,17.431800019073485Q6.202140152587891,17.298600019073486,6.08903015258789,17.201400019073485Q4.64590015258789,15.960300019073486,3.5225401525878905,14.197000019073487Q2.9650001525878906,13.323540019073487,2.9650001525878906,12.005000019073487Q2.9650001525878906,10.686460019073486,3.522190152587891,9.813530019073486Q5.154800152587891,7.2469800190734865,7.3778701525878905,5.8557700190734865Q9.57626015258789,4.480000019073486,12.00000015258789,4.480000019073486Q14.86430015258789,4.480000019073486,17.36840015258789,6.368770019073486Q17.465900152587892,6.442370019073486,17.58190015258789,6.481190019073486Q17.697800152587888,6.520000019073486,17.82000015258789,6.520000019073486Q17.833400152587892,6.520000019073486,17.84680015258789,6.519520019073486Q17.930400152587893,6.516540019073487,18.011300152587893,6.495190019073487Q18.092200152587893,6.4738500190734865,18.16640015258789,6.435200019073486Q18.24060015258789,6.396550019073486,18.30450015258789,6.342500019073486Q18.368400152587892,6.288440019073486,18.41880015258789,6.221640019073487Q18.49240015258789,6.124050019073486,18.53120015258789,6.008140019073487Q18.57000015258789,5.892240019073487,18.57000015258789,5.770000019073486L18.57000015258789,5.765450019073486Q18.56970015258789,5.715470019073487,18.56270015258789,5.6659700190734865Q18.542100152587892,5.518220019073486,18.46640015258789,5.389650019073486Q18.39070015258789,5.261070019073486,18.27160015258789,5.171230019073486Q15.36660015258789,2.9800000190734863,12.00000015258789,2.9800000190734863Q9.14560015258789,2.9800000190734863,6.582130152587891,4.584232019073486Q4.071340152587891,6.155500019073486,2.257808552587891,9.006470019073486Q1.4650001525878906,10.248540019073486,1.4650001525878906,12.005000019073487Q1.4650001525878906,13.761500019073486,2.2574641525878905,15.003000019073486Q3.4997101525878906,16.952800019073486,5.110550152587891,18.338300019073486L5.110900152587891,18.338600019073485Z" fill-rule="evenodd" fill="#000000" fill-opacity="1"/></g><g><path d="M20.635300076293944,7.461042828338623Q21.263500076293944,8.242135828338624,21.743200076293945,8.998129828338623Q22.535000076293947,10.238539828338624,22.535000076293947,11.994999828338624Q22.535000076293947,13.751459828338623,21.742200076293948,14.993529828338623Q19.928700076293943,17.844499828338623,17.417870076293944,19.41579982833862Q14.854410076293945,21.019999828338623,12.000000076293945,21.019999828338623Q10.026050076293945,21.019999828338623,8.128957076293945,20.221199828338623Q8.033874076293944,20.181199828338624,7.9531320762939455,20.11699982833862Q7.872390076293946,20.05279982833862,7.811987076293946,19.96909982833862Q7.7515830762939455,19.885499828338624,7.7160060762939455,19.788599828338622Q7.680429076293946,19.691799828338624,7.672320076293945,19.588899828338622Q7.670000076293945,19.559499828338623,7.670000076293945,19.529999828338624Q7.670000076293945,19.378499828338622,7.728773076293946,19.23899982833862Q7.7866650762939456,19.101499828338625,7.8927670762939455,18.996599828338624Q7.998869076293945,18.891699828338623,8.137028076293944,18.835399828338623Q8.266232076293946,18.782799828338625,8.405721276293946,18.78009982833862Q8.412860036293946,18.779999828338624,8.420000076293945,18.779999828338624Q8.571458076293945,18.779999828338624,8.711042076293946,18.838799828338622Q10.328960076293946,19.519999828338623,12.000000076293945,19.519999828338623Q14.423740076293946,19.519999828338623,16.622130076293946,18.14419982833862Q18.845200076293946,16.753019828338623,20.477800076293946,14.186469828338623Q21.035000076293947,13.313539828338623,21.035000076293947,11.994999828338624Q21.035000076293947,10.676459828338622,20.476800076293948,9.801869828338623Q20.041900076293945,9.116629828338624,19.466200076293944,8.400841828338622L19.465600076293946,8.400068828338624Q19.385200076293945,8.300143828338623,19.342600076293945,8.179190828338623Q19.300000076293948,8.058237828338623,19.300000076293948,7.929999828338623Q19.300000076293948,7.891926928338623,19.303900076293946,7.854049728338623Q19.304100076293945,7.851597228338623,19.304400076293945,7.849146428338623Q19.320400076293943,7.701713828338623,19.391300076293945,7.571459828338623Q19.462100076293943,7.441205828338623,19.577300076293945,7.3477348283386235Q19.578600076293945,7.346658828338623,19.579900076293946,7.345589828338623Q19.679900076293947,7.265215828338623,19.800800076293946,7.222607828338623Q19.921800076293945,7.179999828338623,20.050000076293948,7.179999828338623Q20.088100076293948,7.179999828338623,20.125900076293945,7.183855828338623Q20.128400076293943,7.184104828338623,20.130900076293948,7.184370828338623Q20.278300076293945,7.200357828338623,20.408500076293947,7.271250828338623Q20.538800076293946,7.342144828338623,20.632300076293944,7.457275828338623L20.634500076293946,7.460100828338623L20.635300076293944,7.461042828338623Z" fill-rule="evenodd" fill="#000000" fill-opacity="1"/></g><g><path d="M14.0009195803833,14.010919809265136Q13.382105580383302,14.629729809265136,12.5539945803833,14.782439809265137Q12.489828580383302,14.794269809265137,12.4286705803833,14.816999809265138Q12.3675125803833,14.839739809265136,12.311198580383302,14.872689809265136Q12.254884580383301,14.905649809265137,12.2051075803833,14.947829809265137Q12.1553315803833,14.990009809265137,12.1135865803833,15.040159809265138Q12.071841580383301,15.090299809265137,12.0393845803833,15.146909809265136Q12.0069265803833,15.203509809265137,11.984730580383301,15.264859809265136Q11.9625345803833,15.326219809265137,11.951266580383301,15.390489809265137Q11.9399995803833,15.454749809265136,11.9399995803833,15.519999809265137L11.940046580383301,15.528359809265137Q11.940763580383301,15.592719809265137,11.9524345803833,15.656009809265136Q11.979487580383301,15.802719809265136,12.060624580383301,15.927909809265136Q12.1417625803833,16.053099809265138,12.264632580383301,16.137709809265136Q12.4567435803833,16.269999809265137,12.6899995803833,16.269999809265137L12.6901591073833,16.269999809265137Q12.7586495803833,16.269989809265137,12.826004580383302,16.257569809265135Q14.112889580383301,16.020269809265137,15.0615795803833,15.071579809265137Q16.0100895803833,14.123069809265136,16.2474795803833,12.836481809265138L16.2475695803833,12.836004809265138Q16.2599995803833,12.768571409265137,16.2599995803833,12.700001529335136L16.2599495803833,12.690932419265136Q16.2571895803833,12.462656809265138,16.1277095803833,12.274632809265137Q16.043099580383302,12.151762809265136,15.9179095803833,12.070624809265137Q15.7927195803833,11.989487809265137,15.6460095803833,11.962434809265137Q15.5785695803833,11.949999809265137,15.509999580383301,11.949999809265137L15.5009295803833,11.950054809265136Q15.272659580383301,11.952814809265137,15.0846295803833,12.082292809265137Q14.961759580383301,12.166903809265136,14.880629580383301,12.292093809265136Q14.799489580383302,12.417283809265136,14.7724395803833,12.563994809265136Q14.6197295803833,13.392105809265137,14.0009195803833,14.010919809265136Z" fill-rule="evenodd" fill="#000000" fill-opacity="1"/></g><g><path d="M9.99987,15.060791732971191L10.00033,15.06032973297119Q10.10582,14.954840732971192,10.16291,14.817012732971191Q10.22,14.679183732971191,10.22,14.529999732971191Q10.22,14.380815732971191,10.16291,14.242986732971191Q10.10582,14.10515873297119,10.00033,13.999669732971192Q9.9969,13.996237732971192,9.99342,13.992849732971191Q9.88838,13.890494732971192,9.75252,13.835246732971191Q9.61666,13.779999732971191,9.469999999999999,13.779999732971191L9.46585,13.780010732971192Q9.31775,13.780830732971191,9.18107,13.837886732971192Q9.0444,13.894942732971192,8.93967,13.999669732971192L1.46967,21.46966973297119Q1.3641809999999999,21.57515973297119,1.30709,21.71298973297119Q1.25,21.850819732971193,1.25,21.99999973297119Q1.25,22.01801973297119,1.250866,22.03602973297119Q1.257583,22.175709732971193,1.3141859999999999,22.30357973297119Q1.370789,22.431449732971192,1.46967,22.53032973297119Q1.575159,22.635819732971193,1.712987,22.69290973297119Q1.850816,22.74999973297119,2,22.74999973297119Q2.149184,22.74999973297119,2.287013,22.69290973297119Q2.424841,22.635819732971193,2.53033,22.53032973297119L2.530792,22.529869732971193L9.99987,15.060791732971191Z" fill-rule="evenodd" fill="#000000" fill-opacity="1"/></g><g><path d="M22.529869732971193,2.530792L22.53032973297119,2.53033Q22.635819732971193,2.424841,22.69290973297119,2.287013Q22.74999973297119,2.149184,22.74999973297119,2Q22.74999973297119,1.850816,22.69290973297119,1.712987Q22.635819732971193,1.575159,22.53032973297119,1.46967Q22.52689973297119,1.4662380000000002,22.523419732971192,1.46285Q22.41837973297119,1.360495,22.282519732971192,1.305247Q22.14665973297119,1.25,21.99999973297119,1.25L21.99584973297119,1.250011Q21.84774973297119,1.250831,21.71106973297119,1.307887Q21.57439973297119,1.364943,21.46966973297119,1.46967L13.999669732971192,8.93967Q13.894180732971192,9.04516,13.837089732971192,9.18299Q13.779999732971191,9.320820000000001,13.779999732971191,9.469999999999999Q13.779999732971191,9.488019999999999,13.780865732971192,9.506029999999999Q13.787582732971192,9.645710000000001,13.84418573297119,9.773579999999999Q13.900788732971192,9.90145,13.999669732971192,10.00033Q14.10515873297119,10.10582,14.242986732971191,10.16291Q14.380815732971191,10.22,14.529999732971191,10.22Q14.679183732971191,10.22,14.817012732971191,10.16291Q14.954840732971192,10.10582,15.06032973297119,10.00033L15.060791732971191,9.99987L22.529869732971193,2.530792Z" fill-rule="evenodd" fill="#000000" fill-opacity="1"/></g><g transform="matrix(-1,-1.2246469849340659e-16,1.2246469849340659e-16,-1,48,48)" style="opacity:0;"></g></g></g></g></svg>