<svg xmlns="http://www.w3.org/2000/svg" xmlns:xlink="http://www.w3.org/1999/xlink" fill="none" version="1.1" width="24" height="24" viewBox="0 0 24 24"><g><g><path d="M15.062830076293945,8.937170076293945Q13.795660076293945,7.670000076293945,12.000000076293945,7.670000076293945Q10.204340076293946,7.670000076293945,8.937170076293945,8.937170076293945Q7.670000076293945,10.204340076293946,7.670000076293945,12.000000076293945Q7.670000076293945,13.795660076293945,8.937170076293945,15.062830076293945Q10.204340076293946,16.330000076293945,12.000000076293945,16.330000076293945Q13.795660076293945,16.330000076293945,15.062830076293945,15.062830076293945Q16.330000076293945,13.795660076293945,16.330000076293945,12.000000076293945Q16.330000076293945,10.204340076293946,15.062830076293945,8.937170076293945ZM9.997830076293946,9.997830076293946Q10.825660076293946,9.170000076293945,12.000000076293945,9.170000076293945Q13.174340076293944,9.170000076293945,14.002170076293945,9.997830076293946Q14.830000076293945,10.825660076293946,14.830000076293945,12.000000076293945Q14.830000076293945,13.174340076293944,14.002170076293945,14.002170076293945Q13.174340076293944,14.830000076293945,12.000000076293945,14.830000076293945Q10.825660076293946,14.830000076293945,9.997830076293946,14.002170076293945Q9.170000076293945,13.174340076293944,9.170000076293945,12.000000076293945Q9.170000076293945,10.825660076293946,9.997830076293946,9.997830076293946Z" fill-rule="evenodd" fill="#000000" fill-opacity="1"/></g><g><path d="M2.2571811525878904,14.99250002861023L2.2578084525878905,14.99350002861023Q4.071780152587891,17.84480002861023,6.582130152587891,19.415800028610228Q9.14560015258789,21.02000002861023,12.00000015258789,21.02000002861023Q14.85440015258789,21.02000002861023,17.41790015258789,19.415800028610228Q19.92870015258789,17.844500028610227,21.74280015258789,14.99250002861023Q22.53500015258789,13.751500028610229,22.53500015258789,11.99500002861023Q22.53500015258789,10.23854002861023,21.74220015258789,8.99647002861023Q19.92870015258789,6.145500028610229,17.41790015258789,4.57423102861023Q14.85440015258789,2.9700000286102295,12.00000015258789,2.9700000286102295Q9.14559015258789,2.9700000286102295,6.582130152587891,4.574232028610229Q4.071340152587891,6.145500028610229,2.2571827525878905,8.997460028610229Q1.4650001525878906,10.23854002861023,1.4650001525878906,11.99500002861023Q1.4650001525878906,13.750800028610229,2.2571811525878904,14.99250002861023ZM7.3778701525878905,18.14420002861023Q5.154800152587891,16.75300002861023,3.5228201525878906,14.187500028610229L3.522190152587891,14.18650002861023Q2.9650001525878906,13.31354002861023,2.9650001525878906,11.99500002861023Q2.9650001525878906,10.67646002861023,3.5228201525878906,9.80254002861023Q5.154800152587891,7.23698002861023,7.3778701525878905,5.84577002861023Q9.57626015258789,4.4700000286102295,12.00000015258789,4.4700000286102295Q14.423700152587891,4.4700000286102295,16.62210015258789,5.84577002861023Q18.84520015258789,7.23698002861023,20.47780015258789,9.80353002861023Q21.03500015258789,10.67646002861023,21.03500015258789,11.99500002861023Q21.03500015258789,13.31354002861023,20.47720015258789,14.187500028610229Q18.84520015258789,16.75300002861023,16.62210015258789,18.14420002861023Q14.423700152587891,19.52000002861023,12.00000015258789,19.52000002861023Q9.57626015258789,19.52000002861023,7.3778701525878905,18.14420002861023Z" fill-rule="evenodd" fill="#000000" fill-opacity="1"/></g><g transform="matrix(-1,-1.2246469849340659e-16,1.2246469849340659e-16,-1,48,48)" style="opacity:0;"><path d="M24,48L24,24L48,24L48,48L24,48ZM25,47L25,25L47,25L47,47L25,47Z" fill-rule="evenodd" fill="#000000" fill-opacity="1"/></g></g></svg>