<svg xmlns="http://www.w3.org/2000/svg" xmlns:xlink="http://www.w3.org/1999/xlink" fill="none" version="1.1" width="24" height="24" viewBox="0 0 24 24"><defs><clipPath id="master_svg0_584_03528"><rect x="0" y="0" width="24" height="24" rx="0"/></clipPath></defs><g clip-path="url(#master_svg0_584_03528)"><g><path d="M13,11Q13,11.09849,12.98079,11.19509Q12.96157,11.29169,12.92388,11.38268Q12.88619,11.47368,12.83147,11.55557Q12.77675,11.63746,12.70711,11.70711Q12.63746,11.77675,12.55557,11.83147Q12.47368,11.88619,12.38268,11.92388Q12.29169,11.96157,12.19509,11.98079Q12.09849,12,12,12Q11.901509,12,11.80491,11.98079Q11.708311,11.96157,11.617316,11.92388Q11.526322,11.88619,11.44443,11.83147Q11.362537,11.77675,11.292893,11.70711Q11.223249,11.63746,11.16853,11.55557Q11.113811,11.47368,11.0761205,11.38268Q11.0384294,11.29169,11.0192147,11.19509Q11,11.09849,11,11Q11,10.901509,11.0192147,10.80491Q11.0384294,10.708311,11.0761205,10.617316Q11.113811,10.526322,11.16853,10.44443Q11.223249,10.362537,11.292893,10.292893Q11.362537,10.223249,11.44443,10.16853Q11.526322,10.113811,11.617316,10.0761205Q11.708311,10.0384294,11.80491,10.0192147Q11.901509,10,12,10Q12.09849,10,12.19509,10.0192147Q12.29169,10.0384294,12.38268,10.0761205Q12.47368,10.113811,12.55557,10.16853Q12.63746,10.223249,12.70711,10.292893Q12.77675,10.362537,12.83147,10.44443Q12.88619,10.526322,12.92388,10.617316Q12.96157,10.708311,12.98079,10.80491Q13,10.901509,13,11Z" fill="#333333" fill-opacity="1"/></g><g><path d="M14.7946,9.27776Q15.3,10.076979999999999,15.3,11.02722Q15.3,11.12679,15.2942,11.22453Q15.2898,11.29826,15.2999,11.37143Q15.3099,11.44459,15.3341,11.51439Q15.3582,11.58419,15.3955,11.64793Q15.4328,11.71168,15.4818,11.76693Q15.5309,11.82217,15.5897,11.8668Q15.6486,11.91142,15.715,11.9437Q15.7814,11.97599,15.8529,11.9947Q15.9243,12.01341,15.998,12.01782L20.9393,12.31353L20.9398,12.31356Q21.0135,12.31792,21.0867,12.30782Q21.1599,12.29771,21.2297,12.27353Q21.2995,12.24934,21.3632,12.212Q21.427,12.17466,21.4822,12.12561Q21.5374,12.07655,21.582,12.01766Q21.6266,11.95878,21.6589,11.89232Q21.6911,11.82586,21.7098,11.75439Q21.7284,11.68292,21.7328,11.60918Q21.75,11.31869,21.75,11.02722Q21.75,8.215589999999999,20.2529,5.847910000000001Q18.7972,3.545846,16.3609,2.329033Q16.2949,2.296062,16.2237,2.276588Q16.1525,2.257114,16.0789,2.251885Q16.0053,2.2466559999999998,15.9321,2.255872Q15.8589,2.265088,15.7889,2.288396Q15.7189,2.311703,15.6548,2.3482089999999998Q15.5906,2.384714,15.5348,2.433017Q15.4791,2.48132,15.4338,2.539569Q15.3885,2.597818,15.3554,2.6637779999999998L13.1412,7.07877L13.1406,7.07987Q13.074,7.21334,13.0635,7.36215Q13.053,7.51096,13.1002,7.65247Q13.1474,7.79398,13.2452,7.90664Q13.343,8.019300000000001,13.4765,8.08596Q14.3016,8.498059999999999,14.7946,9.27776ZM8.705829999999999,11.22454Q8.7,11.12677,8.7,11.02722Q8.7,10.076979999999999,9.20537,9.27776Q9.69839,8.498059999999999,10.52351,8.08596L10.52461,8.0854Q10.59064,8.05229,10.64894,8.00693Q10.707239999999999,7.96157,10.755569999999999,7.9057Q10.80391,7.84984,10.84041,7.78562Q10.876909999999999,7.7214,10.90019,7.6513Q10.92346,7.58119,10.93261,7.50789Q10.94176,7.43459,10.936440000000001,7.36092Q10.93111,7.28724,10.91152,7.21602Q10.891919999999999,7.1448,10.858799999999999,7.07877L8.64462,2.6637779999999998Q8.61154,2.597818,8.56624,2.539569Q8.52094,2.48132,8.465160000000001,2.433017Q8.40937,2.384714,8.34525,2.3482089999999998Q8.28112,2.311703,8.2111,2.288396Q8.14109,2.265089,8.067879999999999,2.2558730000000002Q7.99467,2.246657,7.92106,2.251886Q7.84746,2.2571149999999998,7.77628,2.276589Q7.70511,2.296063,7.63909,2.329035Q5.2028099999999995,3.545848,3.7471550000000002,5.847910000000001Q2.25,8.215589999999999,2.25,11.02722Q2.25,11.31901,2.267204,11.60925L2.267229,11.60967Q2.271642,11.68341,2.290355,11.75487Q2.309068,11.82633,2.341363,11.89276Q2.373658,11.9592,2.4182930000000002,12.01805Q2.462928,12.07691,2.518188,12.12593Q2.573448,12.17495,2.637209,12.21225Q2.70097,12.24955,2.7707829999999998,12.27369Q2.840595,12.29783,2.9137759,12.30789Q2.9869566,12.31794,3.0606932000000002,12.31353L8.00196,12.01782Q8.07568,12.01341,8.14713,11.9947Q8.21858,11.97599,8.28501,11.9437Q8.35143,11.91142,8.41028,11.86679Q8.46914,11.82217,8.51816,11.76693Q8.56717,11.71168,8.604479999999999,11.64794Q8.64178,11.58419,8.66593,11.51439Q8.69008,11.4446,8.70015,11.37143Q8.71022,11.29826,8.705829999999999,11.22454ZM7.2214,10.56185Q7.32563,9.44384,7.93756,8.47609Q8.44909,7.66713,9.20665,7.13043L7.65391,4.03433Q6.04463,5.0212,5.01496,6.649570000000001Q3.818902,8.541080000000001,3.753753,10.76937L7.2214,10.56185ZM16.7786,10.56185L20.2462,10.76937Q20.1811,8.541080000000001,18.985,6.649570000000001Q17.955399999999997,5.02119,16.3461,4.03433L14.7934,7.13043Q15.5509,7.66713,16.0624,8.47609Q16.6744,9.44384,16.7786,10.56185ZM9.14292,13.983L6.41524,18.1018L6.41447,18.103Q6.3738,18.1647,6.345940000000001,18.2331Q6.31808,18.3015,6.3041,18.374000000000002Q6.29012,18.4466,6.29056,18.520400000000002Q6.291,18.5943,6.3058499999999995,18.6667Q6.32069,18.739,6.34937,18.8071Q6.37804,18.8752,6.419449999999999,18.9363Q6.460850000000001,18.997500000000002,6.5134,19.0494Q6.565939999999999,19.1014,6.62761,19.142Q9.06552,20.75,12,20.75Q14.9345,20.75,17.3724,19.142L17.3736,19.1413Q17.4979,19.0589,17.5813,18.935200000000002Q17.6647,18.811500000000002,17.6944,18.665300000000002Q17.7241,18.5191,17.6956,18.372700000000002Q17.667099999999998,18.2262,17.5848,18.1018L14.8571,13.983Q14.8163,13.9215,14.7644,13.8691Q14.7125,13.8167,14.6513,13.7755Q14.5902,13.7342,14.5221,13.7056Q14.4541,13.6771,14.3818,13.6623Q14.3095,13.6476,14.2358,13.6472Q14.162,13.6468,14.0895,13.6608Q14.0171,13.6748,13.9488,13.7026Q13.8804,13.7304,13.8189,13.7711Q12.9941,14.315,12,14.315Q11.0059,14.315,10.18114,13.7711Q10.11955,13.7304,10.05123,13.7026Q9.9829,13.6748,9.91046,13.6608Q9.83803,13.6468,9.76425,13.6472Q9.690470000000001,13.6476,9.618179999999999,13.6623Q9.5459,13.6771,9.47787,13.7056Q9.409849999999999,13.7342,9.348690000000001,13.7755Q9.28754,13.8167,9.23559,13.8691Q9.18365,13.9215,9.14292,13.983ZM8.098659999999999,18.2765Q9.89825,19.25,12,19.25Q14.1018,19.25,15.9013,18.2765L13.9887,15.3885Q13.06,15.815,12,15.815Q10.940000000000001,15.815,10.01128,15.3885L8.098659999999999,18.2765Z" fill-rule="evenodd" fill="#333333" fill-opacity="1"/></g></g></svg>