<svg xmlns="http://www.w3.org/2000/svg" xmlns:xlink="http://www.w3.org/1999/xlink" fill="none" version="1.1" width="24" height="24" viewBox="0 0 24 24"><defs><clipPath id="master_svg0_63_66103"><rect x="0" y="0" width="24" height="24" rx="0"/></clipPath></defs><g clip-path="url(#master_svg0_63_66103)"><g><path d="M21.4878,3.930302Q21.3859,3.843036,21.26,3.796518Q21.1342,3.75,21,3.75L3,3.75Q2.9261315,3.75,2.853682,3.764411Q2.781233,3.778822,2.712987,3.80709Q2.644742,3.835359,2.583322,3.876398Q2.521903,3.917437,2.46967,3.96967Q2.417437,4.021903,2.376398,4.083322Q2.335359,4.144742,2.30709,4.212987Q2.278822,4.281233,2.264411,4.353682Q2.25,4.4261315,2.25,4.5Q2.25,4.634174,2.296518,4.760026Q2.343036,4.885878,2.430302,4.987796L9.45,13.18612L9.45,19.2222Q9.45,19.3271,9.4788,19.428Q9.5076,19.5289,9.56299,19.6181Q9.61838,19.7072,9.696100000000001,19.7777Q9.77382,19.8482,9.86791,19.8947L13.4679,21.6725Q13.5341,21.7052,13.6055,21.7243Q13.6768,21.7435,13.7505,21.7484Q13.8242,21.7532,13.8975,21.7436Q13.9707,21.734,14.0407,21.7103Q14.1106,21.6866,14.1746,21.6497Q14.2386,21.6128,14.2942,21.5642Q14.3498,21.5155,14.3948,21.4569Q14.4398,21.3983,14.4725,21.3321Q14.55,21.1751,14.55,21L14.55,13.18612L21.5697,4.987796Q21.6177,4.931685,21.6539,4.86728Q21.6901,4.802875,21.713,4.73265Q21.7359,4.662426,21.7447,4.5890801Q21.7535,4.5157344,21.7478,4.4420864Q21.7421,4.368438,21.7221,4.297318Q21.7021,4.226198,21.6687,4.1603390000000005Q21.6352,4.09448,21.5896,4.036413Q21.5439,3.978346,21.4878,3.930302ZM19.3705,5.25L4.62954,5.25L10.7697,12.4211Q10.85696,12.52302,10.90348,12.64887Q10.95,12.77473,10.95,12.9089L10.95,18.7561L13.05,19.7932L13.05,12.9089Q13.05,12.77473,13.0965,12.64887Q13.143,12.52302,13.2303,12.4211L19.3705,5.25Z" fill-rule="evenodd" fill="#232D42" fill-opacity="1" style="mix-blend-mode:passthrough"/></g></g></svg>