<svg xmlns="http://www.w3.org/2000/svg" xmlns:xlink="http://www.w3.org/1999/xlink" fill="none" version="1.1" width="28" height="28" viewBox="0 0 28 28"><defs><clipPath id="master_svg0_254_9572"><rect x="0" y="0" width="28" height="28" rx="0"/></clipPath></defs><g clip-path="url(#master_svg0_254_9572)"><g><path d="M21.080740625,24.69143125L19.387040624999997,24.69143125L19.387040624999997,17.66403125L20.861940625000003,17.66403125C21.271940625,17.65963125,21.601840625,17.32593125,21.601840625,16.91593125L21.601840625,13.06653125C21.600840625,12.65913125,21.269240625000002,12.33003125,20.861940625000003,12.33203125L19.387040624999997,12.33203125L19.387040624999997,10.15984125C19.463940625,10.14463125,19.536140625,10.11126125,19.597540625,10.06250125L20.540640625,10.06250125C20.948440625,10.06250125,21.278940625,9.731961250000001,21.278940625,9.32422125C21.278940625,8.91648125,20.948440625,8.585941250000001,20.540640625,8.585941250000001L19.826440625,8.585941250000001C19.426240625,6.71394125,18.151940625,5.14771125,16.400540624999998,4.37500125C16.402440625,4.35312125,16.406540624999998,4.33234125,16.406540624999998,4.30992125L16.406540624999998,2.57031325C16.403840625,2.16145625,16.071400625000003,1.831571293,15.662540625,1.832032051086L12.337810625,1.832032051086C11.928990625,1.831572094,11.596620625,2.16150025,11.594060625000001,2.57031325L11.594060625000001,4.31102125C11.594060625000001,4.33344125,11.597890625,4.35586125,11.600080625,4.37773125C9.847480625,5.147471250000001,8.572450625,6.71365125,8.174180625,8.585941250000001L7.459960625,8.585941250000001C7.052219625,8.585941250000001,6.721680625,8.91648125,6.721680625,9.32422125C6.721680625,9.731961250000001,7.052219625,10.06250125,7.459960625,10.06250125L8.403050625,10.06250125C8.464470625,10.11126125,8.536660625,10.14463125,8.613590625,10.15984125L8.613590625,12.33203125L7.138671625,12.33203125C6.731347625,12.33003125,6.399804625,12.65913125,6.398749625,13.06653125L6.398749625,16.91593125C6.398724625,17.32593125,6.728700625,17.65953125,7.138671625,17.66403125L8.613590625,17.66403125L8.613590625,24.69143125L6.919921625,24.69143125C6.512180625,24.69143125,6.181640625,25.02193125,6.181640625,25.42973125C6.181640625,25.83743125,6.512179625,26.16793125,6.919921625,26.16793125L21.080740625,26.16793125C21.488440625000003,26.16793125,21.818940625,25.83743125,21.818940625,25.42973125C21.818940625,25.02193125,21.488440625000003,24.69143125,21.080740625,24.69143125ZM20.125340625,13.80863125L20.125340625,16.18753125L19.387040624999997,16.18753125L19.387040624999997,13.80863125L20.125340625,13.80863125ZM13.070620625,3.30859125L14.930000625,3.30859125L14.930000625,3.94680125C14.313910625,3.85097125,13.686710625,3.85097125,13.070620625,3.94680125L13.070620625,3.30859125ZM10.944920625,6.55238125C13.389190625000001,4.273581249999999,17.377840624999997,5.3755412499999995,18.305540625,8.585941250000001L9.695040625,8.585941250000001C9.920890625,7.80788125,10.352730625,7.10528125,10.944920625,6.55238125ZM7.875310625,16.18753125L7.875310625,13.80863125L8.613590625,13.80863125L8.613590625,16.18753125L7.875310625,16.18753125ZM10.090160625,24.69143125L10.090160625,10.06250125L17.910440625,10.06250125L17.910440625,24.69143125L10.090160625,24.69143125Z" fill="#232D42" fill-opacity="1"/></g><g><path d="M12.46874975,11.5361328125C12.06100875,11.53613174438,11.73046875,11.8666718125,11.73046875,12.2744138125L11.73046875,22.5310328125C11.73046875,22.9388328125,12.06100875,23.2693328125,12.46874975,23.2693328125C12.87648875,23.2693328125,13.20702875,22.9388328125,13.20702875,22.5310328125L13.20702875,12.2744138125C13.20702875,11.8666718125,12.87648875,11.53613174438,12.46874975,11.5361328125ZM15.53124875,11.5361328125C15.12350875,11.53613174438,14.79296875,11.8666718125,14.79296875,12.2744138125L14.79296875,22.5310328125C14.79296875,22.9388328125,15.12350875,23.2693328125,15.53124875,23.2693328125C15.93898875,23.2693328125,16.26952875,22.9388328125,16.26952875,22.5310328125L16.26952875,12.2744138125C16.26952875,11.8666718125,15.93898875,11.53613174438,15.53124875,11.5361328125Z" fill="#232D42" fill-opacity="1"/></g></g></svg>