<svg xmlns="http://www.w3.org/2000/svg" xmlns:xlink="http://www.w3.org/1999/xlink" fill="none" version="1.1" width="28" height="28" viewBox="0 0 28 28"><g><g><rect x="0" y="0" width="28" height="28" rx="0" fill="#D8D8D8" fill-opacity="0"/></g><g><path d="M12.83801,7Q12.71707,7.34825,12.50583,7.65911Q13.05354,7.98246,13.53554,8.464459999999999Q15,9.92892,15,12L15,24C15,24.5523,14.55229,25,14,25L6,25C5.447715,25,5,24.5523,5,24L5,12Q5,9.928930000000001,6.46447,8.464459999999999Q6.94646,7.98246,7.49417,7.65911Q7.28293,7.34826,7.161989999999999,7L6,7C5.447715,7,5,6.55228,5,6C5,5.44772,5.447715,5,6,5L7.161989999999999,5Q7.37728,4.3800799999999995,7.87868,3.87868Q8.75736,3,10,3Q11.24264,3,12.12132,3.87868Q12.622720000000001,4.3800799999999995,12.83801,5L13,5Q16.366799999999998,5,17.5223,5.15536Q19.4911,5.42005,20.5355,6.46443Q21.5799,7.50888,21.8446,9.47766Q22,10.63324,22,14L22,14.8377L24.9487,23.6838C24.9827,23.7857,25,23.8925,25,24C25,24.5523,24.5523,25,24,25L18,25C17.8925,25,17.7857,24.9827,17.683799999999998,24.9487C17.1598,24.774,16.8767,24.2077,17.051299999999998,23.6838L20,14.8377L20,14Q20,10.76708,19.8625,9.744150000000001Q19.6878,8.445170000000001,19.1214,7.87867Q18.5548,7.31217,17.2558,7.13753Q16.2329,7,13,7L12.83801,7Z" fill-rule="evenodd" fill="#000000" fill-opacity="1"/></g></g></svg>