<svg xmlns="http://www.w3.org/2000/svg" xmlns:xlink="http://www.w3.org/1999/xlink" fill="none" version="1.1" width="28" height="28" viewBox="0 0 28 28"><g><g><g style="opacity:0;"><rect x="0" y="0" width="28" height="28" rx="0" fill="#D8D8D8" fill-opacity="1"/></g><g><path d="M2.75,11.66667L2.75,25.6667Q2.75,25.7405,2.764411,25.813Q2.778822,25.8854,2.80709,25.9537Q2.835359,26.0219,2.876398,26.0833Q2.917437,26.1448,2.96967,26.197Q3.021903,26.2492,3.083322,26.2903Q3.144742,26.3313,3.212987,26.3596Q3.281233,26.3878,3.353682,26.4023Q3.4261315,26.4167,3.5,26.4167L12.83333,26.4167Q12.9072,26.4167,12.97965,26.4023Q13.0521,26.3878,13.12035,26.3596Q13.18859,26.3313,13.25001,26.2903Q13.31143,26.2492,13.36366,26.197Q13.4159,26.1448,13.45694,26.0833Q13.49797,26.0219,13.5262,25.9537Q13.5545,25.8854,13.5689,25.813Q13.5833,25.7405,13.5833,25.6667L13.5833,11.66667Q13.5833,9.423,11.99683,7.8365Q10.41033,6.25,8.16667,6.25Q5.92301,6.25,4.336505,7.8365Q2.75,9.423,2.75,11.66667ZM4.25,24.9167L12.08333,24.9167L12.08333,11.66667Q12.08333,10.044319999999999,10.93617,8.89716Q9.789010000000001,7.75,8.16667,7.75Q6.54433,7.75,5.3971599999999995,8.89716Q4.25,10.044319999999999,4.25,11.66667L4.25,24.9167Z" fill-rule="evenodd" fill="#0C0507" fill-opacity="1"/></g><g><path d="M5.83333,3.9166669845581055L3.5,3.9166669845581055Q3.4261315,3.9166669845581055,3.353682,3.9310779845581054Q3.281233,3.9454889845581054,3.212987,3.9737569845581056Q3.144742,4.002025984558106,3.083322,4.0430649845581055Q3.021903,4.084103984558105,2.96967,4.136336984558105Q2.917437,4.1885699845581055,2.876398,4.249988984558105Q2.835359,4.311408984558105,2.80709,4.3796539845581055Q2.778822,4.447899984558106,2.764411,4.5203489845581055Q2.75,4.592798484558106,2.75,4.6666669845581055Q2.75,4.740535484558105,2.764411,4.812984984558105Q2.778822,4.885433984558105,2.80709,4.953679984558105Q2.835359,5.0219249845581055,2.876398,5.083344984558106Q2.917437,5.1447639845581055,2.96967,5.196996984558106Q3.021903,5.249229984558106,3.083322,5.2902689845581055Q3.144742,5.331307984558105,3.212987,5.359576984558106Q3.281233,5.387844984558106,3.353682,5.4022559845581055Q3.4261315,5.4166669845581055,3.5,5.4166669845581055L5.83333,5.4166669845581055Q5.9072,5.4166669845581055,5.9796499999999995,5.4022559845581055Q6.052099999999999,5.387844984558106,6.12035,5.359576984558106Q6.18859,5.331307984558105,6.25001,5.2902689845581055Q6.31143,5.249229984558106,6.363659999999999,5.196996984558106Q6.415900000000001,5.1447639845581055,6.4569399999999995,5.083344984558106Q6.4979700000000005,5.0219249845581055,6.52624,4.953679984558105Q6.5545100000000005,4.885433984558105,6.56892,4.812984984558105Q6.58333,4.740535484558105,6.58333,4.6666669845581055Q6.58333,4.592798484558106,6.56892,4.5203489845581055Q6.5545100000000005,4.447899984558106,6.52624,4.3796539845581055Q6.4979700000000005,4.311408984558105,6.4569399999999995,4.249988984558105Q6.415900000000001,4.1885699845581055,6.363659999999999,4.136336984558105Q6.31143,4.084103984558105,6.25001,4.0430649845581055Q6.18859,4.002025984558106,6.12035,3.9737569845581056Q6.052099999999999,3.9454889845581054,5.9796499999999995,3.9310779845581054Q5.9072,3.9166669845581055,5.83333,3.9166669845581055ZM11.66667,3.9166669845581055L10.5,3.9166669845581055Q10.42613,3.9166669845581055,10.35368,3.9310779845581054Q10.28123,3.9454889845581054,10.21299,3.9737569845581056Q10.144739999999999,4.002025984558106,10.08332,4.0430649845581055Q10.021899999999999,4.084103984558105,9.96967,4.136336984558105Q9.91744,4.1885699845581055,9.8764,4.249988984558105Q9.83536,4.311408984558105,9.807089999999999,4.3796539845581055Q9.77882,4.447899984558106,9.76441,4.5203489845581055Q9.75,4.592798484558106,9.75,4.6666669845581055Q9.75,4.740535484558105,9.76441,4.812984984558105Q9.77882,4.885433984558105,9.807089999999999,4.953679984558105Q9.83536,5.0219249845581055,9.8764,5.083344984558106Q9.91744,5.1447639845581055,9.96967,5.196996984558106Q10.021899999999999,5.249229984558106,10.08332,5.2902689845581055Q10.144739999999999,5.331307984558105,10.21299,5.359576984558106Q10.28123,5.387844984558106,10.35368,5.4022559845581055Q10.42613,5.4166669845581055,10.5,5.4166669845581055L11.66667,5.4166669845581055Q15.4663,5.4166669845581055,16.6873,5.580829984558106Q18.342399999999998,5.803336984558106,19.102899999999998,6.563816984558105Q19.8633,7.324306984558105,20.0858,8.979326984558107Q20.25,10.200386984558104,20.25,13.999996984558106L20.25,15.166666984558105Q20.25,15.240566984558106,20.2644,15.312966984558106Q20.2788,15.385466984558105,20.3071,15.453666984558106Q20.3354,15.521966984558105,20.3764,15.583366984558106Q20.4174,15.644766984558105,20.4697,15.696966984558106Q20.5219,15.749266984558105,20.5833,15.790266984558105Q20.6447,15.831266984558106,20.713,15.859566984558105Q20.7812,15.887866984558105,20.8537,15.902266984558105Q20.9261,15.916666984558105,21,15.916666984558105Q21.0739,15.916666984558105,21.1463,15.902266984558105Q21.2188,15.887866984558105,21.287,15.859566984558105Q21.3553,15.831266984558106,21.4167,15.790266984558105Q21.4781,15.749266984558105,21.5303,15.696966984558106Q21.5826,15.644766984558105,21.6236,15.583366984558106Q21.6646,15.521966984558105,21.6929,15.453666984558106Q21.7212,15.385466984558105,21.7356,15.312966984558106Q21.75,15.240566984558106,21.75,15.166666984558105L21.75,13.999996984558106Q21.75,10.099996984558105,21.5725,8.779456984558106Q21.2824,6.622086984558106,20.1635,5.503133984558105Q19.044600000000003,4.384250984558106,16.8872,4.094205984558106Q15.5667,3.9166669845581055,11.66667,3.9166669845581055Z" fill-rule="evenodd" fill="#0C0507" fill-opacity="1"/></g><g><path d="M20.762831907348634,14.455153984558105Q20.679991907348633,14.482768984558106,20.60570190734863,14.528678984558105Q20.531421907348633,14.574587984558105,20.469671907348634,14.636336984558106Q20.407921907348634,14.698084984558106,20.362011907348634,14.772368984558106Q20.31610190734863,14.846651984558106,20.288491907348632,14.929495984558105L16.788488907348633,25.429466984558104Q16.765129907348634,25.499566984558108,16.755890907348633,25.572866984558104Q16.74665190734863,25.646166984558107,16.751888907348633,25.719866984558106Q16.757124907348633,25.793466984558105,16.776635907348634,25.864766984558106Q16.796146907348632,25.935966984558107,16.829181907348634,26.002066984558105Q16.862216907348632,26.068166984558104,16.907506907348633,26.126466984558107Q16.952795907348634,26.184866984558106,17.008600907348633,26.233266984558107Q17.06440490734863,26.281666984558107,17.128578907348633,26.318266984558107Q17.192752907348634,26.354866984558107,17.262830907348633,26.378166984558106Q17.37829390734863,26.416666984558105,17.500001907348633,26.416666984558105L24.500001907348633,26.416666984558105Q24.573871907348632,26.416666984558105,24.646321907348632,26.402266984558104Q24.718771907348632,26.387866984558105,24.787011907348635,26.359566984558107Q24.855261907348634,26.331266984558106,24.916681907348632,26.290266984558105Q24.978101907348634,26.249266984558105,25.030331907348632,26.196966984558106Q25.082561907348634,26.144766984558103,25.123601907348633,26.083366984558104Q25.16464190734863,26.021966984558105,25.192911907348634,25.953666984558105Q25.221181907348633,25.885466984558107,25.235591907348635,25.812966984558106Q25.250001907348633,25.740566984558107,25.250001907348633,25.666666984558105Q25.250001907348633,25.544966984558105,25.211511907348633,25.429466984558104L21.711511907348633,14.929495984558105Q21.688151907348633,14.859417984558105,21.651571907348632,14.795243984558105Q21.61499190734863,14.731069984558106,21.56659190734863,14.675265984558106Q21.518191907348633,14.619460984558106,21.459841907348633,14.574171984558106Q21.401481907348632,14.528881984558105,21.335411907348632,14.495846984558106Q21.269341907348633,14.462811984558105,21.198091907348633,14.443300984558105Q21.126851907348634,14.423789984558105,21.053171907348634,14.418553984558105Q20.97948190734863,14.413316984558106,20.90620190734863,14.422555984558105Q20.83291190734863,14.431794984558106,20.762831907348634,14.455153984558105ZM21.000001907348633,17.538376984558106L18.54057190734863,24.916666984558105L23.459431907348634,24.916666984558105L21.000001907348633,17.538376984558106Z" fill-rule="evenodd" fill="#0C0507" fill-opacity="1"/></g><g><ellipse cx="8.166666984558105" cy="4.6666669845581055" rx="2.3333334922790527" ry="2.3333334922790527" fill-opacity="0" stroke-opacity="1" stroke="#0C0507" fill="none" stroke-width="1.5" stroke-linecap="ROUND" stroke-linejoin="round"/></g></g></g></svg>