<svg xmlns="http://www.w3.org/2000/svg" xmlns:xlink="http://www.w3.org/1999/xlink" fill="none" version="1.1" width="24" height="24" viewBox="0 0 24 24"><defs><clipPath id="master_svg0_102_9114"><rect x="0" y="0" width="24.000001907348633" height="24.000001907348633" rx="0"/></clipPath></defs><g><g clip-path="url(#master_svg0_102_9114)"><g><path d="M6,5.25L18,5.25L18,22.5L6,22.5L6,5.25ZM12,17.25C14.07107,17.25,15.75,15.5711,15.75,13.5C15.75,11.428930000000001,14.07107,9.75,12,9.75C9.92893,9.75,8.25,11.428930000000001,8.25,13.5C8.25,15.5711,9.92893,17.25,12,17.25ZM12,15.75C10.75736,15.75,9.75,14.74264,9.75,13.5C9.75,12.25736,10.75736,11.25,12,11.25C13.24264,11.25,14.25,12.25736,14.25,13.5C14.25,14.74264,13.24264,15.75,12,15.75Z" fill="#040404" fill-opacity="1"/></g><g><path d="M4.5,23.25L4.5,21L19.5,21L19.5,23.25L4.5,23.25Z" fill="#040404" fill-opacity="1"/></g><g><path d="M11.25,0.75L12.75,0.75C13.16421,0.75,13.5,1.085786,13.5,1.5L13.5,3L10.5,3L10.5,1.5C10.5,1.085786,10.835786,0.75,11.25,0.75Z" fill="#040404" fill-opacity="1"/></g><g><path d="M6.017333984375,6C6.253583984375,3.483,8.842583984375,1.5,12.000083984375,1.5C15.157583984375,1.5,17.746533984375,3.483,17.982833984375,6L6.017333984375,6Z" fill="#040404" fill-opacity="1"/></g><g><path d="M5.25,6.375C4.835787,6.375,4.5,6.03921,4.5,5.625C4.5,5.210787,4.835787,4.875,5.25,4.875L18.6848,4.875C19.099,4.875,19.4348,5.210787,19.4348,5.625C19.4348,6.03921,19.099,6.375,18.6848,6.375L5.25,6.375ZM6,15.6735L5.25,15.6735C4.835787,15.6735,4.5,15.3377,4.5,14.9235L4.5,11.25C4.5,10.83579,4.835787,10.5,5.25,10.5L6,10.5C6.41421,10.5,6.75,10.83579,6.75,11.25L6.75,14.9235C6.75,15.3377,6.41421,15.6735,6,15.6735ZM18.75,15.6735L18,15.6735C17.5858,15.6735,17.25,15.3377,17.25,14.9235L17.25,11.25C17.25,10.83579,17.5858,10.5,18,10.5L18.75,10.5C19.1642,10.5,19.5,10.83579,19.5,11.25L19.5,14.9235C19.5,15.3377,19.1642,15.6735,18.75,15.6735Z" fill="#040404" fill-opacity="1"/></g></g></g></svg>