<svg xmlns="http://www.w3.org/2000/svg" xmlns:xlink="http://www.w3.org/1999/xlink" fill="none" version="1.1" width="24" height="24" viewBox="0 0 24 24"><defs><clipPath id="master_svg0_112_10092"><rect x="0" y="0" width="24" height="24" rx="0"/></clipPath></defs><g clip-path="url(#master_svg0_112_10092)"><g><path d="M20.5461,21L4.453939,21C4.204272,21,4,20.775,4,20.5C4,20.225,4.204272,20,4.453939,20L20.5461,20C20.7957,20,21,20.225,21,20.5C21,20.775,20.7957,21,20.5461,21Z" fill="#333333" fill-opacity="1"/><path d="M21.0518,21.02117Q21.25,20.802805,21.25,20.5Q21.25,20.197195,21.0518,19.9788303Q20.844,19.75,20.5461,19.75L4.453939,19.75Q4.155997,19.75,3.9482476,19.9788301Q3.75,20.197194,3.75,20.5Q3.75,20.802806,3.9482476,21.02117Q4.155997,21.25,4.453939,21.25L20.5461,21.25Q20.844,21.25,21.0518,21.02117ZM20.5461,20.25Q20.75,20.25,20.75,20.5Q20.75,20.75,20.5461,20.75L4.453939,20.75Q4.25,20.75,4.25,20.5Q4.25,20.349891,4.323525,20.289913Q4.372452,20.25,4.453939,20.25L20.5461,20.25Z" fill-rule="evenodd" fill="#333333" fill-opacity="1"/></g><g><path d="M13.52125,21L5.489472,21C5.222487,21,5,20.7696,5,20.4932L5,5.0481C5,4.472222,5.456098,4,6.01232,4L12.98728,4C13.5435,4,13.9996,4.472222,13.9996,5.0481L13.9996,20.4932C14.01072,20.7696,13.78824,21,13.52125,21ZM5.889948,20.0786L13.10965,20.0786L13.10965,5.0481C13.10965,4.978997,13.05403,4.921409,12.98728,4.921409L6.02344,4.921409C5.956694,4.921409,5.901073,4.978997,5.901073,5.0481L5.901073,20.0786L5.889948,20.0786Z" fill="#333333" fill-opacity="1"/><path d="M14.2496,20.4886Q14.26007,20.7973,14.0459,21.0225Q13.82963,21.25,13.52125,21.25L5.489472,21.25Q5.183127,21.25,4.9647969,21.024Q4.75,20.8016,4.75,20.4932L4.75,5.0481Q4.75,4.515173,5.117756,4.134416Q5.489047,3.75,6.01232,3.75L12.98728,3.75Q13.51055,3.75,13.88184,4.134416Q14.2496,4.515173,14.2496,5.0481L14.2496,20.4886ZM13.7496,5.0481L13.7496,20.4983L13.7498,20.5033Q13.75386,20.604,13.68354,20.678Q13.61509,20.75,13.52125,20.75L5.489472,20.75Q5.25,20.75,5.25,20.4932L5.25,5.0481Q5.25,4.717212,5.477396,4.481776Q5.701259,4.25,6.01232,4.25L12.98728,4.25Q13.29834,4.25,13.5222,4.481776Q13.7496,4.717212,13.7496,5.0481ZM5.889948,20.0786L5.651073,20.0786L5.651073,5.0481Q5.651073,4.895255,5.757407,4.785162Q5.867275,4.671409,6.02344,4.671409L12.98728,4.671409Q13.35965,4.67141,13.35965,5.0481L13.35965,20.3286L5.889948,20.3286L5.889948,20.0786ZM6.15107,19.8286L12.85965,19.8286L12.85965,5.17141L6.15107,5.17141L6.15107,19.8286Z" fill-rule="evenodd" fill="#333333" fill-opacity="1"/></g><g><path d="M8.553609999999999,7.939335L7.437637,7.939335C7.196937,7.939335,7,7.727984,7,7.469667C7,7.21135,7.196937,7,7.437637,7L8.553609999999999,7C8.79431,7,8.99125,7.21135,8.99125,7.469667C8.99125,7.727984,8.79431,7.939335,8.553609999999999,7.939335ZM11.55142,7.939335L10.446390000000001,7.939335C10.20569,7.939335,10.00875,7.727984,10.00875,7.469667C10.00875,7.21135,10.20569,7,10.446390000000001,7L11.56236,7C11.80306,7,12,7.21135,12,7.469667C12,7.727984,11.79212,7.939335,11.55142,7.939335ZM8.553609999999999,10.47554L7.437637,10.47554C7.196937,10.47554,7,10.26419,7,10.00587C7,9.74755,7.196937,9.536200000000001,7.437637,9.536200000000001L8.553609999999999,9.536200000000001C8.79431,9.536200000000001,8.99125,9.74755,8.99125,10.00587C8.99125,10.26419,8.79431,10.47554,8.553609999999999,10.47554ZM11.55142,10.47554L10.446390000000001,10.47554C10.20569,10.47554,10.00875,10.26419,10.00875,10.00587C10.00875,9.74755,10.20569,9.536200000000001,10.446390000000001,9.536200000000001L11.56236,9.536200000000001C11.80306,9.536200000000001,12,9.74755,12,10.00587C12,10.26419,11.79212,10.47554,11.55142,10.47554ZM8.553609999999999,13L7.437637,13C7.196937,13,7,12.78865,7,12.53033C7,12.272020000000001,7.196937,12.06067,7.437637,12.06067L8.553609999999999,12.06067C8.79431,12.06067,8.99125,12.272020000000001,8.99125,12.53033C8.99125,12.78865,8.79431,13,8.553609999999999,13ZM11.55142,13L10.446390000000001,13C10.20569,13,10.00875,12.78865,10.00875,12.53033C10.00875,12.272020000000001,10.20569,12.06067,10.446390000000001,12.06067L11.56236,12.06067C11.80306,12.06067,12,12.272020000000001,12,12.53033C12,12.78865,11.79212,13,11.55142,13Z" fill="#333333" fill-opacity="1"/><path d="M9.0456,7.9718Q9.24125,7.7618279999999995,9.24125,7.469667Q9.24125,7.177507,9.0456,6.9675349Q8.8429,6.75,8.553609999999999,6.75L7.437637,6.75Q7.148352,6.75,6.9456523,6.9675349Q6.75,7.177507,6.75,7.469667Q6.75,7.7618279999999995,6.9456523,7.9718Q7.148352,8.18933,7.437637,8.18933L8.553609999999999,8.18933Q8.8429,8.18933,9.0456,7.9718ZM12.04597,7.974871Q12.25,7.763204,12.25,7.469667Q12.25,7.177507,12.05435,6.9675349Q11.85165,6.75,11.56236,6.75L10.446390000000001,6.75Q10.1571,6.75,9.95441,6.9675349Q9.75875,7.177507,9.75875,7.469667Q9.75875,7.7618279999999995,9.95441,7.9718Q10.15711,8.18933,10.446390000000001,8.18933L11.55142,8.18933Q11.83924,8.18933,12.04597,7.974871ZM8.553609999999999,7.25Q8.74125,7.25,8.74125,7.469667Q8.74125,7.689335,8.553609999999999,7.689335L7.437637,7.689335Q7.25,7.689335,7.25,7.469667Q7.25,7.342665,7.31272,7.28909Q7.358484,7.25,7.437637,7.25L8.553609999999999,7.25ZM11.56236,7.25Q11.75,7.25,11.75,7.469667Q11.75,7.689335,11.55142,7.689335L10.446390000000001,7.689335Q10.25875,7.689335,10.25875,7.469667Q10.25875,7.25,10.446390000000001,7.25L11.56236,7.25ZM9.0456,10.508Q9.24125,10.29803,9.24125,10.00587Q9.24125,9.713709999999999,9.0456,9.50374Q8.8429,9.286200000000001,8.553609999999999,9.286200000000001L7.437637,9.286200000000001Q7.148352,9.286200000000001,6.9456523,9.50374Q6.75,9.713709999999999,6.75,10.00587Q6.75,10.29803,6.9456522,10.508Q7.148352,10.72554,7.437637,10.72554L8.553609999999999,10.72554Q8.8429,10.72554,9.0456,10.508ZM12.04597,10.51107Q12.25,10.29941,12.25,10.00587Q12.25,9.713709999999999,12.05435,9.50374Q11.85165,9.286200000000001,11.56236,9.286200000000001L10.446390000000001,9.286200000000001Q10.15711,9.286200000000001,9.95441,9.50374Q9.75875,9.713709999999999,9.75875,10.00587Q9.75875,10.29803,9.95441,10.508Q10.1571,10.72554,10.446390000000001,10.72554L11.55142,10.72554Q11.83924,10.72554,12.04597,10.51107ZM8.553609999999999,9.786200000000001Q8.74125,9.786200000000001,8.74125,10.00587Q8.74125,10.22554,8.553609999999999,10.22554L7.437637,10.22554Q7.25,10.22554,7.25,10.00587Q7.25,9.87887,7.31272,9.825289999999999Q7.358483,9.786200000000001,7.437637,9.786200000000001L8.553609999999999,9.786200000000001ZM11.56236,9.786200000000001Q11.75,9.786200000000001,11.75,10.00587Q11.75,10.22554,11.55142,10.22554L10.446390000000001,10.22554Q10.37462,10.22554,10.32021,10.16714Q10.25875,10.101189999999999,10.25875,10.00587Q10.25875,9.786200000000001,10.446390000000001,9.786200000000001L11.56236,9.786200000000001ZM9.0456,13.03246Q9.24125,12.82249,9.24125,12.53033Q9.24125,12.23817,9.0456,12.0282Q8.8429,11.81067,8.553609999999999,11.81067L7.437637,11.81067Q7.148352,11.81067,6.9456523,12.0282Q6.75,12.23817,6.75,12.53033Q6.75,12.82249,6.9456523,13.03246Q7.148352,13.25,7.437637,13.25L8.553609999999999,13.25Q8.8429,13.25,9.0456,13.03246ZM12.04597,13.035540000000001Q12.25,12.82387,12.25,12.53033Q12.25,12.23817,12.05435,12.0282Q11.85165,11.81067,11.56236,11.81067L10.446390000000001,11.81067Q10.15711,11.81067,9.95441,12.0282Q9.75875,12.23817,9.75875,12.53033Q9.75875,12.82249,9.95441,13.03246Q10.15711,13.25,10.446390000000001,13.25L11.55142,13.25Q11.83924,13.25,12.04597,13.035540000000001ZM8.553609999999999,12.31067Q8.74125,12.31067,8.74125,12.53033Q8.74125,12.75,8.553609999999999,12.75L7.437637,12.75Q7.25,12.75,7.25,12.53033Q7.25,12.40333,7.31272,12.34976Q7.358483,12.31067,7.437637,12.31067L8.553609999999999,12.31067ZM11.56236,12.31067Q11.75,12.31067,11.75,12.53033Q11.75,12.75,11.55142,12.75L10.446390000000001,12.75Q10.25875,12.75,10.25875,12.53033Q10.25875,12.31067,10.446390000000001,12.31067L11.56236,12.31067Z" fill-rule="evenodd" fill="#333333" fill-opacity="1"/></g><g><path d="M8.553609999999999,16L7.437637,16C7.196937,16,7,15.775,7,15.5C7,15.225,7.196937,15,7.437637,15L8.553609999999999,15C8.79431,15,8.99125,15.225,8.99125,15.5C8.99125,15.775,8.79431,16,8.553609999999999,16ZM11.55142,16L10.446390000000001,16C10.20569,16,10.00875,15.775,10.00875,15.5C10.00875,15.225,10.20569,15,10.446390000000001,15L11.56236,15C11.80306,15,12,15.225,12,15.5C12,15.775,11.79212,16,11.55142,16Z" fill="#333333" fill-opacity="1"/><path d="M9.05081,16.01778Q9.24125,15.800206,9.24125,15.5Q9.24125,15.199794,9.05081,14.9822198Q8.84755,14.75,8.553609999999999,14.75L7.437637,14.75Q7.143693,14.75,6.9404371,14.9822199Q6.75,15.199794,6.75,15.5Q6.75,15.800206,6.9404371,16.01778Q7.143693,16.25,7.437637,16.25L8.553609999999999,16.25Q8.84755,16.25,9.05081,16.01778ZM12.05129,16.02092Q12.25,15.80147,12.25,15.5Q12.25,15.199795,12.059560000000001,14.9822199Q11.85631,14.75,11.56236,14.75L10.446390000000001,14.75Q10.15245,14.75,9.94919,14.9822198Q9.75875,15.199795,9.75875,15.5Q9.75875,15.800205,9.94919,16.01778Q10.15245,16.25,10.446390000000001,16.25L11.55142,16.25Q11.84388,16.25,12.05129,16.02092ZM8.553609999999999,15.25Q8.74125,15.25,8.74125,15.5Q8.74125,15.75,8.553609999999999,15.75L7.437637,15.75Q7.25,15.75,7.25,15.5Q7.25,15.340084,7.326775,15.282461Q7.370024,15.25,7.437637,15.25L8.553609999999999,15.25ZM11.56236,15.25Q11.75,15.25,11.75,15.5Q11.75,15.75,11.55142,15.75L10.446390000000001,15.75Q10.25875,15.75,10.25875,15.5Q10.25875,15.25,10.446390000000001,15.25L11.56236,15.25Z" fill-rule="evenodd" fill="#333333" fill-opacity="1"/></g><g><path d="M8.553609999999999,18L7.437637,18C7.196937,18,7,17.775,7,17.5C7,17.225,7.196937,17,7.437637,17L8.553609999999999,17C8.79431,17,8.99125,17.225,8.99125,17.5C8.99125,17.775,8.79431,18,8.553609999999999,18ZM11.55142,18L10.446390000000001,18C10.20569,18,10.00875,17.775,10.00875,17.5C10.00875,17.225,10.20569,17,10.446390000000001,17L11.56236,17C11.80306,17,12,17.225,12,17.5C12,17.775,11.79212,18,11.55142,18Z" fill="#333333" fill-opacity="1"/><path d="M9.05081,18.01778Q9.24125,17.800206,9.24125,17.5Q9.24125,17.199794,9.05081,16.9822198Q8.84755,16.75,8.553609999999999,16.75L7.437637,16.75Q7.143693,16.75,6.9404371,16.9822199Q6.75,17.199794,6.75,17.5Q6.75,17.800206,6.9404371,18.01778Q7.143693,18.25,7.437637,18.25L8.553609999999999,18.25Q8.84755,18.25,9.05081,18.01778ZM12.05129,18.02092Q12.25,17.80147,12.25,17.5Q12.25,17.199795,12.059560000000001,16.9822199Q11.85631,16.75,11.56236,16.75L10.446390000000001,16.75Q10.15245,16.75,9.94919,16.9822198Q9.75875,17.199795,9.75875,17.5Q9.75875,17.800205,9.94919,18.01778Q10.15245,18.25,10.446390000000001,18.25L11.55142,18.25Q11.84388,18.25,12.05129,18.02092ZM8.553609999999999,17.25Q8.74125,17.25,8.74125,17.5Q8.74125,17.75,8.553609999999999,17.75L7.437637,17.75Q7.25,17.75,7.25,17.5Q7.25,17.340084,7.326775,17.282461Q7.370024,17.25,7.437637,17.25L8.553609999999999,17.25ZM11.56236,17.25Q11.75,17.25,11.75,17.5Q11.75,17.75,11.55142,17.75L10.446390000000001,17.75Q10.25875,17.75,10.25875,17.5Q10.25875,17.25,10.446390000000001,17.25L11.56236,17.25Z" fill-rule="evenodd" fill="#333333" fill-opacity="1"/></g><g><path d="M20,20L19.09774,20L19.09774,9.58264C19.09774,9.49583,19.04135,9.40902,18.95113,9.38731L14,7.824708L14.281955,7L19.221809999999998,8.55175C19.68421,8.69282,19.98872,9.10518,19.98872,9.57179L19.98872,20L20,20Z" fill="#333333" fill-opacity="1"/><path d="M20,20.25L20,20L20.23872,20L20.23872,9.57179Q20.23872,9.137360000000001,19.97886,8.78995Q19.71853,8.44192,19.29673,8.31324L14.124271,6.688422L13.680627,7.986067L18.84774,9.61684L18.84774,20.25L20,20.25ZM19.73872,19.75L19.73872,9.57179Q19.73872,8.97083,19.14688,8.79026L14.439638,7.311578L14.319373,7.663348L19.019,9.14658Q19.34774,9.23059,19.34774,9.58264L19.34774,19.75L19.73872,19.75Z" fill-rule="evenodd" fill="#333333" fill-opacity="1"/></g></g></svg>