<svg xmlns="http://www.w3.org/2000/svg" xmlns:xlink="http://www.w3.org/1999/xlink" fill="none" version="1.1" width="28" height="28" viewBox="0 0 28 28"><g><g><rect x="0" y="0" width="28" height="28" rx="0" fill="#FFFFFF" fill-opacity="0.009999999776482582"/></g><g><path d="M5.83333,15.333336984558105L7,15.333336984558105Q7.073869999999999,15.333336984558105,7.146319999999999,15.318926984558106Q7.21877,15.304506984558106,7.28701,15.276246984558107Q7.3552599999999995,15.247976984558106,7.4166799999999995,15.206936984558105Q7.4780999999999995,15.165896984558106,7.53033,15.113666984558105Q7.58256,15.061426984558105,7.6236,15.000006984558105Q7.66464,14.938586984558105,7.69291,14.870346984558106Q7.72118,14.802096984558105,7.73559,14.729646984558105Q7.75,14.657206984558105,7.75,14.583336984558105Q7.75,14.509466984558106,7.73559,14.437016984558106Q7.72118,14.364566984558106,7.69291,14.296316984558105Q7.66464,14.228076984558106,7.6236,14.166656984558106Q7.58256,14.105236984558106,7.53033,14.053006984558106Q7.4780999999999995,14.000766984558105,7.4166799999999995,13.959726984558106Q7.3552599999999995,13.918696984558107,7.28701,13.890426984558106Q7.21877,13.862156984558105,7.146319999999999,13.847746984558105Q7.073869999999999,13.833336984558105,7,13.833336984558105L5.83333,13.833336984558105Q5.1775,13.833336984558105,4.71375,13.369576984558105Q4.25,12.905826984558106,4.25,12.249996984558106Q4.25,11.594176984558105,4.71375,11.130416984558106Q5.1775,10.666666984558105,5.83333,10.666666984558105L7,10.666666984558105Q7.073869999999999,10.666666984558105,7.146319999999999,10.652255984558106Q7.21877,10.637844984558106,7.28701,10.609576984558105Q7.3552599999999995,10.581307984558105,7.4166799999999995,10.540268984558105Q7.4780999999999995,10.499229984558106,7.53033,10.446996984558105Q7.58256,10.394763984558105,7.6236,10.333344984558105Q7.66464,10.271924984558105,7.69291,10.203679984558105Q7.72118,10.135433984558105,7.73559,10.062984984558106Q7.75,9.990535484558105,7.75,9.916666984558105Q7.75,9.842798484558106,7.73559,9.770348984558105Q7.72118,9.697899984558106,7.69291,9.629653984558106Q7.66464,9.561408984558106,7.6236,9.499988984558106Q7.58256,9.438569984558105,7.53033,9.386336984558106Q7.4780999999999995,9.334103984558105,7.4166799999999995,9.293064984558105Q7.3552599999999995,9.252025984558106,7.28701,9.223756984558106Q7.21877,9.195488984558105,7.146319999999999,9.181077984558105Q7.073869999999999,9.166666984558105,7,9.166666984558105L5.83333,9.166666984558105Q4.5561799999999995,9.166666984558105,3.653085,10.069764984558105Q2.75,10.972856984558106,2.75,12.249996984558106Q2.75,13.527146984558104,3.653085,14.430236984558105Q4.5561799999999995,15.333336984558105,5.83333,15.333336984558105Z" fill-rule="evenodd" fill="#0C0507" fill-opacity="1"/></g><g><path d="M11.08333,24.66667L12.83333,24.66667Q12.9072,24.66667,12.97965,24.65226Q13.0521,24.63784,13.12035,24.60958Q13.18859,24.581310000000002,13.25001,24.54027Q13.31143,24.49923,13.36366,24.447Q13.4159,24.394759999999998,13.45694,24.33334Q13.497969999999999,24.27192,13.52624,24.20368Q13.55451,24.13543,13.56892,24.06298Q13.58333,23.99054,13.58333,23.91667Q13.58333,23.8428,13.56892,23.77035Q13.55451,23.6979,13.52624,23.629649999999998Q13.497969999999999,23.561410000000002,13.45694,23.49999Q13.4159,23.43857,13.36366,23.38634Q13.31143,23.3341,13.25001,23.29306Q13.18859,23.25203,13.12035,23.22376Q13.0521,23.19549,12.97965,23.18108Q12.9072,23.16667,12.83333,23.16667L11.08333,23.16667Q10.42751,23.16667,9.96376,22.70291Q9.5,22.23916,9.5,21.58333Q9.5,20.92751,9.96376,20.46376Q10.42751,20,11.08333,20L12.83333,20Q12.9072,20,12.97965,19.985589Q13.0521,19.971178,13.12035,19.94291Q13.18859,19.914641,13.25001,19.873601999999998Q13.31143,19.832563,13.36366,19.78033Q13.4159,19.728096999999998,13.45694,19.666678Q13.497969999999999,19.605258,13.52624,19.537013Q13.55451,19.468767,13.56892,19.396318Q13.58333,19.3238685,13.58333,19.25Q13.58333,19.1761315,13.56892,19.103682Q13.55451,19.031233,13.52624,18.962987Q13.497969999999999,18.894742,13.45694,18.833322Q13.4159,18.771903000000002,13.36366,18.71967Q13.31143,18.667437,13.25001,18.626398000000002Q13.18859,18.585359,13.12035,18.55709Q13.0521,18.528822,12.97965,18.514411Q12.9072,18.5,12.83333,18.5L11.08333,18.5Q9.80619,18.5,8.903096,19.403096Q8,20.30619,8,21.58333Q8,22.86047,8.903096,23.76357Q9.80619,24.66667,11.08333,24.66667Z" fill-rule="evenodd" fill="#0C0507" fill-opacity="1"/></g><g><path d="M13.999996984558106,9.500003492279053L15.749996984558106,9.500003492279053Q15.823866984558105,9.500003492279053,15.896316984558105,9.485593492279053Q15.968766984558105,9.471173492279053,16.037016984558107,9.442913492279054Q16.105256984558103,9.414643492279053,16.166676984558105,9.373603492279052Q16.228096984558107,9.332563492279053,16.280326984558105,9.280333492279052Q16.332566984558106,9.228093492279053,16.373606984558105,9.166673492279052Q16.414636984558104,9.105253492279052,16.442906984558107,9.037013492279053Q16.471176984558106,8.968763492279052,16.485586984558104,8.896313492279052Q16.499996984558106,8.823873492279052,16.499996984558106,8.750003492279053Q16.499996984558106,8.676133492279053,16.485586984558104,8.603683492279053Q16.471176984558106,8.531233492279053,16.442906984558107,8.462983492279053Q16.414636984558104,8.394743492279053,16.373606984558105,8.333323492279053Q16.332566984558106,8.271903492279053,16.280326984558105,8.219673492279053Q16.228096984558107,8.167433492279052,16.166676984558105,8.126393492279053Q16.105256984558103,8.085363492279054,16.037016984558107,8.057093492279053Q15.968766984558105,8.028823492279052,15.896316984558105,8.014413492279052Q15.823866984558105,8.000003492279053,15.749996984558106,8.000003492279053L13.999996984558106,8.000003492279053Q13.344176984558105,8.000003492279053,12.880426984558106,7.536243492279053Q12.416666984558105,7.072493492279053,12.416666984558105,6.416663492279053Q12.416666984558105,5.760833492279053,12.880416984558106,5.297083492279053Q13.344176984558105,4.833333492279053,13.999996984558106,4.833333492279053L15.749996984558106,4.833333492279053Q15.823866984558105,4.833333492279053,15.896316984558105,4.818922492279053Q15.968766984558105,4.804511492279053,16.037016984558107,4.776243492279053Q16.105256984558103,4.747974492279052,16.166676984558105,4.706935492279053Q16.228096984558107,4.665896492279053,16.280326984558105,4.613663492279053Q16.332566984558106,4.561430492279053,16.373606984558105,4.500011492279053Q16.414636984558104,4.438591492279053,16.442906984558107,4.370346492279053Q16.471176984558106,4.3021004922790524,16.485586984558104,4.229651492279053Q16.499996984558106,4.157201992279052,16.499996984558106,4.083333492279053Q16.499996984558106,4.009464992279053,16.485586984558104,3.937015492279053Q16.471176984558106,3.8645664922790526,16.442906984558107,3.7963204922790528Q16.414636984558104,3.7280754922790527,16.373606984558105,3.6666554922790526Q16.332566984558106,3.6052364922790527,16.280326984558105,3.5530034922790525Q16.228096984558107,3.500770492279053,16.166676984558105,3.4597314922790527Q16.105256984558103,3.4186924922790527,16.037016984558107,3.390423492279053Q15.968766984558105,3.3621554922790526,15.896316984558105,3.3477444922790527Q15.823866984558105,3.3333334922790527,15.749996984558106,3.3333334922790527L13.999996984558106,3.3333334922790527Q12.722856984558106,3.3333334922790527,11.819764984558105,4.236418492279053Q10.916666984558105,5.139513492279052,10.916666984558105,6.416663492279053Q10.916666984558105,7.693813492279053,11.819762984558105,8.596903492279052Q12.722856984558106,9.500003492279053,13.999996984558106,9.500003492279053Z" fill-rule="evenodd" fill="#0C0507" fill-opacity="1"/></g><g><path d="M14,9.5L23.33333,9.5Q23.4072,9.5,23.47965,9.485589000000001Q23.5521,9.471178,23.620350000000002,9.44291Q23.688589999999998,9.414641,23.75001,9.373602Q23.81143,9.332563,23.86366,9.28033Q23.9159,9.228097,23.95694,9.166678Q23.997970000000002,9.105258,24.0262,9.037013Q24.0545,8.968767,24.0689,8.896318Q24.0833,8.8238685,24.0833,8.75Q24.0833,8.6761315,24.0689,8.603682Q24.0545,8.531233,24.0262,8.462987Q23.997970000000002,8.394742,23.95694,8.333322Q23.9159,8.271903,23.86366,8.21967Q23.81143,8.167437,23.75001,8.126398Q23.688589999999998,8.085359,23.620350000000002,8.05709Q23.5521,8.028822,23.47965,8.014410999999999Q23.4072,8,23.33333,8L14,8Q13.9261315,8,13.853682,8.014410999999999Q13.781233,8.028822,13.712987,8.05709Q13.644742,8.085359,13.583322,8.126398Q13.521903,8.167437,13.46967,8.21967Q13.417437,8.271903,13.376398,8.333322Q13.335359,8.394742,13.30709,8.462987Q13.278822,8.531233,13.264410999999999,8.603682Q13.25,8.6761315,13.25,8.75Q13.25,8.8238685,13.264410999999999,8.896318Q13.278822,8.968767,13.30709,9.037013Q13.335359,9.105258,13.376398,9.166678Q13.417437,9.228097,13.46967,9.28033Q13.521903,9.332563,13.583322,9.373602Q13.644742,9.414641,13.712987,9.44291Q13.781233,9.471178,13.853682,9.485589000000001Q13.9261315,9.5,14,9.5Z" fill-rule="evenodd" fill="#0C0507" fill-opacity="1"/></g><g><path d="M7,15.333333969116211L24.5,15.333333969116211Q24.5739,15.333333969116211,24.6463,15.318922969116212Q24.7188,15.304511969116211,24.787,15.27624396911621Q24.8553,15.24797496911621,24.9167,15.206935969116211Q24.9781,15.165896969116211,25.0303,15.11366396911621Q25.0826,15.061430969116211,25.1236,15.00001196911621Q25.1646,14.93859196911621,25.1929,14.870346969116211Q25.2212,14.80210096911621,25.2356,14.729651969116212Q25.25,14.65720246911621,25.25,14.583333969116211Q25.25,14.509465469116211,25.2356,14.43701596911621Q25.2212,14.364566969116211,25.1929,14.296320969116211Q25.1646,14.228075969116212,25.1236,14.166655969116212Q25.0826,14.105236969116211,25.0303,14.053003969116212Q24.9781,14.00077096911621,24.9167,13.959731969116211Q24.8553,13.918692969116211,24.787,13.890423969116211Q24.7188,13.86215596911621,24.6463,13.84774496911621Q24.5739,13.833333969116211,24.5,13.833333969116211L7,13.833333969116211Q6.9261315,13.833333969116211,6.853682,13.84774496911621Q6.781233,13.86215596911621,6.712987,13.890423969116211Q6.644742,13.918692969116211,6.583322,13.959731969116211Q6.521903,14.00077096911621,6.46967,14.053003969116212Q6.417437,14.105236969116211,6.376398,14.166655969116212Q6.335359,14.228075969116212,6.30709,14.296320969116211Q6.278822,14.364566969116211,6.264411,14.43701596911621Q6.25,14.509465469116211,6.25,14.583333969116211Q6.25,14.65720246911621,6.264411,14.729651969116212Q6.278822,14.80210096911621,6.30709,14.870346969116211Q6.335359,14.93859196911621,6.376398,15.00001196911621Q6.417437,15.061430969116211,6.46967,15.11366396911621Q6.521903,15.165896969116211,6.583322,15.206935969116211Q6.644742,15.24797496911621,6.712987,15.27624396911621Q6.781233,15.304511969116211,6.853682,15.318922969116212Q6.9261315,15.333333969116211,7,15.333333969116211Z" fill-rule="evenodd" fill="#0C0507" fill-opacity="1"/></g><g><path d="M12.833333969116211,20L19.83333396911621,20Q19.90720396911621,20,19.97965396911621,19.985589Q20.05210396911621,19.971178,20.120343969116213,19.94291Q20.188593969116212,19.914641,20.25001396911621,19.873601999999998Q20.311433969116212,19.832563,20.36366396911621,19.78033Q20.415893969116212,19.728096999999998,20.45693396911621,19.666678Q20.49797396911621,19.605258,20.526243969116212,19.537013Q20.55451396911621,19.468767,20.568923969116213,19.396318Q20.58333396911621,19.3238685,20.58333396911621,19.25Q20.58333396911621,19.1761315,20.568923969116213,19.103682Q20.55451396911621,19.031233,20.526243969116212,18.962987Q20.49797396911621,18.894742,20.45693396911621,18.833322Q20.415893969116212,18.771903000000002,20.36366396911621,18.71967Q20.311433969116212,18.667437,20.25001396911621,18.626398000000002Q20.188593969116212,18.585359,20.120343969116213,18.55709Q20.05210396911621,18.528822,19.97965396911621,18.514411Q19.90720396911621,18.5,19.83333396911621,18.5L12.833333969116211,18.5Q12.759465469116211,18.5,12.68701596911621,18.514411Q12.614566969116211,18.528822,12.546320969116211,18.55709Q12.478075969116212,18.585359,12.416655969116212,18.626398000000002Q12.355236969116211,18.667437,12.303003969116212,18.71967Q12.25077096911621,18.771903000000002,12.209731969116211,18.833322Q12.168692969116211,18.894742,12.140423969116211,18.962987Q12.11215596911621,19.031233,12.09774496911621,19.103682Q12.083333969116211,19.1761315,12.083333969116211,19.25Q12.083333969116211,19.3238685,12.09774496911621,19.396318Q12.11215596911621,19.468767,12.140423969116211,19.537013Q12.168692969116211,19.605258,12.209731969116211,19.666678Q12.25077096911621,19.728096999999998,12.303003969116212,19.78033Q12.355236969116211,19.832563,12.416655969116212,19.873601999999998Q12.478075969116212,19.914641,12.546320969116211,19.94291Q12.614566969116211,19.971178,12.68701596911621,19.985589Q12.759465469116211,20,12.833333969116211,20Z" fill-rule="evenodd" fill="#0C0507" fill-opacity="1"/></g></g></svg>