<svg xmlns="http://www.w3.org/2000/svg" xmlns:xlink="http://www.w3.org/1999/xlink" fill="none" version="1.1" width="28" height="28" viewBox="0 0 28 28"><g><g><rect x="0" y="0" width="28" height="28" rx="0" fill="#D8D8D8" fill-opacity="0"/></g><g><path d="M14,13.999966746139526C16.99152,13.999966746139526,19.41667,11.574846746139526,19.41667,8.583336746139526C19.41667,5.591786746139526,16.99152,3.1666667461395264,14,3.1666667461395264L14,13.999966746139526Z" fill="#000000" fill-opacity="1"/><path d="M14,2.1666667461395264Q13.9015086,2.1666667461395264,13.80491,2.185880746139526Q13.708311,2.205095746139526,13.617317,2.2427867461395263Q13.526322,2.2804777461395265,13.44443,2.3351967461395264Q13.362537,2.3899157461395264,13.292893,2.459559746139526Q13.223249,2.5292037461395265,13.16853,2.6110967461395265Q13.113812,2.6929887461395263,13.076121,2.7839837461395263Q13.03843,2.8749777461395265,13.019214999999999,2.9715767461395264Q13,3.0681753461395265,13,3.1666667461395264L13,13.999966746139526Q13,14.098466746139527,13.019214999999999,14.195066746139526Q13.03843,14.291666746139526,13.076121,14.382666746139526Q13.113812,14.473666746139527,13.16853,14.555566746139526Q13.223249,14.637466746139527,13.292893,14.707066746139526Q13.362537,14.776766746139526,13.44443,14.831466746139526Q13.526322,14.886166746139526,13.617317,14.923866746139526Q13.708311,14.961566746139527,13.80491,14.980766746139526Q13.9015086,14.999966746139526,14,14.999966746139526Q16.65785,14.999966746139526,18.53726,13.120596746139526Q20.41667,11.241186746139526,20.41667,8.583336746139526Q20.41667,5.925466746139526,18.53726,4.046062746139526Q16.65786,2.1666667461395264,14,2.1666667461395264ZM15,4.271906746139527L15,12.894766746139526Q16.1984,12.631026746139526,17.12305,11.706376746139526Q18.41667,10.412756746139525,18.41667,8.583336746139526Q18.41667,6.753896746139526,17.12305,5.4602767461395265Q16.1984,4.535636746139526,15,4.271906746139527Z" fill-rule="evenodd" fill="#000000" fill-opacity="1"/></g><g><path d="M14,14C14,16.99152,16.42515,19.41667,19.41667,19.41667C22.40818,19.41667,24.8333,16.99152,24.8333,14L14,14Z" fill="#000000" fill-opacity="1"/><path d="M25.8333,14Q25.8333,13.9015086,25.8141,13.80491Q25.7949,13.708311,25.757199999999997,13.617317Q25.7195,13.526322,25.6648,13.44443Q25.6101,13.362537,25.540399999999998,13.292893Q25.4708,13.223249,25.3889,13.16853Q25.307000000000002,13.113812,25.216,13.076121Q25.125,13.03843,25.028399999999998,13.019214999999999Q24.931800000000003,13,24.8333,13L14,13Q13.9015086,13,13.80491,13.019214999999999Q13.708311,13.03843,13.617317,13.076121Q13.526322,13.113812,13.44443,13.16853Q13.362537,13.223249,13.292893,13.292893Q13.223249,13.362537,13.16853,13.44443Q13.113812,13.526322,13.076121,13.617317Q13.03843,13.708311,13.019214999999999,13.80491Q13,13.9015086,13,14Q13,16.65785,14.879408,18.53726Q16.75882,20.41667,19.41667,20.41667Q22.07452,20.41667,23.95393,18.53726Q25.8333,16.65785,25.8333,14ZM23.728099999999998,15L15.10524,15Q15.368970000000001,16.1984,16.29362,17.12305Q17.58724,18.41667,19.41667,18.41667Q21.24609,18.41667,22.53971,17.12305Q23.46436,16.1984,23.728099999999998,15Z" fill-rule="evenodd" fill="#000000" fill-opacity="1"/></g><g><path d="M13.999966746139526,14.00000396911621C13.999966746139526,11.008483969116211,11.574846746139526,8.583333969116211,8.583336746139526,8.583333969116211C5.591786746139526,8.583333969116211,3.1666667461395264,11.008483969116211,3.1666667461395264,14.00000396911621L13.999966746139526,14.00000396911621Z" fill="#000000" fill-opacity="1"/><path d="M2.1666667461395264,14.00000396911621Q2.1666667461395264,14.09849396911621,2.185880746139526,14.195093969116211Q2.205095746139526,14.29169396911621,2.2427867461395263,14.382683969116211Q2.2804777461395265,14.473673969116211,2.3351967461395264,14.55557396911621Q2.3899157461395264,14.637463969116212,2.459559746139526,14.707103969116211Q2.5292037461395265,14.77675396911621,2.6110967461395265,14.83147396911621Q2.6929887461395263,14.88618396911621,2.7839837461395263,14.923883969116211Q2.8749777461395265,14.96157396911621,2.9715767461395264,14.98078396911621Q3.0681753461395265,15.00000396911621,3.1666667461395264,15.00000396911621L13.999966746139526,15.00000396911621Q14.098466746139527,15.00000396911621,14.195066746139526,14.98078396911621Q14.291666746139526,14.96157396911621,14.382666746139526,14.923883969116211Q14.473666746139527,14.88618396911621,14.555566746139526,14.83147396911621Q14.637466746139527,14.77675396911621,14.707066746139526,14.707103969116211Q14.776766746139526,14.637463969116212,14.831466746139526,14.55557396911621Q14.886166746139526,14.473673969116211,14.923866746139526,14.382683969116211Q14.961566746139527,14.29169396911621,14.980766746139526,14.195093969116211Q14.999966746139526,14.09849396911621,14.999966746139526,14.00000396911621Q14.999966746139526,11.342153969116211,13.120596746139526,9.46274196911621Q11.241186746139526,7.583333969116211,8.583336746139526,7.583333969116211Q5.925466746139526,7.583333969116211,4.046062746139526,9.462742969116212Q2.1666667461395264,11.342143969116211,2.1666667461395264,14.00000396911621ZM4.271906746139527,13.00000396911621L12.894766746139526,13.00000396911621Q12.631026746139526,11.801603969116211,11.706376746139526,10.876953969116212Q10.412756746139525,9.583333969116211,8.583336746139526,9.583333969116211Q6.753896746139526,9.583333969116211,5.4602767461395265,10.876953969116212Q4.535636746139526,11.801603969116211,4.271906746139527,13.00000396911621Z" fill-rule="evenodd" fill="#000000" fill-opacity="1"/></g><g><path d="M14.00000396911621,14C11.008483969116211,14,8.583333969116211,16.42515,8.583333969116211,19.41667C8.583333969116211,22.40818,11.008483969116211,24.8333,14.00000396911621,24.8333L14.00000396911621,14Z" fill="#000000" fill-opacity="1"/><path d="M14.00000396911621,25.8333Q14.09849396911621,25.8333,14.195093969116211,25.8141Q14.29169396911621,25.7949,14.382683969116211,25.757199999999997Q14.473673969116211,25.7195,14.55557396911621,25.6648Q14.637463969116212,25.6101,14.707103969116211,25.540399999999998Q14.77675396911621,25.4708,14.83147396911621,25.3889Q14.88618396911621,25.307000000000002,14.923883969116211,25.216Q14.96157396911621,25.125,14.98078396911621,25.028399999999998Q15.00000396911621,24.931800000000003,15.00000396911621,24.8333L15.00000396911621,14Q15.00000396911621,13.9015086,14.98078396911621,13.80491Q14.96157396911621,13.708311,14.923883969116211,13.617317Q14.88618396911621,13.526322,14.83147396911621,13.44443Q14.77675396911621,13.362537,14.707103969116211,13.292893Q14.637463969116212,13.223249,14.55557396911621,13.16853Q14.473673969116211,13.113812,14.382683969116211,13.076121Q14.29169396911621,13.03843,14.195093969116211,13.019214999999999Q14.09849396911621,13,14.00000396911621,13Q11.342153969116211,13,9.46274196911621,14.879408Q7.583333969116211,16.75882,7.583333969116211,19.41667Q7.583333969116211,22.07452,9.46274196911621,23.95393Q11.342153969116211,25.8333,14.00000396911621,25.8333ZM13.00000396911621,23.728099999999998L13.00000396911621,15.10524Q11.801603969116211,15.368970000000001,10.876953969116212,16.29362Q9.583333969116211,17.58724,9.583333969116211,19.41667Q9.583333969116211,21.24609,10.876953969116212,22.53971Q11.801603969116211,23.46436,13.00000396911621,23.728099999999998Z" fill-rule="evenodd" fill="#000000" fill-opacity="1"/></g></g></svg>