<svg xmlns="http://www.w3.org/2000/svg" xmlns:xlink="http://www.w3.org/1999/xlink" fill="none" version="1.1" width="20" height="20" viewBox="0 0 20 20"><defs><clipPath id="master_svg0_8_7180/4_8435"><rect x="0" y="0" width="20" height="20" rx="0"/></clipPath></defs><g clip-path="url(#master_svg0_8_7180/4_8435)"><g><path d="M12.5,2L15.5,2Q16.53553,2,17.26777,2.732233Q18,3.464466,18,4.5L18,7.5Q18,7.54925,17.990389999999998,7.59755Q17.98078,7.64584,17.96194,7.69134Q17.943089999999998,7.73684,17.91573,7.77778Q17.888370000000002,7.81873,17.85355,7.85355Q17.818730000000002,7.88837,17.77778,7.91573Q17.73684,7.94309,17.69134,7.96194Q17.64584,7.98078,17.59755,7.99039Q17.54925,8,17.5,8Q17.45075,8,17.40245,7.99039Q17.35415,7.98078,17.30866,7.96194Q17.26316,7.94309,17.22221,7.91573Q17.181269999999998,7.88837,17.14645,7.85355Q17.111620000000002,7.81873,17.08426,7.77778Q17.0569,7.73684,17.03806,7.69134Q17.01921,7.64584,17.009610000000002,7.59755Q17,7.54925,17,7.5L17,4.5Q17,3.87868,16.56066,3.43934Q16.12132,3,15.5,3L12.5,3Q12.4507543,3,12.4024549,2.990393Q12.354155,2.980785,12.308658,2.9619400000000002Q12.263161,2.943094,12.222215,2.915735Q12.181269,2.888375,12.146447,2.853553Q12.111625,2.818731,12.084265,2.777785Q12.056906,2.736839,12.03806,2.691342Q12.019214999999999,2.645845,12.009607,2.5975451Q12,2.5492457,12,2.5Q12,2.4507543,12.009607,2.4024549Q12.019214999999999,2.354155,12.03806,2.308658Q12.056906,2.263161,12.084265,2.222215Q12.111625,2.181269,12.146447,2.146447Q12.181269,2.111625,12.222215,2.084265Q12.263161,2.056906,12.308658,2.0380599999999998Q12.354155,2.019215,12.4024549,2.009607Q12.4507543,2,12.5,2Z" fill-rule="evenodd" fill="#FFFFFF" fill-opacity="1"/></g><g><path d="M2,4.5L2,7.5Q2,7.54925,2.009607,7.59755Q2.019215,7.64584,2.0380599999999998,7.69134Q2.056906,7.73684,2.084265,7.77778Q2.111625,7.81873,2.146447,7.85355Q2.181269,7.88837,2.222215,7.91573Q2.263161,7.94309,2.308658,7.96194Q2.354155,7.98078,2.4024549,7.99039Q2.4507543,8,2.5,8Q2.5492457,8,2.5975451,7.99039Q2.645845,7.98078,2.691342,7.96194Q2.736839,7.94309,2.777785,7.91573Q2.818731,7.88837,2.853553,7.85355Q2.888375,7.81873,2.915735,7.77778Q2.943094,7.73684,2.9619400000000002,7.69134Q2.980785,7.64584,2.990393,7.59755Q3,7.54925,3,7.5L3,4.5Q3,3.87868,3.43934,3.43934Q3.87868,3,4.5,3L7.5,3Q7.54925,3,7.59755,2.990393Q7.64584,2.980785,7.69134,2.9619400000000002Q7.73684,2.943094,7.77778,2.915735Q7.81873,2.888375,7.85355,2.853553Q7.88837,2.818731,7.91573,2.777785Q7.94309,2.736839,7.96194,2.691342Q7.98078,2.645845,7.99039,2.5975451Q8,2.5492457,8,2.5Q8,2.4507543,7.99039,2.4024549Q7.98078,2.354155,7.96194,2.308658Q7.94309,2.263161,7.91573,2.222215Q7.88837,2.181269,7.85355,2.146447Q7.81873,2.111625,7.77778,2.084265Q7.73684,2.056906,7.69134,2.0380599999999998Q7.64584,2.019215,7.59755,2.009607Q7.54925,2,7.5,2L4.5,2Q3.464466,2,2.732233,2.732233Q2,3.464466,2,4.5Z" fill-rule="evenodd" fill="#FFFFFF" fill-opacity="1"/></g><g><path d="M17,12.5Q17,12.4507543,17.009610000000002,12.4024549Q17.01921,12.354155,17.03806,12.308658Q17.0569,12.263161,17.08426,12.222215Q17.111620000000002,12.181269,17.14645,12.146447Q17.181269999999998,12.111625,17.22221,12.084265Q17.26316,12.056906,17.30866,12.03806Q17.35415,12.019214999999999,17.40245,12.009607Q17.45075,12,17.5,12Q17.54925,12,17.59755,12.009607Q17.64584,12.019214999999999,17.69134,12.03806Q17.73684,12.056906,17.77778,12.084265Q17.818730000000002,12.111625,17.85355,12.146447Q17.888370000000002,12.181269,17.91573,12.222215Q17.943089999999998,12.263161,17.96194,12.308658Q17.98078,12.354155,17.990389999999998,12.4024549Q18,12.4507543,18,12.5L18,15.5Q18,16.53553,17.26777,17.26777Q16.53553,18,15.5,18L12.5,18Q12.4507543,18,12.4024549,17.990389999999998Q12.354155,17.98078,12.308658,17.96194Q12.263161,17.943089999999998,12.222215,17.91573Q12.181269,17.888370000000002,12.146447,17.85355Q12.111625,17.818730000000002,12.084265,17.77778Q12.056906,17.73684,12.03806,17.69134Q12.019214999999999,17.64584,12.009607,17.59755Q12,17.54925,12,17.5Q12,17.45075,12.009607,17.40245Q12.019214999999999,17.35415,12.03806,17.30866Q12.056906,17.26316,12.084265,17.22221Q12.111625,17.181269999999998,12.146447,17.14645Q12.181269,17.111620000000002,12.222215,17.08426Q12.263161,17.0569,12.308658,17.03806Q12.354155,17.01921,12.4024549,17.009610000000002Q12.4507543,17,12.5,17L15.5,17Q16.12132,17,16.56066,16.56066Q17,16.12132,17,15.5L17,12.5Z" fill-rule="evenodd" fill="#FFFFFF" fill-opacity="1"/></g><g><path d="M2,12.5Q2,12.4507543,2.009607,12.4024549Q2.019215,12.354155,2.0380599999999998,12.308658Q2.056906,12.263161,2.084265,12.222215Q2.111625,12.181269,2.146447,12.146447Q2.181269,12.111625,2.222215,12.084265Q2.263161,12.056906,2.308658,12.03806Q2.354155,12.019214999999999,2.4024549,12.009607Q2.4507543,12,2.5,12Q2.5492457,12,2.5975451,12.009607Q2.645845,12.019214999999999,2.691342,12.03806Q2.736839,12.056906,2.777785,12.084265Q2.818731,12.111625,2.853553,12.146447Q2.888375,12.181269,2.915735,12.222215Q2.943094,12.263161,2.9619400000000002,12.308658Q2.980785,12.354155,2.990393,12.4024549Q3,12.4507543,3,12.5L3,15.5Q3,16.12132,3.43934,16.56066Q3.87868,17,4.5,17L7.5,17Q7.54925,17,7.59755,17.009610000000002Q7.64584,17.01921,7.69134,17.03806Q7.73684,17.0569,7.77778,17.08426Q7.81873,17.111620000000002,7.85355,17.14645Q7.88837,17.181269999999998,7.91573,17.22221Q7.94309,17.26316,7.96194,17.30866Q7.98078,17.35415,7.99039,17.40245Q8,17.45075,8,17.5Q8,17.54925,7.99039,17.59755Q7.98078,17.64584,7.96194,17.69134Q7.94309,17.73684,7.91573,17.77778Q7.88837,17.818730000000002,7.85355,17.85355Q7.81873,17.888370000000002,7.77778,17.91573Q7.73684,17.943089999999998,7.69134,17.96194Q7.64584,17.98078,7.59755,17.990389999999998Q7.54925,18,7.5,18L4.5,18Q3.464466,18,2.732233,17.26777Q2,16.53553,2,15.5L2,12.5Z" fill-rule="evenodd" fill="#FFFFFF" fill-opacity="1"/></g><g><path d="M16.8535840234375,3.853553Q16.9239140234375,3.783227,16.9619740234375,3.691341Q17.0000340234375,3.5994559,17.0000340234375,3.5Q17.0000340234375,3.4507543,16.990424023437498,3.4024549Q16.9808140234375,3.354155,16.9619740234375,3.308658Q16.9431240234375,3.263161,16.9157640234375,3.222215Q16.888404023437502,3.181269,16.8535840234375,3.146447Q16.8187640234375,3.111625,16.7778140234375,3.084265Q16.736864023437498,3.056906,16.6913740234375,3.0380599999999998Q16.6458740234375,3.019215,16.5975740234375,3.009607Q16.5492740234375,3,16.5000340234375,3Q16.4005740234375,3,16.3086840234375,3.0380599999999998Q16.2168040234375,3.076121,16.1464740234375,3.146447L16.1463540234375,3.146566L11.7298200234375,7.56311Q11.6594940234375,7.63344,11.6214340234375,7.72533Q11.5833740234375,7.81721,11.5833740234375,7.91667Q11.5833740234375,7.96591,11.5929810234375,8.01421Q11.602589023437499,8.06251,11.6214340234375,8.10801Q11.6402800234375,8.15351,11.6676390234375,8.19445Q11.6949990234375,8.2354,11.7298210234375,8.27022Q11.7646430234375,8.30504,11.8055890234375,8.3324Q11.8465350234375,8.35976,11.8920320234375,8.37861Q11.9375290234375,8.39745,11.9858289234375,8.407060000000001Q12.0341283234375,8.41667,12.0833740234375,8.41667Q12.1828303234375,8.41667,12.2747160234375,8.37861Q12.3666010234375,8.34055,12.4369280234375,8.27022L16.8535840234375,3.853553L16.8535840234375,3.853553Z" fill-rule="evenodd" fill="#FFFFFF" fill-opacity="1"/></g><g><path d="M8.27022,12.436801953125Q8.34055,12.366475953125,8.37861,12.274591953125Q8.41667,12.182706953125,8.41667,12.083251953125Q8.41667,12.034006253125,8.407060000000001,11.985706853125Q8.39745,11.937406953125,8.37861,11.891909953125Q8.35976,11.846412953125,8.3324,11.805466953125Q8.30504,11.764520953125,8.27022,11.729698953125Q8.2354,11.694876953125,8.19445,11.667516953125Q8.153500000000001,11.640157953125,8.10801,11.621311953125Q8.06251,11.602466953124999,8.01421,11.592858953125Q7.96591,11.583251953125,7.91667,11.583251953125Q7.81721,11.583251953125,7.72532,11.621312953125Q7.63344,11.659373953125,7.56311,11.729701953125L7.56299,11.729820953125L3.146681,16.146211953125L3.146443,16.146451953125002Q3.076119,16.216771953125,3.038059,16.308661953125Q3,16.400541953125,3,16.500001953125Q3,16.549241953124998,3.009607,16.597541953125Q3.019215,16.645841953125,3.0380599999999998,16.691341953125Q3.056906,16.736841953125,3.084265,16.777781953125Q3.111625,16.818731953125,3.146447,16.853551953125Q3.181269,16.888371953125,3.222215,16.915731953125Q3.263161,16.943091953125,3.308658,16.961941953125Q3.354155,16.980781953125,3.4024549,16.990391953125Q3.4507543,17.000001953125,3.5,17.000001953125Q3.5994574,17.000001953125,3.691344,16.961941953125Q3.78323,16.923881953125,3.853557,16.853551953125L3.853794,16.853311953125L8.2701,12.436920953125L8.27022,12.436801953125L8.27022,12.436801953125Z" fill-rule="evenodd" fill="#FFFFFF" fill-opacity="1"/></g></g></svg>