<svg xmlns="http://www.w3.org/2000/svg" xmlns:xlink="http://www.w3.org/1999/xlink" fill="none" version="1.1" width="24" height="24" viewBox="0 0 24 24"><g><g><g transform="matrix(-1,0,0,-1,48,48)" style="opacity:0;"><path d="M24,24C24,24,48,24,48,24C48,24,48,48,48,48C48,48,24,48,24,48C24,48,24,24,24,24Z" fill="#000000" fill-opacity="1"/></g><g><g><path d="M7.649999942779541,20.91000015258789C7.619999942779541,20.91000015258789,7.579999942779541,20.93000015258789,7.549999942779541,20.93000015258789C5.609999942779541,19.97000015258789,4.029999942779541,18.38000015258789,3.059999942779541,16.440000152587892C3.059999942779541,16.410000552587892,3.079999942779541,16.37000015258789,3.079999942779541,16.34000015258789C4.299999942779541,16.70000015258789,5.559999942779541,16.97000015258789,6.809999942779541,17.18000015258789C7.029999942779542,18.440000152587892,7.289999942779541,19.690000152587892,7.649999942779541,20.91000015258789Z" fill="#000000" fill-opacity="1"/></g><g><path d="M20.940000915527342,16.45000115258789C19.950000915527344,18.440000152587892,18.30000091552734,20.05000015258789,16.290000915527344,21.02000015258789C16.670000915527343,19.75000015258789,16.990000915527343,18.47000015258789,17.200000915527344,17.18000015258789C18.460000915527345,16.97000015258789,19.700000915527344,16.70000015258789,20.920000915527343,16.34000015258789C20.910000915527345,16.38000015258789,20.940000915527342,16.420000752587892,20.940000915527342,16.45000115258789Z" fill="#000000" fill-opacity="1"/></g><g><path d="M21.020000915527344,7.710000019073487C19.760000915527343,7.330000019073486,18.490000915527343,7.020000019073486,17.200000915527344,6.800000019073487C16.990000915527343,5.510000019073486,16.680000915527344,4.230000019073486,16.290000915527344,2.9800000190734863C18.360000915527344,3.9700000190734865,20.030000915527346,5.6400000190734865,21.020000915527344,7.710000019073487Z" fill="#000000" fill-opacity="1"/></g><g><path d="M7.650000019073486,3.089999942779541C7.290000019073486,4.309999942779541,7.030000019073486,5.549999942779541,6.820000019073486,6.809999942779541C5.530000019073486,7.009999942779541,4.250000019073486,7.329999942779541,2.9800000190734863,7.709999942779541C3.950000019073486,5.699999942779542,5.560000019073486,4.049999942779541,7.550000019073487,3.059999942779541C7.580000019073486,3.059999942779541,7.620000019073486,3.089999942779541,7.650000019073486,3.089999942779541Z" fill="#000000" fill-opacity="1"/></g><g><path d="M15.490000228881836,6.59C13.170000228881836,6.33,10.830000228881836,6.33,8.510000228881836,6.59C8.760000228881836,5.220000000000001,9.080000228881836,3.85,9.530000228881836,2.5300000000000002C9.550000228881835,2.45,9.540000228881835,2.39,9.550000228881835,2.31C10.340000228881836,2.12,11.150000228881837,2,12.000000228881836,2C12.840000228881836,2,13.660000228881836,2.12,14.440000228881836,2.31C14.450000228881837,2.39,14.450000228881837,2.45,14.470000228881837,2.5300000000000002C14.920000228881836,3.8600000000000003,15.240000228881836,5.220000000000001,15.490000228881836,6.59Z" fill="#000000" fill-opacity="1"/></g><g><path d="M6.59,15.490000228881836C5.21,15.240000228881836,3.85,14.920000228881836,2.5300000000000002,14.470000228881837C2.45,14.450000228881837,2.39,14.460000228881835,2.31,14.450000228881837C2.12,13.660000228881836,2,12.850000228881836,2,12.000000228881836C2,11.160000228881836,2.12,10.340000228881836,2.31,9.560000228881837C2.39,9.550000228881835,2.45,9.550000228881835,2.5300000000000002,9.530000228881836C3.8600000000000003,9.090000228881836,5.21,8.760000228881836,6.59,8.510000228881836C6.34,10.830000228881836,6.34,13.170000228881836,6.59,15.490000228881836Z" fill="#000000" fill-opacity="1"/></g><g><path d="M21.99999984741211,12.000000228881836C21.99999984741211,12.850000228881836,21.87999984741211,13.660000228881836,21.68999984741211,14.450000228881837C21.60999984741211,14.460000228881835,21.54999984741211,14.450000228881837,21.469999847412108,14.470000228881837C20.13999984741211,14.910000228881836,18.77999984741211,15.240000228881836,17.40999984741211,15.490000228881836C17.66999984741211,13.170000228881836,17.66999984741211,10.830000228881836,17.40999984741211,8.510000228881836C18.77999984741211,8.760000228881836,20.14999984741211,9.080000228881836,21.469999847412108,9.530000228881836C21.54999984741211,9.550000228881835,21.60999984741211,9.560000228881837,21.68999984741211,9.560000228881837C21.87999984741211,10.350000228881836,21.99999984741211,11.160000228881836,21.99999984741211,12.000000228881836Z" fill="#000000" fill-opacity="1"/></g><g><path d="M15.490000228881836,17.40999984741211C15.240000228881836,18.78999984741211,14.920000228881836,20.14999984741211,14.470000228881837,21.469999847412108C14.450000228881837,21.54999984741211,14.450000228881837,21.60999984741211,14.440000228881836,21.68999984741211C13.660000228881836,21.87999984741211,12.840000228881836,21.99999984741211,12.000000228881836,21.99999984741211C11.150000228881837,21.99999984741211,10.340000228881836,21.87999984741211,9.550000228881835,21.68999984741211C9.540000228881835,21.60999984741211,9.550000228881835,21.54999984741211,9.530000228881836,21.469999847412108C9.090000228881836,20.13999984741211,8.760000228881836,18.78999984741211,8.510000228881836,17.40999984741211C9.670000228881836,17.53999984741211,10.830000228881836,17.62999884741211,12.000000228881836,17.62999884741211C13.170000228881836,17.62999884741211,14.340000228881836,17.53999984741211,15.490000228881836,17.40999984741211Z" fill="#000000" fill-opacity="1"/></g><g><path d="M15.76333,15.76333C13.26224,16.07889,10.73776,16.07889,8.236669,15.76333C7.9211103,13.26224,7.9211103,10.73776,8.236669,8.236669C10.73776,7.9211103,13.26224,7.9211103,15.76333,8.236669C16.07889,10.73776,16.07889,13.26224,15.76333,15.76333Z" fill="#000000" fill-opacity="1"/></g><g style="opacity:0;"><path d="M0,0C0,0,24,0,24,0C24,0,24,24,24,24C24,24,0,24,0,24C0,24,0,0,0,0Z" fill="#000000" fill-opacity="1"/></g><g transform="matrix(-1,0,0,-1,48,48)" style="opacity:0;"><path d="M24,24C24,24,48,24,48,24C48,24,48,48,48,48C48,48,24,48,24,48C24,48,24,24,24,24Z" fill="#000000" fill-opacity="1"/></g></g></g></g></svg>