<svg xmlns="http://www.w3.org/2000/svg" xmlns:xlink="http://www.w3.org/1999/xlink" fill="none" version="1.1" width="24" height="24" viewBox="0 0 24 24"><defs><clipPath id="master_svg0_234_26045"><rect x="0" y="0" width="24" height="24" rx="0"/></clipPath></defs><g clip-path="url(#master_svg0_234_26045)"><g><path d="M17.831,18.6964C18.3483,18.6964,18.7969,19.2971,18.7969,20.0357C18.7969,20.7743,18.3483,21.375,17.831,21.375L6.16828,21.375C5.65172,21.375,5.20312,20.7743,5.20312,20.0357C5.20312,19.3433,5.65172,18.6964,6.16896,18.6964L17.8317,18.6964L17.831,18.6964ZM21.5136,2.625C22.2463,2.625,22.875,3.24442,22.875,3.9676299999999998L22.875,16.014499999999998C22.875,16.771900000000002,22.2816,17.357100000000003,21.5136,17.357100000000003L2.4864100000000002,17.357100000000003C1.753711,17.357100000000003,1.125,16.7377,1.125,16.014499999999998L1.125,3.9676299999999998C1.125,3.24442,1.753711,2.625,2.4864100000000002,2.625L21.5136,2.625ZM17.1146,7.27232C15.4385,7.27232,14.0771,8.64844,14.0771,10.301120000000001C14.0779,11.95392,15.4371,13.2939,17.1146,13.2958C18.7368,13.294,20.0719,12.0381,20.1488,10.44174L20.1522,10.301120000000001L20.1522,10.12902L17.114,10.12902L17.114,7.27165L17.1146,7.27232ZM11.6336,7.51339C11.07223,7.51339,10.64266,7.6942,10.59101,7.94397L10.58625,7.99487L10.58625,12.6757C10.58625,12.9516,11.03484,13.1578,11.633,13.1578C12.1944,13.1578,12.624,12.9763,12.6756,12.7266L12.681,12.6757L12.681,7.99487C12.681,7.71897,12.2325,7.51272,11.6336,7.51272L11.6336,7.51339ZM8.13869,8.51116C7.57931,8.51116,7.15111,8.69196,7.10013,8.94174L7.09469,8.99263L7.09469,12.6757C7.09469,12.9516,7.54193,13.1578,8.13869,13.1578C8.70012,13.1578,9.19561,12.975,9.18949,12.7239L9.18269,12.6757L9.18269,8.99263C9.18269,8.71808,8.73546,8.51049,8.13869,8.51049L8.13869,8.51116ZM4.65122,9.50893C4.0898,9.50893,3.66023,9.6904,3.60926,9.94018L3.60382,9.99107L3.60382,12.6763C3.60382,12.9509,4.05241,13.1578,4.6505399999999995,13.1578C5.21196,13.1578,5.64152,12.9763,5.69318,12.7266L5.69862,12.6757L5.69862,9.99107C5.69862,9.71585,5.25002,9.50893,4.65122,9.50893ZM17.5687,6.96228L17.5687,9.81897L20.6055,9.81897C20.5321,8.21961,19.1937,6.96064,17.5687,6.96228Z" fill="#FFFFFF" fill-opacity="1"/></g></g></svg>