<svg xmlns="http://www.w3.org/2000/svg" xmlns:xlink="http://www.w3.org/1999/xlink" fill="none" version="1.1" width="20" height="20" viewBox="0 0 20 20"><g><g><g><g><g><path d="M13.10833,9.499996626930237L16.475,9.499996626930237Q17.77941,9.499996626930237,18.43137,8.848036626930238Q19.08333,8.196076626930237,19.08333,6.8916666269302365L19.08333,3.524996626930237Q19.08333,2.220588626930237,18.43137,1.5686279269302368Q17.77941,0.9166666269302368,16.475,0.9166666269302368L13.10833,0.9166666269302368Q11.803923,0.9166666269302368,11.1519613,1.5686279269302368Q10.5,2.220589626930237,10.5,3.524996626930237L10.5,6.8916666269302365Q10.5,8.196076626930237,11.1519614,8.848036626930238Q11.803923,9.499996626930237,13.10833,9.499996626930237ZM17.37071,7.787376626930237Q17.15809,7.999996626930237,16.475,7.999996626930237L13.10833,7.999996626930237Q12.42524,7.999996626930237,12.212622,7.787376626930237Q12,7.574756626930236,12,6.8916666269302365L12,3.524996626930237Q12,2.841906626930237,12.212621,2.629288626930237Q12.42524,2.416666626930237,13.10833,2.416666626930237L16.475,2.416666626930237Q17.15809,2.416666626930237,17.37071,2.6292876269302368Q17.58333,2.841906626930237,17.58333,3.524996626930237L17.58333,6.8916666269302365Q17.58333,7.574756626930236,17.37071,7.787376626930237Z" fill-rule="evenodd" fill="#000000" fill-opacity="1"/></g><g><path d="M3.524996626930237,9.491666626930236L6.889386626930237,9.491666626930236Q8.167386626930238,9.499156626930237,8.814766626930236,8.926216626930238Q9.499996626930237,8.319776626930237,9.499996626930237,7.099996626930237L9.499996626930237,3.3166666269302367Q9.499996626930237,0.9166666269302368,6.8916666269302365,0.9166666269302368L3.524996626930237,0.9166666269302368Q0.9166666269302368,0.9166666269302368,0.9166666269302368,3.3166666269302367L0.9166666269302368,7.091666626930237Q0.9166666269302368,9.491666626930236,3.524996626930237,9.491666626930236ZM7.820646626930237,7.802946626930237Q7.602376626930237,7.996116626930236,6.896386626930237,7.991676626930237L6.8916666269302365,7.991666626930237L3.524996626930237,7.991666626930237Q2.8139566269302367,7.991666626930237,2.596015626930237,7.798776626930237Q2.416666626930237,7.640056626930237,2.416666626930237,7.091666626930237L2.416666626930237,3.3166666269302367Q2.416666626930237,2.772026626930237,2.5971096269302367,2.611706626930237Q2.816626626930237,2.416666626930237,3.524996626930237,2.416666626930237L6.8916666269302365,2.416666626930237Q7.600036626930237,2.416666626930237,7.819556626930237,2.611706626930237Q7.999996626930237,2.772026626930237,7.999996626930237,3.3166666269302367L7.999996626930237,7.099996626930237Q7.999996626930237,7.644216626930237,7.820646626930237,7.802946626930237Z" fill-rule="evenodd" fill="#000000" fill-opacity="1"/></g><g><path d="M3.524996626930237,19.08333L6.8916666269302365,19.08333Q8.196076626930237,19.08333,8.848036626930238,18.43137Q9.499996626930237,17.77941,9.499996626930237,16.475L9.499996626930237,13.10833Q9.499996626930237,11.803922,8.848036626930238,11.1519613Q8.196076626930237,10.5,6.8916666269302365,10.5L3.524996626930237,10.5Q2.220589626930237,10.5,1.5686279269302368,11.1519613Q0.9166666269302368,11.803923,0.9166666269302368,13.10833L0.9166666269302368,16.475Q0.9166666269302368,17.77941,1.5686280269302368,18.43137Q2.220589626930237,19.08333,3.524996626930237,19.08333ZM7.787376626930237,17.37071Q7.574756626930236,17.58333,6.8916666269302365,17.58333L3.524996626930237,17.58333Q2.841906626930237,17.58333,2.629288626930237,17.37071Q2.416666626930237,17.15809,2.416666626930237,16.475L2.416666626930237,13.10833Q2.416666626930237,12.42524,2.6292876269302368,12.212622Q2.841906626930237,12,3.524996626930237,12L6.8916666269302365,12Q7.574756626930236,12,7.787376626930237,12.212621Q7.999996626930237,12.42524,7.999996626930237,13.10833L7.999996626930237,16.475Q7.999996626930237,17.15809,7.787376626930237,17.37071Z" fill-rule="evenodd" fill="#000000" fill-opacity="1"/></g><g><path d="M12.5,13.666666030883789L17.5,13.666666030883789Q17.57387,13.666666030883789,17.64632,13.65225503088379Q17.71877,13.63784403088379,17.787010000000002,13.609576030883789Q17.85526,13.581307030883789,17.91668,13.540268030883789Q17.9781,13.49922903088379,18.03033,13.446996030883788Q18.08256,13.394763030883789,18.1236,13.333344030883788Q18.16464,13.271924030883788,18.19291,13.203679030883789Q18.22118,13.135433030883789,18.235590000000002,13.06298403088379Q18.25,12.990534530883789,18.25,12.916666030883789Q18.25,12.84279753088379,18.235590000000002,12.770348030883788Q18.22118,12.69789903088379,18.19291,12.629653030883789Q18.16464,12.56140803088379,18.1236,12.49998803088379Q18.08256,12.438569030883789,18.03033,12.38633603088379Q17.9781,12.334103030883789,17.91668,12.293064030883789Q17.85526,12.25202503088379,17.787010000000002,12.22375603088379Q17.71877,12.195488030883789,17.64632,12.181077030883788Q17.57387,12.166666030883789,17.5,12.166666030883789L12.5,12.166666030883789Q12.4261315,12.166666030883789,12.353682,12.181077030883788Q12.281233,12.195488030883789,12.212987,12.22375603088379Q12.144742,12.25202503088379,12.083322,12.293064030883789Q12.021903,12.334103030883789,11.96967,12.38633603088379Q11.917437,12.438569030883789,11.876398,12.49998803088379Q11.835359,12.56140803088379,11.80709,12.629653030883789Q11.778822,12.69789903088379,11.764410999999999,12.770348030883788Q11.75,12.84279753088379,11.75,12.916666030883789Q11.75,12.990534530883789,11.764410999999999,13.06298403088379Q11.778822,13.135433030883789,11.80709,13.203679030883789Q11.835359,13.271924030883788,11.876398,13.333344030883788Q11.917437,13.394763030883789,11.96967,13.446996030883788Q12.021903,13.49922903088379,12.083322,13.540268030883789Q12.144742,13.581307030883789,12.212987,13.609576030883789Q12.281233,13.63784403088379,12.353682,13.65225503088379Q12.4261315,13.666666030883789,12.5,13.666666030883789Z" fill-rule="evenodd" fill="#000000" fill-opacity="1"/></g><g><path d="M12.5,17L17.5,17Q17.57387,17,17.64632,16.985589Q17.71877,16.971178,17.787010000000002,16.94291Q17.85526,16.914641,17.91668,16.873601999999998Q17.9781,16.832563,18.03033,16.78033Q18.08256,16.728096999999998,18.1236,16.666678Q18.16464,16.605258,18.19291,16.537013Q18.22118,16.468767,18.235590000000002,16.396318Q18.25,16.3238685,18.25,16.25Q18.25,16.1761315,18.235590000000002,16.103682Q18.22118,16.031233,18.19291,15.962987Q18.16464,15.894742,18.1236,15.833322Q18.08256,15.771903,18.03033,15.71967Q17.9781,15.667437,17.91668,15.626398Q17.85526,15.585359,17.787010000000002,15.55709Q17.71877,15.528822,17.64632,15.514410999999999Q17.57387,15.5,17.5,15.5L12.5,15.5Q12.4261315,15.5,12.353682,15.514410999999999Q12.281233,15.528822,12.212987,15.55709Q12.144742,15.585359,12.083322,15.626398Q12.021903,15.667437,11.96967,15.71967Q11.917437,15.771903,11.876398,15.833322Q11.835359,15.894742,11.80709,15.962987Q11.778822,16.031233,11.764410999999999,16.103682Q11.75,16.1761315,11.75,16.25Q11.75,16.3238685,11.764410999999999,16.396318Q11.778822,16.468767,11.80709,16.537013Q11.835359,16.605258,11.876398,16.666678Q11.917437,16.728096999999998,11.96967,16.78033Q12.021903,16.832563,12.083322,16.873601999999998Q12.144742,16.914641,12.212987,16.94291Q12.281233,16.971178,12.353682,16.985589Q12.4261315,17,12.5,17Z" fill-rule="evenodd" fill="#000000" fill-opacity="1"/></g><g style="opacity:0;"><path d="M0,20L0,0L20,0L20,20L0,20ZM1,19L1,1L19,1L19,19L1,19Z" fill-rule="evenodd" fill="#000000" fill-opacity="1"/></g></g></g></g></g></svg>