<svg xmlns="http://www.w3.org/2000/svg" xmlns:xlink="http://www.w3.org/1999/xlink" fill="none" version="1.1" width="20" height="20" viewBox="0 0 20 20"><g><g><g><g><g><g><g><path d="M13.10833,9.499996626930237L16.475,9.499996626930237Q17.77941,9.499996626930237,18.43137,8.848036626930238Q19.08333,8.196076626930237,19.08333,6.8916666269302365L19.08333,3.524996626930237Q19.08333,2.220588626930237,18.43137,1.5686279269302368Q17.77941,0.9166666269302368,16.475,0.9166666269302368L13.10833,0.9166666269302368Q11.803923,0.9166666269302368,11.1519613,1.5686279269302368Q10.5,2.220589626930237,10.5,3.524996626930237L10.5,6.8916666269302365Q10.5,8.196076626930237,11.1519614,8.848036626930238Q11.803923,9.499996626930237,13.10833,9.499996626930237ZM17.37071,7.787376626930237Q17.15809,7.999996626930237,16.475,7.999996626930237L13.10833,7.999996626930237Q12.42524,7.999996626930237,12.212622,7.787376626930237Q12,7.574756626930236,12,6.8916666269302365L12,3.524996626930237Q12,2.841906626930237,12.212621,2.629288626930237Q12.42524,2.416666626930237,13.10833,2.416666626930237L16.475,2.416666626930237Q17.15809,2.416666626930237,17.37071,2.6292876269302368Q17.58333,2.841906626930237,17.58333,3.524996626930237L17.58333,6.8916666269302365Q17.58333,7.574756626930236,17.37071,7.787376626930237Z" fill-rule="evenodd" fill="#000000" fill-opacity="1"/></g><g><path d="M3.524996626930237,9.491666626930236L6.889386626930237,9.491666626930236Q8.167386626930238,9.499156626930237,8.814766626930236,8.926216626930238Q9.499996626930237,8.319776626930237,9.499996626930237,7.099996626930237L9.499996626930237,3.3166666269302367Q9.499996626930237,0.9166666269302368,6.8916666269302365,0.9166666269302368L3.524996626930237,0.9166666269302368Q0.9166666269302368,0.9166666269302368,0.9166666269302368,3.3166666269302367L0.9166666269302368,7.091666626930237Q0.9166666269302368,9.491666626930236,3.524996626930237,9.491666626930236ZM7.820646626930237,7.802946626930237Q7.602376626930237,7.996116626930236,6.896386626930237,7.991676626930237L6.8916666269302365,7.991666626930237L3.524996626930237,7.991666626930237Q2.8139566269302367,7.991666626930237,2.596015626930237,7.798776626930237Q2.416666626930237,7.640056626930237,2.416666626930237,7.091666626930237L2.416666626930237,3.3166666269302367Q2.416666626930237,2.772026626930237,2.5971096269302367,2.611706626930237Q2.816626626930237,2.416666626930237,3.524996626930237,2.416666626930237L6.8916666269302365,2.416666626930237Q7.600036626930237,2.416666626930237,7.819556626930237,2.611706626930237Q7.999996626930237,2.772026626930237,7.999996626930237,3.3166666269302367L7.999996626930237,7.099996626930237Q7.999996626930237,7.644216626930237,7.820646626930237,7.802946626930237Z" fill-rule="evenodd" fill="#000000" fill-opacity="1"/></g><g><path d="M3.524996626930237,19.08333L6.8916666269302365,19.08333Q8.196076626930237,19.08333,8.848036626930238,18.43137Q9.499996626930237,17.77941,9.499996626930237,16.475L9.499996626930237,13.10833Q9.499996626930237,11.803922,8.848036626930238,11.1519613Q8.196076626930237,10.5,6.8916666269302365,10.5L3.524996626930237,10.5Q2.220589626930237,10.5,1.5686279269302368,11.1519613Q0.9166666269302368,11.803923,0.9166666269302368,13.10833L0.9166666269302368,16.475Q0.9166666269302368,17.77941,1.5686280269302368,18.43137Q2.220589626930237,19.08333,3.524996626930237,19.08333ZM7.787376626930237,17.37071Q7.574756626930236,17.58333,6.8916666269302365,17.58333L3.524996626930237,17.58333Q2.841906626930237,17.58333,2.629288626930237,17.37071Q2.416666626930237,17.15809,2.416666626930237,16.475L2.416666626930237,13.10833Q2.416666626930237,12.42524,2.6292876269302368,12.212622Q2.841906626930237,12,3.524996626930237,12L6.8916666269302365,12Q7.574756626930236,12,7.787376626930237,12.212621Q7.999996626930237,12.42524,7.999996626930237,13.10833L7.999996626930237,16.475Q7.999996626930237,17.15809,7.787376626930237,17.37071Z" fill-rule="evenodd" fill="#000000" fill-opacity="1"/></g><g style="opacity:0;"><path d="M0,20L0,0L20,0L20,20L0,20ZM1,19L1,1L19,1L19,19L1,19Z" fill-rule="evenodd" fill="#000000" fill-opacity="1"/></g></g></g></g></g><g><g><path d="M15.16681375,10.89013671875L11.37109375,15.784346718750001L11.37109375,16.99158671875L15.12331375,16.99158671875L15.12331375,18.65561671875L16.33054375,18.65561671875L16.33054375,16.99158671875L17.48340375,16.99158671875L17.48340375,15.98011671875L16.33054375,15.98011671875L16.33054375,10.89013671875L15.16681375,10.89013671875ZM15.09068375,12.49978671875L15.12331375,12.49978671875L15.12331375,15.98011671875L12.40431375,15.98011671875L15.09068375,12.49978671875Z" fill="#000000" fill-opacity="1"/><path d="M16.48054375,15.83011671875L16.48054375,10.74013671875L15.09332375,10.74013671875L11.22109375,15.73299671875L11.22109375,17.14158671875L14.973313749999999,17.14158671875L14.973313749999999,18.80561671875L16.48054375,18.80561671875L16.48054375,17.14158671875L17.63340375,17.14158671875L17.63340375,15.83011671875L16.48054375,15.83011671875ZM16.18054375,11.04013671875L16.18054375,16.13011671875L17.333403750000002,16.13011671875L17.333403750000002,16.84158671875L16.18054375,16.84158671875L16.18054375,18.505616718749998L15.27331375,18.505616718749998L15.27331375,16.84158671875L11.52109375,16.84158671875L11.52109375,15.83569671875L15.240303749999999,11.04013671875L16.18054375,11.04013671875ZM15.01698375,12.34978671875L12.28557175,15.88845671875L12.09904575,16.13011671875L15.27331375,16.13011671875L15.27331375,12.34978671875L15.01698375,12.34978671875ZM12.70958375,15.83011671875L14.973313749999999,12.897336718750001L14.973313749999999,15.83011671875L12.70958375,15.83011671875Z" fill-rule="evenodd" fill="#000000" fill-opacity="1"/></g></g></g></g></svg>