<svg xmlns="http://www.w3.org/2000/svg" xmlns:xlink="http://www.w3.org/1999/xlink" fill="none" version="1.1" width="20" height="20" viewBox="0 0 20 20"><g><g><g><g><path d="M5.416666626930237,2.416666626930237L7.499996626930237,2.416666626930237Q7.573866626930236,2.416666626930237,7.646316626930237,2.402255626930237Q7.718766626930237,2.387844626930237,7.7870066269302365,2.3595766269302367Q7.855256626930236,2.331307626930237,7.916676626930236,2.290268626930237Q7.9780966269302365,2.2492296269302368,8.030326626930236,2.196996626930237Q8.082566626930237,2.144763626930237,8.123596626930237,2.083344626930237Q8.164636626930236,2.021924626930237,8.192906626930236,1.9536796269302368Q8.221176626930237,1.8854336269302368,8.235586626930237,1.8129846269302368Q8.249996626930237,1.740535126930237,8.249996626930237,1.6666666269302368Q8.249996626930237,1.5927981269302367,8.235586626930237,1.5203486269302369Q8.221176626930237,1.4478996269302369,8.192906626930236,1.3796536269302369Q8.164636626930236,1.3114086269302367,8.123596626930237,1.2499886269302367Q8.082566626930237,1.1885696269302368,8.030326626930236,1.1363366269302368Q7.9780966269302365,1.0841036269302369,7.916676626930236,1.0430646269302368Q7.855256626930236,1.0020256269302368,7.7870066269302365,0.9737566269302368Q7.718766626930237,0.9454886269302368,7.646316626930237,0.9310776269302368Q7.573866626930236,0.9166666269302368,7.499996626930237,0.9166666269302368L5.416666626930237,0.9166666269302368Q3.549756626930237,0.9166666269302368,2.233211626930237,2.233211626930237Q0.9166666269302368,3.549756626930237,0.9166666269302368,5.416666626930237L0.9166666269302368,7.499996626930237Q0.9166666269302368,7.573866626930236,0.9310776269302368,7.646316626930237Q0.9454886269302368,7.718766626930237,0.9737566269302368,7.7870066269302365Q1.0020256269302368,7.855256626930236,1.0430646269302368,7.916676626930236Q1.0841036269302369,7.9780966269302365,1.1363366269302368,8.030326626930236Q1.1885696269302368,8.082566626930237,1.2499886269302367,8.123596626930237Q1.3114086269302367,8.164636626930236,1.3796536269302369,8.192906626930236Q1.4478996269302369,8.221176626930237,1.5203486269302369,8.235586626930237Q1.5927981269302367,8.249996626930237,1.6666666269302368,8.249996626930237Q1.740535126930237,8.249996626930237,1.8129846269302368,8.235586626930237Q1.8854336269302368,8.221176626930237,1.9536796269302368,8.192906626930236Q2.021924626930237,8.164636626930236,2.083344626930237,8.123596626930237Q2.144763626930237,8.082566626930237,2.196996626930237,8.030326626930236Q2.2492296269302368,7.9780966269302365,2.290268626930237,7.916676626930236Q2.331307626930237,7.855256626930236,2.3595766269302367,7.7870066269302365Q2.387844626930237,7.718766626930237,2.402255626930237,7.646316626930237Q2.416666626930237,7.573866626930236,2.416666626930237,7.499996626930237L2.416666626930237,5.416666626930237Q2.416666626930237,4.171076626930237,3.293866626930237,3.2938766269302366Q4.171076626930237,2.416666626930237,5.416666626930237,2.416666626930237Z" fill-rule="evenodd" fill="#000000" fill-opacity="1"/></g><g><path d="M17.58333,5.416666626930237L17.58333,7.499996626930237Q17.58333,7.573866626930236,17.59774,7.646316626930237Q17.61215,7.718766626930237,17.64042,7.7870066269302365Q17.668689999999998,7.855256626930236,17.70973,7.916676626930236Q17.75077,7.9780966269302365,17.803,8.030326626930236Q17.855240000000002,8.082566626930237,17.91666,8.123596626930237Q17.97807,8.164636626930236,18.04632,8.192906626930236Q18.11457,8.221176626930237,18.18701,8.235586626930237Q18.25946,8.249996626930237,18.33333,8.249996626930237Q18.4072,8.249996626930237,18.47965,8.235586626930237Q18.5521,8.221176626930237,18.62034,8.192906626930236Q18.688589999999998,8.164636626930236,18.75001,8.123596626930237Q18.81143,8.082566626930237,18.86366,8.030326626930236Q18.9159,7.9780966269302365,18.95693,7.916676626930236Q18.99797,7.855256626930236,19.02624,7.7870066269302365Q19.05451,7.718766626930237,19.06892,7.646316626930237Q19.08333,7.573866626930236,19.08333,7.499996626930237L19.08333,5.416666626930237Q19.08333,3.549756626930237,17.76679,2.233211626930237Q16.45024,0.9166666269302368,14.58333,0.9166666269302368L12.5,0.9166666269302368Q12.4261315,0.9166666269302368,12.353682,0.9310776269302368Q12.281233,0.9454886269302368,12.212987,0.9737566269302368Q12.144742,1.0020256269302368,12.083322,1.0430646269302368Q12.021903,1.0841036269302369,11.96967,1.1363366269302368Q11.917437,1.1885696269302368,11.876398,1.2499886269302367Q11.835359,1.3114086269302367,11.80709,1.3796536269302369Q11.778822,1.4478996269302369,11.764410999999999,1.5203486269302369Q11.75,1.5927981269302367,11.75,1.6666666269302368Q11.75,1.740535126930237,11.764410999999999,1.8129846269302368Q11.778822,1.8854336269302368,11.80709,1.9536796269302368Q11.835359,2.021924626930237,11.876398,2.083344626930237Q11.917437,2.144763626930237,11.96967,2.196996626930237Q12.021903,2.2492296269302368,12.083322,2.290268626930237Q12.144742,2.331307626930237,12.212987,2.3595766269302367Q12.281233,2.387844626930237,12.353682,2.402255626930237Q12.4261315,2.416666626930237,12.5,2.416666626930237L14.58333,2.416666626930237Q15.82892,2.416666626930237,16.70613,3.293866626930237Q17.58333,4.171076626930237,17.58333,5.416666626930237Z" fill-rule="evenodd" fill="#000000" fill-opacity="1"/></g><g><path d="M14.583333015441895,17.583333015441895L13.333333015441895,17.583333015441895Q13.259464515441895,17.583333015441895,13.187015015441894,17.597743015441893Q13.114566015441895,17.612153015441894,13.046320015441895,17.640423015441893Q12.978075015441895,17.668693015441896,12.916655015441895,17.709733015441895Q12.855236015441895,17.750773015441894,12.803003015441895,17.803003015441895Q12.750770015441894,17.855233015441893,12.709731015441895,17.916653015441895Q12.668692015441895,17.978073015441893,12.640423015441895,18.046323015441892Q12.612155015441894,18.114563015441895,12.597744015441894,18.187013015441895Q12.583333015441895,18.259463015441895,12.583333015441895,18.333333015441895Q12.583333015441895,18.407203015441894,12.597744015441894,18.479653015441894Q12.612155015441894,18.552103015441894,12.640423015441895,18.620343015441897Q12.668692015441895,18.688593015441896,12.709731015441895,18.750013015441894Q12.750770015441894,18.811433015441896,12.803003015441895,18.863663015441894Q12.855236015441895,18.915893015441895,12.916655015441895,18.956933015441894Q12.978075015441895,18.997973015441893,13.046320015441895,19.026243015441896Q13.114566015441895,19.054513015441895,13.187015015441894,19.068923015441896Q13.259464515441895,19.083333015441895,13.333333015441895,19.083333015441895L14.583333015441895,19.083333015441895Q16.450243015441895,19.083333015441895,17.766793015441895,17.766783015441895Q19.083333015441895,16.450243015441895,19.083333015441895,14.583333015441895L19.083333015441895,13.333333015441895Q19.083333015441895,13.259464515441895,19.068923015441896,13.187015015441894Q19.054513015441895,13.114566015441895,19.026243015441896,13.046320015441895Q18.997973015441893,12.978075015441895,18.956933015441894,12.916655015441895Q18.915893015441895,12.855236015441895,18.863663015441894,12.803003015441895Q18.811433015441896,12.750770015441894,18.750013015441894,12.709731015441895Q18.688593015441896,12.668692015441895,18.620343015441897,12.640423015441895Q18.552103015441894,12.612155015441894,18.479653015441894,12.597744015441894Q18.407203015441894,12.583333015441895,18.333333015441895,12.583333015441895Q18.259463015441895,12.583333015441895,18.187013015441895,12.597744015441894Q18.114563015441895,12.612155015441894,18.046323015441892,12.640423015441895Q17.978073015441893,12.668692015441895,17.916653015441895,12.709731015441895Q17.855233015441893,12.750770015441894,17.803003015441895,12.803003015441895Q17.750773015441894,12.855236015441895,17.709733015441895,12.916655015441895Q17.668693015441896,12.978075015441895,17.640423015441893,13.046320015441895Q17.612153015441894,13.114566015441895,17.597743015441893,13.187015015441894Q17.583333015441895,13.259464515441895,17.583333015441895,13.333333015441895L17.583333015441895,14.583333015441895Q17.583333015441895,15.828923015441895,16.706133015441893,16.706123015441896Q15.828923015441895,17.583333015441895,14.583333015441895,17.583333015441895Z" fill-rule="evenodd" fill="#000000" fill-opacity="1"/></g><g><path d="M2.416666626930237,14.58333L2.416666626930237,12.5Q2.416666626930237,12.4261315,2.402255626930237,12.353682Q2.387844626930237,12.281233,2.3595766269302367,12.212987Q2.331307626930237,12.144742,2.290268626930237,12.083322Q2.2492296269302368,12.021903,2.196996626930237,11.96967Q2.144763626930237,11.917437,2.083344626930237,11.876398Q2.021924626930237,11.835359,1.9536796269302368,11.80709Q1.8854336269302368,11.778822,1.8129846269302368,11.764410999999999Q1.740535126930237,11.75,1.6666666269302368,11.75Q1.5927981269302367,11.75,1.5203486269302369,11.764410999999999Q1.4478996269302369,11.778822,1.3796536269302369,11.80709Q1.3114086269302367,11.835359,1.2499886269302367,11.876398Q1.1885696269302368,11.917437,1.1363366269302368,11.96967Q1.0841036269302369,12.021903,1.0430646269302368,12.083322Q1.0020256269302368,12.144742,0.9737566269302368,12.212987Q0.9454886269302368,12.281233,0.9310776269302368,12.353682Q0.9166666269302368,12.4261315,0.9166666269302368,12.5L0.9166666269302368,14.58333Q0.9166666269302368,16.45024,2.233211626930237,17.76679Q3.549756626930237,19.08333,5.416666626930237,19.08333L7.499996626930237,19.08333Q7.573866626930236,19.08333,7.646316626930237,19.06892Q7.718766626930237,19.05451,7.7870066269302365,19.02624Q7.855256626930236,18.99797,7.916676626930236,18.95693Q7.9780966269302365,18.9159,8.030326626930236,18.86366Q8.082566626930237,18.81143,8.123596626930237,18.75001Q8.164636626930236,18.688589999999998,8.192906626930236,18.62034Q8.221176626930237,18.5521,8.235586626930237,18.47965Q8.249996626930237,18.4072,8.249996626930237,18.33333Q8.249996626930237,18.25946,8.235586626930237,18.18702Q8.221176626930237,18.11457,8.192906626930236,18.04632Q8.164636626930236,17.97807,8.123596626930237,17.91666Q8.082566626930237,17.855240000000002,8.030326626930236,17.803Q7.9780966269302365,17.75077,7.916676626930236,17.70973Q7.855256626930236,17.668689999999998,7.7870066269302365,17.64042Q7.718766626930237,17.61215,7.646316626930237,17.59774Q7.573866626930236,17.58333,7.499996626930237,17.58333L5.416666626930237,17.58333Q4.171076626930237,17.58333,3.2938766269302366,16.70613Q2.416666626930237,15.82892,2.416666626930237,14.58333Z" fill-rule="evenodd" fill="#000000" fill-opacity="1"/></g><g style="opacity:0;"></g></g><g><path d="M8.31664298828125,14.706376875L11.68331298828125,14.706376875Q12.98772298828125,14.706376875,13.639682988281251,14.054416875000001Q14.29164298828125,13.402456875,14.29164298828125,12.098046875L14.29164298828125,8.731376875Q14.29164298828125,7.426968875,13.639682988281251,6.775008175Q12.98772298828125,6.123046875,11.68331298828125,6.123046875L8.31664298828125,6.123046875Q7.01223598828125,6.123046875,6.36027428828125,6.775008175Q5.70831298828125,7.426969875,5.70831298828125,8.731376875L5.70831298828125,12.098046875Q5.70831298828125,13.402456875,6.36027438828125,14.054416875000001Q7.01223598828125,14.706376875,8.31664298828125,14.706376875ZM12.579022988281249,12.993756874999999Q12.36640298828125,13.206376875,11.68331298828125,13.206376875L8.31664298828125,13.206376875Q7.6335529882812505,13.206376875,7.42093498828125,12.993756874999999Q7.20831298828125,12.781136875,7.20831298828125,12.098046875L7.20831298828125,8.731376875Q7.20831298828125,8.048286875,7.42093398828125,7.835668875Q7.6335529882812505,7.623046875,8.31664298828125,7.623046875L11.68331298828125,7.623046875Q12.36640298828125,7.623046875,12.579022988281249,7.835667875Q12.79164298828125,8.048286875,12.79164298828125,8.731376875L12.79164298828125,12.098046875Q12.79164298828125,12.781136875,12.579022988281249,12.993756874999999Z" fill-rule="evenodd" fill="#000000" fill-opacity="1"/></g></g></g></svg>