<svg xmlns="http://www.w3.org/2000/svg" xmlns:xlink="http://www.w3.org/1999/xlink" fill="none" version="1.1" width="20" height="20" viewBox="0 0 20 20"><g><g><g><g><g><path d="M13.10833,9.499996626930237L16.475,9.499996626930237Q17.77941,9.499996626930237,18.43137,8.848036626930238Q19.08333,8.196076626930237,19.08333,6.8916666269302365L19.08333,3.524996626930237Q19.08333,2.220588626930237,18.43137,1.5686279269302368Q17.77941,0.9166666269302368,16.475,0.9166666269302368L13.10833,0.9166666269302368Q11.803923,0.9166666269302368,11.1519613,1.5686279269302368Q10.5,2.220589626930237,10.5,3.524996626930237L10.5,6.8916666269302365Q10.5,8.196076626930237,11.1519614,8.848036626930238Q11.803923,9.499996626930237,13.10833,9.499996626930237ZM17.37071,7.787376626930237Q17.15809,7.999996626930237,16.475,7.999996626930237L13.10833,7.999996626930237Q12.42524,7.999996626930237,12.212622,7.787376626930237Q12,7.574756626930236,12,6.8916666269302365L12,3.524996626930237Q12,2.841906626930237,12.212621,2.629288626930237Q12.42524,2.416666626930237,13.10833,2.416666626930237L16.475,2.416666626930237Q17.15809,2.416666626930237,17.37071,2.6292876269302368Q17.58333,2.841906626930237,17.58333,3.524996626930237L17.58333,6.8916666269302365Q17.58333,7.574756626930236,17.37071,7.787376626930237Z" fill-rule="evenodd" fill="#000000" fill-opacity="1"/></g><g><path d="M3.524996626930237,9.491666626930236L6.889386626930237,9.491666626930236Q8.167386626930238,9.499156626930237,8.814766626930236,8.926216626930238Q9.499996626930237,8.319776626930237,9.499996626930237,7.099996626930237L9.499996626930237,3.3166666269302367Q9.499996626930237,0.9166666269302368,6.8916666269302365,0.9166666269302368L3.524996626930237,0.9166666269302368Q0.9166666269302368,0.9166666269302368,0.9166666269302368,3.3166666269302367L0.9166666269302368,7.091666626930237Q0.9166666269302368,9.491666626930236,3.524996626930237,9.491666626930236ZM7.820646626930237,7.802946626930237Q7.602376626930237,7.996116626930236,6.896386626930237,7.991676626930237L6.8916666269302365,7.991666626930237L3.524996626930237,7.991666626930237Q2.8139566269302367,7.991666626930237,2.596015626930237,7.798776626930237Q2.416666626930237,7.640056626930237,2.416666626930237,7.091666626930237L2.416666626930237,3.3166666269302367Q2.416666626930237,2.772026626930237,2.5971096269302367,2.611706626930237Q2.816626626930237,2.416666626930237,3.524996626930237,2.416666626930237L6.8916666269302365,2.416666626930237Q7.600036626930237,2.416666626930237,7.819556626930237,2.611706626930237Q7.999996626930237,2.772026626930237,7.999996626930237,3.3166666269302367L7.999996626930237,7.099996626930237Q7.999996626930237,7.644216626930237,7.820646626930237,7.802946626930237Z" fill-rule="evenodd" fill="#000000" fill-opacity="1"/></g><g><path d="M3.524996626930237,19.08333L6.8916666269302365,19.08333Q8.196076626930237,19.08333,8.848036626930238,18.43137Q9.499996626930237,17.77941,9.499996626930237,16.475L9.499996626930237,13.10833Q9.499996626930237,11.803922,8.848036626930238,11.1519613Q8.196076626930237,10.5,6.8916666269302365,10.5L3.524996626930237,10.5Q2.220589626930237,10.5,1.5686279269302368,11.1519613Q0.9166666269302368,11.803923,0.9166666269302368,13.10833L0.9166666269302368,16.475Q0.9166666269302368,17.77941,1.5686280269302368,18.43137Q2.220589626930237,19.08333,3.524996626930237,19.08333ZM7.787376626930237,17.37071Q7.574756626930236,17.58333,6.8916666269302365,17.58333L3.524996626930237,17.58333Q2.841906626930237,17.58333,2.629288626930237,17.37071Q2.416666626930237,17.15809,2.416666626930237,16.475L2.416666626930237,13.10833Q2.416666626930237,12.42524,2.6292876269302368,12.212622Q2.841906626930237,12,3.524996626930237,12L6.8916666269302365,12Q7.574756626930236,12,7.787376626930237,12.212621Q7.999996626930237,12.42524,7.999996626930237,13.10833L7.999996626930237,16.475Q7.999996626930237,17.15809,7.787376626930237,17.37071Z" fill-rule="evenodd" fill="#000000" fill-opacity="1"/></g><g style="opacity:0;"><path d="M0,20L0,0L20,0L20,20L0,20ZM1,19L1,1L19,1L19,19L1,19Z" fill-rule="evenodd" fill="#000000" fill-opacity="1"/></g></g></g><g><path d="M14.957941015625,10.4150390625C14.058761015625,10.4150390625,13.309431015625,10.6839500625,12.709978015625,11.2334630625C12.110520015625,11.7712890625,11.810791015625,12.4610990625,11.810791015625,13.3029090625C11.810791015625,14.1213290625,12.060565015625,14.787759062500001,12.585091015625,15.3021990625C13.109621015625,15.8400190625,13.821471015625,16.1089290625,14.695681015625,16.1089290625C15.145271015625,16.1089290625,15.544911015625,16.0270890625,15.894601015625,15.8750990625C16.256771015625,15.7114090625,16.568991015625002,15.4541890625,16.831251015625,15.1151290625L16.893691015625002,15.1151290625L16.893691015625002,15.2203590625C16.893691015625002,15.9920090625,16.718851015625,16.635059062499998,16.381661015625,17.1494990625C16.019481015625,17.687319062500002,15.544911015625,17.967919062500002,14.957941015625,17.967919062500002C14.096221015625,17.967919062500002,13.584191015625,17.5820890625,13.409341015625,16.810439062500002L11.985633015625,16.810439062500002C12.197941015625,18.3303690625,13.184551015625,19.0903290625,14.945461015625,19.0903290625C15.969531015625,19.0903290625,16.793781015625,18.6694290625,17.405731015625,17.8276190625C18.005191015625,16.9858090625,18.317411015624998,15.8750990625,18.317411015624998,14.5188490625C18.317411015624998,13.2327590625,18.030161015624998,12.2389590625,17.455681015625,11.514069062499999C16.881201015625,10.7774830625,16.044461015625,10.4150390625,14.957941015625,10.4150390625ZM15.007901015625,11.5491390625C15.507451015625,11.5491390625,15.932061015624999,11.7011290625,16.256771015625,12.0051190625C16.581481015625002,12.3091090625,16.743831015625,12.7183190625,16.743831015625,13.2561390625C16.743831015625,13.7939590625,16.581481015625002,14.2148590625,16.281751015624998,14.5305390625C15.969531015625,14.8345290625,15.544911015625,14.998209062499999,15.007901015625,14.998209062499999C14.458401015625,14.998209062499999,14.033781015625,14.8345290625,13.734051015624999,14.5305390625C13.409341015625,14.2265590625,13.259481015625,13.8173390625,13.259481015625,13.3029090625C13.259481015625,12.788469062499999,13.409341015625,12.3675690625,13.734051015624999,12.0401990625C14.058761015625,11.712829062499999,14.483371015625,11.5491390625,15.007901015625,11.5491390625Z" fill="#000000" fill-opacity="1"/></g></g></g></svg>