<svg xmlns="http://www.w3.org/2000/svg" xmlns:xlink="http://www.w3.org/1999/xlink" fill="none" version="1.1" width="20" height="20" viewBox="0 0 20 20"><g><g><rect x="0" y="0" width="20" height="20" rx="0" fill="#FFFFFF" fill-opacity="0"/></g><g><path d="M2.5,14L2.5,6Q2.5,4.55025,3.525126,3.525126Q4.55025,2.5,6,2.5L14,2.5Q15.4497,2.5,16.474899999999998,3.525126Q17.5,4.55025,17.5,6L17.5,14Q17.5,15.4497,16.474899999999998,16.474899999999998Q15.4497,17.5,14,17.5L6,17.5Q4.55025,17.5,3.525126,16.474899999999998Q2.5,15.4497,2.5,14ZM3.5,14Q3.5,15.0355,4.2322299999999995,15.7678Q4.96447,16.5,6,16.5L14,16.5Q15.0355,16.5,15.7678,15.7678Q16.5,15.0355,16.5,14L16.5,6Q16.5,4.96447,15.7678,4.2322299999999995Q15.0355,3.5,14,3.5L6,3.5Q4.96447,3.5,4.2322299999999995,4.2322299999999995Q3.5,4.96447,3.5,6L3.5,14Z" fill="#000000" fill-opacity="1"/></g><g><path d="M5.222222328186035,8.833332328186035L5.222222328186035,5.722222328186035Q5.222222328186035,5.672976628186035,5.231829328186035,5.6246772281860355Q5.241437328186035,5.576377328186036,5.260282328186035,5.5308803281860355Q5.279128328186035,5.485383328186035,5.306487328186035,5.444437328186035Q5.333847328186035,5.4034913281860355,5.368669328186035,5.368669328186035Q5.4034913281860355,5.333847328186035,5.444437328186035,5.306487328186035Q5.485383328186035,5.279128328186035,5.5308803281860355,5.260282328186035Q5.576377328186036,5.241437328186035,5.6246772281860355,5.231829328186035Q5.672976628186035,5.222222328186035,5.722222328186035,5.222222328186035L8.833332328186035,5.222222328186035Q8.882582328186036,5.222222328186035,8.930882328186035,5.231829328186035Q8.979182328186035,5.241437328186035,9.024672328186035,5.260282328186035Q9.070172328186036,5.279128328186035,9.111122328186035,5.306487328186035Q9.152062328186036,5.333847328186035,9.186882328186035,5.368669328186035Q9.221712328186035,5.4034913281860355,9.249072328186035,5.444437328186035Q9.276422328186035,5.485383328186035,9.295272328186035,5.5308803281860355Q9.314122328186034,5.576377328186036,9.323722328186035,5.6246772281860355Q9.333332328186035,5.672976628186035,9.333332328186035,5.722222328186035L9.333332328186035,8.833332328186035Q9.333332328186035,8.882582328186036,9.323722328186035,8.930882328186035Q9.314122328186034,8.979182328186035,9.295272328186035,9.024672328186035Q9.276422328186035,9.070172328186036,9.249072328186035,9.111122328186035Q9.221712328186035,9.152062328186036,9.186882328186035,9.186882328186035Q9.152062328186036,9.221712328186035,9.111122328186035,9.249072328186035Q9.070172328186036,9.276422328186035,9.024672328186035,9.295272328186035Q8.979182328186035,9.314122328186034,8.930882328186035,9.323722328186035Q8.882582328186036,9.333332328186035,8.833332328186035,9.333332328186035L5.722222328186035,9.333332328186035Q5.672976628186035,9.333332328186035,5.6246772281860355,9.323722328186035Q5.576377328186036,9.314122328186034,5.5308803281860355,9.295272328186035Q5.485383328186035,9.276422328186035,5.444437328186035,9.249072328186035Q5.4034913281860355,9.221712328186035,5.368669328186035,9.186882328186035Q5.333847328186035,9.152062328186036,5.306487328186035,9.111122328186035Q5.279128328186035,9.070172328186036,5.260282328186035,9.024672328186035Q5.241437328186035,8.979182328186035,5.231829328186035,8.930882328186035Q5.222222328186035,8.882582328186036,5.222222328186035,8.833332328186035ZM6.222222328186035,6.222222328186035L6.222222328186035,8.333332328186035L8.333332328186035,8.333332328186035L8.333332328186035,6.222222328186035L6.222222328186035,6.222222328186035Z" fill="#000000" fill-opacity="1"/></g><g><path d="M10.666666984558105,8.833332328186035L10.666666984558105,5.722222328186035Q10.666666984558105,5.672976628186035,10.676273984558106,5.6246772281860355Q10.685881984558105,5.576377328186036,10.704726984558105,5.5308803281860355Q10.723572984558105,5.485383328186035,10.750931984558106,5.444437328186035Q10.778291984558106,5.4034913281860355,10.813113984558106,5.368669328186035Q10.847935984558106,5.333847328186035,10.888881984558106,5.306487328186035Q10.929827984558106,5.279128328186035,10.975324984558105,5.260282328186035Q11.020821984558106,5.241437328186035,11.069121884558106,5.231829328186035Q11.117421284558105,5.222222328186035,11.166666984558105,5.222222328186035L14.277776984558106,5.222222328186035Q14.327026984558106,5.222222328186035,14.375326984558106,5.231829328186035Q14.423626984558105,5.241437328186035,14.469116984558106,5.260282328186035Q14.514616984558106,5.279128328186035,14.555566984558105,5.306487328186035Q14.596506984558106,5.333847328186035,14.631326984558106,5.368669328186035Q14.666156984558105,5.4034913281860355,14.693516984558105,5.444437328186035Q14.720866984558105,5.485383328186035,14.739716984558106,5.5308803281860355Q14.758566984558104,5.576377328186036,14.768166984558105,5.6246772281860355Q14.777776984558106,5.672976628186035,14.777776984558106,5.722222328186035L14.777776984558106,8.833332328186035Q14.777776984558106,8.882582328186036,14.768166984558105,8.930882328186035Q14.758566984558104,8.979182328186035,14.739716984558106,9.024672328186035Q14.720866984558105,9.070172328186036,14.693516984558105,9.111122328186035Q14.666156984558105,9.152062328186036,14.631326984558106,9.186882328186035Q14.596506984558106,9.221712328186035,14.555566984558105,9.249072328186035Q14.514616984558106,9.276422328186035,14.469116984558106,9.295272328186035Q14.423626984558105,9.314122328186034,14.375326984558106,9.323722328186035Q14.327026984558106,9.333332328186035,14.277776984558106,9.333332328186035L11.166666984558105,9.333332328186035Q11.117421284558105,9.333332328186035,11.069121884558106,9.323722328186035Q11.020821984558106,9.314122328186034,10.975324984558105,9.295272328186035Q10.929827984558106,9.276422328186035,10.888881984558106,9.249072328186035Q10.847935984558106,9.221712328186035,10.813113984558106,9.186882328186035Q10.778291984558106,9.152062328186036,10.750931984558106,9.111122328186035Q10.723572984558105,9.070172328186036,10.704726984558105,9.024672328186035Q10.685881984558105,8.979182328186035,10.676273984558106,8.930882328186035Q10.666666984558105,8.882582328186036,10.666666984558105,8.833332328186035ZM11.666666984558105,6.222222328186035L11.666666984558105,8.333332328186035L13.777776984558106,8.333332328186035L13.777776984558106,6.222222328186035L11.666666984558105,6.222222328186035Z" fill="#000000" fill-opacity="1"/></g><g><path d="M5.222222328186035,14.277776984558106L5.222222328186035,11.166666984558105Q5.222222328186035,11.117421284558105,5.231829328186035,11.069121884558106Q5.241437328186035,11.020821984558106,5.260282328186035,10.975324984558105Q5.279128328186035,10.929827984558106,5.306487328186035,10.888881984558106Q5.333847328186035,10.847935984558106,5.368669328186035,10.813113984558106Q5.4034913281860355,10.778291984558106,5.444437328186035,10.750931984558106Q5.485383328186035,10.723572984558105,5.5308803281860355,10.704726984558105Q5.576377328186036,10.685881984558105,5.6246772281860355,10.676273984558106Q5.672976628186035,10.666666984558105,5.722222328186035,10.666666984558105L8.833332328186035,10.666666984558105Q8.882582328186036,10.666666984558105,8.930882328186035,10.676273984558106Q8.979182328186035,10.685881984558105,9.024672328186035,10.704726984558105Q9.070172328186036,10.723572984558105,9.111122328186035,10.750931984558106Q9.152062328186036,10.778291984558106,9.186882328186035,10.813113984558106Q9.221712328186035,10.847935984558106,9.249072328186035,10.888881984558106Q9.276422328186035,10.929827984558106,9.295272328186035,10.975324984558105Q9.314122328186034,11.020821984558106,9.323722328186035,11.069121884558106Q9.333332328186035,11.117421284558105,9.333332328186035,11.166666984558105L9.333332328186035,14.277776984558106Q9.333332328186035,14.327026984558106,9.323722328186035,14.375326984558106Q9.314122328186034,14.423626984558105,9.295272328186035,14.469116984558106Q9.276422328186035,14.514616984558106,9.249072328186035,14.555566984558105Q9.221712328186035,14.596506984558106,9.186882328186035,14.631326984558106Q9.152062328186036,14.666156984558105,9.111122328186035,14.693516984558105Q9.070172328186036,14.720866984558105,9.024672328186035,14.739716984558106Q8.979182328186035,14.758566984558104,8.930882328186035,14.768166984558105Q8.882582328186036,14.777776984558106,8.833332328186035,14.777776984558106L5.722222328186035,14.777776984558106Q5.672976628186035,14.777776984558106,5.6246772281860355,14.768166984558105Q5.576377328186036,14.758566984558104,5.5308803281860355,14.739716984558106Q5.485383328186035,14.720866984558105,5.444437328186035,14.693516984558105Q5.4034913281860355,14.666156984558105,5.368669328186035,14.631326984558106Q5.333847328186035,14.596506984558106,5.306487328186035,14.555566984558105Q5.279128328186035,14.514616984558106,5.260282328186035,14.469116984558106Q5.241437328186035,14.423626984558105,5.231829328186035,14.375326984558106Q5.222222328186035,14.327026984558106,5.222222328186035,14.277776984558106ZM6.222222328186035,11.666666984558105L6.222222328186035,13.777776984558106L8.333332328186035,13.777776984558106L8.333332328186035,11.666666984558105L6.222222328186035,11.666666984558105Z" fill="#000000" fill-opacity="1"/></g><g><path d="M10.666666984558105,14.277776984558106L10.666666984558105,11.166666984558105Q10.666666984558105,11.117421284558105,10.676273984558106,11.069121884558106Q10.685881984558105,11.020821984558106,10.704726984558105,10.975324984558105Q10.723572984558105,10.929827984558106,10.750931984558106,10.888881984558106Q10.778291984558106,10.847935984558106,10.813113984558106,10.813113984558106Q10.847935984558106,10.778291984558106,10.888881984558106,10.750931984558106Q10.929827984558106,10.723572984558105,10.975324984558105,10.704726984558105Q11.020821984558106,10.685881984558105,11.069121884558106,10.676273984558106Q11.117421284558105,10.666666984558105,11.166666984558105,10.666666984558105L14.277776984558106,10.666666984558105Q14.327026984558106,10.666666984558105,14.375326984558106,10.676273984558106Q14.423626984558105,10.685881984558105,14.469116984558106,10.704726984558105Q14.514616984558106,10.723572984558105,14.555566984558105,10.750931984558106Q14.596506984558106,10.778291984558106,14.631326984558106,10.813113984558106Q14.666156984558105,10.847935984558106,14.693516984558105,10.888881984558106Q14.720866984558105,10.929827984558106,14.739716984558106,10.975324984558105Q14.758566984558104,11.020821984558106,14.768166984558105,11.069121884558106Q14.777776984558106,11.117421284558105,14.777776984558106,11.166666984558105L14.777776984558106,14.277776984558106Q14.777776984558106,14.327026984558106,14.768166984558105,14.375326984558106Q14.758566984558104,14.423626984558105,14.739716984558106,14.469116984558106Q14.720866984558105,14.514616984558106,14.693516984558105,14.555566984558105Q14.666156984558105,14.596506984558106,14.631326984558106,14.631326984558106Q14.596506984558106,14.666156984558105,14.555566984558105,14.693516984558105Q14.514616984558106,14.720866984558105,14.469116984558106,14.739716984558106Q14.423626984558105,14.758566984558104,14.375326984558106,14.768166984558105Q14.327026984558106,14.777776984558106,14.277776984558106,14.777776984558106L11.166666984558105,14.777776984558106Q11.117421284558105,14.777776984558106,11.069121884558106,14.768166984558105Q11.020821984558106,14.758566984558104,10.975324984558105,14.739716984558106Q10.929827984558106,14.720866984558105,10.888881984558106,14.693516984558105Q10.847935984558106,14.666156984558105,10.813113984558106,14.631326984558106Q10.778291984558106,14.596506984558106,10.750931984558106,14.555566984558105Q10.723572984558105,14.514616984558106,10.704726984558105,14.469116984558106Q10.685881984558105,14.423626984558105,10.676273984558106,14.375326984558106Q10.666666984558105,14.327026984558106,10.666666984558105,14.277776984558106ZM11.666666984558105,11.666666984558105L11.666666984558105,13.777776984558106L13.777776984558106,13.777776984558106L13.777776984558106,11.666666984558105L11.666666984558105,11.666666984558105Z" fill="#000000" fill-opacity="1"/></g></g></svg>