<svg xmlns="http://www.w3.org/2000/svg" xmlns:xlink="http://www.w3.org/1999/xlink" fill="none" version="1.1" width="28" height="28" viewBox="0 0 28 28"><defs><clipPath id="master_svg0_77_07319"><rect x="0" y="0" width="28" height="28" rx="0"/></clipPath></defs><g clip-path="url(#master_svg0_77_07319)"><g><g><path d="M21.8097,4.835570000000001C17.66,0.9329099999999999,11.05106,1.083012,7.05497,5.1357800000000005C2.90519,9.18854,3.058886,15.6429,7.05497,19.5456L12.8954,25.3996C13.35649,25.8499,13.81758,26,14.2787,26C14.7398,26,15.3545,25.8499,15.6619,25.3996L21.6561,19.5456C21.8097,19.3955,21.9634,19.3955,21.9634,19.2454C26.1132,15.1926,25.9595,8.73823,21.8097,4.835570000000001ZM20.7339,18.4949L14.7398,24.499C14.5861,24.6491,14.2787,24.6491,14.125,24.499L8.13084,18.4949C4.595842,15.0425,4.595842,9.48874,8.13084,6.18649C11.66584,2.7341379999999997,17.352600000000002,2.7341379999999997,20.7339,6.18649C24.2689,9.63884,24.2689,15.1926,20.7339,18.4949Z" fill="#000000" fill-opacity="1"/></g><g><path d="M13.971253561401367,13.091198397216797L14.893423561401367,13.091198397216797C16.276683561401367,13.091198397216797,17.352553561401365,12.040478397216797,17.352553561401365,10.689558397216796L17.352553561401365,8.438028397216797C17.352553561401365,7.087108397216797,16.276683561401367,6.036388397216797,14.893423561401367,6.036388397216797L13.971253561401367,6.036388397216797C12.587993561401367,6.036388397216797,11.512123561401367,7.087108397216797,11.512123561401367,8.438028397216797L11.512123561401367,10.839658397216798C11.512123561401367,12.190588397216796,12.741693561401368,13.241298397216797,13.971253561401367,13.091198397216797ZM12.895383561401367,8.438028397216797C12.895383561401367,7.987718397216797,13.356473561401367,7.537408397216797,13.817553561401368,7.387308397216797L14.739733561401367,7.387308397216797C15.508213561401366,7.387308397216797,15.969293561401368,7.837618397216797,15.969293561401368,8.438028397216797L15.969293561401368,10.839658397216798C15.969293561401368,11.440068397216796,15.508213561401366,11.890378397216796,14.893423561401367,11.890378397216796L13.971253561401367,11.890378397216796C13.356473561401367,11.740278397216798,12.895383561401367,11.289968397216796,12.895383561401367,10.839658397216798L12.895383561401367,8.438028397216797ZM16.122993561401366,13.841708397216797L12.741693561401368,13.841708397216797C10.589953561401368,13.841708397216797,8.745603561401367,15.642938397216797,8.745603561401367,17.744388397216795L10.128863561401367,17.744388397216795C10.128863561401367,16.243388397216798,11.358433561401368,15.192628397216797,12.741693561401368,15.192628397216797L16.122993561401366,15.192628397216797C17.506253561401365,15.192628397216797,18.735813561401365,16.3934883972168,18.735813561401365,17.744388397216795L20.119103561401367,17.744388397216795C20.119103561401367,15.642938397216797,18.27473356140137,13.841708397216797,16.122993561401366,13.841708397216797Z" fill="#000000" fill-opacity="1"/></g></g></g></svg>