<svg xmlns="http://www.w3.org/2000/svg" xmlns:xlink="http://www.w3.org/1999/xlink" fill="none" version="1.1" width="24" height="24" viewBox="0 0 24 24"><g><g><rect x="0" y="0" width="24" height="24" rx="0" fill="#D8D8D8" fill-opacity="0"/></g><g><path d="" fill="#D8D8D8" fill-opacity="0"/><path d="M4.848342370605469,20.6517Q5.946692370605469,21.75,7.499992370605469,21.75L16.49999237060547,21.75Q18.05329237060547,21.75,19.15169237060547,20.6517Q20.24999237060547,19.5533,20.24999237060547,18L20.24999237060547,10.560469999999999L21.53149237060547,11.58565Q21.58919237060547,11.6318,21.654692370605467,11.6658Q21.72029237060547,11.69981,21.79129237060547,11.72037Q21.86219237060547,11.74092,21.93579237060547,11.74725Q22.009392370605468,11.75357,22.082792370605468,11.74541Q22.156192370605467,11.73725,22.22669237060547,11.71493Q22.29709237060547,11.69261,22.361792370605468,11.65697Q22.42649237060547,11.62134,22.48299237060547,11.57377Q22.53949237060547,11.5262,22.585692370605468,11.46852Q22.631792370605467,11.41084,22.66579237060547,11.34526Q22.69979237060547,11.27969,22.72039237060547,11.20874Q22.74089237060547,11.13779,22.747192370605468,11.06419Q22.753592370605467,10.990590000000001,22.74539237060547,10.91718Q22.73729237060547,10.84376,22.71489237060547,10.773340000000001Q22.692592370605468,10.70293,22.65699237060547,10.63822Q22.62129237060547,10.57352,22.573792370605467,10.517Q22.526192370605468,10.46049,22.468492370605468,10.414349999999999L19.968492370605468,8.414349999999999L19.96819237060547,8.41409L12.46849237060547,2.414348Q12.41899237060547,2.374738,12.363492370605469,2.344003Q12.308092370605468,2.3132669999999997,12.24829237060547,2.2922789999999997Q12.188392370605468,2.27129,12.125892370605468,2.2606450000000002Q12.063392370605468,2.25,11.999992370605469,2.25Q11.93658237060547,2.25,11.87408237060547,2.2606450000000002Q11.811572370605468,2.27129,11.751742370605468,2.2922789999999997Q11.691902370605469,2.3132669999999997,11.636442370605469,2.344003Q11.580982370605469,2.374738,11.531472370605469,2.414348L4.031682370605469,8.41418L4.031472370605469,8.414349999999999L1.5314713706054688,10.414349999999999Q1.414977370605469,10.507539999999999,1.3430163706054687,10.63822Q1.2710543706054689,10.7689,1.2545793706054686,10.91718Q1.2381053706054688,11.06545,1.2796253706054688,11.20874Q1.3211463706054687,11.35203,1.4143403706054687,11.46852Q1.4604863706054687,11.5262,1.5169983706054688,11.57377Q1.5735093706054688,11.62134,1.6382163706054689,11.65697Q1.7029223706054688,11.69261,1.7733373706054687,11.71493Q1.8437523706054688,11.73725,1.9171686706054687,11.74541Q1.9905854306054687,11.75357,2.0641829706054686,11.74725Q2.1377803706054688,11.74092,2.2087303706054686,11.72037Q2.279680370605469,11.69981,2.345256370605469,11.6658Q2.4108323706054686,11.6318,2.4685133706054687,11.58565L3.7499923706054688,10.560469999999999L3.7499923706054688,18Q3.7499923706054688,19.5533,4.848342370605469,20.6517ZM5.249992370605469,9.36047L5.249992370605469,18Q5.249992370605469,18.932000000000002,5.909002370605469,19.591Q6.5680123706054685,20.25,7.499992370605469,20.25L16.49999237060547,20.25Q17.43199237060547,20.25,18.09099237060547,19.591Q18.74999237060547,18.932000000000002,18.74999237060547,18L18.74999237060547,9.36047L11.999992370605469,3.960468L5.249992370605469,9.36047Z" fill-rule="evenodd" fill="#0C0507" fill-opacity="1"/></g><g><path d="" fill="#D8D8D8" fill-opacity="0"/><path d="M8.749992370605469,20.99993896484375L8.749992370605469,14.49993896484375Q8.749992370605469,14.42607046484375,8.764403370605468,14.35362096484375Q8.778814370605469,14.28117196484375,8.80708237060547,14.21292596484375Q8.83535137060547,14.14468096484375,8.876390370605469,14.08326096484375Q8.917429370605468,14.02184196484375,8.96966237060547,13.96960896484375Q9.021895370605469,13.91737596484375,9.08331437060547,13.87633696484375Q9.14473437060547,13.83529796484375,9.212979370605469,13.80702896484375Q9.281225370605469,13.77876096484375,9.353674370605468,13.764349964843749Q9.426123870605469,13.74993896484375,9.499992370605469,13.74993896484375L14.499992370605469,13.74993896484375Q14.573862370605468,13.74993896484375,14.646312370605468,13.764349964843749Q14.718762370605468,13.77876096484375,14.78700237060547,13.80702896484375Q14.85525237060547,13.83529796484375,14.916672370605468,13.87633696484375Q14.97809237060547,13.91737596484375,15.030322370605468,13.96960896484375Q15.08255237060547,14.02184196484375,15.123592370605468,14.08326096484375Q15.164632370605469,14.14468096484375,15.19290237060547,14.21292596484375Q15.22117237060547,14.28117196484375,15.235582370605469,14.35362096484375Q15.249992370605469,14.42607046484375,15.249992370605469,14.49993896484375L15.249992370605469,20.99993896484375Q15.249992370605469,21.07380896484375,15.235582370605469,21.14625896484375Q15.22117237060547,21.21870896484375,15.19290237060547,21.286948964843752Q15.164632370605469,21.35519896484375,15.123592370605468,21.41661896484375Q15.08255237060547,21.47803896484375,15.030322370605468,21.53026896484375Q14.97809237060547,21.58249896484375,14.916672370605468,21.62353896484375Q14.85525237060547,21.66457896484375,14.78700237060547,21.69284896484375Q14.718762370605468,21.72111896484375,14.646312370605468,21.735528964843752Q14.573862370605468,21.74993896484375,14.499992370605469,21.74993896484375L9.499992370605469,21.74993896484375Q9.426123870605469,21.74993896484375,9.353674370605468,21.735528964843752Q9.281225370605469,21.72111896484375,9.212979370605469,21.69284896484375Q9.14473437060547,21.66457896484375,9.08331437060547,21.62353896484375Q9.021895370605469,21.58249896484375,8.96966237060547,21.53026896484375Q8.917429370605468,21.47803896484375,8.876390370605469,21.41661896484375Q8.83535137060547,21.35519896484375,8.80708237060547,21.286948964843752Q8.778814370605469,21.21870896484375,8.764403370605468,21.14625896484375Q8.749992370605469,21.07380896484375,8.749992370605469,20.99993896484375ZM13.749992370605469,15.24993896484375L10.249992370605469,15.24993896484375L10.249992370605469,20.24993896484375L13.749992370605469,20.24993896484375L13.749992370605469,15.24993896484375Z" fill-rule="evenodd" fill="#0C0507" fill-opacity="1"/></g></g></svg>