<svg xmlns="http://www.w3.org/2000/svg" xmlns:xlink="http://www.w3.org/1999/xlink" fill="none" version="1.1" width="21.97265625" height="19.6240234375" viewBox="0 0 21.97265625 19.6240234375"><g><g><path d="M9.8123225,14.2105725C7.3832325,14.2105725,5.4140625,12.2414125,5.4140625,9.8123225C5.4140625,7.3832325,7.3832325,5.4140625,9.8123225,5.4140625C12.2414125,5.4140625,14.2105725,7.3832325,14.2105725,9.8123225C14.2101525,10.118102499999999,13.9621425,10.3657725,13.6563625,10.3657725C13.3505725,10.3657725,13.102562500000001,10.118102499999999,13.1021425,9.8123225C13.1021425,7.9954025,11.6292425,6.5224925,9.8123225,6.5224925C7.9954025,6.5224925,6.5224925,7.9954025,6.5224925,9.8123225C6.5224925,11.6292425,7.9954025,13.1021425,9.8123225,13.1021425C10.118102499999999,13.102562500000001,10.3657725,13.3505725,10.3657725,13.6563625C10.3657725,13.9621425,10.118102499999999,14.2101525,9.8123225,14.2105725Z" fill="#333333" fill-opacity="1"/></g><g><path d="M9.81185,19.6237C4.39291,19.6237,0,15.2308,0,9.81185C0,4.39291,4.39291,0,9.81185,0C15.2308,0,19.6237,4.39291,19.6237,9.81185C19.6237,10.1179,19.3756,10.3661,19.0695,10.3661C18.7634,10.3661,18.5153,10.1179,18.5153,9.81185C18.5153,5.00508,14.6186,1.10843,9.81185,1.10843C5.00508,1.10843,1.10843,5.00508,1.10843,9.81185C1.10843,14.6186,5.00508,18.5153,9.81185,18.5153C10.1179,18.5153,10.3661,18.7634,10.3661,19.0695C10.3661,19.3756,10.1179,19.6237,9.81185,19.6237Z" fill="#333333" fill-opacity="1"/></g><g><path d="M9.81271,16.9056734375C5.89483,16.9056734375,2.71875,13.7296734375,2.71875,9.811743437499999C2.71875,5.8938534375,5.89483,2.7177734375,9.812719999999999,2.7177734375C13.73065,2.7177734375,16.90665,5.8938534375,16.90665,9.811743437499999C16.90665,10.1178234375,16.658549999999998,10.3659534375,16.352449999999997,10.3659534375C16.04635,10.3659534375,15.79825,10.1178234375,15.79825,9.811743437499999C15.79825,6.5181234375,13.12995,3.8472134374999998,9.83633,3.8439634375000002C6.54271,3.8407134375,3.86916,6.5063434375,3.86265,9.799953437500001C3.8561300000000003,13.0935734375,6.5191099999999995,15.7697734375,9.81271,15.7795734375C10.1237,15.7795734375,10.3758,16.0316734375,10.3758,16.3426734375C10.3758,16.6535734375,10.1237,16.9056734375,9.81271,16.9056734375Z" fill="#333333" fill-opacity="1"/></g><g><path d="M11.71837825,15.452506875000001L11.71837825,15.767296875L11.09765625,15.767296875L11.09765625,11.586283875L15.84174625,11.586283875L15.84174625,15.762856875L15.22101625,15.762856875L15.22101625,15.448056874999999L13.75788625,15.448056874999999L13.75788625,17.492006875L13.13716625,17.492006875L13.13716625,15.452486875L11.71837825,15.452506875000001ZM11.71837825,12.238051875L11.71837825,13.200176875L13.13717625,13.200176875L13.13717625,12.238051875L11.71837825,12.238051875ZM11.71837825,14.809616875L13.13717625,14.809616875L13.13717625,13.843066875L11.71837825,13.843066875L11.71837825,14.809616875ZM15.221036250000001,12.238051875L13.75790625,12.238051875L13.75790625,13.200176875L15.221036250000001,13.200176875L15.221036250000001,12.238051875ZM15.221036250000001,14.809616875L15.221036250000001,13.843066875L13.75790625,13.843066875L13.75790625,14.814056875L15.221036250000001,14.809616875ZM18.901016249999998,14.911586875L18.67932625,14.579056875L18.67932625,17.469856874999998L18.15614625,17.469856874999998L18.15614625,17.172796875L16.90583625,17.172796875L16.90583625,17.483156875L16.35161625,17.483156875L16.35161625,12.858766875L16.90583625,12.858766875L16.90583625,12.264644875L16.21860625,12.264644875L16.21860625,11.643922875L18.71480625,11.643922875L18.71480625,12.264644875L18.12068625,12.264644875L18.12068625,12.858766875L18.67933625,12.858766875L18.67933625,14.321896875C19.22314625,14.007236875,19.68021625,13.562356874999999,20.00944625,13.027246875L20.506026249999998,13.027246875C20.86422625,13.591086875,21.37245625,14.043996875,21.97355625,14.335196875L21.65875625,14.849506875C21.54795625,14.791866875,21.441556249999998,14.729796875,21.343956249999998,14.663286875L21.343956249999998,15.106666875L20.59913625,15.106666875L20.59913625,15.616546875000001L21.33955625,15.616546875000001L21.33955625,16.223966875000002L20.59913625,16.223966875000002L20.59913625,16.738276875L21.738556250000002,16.738276875L21.738556250000002,17.350126875L18.914326250000002,17.350126875L18.914326250000002,16.729406875L20.00945625,16.729406875L20.00945625,16.210666875L19.23355625,16.210666875L19.23355625,15.603246875L20.00945625,15.603246875L20.00945625,15.093366875000001L19.224686249999998,15.093366875000001L19.224686249999998,14.712066875C19.12271625,14.783006875,19.007436249999998,14.849506875,18.901016249999998,14.911586875ZM16.90583625,15.483536875L18.16501625,15.483536875L18.16501625,15.040166875L17.96993625,15.040166875C17.72607625,15.040166875,17.61079625,14.867256874999999,17.61079625,14.530286875L17.61079625,13.412986875L17.40684625,13.412986875L17.40684625,13.803156874999999C17.44329625,14.339236875000001,17.31322625,14.873476875,17.03441625,15.332796875L16.89696625,15.199786875000001L16.90583625,15.483536875ZM16.90583625,13.412996875L16.90583625,14.831786875C17.05043625,14.508646875,17.12015625,14.157016875,17.10978625,13.803156874999999L17.10978625,13.426296875L16.90583625,13.412996875ZM18.16501625,16.565376875L18.16501625,16.051056875L16.90583625,16.051056875L16.90583625,16.565376875L18.16501625,16.565376875ZM17.64183625,12.858776875L17.64183625,12.264654875L17.40684625,12.264654875L17.40684625,12.858776875L17.64183625,12.858776875ZM18.16501625,13.412996875L17.93002625,13.412996875L17.93002625,14.415016875C17.93002625,14.534726875,17.978796250000002,14.601236875,18.08077625,14.601236875L18.16944625,14.601236875L18.16501625,13.412996875ZM19.33995625,11.963161875L19.33995625,11.435546875L19.93407625,11.435546875L19.93407625,11.963161875L20.64790625,11.963161875L20.64790625,11.435546875L21.242056249999997,11.435546875L21.242056249999997,11.963161875L21.76525625,11.963161875L21.76525625,12.583886875L21.23755625,12.583886875L21.23755625,13.142536875L20.64347625,13.142536875L20.64347625,12.583886875L19.925206250000002,12.583886875L19.925206250000002,13.155836875L19.33108625,13.155836875L19.33108625,12.583886875L18.83451625,12.583886875L18.83451625,11.963161875L19.33995625,11.963161875ZM20.29764625,13.639116875C20.08038625,13.973836875,19.812676250000003,14.272956875,19.50400625,14.525856875L21.15775625,14.525856875C20.813166250000002,14.289646874999999,20.51797625,13.988426875,20.288776249999998,13.639106875L20.29764625,13.639116875Z" fill="#333333" fill-opacity="1"/></g></g></svg>