<svg xmlns="http://www.w3.org/2000/svg" xmlns:xlink="http://www.w3.org/1999/xlink" fill="none" version="1.1" width="20.000001907348633" height="20.000001907348633" viewBox="0 0 20.000001907348633 20.000001907348633"><g><path d="M17.037,11.4286L17.037,11.8012C16.9136,16.3975,13.8272,20,10,20C6.04938,20,2.83951,16.1491,2.83951,11.4286L17.037,11.4286ZM6.41975,0.745342L6.41975,6.3354C6.41975,6.70807,6.79012,7.08074,7.16049,7.08074L12.8395,7.08074C13.2099,7.08074,13.5802,6.70807,13.5802,6.3354L13.5802,0.745342C16.5432,2.1118,18.3951,4.96894,18.5185,8.19876L18.5185,8.57143L19.2593,8.57143C19.6296,8.57143,20,8.9441,20,9.31677C20,9.68944,19.6296,10.0621,19.2593,10.0621L0.740741,10.0621C0.37037,10.0621,0,9.68944,0,9.31677C0,8.9441,0.37037,8.57143,0.740741,8.57143L1.48148,8.57143C1.35802,5.21739,3.33333,2.1118,6.41975,0.745342ZM9.87654,0C10.6173,0,11.358,0.124224,11.9753,0.248447L11.9753,5.71429L7.65432,5.71429L7.65432,0.248447C8.51852,0.124224,9.25926,0,9.87654,0Z" fill="#FFFFFF" fill-opacity="1"/></g></svg>