<svg xmlns="http://www.w3.org/2000/svg" xmlns:xlink="http://www.w3.org/1999/xlink" fill="none" version="1.1" width="24" height="24" viewBox="0 0 24 24"><g><g><path d="M20.6288,6.434705523529053L14.4504,2.1057629235290527L14.4501,2.105576123529053Q13.1975,1.2287695235290528,11.48367,1.2689555235290526Q9.76653,1.3092205235290528,8.55955,2.247985523529053L3.16901,6.448395523529053Q2.358348,7.078915523529052,1.804179,8.208385523529053Q1.25,9.337875523529053,1.25,10.359995523529053L1.25,17.770015523529054Q1.25,19.820915523529052,2.7038029999999997,21.279415523529053Q4.15957,22.740015523529053,6.21,22.740015523529053L17.79,22.740015523529053Q19.8393,22.740015523529053,21.2958,21.281115523529053Q22.75,19.82451552352905,22.75,17.780015523529052L22.75,10.499995523529053Q22.75,9.408955523529052,22.1361,8.232935523529052Q21.5226,7.057625523529053,20.6288,6.434705523529053ZM13.5896,3.3342355235290526L13.5899,3.3344255235290525L19.7712,7.6652955235290525Q20.3631,8.077865523529052,20.8064,8.927065523529052Q21.25,9.776895523529053,21.25,10.499995523529053L21.25,17.780015523529052Q21.25,19.20391552352905,20.2342,20.221315523529054Q19.2173,21.240015523529053,17.79,21.240015523529053L6.21,21.240015523529053Q4.78233,21.240015523529053,3.7662,20.220515523529052Q2.75,19.20101552352905,2.75,17.770015523529054L2.75,10.359995523529053Q2.75,9.686035523529053,3.15082,8.869115523529054Q3.55251,8.050415523529054,4.09099,7.631595523529053L9.48046,3.432015523529053Q10.29664,2.7972025235290525,11.51883,2.7685435235290528Q12.7404,2.7399005235290526,13.5896,3.3342355235290526Z" fill-rule="evenodd" fill="#FFFFFF" fill-opacity="1"/></g><g><path d="M12.75,17.989999771118164L12.75,14.989999771118164Q12.75,14.916131271118164,12.735589000000001,14.843681771118163Q12.721178,14.771232771118164,12.69291,14.702986771118164Q12.664641,14.634741771118165,12.623602,14.573321771118165Q12.582563,14.511902771118164,12.53033,14.459669771118165Q12.478097,14.407436771118164,12.416678,14.366397771118164Q12.355258,14.325358771118164,12.287013,14.297089771118165Q12.218767,14.268821771118164,12.146318,14.254410771118163Q12.0738685,14.239999771118164,12,14.239999771118164Q11.9261315,14.239999771118164,11.853682,14.254410771118163Q11.781233,14.268821771118164,11.712987,14.297089771118165Q11.644742,14.325358771118164,11.583322,14.366397771118164Q11.521903,14.407436771118164,11.46967,14.459669771118165Q11.417437,14.511902771118164,11.376398,14.573321771118165Q11.335359,14.634741771118165,11.30709,14.702986771118164Q11.278822,14.771232771118164,11.264410999999999,14.843681771118163Q11.25,14.916131271118164,11.25,14.989999771118164L11.25,17.989999771118164Q11.25,18.063869771118163,11.264410999999999,18.136319771118163Q11.278822,18.208769771118163,11.30709,18.277009771118163Q11.335359,18.345259771118165,11.376398,18.406679771118164Q11.417437,18.468099771118165,11.46967,18.520329771118163Q11.521903,18.572559771118165,11.583322,18.613599771118164Q11.644742,18.654639771118163,11.712987,18.682909771118165Q11.781233,18.711179771118164,11.853682,18.725589771118166Q11.9261315,18.739999771118164,12,18.739999771118164Q12.0738685,18.739999771118164,12.146318,18.725589771118166Q12.218767,18.711179771118164,12.287013,18.682909771118165Q12.355258,18.654639771118163,12.416678,18.613599771118164Q12.478097,18.572559771118165,12.53033,18.520329771118163Q12.582563,18.468099771118165,12.623602,18.406679771118164Q12.664641,18.345259771118165,12.69291,18.277009771118163Q12.721178,18.208769771118163,12.735589000000001,18.136319771118163Q12.75,18.063869771118163,12.75,17.989999771118164Z" fill-rule="evenodd" fill="#FFFFFF" fill-opacity="1"/></g><g style="opacity:0;"></g></g></svg>