<svg xmlns="http://www.w3.org/2000/svg" xmlns:xlink="http://www.w3.org/1999/xlink" fill="none" version="1.1" width="20" height="20" viewBox="0 0 20 20"><defs><clipPath id="master_svg0_4_9332"><rect x="0" y="0" width="20" height="20" rx="0"/></clipPath></defs><g clip-path="url(#master_svg0_4_9332)"><rect x="0" y="0" width="20" height="20" rx="0" fill="#FFFFFF" fill-opacity="0"/><g><g><path d="M3,15C3,16.104599999999998,3.895431,17,5,17L15,17C16.104599999999998,17,17,16.104599999999998,17,15L17,8.33238C17,7.62985,16.6314,6.97884,16.029,6.61739L11.02899,3.617395C10.39563,3.237376,9.60437,3.237376,8.97101,3.617395L3.971008,6.61739C3.368598,6.97884,3,7.62985,3,8.33238L3,15ZM4.2,15Q4.2,15.8,5,15.8L15,15.8Q15.8,15.8,15.8,15L15.8,8.33238Q15.8,7.87943,15.4116,7.64639L10.4116,4.64639Q10,4.39943,9.5884,4.64639L4.5884,7.64639Q4.2,7.87943,4.2,8.33238L4.2,15Z" fill-rule="evenodd" fill="#232D42" fill-opacity="1"/></g><g><path d="M7.33282,11.50077Q8.68167,12.4,10,12.4Q11.31818,12.4,12.66686,11.500981L12.66718,11.50077Q12.81832,11.4,13,11.4Q13.059090000000001,11.4,13.117049999999999,11.411529Q13.17501,11.423058,13.229610000000001,11.445672Q13.2842,11.468287,13.33334,11.501118Q13.382480000000001,11.53395,13.42426,11.575736Q13.46605,11.617522,13.49888,11.666658Q13.53171,11.715793,13.55433,11.77039Q13.57694,11.824985999999999,13.588470000000001,11.882946Q13.6,11.9409052,13.6,12Q13.6,12.0740826,13.58198,12.14594Q13.56396,12.217798,13.529,12.283115Q13.49405,12.348432,13.44425,12.403284Q13.394459999999999,12.458137,13.33282,12.49923L13.332740000000001,12.499286L13.331990000000001,12.499786Q11.681239999999999,13.6,10,13.6Q8.31833,13.6,6.66718,12.49923Q6.605539,12.458137,6.555746,12.403284Q6.505952,12.348431,6.470995,12.283115Q6.436039,12.217798,6.418019,12.14594Q6.4,12.0740826,6.4,12Q6.4,11.9409052,6.411529,11.882946Q6.423058,11.824985999999999,6.445672,11.77039Q6.468287,11.715793,6.501118,11.666658Q6.53395,11.617522,6.575736,11.575736Q6.617522,11.53395,6.666658,11.501118Q6.715793,11.468287,6.77039,11.445672Q6.824986,11.423058,6.882946,11.411529Q6.9409051999999996,11.4,7,11.4Q7.181665,11.4,7.33282,11.50077Z" fill-rule="evenodd" fill="#232D42" fill-opacity="1"/></g></g></g></svg>