<svg xmlns="http://www.w3.org/2000/svg" xmlns:xlink="http://www.w3.org/1999/xlink" fill="none" version="1.1" width="20" height="20" viewBox="0 0 20 20"><defs><clipPath id="master_svg0_63_65225"><rect x="0" y="0" width="20" height="20" rx="0"/></clipPath></defs><g clip-path="url(#master_svg0_63_65225)"><rect x="0" y="0" width="20" height="20" rx="0" fill="#FFFFFF" fill-opacity="0"/><g><g><path d="M3,8.33238L3,15C3,16.104599999999998,3.895431,17,5,17L15,17C16.104599999999998,17,17,16.104599999999998,17,15L17,8.33238C17,7.62985,16.6314,6.97884,16.029,6.61739L11.02899,3.617395C10.39563,3.237376,9.60437,3.237376,8.97101,3.617395L3.971008,6.61739C3.368598,6.97884,3,7.62985,3,8.33238ZM4,8.33238L4,15Q4,15.4142,4.29289,15.7071Q4.58579,16,5,16L15,16Q15.4142,16,15.7071,15.7071Q16,15.4142,16,15L16,8.33238Q16,7.76619,15.5145,7.47489L10.5145,4.47489Q10,4.16619,9.4855,4.47489L4.4855,7.47489Q4,7.76619,4,8.33238Z" fill-rule="evenodd" fill="#232D42" fill-opacity="1"/></g><g><path d="M7.27735,11.583975Q8.65139,12.5,10,12.5Q11.34861,12.5,12.72265,11.583975Q12.84861,11.5,13,11.5Q13.04925,11.5,13.09755,11.509607Q13.14584,11.519214999999999,13.19134,11.53806Q13.23684,11.556906,13.27778,11.584265Q13.31873,11.611625,13.35355,11.646447Q13.38837,11.681269,13.41573,11.722215Q13.44309,11.763161,13.46194,11.808658Q13.48078,11.854155,13.49039,11.9024549Q13.5,11.9507543,13.5,12Q13.5,12.0617355,13.48498,12.121617Q13.46997,12.181498,13.44084,12.235929Q13.41171,12.29036,13.37021,12.33607Q13.32872,12.381781,13.27735,12.416025L13.277280000000001,12.416071L13.276530000000001,12.416571Q11.650970000000001,13.5,10,13.5Q8.34861,13.5,6.72265,12.416025Q6.671283,12.38178,6.629788,12.33607Q6.588293,12.29036,6.559163,12.235929Q6.530032,12.181498,6.515016,12.121617Q6.5,12.0617355,6.5,12Q6.5,11.9507543,6.509607,11.9024549Q6.519215,11.854155,6.53806,11.808658Q6.556906,11.763161,6.584265,11.722215Q6.611625,11.681269,6.646447,11.646447Q6.681269,11.611625,6.722215,11.584265Q6.763161,11.556906,6.808658,11.53806Q6.854155,11.519214999999999,6.9024549,11.509607Q6.9507543,11.5,7,11.5Q7.151388,11.5,7.27735,11.583975Z" fill-rule="evenodd" fill="#232D42" fill-opacity="1"/></g></g></g></svg>