<svg xmlns="http://www.w3.org/2000/svg" xmlns:xlink="http://www.w3.org/1999/xlink" fill="none" version="1.1" width="58" height="58" viewBox="0 0 58 58"><defs><clipPath id="master_svg0_11_6292"><rect x="0" y="0" width="58" height="58" rx="0"/></clipPath></defs><g><g clip-path="url(#master_svg0_11_6292)"><rect x="0" y="0" width="58" height="58" rx="0" fill="#FFFFFF" fill-opacity="0"/><g><g><g><path d="M13.5,11.32297L13.5,31.5L13.5,32.185199999999995L30,38.5723L46.5,32.185199999999995L46.5,11.307L29.488300000000002,4.92763L13.5,11.32297ZM15.5,30.8148L30,36.4277L44.5,30.8148L44.5,12.693L29.511699999999998,7.07237L15.5,12.67703L15.5,30.8148Z" fill-rule="evenodd" fill="#000000" fill-opacity="1"/></g><g><path d="M29,17.822969999999998L29,37L31,37L31,19.177030000000002L45.3714,13.428477L44.6286,11.571523L29,17.822969999999998Z" fill-rule="evenodd" fill="#000000" fill-opacity="1"/></g><g><path d="M14.860994,11.567432L30.361,17.56743L29.639,19.43257L14.139006,13.432568L14.860994,11.567432Z" fill-rule="evenodd" fill="#000000" fill-opacity="1"/></g></g><g><g><path d="M58,41.98768Q58,38.29009,49.1939,36.031356Q49.0716,36,48.9454,36Q48.9316,36,48.9178,36.000383Q48.8369,36.002622,48.7574,36.01784Q48.6779,36.033059,48.6019,36.060861Q48.5259,36.088663,48.4554,36.128325Q48.3848,36.167987,48.3216,36.218476Q48.2583,36.268965,48.204,36.328968Q48.1497,36.388971,48.1058,36.456926Q48.0618,36.52488,48.0294,36.599018Q47.9969,36.673156,47.9768,36.751547Q47.9454,36.873795,47.9454,37Q47.9454,37.0211242,47.9463,37.0422295Q47.9569,37.29313,48.0848,37.509253Q48.1861,37.68044,48.3452,37.799832Q48.5043,37.919224,48.697,37.968644Q52.3596,38.9081,54.3204,40.09714Q56,41.115700000000004,56,41.98768Q56,42.67502,54.9019,43.48991Q53.5776,44.47265,51.0102,45.3305Q45.5575,47.1524,36.9275,47.7784L36.9255,47.7786L36.9232,47.7787Q36.8295,47.7855,36.7387,47.8097Q36.648,47.8338,36.5633,47.8744Q36.4786,47.915,36.4029,47.9706Q36.3272,48.0263,36.2633,48.0951Q36.1993,48.1638,36.1493,48.2433Q36.0992,48.3228,36.0649,48.4102Q36.0305,48.4976,36.013,48.5899Q35.9955,48.6822,35.9955,48.7761L35.9955,48.7813Q35.9957,48.8149,35.9981,48.8484Q36.0125,49.0468,36.1017,49.2246Q36.1909,49.4024,36.3414,49.5325Q36.4776,49.6504,36.6465,49.7132Q36.8153,49.7761,36.9955,49.7761L36.9956,49.7761Q37.0318,49.7761,37.0678,49.7735L37.0685,49.7735Q45.9517,49.129400000000004,51.644,47.2274Q58,45.10366,58,41.98768ZM8.81263,47.6759Q15.9674,49.7077,26.4786,49.9996Q26.4925,50,26.5064,50Q26.5841,50,26.661,49.988Q26.7469,49.9745,26.8292,49.9465Q26.9115,49.9184,26.9877,49.8765Q27.0639,49.8347,27.1318,49.7803Q27.1996,49.725899999999996,27.2571,49.6606Q27.3145,49.5954,27.3598,49.521100000000004Q27.4052,49.4469,27.437,49.366Q27.4688,49.2851,27.4862,49.1999Q27.5036,49.1147,27.506,49.0278Q27.5064,49.0139,27.5064,49Q27.5064,48.9899,27.5062,48.9797Q27.5024,48.7933,27.4317,48.6208Q27.361,48.4482,27.2328,48.312799999999996Q27.0961,48.1683,26.9145,48.0871Q26.733,48.0059,26.5341,48.0004Q16.273,47.7155,9.359,45.75195Q6.13795,44.8372,4.43844,43.72647Q2.999998,42.78636,2.999998,41.98768Q3,41.115700000000004,4.67962,40.09714Q6.63986,38.9084,10.3012,37.969111L10.30202,37.968901L10.30302,37.968644Q10.49569,37.919224,10.65479,37.799832Q10.81388,37.68044,10.91518,37.509252000000004Q11.05456,37.273702,11.05456,37.00000246296L11.05454,36.9927082Q11.05364,36.870209,11.02321,36.751548Q11.00267,36.67147,10.96926,36.595853Q10.93585,36.520236,10.89047,36.451132Q10.8451,36.382028,10.78899,36.321313Q10.73288,36.260598,10.66757,36.209922Q10.60225,36.159245,10.5295,36.119982Q10.45675,36.080719,10.37854,36.053936Q10.30033,36.027153,10.21878,36.013577Q10.13724,36.000001,10.05457,36.000001Q10.04429,36.000001,10.03402,36.000212Q9.91826,36.00259,9.80611,36.031357Q1,38.29009,1,41.98768Q1,45.45715,8.81263,47.6759Z" fill-rule="evenodd" fill="#000000" fill-opacity="1"/></g><g><path d="M25,53L32,49L25.5,45L26,49L25,53Z" fill="#000000" fill-opacity="1"/></g></g></g></g></g></svg>