<svg xmlns="http://www.w3.org/2000/svg" xmlns:xlink="http://www.w3.org/1999/xlink" fill="none" version="1.1" width="8.739999771118164" height="6.340000152587891" viewBox="0 0 8.739999771118164 6.340000152587891"><g><path d="M8.52088,1.2797809999999998L3.69088,6.11978Q3.6387,6.17207,3.57732,6.21317Q3.51594,6.25427,3.44773,6.28261Q3.37951,6.31095,3.30708,6.32544Q3.23464,6.33992,3.16078,6.34Q3.08691,6.34008,3.01444,6.32574Q2.94198,6.3114,2.8737,6.28321Q2.80543,6.25501,2.74397,6.21403Q2.6825099999999997,6.17306,2.63022,6.12088Q2.62939,6.12006,2.62857,6.11923L0.21857300000000002,3.69923Q0.16644800000000004,3.64689,0.12553599999999998,3.58539Q0.08462499999999995,3.52388,0.05649800000000005,3.45558Q0.028371000000000035,3.38727,0.014109999999999956,3.31479Q-0.00015100000000001224,3.24232,0.000001999999999946489,3.16845Q0.00015500000000001624,3.09458,0.014715999999999951,3.02216Q0.029276999999999997,2.94974,0.057686000000000015,2.88155Q0.08609599999999995,2.81337,0.127262,2.75203Q0.16842800000000002,2.6907,0.220769,2.63857Q0.27311,2.58645,0.334614,2.54554Q0.396119,2.50462,0.464423,2.4764999999999997Q0.532727,2.4483699999999997,0.605206,2.43411Q0.6776844,2.4198500000000003,0.75155282,2.42Q0.8254212,2.42015,0.89784,2.43472Q0.97026,2.44928,1.0384470000000001,2.47769Q1.1066340000000001,2.5061,1.1679680000000001,2.54726Q1.2293020000000001,2.58843,1.2814269999999999,2.64077L3.69143,5.06077L3.16,5.59L2.62912,5.06022L7.45912,0.22021900000000005Q7.5113,0.16793199999999997,7.57268,0.12682899999999997Q7.63405,0.08572599999999997,7.70227,0.057387999999999995Q7.77049,0.02904899999999999,7.84292,0.014562999999999993Q7.91535,0.00007699999999999374,7.98922,0Q8.063089999999999,-0.00007599999999996498,8.13556,0.01426000000000005Q8.208020000000001,0.028595999999999955,8.27629,0.05679400000000001Q8.344570000000001,0.08499199999999996,8.406030000000001,0.12596700000000005Q8.46749,0.16694299999999995,8.51978,0.21912200000000004Q8.57207,0.271301,8.61317,0.332678Q8.65427,0.394055,8.68261,0.462271Q8.71095,0.5304869999999999,8.725439999999999,0.602922Q8.73992,0.6753559,8.74,0.749224368Q8.74007,0.8230929,8.72574,0.8955569999999999Q8.711400000000001,0.968021,8.6832,1.036296Q8.65501,1.104571,8.61403,1.166032Q8.57306,1.227494,8.52088,1.2797809999999998ZM8.74,0.75Q8.74,0.8238685,8.72559,0.896318Q8.711179999999999,0.9687669999999999,8.68291,1.037013Q8.65464,1.105258,8.6136,1.166678Q8.57256,1.228097,8.520330000000001,1.28033Q8.4681,1.332563,8.40668,1.373602Q8.34526,1.414641,8.27701,1.44291Q8.208770000000001,1.471178,8.136320000000001,1.485589Q8.06387,1.5,7.99,1.5Q7.91613,1.5,7.84368,1.485589Q7.77123,1.471178,7.70299,1.44291Q7.63474,1.414641,7.57332,1.373602Q7.5119,1.332563,7.45967,1.28033Q7.40744,1.228097,7.3664,1.166678Q7.32536,1.105258,7.29709,1.037013Q7.26882,0.9687669999999999,7.25441,0.896318Q7.24,0.8238685,7.24,0.75Q7.24,0.6761315,7.25441,0.603682Q7.26882,0.5312330000000001,7.29709,0.462987Q7.32536,0.394742,7.3664,0.333322Q7.40744,0.271903,7.45967,0.21967000000000003Q7.5119,0.16743699999999995,7.57332,0.126398Q7.63474,0.08535899999999996,7.70299,0.057089999999999974Q7.77123,0.028822000000000014,7.84368,0.014410999999999952Q7.91613,0,7.99,0Q8.06387,0,8.136320000000001,0.014410999999999952Q8.208770000000001,0.028822000000000014,8.27701,0.057089999999999974Q8.34526,0.08535899999999996,8.40668,0.126398Q8.4681,0.16743699999999995,8.520330000000001,0.21967000000000003Q8.57256,0.271903,8.6136,0.333322Q8.65464,0.394742,8.68291,0.462987Q8.711179999999999,0.5312330000000001,8.72559,0.603682Q8.74,0.6761315,8.74,0.75ZM1.5,3.17Q1.5,3.24387,1.485589,3.31632Q1.471178,3.38877,1.44291,3.45701Q1.414641,3.52526,1.373602,3.58668Q1.332563,3.6481,1.28033,3.70033Q1.228097,3.75256,1.166678,3.7936Q1.105258,3.83464,1.037013,3.86291Q0.9687669999999999,3.89118,0.896318,3.90559Q0.8238685,3.92,0.75,3.92Q0.6761315,3.92,0.603682,3.90559Q0.5312330000000001,3.89118,0.462987,3.86291Q0.394742,3.83464,0.333322,3.7936Q0.271903,3.75256,0.21967000000000003,3.70033Q0.16743699999999995,3.6481,0.126398,3.58668Q0.08535899999999996,3.52526,0.057089999999999974,3.45701Q0.028822000000000014,3.38877,0.014410999999999952,3.31632Q0,3.24387,0,3.17Q0,3.09613,0.014410999999999952,3.02368Q0.028822000000000014,2.95123,0.057089999999999974,2.88299Q0.08535899999999996,2.81474,0.126398,2.75332Q0.16743699999999995,2.6919,0.21967000000000003,2.6396699999999997Q0.271903,2.58744,0.333322,2.5464Q0.394742,2.50536,0.462987,2.47709Q0.5312330000000001,2.44882,0.603682,2.4344099999999997Q0.6761315,2.42,0.75,2.42Q0.8238685,2.42,0.896318,2.4344099999999997Q0.9687669999999999,2.44882,1.037013,2.47709Q1.105258,2.50536,1.166678,2.5464Q1.228097,2.58744,1.28033,2.6396699999999997Q1.332563,2.6919,1.373602,2.75332Q1.414641,2.81474,1.44291,2.88299Q1.471178,2.95123,1.485589,3.02368Q1.5,3.09613,1.5,3.17Z" fill="#000000" fill-opacity="1"/></g></svg>