<svg xmlns="http://www.w3.org/2000/svg" xmlns:xlink="http://www.w3.org/1999/xlink" fill="none" version="1.1" width="14" height="14" viewBox="0 0 14 14"><g><g style="opacity:0;"></g><g><g><path d="M9.502438016548156,3.317224359512329C9.502438016548156,3.317224359512329,4.502836016548157,3.317224359512329,4.502836016548157,3.317224359512329C4.286609016548157,3.317224359512329,4.107298016548157,3.089141359512329,4.107298016548157,2.814099359512329C4.107298016548157,2.539057359512329,4.286609016548157,2.310974359512329,4.502836016548157,2.310974359512329C4.502836016548157,2.310974359512329,9.497158016548156,2.310974359512329,9.497158016548156,2.310974359512329C9.713388016548157,2.310974359512329,9.892698016548156,2.539057359512329,9.892698016548156,2.814099359512329C9.892698016548156,3.089141359512329,9.718668016548158,3.317224359512329,9.502438016548156,3.317224359512329Z" fill="#2B3D56" fill-opacity="1"/></g><g><path d="M12.314135197257995,7.503125715255737C12.314135197257995,7.503125715255737,1.6858781972579955,7.503125715255737,1.6858781972579955,7.503125715255737C1.4437911972579955,7.503125715255737,1.2430351972579956,7.265125715255738,1.2430351972579956,6.978125715255738C1.2430351972579956,6.691125715255737,1.4437911972579955,6.453125715255737,1.6858781972579955,6.453125715255737C1.6858781972579955,6.453125715255737,12.314135197257995,6.453125715255737,12.314135197257995,6.453125715255737C12.556235197257996,6.453125715255737,12.756935197257995,6.691125715255737,12.756935197257995,6.978125715255738C12.756935197257995,7.265125715255738,12.556235197257996,7.503125715255737,12.314135197257995,7.503125715255737Z" fill="#2B3D56" fill-opacity="1"/></g><g><path d="M9.611237686119079,11.689026880264283C9.611237686119079,11.689026880264283,4.394262686119079,11.689026880264283,4.394262686119079,11.689026880264283C4.16863468611908,11.689026880264283,3.9815276861190796,11.451026880264282,3.9815276861190796,11.164026880264283C3.9815276861190796,10.877026880264282,4.16863468611908,10.639026880264282,4.394262686119079,10.639026880264282C4.394262686119079,10.639026880264282,9.60573768611908,10.639026880264282,9.60573768611908,10.639026880264282C9.83135768611908,10.639026880264282,10.018467686119081,10.877026880264282,10.018467686119081,11.164026880264283C10.018467686119081,11.451026880264282,9.83686768611908,11.689026880264283,9.611237686119079,11.689026880264283Z" fill="#2B3D56" fill-opacity="1"/></g></g></g></svg>