<svg xmlns="http://www.w3.org/2000/svg" xmlns:xlink="http://www.w3.org/1999/xlink" fill="none" version="1.1" width="28" height="28" viewBox="0 0 28 28"><defs><clipPath id="master_svg0_1547_05168"><rect x="0" y="0" width="28" height="28" rx="0"/></clipPath></defs><g><g clip-path="url(#master_svg0_1547_05168)"><g><ellipse cx="14.5" cy="10.5" rx="3.5" ry="3.5" fill-opacity="0" stroke-opacity="1" stroke="#333333" fill="none" stroke-width="1.5" stroke-linecap="ROUND" stroke-linejoin="round"/></g><g><path d="M9.3951,16.20626Q7.25,18.18635,7.25,21Q7.25,21.07387,7.264411,21.14632Q7.278822,21.21877,7.30709,21.287010000000002Q7.335359,21.35526,7.376398,21.41668Q7.417437,21.4781,7.46967,21.53033Q7.521903,21.58256,7.583322,21.6236Q7.644742,21.66464,7.712987,21.69291Q7.781233,21.72118,7.853682,21.735590000000002Q7.9261315,21.75,8,21.75Q8.0738685,21.75,8.146318,21.735590000000002Q8.218767,21.72118,8.287013,21.69291Q8.355258,21.66464,8.416678,21.6236Q8.478097,21.58256,8.53033,21.53033Q8.582563,21.4781,8.623602,21.41668Q8.664641,21.35526,8.69291,21.287010000000002Q8.721178,21.21877,8.735589000000001,21.14632Q8.75,21.07387,8.75,21Q8.75,18.8431,10.41252,17.30847Q12.10086,15.75,14.5,15.75Q16.89914,15.75,18.5875,17.30847Q20.25,18.8431,20.25,21Q20.25,21.07387,20.264400000000002,21.14632Q20.2788,21.21877,20.3071,21.287010000000002Q20.3354,21.35526,20.3764,21.41668Q20.4174,21.4781,20.4697,21.53033Q20.521900000000002,21.58256,20.5833,21.6236Q20.6447,21.66464,20.713,21.69291Q20.7812,21.72118,20.8537,21.735590000000002Q20.926099999999998,21.75,21,21.75Q21.073900000000002,21.75,21.1463,21.735590000000002Q21.2188,21.72118,21.287,21.69291Q21.3553,21.66464,21.4167,21.6236Q21.478099999999998,21.58256,21.5303,21.53033Q21.5826,21.4781,21.6236,21.41668Q21.6646,21.35526,21.6929,21.287010000000002Q21.7212,21.21877,21.735599999999998,21.14632Q21.75,21.07387,21.75,21Q21.75,18.18635,19.6049,16.20626Q17.48562,14.25,14.5,14.25Q11.51438,14.25,9.3951,16.20626Z" fill-rule="evenodd" fill="#333333" fill-opacity="1"/></g><g><path d="M23.91667,4.08349609375L23.91667,8.00016609375Q23.91667,8.07403609375,23.93108,8.14647609375Q23.94549,8.21892609375,23.97376,8.28717609375Q24.00202,8.35541609375,24.04306,8.41683609375Q24.0841,8.47825609375,24.13634,8.53049609375Q24.18857,8.58272609375,24.24999,8.62376609375Q24.311410000000002,8.66480609375,24.379649999999998,8.693076093750001Q24.4479,8.72133609375,24.52035,8.73574609375Q24.5928,8.75016609375,24.66667,8.75016609375Q24.74054,8.75016609375,24.81298,8.73574609375Q24.88543,8.72133609375,24.95368,8.693076093750001Q25.02192,8.66480609375,25.08334,8.62376609375Q25.144759999999998,8.58272609375,25.197,8.53049609375Q25.24923,8.47825609375,25.29027,8.41683609375Q25.331310000000002,8.35541609375,25.35958,8.28717609375Q25.38784,8.21892609375,25.402250000000002,8.14647609375Q25.41667,8.07403609375,25.41667,8.00016609375L25.41667,3.33349609375Q25.41667,3.25962759375,25.402250000000002,3.18717809375Q25.38784,3.11472909375,25.35958,3.04648309375Q25.331310000000002,2.97823809375,25.29027,2.91681809375Q25.24923,2.85539909375,25.197,2.80316609375Q25.144759999999998,2.75093309375,25.08334,2.70989409375Q25.02192,2.66885509375,24.95368,2.64058609375Q24.88543,2.61231809375,24.81298,2.59790709375Q24.74054,2.58349609375,24.66667,2.58349609375L20,2.58349609375Q19.9261315,2.58349609375,19.853682,2.59790709375Q19.781233,2.61231809375,19.712987,2.64058609375Q19.644742,2.66885509375,19.583322,2.70989409375Q19.521903000000002,2.75093309375,19.46967,2.80316609375Q19.417437,2.85539909375,19.376398000000002,2.91681809375Q19.335359,2.97823809375,19.30709,3.04648309375Q19.278822,3.11472909375,19.264411,3.18717809375Q19.25,3.25962759375,19.25,3.33349609375Q19.25,3.40736459375,19.264411,3.47981409375Q19.278822,3.55226309375,19.30709,3.62050909375Q19.335359,3.68875409375,19.376398000000002,3.75017409375Q19.417437,3.81159309375,19.46967,3.86382609375Q19.521903000000002,3.91605909375,19.583322,3.95709809375Q19.644742,3.99813709375,19.712987,4.02640609375Q19.781233,4.05467409375,19.853682,4.06908509375Q19.9261315,4.08349609375,20,4.08349609375L23.91667,4.08349609375Z" fill-rule="evenodd" fill="#333333" fill-opacity="1"/></g><g><path d="M2.58349609375,3.33349609375L2.58349609375,8.00016609375Q2.58349609375,8.07403609375,2.59790709375,8.14647609375Q2.61231809375,8.21892609375,2.64058609375,8.28717609375Q2.66885509375,8.35541609375,2.70989409375,8.41683609375Q2.75093309375,8.47825609375,2.80316609375,8.53049609375Q2.85539909375,8.58272609375,2.91681809375,8.62376609375Q2.97823809375,8.66480609375,3.04648309375,8.693076093750001Q3.11472909375,8.72133609375,3.18717809375,8.73574609375Q3.25962759375,8.75016609375,3.33349609375,8.75016609375Q3.40736459375,8.75016609375,3.47981409375,8.73574609375Q3.55226309375,8.72133609375,3.62050909375,8.693076093750001Q3.68875409375,8.66480609375,3.75017409375,8.62376609375Q3.81159309375,8.58272609375,3.86382609375,8.53049609375Q3.91605909375,8.47825609375,3.95709809375,8.41683609375Q3.99813709375,8.35541609375,4.02640609375,8.28717609375Q4.05467409375,8.21892609375,4.06908509375,8.14647609375Q4.08349609375,8.07403609375,4.08349609375,8.00016609375L4.08349609375,4.08349609375L8.00016609375,4.08349609375Q8.07403609375,4.08349609375,8.14647609375,4.06908509375Q8.21892609375,4.05467409375,8.28717609375,4.02640609375Q8.35541609375,3.99813709375,8.41683609375,3.95709809375Q8.47825609375,3.91605909375,8.53049609375,3.86382609375Q8.58272609375,3.81159309375,8.62376609375,3.75017409375Q8.66480609375,3.68875409375,8.693076093750001,3.62050909375Q8.72133609375,3.55226309375,8.73574609375,3.47981409375Q8.75016609375,3.40736459375,8.75016609375,3.33349609375Q8.75016609375,3.25962759375,8.73574609375,3.18717809375Q8.72133609375,3.11472909375,8.693076093750001,3.04648309375Q8.66480609375,2.97823809375,8.62376609375,2.91681809375Q8.58272609375,2.85539909375,8.53049609375,2.80316609375Q8.47825609375,2.75093309375,8.41683609375,2.70989409375Q8.35541609375,2.66885509375,8.28717609375,2.64058609375Q8.21892609375,2.61231809375,8.14647609375,2.59790709375Q8.07403609375,2.58349609375,8.00016609375,2.58349609375L3.33349609375,2.58349609375Q3.25962759375,2.58349609375,3.18717809375,2.59790709375Q3.11472909375,2.61231809375,3.04648309375,2.64058609375Q2.97823809375,2.66885509375,2.91681809375,2.70989409375Q2.85539909375,2.75093309375,2.80316609375,2.80316609375Q2.75093309375,2.85539909375,2.70989409375,2.91681809375Q2.66885509375,2.97823809375,2.64058609375,3.04648309375Q2.61231809375,3.11472909375,2.59790709375,3.18717809375Q2.58349609375,3.25962759375,2.58349609375,3.33349609375Z" fill-rule="evenodd" fill="#333333" fill-opacity="1"/></g><g><path d="M25.41667,24.66667L25.41667,20Q25.41667,19.9261315,25.402250000000002,19.853682Q25.38784,19.781233,25.35958,19.712987Q25.331310000000002,19.644742,25.29027,19.583322Q25.24923,19.521903000000002,25.197,19.46967Q25.144759999999998,19.417437,25.08334,19.376398000000002Q25.02192,19.335359,24.95368,19.30709Q24.88543,19.278822,24.81298,19.264411Q24.74054,19.25,24.66667,19.25Q24.5928,19.25,24.52035,19.264411Q24.4479,19.278822,24.379649999999998,19.30709Q24.311410000000002,19.335359,24.24999,19.376398000000002Q24.18857,19.417437,24.13634,19.46967Q24.0841,19.521903000000002,24.04306,19.583322Q24.00202,19.644742,23.97376,19.712987Q23.94549,19.781233,23.93108,19.853682Q23.91667,19.9261315,23.91667,20L23.91667,23.91667L20,23.91667Q19.9261315,23.91667,19.853682,23.93108Q19.781233,23.94549,19.712987,23.97376Q19.644742,24.00202,19.583322,24.04306Q19.521903000000002,24.0841,19.46967,24.13634Q19.417437,24.18857,19.376398000000002,24.24999Q19.335359,24.311410000000002,19.30709,24.379649999999998Q19.278822,24.4479,19.264411,24.52035Q19.25,24.5928,19.25,24.66667Q19.25,24.74054,19.264411,24.81298Q19.278822,24.88543,19.30709,24.95368Q19.335359,25.02192,19.376398000000002,25.08334Q19.417437,25.144759999999998,19.46967,25.197Q19.521903000000002,25.24923,19.583322,25.29027Q19.644742,25.331310000000002,19.712987,25.35958Q19.781233,25.38784,19.853682,25.402250000000002Q19.9261315,25.41667,20,25.41667L24.66667,25.41667Q24.74054,25.41667,24.81298,25.402250000000002Q24.88543,25.38784,24.95368,25.35958Q25.02192,25.331310000000002,25.08334,25.29027Q25.144759999999998,25.24923,25.197,25.197Q25.24923,25.144759999999998,25.29027,25.08334Q25.331310000000002,25.02192,25.35958,24.95368Q25.38784,24.88543,25.402250000000002,24.81298Q25.41667,24.74054,25.41667,24.66667Z" fill-rule="evenodd" fill="#333333" fill-opacity="1"/></g><g><path d="M4.08349609375,23.91667L4.08349609375,20Q4.08349609375,19.9261315,4.06908509375,19.853682Q4.05467409375,19.781233,4.02640609375,19.712987Q3.99813709375,19.644742,3.95709809375,19.583322Q3.91605909375,19.521903000000002,3.86382609375,19.46967Q3.81159309375,19.417437,3.75017409375,19.376398000000002Q3.68875409375,19.335359,3.62050909375,19.30709Q3.55226309375,19.278822,3.47981409375,19.264411Q3.40736459375,19.25,3.33349609375,19.25Q3.25962759375,19.25,3.18717809375,19.264411Q3.11472909375,19.278822,3.04648309375,19.30709Q2.97823809375,19.335359,2.91681809375,19.376398000000002Q2.85539909375,19.417437,2.80316609375,19.46967Q2.75093309375,19.521903000000002,2.70989409375,19.583322Q2.66885509375,19.644742,2.64058609375,19.712987Q2.61231809375,19.781233,2.59790709375,19.853682Q2.58349609375,19.9261315,2.58349609375,20L2.58349609375,24.66667Q2.58349609375,24.74054,2.59790709375,24.81298Q2.61231809375,24.88543,2.64058609375,24.95368Q2.66885509375,25.02192,2.70989409375,25.08334Q2.75093309375,25.144759999999998,2.80316609375,25.197Q2.85539909375,25.24923,2.91681809375,25.29027Q2.97823809375,25.331310000000002,3.04648309375,25.35958Q3.11472909375,25.38784,3.18717809375,25.402250000000002Q3.25962759375,25.41667,3.33349609375,25.41667L8.00016609375,25.41667Q8.07403609375,25.41667,8.14647609375,25.402250000000002Q8.21892609375,25.38784,8.28717609375,25.35958Q8.35541609375,25.331310000000002,8.41683609375,25.29027Q8.47825609375,25.24923,8.53049609375,25.197Q8.58272609375,25.144759999999998,8.62376609375,25.08334Q8.66480609375,25.02192,8.693076093750001,24.95368Q8.72133609375,24.88543,8.73574609375,24.81298Q8.75016609375,24.74054,8.75016609375,24.66667Q8.75016609375,24.5928,8.73574609375,24.52035Q8.72133609375,24.4479,8.693076093750001,24.379649999999998Q8.66480609375,24.311410000000002,8.62376609375,24.24999Q8.58272609375,24.18857,8.53049609375,24.13634Q8.47825609375,24.0841,8.41683609375,24.04306Q8.35541609375,24.00202,8.28717609375,23.97376Q8.21892609375,23.94549,8.14647609375,23.93108Q8.07403609375,23.91667,8.00016609375,23.91667L4.08349609375,23.91667Z" fill-rule="evenodd" fill="#333333" fill-opacity="1"/></g></g></g></svg>