<svg xmlns="http://www.w3.org/2000/svg" xmlns:xlink="http://www.w3.org/1999/xlink" fill="none" version="1.1" width="24" height="24" viewBox="0 0 24 24"><defs><clipPath id="master_svg0_112_04468"><rect x="0" y="0" width="24" height="24" rx="0"/></clipPath></defs><g clip-path="url(#master_svg0_112_04468)"><g><path d="M11.70432,1.596797Q4.000015,7.24663,4,14.5Q4,17.8137,6.34314,20.1569Q8.68628,22.5,12,22.5Q15.3137,22.5,17.6569,20.1569Q20,17.8137,20,14.5Q20,7.24663,12.29568,1.596797Q12.231359999999999,1.54963,12.155560000000001,1.524815Q12.07976,1.5,12,1.5Q11.92024,1.5,11.844439999999999,1.524815Q11.768640000000001,1.54963,11.70432,1.596797ZM7.05025,19.4498Q5,17.3995,5,14.5Q5,7.8915,12,2.622864Q19,7.8915,19,14.5Q19,17.3995,16.9498,19.4498Q14.8995,21.5,12,21.5Q9.10049,21.5,7.05025,19.4498Z" fill-rule="evenodd" fill="#015C5F" fill-opacity="1"/></g><g><path d="M4.5,14.500049591064453C4.5,18.642199591064454,7.85785,22.000049591064453,12,22.000049591064453C16.142200000000003,22.000049591064453,19.5,18.642199591064454,19.5,14.500049591064453Q15,16.000049591064453,12,14.500049591064453Q9,13.000049591064453,4.5,14.500049591064453Z" fill="#015C5F" fill-opacity="1"/><path d="M19.341900000000003,14.025707591064453Q15.0384,15.460219591064453,12.22361,14.052835591064452Q9.03836,12.460219591064453,4.341886,14.025707591064453Q4.267219,14.050596591064453,4.203809,14.097220591064453Q4.140399,14.143844591064454,4.094379,14.207694591064453Q4.048359,14.271543591064454,4.024179,14.346443591064453Q4,14.421343591064453,4,14.500049591064453Q4,17.813769591064453,6.34314,20.156909591064455Q8.68628,22.500049591064453,12,22.500049591064453Q15.3137,22.500049591064453,17.6569,20.156909591064455Q20,17.813769591064453,20,14.500049591064453Q20,14.450803591064453,19.9904,14.402504591064453Q19.980800000000002,14.354204591064454,19.9619,14.308707591064453Q19.9431,14.263210591064453,19.9157,14.222264591064453Q19.8884,14.181318591064453,19.8536,14.146496591064453Q19.8187,14.111674591064453,19.7778,14.084314591064453Q19.736800000000002,14.056955591064453,19.6913,14.038109591064453Q19.6458,14.019264591064452,19.5975,14.009656591064454Q19.5492,14.000049591064453,19.5,14.000049591064453Q19.4189,14.000049591064453,19.341900000000003,14.025707591064453ZM5.008121,14.861659591064454Q9.07691,13.597524591064452,11.77639,14.947259591064453Q14.7255,16.421799591064453,18.97,15.189169591064452Q18.752000000000002,17.647589591064452,16.9498,19.449799591064455Q14.8995,21.500049591064453,12,21.500049591064453Q9.10049,21.500049591064453,7.05025,19.449799591064455Q5.129036,17.528589591064453,5.008121,14.861659591064454Z" fill-rule="evenodd" fill="#015C5F" fill-opacity="1"/></g></g></svg>