<svg xmlns="http://www.w3.org/2000/svg" xmlns:xlink="http://www.w3.org/1999/xlink" fill="none" version="1.1" width="24" height="24" viewBox="0 0 24 24"><defs><clipPath id="master_svg0_112_00973"><rect x="0" y="0" width="24" height="24" rx="0"/></clipPath></defs><g clip-path="url(#master_svg0_112_00973)"><g><rect x="0" y="0" width="24" height="24" rx="0" fill="#FFFFFF" fill-opacity="0.009999999776482582"/></g><g><path d="M11.55648,1.3951959999999999Q3.75,7.11995,3.75,14.5Q3.75,17.917299999999997,6.16636,20.3336Q8.58272,22.75,12,22.75Q15.4173,22.75,17.8336,20.3336Q20.25,17.917299999999997,20.25,14.5Q20.25,7.11995,12.44352,1.3951959999999999Q12.39559,1.3600430000000001,12.34271,1.3328799999999998Q12.28984,1.305717,12.23334,1.287223Q12.17685,1.2687279999999999,12.11815,1.2593640000000001Q12.05944,1.25,12,1.25Q11.94056,1.25,11.88185,1.2593640000000001Q11.82315,1.2687279999999999,11.76666,1.287223Q11.71016,1.305717,11.65729,1.3328799999999998Q11.60441,1.3600430000000001,11.55648,1.3951959999999999ZM7.2270199999999996,19.273Q5.25,17.296,5.25,14.5Q5.25,8.08738,12,2.936547Q18.75,8.08738,18.75,14.5Q18.75,17.2959,16.773,19.273Q14.796,21.25,12,21.25Q9.204049999999999,21.25,7.2270199999999996,19.273Z" fill-rule="evenodd" fill="#333333" fill-opacity="1"/></g><g><path d="M19.2628,13.7884875Q15.0575,15.19025,12.33541,13.8291796Q9.057549999999999,12.19025,4.262829,13.7884876Q4.207172,13.8070401,4.155076,13.8340215Q4.10298,13.861003,4.055714,13.895757Q4.008447,13.930511,3.96716,13.972192Q3.925872,14.013873,3.891568,14.061467Q3.857264,14.109061,3.830779,14.161411Q3.804293,14.21376,3.786269,14.269591Q3.768245,14.325423,3.7591229999999998,14.383377Q3.75,14.441332,3.75,14.5Q3.75,17.917270000000002,6.16636,20.33364Q8.58273,22.75,12,22.75Q15.4173,22.75,17.8336,20.33364Q20.25,17.917270000000002,20.25,14.5Q20.25,14.426131,20.235599999999998,14.353682Q20.2212,14.281233,20.1929,14.212987Q20.1646,14.144742,20.1236,14.083322Q20.0826,14.021903,20.0303,13.96967Q19.978099999999998,13.917437,19.9167,13.876398Q19.8553,13.8353586,19.787,13.8070903Q19.7188,13.7788221,19.6463,13.764411Q19.573900000000002,13.75,19.5,13.75Q19.3783,13.75,19.2628,13.7884875ZM5.269224,15.04345Q9.116620000000001,13.896835,11.66459,15.170819999999999Q14.5742,16.62564,18.6791,15.52974Q18.375500000000002,17.6704,16.773,19.27298Q14.796,21.25,12,21.25Q9.204049999999999,21.25,7.2270199999999996,19.27298Q5.444952,17.4909,5.269224,15.04345Z" fill-rule="evenodd" fill="#333333" fill-opacity="1"/></g></g></svg>