<svg xmlns="http://www.w3.org/2000/svg" xmlns:xlink="http://www.w3.org/1999/xlink" fill="none" version="1.1" width="24" height="24" viewBox="0 0 24 24"><g><g><path d="M12.75,8.5L12.75,3Q12.75,2.9261315,12.735589000000001,2.853682Q12.721178,2.781233,12.69291,2.712987Q12.664641,2.644742,12.623602,2.583322Q12.582563,2.521903,12.53033,2.46967Q12.478097,2.417437,12.416678,2.376398Q12.355258,2.335359,12.287013,2.30709Q12.218767,2.278822,12.146318,2.264411Q12.0738685,2.25,12,2.25Q11.9261315,2.25,11.853682,2.264411Q11.781233,2.278822,11.712987,2.30709Q11.644742,2.335359,11.583322,2.376398Q11.521903,2.417437,11.46967,2.46967Q11.417437,2.521903,11.376398,2.583322Q11.335359,2.644742,11.30709,2.712987Q11.278822,2.781233,11.264410999999999,2.853682Q11.25,2.9261315,11.25,3L11.25,8.5Q11.25,8.57387,11.264410999999999,8.64632Q11.278822,8.71877,11.30709,8.78701Q11.335359,8.855260000000001,11.376398,8.91668Q11.417437,8.978100000000001,11.46967,9.03033Q11.521903,9.08256,11.583322,9.1236Q11.644742,9.16464,11.712987,9.192910000000001Q11.781233,9.22118,11.853682,9.23559Q11.9261315,9.25,12,9.25Q12.0738685,9.25,12.146318,9.23559Q12.218767,9.22118,12.287013,9.192910000000001Q12.355258,9.16464,12.416678,9.1236Q12.478097,9.08256,12.53033,9.03033Q12.582563,8.978100000000001,12.623602,8.91668Q12.664641,8.855260000000001,12.69291,8.78701Q12.721178,8.71877,12.735589000000001,8.64632Q12.75,8.57387,12.75,8.5Z" fill-rule="evenodd" fill="#FFFFFF" fill-opacity="1"/></g><g><path d="M12.75,21L12.75,15.5Q12.75,15.4261315,12.735589000000001,15.353682Q12.721178,15.281233,12.69291,15.212987Q12.664641,15.144742,12.623602,15.083322Q12.582563,15.021903,12.53033,14.96967Q12.478097,14.917437,12.416678,14.876398Q12.355258,14.835359,12.287013,14.80709Q12.218767,14.778822,12.146318,14.764410999999999Q12.0738685,14.75,12,14.75Q11.9261315,14.75,11.853682,14.764410999999999Q11.781233,14.778822,11.712987,14.80709Q11.644742,14.835359,11.583322,14.876398Q11.521903,14.917437,11.46967,14.96967Q11.417437,15.021903,11.376398,15.083322Q11.335359,15.144742,11.30709,15.212987Q11.278822,15.281233,11.264410999999999,15.353682Q11.25,15.4261315,11.25,15.5L11.25,21Q11.25,21.07387,11.264410999999999,21.14632Q11.278822,21.21877,11.30709,21.287010000000002Q11.335359,21.35526,11.376398,21.41668Q11.417437,21.4781,11.46967,21.53033Q11.521903,21.58256,11.583322,21.6236Q11.644742,21.66464,11.712987,21.69291Q11.781233,21.72118,11.853682,21.735590000000002Q11.9261315,21.75,12,21.75Q12.0738685,21.75,12.146318,21.735590000000002Q12.218767,21.72118,12.287013,21.69291Q12.355258,21.66464,12.416678,21.6236Q12.478097,21.58256,12.53033,21.53033Q12.582563,21.4781,12.623602,21.41668Q12.664641,21.35526,12.69291,21.287010000000002Q12.721178,21.21877,12.735589000000001,21.14632Q12.75,21.07387,12.75,21Z" fill-rule="evenodd" fill="#FFFFFF" fill-opacity="1"/></g><g><path d="M10,3.75L14,3.75Q14.07387,3.75,14.14632,3.735589Q14.21877,3.721178,14.28701,3.69291Q14.355260000000001,3.664641,14.41668,3.623602Q14.478100000000001,3.582563,14.53033,3.53033Q14.58256,3.478097,14.6236,3.416678Q14.66464,3.355258,14.692910000000001,3.287013Q14.72118,3.218767,14.73559,3.146318Q14.75,3.0738685,14.75,3Q14.75,2.9261315,14.73559,2.853682Q14.72118,2.781233,14.692910000000001,2.712987Q14.66464,2.644742,14.6236,2.583322Q14.58256,2.521903,14.53033,2.46967Q14.478100000000001,2.417437,14.41668,2.376398Q14.355260000000001,2.335359,14.28701,2.30709Q14.21877,2.278822,14.14632,2.264411Q14.07387,2.25,14,2.25L10,2.25Q9.9261315,2.25,9.853682,2.264411Q9.781233,2.278822,9.712987,2.30709Q9.644742,2.335359,9.583322,2.376398Q9.521903,2.417437,9.46967,2.46967Q9.417437,2.521903,9.376398,2.583322Q9.335359,2.644742,9.30709,2.712987Q9.278822,2.781233,9.264410999999999,2.853682Q9.25,2.9261315,9.25,3Q9.25,3.0738685,9.264410999999999,3.146318Q9.278822,3.218767,9.30709,3.287013Q9.335359,3.355258,9.376398,3.416678Q9.417437,3.478097,9.46967,3.53033Q9.521903,3.582563,9.583322,3.623602Q9.644742,3.664641,9.712987,3.69291Q9.781233,3.721178,9.853682,3.735589Q9.9261315,3.75,10,3.75Z" fill-rule="evenodd" fill="#FFFFFF" fill-opacity="1"/></g><g><path d="M10,21.75L14,21.75Q14.07387,21.75,14.14632,21.735589Q14.21877,21.721178,14.28701,21.69291Q14.355260000000001,21.664641,14.41668,21.623601999999998Q14.478100000000001,21.582563,14.53033,21.53033Q14.58256,21.478096999999998,14.6236,21.416678Q14.66464,21.355258,14.692910000000001,21.287013Q14.72118,21.218767,14.73559,21.146318Q14.75,21.0738685,14.75,21Q14.75,20.9261315,14.73559,20.853682Q14.72118,20.781233,14.692910000000001,20.712987Q14.66464,20.644742,14.6236,20.583322Q14.58256,20.521903000000002,14.53033,20.46967Q14.478100000000001,20.417437,14.41668,20.376398000000002Q14.355260000000001,20.335359,14.28701,20.30709Q14.21877,20.278822,14.14632,20.264411Q14.07387,20.25,14,20.25L10,20.25Q9.9261315,20.25,9.853682,20.264411Q9.781233,20.278822,9.712987,20.30709Q9.644742,20.335359,9.583322,20.376398000000002Q9.521903,20.417437,9.46967,20.46967Q9.417437,20.521903000000002,9.376398,20.583322Q9.335359,20.644742,9.30709,20.712987Q9.278822,20.781233,9.264410999999999,20.853682Q9.25,20.9261315,9.25,21Q9.25,21.0738685,9.264410999999999,21.146318Q9.278822,21.218767,9.30709,21.287013Q9.335359,21.355258,9.376398,21.416678Q9.417437,21.478096999999998,9.46967,21.53033Q9.521903,21.582563,9.583322,21.623601999999998Q9.644742,21.664641,9.712987,21.69291Q9.781233,21.721178,9.853682,21.735589Q9.9261315,21.75,10,21.75Z" fill-rule="evenodd" fill="#FFFFFF" fill-opacity="1"/></g><g><path d="M4.585264038146972,6.850633L4.585185038146973,6.850588Q4.411077038146972,6.75,4.2100001909629725,6.75Q4.1893163381469725,6.75,4.168664038146972,6.75114Q4.075348038146973,6.756291,3.9861510381469727,6.784185Q3.8969530381469726,6.812079,3.8173280381469725,6.86101Q3.7377030381469725,6.909941,3.6725220381469725,6.976916Q3.6073400381469725,7.043891,3.560588038146973,7.124815Q3.4600000381469727,7.298923,3.4600000381469727,7.5Q3.4600000381469727,7.5206836,3.4611400381469726,7.541336Q3.4662910381469727,7.634652,3.4941850381469726,7.723849Q3.5220790381469724,7.813047,3.571010038146973,7.892672Q3.6199410381469725,7.972297,3.6869160381469728,8.037478Q3.7538910381469726,8.10266,3.8348150381469726,8.149412L3.834893038146973,8.149457L8.594740038146973,10.89937L8.594810038146973,10.89941Q8.768920038146973,11,8.970000038146972,11Q8.990680038146973,11,9.011340038146972,10.99886Q9.104650038146973,10.99371,9.193850038146973,10.96582Q9.283050038146973,10.93792,9.362670038146973,10.88899Q9.442300038146973,10.84006,9.507480038146973,10.77308Q9.572660038146973,10.706109999999999,9.619410038146974,10.62519Q9.720000038146972,10.451080000000001,9.720000038146972,10.25L9.719880038146972,10.23671Q9.718250038146973,10.14485,9.694500038146973,10.056090000000001Q9.655930038146973,9.91198,9.565150038146973,9.7936Q9.474360038146973,9.67522,9.345190038146972,9.60059L9.345110038146974,9.60054L4.585264038146972,6.850633Z" fill-rule="evenodd" fill="#FFFFFF" fill-opacity="1"/></g><g><path d="M15.405263732971191,13.100633L15.405184732971192,13.100588Q15.231076732971191,13,15.029999885787191,13Q15.009316032971192,13,14.988663732971192,13.00114Q14.895347732971192,13.006291000000001,14.806150732971192,13.034185Q14.716952732971192,13.062079,14.637327732971192,13.11101Q14.557702732971192,13.159941,14.492521732971191,13.226916Q14.427339732971191,13.293891,14.380587732971192,13.374815Q14.279999732971191,13.548923,14.279999732971191,13.75Q14.279999732971191,13.7706836,14.28113973297119,13.791336Q14.286290732971192,13.884651999999999,14.314184732971192,13.973849Q14.342078732971192,14.063047,14.391009732971192,14.142672Q14.439940732971191,14.222297,14.50691573297119,14.287478Q14.573890732971192,14.35266,14.654814732971191,14.399412L14.654892732971192,14.399457L19.414739732971192,17.14937L19.414809732971193,17.14941Q19.588919732971192,17.25,19.78999973297119,17.25Q19.81067973297119,17.25,19.83133973297119,17.24886Q19.92464973297119,17.24371,20.01384973297119,17.21582Q20.103049732971193,17.18792,20.182669732971192,17.13899Q20.262299732971194,17.09006,20.32747973297119,17.02308Q20.39265973297119,16.95611,20.439409732971193,16.87519Q20.53999973297119,16.70108,20.53999973297119,16.5L20.53987973297119,16.48671Q20.53824973297119,16.394849999999998,20.514499732971192,16.30609Q20.475929732971192,16.16198,20.385149732971193,16.0436Q20.29435973297119,15.92522,20.165189732971193,15.85059L20.165109732971192,15.85054L15.405263732971191,13.100633Z" fill-rule="evenodd" fill="#FFFFFF" fill-opacity="1"/></g><g><path d="M5.859190038146973,6.145565272460938L5.859330038146973,6.145338272460937Q5.960000038146973,5.971173272460938,5.960000038146973,5.770005548760937L5.959890038146973,5.756883972460938Q5.958280038146972,5.665021272460938,5.934540038146973,5.576262272460937Q5.896010038146972,5.432141272460937,5.805250038146973,5.313739272460937Q5.714490038146973,5.195337272460938,5.585330038146973,5.120678272460937Q5.411170038146972,5.0200042724609375,5.210000038146973,5.0200042724609375L5.196880038146973,5.020119272460938Q5.105020038146972,5.0217262724609375,5.016260038146973,5.045460272460938Q4.872140038146973,5.0839972724609375,4.753740038146972,5.174754272460937Q4.635330038146972,5.265511272460937,4.560670038146973,5.394670272460938L4.560540038146973,5.394897272460938L2.560674038146973,8.854664272460937Q2.4600000381469727,9.028824272460938,2.4600000381469727,9.229994272460937Q2.4600000381469727,9.250594272460937,2.4611310381469726,9.271164272460938Q2.466260038146973,9.364474272460937,2.4941340381469725,9.453684272460936Q2.5220070381469726,9.542884272460938,2.570920038146973,9.622524272460938Q2.6198330381469725,9.702154272460938,2.6867930381469725,9.767354272460938Q2.753753038146973,9.832554272460937,2.8346660381469726,9.879324272460938Q3.0088310381469725,9.979994272460939,3.2100000381469727,9.979994272460939Q3.230597438146973,9.979994272460939,3.2511648381469724,9.978864272460937Q3.344482038146973,9.973734272460938,3.4336860381469725,9.945864272460938Q3.5228900381469725,9.917984272460938,3.602526038146973,9.869074272460939Q3.6821620381469726,9.820164272460937,3.7473590381469726,9.753204272460938Q3.8125560381469725,9.686244272460938,3.8593260381469725,9.605334272460937L5.859190038146973,6.145565272460938Z" fill-rule="evenodd" fill="#FFFFFF" fill-opacity="1"/></g><g><path d="M21.439190915527345,15.145565272460937L21.439330915527343,15.145338272460938Q21.540000915527344,14.971173272460938,21.540000915527344,14.770005548760938L21.539890915527344,14.756883972460937Q21.538280915527345,14.665021272460937,21.514540915527345,14.576262272460937Q21.476010915527343,14.432141272460937,21.385250915527344,14.313739272460937Q21.294490915527344,14.195337272460938,21.165330915527342,14.120678272460937Q20.991170915527345,14.020004272460938,20.790000915527344,14.020004272460938L20.776880915527343,14.020119272460937Q20.685020915527343,14.021726272460938,20.596260915527346,14.045460272460938Q20.452140915527345,14.083997272460937,20.333740915527343,14.174754272460937Q20.215330915527343,14.265511272460937,20.140670915527345,14.394670272460937L20.140540915527342,14.394897272460938L18.140674915527345,17.854664272460937Q18.040000915527344,18.028824272460938,18.040000915527344,18.22999427246094Q18.040000915527344,18.250594272460937,18.041131915527345,18.271164272460936Q18.046260915527345,18.36447427246094,18.074134915527345,18.453684272460936Q18.102007915527345,18.542884272460938,18.150920915527344,18.622524272460936Q18.199833915527343,18.702154272460938,18.266793915527344,18.76735427246094Q18.333753915527343,18.83255427246094,18.414666915527345,18.879324272460938Q18.588831915527344,18.97999427246094,18.790000915527344,18.97999427246094Q18.810598315527344,18.97999427246094,18.831165715527344,18.97886427246094Q18.924482915527342,18.973734272460938,19.013686915527344,18.945864272460938Q19.102890915527343,18.917984272460938,19.182526915527344,18.86907427246094Q19.262162915527345,18.820164272460936,19.327359915527342,18.753204272460938Q19.392556915527344,18.68624427246094,19.439326915527342,18.605334272460937L21.439190915527345,15.145565272460937Z" fill-rule="evenodd" fill="#FFFFFF" fill-opacity="1"/></g><g><path d="M16.25,12Q16.25,10.86383,15.67964,9.87521L15.6785,9.87325Q15.11473,8.902812,14.1506,8.334999Q13.1573,7.75,12,7.75Q10.8427,7.75,9.8494,8.334999Q8.885273,8.902812,8.320361,9.87521Q7.75,10.86383,7.75,12Q7.75,13.13617,8.321495,14.126750000000001Q8.885273,15.097190000000001,9.8494,15.665Q10.8427,16.25,12,16.25Q13.1573,16.25,14.1506,15.665Q15.11473,15.097190000000001,15.67964,14.12479Q16.25,13.13617,16.25,12ZM14.38092,10.62577L14.38149,10.62675Q14.75,11.26662,14.75,12Q14.75,12.7345,14.38036,13.37521Q14.015039999999999,14.00403,13.389389999999999,14.372499999999999Q12.74841,14.75,12,14.75Q11.25158,14.75,10.6106,14.372499999999999Q9.984960000000001,14.00403,9.61851,13.373249999999999Q9.25,12.7345,9.25,12Q9.25,11.2655,9.61964,10.62479Q9.984960000000001,9.99597,10.6106,9.6275Q11.25159,9.25,12,9.25Q12.74841,9.25,13.389389999999999,9.6275Q14.01407,9.9954,14.38036,10.62479L14.38092,10.62577Z" fill-rule="evenodd" fill="#FFFFFF" fill-opacity="1"/></g><g><path d="M14.655084732971192,9.60043L14.654814732971191,9.60059Q14.569341732971191,9.64997,14.499555732971192,9.71978Q14.42977073297119,9.7896,14.380426732971191,9.87509Q14.33108373297119,9.96059,14.305541732971191,10.05594Q14.279999732971191,10.15129,14.279999732971191,10.25Q14.279999732971191,10.26751,14.280816732971191,10.285Q14.289329732971192,10.46723,14.380587732971192,10.62519Q14.455216732971191,10.75436,14.573598732971192,10.84515Q14.691980732971192,10.935929999999999,14.836092732971192,10.974499999999999Q14.931369232971191,11,15.029999732971191,11Q15.041929632971192,11,15.05385383297119,10.99962Q15.242101732971191,10.99363,15.405184732971192,10.89941L15.405455732971191,10.89926L20.165189732971193,8.149412Q20.29435973297119,8.074783,20.385149732971193,7.956401Q20.475929732971192,7.838019,20.514499732971192,7.693907Q20.53999973297119,7.5986306,20.53999973297119,7.500000262328Q20.53999973297119,7.4880699,20.53961973297119,7.4761459Q20.533629732971193,7.287898,20.439409732971193,7.124815Q20.390029732971193,7.0393419999999995,20.32021973297119,6.969557Q20.25039973297119,6.8997720000000005,20.16490973297119,6.850428Q20.07941973297119,6.801084,19.984069732971193,6.775542Q19.88871973297119,6.75,19.78999973297119,6.75Q19.77248973297119,6.75,19.754999732971193,6.750817Q19.572769732971192,6.75933,19.414819732971193,6.850588L14.655084732971192,9.60043Z" fill-rule="evenodd" fill="#FFFFFF" fill-opacity="1"/></g><g><path d="M3.8350850381469725,15.85043L3.8348150381469726,15.85059Q3.7493420381469726,15.89997,3.6795560381469725,15.96978Q3.6097710381469725,16.0396,3.5604270381469725,16.12509Q3.5110840381469726,16.21059,3.4855420381469724,16.30594Q3.4600000381469727,16.40129,3.4600000381469727,16.5Q3.4600000381469727,16.51751,3.4608170381469727,16.535Q3.4693300381469725,16.71723,3.560588038146973,16.87519Q3.6352170381469726,17.00436,3.7535990381469726,17.09515Q3.8719810381469726,17.18593,4.016093038146972,17.2245Q4.111369538146973,17.25,4.210000038146973,17.25Q4.221929938146973,17.25,4.233854138146973,17.24962Q4.4221020381469724,17.24363,4.585185038146973,17.14941L4.5854560381469724,17.149259999999998L9.345190038146972,14.399412Q9.474360038146973,14.324783,9.565150038146973,14.206401Q9.655930038146973,14.088019,9.694500038146973,13.943907Q9.720000038146972,13.8486306,9.720000038146972,13.750000262328Q9.720000038146972,13.7380699,9.719620038146973,13.7261459Q9.713630038146974,13.537898,9.619410038146974,13.374815Q9.570030038146973,13.289342,9.500220038146972,13.219557Q9.430400038146972,13.149772,9.344910038146972,13.100428Q9.259420038146972,13.051084,9.164070038146972,13.025542Q9.068720038146973,13,8.970000038146972,13Q8.952490038146973,13,8.935000038146972,13.000817Q8.752770038146974,13.00933,8.594820038146974,13.100588L3.8350850381469725,15.85043Z" fill-rule="evenodd" fill="#FFFFFF" fill-opacity="1"/></g><g><path d="M21.439310915527344,8.854624272460939L19.439326915527342,5.394670272460938Q19.364668915527343,5.265511272460937,19.246265915527342,5.174754272460937Q19.127863915527342,5.083998272460938,18.983742915527344,5.045460272460938Q18.888544315527344,5.0200042724609375,18.790001316215342,5.0200042724609375Q18.777985015527342,5.0200042724609375,18.765975315527342,5.020389272460937Q18.577728915527345,5.0264222724609375,18.414666915527345,5.120678272460937Q18.285507915527344,5.1953362724609375,18.194750915527344,5.313739272460937Q18.103994915527345,5.432141272460937,18.065456915527342,5.576262272460937Q18.040000915527344,5.671461072460938,18.040000915527344,5.7700042724609375Q18.040000915527344,5.782019972460938,18.040385915527345,5.794029872460937Q18.046418915527344,5.982276272460937,18.140674915527345,6.145338272460937L20.140650915527345,9.605294272460938L20.140670915527345,9.605334272460937Q20.190060915527344,9.690774272460938,20.259870915527344,9.760534272460937Q20.329690915527344,9.830284272460936,20.415170915527344,9.879614272460937Q20.500650915527345,9.928934272460937,20.595980915527342,9.954464272460937Q20.691310915527342,9.979994272460939,20.790000915527344,9.979994272460939Q20.807600915527345,9.979994272460939,20.825170915527345,9.979174272460938Q21.007400915527345,9.970614272460939,21.165330915527342,9.879324272460938Q21.250780915527343,9.829934272460937,21.320530915527343,9.760124272460938Q21.390290915527345,9.690314272460938,21.439620915527343,9.604834272460938Q21.488940915527344,9.519344272460938,21.514470915527344,9.424014272460937Q21.540000915527344,9.328684272460936,21.540000915527344,9.229994272460937Q21.540000915527344,9.212404272460937,21.539170915527343,9.194824272460938Q21.530620915527344,9.012604272460937,21.439330915527343,8.854664272460937L21.439310915527344,8.854624272460939Z" fill-rule="evenodd" fill="#FFFFFF" fill-opacity="1"/></g><g><path d="M5.8593100381469725,17.85462427246094L3.8593260381469725,14.394670272460937Q3.7846680381469726,14.265511272460937,3.666265038146973,14.174754272460937Q3.5478630381469727,14.083998272460937,3.4037420381469725,14.045460272460938Q3.3085434381469727,14.020004272460938,3.2100004388349728,14.020004272460938Q3.1979841381469725,14.020004272460938,3.185974438146973,14.020389272460937Q2.9977280381469726,14.026422272460938,2.8346660381469726,14.120678272460937Q2.7055070381469726,14.195336272460938,2.6147500381469726,14.313739272460937Q2.5239940381469728,14.432141272460937,2.485456038146973,14.576262272460937Q2.4600000381469727,14.671461072460938,2.4600000381469727,14.770004272460938Q2.4600000381469727,14.782019972460937,2.4603850381469727,14.794029872460937Q2.4664180381469727,14.982276272460938,2.560674038146973,15.145338272460938L4.560650038146973,18.605294272460938L4.560670038146973,18.605334272460937Q4.6100600381469725,18.69077427246094,4.679870038146973,18.760534272460937Q4.749690038146973,18.830284272460936,4.835170038146972,18.879614272460937Q4.920650038146973,18.928934272460936,5.015980038146973,18.95446427246094Q5.111310038146973,18.97999427246094,5.210000038146973,18.97999427246094Q5.2276000381469725,18.97999427246094,5.245170038146973,18.979174272460938Q5.427400038146972,18.97061427246094,5.585330038146973,18.879324272460938Q5.670780038146972,18.82993427246094,5.740530038146973,18.76012427246094Q5.810290038146973,18.690314272460938,5.859620038146973,18.604834272460938Q5.908940038146973,18.519344272460938,5.934470038146973,18.424014272460937Q5.960000038146973,18.328684272460936,5.960000038146973,18.22999427246094Q5.960000038146973,18.212404272460937,5.959170038146972,18.194824272460938Q5.9506200381469725,18.012604272460937,5.859330038146973,17.854664272460937L5.8593100381469725,17.85462427246094Z" fill-rule="evenodd" fill="#FFFFFF" fill-opacity="1"/></g><g style="opacity:0;"></g></g></svg>