<svg xmlns="http://www.w3.org/2000/svg" xmlns:xlink="http://www.w3.org/1999/xlink" fill="none" version="1.1" width="28" height="28" viewBox="0 0 28 28"><defs><clipPath id="master_svg0_1547_05139"><rect x="0" y="0" width="28" height="28" rx="0"/></clipPath></defs><g><g clip-path="url(#master_svg0_1547_05139)"><g><g><path d="M26.41679609375,22.16679609375L26.41679609375,20.70849609375Q26.41679609375,20.634596093749998,26.40239609375,20.56219609375Q26.38799609375,20.48969609375,26.35969609375,20.42149609375Q26.33149609375,20.35319609375,26.29039609375,20.29179609375Q26.24939609375,20.230396093750002,26.19719609375,20.17819609375Q26.14489609375,20.12589609375,26.08349609375,20.08489609375Q26.02209609375,20.04389609375,25.95379609375,20.01559609375Q25.88559609375,19.98729609375,25.81309609375,19.972896093750002Q25.74069609375,19.95849609375,25.66679609375,19.95849609375Q25.59299609375,19.95849609375,25.52049609375,19.972896093750002Q25.44809609375,19.98729609375,25.37979609375,20.01559609375Q25.31159609375,20.04389609375,25.25019609375,20.08489609375Q25.18869609375,20.12589609375,25.13649609375,20.17819609375Q25.08429609375,20.230396093750002,25.04319609375,20.29179609375Q25.00219609375,20.35319609375,24.97389609375,20.42149609375Q24.94569609375,20.48969609375,24.93119609375,20.56219609375Q24.91679609375,20.634596093749998,24.91679609375,20.70849609375L24.91679609375,22.16679609375Q24.91679609375,22.33939609375,24.79479609375,22.46149609375Q24.67279609375,22.58349609375,24.50019609375,22.58349609375L3.50016609375,22.58349609375Q3.32757009375,22.58349609375,3.20553209375,22.46149609375Q3.08349609375,22.33939609375,3.08349609375,22.16679609375L3.08349609375,7.00016609375Q3.08349609375,6.82756609375,3.20553209375,6.70553109375Q3.32756809375,6.58349609375,3.50016609375,6.58349609375L11.66682609375,6.58349609375Q11.74069609375,6.58349609375,11.81314609375,6.56908509375Q11.88559609375,6.55467409375,11.95383609375,6.52640609375Q12.02208609375,6.49813709375,12.08350609375,6.45709809375Q12.14492609375,6.41605909375,12.19715609375,6.36382609375Q12.24938609375,6.31159309375,12.29042609375,6.25017409375Q12.33146609375,6.18875409375,12.35969609375,6.12050909375Q12.38799609375,6.05226309375,12.40239609375,5.97981409375Q12.41679609375,5.90736459375,12.41679609375,5.83349609375Q12.41679609375,5.75962759375,12.40239609375,5.68717809375Q12.38799609375,5.61472909375,12.35969609375,5.54648309375Q12.33146609375,5.47823809375,12.29042609375,5.41681809375Q12.24938609375,5.35539909375,12.19715609375,5.30316609375Q12.14492609375,5.25093309375,12.08350609375,5.20989409375Q12.02208609375,5.16885509375,11.95383609375,5.14058609375Q11.88559609375,5.11231809375,11.81314609375,5.09790709375Q11.74069609375,5.08349609375,11.66682609375,5.08349609375L3.50016609375,5.08349609375Q2.70625209375,5.08349609375,2.14487709375,5.64486509375Q1.58349609375,6.20624109375,1.58349609375,7.00016609375L1.58349609375,22.16679609375Q1.58349609375,22.96079609375,2.14487709375,23.52209609375Q2.70625409375,24.08349609375,3.50016609375,24.08349609375L24.50019609375,24.08349609375Q25.29409609375,24.08349609375,25.85549609375,23.52209609375Q26.41679609375,22.96079609375,26.41679609375,22.16679609375Z" fill-rule="evenodd" fill="#333333" fill-opacity="1"/></g><g><path d="M5.83349609375,14.16650390625L10.50016609375,14.16650390625Q10.57403609375,14.16650390625,10.64647609375,14.152092906250001Q10.71892609375,14.13768190625,10.78717609375,14.10941390625Q10.85541609375,14.08114490625,10.91683609375,14.04010590625Q10.97825609375,13.99906690625,11.03049609375,13.94683390625Q11.08272609375,13.89460090625,11.12376609375,13.83318190625Q11.16480609375,13.77176190625,11.193076093750001,13.70351690625Q11.22133609375,13.63527090625,11.23574609375,13.56282190625Q11.25016609375,13.49037240625,11.25016609375,13.41650390625Q11.25016609375,13.34263540625,11.23574609375,13.27018590625Q11.22133609375,13.19773690625,11.193076093750001,13.12949090625Q11.16480609375,13.06124590625,11.12376609375,12.99982590625Q11.08272609375,12.93840690625,11.03049609375,12.88617390625Q10.97825609375,12.83394090625,10.91683609375,12.79290190625Q10.85541609375,12.75186290625,10.78717609375,12.72359390625Q10.71892609375,12.69532590625,10.64647609375,12.680914906249999Q10.57403609375,12.66650390625,10.50016609375,12.66650390625L5.83349609375,12.66650390625Q5.75962759375,12.66650390625,5.68717809375,12.680914906249999Q5.61472909375,12.69532590625,5.54648309375,12.72359390625Q5.47823809375,12.75186290625,5.41681809375,12.79290190625Q5.35539909375,12.83394090625,5.30316609375,12.88617390625Q5.25093309375,12.93840690625,5.20989409375,12.99982590625Q5.16885509375,13.06124590625,5.14058609375,13.12949090625Q5.11231809375,13.19773690625,5.09790709375,13.27018590625Q5.08349609375,13.34263540625,5.08349609375,13.41650390625Q5.08349609375,13.49037240625,5.09790709375,13.56282190625Q5.11231809375,13.63527090625,5.14058609375,13.70351690625Q5.16885509375,13.77176190625,5.20989409375,13.83318190625Q5.25093309375,13.89460090625,5.30316609375,13.94683390625Q5.35539909375,13.99906690625,5.41681809375,14.04010590625Q5.47823809375,14.08114490625,5.54648309375,14.10941390625Q5.61472909375,14.13768190625,5.68717809375,14.152092906250001Q5.75962759375,14.16650390625,5.83349609375,14.16650390625Z" fill-rule="evenodd" fill="#333333" fill-opacity="1"/></g><g><path d="M5.83349609375,18.83349609375L19.83349609375,18.83349609375Q19.907396093750002,18.83349609375,19.97979609375,18.81908509375Q20.05229609375,18.80467409375,20.12049609375,18.77640609375Q20.18879609375,18.74813709375,20.25019609375,18.707098093749998Q20.311596093749998,18.66605909375,20.36379609375,18.61382609375Q20.41609609375,18.561593093749998,20.45709609375,18.50017409375Q20.49809609375,18.43875409375,20.52639609375,18.37050909375Q20.55469609375,18.30226309375,20.569096093749998,18.22981409375Q20.58349609375,18.15736459375,20.58349609375,18.08349609375Q20.58349609375,18.00962759375,20.569096093749998,17.93717809375Q20.55469609375,17.86472909375,20.52639609375,17.79648309375Q20.49809609375,17.72823809375,20.45709609375,17.66681809375Q20.41609609375,17.605399093750002,20.36379609375,17.55316609375Q20.311596093749998,17.50093309375,20.25019609375,17.459894093750002Q20.18879609375,17.41885509375,20.12049609375,17.39058609375Q20.05229609375,17.36231809375,19.97979609375,17.34790709375Q19.907396093750002,17.33349609375,19.83349609375,17.33349609375L5.83349609375,17.33349609375Q5.75962759375,17.33349609375,5.68717809375,17.34790709375Q5.61472909375,17.36231809375,5.54648309375,17.39058609375Q5.47823809375,17.41885509375,5.41681809375,17.459894093750002Q5.35539909375,17.50093309375,5.30316609375,17.55316609375Q5.25093309375,17.605399093750002,5.20989409375,17.66681809375Q5.16885509375,17.72823809375,5.14058609375,17.79648309375Q5.11231809375,17.86472909375,5.09790709375,17.93717809375Q5.08349609375,18.00962759375,5.08349609375,18.08349609375Q5.08349609375,18.15736459375,5.09790709375,18.22981409375Q5.11231809375,18.30226309375,5.14058609375,18.37050909375Q5.16885509375,18.43875409375,5.20989409375,18.50017409375Q5.25093309375,18.561593093749998,5.30316609375,18.61382609375Q5.35539909375,18.66605909375,5.41681809375,18.707098093749998Q5.47823809375,18.74813709375,5.54648309375,18.77640609375Q5.61472909375,18.80467409375,5.68717809375,18.81908509375Q5.75962759375,18.83349609375,5.83349609375,18.83349609375Z" fill-rule="evenodd" fill="#333333" fill-opacity="1"/></g><g><ellipse cx="19.83349609375" cy="9.33349609375" rx="3.5" ry="3.5" fill-opacity="0" stroke-opacity="1" stroke="#333333" fill="none" stroke-width="1.5" stroke-linecap="ROUND" stroke-linejoin="round"/></g><g><path d="M16.7750453125,12.60650509375Q15.7226583125,13.03960309375,14.6336063125,14.02816609375Q14.5161513125,14.13477609375,14.4519233125,14.27982609375Q14.3876953125,14.42486609375,14.3876953125,14.58349609375L14.3876993125,14.58607609375Q14.3881773125,14.72518609375,14.4385173125,14.85488609375Q14.4888583125,14.98457609375,14.5823633125,15.08758609375Q14.682632312500001,15.19804609375,14.8175413125,15.26172609375Q14.9524513125,15.32541609375,15.1014609125,15.33261609375Q15.1195675125,15.33349609375,15.1376953125,15.33349609375Q15.1557676125,15.33349609375,15.1738190125,15.332626093750001Q15.3041253125,15.32634609375,15.4246563125,15.27642609375Q15.5451883125,15.22651609375,15.6417843125,15.13882609375Q16.5363753125,14.32678609375,17.3459053125,13.99363609375Q18.3424853125,13.58349609375,19.8333553125,13.58349609375Q21.362505312499998,13.58349609375,22.7925153125,14.50185609375Q24.236355312500002,15.429096093750001,24.9991053125,16.91942609375Q25.0462853125,17.01162609375,25.1166953125,17.087576093750002Q25.1870953125,17.16353609375,25.2754953125,17.21756609375Q25.363795312500002,17.27160609375,25.4634953125,17.299666093749998Q25.5631953125,17.327736093749998,25.6666953125,17.327736093749998L25.6683953125,17.327736093749998Q25.8482953125,17.327346093750002,26.0083953125,17.24537609375Q26.141195312500003,17.17740609375,26.2378953125,17.06379609375Q26.3345953125,16.95018609375,26.380495312500003,16.80821609375Q26.4166953125,16.69583609375,26.4166953125,16.57773609375Q26.4166953125,16.56625609375,26.4163953125,16.55477609375Q26.4111953125,16.38618609375,26.3343953125,16.23604609375L26.3342953125,16.23589609375L26.3339953125,16.23537609375Q25.386995312499998,14.38535609375,23.6030653125,13.23970709375Q21.8026753125,12.08349609375,19.8333553125,12.08349609375Q18.0458953125,12.08349609375,16.7750453125,12.60650509375Z" fill-rule="evenodd" fill="#333333" fill-opacity="1"/></g></g></g></g></svg>