<svg xmlns="http://www.w3.org/2000/svg" xmlns:xlink="http://www.w3.org/1999/xlink" fill="none" version="1.1" width="28" height="28" viewBox="0 0 28 28"><g><g><rect x="0" y="0" width="28" height="28" rx="0" fill="#FFFFFF" fill-opacity="0.009999999776482582"/></g><g><rect x="0" y="0" width="28" height="28" rx="0" fill="#FFFFFF" fill-opacity="0.009999999776482582"/></g><g><path d="M25.666633492279054,17.083366984558104Q25.740533492279052,17.083366984558104,25.812933492279054,17.068966984558106Q25.885433492279052,17.054466984558104,25.953633492279053,17.026266984558106Q26.021933492279054,16.997966984558104,26.083333492279053,16.956966984558107Q26.14473349227905,16.915866984558107,26.197033492279054,16.863666984558105Q26.249233492279053,16.811466984558106,26.290233492279054,16.749966984558107Q26.331333492279054,16.688566984558108,26.359533492279052,16.620366984558103Q26.387833492279054,16.552066984558106,26.402233492279052,16.479666984558108Q26.416633492279054,16.407166984558106,26.416633492279054,16.333366984558104Q26.416633492279054,13.807666984558105,25.44063349227905,11.499976984558106Q24.498033492279053,9.271576984558106,22.779933492279053,7.553426984558106Q21.061733492279053,5.835266984558105,18.833333492279053,4.8927369845581055Q16.525633492279052,3.9166669845581055,14.000033492279053,3.9166669845581055Q11.474333492279053,3.9166669845581055,9.166643492279054,4.892737984558106Q6.938243492279053,5.835266984558105,5.220093492279053,7.553426984558106Q3.501933492279053,9.271576984558106,2.5594034922790527,11.499976984558106Q1.5833334922790527,13.807666984558105,1.5833334922790527,16.333366984558104Q1.5833334922790527,16.407166984558106,1.5977444922790527,16.479666984558108Q1.6121554922790526,16.552066984558106,1.6404234922790528,16.620366984558103Q1.6686924922790527,16.688566984558108,1.7097314922790527,16.749966984558107Q1.7507704922790528,16.811466984558106,1.8030034922790528,16.863666984558105Q1.8552364922790527,16.915866984558107,1.9166554922790526,16.956966984558107Q1.9780754922790527,16.997966984558104,2.0463204922790528,17.026266984558106Q2.1145664922790526,17.054466984558104,2.187015492279053,17.068966984558106Q2.2594649922790526,17.083366984558104,2.3333334922790527,17.083366984558104L25.666633492279054,17.083366984558104ZM24.89183349227905,15.583366984558106Q24.770833492279053,13.767026984558106,24.059133492279052,12.084306984558104Q23.230533492279054,10.125356984558106,21.719233492279052,8.614086984558107Q20.207933492279054,7.102806984558105,18.249033492279054,6.274246984558106Q16.22153349227905,5.4166669845581055,14.000033492279053,5.4166669845581055Q11.778513492279053,5.4166669845581055,9.750973492279051,6.274246984558106Q7.7920234922790526,7.102806984558105,6.280753492279053,8.614086984558107Q4.769473492279053,10.125356984558106,3.9409134922790527,12.084306984558104Q3.229179492279053,13.767026984558106,3.108137492279053,15.583366984558106L24.89183349227905,15.583366984558106Z" fill-rule="evenodd" fill="#0C0507" fill-opacity="1"/></g><g><path d="M13.25,2.3333334922790527L13.25,4.666663492279053Q13.25,4.740533492279052,13.264410999999999,4.812983492279052Q13.278822,4.885433492279052,13.30709,4.953683492279053Q13.335359,5.021923492279052,13.376398,5.083343492279052Q13.417437,5.144763492279052,13.46967,5.196993492279052Q13.521903,5.249233492279053,13.583322,5.290273492279052Q13.644742,5.331303492279053,13.712987,5.359573492279052Q13.781233,5.387843492279053,13.853682,5.402253492279053Q13.9261315,5.416663492279053,14,5.416663492279053Q14.0738685,5.416663492279053,14.146318,5.402253492279053Q14.218767,5.387843492279053,14.287013,5.359573492279052Q14.355258,5.331303492279053,14.416678,5.290273492279052Q14.478097,5.249233492279053,14.53033,5.196993492279052Q14.582563,5.144763492279052,14.623602,5.083343492279052Q14.664641,5.021923492279052,14.69291,4.953683492279053Q14.721178,4.885433492279052,14.735589000000001,4.812983492279052Q14.75,4.740533492279052,14.75,4.666663492279053L14.75,2.3333334922790527Q14.75,2.2594649922790526,14.735589000000001,2.187015492279053Q14.721178,2.1145664922790526,14.69291,2.0463204922790528Q14.664641,1.9780754922790527,14.623602,1.9166554922790526Q14.582563,1.8552364922790527,14.53033,1.8030034922790528Q14.478097,1.7507704922790528,14.416678,1.7097314922790527Q14.355258,1.6686924922790527,14.287013,1.6404234922790528Q14.218767,1.6121554922790526,14.146318,1.5977444922790527Q14.0738685,1.5833334922790527,14,1.5833334922790527Q13.9261315,1.5833334922790527,13.853682,1.5977444922790527Q13.781233,1.6121554922790526,13.712987,1.6404234922790528Q13.644742,1.6686924922790527,13.583322,1.7097314922790527Q13.521903,1.7507704922790528,13.46967,1.8030034922790528Q13.417437,1.8552364922790527,13.376398,1.9166554922790526Q13.335359,1.9780754922790527,13.30709,2.0463204922790528Q13.278822,2.1145664922790526,13.264410999999999,2.187015492279053Q13.25,2.2594649922790526,13.25,2.3333334922790527Z" fill-rule="evenodd" fill="#0C0507" fill-opacity="1"/></g><g><path d="M17.337886984558104,22.008793969116212Q18.832266984558103,21.12823396911621,19.701066984558103,19.62729396911621Q20.125466984558106,18.89425396911621,20.033466984558103,18.10396396911621Q19.949466984558107,17.38183396911621,19.455166984558105,16.779115969116212Q18.474466984558106,15.583333969116211,16.833336984558105,15.583333969116211L11.166666984558105,15.583333969116211Q9.525496984558105,15.583333969116211,8.544805984558106,16.779115969116212Q8.050502984558106,17.38183396911621,7.9664839845581055,18.10396396911621Q7.874535984558105,18.89425396911621,8.298884984558105,19.62729396911621Q9.167756984558105,21.12823396911621,10.662106984558106,22.008793969116212Q12.202816984558105,22.91666396911621,13.999996984558106,22.91666396911621Q15.797176984558106,22.91666396911621,17.337886984558104,22.008793969116212ZM18.295366984558108,17.73032396911621Q18.747166984558106,18.28119396911621,18.402966984558105,18.875803969116212Q17.731396984558106,20.03586396911621,16.576376984558106,20.716463969116212Q15.388106984558107,21.41666396911621,13.999996984558106,21.41666396911621Q12.611896984558104,21.41666396911621,11.423616984558105,20.716463969116212Q10.268606984558105,20.03586396911621,9.597056984558105,18.875803969116212Q9.252846984558106,18.28119396911621,9.704636984558105,17.73032396911621Q10.235246984558106,17.08333396911621,11.166666984558105,17.08333396911621L16.833336984558105,17.08333396911621Q17.764756984558105,17.08333396911621,18.295366984558108,17.73032396911621Z" fill-rule="evenodd" fill="#0C0507" fill-opacity="1"/></g><g><path d="M23.967428515625,22.306301875L22.761091515625,20.583487875Q22.709224515625,20.509413875,22.641237515625,20.449790875Q22.573249515625,20.390167875,22.493039515625,20.348413875Q22.412828515625,20.306658875,22.324992515625,20.285164875Q22.237156215625,20.263671875,22.1467284951331,20.263671875Q22.134787415625,20.263671875,22.122852415625,20.264051875Q21.899553515625,20.271163875,21.716545515625,20.399308875Q21.642470515625,20.451175875,21.582847515625,20.519162875Q21.523224515625,20.587150875,21.481470515625,20.667360875Q21.439715515625,20.747571875,21.418221515625,20.835407875Q21.396728515625,20.923244075,21.396728515625,21.013671875Q21.396728515625,21.025612975,21.397108515625,21.037547975Q21.404220515625,21.260846875,21.532365515625,21.443855875L22.738611515625,23.166541875L22.738699515625,23.166671875Q22.790566515625,23.240741875,22.858553515625,23.300371875Q22.926541515625,23.359991875,23.006751515624998,23.401741875Q23.086961515625,23.443501875,23.174798515625,23.464991875Q23.262638515625,23.486491875,23.353058515625,23.486491875Q23.364998515625,23.486491875,23.376938515625,23.486111875Q23.600238515625,23.478991875,23.783248515625,23.350851875Q23.905448515625,23.265281875,23.985608515625,23.139461875Q24.065758515625,23.013641875,24.091668515625,22.866721875Q24.103058515625,22.802101874999998,24.103058515625,22.736491875Q24.103058515625,22.729021875,24.102918515625,22.721561875Q24.098368515625,22.493311875,23.967428515625,22.306301875Z" fill-rule="evenodd" fill="#0C0507" fill-opacity="1"/></g><g><path d="M5.463504796875,20.601256796875L3.976266796875,22.088464796875Q3.870775796875,22.193951796874998,3.813683796875,22.331781796875Q3.756591796875,22.469611796875,3.756591796875,22.618801796875Q3.756591796875,22.638211796875,3.757595796875,22.657601796875Q3.764792796875,22.796531796875,3.821338796875,22.923641796875Q3.877884796875,23.050751796875,3.976256796875,23.149121796875Q4.081745796875,23.254611796875,4.219575796875,23.311711796875Q4.357405796875,23.368801796875,4.506591796875,23.368801796875Q4.526004196875,23.368801796875,4.545390896875,23.367791796875Q4.684323796875,23.360601796875,4.811433796875,23.304051796875Q4.938542796875,23.247511796875,5.036916796875,23.149131796875L6.523921796874999,21.662162796875L6.524151796875,21.661926796875Q6.629641796875,21.556437796875,6.686741796874999,21.418607796875Q6.743831796875,21.280777796875,6.743831796875,21.13159214642Q6.743831796875,21.112179296875,6.742821796875,21.092792696875Q6.7356317968749995,20.953859796875,6.679081796875,20.826749796875Q6.622531796875,20.699640796875,6.524161796875,20.601266796875Q6.418671796875,20.495775796875,6.280841796875,20.438683796875Q6.143011796875,20.381591796875,5.993831796875,20.381591796875Q5.974421796875,20.381591796875,5.955031796875,20.382595796875002Q5.8161017968749995,20.389792796875,5.6889917968749995,20.446338796875Q5.561881796875,20.502884796875,5.463504796875,20.601256796875Z" fill-rule="evenodd" fill="#0C0507" fill-opacity="1"/></g><g><path d="M20.447542391357423,24.070158734375L19.77833739135742,23.114482734375Q19.726469391357423,23.040410734375,19.65848339135742,22.980790734375Q19.590496391357423,22.921169734375,19.510287391357423,22.879415734375Q19.430077391357422,22.837662734375,19.34224339135742,22.816170734375Q19.25440849135742,22.794677734375,19.16398246953092,22.794677734375Q19.15203429135742,22.794677734375,19.140092291357423,22.795058734375Q18.916793391357423,22.802174734375,18.73378739135742,22.930322734375Q18.659715391357423,22.982190734375,18.60009539135742,23.050176734375Q18.54047439135742,23.118163734375,18.498720391357423,23.198372734375Q18.456967391357423,23.278582734375,18.43547539135742,23.366416734375Q18.413982391357422,23.454251734375,18.413982391357422,23.544677734375Q18.413982391357422,23.556625734375,18.414363391357423,23.568567834375Q18.421479391357423,23.791866734375,18.549627391357422,23.974872734375L19.218828091357423,24.930547734375Q19.27069539135742,25.004617734375,19.338682391357423,25.064237734375Q19.406669391357422,25.123857734375,19.486878391357422,25.165617734375Q19.567088391357423,25.207367734375,19.65492239135742,25.228857734375Q19.742757391357422,25.250357734375,19.833183391357423,25.250357734375Q19.845131391357423,25.250357734375,19.85707339135742,25.249977734375Q20.08037239135742,25.242857734375,20.26338239135742,25.114707734375Q20.337452391357424,25.062837734375,20.397072391357423,24.994857734375Q20.45669239135742,24.926867734375,20.498442391357422,24.846657734375Q20.540202391357422,24.766447734375,20.561692391357422,24.678617734375Q20.583182391357422,24.590777734375,20.583182391357422,24.500353734375Q20.583182391357422,24.488405734375,20.582802391357422,24.476463734375Q20.57568239135742,24.253164734375,20.447542391357423,24.070158734375Z" fill-rule="evenodd" fill="#0C0507" fill-opacity="1"/></g><g><path d="M9.357868679504394,24.140244140625L9.358168679504395,24.139949140625Q9.463658679504395,24.034460140625,9.520748679504395,23.896632140625Q9.577838679504394,23.758803140625,9.577838679504394,23.609619140625Q9.577838679504394,23.460435140625,9.520748679504395,23.322606140625Q9.463658679504395,23.184778140625,9.358168679504395,23.079289140625L9.357738679504395,23.078860140625Q9.354738679504395,23.075859140625,9.351698679504395,23.072893140625L9.351258679504394,23.072469140625Q9.246218679504395,22.970114140625,9.110358679504394,22.914866140625Q8.974501679504394,22.859619140625,8.827838679504394,22.859619140625L8.825765679504395,22.859622140625Q8.793040679504394,22.859712140625,8.760447679504395,22.862653140625Q8.742261679504395,22.864294140625,8.724177679504395,22.866817140625Q8.603019679504394,22.883725140625,8.493514679504395,22.938256140625Q8.384009679504395,22.992788140625,8.297508679504395,23.079289140625L7.472558679504394,23.904239140625Q7.367069679504395,24.009728140625,7.309978679504394,24.147556140625Q7.2528886795043945,24.285385140625,7.2528886795043945,24.434569140625Q7.2528886795043945,24.452593140625,7.253754679504395,24.470596140625Q7.260471679504395,24.610279140625,7.317074679504395,24.738149140625Q7.373677679504395,24.866019140625,7.472558679504394,24.964899140625Q7.578047679504395,25.070389140625,7.715875679504395,25.127479140625Q7.8537046795043945,25.184569140625,8.002888679504395,25.184569140625Q8.152072679504395,25.184569140625,8.289901679504394,25.127479140625Q8.427729679504395,25.070389140625,8.533218679504394,24.964899140625L9.357868679504394,24.140244140625Z" fill-rule="evenodd" fill="#0C0507" fill-opacity="1"/></g></g></svg>