<svg xmlns="http://www.w3.org/2000/svg" xmlns:xlink="http://www.w3.org/1999/xlink" fill="none" version="1.1" width="8" height="8" viewBox="0 0 8 8"><g><g><path d="M2.4026432629179952,4.32873395527649L2.4026432629179952,4.32873395527649L0.9913352629179955,5.827160955276489L2.4026432629179952,7.325590955276489C2.4724232629179954,7.399670955276489,2.5116232629179955,7.500160955276489,2.5116232629179955,7.604940955276489C2.5116232629179955,7.709710955276489,2.4724232629179954,7.810200955276489,2.4026432629179952,7.884290955276489C2.3328632629179955,7.958380955276489,2.2382232629179954,8.000000955276489,2.1395332629179955,8.000000955276489C2.040853262917995,8.000000955276489,1.9462032629179955,7.958380955276489,1.8764232629179955,7.884290955276489L0.20200726291799545,6.106510955276489C0.13222576291799545,6.032420955276489,0.09302326291799545,5.93194095527649,0.09302326291799545,5.827160955276489C0.09302324073949546,5.722380955276489,0.13222576291799545,5.621900955276489,0.20200726291799545,5.547810955276489L1.8764232629179955,3.7700319552764894C1.9462032629179955,3.6959433552764893,2.040853262917995,3.6543209552764893,2.1395332629179955,3.6543209552764893C2.2365532629179956,3.6543209552764893,2.3297332629179954,3.6945520552764894,2.3992132629179954,3.7664389552764894L2.3992132629179954,3.7664389552764894C2.3994332629179955,3.766662955276489,2.4024332629179956,3.7698059552764893,2.4024332629179956,3.7698059552764893L2.4024332629179956,3.7698059552764893C2.4724232629179954,3.844119955276489,2.5116232629179955,3.944605955276489,2.5116232629179955,4.0493829552764895C2.5116232629179955,4.154159955276489,2.4724232629179954,4.254644955276489,2.4026432629179952,4.32873395527649Z" fill-rule="evenodd" fill="#FFFFFF" fill-opacity="1"/></g><g><path d="M0.46511626291799546,6.223861231658936L3.7209332629179954,6.223861231658936C3.9264332629179957,6.223861231658936,4.0930232629179955,6.046986231658936,4.0930232629179955,5.828800231658936C4.0930232629179955,5.610613231658935,3.9264332629179957,5.4337382316589355,3.7209332629179954,5.4337382316589355L0.46511626291799546,5.4337382316589355C0.2596152629179954,5.4337382316589355,0.09302326291799545,5.610613231658935,0.09302326291799545,5.828800231658936C0.09302326291799545,6.046986231658936,0.2596152629179954,6.223861231658936,0.46511626291799546,6.223861231658936Z" fill-rule="evenodd" fill="#FFFFFF" fill-opacity="1"/></g><g><path d="M5.597356325897217,5.745344029922485L5.597356325897217,5.745344029922485L7.008662325897217,4.246914029922485L5.597356325897217,2.7484870299224853C5.527574825897217,2.6743980299224854,5.488372325897217,2.5739130299224855,5.488372325897217,2.4691360299224856C5.488372325897217,2.3643590299224853,5.527574825897217,2.263873029922485,5.597356325897217,2.1897850299224855C5.667137325897217,2.1156964299224854,5.761780325897217,2.0740740299224854,5.860465325897216,2.0740740299224854C5.959150325897217,2.0740740299224854,6.053794325897217,2.1156964299224854,6.1235753258972165,2.1897850299224855L7.797992325897217,3.9675640299224852C7.867772325897217,4.041654029922485,7.906972325897216,4.142134029922485,7.906972325897216,4.246914029922485C7.906972325897216,4.351694029922486,7.867772325897217,4.452174029922485,7.797992325897217,4.526264029922485L6.123714325897216,6.3038940299224855L6.123714325897216,6.3038940299224855C6.053794325897217,6.378134029922485,5.959150325897217,6.419754029922485,5.860465325897216,6.419754029922485C5.761780325897217,6.419754029922485,5.667136325897217,6.378134029922485,5.597356325897217,6.304044029922485C5.527574925897217,6.229954029922485,5.488372325897217,6.129464029922485,5.488372325897217,6.024694029922485C5.488372325897217,5.919914029922485,5.527574825897217,5.8194240299224855,5.597356325897217,5.745344029922485Z" fill-rule="evenodd" fill="#FFFFFF" fill-opacity="1"/></g><g><path d="M7.5348866998291015,3.8534915447235107L4.279069699829101,3.8534915447235107C4.073568699829101,3.8534915447235107,3.9069766998291016,4.030366544723511,3.9069766998291016,4.248553544723511C3.9069766998291016,4.466739544723511,4.073568699829101,4.643614544723511,4.279069699829101,4.643614544723511L7.5348866998291015,4.643614544723511C7.740386699829102,4.643614544723511,7.906976699829102,4.466739544723511,7.906976699829102,4.248553544723511C7.906976699829102,4.030366544723511,7.740386699829102,3.8534915447235107,7.5348866998291015,3.8534915447235107Z" fill-rule="evenodd" fill="#FFFFFF" fill-opacity="1"/></g><g><path d="M7.25581,1.87654L7.25581,0.790124L0.744186,0.790124L0.744186,3.65432C0.744186,3.87251,0.577594,4.04938,0.372093,4.04938C0.166592,4.04938,0,3.87251,0,3.65432L0,0.395062C0,0.176875,0.166592,0,0.372093,0L7.62791,0C7.83341,0,8,0.176875,8,0.395062L8,1.87654C8,2.09473,7.83341,2.27161,7.62791,2.27161C7.42241,2.27161,7.25581,2.09473,7.25581,1.87654Z" fill-rule="evenodd" fill="#FFFFFF" fill-opacity="1"/></g></g></svg>