<svg xmlns="http://www.w3.org/2000/svg" xmlns:xlink="http://www.w3.org/1999/xlink" fill="none" version="1.1" width="8.16650390625" height="8.1669921875" viewBox="0 0 8.16650390625 8.1669921875"><g><g><rect x="0" y="0" width="8.166666984558105" height="8.166666984558105" rx="0" fill="#FFFFFF" fill-opacity="0"/></g><g><g><rect x="0" y="0" width="8.166666984558105" height="8.166666984558105" rx="0" fill="#FFFFFF" fill-opacity="0"/></g><g><path d="M0.4305555820465088,4.083335582046509Q0.4305555820465088,5.596355582046509,1.500427582046509,6.666235582046509Q2.5703255820465087,7.736105582046509,4.083335582046509,7.736115582046509Q5.596345582046509,7.736115582046509,6.666235582046509,6.666235582046509Q7.736115582046509,5.596345582046509,7.736115582046509,4.083335582046509Q7.736115582046509,2.5703255820465087,6.666235582046509,1.5004295820465088Q5.596355582046509,0.4305555820465088,4.083335582046509,0.4305555820465088Q2.5703155820465087,0.4305555820465088,1.500430582046509,1.500427582046509Q0.4305555820465088,2.5703155820465087,0.4305555820465088,4.083335582046509ZM4.083335582046509,7.236115582046509Q2.777425582046509,7.236115582046509,1.8539855820465088,6.312675582046508Q0.9305555820465088,5.389245582046509,0.9305555820465088,4.083335582046509Q0.9305555820465088,2.777425582046509,1.8539755820465087,1.8539855820465088Q2.777425582046509,0.9305555820465088,4.083335582046509,0.9305555820465088Q5.389245582046509,0.9305555820465088,6.312675582046508,1.8539855820465088Q7.236115582046509,2.777425582046509,7.236115582046509,4.083335582046509Q7.236115582046509,5.389245582046509,6.312675582046508,6.312675582046508Q5.389245582046509,7.236115582046509,4.083335582046509,7.236115582046509Z" fill-rule="evenodd" fill="#000000" fill-opacity="1"/></g><g><path d="M4.508679925674438,2.2968746718139648Q4.508679925674438,2.3387676718139647,4.500506925674438,2.379855671813965Q4.492333925674439,2.4209436718139647,4.476302925674439,2.459647671813965Q4.460270925674439,2.498352671813965,4.436995925674438,2.533184671813965Q4.413721925674438,2.5680176718139647,4.384098925674438,2.5976406718139646Q4.354475925674438,2.6272636718139646,4.319642925674438,2.650537671813965Q4.284810925674439,2.6738126718139648,4.2461059256744385,2.689844671813965Q4.207401925674438,2.7058756718139647,4.166313925674438,2.714048671813965Q4.125225925674439,2.7222216718139647,4.083332925674439,2.7222216718139647Q4.041439925674439,2.7222216718139647,4.000351925674439,2.714048671813965Q3.9592639256744384,2.7058756718139647,3.9205599256744383,2.689844671813965Q3.8818559256744383,2.6738126718139648,3.8470229256744384,2.650537671813965Q3.8121899256744385,2.6272636718139646,3.7825669256744385,2.5976406718139646Q3.7529443256744384,2.5680176718139647,3.7296698256744385,2.533184671813965Q3.7063953256744386,2.498352671813965,3.6903635256744383,2.459647671813965Q3.6743318256744386,2.4209436718139647,3.6661588556744387,2.379855671813965Q3.6579859256744385,2.3387676718139647,3.6579859256744385,2.2968746718139648Q3.6579859256744385,2.254981671813965,3.6661588556744387,2.213893671813965Q3.6743318256744386,2.172805671813965,3.6903635256744383,2.1341016718139647Q3.7063953256744386,2.0953976718139646,3.7296698256744385,2.0605646718139647Q3.7529443256744384,2.025731671813965,3.7825669256744385,1.996108671813965Q3.8121899256744385,1.9664860718139647,3.8470229256744384,1.9432115718139649Q3.8818559256744383,1.9199370718139648,3.9205599256744383,1.9039052718139649Q3.9592639256744384,1.8878735718139648,4.000351925674439,1.8797006018139648Q4.041439925674439,1.8715276718139648,4.083332925674439,1.8715276718139648Q4.125225925674439,1.8715276718139648,4.166313925674438,1.8797006018139648Q4.207401925674438,1.8878735718139648,4.2461059256744385,1.9039052718139649Q4.284810925674439,1.9199370718139648,4.319642925674438,1.9432115718139649Q4.354475925674438,1.9664860718139647,4.384098925674438,1.996108671813965Q4.413721925674438,2.025731671813965,4.436995925674438,2.0605646718139647Q4.460270925674439,2.0953976718139646,4.476302925674439,2.1341016718139647Q4.492333925674439,2.172805671813965,4.500506925674438,2.213893671813965Q4.508679925674438,2.254981671813965,4.508679925674438,2.2968746718139648Z" fill="#000000" fill-opacity="1"/></g><g><path d="M3.998264,3.152777671813965L3.828125,3.152777671813965Q3.7783969,3.152777671813965,3.7324542,3.1718076718139647Q3.686511,3.190837671813965,3.651348,3.226000671813965Q3.616185,3.2611636718139647,3.597155,3.3071068718139647Q3.578125,3.353049571813965,3.578125,3.402777671813965Q3.578125,3.4525057718139647,3.597155,3.498448471813965Q3.616185,3.544391671813965,3.651348,3.579554671813965Q3.686511,3.6147176718139646,3.7324542,3.633747671813965Q3.7783969,3.652777671813965,3.828125,3.652777671813965L3.9184028,3.652777671813965L3.9184028,5.784717671813965Q3.9184028,5.834447671813965,3.937433,5.880387671813965Q3.956463,5.926337671813965,3.991626,5.961497671813965Q4.026789,5.996657671813965,4.072732,6.015687671813964Q4.118675,6.034717671813965,4.168403,6.034717671813965Q4.218131,6.034717671813965,4.264074,6.015687671813964Q4.310016,5.996657671813965,4.345179,5.961497671813965Q4.380343,5.926337671813965,4.399373,5.880387671813965Q4.418403,5.834447671813965,4.418403,5.784717671813965L4.418403,3.402777671813965Q4.418403,3.353049571813965,4.399373,3.3071068718139647Q4.380343,3.2611636718139647,4.345179,3.226000671813965Q4.310016,3.190837671813965,4.264074,3.1718076718139647Q4.218131,3.152777671813965,4.168403,3.152777671813965L3.998264,3.152777671813965Z" fill-rule="evenodd" fill="#000000" fill-opacity="1"/></g><g><path d="M3.5729167461395264,6.034721851348877L4.7638867461395265,6.034721851348877Q4.813616746139527,6.034721851348877,4.859556746139527,6.015691851348877Q4.905506746139526,5.996661851348877,4.940666746139526,5.961498851348877Q4.975826746139527,5.926335851348877,4.994856746139527,5.880392651348877Q5.0138867461395265,5.834449951348877,5.0138867461395265,5.784721851348877Q5.0138867461395265,5.734993751348877,4.994856746139527,5.689051051348877Q4.975826746139527,5.643107851348877,4.940666746139526,5.6079448513488765Q4.905506746139526,5.572781851348877,4.859556746139527,5.553751851348877Q4.813616746139527,5.534721851348877,4.7638867461395265,5.534721851348877L3.5729167461395264,5.534721851348877Q3.5231886461395265,5.534721851348877,3.477245946139526,5.553751851348877Q3.4313027461395262,5.572781851348877,3.3961397461395264,5.6079448513488765Q3.3609767461395266,5.643107851348877,3.3419467461395262,5.689051051348877Q3.3229167461395264,5.734993751348877,3.3229167461395264,5.784721851348877Q3.3229167461395264,5.834449951348877,3.3419467461395262,5.880392651348877Q3.3609767461395266,5.926335851348877,3.3961397461395264,5.961498851348877Q3.4313027461395262,5.996661851348877,3.477245946139526,6.015691851348877Q3.5231886461395265,6.034721851348877,3.5729167461395264,6.034721851348877Z" fill-rule="evenodd" fill="#000000" fill-opacity="1"/></g></g></g></svg>