<svg xmlns="http://www.w3.org/2000/svg" xmlns:xlink="http://www.w3.org/1999/xlink" fill="none" version="1.1" width="24" height="24" viewBox="0 0 24 24"><defs><clipPath id="master_svg0_112_10083"><rect x="0" y="0" width="24" height="24" rx="0"/></clipPath></defs><g clip-path="url(#master_svg0_112_10083)"><g><path d="M19.0689,5L4.93112,5C3.865569,5,3,5.855216,3,6.9080200000000005L3,15.3072C3,16.36,3.865569,17.2152,4.93112,17.2152L11.56433,17.2152L11.56433,19.139L9.664819999999999,19.139C9.42388,19.1383,9.22841,19.3315,9.22915,19.569499999999998C9.22846,19.8076,9.423919999999999,20.000700000000002,9.664819999999999,20L14.3352,20C14.5769,20,14.7729,19.8082,14.7729,19.569499999999998C14.7736,19.3315,14.5782,19.1383,14.3372,19.139L12.43577,19.139L12.43577,17.2152L19.0689,17.2152C20.1344,17.2152,21,16.3581,21,15.3072L21,6.9080200000000005C21,5.855198,20.1344,5.000000172763,19.0689,5ZM20.1286,15.3072C20.1286,15.5871,20.0176,15.8493,19.8176,16.047C19.6175,16.2446,19.3521,16.3542,19.0689,16.3542L4.93112,16.3542C4.6499,16.3542,4.38249,16.2446,4.18249,16.047C3.982399,15.8474,3.8714589999999998,15.5851,3.8714589999999998,15.3072L3.8714589999999998,6.9080200000000005C3.8714589999999998,6.33068,4.34679,5.861037,4.93112,5.861037L19.0689,5.861037C19.3501,5.861037,19.6175,5.97065,19.8176,6.16835C20.0176,6.36795,20.1286,6.63017,20.1286,6.9080200000000005L20.1286,15.3072Z" fill="#333333" fill-opacity="1"/><path d="M21.3,15.3072L21.3,6.9080200000000005Q21.3,5.993091,20.6449,5.345798Q19.9913,4.7,19.0689,4.7L4.93112,4.7Q4.00875,4.7,3.355126,5.345804Q2.7,5.993095,2.7,6.9080200000000005L2.7,15.3072Q2.7,16.2222,3.355126,16.8694Q4.00875,17.5152,4.93112,17.5152L11.26433,17.5152L11.26433,18.839L9.664819999999999,18.839Q9.36122,18.8381,9.14547,19.0514Q8.92821,19.2661,8.92915,19.5705Q8.928270000000001,19.872999999999998,9.14554,20.087699999999998Q9.36129,20.3009,9.665659999999999,20.3L14.3352,20.3Q14.6393,20.3,14.8549,20.0883Q15.0729,19.874299999999998,15.0729,19.569499999999998Q15.0738,19.2661,14.8566,19.0514Q14.6408,18.8381,14.3364,18.839L12.73577,18.839L12.73577,17.5152L19.0689,17.5152Q19.991,17.5152,20.6449,16.8687Q21.3,16.221,21.3,15.3072ZM20.2232,5.772607Q20.7,6.24373,20.7,6.9080200000000005L20.7,15.3072Q20.7,15.9705,20.2231,16.442Q19.7444,16.9152,19.0689,16.9152L12.13577,16.9152L12.13577,19.439L14.338,19.439Q14.395,19.4388,14.4348,19.478099999999998Q14.4731,19.515900000000002,14.4729,19.569499999999998Q14.4729,19.7,14.3352,19.7L9.663969999999999,19.7Q9.607,19.700200000000002,9.56724,19.660899999999998Q9.529,19.6231,9.52915,19.5686Q9.52899,19.515900000000002,9.56724,19.478099999999998Q9.607009999999999,19.4388,9.664819999999999,19.439L11.86433,19.439L11.86433,16.9152L4.93112,16.9152Q4.25517,16.9152,3.77683,16.4426Q3.3,15.9715,3.3,15.3072L3.3,6.9080200000000005Q3.3,6.24374,3.77683,5.772613Q4.25516,5.3,4.93112,5.3L19.0689,5.3Q19.7449,5.3,20.2232,5.772607ZM20.4286,15.3072L20.4286,6.9080200000000005Q20.4286,6.35424,20.0285,5.954932Q19.6298,5.561036,19.0689,5.561037L4.93112,5.561037Q4.36966,5.561037,3.971312,5.954621Q3.571459,6.34969,3.571459,6.9080200000000005L3.571459,15.3072Q3.571459,15.8612,3.971647,16.2604Q4.37022,16.6542,4.93112,16.6542L19.0689,16.6542Q19.6297,16.6542,20.0285,16.2604Q20.4286,15.865,20.4286,15.3072ZM19.6068,6.38176Q19.8286,6.6031200000000005,19.8286,6.9080200000000005L19.8286,15.3072Q19.8286,15.6144,19.6067,15.8337Q19.3834,16.0542,19.0689,16.0542L4.93112,16.0542Q4.61662,16.0542,4.39333,15.8336Q4.17146,15.6123,4.17146,15.3072L4.17146,6.9080200000000005Q4.17146,6.60034,4.39302,6.38143Q4.61608,6.16104,4.93112,6.16104L19.0689,6.16104Q19.3834,6.16104,19.6068,6.38176Z" fill-rule="evenodd" fill="#333333" fill-opacity="1"/></g><g><path d="M7.426573,9.68705C7.190735,9.68626,6.999349612,9.89781,7.00000171155,10.158570000000001L7.00000171155,13.52835C6.999310931,13.78915,7.190699,14.00076,7.426573,14C7.663054,14,7.853021,13.78773,7.853021,13.52835L7.853021,10.158570000000001C7.853702,9.89785,7.662375,9.6863,7.426573,9.68705ZM10.476189999999999,10.52941C10.24032,10.52867,10.04895,10.74027,10.04962,11.001059999999999L10.04962,13.52835C10.04893,13.78915,10.24032,14.00076,10.476189999999999,14C10.71076,14,10.90264,13.78773,10.90264,13.52835L10.90264,11.00104C10.9033,10.740310000000001,10.712,10.528739999999999,10.476189999999999,10.52941ZM13.52379,8.00000227089C13.28797,7.999291861,13.09665,8.210871,13.097339999999999,8.471611L13.097339999999999,13.52833C13.096630000000001,13.78909,13.28796,14.000689999999999,13.52379,13.99998C13.76036,13.99998,13.95036,13.78771,13.95036,13.52833L13.95036,8.471631C13.95106,8.210834,13.75966,7.999227519,13.52379,8.00000227089ZM16.573430000000002,10.52941C16.337600000000002,10.52872,16.14629,10.740310000000001,16.14698,11.001059999999999L16.14698,13.52835C16.146259999999998,13.78911,16.33759,14.000720000000001,16.573430000000002,14C16.80811,14,17,13.78773,17,13.52835L17,11.00104C17.000700000000002,10.74026,16.80928,10.52868,16.573430000000002,10.52941Z" fill="#333333" fill-opacity="1"/><path d="M14.25036,13.52833L14.25036,8.471814L14.25036,8.471631Q14.25093,8.160541,14.04828,7.9364897Q13.83347,7.698983,13.52281,7.700004Q13.2141,7.6990680000000005,12.99936,7.9365525Q12.796520000000001,8.160871,12.79735,8.472407L12.79734,13.52833Q12.7965,13.83907,12.99934,14.063410000000001Q13.21408,14.30091,13.5247,14.29998Q13.83433,14.29998,14.04861,14.0623Q14.25036,13.83851,14.25036,13.52833ZM13.6033,8.338965Q13.65058,8.391239,13.65036,8.470834L13.65036,8.471631L13.65036,13.52833Q13.65036,13.69998,13.52289,13.69998Q13.47975,13.700109999999999,13.44439,13.661Q13.39713,13.608730000000001,13.39734,13.52833L13.39734,8.470816Q13.39713,8.39124,13.44439,8.338973Q13.47975,8.299871,13.52478,8.300001Q13.56793,8.299859,13.6033,8.338965ZM8.15302,10.1589L8.15302,10.158570000000001Q8.15358,9.84754,7.950976,9.62353Q7.736211,9.38607,7.425616,9.38706Q7.116957,9.38601,6.9021346,9.62346Q6.699223,9.84775,6.700003,10.159320000000001L6.700002,13.52835Q6.699177,13.83915,6.9020778,14.06349Q7.116887,14.301,7.4275459999999995,14.3Q7.737076,14.3,7.951321,14.06229Q8.15302,13.8385,8.15302,13.52835L8.15302,10.1589ZM7.50598,10.02599Q7.55323,10.07823,7.553022,10.157779999999999L7.553021,10.158570000000001L7.553021,13.52835Q7.553021,13.7,7.4256,13.7Q7.382447,13.700140000000001,7.347073,13.66103Q7.29979,13.60875,7.300002,13.52835L7.300001,10.157820000000001Q7.299802,10.078240000000001,7.347072,10.02599Q7.382432,9.98691,7.42753,9.98705Q7.470639,9.98692,7.50598,10.02599ZM11.202639999999999,13.52835L11.202639999999999,11.00139L11.202639999999999,11.00104Q11.20318,10.69002,11.00062,10.46599Q10.7859,10.22853,10.47534,10.22941Q10.1665,10.22843,9.95171,10.46592Q9.74882,10.690249999999999,9.74962,11.00183L9.74962,13.52835Q9.7488,13.83915,9.9517,14.06349Q10.1665,14.301,10.47716,14.3Q10.785309999999999,14.3,10.99991,14.06263Q11.202639999999999,13.8384,11.202639999999999,13.52835ZM17.3,11.00179L17.3,11.00104Q17.3005,10.68996,17.0979,10.46592Q16.883110000000002,10.22845,16.572499999999998,10.22941Q16.26372,10.2285,16.04898,10.46599Q15.84615,10.69032,15.84698,11.001850000000001L15.84698,13.52835Q15.84612,13.839089999999999,16.04897,14.06343Q16.26372,14.30095,16.57434,14.3Q16.8826,14.3,17.0972,14.062660000000001Q17.3,13.838429999999999,17.3,13.52835L17.3,11.00179ZM10.55557,10.8684Q10.60284,10.92068,10.602640000000001,11.00027L10.602640000000001,11.00104L10.602640000000001,13.52835Q10.602640000000001,13.7,10.47522,13.7Q10.43207,13.700140000000001,10.39669,13.66103Q10.34941,13.60875,10.34962,13.52835L10.34962,11.00028Q10.34941,10.92067,10.3967,10.86839Q10.43208,10.829270000000001,10.47704,10.82941Q10.520199999999999,10.82928,10.55557,10.8684ZM16.65291,10.8684Q16.700200000000002,10.92068,16.7,11.00029L16.7,11.00104L16.7,13.52835Q16.7,13.7,16.57251,13.7Q16.52938,13.70013,16.49402,13.66103Q16.446759999999998,13.60876,16.44698,13.52835L16.44698,11.00026Q16.44677,10.92067,16.494030000000002,10.8684Q16.529400000000003,10.82928,16.57436,10.82941Q16.617530000000002,10.829270000000001,16.65291,10.8684Z" fill-rule="evenodd" fill="#333333" fill-opacity="1"/></g></g></svg>