<svg xmlns="http://www.w3.org/2000/svg" xmlns:xlink="http://www.w3.org/1999/xlink" fill="none" version="1.1" width="20" height="20" viewBox="0 0 20 20"><defs><clipPath id="master_svg0_93_17497"><rect x="0" y="0" width="20" height="20" rx="0"/></clipPath></defs><g clip-path="url(#master_svg0_93_17497)"><g><path d="M17.988324609375,18.3371C17.518424609375,18.6781,16.861924609375002,18.9792,16.035524609375003,19.2313C14.412624609375,19.7267,12.267624609375,20,9.993864609375,20C7.720054609375,20,5.573984609375,19.7267,3.952214609375,19.2313C3.127994609375,18.9792,2.4692846093750003,18.6781,1.999420609375,18.3371C1.590644609375,18.0416,1.105224609375,17.5473,1.105224609375,16.8764C1.105224609375,16.2033,1.590644609375,15.709,1.999420609375,15.4168C2.4692846093750003,15.0747,3.125774609375,14.7726,3.952214609375,14.5215C4.4187446093750005,14.3771,4.929714609375,14.2538,5.472894609375,14.1494C5.837534609375,14.0738,6.180364609375,14.3502,6.183814609375,14.7226C6.182184609375,15.0049,5.980384609375,15.2463,5.702834609375,15.298C5.200754609375,15.3924,4.734214609375,15.5079,4.304334609375,15.639C2.715884609375,16.1266,2.294894609375,16.6609,2.294894609375,16.8764C2.294894609375,17.0908,2.715884609375,17.6229,4.304334609375,18.1116C5.817244609375,18.5748,7.836684609375,18.8281,9.993864609375,18.8281C12.151024609375,18.8281,14.171624609375,18.5748,15.682324609375,18.1116C17.271824609375,17.6229,17.691724609375,17.0897,17.691724609375,16.8764C17.691724609375,16.6609,17.271824609375,16.1266,15.682324609375,15.6379C15.222624609375,15.4987,14.755824609375,15.3844,14.283824609375,15.2957C14.007124609375,15.2437,13.805924609375,15.003,13.803924609375,14.7215C13.803924609375,14.3516,14.146024609375,14.0772,14.513724609375,14.1472C15.058024609375,14.2527,15.568924609375,14.3771,16.035524609375003,14.5204C16.858624609375,14.7726,17.518424609375,15.0725,17.988324609375,15.4146C18.398224609375,15.709,18.883624609375,16.2033,18.883624609375,16.8764C18.883624609375,17.5473,18.398224609375,18.0416,17.988324609375,18.3371ZM14.942524609375,11.9267L10.803634609375,16.07C10.357164609375,16.519,9.630554609375,16.519,9.184084609375,16.07L5.045234609375,11.9267C4.385844609375,11.2671,3.866354609375,10.4813,3.517884609375,9.61622C3.180844609375,8.78065,3.0081046093749997,7.88793,3.0091346093749998,6.98695C3.0091346093749998,6.07831,3.180204609375,5.19411,3.517884609375,4.35546C3.865504609375,3.48993,4.385104609375,2.70393,5.045234609375,2.04499C6.358114609375,0.733743,8.138324609375001,-0.00191921,9.993864609375,0.00000348389C10.904714609375,0.00000348389,11.791124609375,0.172178,12.630924609375,0.509862C13.500624609375,0.860875,14.277124609375,1.37629,14.942524609375,2.04277C16.248324609375,3.3558,16.980524609375,5.13289,16.978624609375,6.98473C16.980524609375,8.83656,16.248324609375,10.6136,14.942524609375,11.9267ZM13.350724609375,6.22827C13.315424609375,6.10259,13.210624609375,6.00865,13.081924609375,5.98723L11.164624609375,5.63399L10.297114609375,3.82783C10.241864609375,3.71257,10.126104609375,3.63855,9.998304609375,3.63677C9.870184609375,3.6384,9.754014609375,3.7124,9.698384609375,3.82783L8.840844609375,5.63399L6.923604609375,5.99833C6.789454609375,6.01476,6.678024609375,6.10959,6.640354609375,6.23938C6.601034609375,6.36581,6.634314609375,6.50361,6.726994609375,6.59817L8.126604609375,7.94224L7.766704609375,9.89169C7.745594609375,10.025,7.798914609375,10.1583,7.901114609375,10.2349C8.005204609375,10.3089,8.141834609375,10.3188,8.255454609375,10.2605L9.994974609375,9.36851L11.730024609375,10.2605C11.842724609375,10.3249,11.983124609375,10.3148,12.085524609375,10.2349C12.190124609375,10.1536,12.241324609375,10.0212,12.218824609375,9.89058L11.868924609375,7.94224L13.254024609375,6.58706C13.350524609375,6.49524,13.387824609375,6.3573,13.350724609375,6.22938L13.350724609375,6.22827Z" fill="#3563EF" fill-opacity="1"/></g></g></svg>