<svg xmlns="http://www.w3.org/2000/svg" xmlns:xlink="http://www.w3.org/1999/xlink" fill="none" version="1.1" width="19" height="19" viewBox="0 0 19 19"><g><g><g><g><g><path d="M17.500959272766114,7.680924771118164Q17.499259272766114,5.116064771118165,15.687959272766113,3.3108447711181643Q13.876659272766114,1.505624771118164,11.319689272766114,1.505624771118164Q8.762269272766114,1.505624771118164,6.957309272766113,3.310584771118164Q5.716969272766113,4.544904771118164,5.314099272766113,6.245024771118164Q4.959059272766114,7.743284771118164,5.3391992727661135,9.218704771118164L2.016209572766113,12.541724771118163Q1.7492122727661132,12.816824771118164,1.6044082727661133,13.251224771118164Q1.4565942727661132,13.694724771118164,1.5121682727661132,14.075624771118164L1.7382352727661132,15.718024771118165Q1.8250122727661133,16.286024771118164,2.2690722727661132,16.732124771118166Q2.718425272766113,17.183524771118165,3.2893392727661133,17.26282477111816L4.920349272766114,17.487224771118164Q5.308569272766113,17.543924771118164,5.7447692727661135,17.402524771118166Q6.192829272766113,17.257324771118164,6.463179272766113,16.978924771118166L9.787489272766113,13.661624771118165Q11.255339272766113,14.045424771118164,12.756859272766114,13.689624771118163Q14.453459272766112,13.287624771118164,15.696059272766114,12.051024771118165Q17.502559272766113,10.244514771118164,17.500959272766114,7.680924771118164ZM11.319689272766114,2.505624771118164Q13.463359272766112,2.505624771118164,14.982059272766113,4.019154771118163Q16.499559272766113,5.531534771118164,16.500959272766114,7.681574771118164Q16.502359272766114,9.830574771118165,14.988959272766113,11.343944771118164Q13.948159272766114,12.379624771118165,12.526259272766113,12.716624771118164Q11.141179272766113,13.044824771118163,9.791739272766113,12.622824771118164Q9.726469272766114,12.602424771118164,9.658119272766113,12.600224771118164Q9.589769272766112,12.598124771118163,9.523349272766113,12.614424771118165Q9.456929272766114,12.630724771118164,9.397329272766113,12.664224771118164Q9.337729272766113,12.697724771118164,9.289319272766114,12.746024771118163L5.756819272766114,16.271024771118164Q5.477999272766113,16.558024771118163,5.064649272766113,16.497724771118165L3.4256692727661133,16.272124771118165Q3.1895692727661134,16.239424771118166,2.9778032727661135,16.026624771118165Q2.7642062727661134,15.812024771118164,2.726765272766113,15.567024771118165L2.5028322727661134,13.939324771118164Q2.444127272766113,13.536724771118164,2.733790272766113,13.238224771118164L6.253549272766113,9.718554771118164Q6.301749272766113,9.670354771118163,6.335289272766113,9.611014771118164Q6.3688292727661135,9.551674771118165,6.385259272766113,9.485524771118165Q6.401689272766113,9.419374771118164,6.399809272766113,9.351234771118165Q6.397939272766113,9.283104771118165,6.377889272766113,9.217954771118164Q5.959509272766113,7.858234771118164,6.287149272766113,6.475604771118164Q6.6243192727661135,5.052744771118164,7.662689272766113,4.019414771118164Q9.176479272766112,2.505624771118164,11.319689272766114,2.505624771118164Z" fill-rule="evenodd" fill="#000000" fill-opacity="1"/></g><g><path d="M7.0386994335937505,15.695890305175782L7.03885943359375,15.696040305175782Q7.10917943359375,15.766370305175782,7.20106943359375,15.804430305175782Q7.2929494335937495,15.842490305175781,7.39240943359375,15.842490305175781Q7.40534943359375,15.842490305175781,7.41827943359375,15.841820305175782Q7.51089943359375,15.83702030517578,7.59563943359375,15.799320305175781Q7.68037943359375,15.761630305175782,7.74595943359375,15.696040305175782Q7.8162894335937505,15.625720305175781,7.85434943359375,15.533830305175782Q7.89240943359375,15.441950305175782,7.89240943359375,15.342490305175781Q7.89240943359375,15.24303030517578,7.85434943359375,15.151150305175781Q7.8162894335937505,15.059260305175782,7.74595943359375,14.988940305175781L6.02097243359375,13.263947305175781Q5.95064643359375,13.19362030517578,5.85876143359375,13.155560305175781Q5.76687563359375,13.117500305175781,5.66741943359375,13.117500305175781Q5.56796323359375,13.117500305175781,5.47607743359375,13.155560305175781Q5.38419243359375,13.19362030517578,5.31386643359375,13.263947305175781Q5.24353943359375,13.334273305175781,5.20547943359375,13.42615830517578Q5.16741943359375,13.51804410517578,5.16741943359375,13.617500305175781Q5.16741943359375,13.716956505175782,5.20547943359375,13.808842305175782Q5.24353943359375,13.900727305175781,5.31386643359375,13.971053305175781L7.0386994335937505,15.695890305175782Z" fill-rule="evenodd" fill="#000000" fill-opacity="1"/></g><g><path d="M12.524049999999999,6.4759514Q12.0481,6,11.375,6Q10.701903,6,10.2259515,6.4759515Q9.75,6.951903,9.75,7.625Q9.75,8.2981,10.2259514,8.774049999999999Q10.701903,9.25,11.375,9.25Q12.0481,9.25,12.524049999999999,8.774049999999999Q13,8.2981,13,7.625Q13,6.951903,12.524049999999999,6.4759514ZM10.933058,7.183058Q11.116117,7,11.375,7Q11.63388,7,11.81694,7.183058Q12,7.366117,12,7.625Q12,7.8838799999999996,11.81694,8.06694Q11.63388,8.25,11.375,8.25Q11.116117,8.25,10.933058,8.06694Q10.75,7.8838799999999996,10.75,7.625Q10.75,7.366117,10.933058,7.183058Z" fill-rule="evenodd" fill="#000000" fill-opacity="1"/></g><g transform="matrix(-1,0,0,-1,37,37)" style="opacity:0;"><path d="M18,18.5L18,36.5Q18,36.5492,18.009607,36.5975Q18.019215,36.6458,18.03806,36.6913Q18.056906,36.7368,18.084265,36.7778Q18.111625,36.8187,18.146447,36.8536Q18.181269,36.888400000000004,18.222215,36.9157Q18.263161,36.9431,18.308658,36.9619Q18.354155,36.9808,18.4024549,36.9904Q18.4507543,37,18.5,37L36.5,37Q36.5492,37,36.5975,36.9904Q36.6458,36.9808,36.6913,36.9619Q36.7368,36.9431,36.7778,36.9157Q36.8187,36.888400000000004,36.8536,36.8536Q36.888400000000004,36.8187,36.9157,36.7778Q36.9431,36.7368,36.9619,36.6913Q36.9808,36.6458,36.9904,36.5975Q37,36.5492,37,36.5L37,18.5Q37,18.4507543,36.9904,18.4024549Q36.9808,18.354155,36.9619,18.308658Q36.9431,18.263161,36.9157,18.222215Q36.888400000000004,18.181269,36.8536,18.146447Q36.8187,18.111625,36.7778,18.084265Q36.7368,18.056906,36.6913,18.03806Q36.6458,18.019215,36.5975,18.009607Q36.5492,18,36.5,18L18.5,18Q18.4507543,18,18.4024549,18.009607Q18.354155,18.019215,18.308658,18.03806Q18.263161,18.056906,18.222215,18.084265Q18.181269,18.111625,18.146447,18.146447Q18.111625,18.181269,18.084265,18.222215Q18.056906,18.263161,18.03806,18.308658Q18.019215,18.354155,18.009607,18.4024549Q18,18.4507543,18,18.5ZM19,36L36,36L36,19L19,19L19,36Z" fill-rule="evenodd" fill="#000000" fill-opacity="1"/></g></g></g></g></g></svg>