<svg xmlns="http://www.w3.org/2000/svg" xmlns:xlink="http://www.w3.org/1999/xlink" fill="none" version="1.1" width="24" height="24" viewBox="0 0 24 24"><defs><clipPath id="master_svg0_584_03451"><rect x="0" y="0" width="24" height="24" rx="0"/></clipPath></defs><g clip-path="url(#master_svg0_584_03451)"><g><path d="M5.75,12.6452L5.75,20Q5.75,20.7249,6.262560000000001,21.2374Q6.77511,21.75,7.5,21.75L16.5,21.75Q17.224899999999998,21.75,17.7374,21.2374Q18.25,20.7249,18.25,20L18.25,12.6452Q19.6179,12.2121,20.5734,11.06773Q21.75,9.658470000000001,21.75,7.82Q21.75,5.71995,20.265,4.23498Q18.78,2.75,16.68,2.75Q16.099600000000002,2.75,15.5436,2.877733Q14.937,2.218674,14.1265,1.804008Q13.0437,1.25,11.82,1.25Q10.63123,1.25,9.57255,1.774273Q8.76503,2.174172,8.15274,2.818059Q7.74189,2.75,7.32,2.75Q5.219939999999999,2.75,3.734968,4.23498Q2.25,5.71995,2.25,7.82Q2.25,9.658470000000001,3.426637,11.06773Q4.38211,12.2121,5.75,12.6452ZM7.5,20.25Q7.25,20.25,7.25,20L7.25,12.0623Q7.25,11.99741,7.23885,11.93348Q7.22771,11.86955,7.20575,11.80848Q7.18378,11.74742,7.15166,11.69103Q7.11954,11.63465,7.07821,11.58462Q7.03687,11.53459,6.98756,11.4924Q6.93825,11.45022,6.882429999999999,11.41713Q6.8266100000000005,11.38404,6.76593,11.36103Q6.7052499999999995,11.33802,6.64152,11.32577Q5.3964300000000005,11.08653,4.57806,10.10637Q3.75,9.1146,3.75,7.82Q3.75,6.34127,4.79563,5.295640000000001Q5.84126,4.25,7.32,4.25Q7.78878,4.25,8.23672,4.36861Q8.34267,4.39667,8.45222,4.39323Q8.56176,4.3898,8.66574,4.35516Q8.76973,4.32052,8.859449999999999,4.257569999999999Q8.949169999999999,4.1946200000000005,9.01713,4.10863Q10.09086,2.75,11.82,2.75Q13.6064,2.75,14.6792,4.18183Q14.7146,4.22911,14.757,4.27026Q14.7994,4.31141,14.8477,4.34542Q14.896,4.37943,14.9491,4.40545Q15.0021,4.43147,15.0586,4.44886Q15.115,4.46626,15.1735,4.474600000000001Q15.232,4.48294,15.2911,4.48202Q15.3502,4.4811,15.4084,4.470940000000001Q15.4666,4.46078,15.5225,4.44163Q16.081899999999997,4.25,16.68,4.25Q18.1587,4.25,19.2044,5.295640000000001Q20.25,6.34127,20.25,7.82Q20.25,9.1146,19.4219,10.10637Q18.6036,11.08653,17.3585,11.32577Q17.2947,11.33802,17.234099999999998,11.36103Q17.1734,11.38404,17.1176,11.41713Q17.061700000000002,11.45022,17.0124,11.4924Q16.9631,11.53459,16.921799999999998,11.58462Q16.880499999999998,11.63465,16.848300000000002,11.69103Q16.816200000000002,11.74742,16.7943,11.80848Q16.7723,11.86955,16.7611,11.93348Q16.75,11.99741,16.75,12.0623L16.75,20Q16.75,20.25,16.5,20.25L7.5,20.25Z" fill-rule="evenodd" fill="#333333" fill-opacity="1"/></g><g><path d="M6.5,16.25L17.5,16.25Q17.573900000000002,16.25,17.6463,16.235589Q17.7188,16.221178,17.787,16.19291Q17.8553,16.164641,17.9167,16.123601999999998Q17.978099999999998,16.082563,18.0303,16.03033Q18.0826,15.978097,18.1236,15.916678Q18.1646,15.855258,18.1929,15.787013Q18.2212,15.718767,18.235599999999998,15.646318Q18.25,15.5738685,18.25,15.5Q18.25,15.4261315,18.235599999999998,15.353682Q18.2212,15.281233,18.1929,15.212987Q18.1646,15.144742,18.1236,15.083322Q18.0826,15.021903,18.0303,14.96967Q17.978099999999998,14.917437,17.9167,14.876398Q17.8553,14.835359,17.787,14.80709Q17.7188,14.778822,17.6463,14.764410999999999Q17.573900000000002,14.75,17.5,14.75L6.5,14.75Q6.4261315,14.75,6.353682,14.764410999999999Q6.281233,14.778822,6.212987,14.80709Q6.144742,14.835359,6.083322,14.876398Q6.021903,14.917437,5.96967,14.96967Q5.917437,15.021903,5.876398,15.083322Q5.835359,15.144742,5.80709,15.212987Q5.778822,15.281233,5.764411,15.353682Q5.75,15.4261315,5.75,15.5Q5.75,15.5738685,5.764411,15.646318Q5.778822,15.718767,5.80709,15.787013Q5.835359,15.855258,5.876398,15.916678Q5.917437,15.978097,5.96967,16.03033Q6.021903,16.082563,6.083322,16.123601999999998Q6.144742,16.164641,6.212987,16.19291Q6.281233,16.221178,6.353682,16.235589Q6.4261315,16.25,6.5,16.25Z" fill-rule="evenodd" fill="#333333" fill-opacity="1"/></g><g><path d="M9.25,12.5L9.25,15.5Q9.25,15.57387,9.264410999999999,15.64632Q9.278822,15.71877,9.30709,15.78701Q9.335359,15.85526,9.376398,15.91668Q9.417437,15.9781,9.46967,16.03033Q9.521903,16.08256,9.583322,16.1236Q9.644742,16.16464,9.712987,16.19291Q9.781233,16.22118,9.853682,16.235590000000002Q9.9261315,16.25,10,16.25Q10.0738685,16.25,10.146318,16.235590000000002Q10.218767,16.22118,10.287013,16.19291Q10.355258,16.16464,10.416678,16.1236Q10.478097,16.08256,10.53033,16.03033Q10.582563,15.9781,10.623602,15.91668Q10.664641,15.85526,10.69291,15.78701Q10.721178,15.71877,10.735589000000001,15.64632Q10.75,15.57387,10.75,15.5L10.75,12.5Q10.75,12.4261315,10.735589000000001,12.353682Q10.721178,12.281233,10.69291,12.212987Q10.664641,12.144742,10.623602,12.083322Q10.582563,12.021903,10.53033,11.96967Q10.478097,11.917437,10.416678,11.876398Q10.355258,11.835359,10.287013,11.80709Q10.218767,11.778822,10.146318,11.764410999999999Q10.0738685,11.75,10,11.75Q9.9261315,11.75,9.853682,11.764410999999999Q9.781233,11.778822,9.712987,11.80709Q9.644742,11.835359,9.583322,11.876398Q9.521903,11.917437,9.46967,11.96967Q9.417437,12.021903,9.376398,12.083322Q9.335359,12.144742,9.30709,12.212987Q9.278822,12.281233,9.264410999999999,12.353682Q9.25,12.4261315,9.25,12.5Z" fill-rule="evenodd" fill="#333333" fill-opacity="1"/></g><g><path d="M16.75,14L16.75,17Q16.75,17.07387,16.764411,17.14632Q16.778822,17.21877,16.80709,17.28701Q16.835359,17.35526,16.876398000000002,17.41668Q16.917437,17.4781,16.96967,17.53033Q17.021903000000002,17.58256,17.083322,17.6236Q17.144742,17.66464,17.212987,17.69291Q17.281233,17.72118,17.353682,17.735590000000002Q17.4261315,17.75,17.5,17.75Q17.5738685,17.75,17.646318,17.735590000000002Q17.718767,17.72118,17.787013,17.69291Q17.855258,17.66464,17.916678,17.6236Q17.978096999999998,17.58256,18.03033,17.53033Q18.082563,17.4781,18.123601999999998,17.41668Q18.164641,17.35526,18.19291,17.28701Q18.221178,17.21877,18.235589,17.14632Q18.25,17.07387,18.25,17L18.25,14Q18.25,13.9261315,18.235589,13.853682Q18.221178,13.781233,18.19291,13.712987Q18.164641,13.644742,18.123601999999998,13.583322Q18.082563,13.521903,18.03033,13.46967Q17.978096999999998,13.417437,17.916678,13.376398Q17.855258,13.335359,17.787013,13.30709Q17.718767,13.278822,17.646318,13.264410999999999Q17.5738685,13.25,17.5,13.25Q17.4261315,13.25,17.353682,13.264410999999999Q17.281233,13.278822,17.212987,13.30709Q17.144742,13.335359,17.083322,13.376398Q17.021903000000002,13.417437,16.96967,13.46967Q16.917437,13.521903,16.876398000000002,13.583322Q16.835359,13.644742,16.80709,13.712987Q16.778822,13.781233,16.764411,13.853682Q16.75,13.9261315,16.75,14Z" fill-rule="evenodd" fill="#333333" fill-opacity="1"/></g><g><path d="M6,14L6,17Q6,17.04925,6.009607,17.09754Q6.019215,17.14584,6.03806,17.19134Q6.056906,17.23684,6.084265,17.27778Q6.111625,17.31873,6.146447,17.35355Q6.181269,17.388370000000002,6.222215,17.41573Q6.263161,17.44309,6.308658,17.46194Q6.354155,17.48078,6.4024549,17.49039Q6.4507543,17.5,6.5,17.5Q6.5492457,17.5,6.5975451,17.49039Q6.645845,17.48078,6.691342,17.46194Q6.736839,17.44309,6.777785,17.41573Q6.818731,17.388370000000002,6.853553,17.35355Q6.888375,17.31873,6.915735,17.27778Q6.943094,17.23684,6.96194,17.19134Q6.980785,17.14584,6.990393,17.09754Q7,17.04925,7,17L7,14Q7,13.9507543,6.990393,13.9024549Q6.980785,13.854155,6.96194,13.808658Q6.943094,13.763161,6.915735,13.722215Q6.888375,13.681269,6.853553,13.646447Q6.818731,13.611625,6.777785,13.584265Q6.736839,13.556906,6.691342,13.53806Q6.645845,13.519214999999999,6.5975451,13.509607Q6.5492457,13.5,6.5,13.5Q6.4507543,13.5,6.4024549,13.509607Q6.354155,13.519214999999999,6.308658,13.53806Q6.263161,13.556906,6.222215,13.584265Q6.181269,13.611625,6.146447,13.646447Q6.111625,13.681269,6.084265,13.722215Q6.056906,13.763161,6.03806,13.808658Q6.019215,13.854155,6.009607,13.9024549Q6,13.9507543,6,14Z" fill-rule="evenodd" fill="#333333" fill-opacity="1"/></g></g></svg>