<svg xmlns="http://www.w3.org/2000/svg" xmlns:xlink="http://www.w3.org/1999/xlink" fill="none" version="1.1" width="20" height="20" viewBox="0 0 20 20"><defs><clipPath id="master_svg0_216_15158"><rect x="0" y="0" width="20" height="20" rx="0"/></clipPath></defs><g clip-path="url(#master_svg0_216_15158)"><g><g><path d="M4.16664598828125,18.8333259765625L15.83331298828125,18.8333259765625Q16.385612988281252,18.8333259765625,16.77611298828125,18.4427259765625Q17.16661298828125,18.0522259765625,17.16661298828125,17.4999259765625L17.16661298828125,2.4999589765625Q17.16661298828125,1.9476739765625,16.77611298828125,1.5571519765625Q16.385612988281252,1.1666259765625,15.83331298828125,1.1666259765625L4.16664598828125,1.1666259765625Q3.61436098828125,1.1666259765625,3.22383698828125,1.5571499765625Q2.83331298828125,1.9476739765625,2.83331298828125,2.4999589765625L2.83331298828125,17.4999259765625Q2.83331298828125,18.0522259765625,3.22383898828125,18.4427259765625Q3.61436098828125,18.8333259765625,4.16664598828125,18.8333259765625ZM16.16661298828125,17.4999259765625Q16.16661298828125,17.8333259765625,15.83331298828125,17.8333259765625L4.16664598828125,17.8333259765625Q3.83331298828125,17.8333259765625,3.83331298828125,17.4999259765625L3.83331298828125,2.4999589765625Q3.83331298828125,2.1666259765625,4.16664598828125,2.1666259765625L15.83331298828125,2.1666259765625Q16.16661298828125,2.1666259765625,16.16661298828125,2.4999589765625L16.16661298828125,17.4999259765625Z" fill-rule="evenodd" fill="#232D42" fill-opacity="1" style="mix-blend-mode:passthrough"/></g><g><path d="M11.25,7.2763559765625L9.11132,9.5122359765625Q9.07728,9.5478259765625,9.036952,9.5760859765625Q8.996624,9.604345976562499,8.951556,9.6241959765625Q8.906489,9.6440559765625,8.858415,9.6547259765625Q8.8103408,9.6654059765625,8.7611073,9.666505976562501Q8.7118737,9.6675959765625,8.6633728,9.6590659765625Q8.614872,9.6505359765625,8.568967,9.6327059765625Q8.523063,9.6148759765625,8.481519,9.588425976562501Q8.439975,9.5619859765625,8.404388,9.5279459765625Q8.330428,9.4572059765625,8.290214,9.3630859765625Q8.25,9.268975976562501,8.25,9.1666259765625L8.25,1.6666259765625Q8.25,1.6173802765625,8.259607,1.5690808765625Q8.269214999999999,1.5207809765625,8.28806,1.4752839765624999Q8.306906,1.4297869765625,8.334265,1.3888409765625Q8.361625,1.3478949765625,8.396447,1.3130729765625Q8.431269,1.2782509765625,8.472215,1.2508909765625Q8.513161,1.2235319765625001,8.558658,1.2046859765625Q8.604155,1.1858409765625,8.6524549,1.1762329765625Q8.7007543,1.1666259765625,8.75,1.1666259765625L13.75,1.1666259765625Q13.79925,1.1666259765625,13.84755,1.1762329765625Q13.89584,1.1858409765625,13.94134,1.2046859765625Q13.98684,1.2235319765625001,14.02778,1.2508909765625Q14.06873,1.2782509765625,14.10355,1.3130729765625Q14.13837,1.3478949765625,14.16573,1.3888409765625Q14.19309,1.4297869765625,14.21194,1.4752839765624999Q14.23078,1.5207809765625,14.24039,1.5690808765625Q14.25,1.6173802765625,14.25,1.6666259765625L14.25,9.1666259765625Q14.25,9.2158759765625,14.24039,9.2641659765625Q14.23078,9.3124659765625,14.21194,9.3579659765625Q14.19309,9.4034659765625,14.16573,9.4444059765625Q14.13837,9.4853559765625,14.10355,9.5201759765625Q14.06873,9.5549959765625,14.02778,9.5823559765625Q13.98684,9.6097159765625,13.94134,9.6285659765625Q13.89584,9.6474059765625,13.84755,9.6570159765625Q13.79925,9.6666259765625,13.75,9.6666259765625Q13.647649999999999,9.6666259765625,13.55354,9.6264159765625Q13.45942,9.5861959765625,13.38868,9.5122359765625L11.25,7.2763559765625ZM10.90439,6.1916759765625Q10.89636,6.1993559765625,10.88868,6.2073859765625L9.25,7.9205459765625L9.25,2.1666259765625L13.25,2.1666259765625L13.25,7.9205459765625L11.61132,6.2073859765625Q11.57728,6.1718059765625,11.536950000000001,6.1435359765625Q11.49662,6.1152759765625,11.45156,6.0954259765625Q11.40649,6.0755759765625,11.35841,6.0648959765625Q11.31034,6.0542159765625,11.26111,6.0531259765625Q11.21187,6.0520259765625,11.16337,6.0605659765625Q11.11487,6.0690959765625,11.06897,6.0869259765625Q11.023060000000001,6.1047559765625,10.98152,6.1311959765625Q10.93997,6.1576359765625,10.90439,6.1916759765625Z" fill-rule="evenodd" fill="#232D42" fill-opacity="1" style="mix-blend-mode:passthrough"/></g><g><path d="M4.20006201171875,1.9999589765625Q4.18341611171875,2.0016259765625,4.16668701171875,2.0016259765625Q4.13369241171875,2.0016259765625,4.10133171171875,1.9951889765625Q4.06897111171875,1.9887519765625,4.03848801171875,1.9761259765624999Q4.00800501171875,1.9634989765625,3.98057101171875,1.9451679765625Q3.95313701171875,1.9268369765625,3.92980601171875,1.9035069765625Q3.90647601171875,1.8801759765625,3.88814501171875,1.8527419765625Q3.86981401171875,1.8253079765625,3.85718701171875,1.7948249765625Q3.84456101171875,1.7643418765625,3.83812401171875,1.7319812765625Q3.83168701171875,1.6996205765625,3.83168701171875,1.6666259765625Q3.83168701171875,1.6336313765625,3.83812401171875,1.6012706765625Q3.84456101171875,1.5689100765625,3.85718701171875,1.5384269765625Q3.86981401171875,1.5079439765625,3.88814501171875,1.4805099765625Q3.90647601171875,1.4530759765625,3.92980601171875,1.4297449765625Q3.95313701171875,1.4064149765625,3.98057101171875,1.3880839765625Q4.00800501171875,1.3697529765625,4.03848801171875,1.3571259765625001Q4.06897111171875,1.3444999765625,4.10133171171875,1.3380629765625Q4.13369241171875,1.3316259765625,4.16668701171875,1.3316259765625Q4.18341611171875,1.3316259765625,4.20006201171875,1.3332929765625L15.79998701171875,1.3332929765625Q15.81658701171875,1.3316259765625,15.83338701171875,1.3316259765625Q15.86638701171875,1.3316259765625,15.89868701171875,1.3380629765625Q15.93108701171875,1.3444999765625,15.96158701171875,1.3571259765625001Q15.99198701171875,1.3697529765625,16.019487011718752,1.3880839765625Q16.046887011718752,1.4064149765625,16.07018701171875,1.4297449765625Q16.09358701171875,1.4530759765625,16.11188701171875,1.4805099765625Q16.13018701171875,1.5079439765625,16.14288701171875,1.5384269765625Q16.155487011718748,1.5689100765625,16.16188701171875,1.6012706765625Q16.16838701171875,1.6336313765625,16.16838701171875,1.6666259765625Q16.16838701171875,1.6996205765625,16.16188701171875,1.7319812765625Q16.155487011718748,1.7643418765625,16.14288701171875,1.7948249765625Q16.13018701171875,1.8253079765625,16.11188701171875,1.8527419765625Q16.09358701171875,1.8801759765625,16.07018701171875,1.9035069765625Q16.046887011718752,1.9268369765625,16.019487011718752,1.9451679765625Q15.99198701171875,1.9634989765625,15.96158701171875,1.9761259765624999Q15.93108701171875,1.9887519765625,15.89868701171875,1.9951889765625Q15.86638701171875,2.0016259765625,15.83338701171875,2.0016259765625Q15.81658701171875,2.0016259765625,15.79998701171875,1.9999589765625L4.20006201171875,1.9999589765625Z" fill-rule="evenodd" fill="#232D42" fill-opacity="1" style="mix-blend-mode:passthrough"/></g></g></g></svg>