<svg xmlns="http://www.w3.org/2000/svg" xmlns:xlink="http://www.w3.org/1999/xlink" fill="none" version="1.1" width="24" height="24" viewBox="0 0 24 24"><defs><clipPath id="master_svg0_234_26011"><rect x="0" y="0" width="24" height="24" rx="0"/></clipPath></defs><g><g clip-path="url(#master_svg0_234_26011)"><g><g><path d="M9.532020817871093,22.000244140625L17.20960081787109,22.000244140625C19.01930081787109,22.000244140625,20.499900817871094,20.457344140625,20.499900817871094,18.571644140625L20.499900817871094,5.428814140625001C20.499900817871094,3.624584140625,19.144400817871094,2.134221140625,17.442200817871093,2.008789720625L17.442200817871093,7.914334140625C17.44290081787109,7.934054140625,17.44290081787109,7.953794140625,17.442200817871093,7.973504140625L17.442200817871093,8.000244140625L17.441000817871092,8.000244140625C17.428400817871093,8.200494140625,17.348700817871094,8.397014140625,17.201800817871096,8.550064140625C16.880500817871095,8.884824140625,16.359600817871094,8.884824140625,16.038400817871093,8.550064140625L15.747500817871094,8.246924140625C15.426200817871093,7.912114140625,14.905300817871094,7.912114140625,14.584000817871093,8.246924140625L14.293100817871094,8.550064140625C13.971900817871093,8.885264140625,13.450720817871094,8.885474140625,13.129280817871093,8.550534140625C12.982280817871093,8.397354140625,12.902550817871093,8.200644140625,12.890060817871094,8.000244140625L12.888980817871094,8.000244140625L12.888980817871094,7.978564140625C12.888110817871095,7.955794140625,12.888110817871095,7.932994140625,12.888980817871094,7.910224140625L12.888980817871094,2.000244140625L9.532020817871093,2.000244140625L9.532020817871093,22.000244140625ZM7.886860817871094,22.000244140625L7.886860817871094,2.000244140625L6.790220817871093,2.000244140625C4.9805508178710935,2.000244140625,3.4999008178710938,3.543104140625,3.4999008178710938,5.428814140625001L3.4999008178710938,18.571644140625C3.4999008178710938,20.457344140625,4.9805508178710935,22.000244140625,6.790220817871093,22.000244140625L7.886860817871094,22.000244140625ZM15.797100817871094,2.000244140625L14.534100817871094,2.000244140625L14.534100817871094,5.874624140625L14.584000817871093,5.822634140625C14.905300817871094,5.487834140625,15.426200817871093,5.487834140625,15.747500817871094,5.822634140625L15.797100817871094,5.874344140625L15.797100817871094,2.000244140625Z" fill-rule="evenodd" fill="#FFFFFF" fill-opacity="1"/></g></g></g></g></svg>