<svg xmlns="http://www.w3.org/2000/svg" xmlns:xlink="http://www.w3.org/1999/xlink" fill="none" version="1.1" width="24" height="24" viewBox="0 0 24 24"><defs><clipPath id="master_svg0_112_08338"><rect x="0" y="0" width="24" height="24" rx="0"/></clipPath></defs><g clip-path="url(#master_svg0_112_08338)"><g><path d="M5.20981,6L5.217029999999999,6L18.7942,6C19.1091,6,19.3628,6.2554,19.3628,6.572856L19.3628,6.580124L19.3628,15.62534C19.3628,15.93525,19.1091,16.1909,18.7942,16.1909L18.783,16.1909L5.20981,16.1909C4.89464,16.1909,4.64117,15.93534,4.64117,15.62534L4.64117,15.61089L4.64117,6.572856C4.64117,6.2553090000000005,4.89455,6,5.20981,6ZM3.560303,19C3.249099,19,3,18.752000000000002,3,18.4345C3,18.124299999999998,3.249009,17.869,3.560303,17.869L20.4419,17.869C20.7569,17.869,21,18.124200000000002,21,18.4345C21,18.7519,20.757,19,20.4419,19L3.560303,19ZM18.2325,7.13108L5.774760000000001,7.13108L5.774760000000001,15.04876L18.2325,15.04876L18.2325,7.13108L18.2325,7.13108Z" fill="#333333" fill-opacity="1"/><path d="M4.62984,5.99122976Q4.39117,6.231678,4.39117,6.572856L4.39117,15.62534Q4.39117,15.96208,4.63063,16.2013Q4.87057,16.4409,5.20981,16.4409L18.783,16.4409L18.7942,16.4409Q19.1333,16.4409,19.3733,16.2012Q19.6128,15.96201,19.6128,15.62534L19.6128,6.572856Q19.6128,6.231761,19.374,5.99124475Q19.1345,5.75,18.7942,5.75L5.217029999999999,5.75L5.20981,5.75Q4.86928,5.75,4.62984,5.99122976ZM4.89117,15.61089L4.89117,6.572856Q4.89117,6.437696,4.9847,6.343466Q5.07747,6.25,5.20981,6.25L5.217029999999999,6.25L18.7942,6.25Q19.1128,6.25,19.1128,6.572856L19.1128,15.62534Q19.1128,15.94093,18.7942,15.94093L18.783,15.94093L5.20981,15.94092Q4.89117,15.94092,4.89117,15.62534L4.89117,15.61089ZM5.524760000000001,15.29876L18.4825,15.29876L18.4825,15.04876L18.4825,6.881083L5.524760000000001,6.881083L5.524760000000001,15.29876ZM17.9825,14.79876L6.024760000000001,14.79876L6.024760000000001,7.38108L17.9825,7.38108L17.9825,14.79876ZM3.560303,19.25L20.4419,19.25Q20.7826,19.25,21.0172,19.011699999999998Q21.25,18.7753,21.25,18.4345Q21.25,18.098399999999998,21.018,17.8607Q20.7819,17.619,20.4419,17.619L3.560303,17.619Q3.222925,17.619,2.9853929,17.8599Q2.75,18.098599999999998,2.75,18.4345Q2.75,18.775199999999998,2.9862285,19.0126Q3.222385,19.25,3.560303,19.25ZM20.75,18.4345Q20.75,18.75,20.4419,18.75L3.560303,18.75Q3.25,18.75,3.25,18.4345Q3.25,18.119,3.560303,18.119L20.4419,18.119Q20.75,18.119,20.75,18.4345Z" fill-rule="evenodd" fill="#333333" fill-opacity="1"/></g></g></svg>