<svg xmlns="http://www.w3.org/2000/svg" xmlns:xlink="http://www.w3.org/1999/xlink" fill="none" version="1.1" width="16" height="16" viewBox="0 0 16 16"><g><g><rect x="0" y="0" width="16" height="16" rx="0" fill="#FFFFFF" fill-opacity="0"/></g><g><path d="" fill="#FFFFFF" fill-opacity="0"/><path d="M5.890416984558105,1.1012479531250001L2.2237509845581056,8.101251953125Q2.1666669845581055,8.210231953125,2.1666669845581055,8.333251953125Q2.1666669845581055,8.382501953125,2.1762739845581054,8.430791953125Q2.1858819845581055,8.479091953125,2.2047269845581052,8.524591953125Q2.2235729845581056,8.570091953125,2.2509319845581053,8.611031953125Q2.2782919845581056,8.651981953125,2.3131139845581057,8.686801953125Q2.3479359845581054,8.721621953125,2.3888819845581053,8.748981953125Q2.4298279845581057,8.776341953125,2.4753249845581053,8.795191953125Q2.5208219845581055,8.814031953125,2.5691218845581054,8.823641953125Q2.6174212845581053,8.833251953125,2.6666669845581055,8.833251953125L6.684726984558106,8.833251953125L5.183126984558106,14.539351953125Q5.165806984558106,14.605151953125,5.166706984558106,14.673251953125Q5.167616984558105,14.741351953125,5.186696984558106,14.806651953125Q5.2057769845581054,14.872051953125,5.241636984558106,14.929951953125Q5.2774969845581055,14.987851953125,5.327526984558105,15.033951953125Q5.400606984558106,15.101451953125,5.493936984558106,15.135851953125Q5.587276984558105,15.170151953125,5.686646984558106,15.166151953125Q5.786026984558106,15.162251953125,5.876316984558105,15.120551953125Q5.966606984558105,15.078851953125,6.034066984558105,15.005751953125L14.034066984558105,6.339061953125Q14.097966984558106,6.269791953125,14.132366984558105,6.181991953125Q14.166666984558105,6.094191953125,14.166666984558105,5.999921953125Q14.166666984558105,5.950671953125,14.157066984558105,5.902371953125Q14.147466984558106,5.854071953125,14.128566984558105,5.808571953125Q14.109766984558105,5.763081953125,14.082366984558105,5.722131953125Q14.055066984558106,5.681181953125,14.020266984558106,5.646361953125Q13.985366984558105,5.611541953125,13.944466984558105,5.584181953125Q13.903466984558106,5.556821953125,13.857966984558105,5.537981953125Q13.812466984558105,5.519131953125,13.764166984558106,5.509521953125Q13.715866984558106,5.499921953125,13.666666984558105,5.499921953125L9.695396984558105,5.499921953125L12.726466984558105,1.642162953125Q12.833366984558106,1.506183953125,12.833366984558106,1.333251953125Q12.833366984558106,1.284006253125,12.823766984558105,1.235706853125Q12.814166984558106,1.187406953125,12.795266984558106,1.1419099531249999Q12.776466984558105,1.096412953125,12.749066984558105,1.055466953125Q12.721666984558105,1.014520953125,12.686866984558106,0.979698953125Q12.652066984558106,0.944876953125,12.611116984558105,0.917516953125Q12.570176984558106,0.890157953125,12.524676984558106,0.871311953125Q12.479176984558105,0.852466953125,12.430876984558106,0.8428589531249999Q12.382576984558105,0.833251953125,12.333336984558105,0.833251953125L6.333336984558105,0.833251953125Q6.2648969845581055,0.833251953125,6.198966984558106,0.851643953125Q6.1330469845581055,0.8700359531249999,6.0744869845581055,0.905465953125Q6.015936984558106,0.9408959531250001,5.969056984558105,0.9907589531250001Q5.922176984558106,1.040621953125,5.890416984558105,1.1012479531250001ZM3.4930129845581055,7.833251953125L7.333336984558105,7.833251953125Q7.398026984558105,7.833251953125,7.460576984558106,7.849711953125Q7.556766984558106,7.875021953125,7.635936984558105,7.935211953125Q7.715106984558106,7.995411953125,7.7652269845581054,8.081311953124999Q7.8153369845581055,8.167221953125,7.8287569845581055,8.265771953125Q7.842186984558105,8.364311953125,7.816866984558105,8.460501953125L6.661206984558106,12.852051953125L12.524676984558106,6.499921953125L8.666666984558105,6.499921953125Q8.493736984558105,6.499921953125,8.357756984558105,6.393081953125Q8.279546984558106,6.331631953125,8.230816984558105,6.244931953125Q8.182076984558105,6.158241953125,8.170226984558106,6.059491953125Q8.158376984558107,5.960741953125,8.185216984558107,5.864981953125Q8.212056984558107,5.769211953125,8.273506984558106,5.691011953125L11.304606984558106,1.833251953125L6.635866984558105,1.833251953125L3.4930129845581055,7.833251953125Z" fill-rule="evenodd" fill="#000000" fill-opacity="1"/></g></g></svg>