<svg xmlns="http://www.w3.org/2000/svg" xmlns:xlink="http://www.w3.org/1999/xlink" fill="none" version="1.1" width="26" height="26" viewBox="0 0 26 26"><g><g style="opacity:0;"><rect x="0" y="0" width="26" height="26" rx="0" fill="#FFFFFF" fill-opacity="1"/></g><g><g><path d="M13.00000182006836,24.25C16.94432182006836,21.8327,21.02952182006836,19.018700000000003,21.757921820068358,14.1573C21.93442182006836,12.98,21.91252182006836,11.74,21.62002182006836,10.45C20.57002182006836,5.83,16.54002182006836,3.75,13.00000182006836,3.75C13.00000182006836,3.75,13.00000182006836,3.75,12.99000182006836,3.75C9.46000182006836,3.75,5.420001820068359,5.82,4.369999820068359,10.440000000000001C4.077500020068359,11.73,4.0556250200683595,12.97062,4.232031820068359,14.1489C4.96080682006836,19.0167,9.048151820068359,21.8326,13.00000182006836,24.25ZM13.00000182006836,15.46C11.26000182006836,15.46,9.85000182006836,14.05,9.85000182006836,12.31C9.85000182006836,10.57,11.26000182006836,9.16,13.00000182006836,9.16C14.740021820068359,9.16,16.15002182006836,10.57,16.15002182006836,12.31C16.15002182006836,14.05,14.740021820068359,15.46,13.00000182006836,15.46Z" fill="#000000" fill-opacity="1"/></g><g style="opacity:0;"></g><g transform="matrix(-1,-1.2246469849340659e-16,1.2246469849340659e-16,-1,50,52)" style="opacity:0;"></g></g></g></svg>