<svg xmlns="http://www.w3.org/2000/svg" xmlns:xlink="http://www.w3.org/1999/xlink" fill="none" version="1.1" width="24" height="24" viewBox="0 0 24 24"><g><g><g><path d="M13.6301171875,15.72000015258789Q13.6301171875,15.80008015258789,13.6222671875,15.879770152587891Q13.614417187499999,15.95946015258789,13.5987971875,16.03800015258789Q13.5831771875,16.11654015258789,13.5599271875,16.19316015258789Q13.5366871875,16.26979015258789,13.5060371875,16.34377015258789Q13.4753971875,16.417760152587892,13.4376471875,16.48838015258789Q13.3998971875,16.559000152587892,13.3554171875,16.62558015258789Q13.310927187499999,16.692160152587892,13.2601271875,16.75406015258789Q13.2093271875,16.81596015258789,13.1526971875,16.87258015258789Q13.0960771875,16.929210152587892,13.0341771875,16.98001015258789Q12.9722771875,17.03081015258789,12.9056971875,17.07530015258789Q12.8391171875,17.11978015258789,12.7684971875,17.157530152587892Q12.6978771875,17.19528015258789,12.6238871875,17.22592015258789Q12.5499071875,17.25657015258789,12.473277187499999,17.279810152587892Q12.3966571875,17.30306015258789,12.3181171875,17.31868015258789Q12.2395771875,17.33430015258789,12.1598871875,17.34215015258789Q12.0801971875,17.35000015258789,12.000117187499999,17.35000015258789Q11.9200371875,17.35000015258789,11.8403471875,17.34215015258789Q11.7606571875,17.33430015258789,11.6821171875,17.31868015258789Q11.603577187500001,17.30306015258789,11.5269571875,17.279810152587892Q11.4503271875,17.25657015258789,11.3763471875,17.22592015258789Q11.3023621875,17.19528015258789,11.2317401875,17.157530152587892Q11.1611191875,17.11978015258789,11.0945371875,17.07530015258789Q11.0279561875,17.03081015258789,10.9660561875,16.98001015258789Q10.9041561875,16.929210152587892,10.8475331875,16.87258015258789Q10.7909101875,16.81596015258789,10.740110187500001,16.75406015258789Q10.6893101875,16.692160152587892,10.6448221875,16.62558015258789Q10.6003331875,16.559000152587892,10.5625851875,16.48838015258789Q10.5248371875,16.417760152587892,10.4941931875,16.34377015258789Q10.4635494875,16.26979015258789,10.4403043875,16.19316015258789Q10.4170593875,16.11654015258789,10.4014371875,16.03800015258789Q10.3858149875,15.95946015258789,10.3779660875,15.879770152587891Q10.3701171875,15.80008015258789,10.3701171875,15.72000015258789Q10.3701171875,15.63992015258789,10.3779660875,15.560230152587891Q10.3858149875,15.48054015258789,10.4014371875,15.40200015258789Q10.4170593875,15.323460152587892,10.4403043875,15.246840152587891Q10.4635494875,15.17021015258789,10.4941931875,15.096230152587891Q10.5248371875,15.02224515258789,10.5625851875,14.95162315258789Q10.6003331875,14.881002152587891,10.6448221875,14.814420152587891Q10.6893101875,14.74783915258789,10.740110187500001,14.68593915258789Q10.7909101875,14.62403915258789,10.8475331875,14.56741615258789Q10.9041561875,14.51079315258789,10.9660561875,14.459993152587892Q11.0279561875,14.409193152587891,11.0945371875,14.364705152587891Q11.1611191875,14.320216152587891,11.2317401875,14.28246815258789Q11.3023621875,14.24472015258789,11.3763471875,14.214076152587891Q11.4503271875,14.18343245258789,11.5269571875,14.16018735258789Q11.603577187500001,14.13694235258789,11.6821171875,14.12132015258789Q11.7606571875,14.10569795258789,11.8403471875,14.097849052587891Q11.9200371875,14.09000015258789,12.000117187499999,14.09000015258789Q12.0801971875,14.09000015258789,12.1598871875,14.097849052587891Q12.2395771875,14.10569795258789,12.3181171875,14.12132015258789Q12.3966571875,14.13694235258789,12.473277187499999,14.16018735258789Q12.5499071875,14.18343245258789,12.6238871875,14.214076152587891Q12.6978771875,14.24472015258789,12.7684971875,14.28246815258789Q12.8391171875,14.320216152587891,12.9056971875,14.364705152587891Q12.9722771875,14.409193152587891,13.0341771875,14.459993152587892Q13.0960771875,14.51079315258789,13.1526971875,14.56741615258789Q13.2093271875,14.62403915258789,13.2601271875,14.68593915258789Q13.310927187499999,14.74783915258789,13.3554171875,14.814420152587891Q13.3998971875,14.881002152587891,13.4376471875,14.95162315258789Q13.4753971875,15.02224515258789,13.5060371875,15.096230152587891Q13.5366871875,15.17021015258789,13.5599271875,15.246840152587891Q13.5831771875,15.323460152587892,13.5987971875,15.40200015258789Q13.614417187499999,15.48054015258789,13.6222671875,15.560230152587891Q13.6301171875,15.63992015258789,13.6301171875,15.72000015258789Z" fill="#000000" fill-opacity="1"/></g><g><path d="M16.65,9.440000000000001C16.65,9.440000000000001,7.35,9.440000000000001,7.35,9.440000000000001C7.27,9.440000000000001,7.2,9.440000000000001,7.12,9.440000000000001C7.12,9.440000000000001,7.12,8.280000000000001,7.12,8.280000000000001C7.12,5.35,7.95,3.4,12,3.4C16.33,3.4,16.880000000000003,5.51,16.880000000000003,7.35C16.880000000000003,7.74,17.189999999999998,8.05,17.58,8.05C17.97,8.05,18.28,7.74,18.28,7.35C18.28,3.8,16.17,2,12,2C6.37,2,5.720000000000001,5.58,5.720000000000001,8.280000000000001C5.720000000000001,8.280000000000001,5.720000000000001,9.530000000000001,5.720000000000001,9.530000000000001C2.92,9.879999999999999,2,11.3,2,14.79C2,14.79,2,16.65,2,16.65C2,20.75,3.25,22,7.35,22C7.35,22,16.65,22,16.65,22C20.75,22,22,20.75,22,16.65C22,16.65,22,14.79,22,14.79C22,10.69,20.75,9.440000000000001,16.65,9.440000000000001ZM12,18.74C10.33,18.74,8.98,17.380000000000003,8.98,15.72C8.98,14.05,10.34,12.7,12,12.7C13.66,12.7,15.02,14.06,15.02,15.72C15.02,17.39,13.67,18.74,12,18.74Z" fill="#000000" fill-opacity="1"/></g><g transform="matrix(-1,0,0,-1,48,48)" style="opacity:0;"><path d="M24,24C24,24,48,24,48,24C48,24,48,48,48,48C48,48,24,48,24,48C24,48,24,24,24,24Z" fill="#000000" fill-opacity="1"/></g></g></g></svg>