<svg xmlns="http://www.w3.org/2000/svg" xmlns:xlink="http://www.w3.org/1999/xlink" fill="none" version="1.1" width="24" height="24" viewBox="0 0 24 24"><g><g><g><path d="M19.79001232395172,4.219999694824219C16.83001232395172,1.2699996948242187,12.030012323951722,1.2699996948242187,9.090002323951722,4.219999694824219C7.020002323951721,6.269999694824219,6.400002323951721,9.219999694824219,7.200002323951721,11.819999694824219C7.200002323951721,11.819999694824219,2.5000003239517214,16.519999694824218,2.5000003239517214,16.519999694824218C2.1700003239517214,16.859999694824218,1.9400000239517212,17.52999969482422,2.0100000239517213,18.00999969482422C2.0100000239517213,18.00999969482422,2.310000323951721,20.18999969482422,2.310000323951721,20.18999969482422C2.4200003239517214,20.90999969482422,3.090002323951721,21.58999969482422,3.8100023239517213,21.68999969482422C3.8100023239517213,21.68999969482422,5.990002323951721,21.98999969482422,5.990002323951721,21.98999969482422C6.4700023239517215,22.059999694824217,7.140002323951721,21.83999969482422,7.480002323951721,21.48999969482422C7.480002323951721,21.48999969482422,8.300002323951722,20.66999969482422,8.300002323951722,20.66999969482422C8.50000232395172,20.47999969482422,8.50000232395172,20.15999969482422,8.300002323951722,19.95999969482422C8.300002323951722,19.95999969482422,6.360002323951721,18.019999694824218,6.360002323951721,18.019999694824218C6.070002323951721,17.72999969482422,6.070002323951721,17.24999969482422,6.360002323951721,16.95999969482422C6.650002323951721,16.66999969482422,7.130002323951722,16.66999969482422,7.420002323951721,16.95999969482422C7.420002323951721,16.95999969482422,9.37000232395172,18.90999969482422,9.37000232395172,18.90999969482422C9.560002323951721,19.09999969482422,9.880002323951722,19.09999969482422,10.070002323951721,18.90999969482422C10.070002323951721,18.90999969482422,12.190012323951722,16.79999969482422,12.190012323951722,16.79999969482422C14.780012323951722,17.609999694824218,17.73001232395172,16.97999969482422,19.79001232395172,14.929999694824218C22.74001232395172,11.979999694824219,22.74001232395172,7.169999694824218,19.79001232395172,4.219999694824219ZM14.50001232395172,11.999999694824218C13.120012323951721,11.999999694824218,12.00001232395172,10.87999969482422,12.00001232395172,9.499999694824218C12.00001232395172,8.11999969482422,13.120012323951721,6.9999996948242185,14.50001232395172,6.9999996948242185C15.880012323951721,6.9999996948242185,17.000012323951722,8.11999969482422,17.000012323951722,9.499999694824218C17.000012323951722,10.87999969482422,15.880012323951721,11.999999694824218,14.50001232395172,11.999999694824218Z" fill="#000000" fill-opacity="1"/></g><g transform="matrix(-1,0,0,-1,48,48)" style="opacity:0;"><path d="M24,24C24,24,48,24,48,24C48,24,48,48,48,48C48,48,24,48,24,48C24,48,24,24,24,24Z" fill="#000000" fill-opacity="1"/></g></g></g></svg>