<svg xmlns="http://www.w3.org/2000/svg" xmlns:xlink="http://www.w3.org/1999/xlink" fill="none" version="1.1" width="28" height="28" viewBox="0 0 28 28"><defs><clipPath id="master_svg0_254_9586"><rect x="0" y="0" width="28" height="28" rx="0"/></clipPath></defs><g clip-path="url(#master_svg0_254_9586)"><g><path d="M15.959921875,15.400273437500001C16.267921875,15.400273437500001,16.519921875,15.1482734375,16.519921875,14.8402734375C16.519921875,14.5322734375,16.267921875,14.2802734375,15.959921875,14.2802734375L11.479921875,14.2802734375C11.171921875,14.2802734375,10.919921875,14.5322734375,10.919921875,14.8402734375C10.919921875,15.1482734375,11.171921875,15.400273437500001,11.479921875,15.400273437500001L12.039921875000001,15.400273437500001L12.039921875000001,21.5602734375L11.479921875,21.5602734375C11.171921875,21.5602734375,10.919921875,21.8122734375,10.919921875,22.1202734375C10.919921875,22.4282734375,11.171921875,22.6802734375,11.479921875,22.6802734375L15.959921875,22.6802734375C16.267921875,22.6802734375,16.519921875,22.4282734375,16.519921875,22.1202734375C16.519921875,21.8122734375,16.267921875,21.5602734375,15.959921875,21.5602734375L15.399921875,21.5602734375L15.399921875,15.400273437500001L15.959921875,15.400273437500001ZM14.279921875,21.5602734375L13.159921875,21.5602734375L13.159921875,15.400273437500001L14.279921875,15.400273437500001L14.279921875,21.5602734375Z" fill="#232D42" fill-opacity="1"/><path d="M15.499921875,15.5002734375L15.959921875,15.5002734375Q16.232341875,15.5002734375,16.426131875,15.3064834375Q16.619921875,15.1126944375,16.619921875,14.8402734375Q16.619921875,14.5678524375,16.426131875,14.3740629375Q16.232341875,14.1802734375,15.959921875,14.1802734375L11.479921875,14.1802734375Q11.207500875,14.1802734375,11.013711375,14.3740629375Q10.819921875,14.5678524375,10.819921875,14.8402734375Q10.819921875,15.1126944375,11.013711375,15.3064834375Q11.207500875,15.5002734375,11.479921875,15.5002734375L11.939921875,15.5002734375L11.939921875,21.4602734375L11.479921875,21.4602734375Q11.207500875,21.4602734375,11.013711375,21.6540634375Q10.819921875,21.8478534375,10.819921875,22.1202734375Q10.819921875,22.3926934375,11.013711375,22.5864834375Q11.207501875,22.7802734375,11.479921875,22.7802734375L15.959921875,22.7802734375Q16.232341875,22.7802734375,16.426131875,22.5864834375Q16.619921875,22.3926934375,16.619921875,22.1202734375Q16.619921875,21.8478534375,16.426131875,21.6540634375Q16.232341875,21.4602734375,15.959921875,21.4602734375L15.499921875,21.4602734375L15.499921875,15.5002734375ZM15.959921875,15.3002734375L15.299921874999999,15.3002734375L15.299921874999999,21.6602734375L15.959921875,21.6602734375Q16.149501875,21.6602734375,16.284711875,21.7954834375Q16.419921875,21.9306934375,16.419921875,22.1202734375Q16.419921875,22.3098534375,16.284711875,22.4450634375Q16.149501875,22.5802734375,15.959921875,22.5802734375L11.479921875,22.5802734375Q11.290344875,22.5802734375,11.155132875,22.4450634375Q11.019921875,22.3098534375,11.019921875,22.1202734375Q11.019921875,21.9306934375,11.155132875,21.7954834375Q11.290343875,21.6602734375,11.479921875,21.6602734375L12.139921875,21.6602734375L12.139921875,15.3002734375L11.479921875,15.3002734375Q11.290343875,15.3002734375,11.155132875,15.1650624375Q11.019921875,15.0298514375,11.019921875,14.8402734375Q11.019921875,14.6506954375,11.155132875,14.5154844375Q11.290343875,14.3802734375,11.479921875,14.3802734375L15.959921875,14.3802734375Q16.149501875,14.3802734375,16.284711875,14.5154844375Q16.419921875,14.6506954375,16.419921875,14.8402734375Q16.419921875,15.0298514375,16.284711875,15.1650624375Q16.149501875,15.3002734375,15.959921875,15.3002734375ZM14.379921875,21.6602734375L14.379921875,15.3002734375L13.059921875,15.3002734375L13.059921875,21.6602734375L14.379921875,21.6602734375ZM14.179921875,15.5002734375L13.259921875,15.5002734375L13.259921875,21.4602734375L14.179921875,21.4602734375L14.179921875,15.5002734375Z" fill-rule="evenodd" fill="#232D42" fill-opacity="1"/></g><g><path d="M20.132484375,11.155225625L19.858084375,11.155225625L19.858084375,9.553625624999999C19.858084375,6.171225625,17.102884375000002,3.416015625,13.720494375,3.416015625C10.338094375,3.416015625,7.582884375,6.171225625,7.582884375,9.553625624999999L7.582884375,11.155225625L7.308484375,11.155225625C5.701284375,11.155225625,4.396484375,12.460025625,4.396484375,14.067215625L4.396484375,22.792015625C4.396484375,24.399215625,5.701284375,25.704015625,7.308484375,25.704015625L20.132484375,25.704015625C21.739684375,25.704015625,23.044484375,24.399215625,23.044484375,22.792015625L23.044484375,14.067215625C23.044484375,12.460025625,21.734084375,11.155225625,20.132484375,11.155225625ZM8.926894375,9.553625624999999C8.926894375,6.910425625,11.077294375000001,4.760015625,13.720494375,4.760015625C16.363684375,4.760015625,18.514084375,6.910415625000001,18.514084375,9.553625624999999L18.514084375,11.155225625L8.926894375,11.155225625L8.926894375,9.553625624999999ZM21.700484375,22.792015625C21.700484375,23.654415625,20.994884375,24.360015625,20.132484375,24.360015625L7.308494375,24.360015625C6.4460943749999995,24.360015625,5.740494375,23.654415625,5.740494375,22.792015625L5.740494375,14.067215625C5.740494375,13.204825625,6.4460943749999995,12.499225625,7.308494375,12.499225625L20.132484375,12.499225625C20.994884375,12.499225625,21.700484375,13.204825625,21.700484375,14.067215625L21.700484375,22.792015625Z" fill="#232D42" fill-opacity="1"/><path d="M23.144484375,22.792015625L23.144484375,14.067215625Q23.144484375,12.821325625,22.259784375,11.937765625Q21.376084375,11.055225625,20.132484375,11.055215624999999L19.958084375,11.055225625L19.958084375,9.553625624999999Q19.958084375,6.9753856249999995,18.128384375,5.145705625Q16.298684375,3.316013625,13.720494375,3.316015625Q11.142274375,3.316015625,9.312574375,5.145705625Q7.482884374999999,6.9754056250000005,7.482884374999999,9.553625624999999L7.482884374999999,11.055225625L7.308484375,11.055225625Q6.061654375,11.055225625,5.179073375,11.937805625Q4.296484375,12.820405625,4.296484375,14.067215625L4.296484375,22.792015625Q4.296484375,24.038815625,5.179073375,24.921415625Q6.061654375,25.804015625,7.308484375,25.804015625L20.132484375,25.804015625Q21.379284375,25.804015625,22.261884375,24.921415625Q23.144484375,24.038815625,23.144484375,22.792015625ZM22.118384375,12.079275625Q22.944484375,12.904255625,22.944484375,14.067215625L22.944484375,22.792015625Q22.944484375,23.956015625,22.120484375,24.780015625Q21.296484375,25.604015625,20.132484375,25.604015625L7.308484375,25.604015625Q6.144504375,25.604015625,5.320495375,24.780015625Q4.496484375,23.956015625,4.496484375,22.792015625L4.496484375,14.067215625Q4.496483775,12.903245625,5.320495375,12.079235625Q6.144504375,11.255215625,7.308484375,11.255225625L7.682884375,11.255225625L7.682884375,9.553625624999999Q7.682884375,7.058245625,9.453994375,5.2871356249999995Q11.225124375,3.516015525,13.720494375,3.516015625Q16.215884375,3.516014125,17.986984375,5.2871356249999995Q19.758084375,7.058245625,19.758084375,9.553625624999999L19.758084375,11.255225625L20.132484375,11.255215625Q21.293284375,11.255215625,22.118384375,12.079275625ZM8.826894375,9.553625624999999L8.826894375,11.155225625L8.826894375,11.255225625L18.614084374999997,11.255225625L18.614084374999997,9.553625624999999Q18.614084374999997,7.529785625,17.179184375,6.094905625Q15.744284375,4.660015625,13.720494375,4.660015625Q11.696674375,4.660015625,10.261784375000001,6.094905625Q8.826894375,7.529795625,8.826894375,9.553625624999999ZM9.026894375000001,11.055225625L18.414084375,11.055225625L18.414084375,9.553625624999999Q18.414084375,7.612625625,17.037784375,6.236325625Q15.661484375,4.860015625,13.720494375,4.860015625Q11.779514375,4.860015625,10.403204375,6.236325625Q9.026884375,7.612635625,9.026894375000001,9.553625624999999L9.026894375000001,11.055225625ZM21.800484375,22.792015625L21.800484375,14.067215625Q21.800484375,13.379005625,21.310584375,12.889115625Q20.820684375,12.399225625,20.132484375,12.399225625L7.308494375,12.399225625Q6.620274375,12.399215625,6.130384375,12.889115625Q5.640494375,13.378995625,5.640494375,14.067215625L5.640494375,22.792015625Q5.640494375,23.480215625,6.130384375,23.970115625Q6.620274375,24.460015625,7.308494375,24.460015625L20.132484375,24.460015625Q20.820684375,24.460015625,21.310584375,23.970115625Q21.800484375,23.480215625,21.800484375,22.792015625ZM21.169184375,13.030535625Q21.600484375,13.461815625,21.600484375,14.067215625L21.600484375,22.792015625Q21.600484375,23.397415625,21.169184375,23.828715625Q20.737884375,24.260015625,20.132484375,24.260015625L7.308494375,24.260015625Q6.703114375,24.260015625,6.271804375,23.828715625Q5.8404943750000005,23.397415625,5.8404943750000005,22.792015625L5.8404943750000005,14.067215625Q5.8404943750000005,13.461815625,6.271804375,13.030535625Q6.703124375,12.599225625,7.308494375,12.599225625L20.132484375,12.599225625Q20.737884375,12.599225625,21.169184375,13.030535625Z" fill-rule="evenodd" fill="#232D42" fill-opacity="1"/></g></g></svg>