<svg xmlns="http://www.w3.org/2000/svg" xmlns:xlink="http://www.w3.org/1999/xlink" fill="none" version="1.1" width="28" height="28" viewBox="0 0 28 28"><defs><clipPath id="master_svg0_211_9249"><rect x="0" y="0" width="28" height="28" rx="0"/></clipPath></defs><g clip-path="url(#master_svg0_211_9249)"><g><g><path d="M14.499259523925781,13.883845329284668C13.817820523925782,13.883845329284668,13.265449523925781,14.441053329284667,13.265449523925781,15.128455329284668C13.265449523925781,15.534285329284668,13.461056523925782,15.891315329284668,13.759067523925781,16.11862532928467L13.759067523925781,17.546285329284668C13.759067523925781,17.95877532928467,14.09058452392578,18.292955329284666,14.499259523925781,18.292955329284666C14.90792952392578,18.292955329284666,15.239449523925781,17.95853532928467,15.239449523925781,17.546285329284668L15.239449523925781,16.11862532928467C15.537459523925781,15.891315329284668,15.733069523925781,15.534525329284667,15.733069523925781,15.128455329284668C15.733069523925781,14.441053329284667,15.180699523925782,13.883845329284668,14.499259523925781,13.883845329284668Z" fill="#232D42" fill-opacity="1"/></g><g><g><path d="M24.2877,22.5062L22.9,22.5062L22.9,5.9106000000000005C22.9,4.857354,22.0503,4,21.006,4L7.99378,4C6.949669999999999,4,6.09976,4.8571159999999995,6.09976,5.9106000000000005L6.09976,22.5062L4.712348,22.5062C4.319011,22.5062,4,22.8277,4,23.2248L4,23.2814C4,23.6782,4.319011,24,4.712348,24L24.2877,24C24.681,24,25,23.6782,25,23.2814L25,23.2248C25,22.8277,24.681,22.5062,24.2877,22.5062ZM7.58062,22.5062L7.58062,5.9106000000000005C7.58062,5.68067,7.76584,5.49359,7.994009999999999,5.49359L21.0062,5.49359C21.2342,5.49359,21.4196,5.68043,21.4196,5.9106000000000005L21.4196,22.5062L7.58062,22.5062Z" fill="#232D42" fill-opacity="1"/></g><g><path d="M17.894110000305176,11.91866793586731L17.894110000305176,11.28315793586731C17.894110000305176,9.38516793586731,16.371490000305176,7.84064793586731,14.500130000305177,7.84064793586731C12.628770000305176,7.84064793586731,11.106160000305175,9.38492793586731,11.106160000305175,11.28315793586731L11.106160000305175,11.91843793586731C9.962483000305175,12.01197793586731,9.056180000305176,12.97643793586731,9.056180000305176,14.15797793586731L9.056180000305176,17.84304793586731C9.060663150305176,19.08334793586731,10.060170000305176,20.09234793586731,11.283830000305176,20.09234793586731L17.732950000305173,20.09234793586731C18.948360000305176,20.08324793586731,19.940280000305176,19.07384793586731,19.944280000305177,17.83969793586731L19.944280000305177,14.15821793586731C19.944080000305178,12.97714793586731,19.038970000305177,12.01340793586731,17.894110000305176,11.91866793586731ZM14.500130000305177,9.334237935867309C15.555090000305176,9.334237935867309,16.413490000305174,10.20848793586731,16.413490000305174,11.28315793586731L16.413490000305174,11.900347935867309L12.586780000305176,11.900347935867309L12.586780000305176,11.28315793586731C12.586780000305176,10.20848793586731,13.444940000305177,9.334237935867309,14.500130000305177,9.334237935867309ZM18.463470000305175,17.83755793586731C18.462060000305176,18.25334793586731,18.130770000305176,18.594447935867308,17.723990000305175,18.598947935867308L11.283600000305176,18.598947935867308C10.873270000305176,18.598947935867308,10.538210000305176,18.25744793586731,10.536560000305176,17.84016793586731L10.536560000305176,14.15797793586731C10.536560000305176,13.738107935867308,10.870670000305175,13.39535793586731,11.278400000305176,13.39392793586731L17.719270000305176,13.39392793586731C18.129600000305174,13.39535793586731,18.463710000305177,13.738107935867308,18.463710000305177,14.15797793586731L18.463710000305177,17.83755793586731L18.463470000305175,17.83755793586731Z" fill="#232D42" fill-opacity="1"/></g></g></g></g></svg>