<svg xmlns="http://www.w3.org/2000/svg" xmlns:xlink="http://www.w3.org/1999/xlink" fill="none" version="1.1" width="24" height="24" viewBox="0 0 24 24"><g><g transform="matrix(0,-1,1,0,-24,24)"><g><g><path d="M15.260000019073486,46.25003323516846C15.260000019073486,46.25003323516846,8.740000019073486,46.25003323516846,8.740000019073486,46.25003323516846C3.8300000190734864,46.25003323516846,1.7300000190734863,44.15003323516846,1.7300000190734863,39.24000323516846C1.7300000190734863,39.24000323516846,1.7300000190734863,39.110003235168456,1.7300000190734863,39.110003235168456C1.7300000190734863,34.67000323516846,3.4800000190734863,32.53000023516846,7.400000019073486,32.159999835168456C7.800000019073487,32.129999835168455,8.180000019073486,32.43000023516846,8.220000019073487,32.84000023516846C8.260000019073487,33.25000323516846,7.960000019073487,33.620003235168454,7.540000019073486,33.66000323516846C4.400000019073486,33.95000323516846,3.2300000190734863,35.430003235168456,3.2300000190734863,39.120003235168454C3.2300000190734863,39.120003235168454,3.2300000190734863,39.25000323516846,3.2300000190734863,39.25000323516846C3.2300000190734863,43.32003323516846,4.670000019073486,44.76003323516846,8.740000019073486,44.76003323516846C8.740000019073486,44.76003323516846,15.260000019073486,44.76003323516846,15.260000019073486,44.76003323516846C19.330000019073488,44.76003323516846,20.770000019073485,43.32003323516846,20.770000019073485,39.25000323516846C20.770000019073485,39.25000323516846,20.770000019073485,39.120003235168454,20.770000019073485,39.120003235168454C20.770000019073485,35.41000323516846,19.580000019073488,33.930003235168456,16.380000019073485,33.66000323516846C15.970000019073487,33.620003235168454,15.660000019073486,33.260003235168455,15.700000019073487,32.85000023516846C15.740000019073486,32.440000235168455,16.090000019073486,32.13000003516846,16.510000019073487,32.17000003516846C20.490000019073488,32.510000235168455,22.270000019073485,34.66000323516846,22.270000019073485,39.13000323516846C22.270000019073485,39.13000323516846,22.270000019073485,39.260003235168455,22.270000019073485,39.260003235168455C22.270000019073485,44.15003323516846,20.170000019073488,46.25003323516846,15.260000019073486,46.25003323516846Z" fill="#000000" fill-opacity="1"/></g><g><path d="M12,39.749999885559085C11.59,39.749999885559085,11.25,39.40999988555908,11.25,38.999999885559085C11.25,38.999999885559085,11.25,27.619999885559082,11.25,27.619999885559082C11.25,27.209999885559082,11.59,26.869999885559082,12,26.869999885559082C12.41,26.869999885559082,12.75,27.209999885559082,12.75,27.619999885559082C12.75,27.619999885559082,12.75,38.999999885559085,12.75,38.999999885559085C12.75,39.40999988555908,12.41,39.749999885559085,12,39.749999885559085Z" fill="#000000" fill-opacity="1"/></g><g><path d="M15.349999675750732,30.60000005722046C15.159999675750733,30.60000005722046,14.969999675750731,30.53000005722046,14.819999675750733,30.38000005722046C14.819999675750733,30.38000005722046,11.999999675750733,27.56000005722046,11.999999675750733,27.56000005722046C11.999999675750733,27.56000005722046,9.179999675750732,30.38000005722046,9.179999675750732,30.38000005722046C8.889999675750733,30.67000005722046,8.409999675750733,30.67000005722046,8.119999675750732,30.38000005722046C7.829999675750733,30.090000057220458,7.829999675750733,29.61000005722046,8.119999675750732,29.320000057220458C8.119999675750732,29.320000057220458,11.469999675750731,25.97000005722046,11.469999675750731,25.97000005722046C11.759999675750732,25.680000057220457,12.239999675750733,25.680000057220457,12.529999675750734,25.97000005722046C12.529999675750734,25.97000005722046,15.879999675750732,29.320000057220458,15.879999675750732,29.320000057220458C16.16999967575073,29.61000005722046,16.16999967575073,30.090000057220458,15.879999675750732,30.38000005722046C15.739999675750733,30.53000005722046,15.539999675750732,30.60000005722046,15.349999675750732,30.60000005722046Z" fill="#000000" fill-opacity="1"/></g><g style="opacity:0;"></g></g></g></g></svg>