<svg xmlns="http://www.w3.org/2000/svg" xmlns:xlink="http://www.w3.org/1999/xlink" fill="none" version="1.1" width="24" height="24" viewBox="0 0 24 24"><defs><clipPath id="master_svg0_12_5381/4_8429"><rect x="0" y="0" width="24" height="24" rx="0"/></clipPath></defs><g clip-path="url(#master_svg0_12_5381/4_8429)"><g><g><path d="M4.638678135621659,2.4Q2.9518806356216594,4.2,3.0030010056216594,7.2L11.99924813562166,7.2L14.24829813562166,7.2Q17.67299813562166,6.6,19.35979813562166,4.8Q21.04659813562166,3,20.99549813562166,0L11.99924813562166,0L9.75018813562166,0Q6.3254681356216595,0.6,4.638678135621659,2.4Z" fill="#FFFFFF" fill-opacity="1"/></g><g><path d="M4.63745,19.20000114440918Q2.9503742,21.00000114440918,3.00150312,24.00000114440918L11.99925,24.00000114440918L14.2487,24.00000114440918Q17.674,23.40000114440918,19.361,21.60000114440918Q21.0481,19.80000114440918,20.997,16.80000114440918L11.99925,16.80000114440918L9.74981,16.80000114440918Q6.32453,17.40000114440918,4.63745,19.20000114440918Z" fill="#FFFFFF" fill-opacity="1"/></g><g transform="matrix(1,0,0,-1,0,30.399999618530273)"><path d="M4.63894813562166,17.599999809265135Q2.9518723356216596,19.399999809265136,3.0030012556216596,22.399999809265136L12.00074813562166,22.399999809265136L14.250198135621659,22.399999809265136Q17.67549813562166,21.799999809265138,19.36249813562166,19.999999809265137Q21.04959813562166,18.199999809265137,20.99849813562166,15.199999809265137L12.00074813562166,15.199999809265137L9.75130813562166,15.199999809265137Q6.32602813562166,15.799999809265136,4.63894813562166,17.599999809265135Z" fill="#FFFFFF" fill-opacity="1"/></g></g></g></svg>