<svg xmlns="http://www.w3.org/2000/svg" xmlns:xlink="http://www.w3.org/1999/xlink" fill="none" version="1.1" width="15.2380952835083" height="13.714285850524902" viewBox="0 0 15.2380952835083 13.714285850524902"><defs><linearGradient x1="0.5" y1="0" x2="0.5" y2="1.2817827463150024" id="master_svg0_6_6032"><stop offset="48.845893144607544%" stop-color="#FFFFFF" stop-opacity="1"/><stop offset="100%" stop-color="#FFFFFF" stop-opacity="0"/></linearGradient></defs><g><path d="M2.71841,2.93751C1.21707,2.93751,0,4.15846,0,5.6646C0,7.07913,1.07351,8.2421,2.4478,8.37837C2.4478,8.37837,3.89908,12.9417,3.89908,12.9417C4.04521,13.4012,4.4799,13.7143,4.9718,13.7143C5.59226,13.7143,6.09524,13.2223,6.09524,12.6153C6.09524,12.6153,6.09524,8.59188,6.09524,8.59188C7.46489,8.92675,8.76222,9.63104,10.0149,10.311C10.4554,10.5502,10.8904,10.7863,11.3211,11.0023C13.738,12.2146,14.3896,9.81425,14.5646,7.74165C14.7986,7.72576,14.9497,7.68443,15.0596,7.57689C15.2381,7.40229,15.2381,7.1212,15.2381,6.55898C15.2381,6.55898,15.2381,4.77018,15.2381,4.77018C15.2381,4.20802,15.2381,3.92693,15.0596,3.75228C14.9497,3.64479,14.7986,3.60346,14.5646,3.58757C14.3896,1.51494,13.738,-0.885433,11.3211,0.326879C10.8904,0.54289,10.4554,0.779014,10.015,1.01813C8.73562,1.71262,7.40965,2.43241,6.00776,2.7582C5.42846,2.89282,5.1388,2.96013,5.0075,3.12267C4.87619,3.28521,4.87619,3.5393,4.87619,4.04747C4.87619,4.04747,4.87619,4.77019,4.87619,4.77019C4.87619,5.0995,4.6033,5.36646,4.26667,5.36646C3.93004,5.36646,3.65714,5.0995,3.65714,4.77019C3.65714,4.77019,3.65714,3.85583,3.65714,3.85583C3.65714,3.55553,3.65714,3.40538,3.60312,3.28836C3.54204,3.15606,3.43373,3.05011,3.2985,2.99036C3.17888,2.93751,3.02538,2.93751,2.71841,2.93751C2.71841,2.93751,2.71841,2.93751,2.71841,2.93751Z" fill="url(#master_svg0_6_6032)" fill-opacity="1"/></g></svg>