<svg xmlns="http://www.w3.org/2000/svg" xmlns:xlink="http://www.w3.org/1999/xlink" fill="none" version="1.1" width="10" height="10" viewBox="0 0 10 10"><g><g><path d="M0,0L10,0L10,10L0,10L0,0Z" fill="#FFFFFF" fill-opacity="0.009999999776482582"/></g><g><path d="M0.8333333134651184,5C0.8333333134651184,7.30119,2.2222333134651184,9.16667,5.000003313465118,9.16667C7.777773313465119,9.16667,9.166663313465119,7.30119,9.166663313465119,5L0.8333333134651184,5Z" fill-rule="evenodd" fill="#FFFFFF" fill-opacity="1"/></g><g><path d="M9.16666665673256,4.5833330154418945C9.396786656732559,4.5833330154418945,9.583336656732559,4.769881015441895,9.583336656732559,5.000000015441895Q9.583336656732559,6.977893015441895,8.43148665673256,8.228553015441895Q7.18373665673256,9.583333015441895,4.999996656732559,9.583333015441895Q2.816256656732559,9.583333015441895,1.5685166567325592,8.228553015441895Q0.4166666567325592,6.977893015441895,0.4166666567325592,5.000000015441895C0.4166666567325592,4.769881015441895,0.6032146567325591,4.5833330154418945,0.8333336567325592,4.5833330154418945L9.16666665673256,4.5833330154418945ZM1.2655746567325592,5.416666015441894L8.734426656732559,5.416666015441894Q8.62954665673256,6.783393015441895,7.818506656732559,7.664003015441894Q6.818316656732559,8.750003015441894,4.999996656732559,8.750003015441894Q3.1816766567325594,8.750003015441894,2.1814866567325595,7.664003015441894Q1.3704476567325592,6.783393015441895,1.2655746567325592,5.416666015441894Z" fill-rule="evenodd" fill="#FFFFFF" fill-opacity="1"/></g><g><path d="M3.7499995077209474,5L3.7499995077209474,1.666667C3.7499995077209474,1.436548,3.563451507720947,1.25,3.333333507720947,1.25C3.1032145077209474,1.25,2.9166665077209473,1.436548,2.9166665077209473,1.666667L2.9166665077209473,5C2.9166665077209473,5.230119999999999,3.1032145077209474,5.41667,3.333333507720947,5.41667C3.563451507720947,5.41667,3.7499995077209474,5.230119999999999,3.7499995077209474,5Z" fill-rule="evenodd" fill="#FFFFFF" fill-opacity="1"/></g><g><path d="M5.416666015441894,5.000003313465118L5.416666015441894,1.2500003134651183C5.416666015441894,1.0198813134651183,5.230118015441895,0.8333333134651184,5.000000015441895,0.8333333134651184C4.769881015441895,0.8333333134651184,4.5833330154418945,1.0198813134651183,4.5833330154418945,1.2500003134651183L4.5833330154418945,5.000003313465118C4.5833330154418945,5.230123313465119,4.769881015441895,5.4166633134651185,5.000000015441895,5.4166633134651185C5.230118015441895,5.4166633134651185,5.416666015441894,5.230123313465119,5.416666015441894,5.000003313465118Z" fill-rule="evenodd" fill="#FFFFFF" fill-opacity="1"/></g><g><path d="M7.083333,4.999996656732559L7.083333,0.8333336567325592C7.083333,0.6032146567325591,6.896785,0.4166666567325592,6.666667,0.4166666567325592C6.436548,0.4166666567325592,6.25,0.6032146567325591,6.25,0.8333336567325592L6.25,4.999996656732559C6.25,5.230116656732559,6.436548,5.416666656732559,6.666667,5.416666656732559C6.896785,5.416666656732559,7.083333,5.230116656732559,7.083333,4.999996656732559Z" fill-rule="evenodd" fill="#FFFFFF" fill-opacity="1"/></g><g><path d="M2.083333,4.999996626930237L2.083333,2.0833336269302367C2.083333,1.8532146269302368,1.896785,1.6666666269302368,1.666667,1.6666666269302368C1.436548,1.6666666269302368,1.25,1.8532146269302368,1.25,2.0833336269302367L1.25,4.999996626930237C1.25,5.230116626930236,1.436548,5.416666626930237,1.666667,5.416666626930237C1.896785,5.416666626930237,2.083333,5.230116626930236,2.083333,4.999996626930237Z" fill-rule="evenodd" fill="#FFFFFF" fill-opacity="1"/></g><g><path d="M9.258126656732559,1.239837656732559L0.9247966567325592,3.1148366567325594C0.8967666567325592,3.1211466567325594,0.8681596567325591,3.1245366567325594,0.8394316567325593,3.124956656732559L0.8333336567325592,3.1249966567325593C0.6384546567325592,3.1249966567325593,0.4696073567325592,2.989926656732559,0.4268292567325592,2.799796656732559C0.4201430467325592,2.770076656732559,0.4167354752325592,2.739716656732559,0.4166676749825592,2.7092566567325593L0.4166666567325592,2.708336656732559C0.4166666567325592,2.6294666567325593,0.4390507567325592,2.552216656732559,0.4812171567325592,2.4855666567325594C0.5402986567325592,2.392176656732559,0.6340586567325592,2.326086656732559,0.7418696567325592,2.301826656732559L9.07520665673256,0.42682935673255923C9.103236656732559,0.4205225267325592,9.13183665673256,0.4171318217325592,9.16056665673256,0.4167112857325592L9.16666665673256,0.4166666567325592C9.361546656732559,0.4166671534375592,9.53038665673256,0.5517446567325592,9.573166656732559,0.7418696567325592C9.57985665673256,0.7715866567325592,9.58326665673256,0.8019466567325593,9.583336656732559,0.8324056567325593L9.583336656732559,0.8333336567325592C9.583336656732559,0.9122016567325593,9.56094665673256,0.9894506567325592,9.518776656732559,1.0561006567325593C9.459696656732559,1.1494876567325591,9.36593665673256,1.2155796567325592,9.258126656732559,1.239837656732559Z" fill-rule="evenodd" fill="#FFFFFF" fill-opacity="1"/></g></g></svg>