<svg xmlns="http://www.w3.org/2000/svg" xmlns:xlink="http://www.w3.org/1999/xlink" fill="none" version="1.1" width="20" height="20" viewBox="0 0 20 20"><g><g><g><g><path d="M12.957066626930237,1.5980441269302368Q11.346066626930236,0.9166666269302368,9.583336626930237,0.9166666269302368Q7.820596626930237,0.9166656269302368,6.209646626930237,1.598043226930237Q4.654216626930237,2.2559356269302366,3.4550766269302366,3.4550766269302366Q2.2559366269302368,4.654206626930237,1.5980441269302368,6.209646626930237Q0.9166666269302368,7.820606626930237,0.9166656269302368,9.583326626930237Q0.9166656269302368,11.346056626930237,1.5980431269302369,12.957066626930237Q2.2559356269302366,14.512466626930237,3.4550766269302366,15.711566626930237Q4.654206626930237,16.910766626930236,6.209646626930237,17.568666626930238Q7.820606626930237,18.249966626930238,9.583326626930237,18.249966626930238Q11.346066626930236,18.249966626930238,12.957066626930237,17.568666626930238Q14.512466626930237,16.910766626930236,15.711566626930237,15.711566626930237Q16.910766626930236,14.512466626930237,17.568666626930238,12.957066626930237Q18.249966626930238,11.346066626930236,18.249966626930238,9.583336626930237Q18.249966626930238,7.820596626930237,17.568666626930238,6.209646626930237Q16.910766626930236,4.654216626930237,15.711566626930237,3.4550766269302366Q14.512466626930237,2.255938626930237,12.957066626930237,1.5980441269302368ZM4.515736626930237,4.515736626930237Q6.614806626930237,2.416666626930237,9.583336626930237,2.4166656269302367Q12.551866626930236,2.416666626930237,14.650966626930236,4.515736626930237Q16.749966626930238,6.614806626930237,16.749966626930238,9.583336626930237Q16.749966626930238,12.551866626930236,14.650966626930236,14.650966626930236Q12.551866626930236,16.749966626930238,9.583326626930237,16.749966626930238Q6.614796626930237,16.749966626930238,4.515736626930237,14.650966626930236Q2.416666626930237,12.551866626930236,2.4166656269302367,9.583326626930237Q2.416666626930237,6.614806626930237,4.515736626930237,4.515736626930237Z" fill-rule="evenodd" fill="#000000" fill-opacity="1"/></g><g><path d="M17.19715003088379,16.136490030883788L17.19699603088379,16.13633603088379Q17.09150703088379,16.030847030883788,16.95367903088379,15.97375603088379Q16.81585003088379,15.916666030883789,16.66666603088379,15.916666030883789Q16.517482030883787,15.916666030883789,16.379653030883787,15.97375603088379Q16.24182503088379,16.030847030883788,16.13633603088379,16.13633603088379Q16.030847030883788,16.24182503088379,15.97375603088379,16.379653030883787Q15.916666030883789,16.517482030883787,15.916666030883789,16.66666603088379Q15.916666030883789,16.81585003088379,15.97375603088379,16.95367903088379Q16.030847030883788,17.09150703088379,16.13633603088379,17.19699603088379L17.80300603088379,18.86366603088379Q17.90849603088379,18.969156030883788,18.04631603088379,19.02624603088379Q18.184146030883788,19.08333603088379,18.33333603088379,19.08333603088379Q18.48251603088379,19.08333603088379,18.620346030883788,19.02624603088379Q18.75817603088379,18.969156030883788,18.86366603088379,18.86366603088379Q18.969156030883788,18.75817603088379,19.02624603088379,18.620346030883788Q19.08333603088379,18.48251603088379,19.08333603088379,18.33333603088379Q19.08333603088379,18.184146030883788,19.02624603088379,18.04631603088379Q18.969156030883788,17.90849603088379,18.86366603088379,17.80300603088379L17.19715003088379,16.136490030883788Z" fill-rule="evenodd" fill="#000000" fill-opacity="1"/></g><g style="opacity:0;"></g></g></g></g></svg>