<svg xmlns="http://www.w3.org/2000/svg" xmlns:xlink="http://www.w3.org/1999/xlink" fill="none" version="1.1" width="24" height="24" viewBox="0 0 24 24"><g><g><rect x="0" y="0" width="24" height="24" rx="0" fill="#D8D8D8" fill-opacity="0"/></g><g><path d="" fill="#D8D8D8" fill-opacity="0"/><path d="M2.25,6L2.25,16Q2.25,16.7137,2.734501,17.2237Q3.234514,17.75,3.95,17.75L21.05,17.75Q21.7655,17.75,22.2655,17.2237Q22.75,16.7137,22.75,16L22.75,6Q22.75,5.286318,22.2655,4.776325Q21.7655,4.25,21.05,4.25L3.95,4.25Q3.234513,4.25,2.734502,4.776323Q2.25,5.286319,2.25,6ZM3.95,16.25Q3.75,16.25,3.75,16L3.75,6Q3.75,5.75,3.95,5.75L21.05,5.75Q21.25,5.75,21.25,6L21.25,16Q21.25,16.25,21.05,16.25L3.95,16.25Z" fill-rule="evenodd" fill="#0C0507" fill-opacity="1"/></g><g><path d="" fill="#D8D8D8" fill-opacity="0"/><path d="M7,10.75L10,10.75Q10.07387,10.75,10.14632,10.735589000000001Q10.21877,10.721178,10.28701,10.69291Q10.35526,10.664641,10.41668,10.623602Q10.4781,10.582563,10.53033,10.53033Q10.58256,10.478097,10.6236,10.416678Q10.66464,10.355258,10.69291,10.287013Q10.72118,10.218767,10.73559,10.146318Q10.75,10.0738685,10.75,10Q10.75,9.9261315,10.73559,9.853682Q10.72118,9.781233,10.69291,9.712987Q10.66464,9.644742,10.6236,9.583322Q10.58256,9.521903,10.53033,9.46967Q10.4781,9.417437,10.41668,9.376398Q10.35526,9.335359,10.28701,9.30709Q10.21877,9.278822,10.14632,9.264410999999999Q10.07387,9.25,10,9.25L7,9.25Q6.9261315,9.25,6.853682,9.264410999999999Q6.781233,9.278822,6.712987,9.30709Q6.644742,9.335359,6.583322,9.376398Q6.521903,9.417437,6.46967,9.46967Q6.417437,9.521903,6.376398,9.583322Q6.335359,9.644742,6.30709,9.712987Q6.278822,9.781233,6.264411,9.853682Q6.25,9.9261315,6.25,10Q6.25,10.0738685,6.264411,10.146318Q6.278822,10.218767,6.30709,10.287013Q6.335359,10.355258,6.376398,10.416678Q6.417437,10.478097,6.46967,10.53033Q6.521903,10.582563,6.583322,10.623602Q6.644742,10.664641,6.712987,10.69291Q6.781233,10.721178,6.853682,10.735589000000001Q6.9261315,10.75,7,10.75Z" fill-rule="evenodd" fill="#0C0507" fill-opacity="1"/></g><g><path d="" fill="#D8D8D8" fill-opacity="0"/><path d="M7,13.75L9,13.75Q9.07387,13.75,9.14632,13.735589000000001Q9.21877,13.721178,9.28701,13.69291Q9.35526,13.664641,9.41668,13.623602Q9.4781,13.582563,9.53033,13.53033Q9.58256,13.478097,9.6236,13.416678Q9.66464,13.355258,9.69291,13.287013Q9.72118,13.218767,9.73559,13.146318Q9.75,13.0738685,9.75,13Q9.75,12.9261315,9.73559,12.853682Q9.72118,12.781233,9.69291,12.712987Q9.66464,12.644742,9.6236,12.583322Q9.58256,12.521903,9.53033,12.46967Q9.4781,12.417437,9.41668,12.376398Q9.35526,12.335359,9.28701,12.30709Q9.21877,12.278822,9.14632,12.264410999999999Q9.07387,12.25,9,12.25L7,12.25Q6.9261315,12.25,6.853682,12.264410999999999Q6.781233,12.278822,6.712987,12.30709Q6.644742,12.335359,6.583322,12.376398Q6.521903,12.417437,6.46967,12.46967Q6.417437,12.521903,6.376398,12.583322Q6.335359,12.644742,6.30709,12.712987Q6.278822,12.781233,6.264411,12.853682Q6.25,12.9261315,6.25,13Q6.25,13.0738685,6.264411,13.146318Q6.278822,13.218767,6.30709,13.287013Q6.335359,13.355258,6.376398,13.416678Q6.417437,13.478097,6.46967,13.53033Q6.521903,13.582563,6.583322,13.623602Q6.644742,13.664641,6.712987,13.69291Q6.781233,13.721178,6.853682,13.735589000000001Q6.9261315,13.75,7,13.75Z" fill-rule="evenodd" fill="#0C0507" fill-opacity="1"/></g><g><path d="" fill="#D8D8D8" fill-opacity="0"/><path d="M8.75,20L8.75,17Q8.75,16.9261315,8.735589000000001,16.853682Q8.721178,16.781233,8.69291,16.712987Q8.664641,16.644742,8.623602,16.583322Q8.582563,16.521903000000002,8.53033,16.46967Q8.478097,16.417437,8.416678,16.376398000000002Q8.355258,16.335359,8.287013,16.30709Q8.218767,16.278822,8.146318,16.264411Q8.0738685,16.25,8,16.25Q7.9261315,16.25,7.853682,16.264411Q7.781233,16.278822,7.712987,16.30709Q7.644742,16.335359,7.583322,16.376398000000002Q7.521903,16.417437,7.46967,16.46967Q7.417437,16.521903000000002,7.376398,16.583322Q7.335359,16.644742,7.30709,16.712987Q7.278822,16.781233,7.264411,16.853682Q7.25,16.9261315,7.25,17L7.25,20Q7.25,20.07387,7.264411,20.14632Q7.278822,20.21877,7.30709,20.28701Q7.335359,20.35526,7.376398,20.41668Q7.417437,20.4781,7.46967,20.53033Q7.521903,20.58256,7.583322,20.6236Q7.644742,20.66464,7.712987,20.69291Q7.781233,20.72118,7.853682,20.735590000000002Q7.9261315,20.75,8,20.75Q8.0738685,20.75,8.146318,20.735590000000002Q8.218767,20.72118,8.287013,20.69291Q8.355258,20.66464,8.416678,20.6236Q8.478097,20.58256,8.53033,20.53033Q8.582563,20.4781,8.623602,20.41668Q8.664641,20.35526,8.69291,20.28701Q8.721178,20.21877,8.735589000000001,20.14632Q8.75,20.07387,8.75,20Z" fill-rule="evenodd" fill="#0C0507" fill-opacity="1"/></g><g><path d="" fill="#D8D8D8" fill-opacity="0"/><path d="M17.75,20L17.75,17Q17.75,16.9261315,17.735589,16.853682Q17.721178,16.781233,17.69291,16.712987Q17.664641,16.644742,17.623601999999998,16.583322Q17.582563,16.521903000000002,17.53033,16.46967Q17.478096999999998,16.417437,17.416678,16.376398000000002Q17.355258,16.335359,17.287013,16.30709Q17.218767,16.278822,17.146318,16.264411Q17.0738685,16.25,17,16.25Q16.9261315,16.25,16.853682,16.264411Q16.781233,16.278822,16.712987,16.30709Q16.644742,16.335359,16.583322,16.376398000000002Q16.521903000000002,16.417437,16.46967,16.46967Q16.417437,16.521903000000002,16.376398000000002,16.583322Q16.335359,16.644742,16.30709,16.712987Q16.278822,16.781233,16.264411,16.853682Q16.25,16.9261315,16.25,17L16.25,20Q16.25,20.07387,16.264411,20.14632Q16.278822,20.21877,16.30709,20.28701Q16.335359,20.35526,16.376398000000002,20.41668Q16.417437,20.4781,16.46967,20.53033Q16.521903000000002,20.58256,16.583322,20.6236Q16.644742,20.66464,16.712987,20.69291Q16.781233,20.72118,16.853682,20.735590000000002Q16.9261315,20.75,17,20.75Q17.0738685,20.75,17.146318,20.735590000000002Q17.218767,20.72118,17.287013,20.69291Q17.355258,20.66464,17.416678,20.6236Q17.478096999999998,20.58256,17.53033,20.53033Q17.582563,20.4781,17.623601999999998,20.41668Q17.664641,20.35526,17.69291,20.28701Q17.721178,20.21877,17.735589,20.14632Q17.75,20.07387,17.75,20Z" fill-rule="evenodd" fill="#0C0507" fill-opacity="1"/></g><g><ellipse cx="15.5" cy="11.5" rx="2.5" ry="2.5" fill="#D8D8D8" fill-opacity="0"/><ellipse cx="15.5" cy="11.5" rx="2.5" ry="2.5" fill-opacity="0" stroke-opacity="1" stroke="#0C0507" fill="none" stroke-width="1.5"/></g></g></svg>