<svg xmlns="http://www.w3.org/2000/svg" xmlns:xlink="http://www.w3.org/1999/xlink" fill="none" version="1.1" width="24" height="24" viewBox="0 0 24 24"><defs><clipPath id="master_svg0_112_08286"><rect x="0" y="0" width="24" height="24" rx="0"/></clipPath></defs><g><g clip-path="url(#master_svg0_112_08286)"><g><path d="M19.91150625,12.1530921875L16.66280625,12.1530921875C16.561206249999998,11.8587421875,16.284006249999997,11.6612521875,15.97260625,11.6612521875L15.39690625,11.6612521875L15.39690625,10.723332187499999L18.83790625,10.723332187499999C19.209306249999997,10.722802187500001,19.51030625,10.4218221875,19.51080625,10.050372187499999L19.51080625,4.1524521875C19.51030625,3.7810061875,19.209306249999997,3.4800213625,18.83790625,3.4794921875L10.49644625,3.4794921875C10.124996249999999,3.4800211335,9.82401625,3.7810061875,9.82348625,4.1524521875L9.82348625,10.0484521875C9.82348625,10.4202921875,10.126526250000001,10.7214121875,10.49644625,10.7214121875L13.93710625,10.7214121875L13.93710625,11.6590121875L13.36140625,11.6590121875C13.04140625,11.6590121875,12.77068625,11.8650921875,12.67148625,12.1511721875L4.05132625,12.1511721875C3.71433025,12.1508121875,3.441052399,12.4240921875,3.44140625,12.7610921875C3.44140625,13.0983721875,3.71404625,13.3710121875,4.05132625,13.3710121875L4.1274862500000005,13.3710121875L4.1274862500000005,19.9095921875C4.1274862500000005,20.2468921875,4.40012625,20.5194921875,4.73772625,20.5194921875C5.07472625,20.5198921875,5.34799625,20.2465921875,5.34764625,19.9095921875L5.34764625,13.3729321875L18.61480625,13.3729321875L18.61480625,19.9114921875C18.61480625,20.2487921875,18.88780625,20.5213921875,19.22510625,20.5213921875C19.56210625,20.5217921875,19.83540625,20.2484921875,19.83500625,19.9114921875L19.83500625,13.3729321875L19.91150625,13.3729321875C20.24850625,13.3732921875,20.52180625,13.1000121875,20.52140625,12.7630121875C20.52180625,12.4260121875,20.24850625,12.1527421875,19.91150625,12.1530921875ZM11.04364625,4.6996521875L18.291006250000002,4.6996521875L18.291006250000002,9.503172187499999L11.04364625,9.503172187499999L11.04364625,4.6996521875ZM10.018046250000001,14.8596921875L6.85356625,14.8596921875C6.5164462499999996,14.8592921875,6.24311625,15.1327921875,6.243646249999999,15.4698921875C6.243646249999999,15.8071921875,6.51628625,16.0797921875,6.85356625,16.0797921875L10.018046250000001,16.0797921875C10.355046250000001,16.0801921875,10.62832625,15.8068921875,10.62796625,15.4698921875C10.628316250000001,15.1328921875,10.355046250000001,14.8595921875,10.018046250000001,14.8599921875L10.018046250000001,14.8596921875ZM10.018046250000001,17.7952921875L6.85356625,17.7952921875C6.5164462499999996,17.7949921875,6.24311625,18.0684921875,6.243646249999999,18.405592187499998C6.243646249999999,18.7428921875,6.51628625,19.0154921875,6.85356625,19.0154921875L10.018046250000001,19.0154921875C10.355046250000001,19.0158921875,10.62832625,18.7425921875,10.62796625,18.405592187499998C10.628496250000001,18.0684921875,10.35516625,17.7949921875,10.018046250000001,17.7952921875ZM4.79468625,9.404292187500001L7.57804625,9.404292187500001C7.96492625,9.404292187500001,8.27948625,9.089732187500001,8.27948625,8.702532187500001C8.27948625,8.3156521875,7.96492625,8.0010921875,7.57804625,8.0010921875L4.79468625,8.0010921875C4.40780725,8.0010921875,4.09324725,8.3156521875,4.09324725,8.702532187500001C4.09324725,9.089732187500001,4.40780725,9.404292187500001,4.79468625,9.404292187500001ZM4.79468625,11.6154921875L7.57804625,11.6154921875C7.96492625,11.6154921875,8.27948625,11.300932187499999,8.27948625,10.913732187499999C8.27948625,10.526852187500001,7.96492625,10.212292187500001,7.57804625,10.212292187500001L4.79468625,10.212292187500001C4.40780725,10.212292187500001,4.09324725,10.526852187500001,4.09324725,10.913732187499999C4.09324725,11.300932187499999,4.40780725,11.6154921875,4.79468625,11.6154921875Z" fill="#333333" fill-opacity="1"/><path d="M20.67140625,12.7631721875L20.67140625,12.7628521875Q20.67160625,12.4480821875,20.44900625,12.2254821875Q20.22630625,12.0027621875,19.91130625,12.0030921875L16.76470625,12.0030921875Q16.54390625,11.5112521875,15.97260625,11.5112521875L15.54690625,11.5112521875L15.54690625,10.8733321875L18.83790625,10.8733321875Q19.178706249999998,10.8728421875,19.419506249999998,10.632012187499999Q19.66040625,10.3911821875,19.66080625,10.0505821875L19.66080625,4.1524521875Q19.66040625,3.8116451875,19.419506249999998,3.5708118875Q19.178706249999998,3.3299771875,18.83810625,3.3294921875L10.49644625,3.3294921875Q10.15564625,3.3299771875,9.91480625,3.5708120875Q9.673976249999999,3.8116461875,9.67348625,4.1522381875L9.67348625,10.0484521875Q9.67348625,10.3892221875,9.915286250000001,10.6305421875Q10.15662625,10.871412187499999,10.49644625,10.871412187499999L13.78710625,10.871412187499999L13.78710625,11.5090121875L13.36140625,11.5090121875Q12.79110625,11.5090121875,12.56969625,12.0011721875L4.05132625,12.0011721875Q3.73651425,12.0008421875,3.51379415,12.2235621875Q3.29107525,12.4462821875,3.29140625,12.7612521875Q3.29140625,13.0761821875,3.51382025,13.2986021875Q3.70970825,13.4944921875,3.97748625,13.5178921875L3.97748625,19.9095921875Q3.97748625,20.2246921875,4.19995925,20.4470921875Q4.42243525,20.6694921875,4.73772625,20.6694921875Q5.05254625,20.6697921875,5.27525625,20.4470921875Q5.49797625,20.2243921875,5.49764625,19.9093921875L5.49764625,13.5228921875L18.464806250000002,13.5228921875L18.464806250000002,19.9114921875Q18.464806250000002,20.2265921875,18.68750625,20.4489921875Q18.910006250000002,20.6713921875,19.22510625,20.6713921875Q19.53990625,20.6716921875,19.76260625,20.4489921875Q19.98530625,20.2262921875,19.98500625,19.9112921875L19.98500625,13.5198921875Q20.25280625,13.4967921875,20.44900625,13.3005421875Q20.67160625,13.0779321875,20.67140625,12.7631721875ZM20.23690625,12.4376121875Q20.37160625,12.5723321875,20.37140625,12.7628521875L20.37140625,12.7631721875Q20.37160625,12.9536921875,20.23690625,13.0884121875Q20.10220625,13.2231321875,19.91150625,13.2229321875L19.68500625,13.2229321875L19.68500625,19.9116921875Q19.68520625,20.1021921875,19.55050625,20.2368921875Q19.41580625,20.3715921875,19.22510625,20.3713921875Q19.03420625,20.3713921875,18.89950625,20.2367921875Q18.76480625,20.1022921875,18.76480625,19.9114921875L18.76480625,13.2229321875L5.19764625,13.2229321875L5.19764625,19.9096921875Q5.19784625,20.1002921875,5.06312625,20.2349921875Q4.92840625,20.3696921875,4.73772625,20.3694921875Q4.5466662499999995,20.3694921875,4.41205325,20.2348921875Q4.27748625,20.1003921875,4.27748625,19.9095921875L4.27748625,13.2210121875L4.05132625,13.2210121875Q3.86049825,13.2210121875,3.72595225,13.0864621875Q3.59140625,12.9519221875,3.59140625,12.7609321875Q3.59120625,12.5704121875,3.72592625,12.4356921875Q3.86064725,12.3009721875,4.05132625,12.3011721875L12.77823625,12.3011721875L12.81320625,12.2003121875Q12.94889625,11.8090121875,13.36140625,11.8090121875L14.08710625,11.8090121875L14.08710625,10.5714121875L10.49644625,10.5714121875Q10.280716250000001,10.5714121875,10.12720625,10.4182021875Q9.97348625,10.2647821875,9.97348625,10.0484521875L9.97348625,4.1526661875Q9.97379625,3.9360881875000002,10.12693625,3.7829441875Q10.28008625,3.6298001875,10.49644625,3.6294921875L18.83770625,3.6294921875Q19.05420625,3.6298001875,19.20740625,3.7829441875Q19.36050625,3.9360871875,19.36080625,4.1524521875L19.36080625,10.0501621875Q19.36050625,10.2667321875,19.20740625,10.4198821875Q19.05420625,10.573022187500001,18.83790625,10.5733321875L15.24690625,10.5733321875L15.24690625,11.8112521875L15.97260625,11.8112521875Q16.386106249999997,11.8112521875,16.521106250000003,12.2020621875L16.55600625,12.3030921875L19.91160625,12.3030921875Q20.10220625,12.3028921875,20.23690625,12.4376121875ZM10.89364625,4.5496521875L10.89364625,9.653172187500001L18.44100625,9.653172187500001L18.44100625,4.5496521875L10.89364625,4.5496521875ZM11.19364625,9.3531721875L18.14100625,9.3531721875L18.14100625,4.8496521875L11.19364625,4.8496521875L11.19364625,9.3531721875ZM4.19282125,8.1006621875Q3.9432472499999998,8.350242187500001,3.9432472499999998,8.702532187500001Q3.9432472499999998,9.0550221875,4.19280425,9.3046621875Q4.44235625,9.5542921875,4.79468625,9.5542921875L7.57804625,9.5542921875Q7.93037625,9.5542921875,8.179926250000001,9.3046621875Q8.42948625,9.0550221875,8.42948625,8.702532187500001Q8.42948625,8.350242187500001,8.17991625,8.1006621875Q7.93033625,7.8510921875,7.57804625,7.8510921875L4.79468625,7.8510921875Q4.44239625,7.8510921875,4.19282125,8.1006621875ZM4.40496925,9.0925621875Q4.24324725,8.9307921875,4.24324725,8.702532187500001Q4.24324725,8.4745021875,4.40495325,8.3128021875Q4.56665625,8.1510921875,4.79468625,8.1510921875L7.57804625,8.1510921875Q7.80607625,8.1510921875,7.96777625,8.3128021875Q8.12948625,8.4745021875,8.12948625,8.702532187500001Q8.12948625,8.9307921875,7.96776625,9.0925621875Q7.80608625,9.254292187499999,7.57804625,9.254292187499999L4.79468625,9.254292187499999Q4.56664625,9.254292187499999,4.40496925,9.0925621875ZM4.19282125,10.311862187500001Q3.9432472499999998,10.561442187499999,3.9432472499999998,10.913732187499999Q3.9432472499999998,11.2662221875,4.19280425,11.5158621875Q4.44235625,11.7654921875,4.79468625,11.7654921875L7.57804625,11.7654921875Q7.93037625,11.7654921875,8.179926250000001,11.5158621875Q8.42948625,11.2662221875,8.42948625,10.913732187499999Q8.42948625,10.561442187499999,8.17991625,10.311862187500001Q7.93033625,10.062292187499999,7.57804625,10.062292187499999L4.79468625,10.062292187499999Q4.44239625,10.062292187499999,4.19282125,10.311862187500001ZM4.40496925,11.3037621875Q4.24324725,11.1419921875,4.24324725,10.913732187499999Q4.24324725,10.685702187499999,4.40495325,10.524002187499999Q4.56665625,10.3622921875,4.79468625,10.3622921875L7.57804625,10.3622921875Q7.80607625,10.3622921875,7.96777625,10.524002187499999Q8.12948625,10.685702187499999,8.12948625,10.913732187499999Q8.12948625,11.1419921875,7.96776625,11.3037621875Q7.80608625,11.4654921875,7.57804625,11.4654921875L4.79468625,11.4654921875Q4.56664625,11.4654921875,4.40496925,11.3037621875ZM10.16804625,14.7234921875Q10.387946249999999,14.7646921875,10.55557625,14.9323921875Q10.77829625,15.1550921875,10.77796625,15.4696921875Q10.77829625,15.7846921875,10.55557625,16.007392187500002Q10.332856249999999,16.230192187500002,10.018046250000001,16.2297921875L6.85356625,16.2297921875Q6.53847625,16.2297921875,6.31605625,16.007392187500002Q6.09364625,15.7849921875,6.09364625,15.4700921875Q6.09314625,15.1549921875,6.31589625,14.9321921875Q6.53863625,14.7092921875,6.85356625,14.7096921875L10.16804625,14.7096921875L10.16804625,14.7234921875ZM6.85356625,15.0096921875L9.868046249999999,15.0096921875L9.868046249999999,15.0100921875L10.01820625,15.0099921875Q10.20872625,15.0097921875,10.34344625,15.1444921875Q10.478166250000001,15.2791921875,10.47796625,15.4700921875Q10.478166250000001,15.6605921875,10.34344625,15.7952921875Q10.20872625,15.9299921875,10.018046250000001,15.9297921875L6.85356625,15.9297921875Q6.66273625,15.9297921875,6.528196250000001,15.7952921875Q6.39364625,15.6606921875,6.39364625,15.4696921875Q6.3933462500000005,15.2790921875,6.52807625,15.1442921875Q6.6628162500000006,15.0094921875,6.85356625,15.0096921875ZM10.77796625,18.405792187499998L10.77796625,18.4053921875Q10.77832625,18.0905921875,10.55571625,17.8678921875Q10.33297625,17.6449921875,10.01788625,17.6452921875L6.85356625,17.6452921875Q6.53863625,17.6449921875,6.31589625,17.8678921875Q6.09314625,18.0906921875,6.09364625,18.405792187499998Q6.09364625,18.7206921875,6.31605625,18.9430921875Q6.53847625,19.1654921875,6.85356625,19.1654921875L10.018046250000001,19.1654921875Q10.332856249999999,19.1657921875,10.55557625,18.9430921875Q10.77815625,18.7204921875,10.77796625,18.405792187499998ZM10.34352625,18.0798921875Q10.47826625,18.2146921875,10.47796625,18.405292187500002L10.47796625,18.4056921875Q10.478166250000001,18.596292187499998,10.34344625,18.7309921875Q10.20872625,18.865692187500002,10.018046250000001,18.8654921875L6.85356625,18.8654921875Q6.66273625,18.8654921875,6.528196250000001,18.7309921875Q6.39364625,18.5963921875,6.39364625,18.405292187500002Q6.3933462500000005,18.2146921875,6.52807625,18.0798921875Q6.6628162500000006,17.945092187500002,6.85356625,17.9452921875L10.01820625,17.9452921875Q10.208796249999999,17.945092187500002,10.34352625,18.0798921875Z" fill-rule="evenodd" fill="#333333" fill-opacity="1"/></g></g></g></svg>