<svg xmlns="http://www.w3.org/2000/svg" xmlns:xlink="http://www.w3.org/1999/xlink" fill="none" version="1.1" width="21" height="16" viewBox="0 0 21 16"><g><g><path d="M0,1.5L0,11.5Q0,12.1213,0.4393415,12.5607Q0.878679,13,1.5,13L19.5,13Q20.1213,13,20.5607,12.5607Q21,12.1213,21,11.5L21,1.5Q21,0.878668,20.5607,0.4393341Q20.1213,0,19.5,0L1.5,0Q0.8786780000000001,0,0.4393416,0.4393323Q0,0.8786689999999999,0,1.5ZM1.146445,11.8536Q1,11.7071,1,11.5L1,1.5Q1,1.292886,1.146445,1.146443Q1.292889,1,1.5,1L19.5,1Q19.7071,1,19.8536,1.146441Q20,1.292883,20,1.5L20,11.5Q20,11.7071,19.8536,11.8536Q19.7071,12,19.5,12L1.5,12Q1.292889,12,1.146445,11.8536Z" fill-rule="evenodd" fill="#FFFFFF" fill-opacity="1"/></g><g><path d="M4.5,5.5L7.5,5.5Q7.54925,5.5,7.59754,5.490393Q7.64584,5.480785,7.69134,5.46194Q7.73684,5.443094,7.77778,5.415735Q7.81873,5.388375,7.85355,5.353553Q7.88837,5.318731,7.91573,5.277785Q7.94309,5.236839,7.96194,5.191342Q7.98078,5.145845,7.99039,5.0975451Q8,5.0492457,8,5Q8,4.9507543,7.99039,4.9024549Q7.98078,4.854155,7.96194,4.808658Q7.94309,4.763161,7.91573,4.722215Q7.88837,4.681269,7.85355,4.646447Q7.81873,4.611625,7.77778,4.584265Q7.73684,4.556906,7.69134,4.53806Q7.64584,4.519215,7.59754,4.509607Q7.54925,4.5,7.5,4.5L4.5,4.5Q4.4507543,4.5,4.4024549,4.509607Q4.354155,4.519215,4.308658,4.53806Q4.263161,4.556906,4.222215,4.584265Q4.181269,4.611625,4.146447,4.646447Q4.111625,4.681269,4.084265,4.722215Q4.056906,4.763161,4.03806,4.808658Q4.019215,4.854155,4.009607,4.9024549Q4,4.9507543,4,5Q4,5.0492457,4.009607,5.0975451Q4.019215,5.145845,4.03806,5.191342Q4.056906,5.236839,4.084265,5.277785Q4.111625,5.318731,4.146447,5.353553Q4.181269,5.388375,4.222215,5.415735Q4.263161,5.443094,4.308658,5.46194Q4.354155,5.480785,4.4024549,5.490393Q4.4507543,5.5,4.5,5.5Z" fill-rule="evenodd" fill="#FFFFFF" fill-opacity="1"/></g><g><path d="M4.5,8.5L6.5,8.5Q6.54925,8.5,6.59754,8.490393Q6.64584,8.480785000000001,6.69134,8.46194Q6.73684,8.443094,6.77778,8.415735Q6.81873,8.388375,6.85355,8.353553Q6.88838,8.318731,6.91573,8.277785Q6.94309,8.236839,6.96194,8.191342Q6.98078,8.145845,6.99039,8.0975451Q7,8.0492457,7,8Q7,7.9507543,6.99039,7.9024549Q6.98078,7.854155,6.96194,7.808658Q6.94309,7.763161,6.91573,7.722215Q6.88838,7.681269,6.85355,7.646447Q6.81873,7.611625,6.7777899999999995,7.584265Q6.73684,7.556906,6.69134,7.53806Q6.64584,7.519215,6.59754,7.509607Q6.54925,7.5,6.5,7.5L4.5,7.5Q4.4507543,7.5,4.4024549,7.509607Q4.354155,7.519215,4.308658,7.53806Q4.263161,7.556906,4.222215,7.584265Q4.181269,7.611625,4.146447,7.646447Q4.111625,7.681269,4.084265,7.722215Q4.056906,7.763161,4.03806,7.808658Q4.019215,7.854155,4.009607,7.9024549Q4,7.9507543,4,8Q4,8.0492457,4.009607,8.0975451Q4.019215,8.145845,4.03806,8.191342Q4.056906,8.236839,4.084265,8.277785Q4.111625,8.318731,4.146447,8.353553Q4.181269,8.388375,4.222215,8.415735Q4.263161,8.443094,4.308658,8.46194Q4.354155,8.480785000000001,4.4024549,8.490393Q4.4507543,8.5,4.5,8.5Z" fill-rule="evenodd" fill="#FFFFFF" fill-opacity="1"/></g><g><path d="M6,15.5L6,12.5Q6,12.4507543,5.990393,12.4024549Q5.980785,12.354155,5.96194,12.308658Q5.943094,12.263161,5.915735,12.222215Q5.888375,12.181269,5.853553,12.146447Q5.818731,12.111625,5.777785,12.084265Q5.736839,12.056906,5.691342,12.03806Q5.645845,12.019214999999999,5.5975451,12.009607Q5.5492457,12,5.5,12Q5.4507543,12,5.4024549,12.009607Q5.354155,12.019214999999999,5.308658,12.03806Q5.263161,12.056906,5.222215,12.084265Q5.181269,12.111625,5.146447,12.146447Q5.111625,12.181269,5.084265,12.222215Q5.056906,12.263161,5.03806,12.308658Q5.019215,12.354155,5.009607,12.4024549Q5,12.4507543,5,12.5L5,15.5Q5,15.54925,5.009607,15.59754Q5.019215,15.64584,5.03806,15.69134Q5.056906,15.73684,5.084265,15.77778Q5.111625,15.81873,5.146447,15.85355Q5.181269,15.88837,5.222215,15.91573Q5.263161,15.94309,5.308658,15.96194Q5.354155,15.98078,5.4024549,15.99039Q5.4507543,16,5.5,16Q5.5492457,16,5.5975451,15.99039Q5.645845,15.98078,5.691342,15.96194Q5.736839,15.94309,5.777785,15.91573Q5.818731,15.88837,5.853553,15.85355Q5.888375,15.81873,5.915735,15.77778Q5.943094,15.73684,5.96194,15.69134Q5.980785,15.64584,5.990393,15.59754Q6,15.54925,6,15.5Z" fill-rule="evenodd" fill="#FFFFFF" fill-opacity="1"/></g><g><path d="M16,15.5L16,12.5Q16,12.4507543,15.990393,12.4024549Q15.980785000000001,12.354155,15.96194,12.308658Q15.943094,12.263161,15.915735,12.222215Q15.888375,12.181269,15.853553,12.146447Q15.818731,12.111625,15.777785,12.084265Q15.736839,12.056906,15.691342,12.03806Q15.645845,12.019214999999999,15.5975451,12.009607Q15.5492457,12,15.5,12Q15.4507543,12,15.4024549,12.009607Q15.354155,12.019214999999999,15.308658,12.03806Q15.263161,12.056906,15.222215,12.084265Q15.181269,12.111625,15.146447,12.146447Q15.111625,12.181269,15.084265,12.222215Q15.056906,12.263161,15.03806,12.308658Q15.019214999999999,12.354155,15.009607,12.4024549Q15,12.4507543,15,12.5L15,15.5Q15,15.54925,15.009607,15.59754Q15.019214999999999,15.64584,15.03806,15.69134Q15.056906,15.73684,15.084265,15.77778Q15.111625,15.81873,15.146447,15.85355Q15.181269,15.88837,15.222215,15.91573Q15.263161,15.94309,15.308658,15.96194Q15.354155,15.98078,15.4024549,15.99039Q15.4507543,16,15.5,16Q15.5492457,16,15.5975451,15.99039Q15.645845,15.98078,15.691342,15.96194Q15.736839,15.94309,15.777785,15.91573Q15.818731,15.88837,15.853553,15.85355Q15.888375,15.81873,15.915735,15.77778Q15.943094,15.73684,15.96194,15.69134Q15.980785000000001,15.64584,15.990393,15.59754Q16,15.54925,16,15.5Z" fill-rule="evenodd" fill="#FFFFFF" fill-opacity="1"/></g><g><ellipse cx="14" cy="6.5" rx="2.5" ry="2.5" fill-opacity="0" stroke-opacity="1" stroke="#FFFFFF" fill="none" stroke-width="1"/></g></g></svg>