<svg xmlns="http://www.w3.org/2000/svg" xmlns:xlink="http://www.w3.org/1999/xlink" fill="none" version="1.1" width="19" height="19" viewBox="0 0 19 19"><g><g><g><g><g><path d="M16.42710012397766,5.50384Q16.04680012397766,4.84482,15.385800123977662,4.45641L15.38250012397766,4.4544999999999995L10.92557012397766,1.880878Q10.259030123977661,1.5,9.493440123977662,1.5Q8.72666012397766,1.5,8.06497012397766,1.882004L3.606684123977661,4.45641Q2.946629123977661,4.8442799999999995,2.5650941239776612,5.50715Q2.182500123977661,6.17185,2.182500123977661,6.93503L2.182500123977661,12.065Q2.182500123977661,12.8338,2.5650941239776612,13.4985Q2.947660123977661,14.1632,3.6099711239776613,14.5455L8.066930123977661,17.1191Q8.73347012397766,17.5,9.49906012397766,17.5Q10.26584012397766,17.5,10.927530123977661,17.118000000000002L15.385800123977662,14.5436Q16.04590012397766,14.1557,16.427400123977662,13.4929Q16.81000012397766,12.8282,16.81000012397766,12.065L16.81000012397766,6.93503Q16.81000012397766,6.16728,16.42710012397766,5.50384ZM14.879200123977661,5.31859L14.88080012397766,5.3195Q15.81000012397766,5.86645,15.81000012397766,6.93503L15.81000012397766,12.065Q15.81000012397766,13.1345,14.879200123977661,13.6815L10.427470123977661,16.252000000000002Q9.50103012397766,16.7869,8.56307012397766,16.2509L4.110030123977661,13.6795Q3.182500123977661,13.1441,3.182500123977661,12.065L3.182500123977661,6.93503Q3.182500123977661,5.86555,4.113320123977661,5.31858L8.56503012397766,2.747996Q9.491470123977662,2.213144,10.42943012397766,2.749122L14.879200123977661,5.31859Z" fill-rule="evenodd" fill="#000000" fill-opacity="1"/></g><g><g><path d="M11.089220057220459,5.413276141601562Q10.43094005722046,4.7550201416015625,9.50000005722046,4.7550201416015625Q8.56905605722046,4.7550201416015625,7.910782057220459,5.413277141601562Q7.252500057220459,6.0715421416015625,7.252500057220459,7.002490141601562Q7.252500057220459,7.933430141601562,7.910776057220459,8.591710141601563Q8.569055057220458,9.250000141601562,9.50000005722046,9.250000141601562Q10.430950057220459,9.250000141601562,11.089220057220459,8.591710141601563Q11.74750005722046,7.933430141601562,11.74750005722046,7.002490141601562Q11.74750005722046,6.071541141601562,11.089220057220459,5.413276141601562ZM8.617880057220459,6.120392141601562Q8.983260057220459,5.7550201416015625,9.50000005722046,5.7550201416015625Q10.01674005722046,5.7550201416015625,10.382120057220458,6.120392141601562Q10.74750005722046,6.4857601416015624,10.74750005722046,7.002490141601562Q10.74750005722046,7.519220141601563,10.382110057220459,7.884610141601563Q10.016730057220459,8.250000141601562,9.50000005722046,8.250000141601562Q8.983270057220459,8.250000141601562,8.61788605722046,7.884610141601563Q8.252500057220459,7.519220141601563,8.252500057220459,7.002490141601562Q8.252500057220459,6.4857601416015624,8.617880057220459,6.120392141601562Z" fill-rule="evenodd" fill="#000000" fill-opacity="1"/></g><g><path d="M7.0625160000000005,10.878701310546875Q6,11.744848310546875,6,12.994978310546875Q6,13.044228310546874,6.009607,13.092528310546875Q6.019215,13.140828310546874,6.03806,13.186318310546875Q6.056906,13.231818310546874,6.084265,13.272768310546875Q6.111625,13.313708310546875,6.146447,13.348528310546875Q6.181269,13.383358310546875,6.222215,13.410718310546875Q6.263161,13.438078310546874,6.308658,13.456918310546875Q6.354155,13.475768310546876,6.4024549,13.485368310546875Q6.4507543,13.494978310546875,6.5,13.494978310546875Q6.5492457,13.494978310546875,6.5975451,13.485368310546875Q6.645845,13.475768310546876,6.691342,13.456918310546875Q6.736839,13.438078310546874,6.777785,13.410718310546875Q6.818731,13.383358310546875,6.853553,13.348528310546875Q6.888375,13.313708310546875,6.915735,13.272768310546875Q6.943094,13.231818310546874,6.96194,13.186318310546875Q6.980785,13.140828310546874,6.990393,13.092528310546875Q7,13.044228310546874,7,12.994978310546875Q7,12.219828310546875,7.69436,11.653798310546875Q8.43503,11.050018310546875,9.5,11.050018310546875Q10.564969999999999,11.050018310546875,11.30564,11.653798310546875Q12,12.219828310546875,12,12.994978310546875Q12,13.044228310546874,12.00961,13.092528310546875Q12.019210000000001,13.140828310546874,12.03806,13.186318310546875Q12.05691,13.231818310546874,12.08426,13.272768310546875Q12.11162,13.313708310546875,12.14645,13.348528310546875Q12.18127,13.383358310546875,12.22221,13.410718310546875Q12.26316,13.438078310546874,12.30866,13.456918310546875Q12.35415,13.475768310546876,12.40245,13.485368310546875Q12.45075,13.494978310546875,12.5,13.494978310546875Q12.54925,13.494978310546875,12.59755,13.485368310546875Q12.64584,13.475768310546876,12.69134,13.456918310546875Q12.73684,13.438078310546874,12.77778,13.410718310546875Q12.81873,13.383358310546875,12.85355,13.348528310546875Q12.88837,13.313708310546875,12.91573,13.272768310546875Q12.94309,13.231818310546874,12.96194,13.186318310546875Q12.98078,13.140828310546874,12.99039,13.092528310546875Q13,13.044228310546874,13,12.994978310546875Q13,11.744848310546875,11.93748,10.878701310546875Q10.920919999999999,10.050018310546875,9.5,10.050018310546875Q8.07908,10.050018310546875,7.0625160000000005,10.878701310546875Z" fill-rule="evenodd" fill="#000000" fill-opacity="1"/></g></g><g style="opacity:0;"><path d="M0,0.5L0,18.5Q0,18.5492,0.009606999999999977,18.5975Q0.019214999999999982,18.6458,0.03805999999999998,18.6913Q0.05690600000000001,18.7368,0.08426499999999998,18.7778Q0.11162499999999997,18.8187,0.146447,18.8536Q0.181269,18.8884,0.222215,18.9157Q0.263161,18.9431,0.308658,18.9619Q0.354155,18.9808,0.4024549,18.9904Q0.4507543,19,0.5,19L18.5,19Q18.5492,19,18.5975,18.9904Q18.6458,18.9808,18.6913,18.9619Q18.7368,18.9431,18.7778,18.9157Q18.8187,18.8884,18.8536,18.8536Q18.8884,18.8187,18.9157,18.7778Q18.9431,18.7368,18.9619,18.6913Q18.9808,18.6458,18.9904,18.5975Q19,18.5492,19,18.5L19,0.5Q19,0.4507543,18.9904,0.4024549Q18.9808,0.354155,18.9619,0.308658Q18.9431,0.263161,18.9157,0.222215Q18.8884,0.181269,18.8536,0.146447Q18.8187,0.11162499999999997,18.7778,0.08426499999999998Q18.7368,0.05690600000000001,18.6913,0.03805999999999998Q18.6458,0.019214999999999982,18.5975,0.009606999999999977Q18.5492,0,18.5,0L0.5,0Q0.4507543,0,0.4024549,0.009606999999999977Q0.354155,0.019214999999999982,0.308658,0.03805999999999998Q0.263161,0.05690600000000001,0.222215,0.08426499999999998Q0.181269,0.11162499999999997,0.146447,0.146447Q0.11162499999999997,0.181269,0.08426499999999998,0.222215Q0.05690600000000001,0.263161,0.03805999999999998,0.308658Q0.019214999999999982,0.354155,0.009606999999999977,0.4024549Q0,0.4507543,0,0.5ZM1,18L18,18L18,1L1,1L1,18Z" fill-rule="evenodd" fill="#000000" fill-opacity="1"/></g></g></g></g></g></svg>