<svg xmlns="http://www.w3.org/2000/svg" xmlns:xlink="http://www.w3.org/1999/xlink" fill="none" version="1.1" width="9" height="9" viewBox="0 0 9 9"><g><g><path d="M0,0L9,0L9,9L0,9L0,0Z" fill="#FFFFFF" fill-opacity="0.009999999776482582"/></g><g><path d="M0.75,1.875C0.75,1.667893,0.917893,1.5,1.125,1.5L7.875,1.5C8.08211,1.5,8.25,1.667893,8.25,1.875L8.25,7.125C8.25,7.33211,8.08211,7.5,7.875,7.5L1.125,7.5C0.917893,7.5,0.75,7.33211,0.75,7.125L0.75,1.875Z" fill="#FFFFFF" fill-opacity="1"/></g><g><path d="M0.375,7.125L0.375,1.875Q0.375,1.56434,0.59467,1.34467Q0.8143400000000001,1.125,1.125,1.125L7.875,1.125Q8.18566,1.125,8.40533,1.344671Q8.625,1.56434,8.625,1.875L8.625,7.125Q8.625,7.43566,8.40533,7.65533Q8.18566,7.875,7.875,7.875L1.125,7.875Q0.8143400000000001,7.875,0.594671,7.65533Q0.3750000223517,7.43566,0.375,7.125ZM1.125,7.125L7.875,7.125L7.875,1.875L1.125,1.875L1.125,7.125Z" fill-rule="evenodd" fill="#FFFFFF" fill-opacity="1"/></g><g><path d="M1.772727,3.5L7.22727,3.5C7.3779,3.5,7.5,3.276142,7.5,3C7.5,2.723858,7.3779,2.5,7.22727,2.5L1.772727,2.5C1.622104,2.5,1.5,2.723858,1.5,3C1.5,3.276142,1.622104,3.5,1.772727,3.5Z" fill-rule="evenodd" fill="#82B8B7" fill-opacity="1"/></g><g><path d="M5.0625,6.375L6.75,6.375C6.95711,6.375,7.125,6.207107,7.125,6C7.125,5.792893,6.95711,5.625,6.75,5.625L5.0625,5.625C4.855393,5.625,4.6875,5.792893,4.6875,6C4.6875,6.207107,4.855393,6.375,5.0625,6.375Z" fill-rule="evenodd" fill="#82B8B7" fill-opacity="1"/></g><g><path d="M7.875,1.875L7.875,4.875C7.875,5.08211,8.042893,5.25,8.25,5.25C8.457107,5.25,8.625,5.08211,8.625,4.875L8.625,1.875C8.625,1.667893,8.457107,1.5,8.25,1.5C8.042893,1.5,7.875,1.667893,7.875,1.875Z" fill-rule="evenodd" fill="#FFFFFF" fill-opacity="1"/></g><g><path d="M0.375,1.875L0.375,4.875C0.375,5.08211,0.542893,5.25,0.75,5.25C0.957107,5.25,1.125,5.08211,1.125,4.875L1.125,1.875C1.125,1.667893,0.957107,1.5,0.75,1.5C0.542893,1.5,0.375,1.667893,0.375,1.875Z" fill-rule="evenodd" fill="#FFFFFF" fill-opacity="1"/></g></g></svg>