<svg xmlns="http://www.w3.org/2000/svg" xmlns:xlink="http://www.w3.org/1999/xlink" fill="none" version="1.1" width="10" height="10" viewBox="0 0 10 10"><g><g><path d="M0,0L10,0L10,10L0,10L0,0Z" fill="#FFFFFF" fill-opacity="0.009999999776482582"/></g><g><path d="M2.0914709413604737,4.583333507720948L2.0914709413604737,8.333336507720947L7.924797941360474,8.333336507720947L7.924797941360474,4.583333507720948C7.924797941360474,4.353214507720947,8.111347941360474,4.166666507720947,8.341467941360474,4.166666507720947C8.571587941360473,4.166666507720947,8.758137941360474,4.353214507720947,8.758137941360474,4.583333507720948L8.758137941360474,8.749996507720947C8.758137941360474,8.980116507720947,8.571587941360473,9.166666507720947,8.341467941360474,9.166666507720947L1.6748049413604735,9.166666507720947C1.4446859413604736,9.166666507720947,1.2581379413604736,8.980116507720947,1.2581379413604736,8.749996507720947L1.2581379413604736,4.583333507720948C1.2581379413604736,4.353214507720947,1.4446859413604736,4.166666507720947,1.6748049413604735,4.166666507720947C1.9049229413604736,4.166666507720947,2.0914709413604737,4.353214507720947,2.0914709413604737,4.583333507720948Z" fill-rule="evenodd" fill="#FFFFFF" fill-opacity="1"/></g><g><path d="M1.21713877265625,2.87012C0.89848297265625,3.69535,1.51312997265625,4.58333,2.39773697265625,4.58333C3.08809697265625,4.58333,3.65157697265625,4.02369,3.65157697265625,3.33333C3.65157697265625,4.02369,4.21121697265625,4.58333,4.90157697265625,4.58333L5.11373697265625,4.58333C5.80409697265625,4.58333,6.36373697265625,4.02369,6.36373697265625,3.33333C6.36373697265625,4.02369,6.92744697265625,4.58333,7.61780697265625,4.58333C8.502886972656249,4.58333,9.11811697265625,3.69483,8.799196972656251,2.86923L8.17367697265625,1.25L1.84274697265625,1.25L1.21713877265625,2.87012Z" fill="#FFFFFF" fill-opacity="1"/></g><g><path d="M1.454041365211487,1.0999063134651184C1.5160723652114867,0.9392653134651184,1.6705333652114867,0.8333333134651184,1.8427333652114868,0.8333333134651184L8.173663365211487,0.8333333383004184C8.345843365211486,0.8333333134651184,8.500293365211487,0.9392403134651184,8.562343365211486,1.0998523134651184L9.187863365211486,2.7190933134651187Q9.342803365211488,3.1201833134651182,9.286593365211488,3.5405733134651185Q9.233363365211487,3.9387233134651183,9.002883365211487,4.272593313465118Q8.772793365211486,4.605913313465118,8.419453365211487,4.797773313465118Q8.047023365211487,5.000003313465118,7.617793365211487,5.000003313465118Q6.927593365211487,5.000003313465118,6.437913365211487,4.5125033134651185Q6.399783365211487,4.4745433134651185,6.364613365211487,4.4353633134651185Q6.329873365211487,4.474203313465118,6.292243365211487,4.511843313465119Q5.804083365211487,5.000003313465118,5.113733365211487,5.000003313465118L4.901563365211487,5.000003313465118Q4.211203365211487,5.000003313465118,3.723053365211487,4.511843313465119Q3.6854433652114866,4.474233313465119,3.650723365211487,4.435423313465119Q3.615613365211487,4.474553313465119,3.5775333652114867,4.512463313465118Q3.087933365211487,5.000003313465118,2.3977333652114865,5.000003313465118Q1.9686633652114869,5.000003313465118,1.5964123652114868,4.797853313465119Q1.243243365211487,4.6060633134651185,1.0132793652114869,4.272863313465118Q0.7829586652114868,3.9391433134651184,0.7297699652114868,3.5411533134651183Q0.6736155652114868,3.1209633134651185,0.8284333652114868,2.7200333134651187L1.454041365211487,1.0999063134651184ZM6.363733365211487,2.9166633134651185C6.5938433652114865,2.9166633134651185,6.780393365211487,3.1032133134651185,6.780393365211487,3.3333333134651184Q6.780393365211487,3.6775733134651185,7.025843365211487,3.9219333134651184Q7.271683365211487,4.1666633134651185,7.617793365211487,4.1666633134651185Q8.063403365211487,4.1666633134651185,8.317093365211488,3.7991733134651184Q8.570133365211486,3.4326033134651186,8.410513365211486,3.0193633134651185L7.887953365211486,1.6666663134651185L2.1284933652114866,1.6666663134651185L1.6058213652114868,3.0202233134651184Q1.4463353652114868,3.4332433134651184,1.699126365211487,3.7995133134651184Q1.9525233652114868,4.1666633134651185,2.3977333652114865,4.1666633134651185Q2.743783365211487,4.1666633134651185,2.989523365211487,3.9219633134651186Q3.234893365211487,3.6776333134651185,3.234893365211487,3.3333333134651184C3.234893365211487,3.1032133134651185,3.421443365211487,2.9166633134651185,3.6515633652114867,2.9166633134651185C3.8816833652114866,2.9166633134651185,4.068233365211487,3.1032133134651185,4.068233365211487,3.3333333134651184Q4.068233365211487,3.6785133134651185,4.312303365211487,3.9225933134651183Q4.556383365211486,4.1666633134651185,4.901563365211487,4.1666633134651185L5.113733365211487,4.1666633134651185Q5.458903365211487,4.1666633134651185,5.7029833652114865,3.9225933134651183Q5.947063365211487,3.6785133134651185,5.947063365211487,3.3333333134651184C5.947063365211487,3.1032133134651185,6.133613365211487,2.9166633134651185,6.363733365211487,2.9166633134651185Z" fill-rule="evenodd" fill="#FFFFFF" fill-opacity="1"/></g></g></svg>