<svg xmlns="http://www.w3.org/2000/svg" xmlns:xlink="http://www.w3.org/1999/xlink" fill="none" version="1.1" width="20" height="20" viewBox="0 0 20 20"><defs><clipPath id="master_svg0_76_13168"><rect x="0" y="0" width="20" height="20" rx="0"/></clipPath></defs><g clip-path="url(#master_svg0_76_13168)"><g><path d="M2.36231546875,3.7499999999999996L9.99964046875,9.47799L17.63698046875,3.75L2.36231546875,3.75L2.36231546875,3.7499999999999996ZM1.66748046875,4.2705400000000004L1.66748046875,16.25L18.33418046875,16.25L18.33418046875,4.268781L10.24964046875,10.33216C10.10149046875,10.44327,9.89779046875,10.44327,9.74964046875,10.33216L1.66748046875,4.2705400000000004Z" fill-rule="evenodd" fill="#FFFFFF" fill-opacity="1" style="mix-blend-mode:passthrough"/></g><g><path d="M10.00081046875,4.085Q10.03381046875,4.085,10.06617046875,4.078563Q10.09853046875,4.072126,10.12901046875,4.0595Q10.15949046875,4.046873,10.18693046875,4.028542Q10.21436046875,4.010211,10.23769046875,3.986881Q10.26102046875,3.96355,10.27935046875,3.936116Q10.29769046875,3.9086819999999998,10.31031046875,3.878199Q10.32294046875,3.8477159,10.32938046875,3.8153553000000002Q10.33581046875,3.7829946,10.33581046875,3.75Q10.33581046875,3.7170054,10.32938046875,3.6846446999999998Q10.32294046875,3.6522841,10.31031046875,3.621801Q10.29769046875,3.5913180000000002,10.27935046875,3.563884Q10.26102046875,3.53645,10.23769046875,3.513119Q10.21436046875,3.489789,10.18693046875,3.471458Q10.15949046875,3.453127,10.12901046875,3.4405Q10.09853046875,3.427874,10.06617046875,3.421437Q10.03381046875,3.415,10.00081046875,3.415Q9.98408046875,3.415,9.96744046875,3.416667L1.66748046875,3.416667Q1.63464996875,3.416667,1.60245036875,3.423072Q1.57025076875,3.429477,1.53991946875,3.44204Q1.50958746875,3.454604,1.48229046875,3.472843Q1.45499246875,3.491083,1.43177846875,3.514298Q1.40856346875,3.537512,1.3903234687500001,3.56481Q1.37208446875,3.592107,1.35952046875,3.622439Q1.3469574687499999,3.6527703,1.34055246875,3.6849699Q1.33414746875,3.7171695,1.33414746875,3.75L1.33414746875,9.96663Q1.33248046875,9.983270000000001,1.33248046875,10Q1.33248046875,10.03299,1.33891746875,10.065349999999999Q1.34535446875,10.09771,1.3579804687500001,10.1282Q1.37060746875,10.15868,1.38893846875,10.18611Q1.40726946875,10.21355,1.43059946875,10.23688Q1.45393046875,10.26021,1.48136446875,10.27854Q1.50879846875,10.29687,1.53928146875,10.3095Q1.56976456875,10.32213,1.60212516875,10.32856Q1.63448586875,10.335,1.66748046875,10.335Q1.70047506875,10.335,1.73283576875,10.32856Q1.76519636875,10.32213,1.79567946875,10.3095Q1.82616246875,10.29687,1.85359646875,10.27854Q1.88103046875,10.26021,1.90436146875,10.23688Q1.92769146875,10.21355,1.94602246875,10.18611Q1.96435346875,10.15868,1.9769804687499999,10.1282Q1.98960646875,10.09771,1.99604346875,10.065349999999999Q2.00248046875,10.03299,2.00248046875,10Q2.00248046875,9.983270000000001,2.00081346875,9.96663L2.00081346875,4.083333L9.96744046875,4.083333Q9.98408046875,4.085,10.00081046875,4.085Z" fill-rule="evenodd" fill="#FFFFFF" fill-opacity="1" style="mix-blend-mode:passthrough"/></g><g transform="matrix(1,0,0,-1,0,32.5)"><path d="M10.00081046875,16.585Q10.03381046875,16.585,10.06617046875,16.578563Q10.09853046875,16.572126,10.12901046875,16.5595Q10.15949046875,16.546873,10.18693046875,16.528542Q10.21436046875,16.510211,10.23769046875,16.486881Q10.26102046875,16.46355,10.27935046875,16.436116Q10.29769046875,16.408682,10.31031046875,16.378199Q10.32294046875,16.3477159,10.32938046875,16.3153553Q10.33581046875,16.2829946,10.33581046875,16.25Q10.33581046875,16.2170054,10.32938046875,16.1846447Q10.32294046875,16.1522841,10.31031046875,16.121801Q10.29769046875,16.091318,10.27935046875,16.063884Q10.26102046875,16.03645,10.23769046875,16.013119Q10.21436046875,15.989789,10.18693046875,15.971458Q10.15949046875,15.953127,10.12901046875,15.9405Q10.09853046875,15.927874,10.06617046875,15.921437Q10.03381046875,15.915,10.00081046875,15.915Q9.98408046875,15.915,9.96744046875,15.916667L1.66748046875,15.916667Q1.63464996875,15.916667,1.60245036875,15.923072Q1.57025076875,15.929477,1.53991946875,15.94204Q1.50958746875,15.954604,1.48229046875,15.972843Q1.45499246875,15.991083,1.43177846875,16.014298Q1.40856346875,16.037512,1.3903234687500001,16.06481Q1.37208446875,16.092107,1.35952046875,16.122439Q1.3469574687499999,16.1527703,1.34055246875,16.1849699Q1.33414746875,16.2171695,1.33414746875,16.25L1.33414746875,22.466630000000002Q1.33248046875,22.48327,1.33248046875,22.5Q1.33248046875,22.532989999999998,1.33891746875,22.56535Q1.34535446875,22.59771,1.3579804687500001,22.6282Q1.37060746875,22.65868,1.38893846875,22.68611Q1.40726946875,22.713549999999998,1.43059946875,22.73688Q1.45393046875,22.76021,1.48136446875,22.77854Q1.50879846875,22.79687,1.53928146875,22.8095Q1.56976456875,22.82213,1.60212516875,22.82856Q1.63448586875,22.835,1.66748046875,22.835Q1.70047506875,22.835,1.73283576875,22.82856Q1.76519636875,22.82213,1.79567946875,22.8095Q1.82616246875,22.79687,1.85359646875,22.77854Q1.88103046875,22.76021,1.90436146875,22.73688Q1.92769146875,22.713549999999998,1.94602246875,22.68611Q1.96435346875,22.65868,1.9769804687499999,22.6282Q1.98960646875,22.59771,1.99604346875,22.56535Q2.00248046875,22.532989999999998,2.00248046875,22.5Q2.00248046875,22.48327,2.00081346875,22.466630000000002L2.00081346875,16.583333L9.96744046875,16.583333Q9.98408046875,16.585,10.00081046875,16.585Z" fill-rule="evenodd" fill="#FFFFFF" fill-opacity="1" style="mix-blend-mode:passthrough"/></g><g><path d="M10.033375,4.083333Q10.0167291,4.085,10,4.085Q9.9670054,4.085,9.9346447,4.078563Q9.9022841,4.072126,9.871801,4.0595Q9.841318,4.046873,9.813884,4.028542Q9.78645,4.010211,9.763119,3.986881Q9.739789,3.96355,9.721458,3.936116Q9.703127,3.9086819999999998,9.6905,3.878199Q9.677874,3.8477159,9.671437,3.8153553000000002Q9.665,3.7829946,9.665,3.75Q9.665,3.7170054,9.671437,3.6846446999999998Q9.677874,3.6522841,9.6905,3.621801Q9.703127,3.5913180000000002,9.721458,3.563884Q9.739789,3.53645,9.763119,3.513119Q9.78645,3.489789,9.813884,3.471458Q9.841318,3.453127,9.871801,3.4405Q9.9022841,3.427874,9.9346447,3.421437Q9.9670054,3.415,10,3.415Q10.0167291,3.415,10.033375,3.416667L18.33333,3.416667Q18.36616,3.416667,18.39836,3.423072Q18.43056,3.429477,18.46089,3.44204Q18.49123,3.454604,18.518520000000002,3.472843Q18.54582,3.491083,18.56904,3.514298Q18.59225,3.537512,18.61049,3.56481Q18.628729999999997,3.592107,18.641289999999998,3.622439Q18.65386,3.6527703,18.66026,3.6849699Q18.66667,3.7171695,18.66667,3.75L18.66667,9.966619999999999Q18.668329999999997,9.983270000000001,18.668329999999997,10Q18.668329999999997,10.03299,18.6619,10.065349999999999Q18.655459999999998,10.09771,18.64283,10.1282Q18.630209999999998,10.15868,18.61187,10.18611Q18.59354,10.21355,18.57021,10.23688Q18.54688,10.26021,18.51945,10.27854Q18.49201,10.29687,18.46153,10.3095Q18.43105,10.32213,18.398690000000002,10.32856Q18.366329999999998,10.335,18.33333,10.335Q18.30034,10.335,18.26798,10.32856Q18.23562,10.32213,18.20513,10.3095Q18.17465,10.29687,18.14722,10.27854Q18.11978,10.26021,18.09645,10.23688Q18.07312,10.21355,18.05479,10.18611Q18.036459999999998,10.15868,18.02383,10.1282Q18.01121,10.09771,18.00477,10.065349999999999Q17.99833,10.03299,17.99833,10Q17.99833,9.983270000000001,18,9.966619999999999L18,4.083333L10.033375,4.083333Z" fill-rule="evenodd" fill="#FFFFFF" fill-opacity="1" style="mix-blend-mode:passthrough"/></g><g transform="matrix(1,0,0,-1,0,32.5)"><path d="M10.033375,16.583333Q10.0167291,16.585,10,16.585Q9.9670054,16.585,9.9346447,16.578563Q9.9022841,16.572126,9.871801,16.5595Q9.841318,16.546873,9.813884,16.528542Q9.78645,16.510211,9.763119,16.486881Q9.739789,16.46355,9.721458,16.436116Q9.703127,16.408682,9.6905,16.378199Q9.677874,16.3477159,9.671437,16.3153553Q9.665,16.2829946,9.665,16.25Q9.665,16.2170054,9.671437,16.1846447Q9.677874,16.1522841,9.6905,16.121801Q9.703127,16.091318,9.721458,16.063884Q9.739789,16.03645,9.763119,16.013119Q9.78645,15.989789,9.813884,15.971458Q9.841318,15.953127,9.871801,15.9405Q9.9022841,15.927874,9.9346447,15.921437Q9.9670054,15.915,10,15.915Q10.0167291,15.915,10.033375,15.916667L18.33333,15.916667Q18.36616,15.916667,18.39836,15.923072Q18.43056,15.929477,18.46089,15.94204Q18.49123,15.954604,18.518520000000002,15.972843Q18.54582,15.991083,18.56904,16.014298Q18.59225,16.037512,18.61049,16.06481Q18.628729999999997,16.092107,18.641289999999998,16.122439Q18.65386,16.1527703,18.66026,16.1849699Q18.66667,16.2171695,18.66667,16.25L18.66667,22.46662Q18.668329999999997,22.48327,18.668329999999997,22.5Q18.668329999999997,22.532989999999998,18.6619,22.56535Q18.655459999999998,22.59771,18.64283,22.6282Q18.630209999999998,22.65868,18.61187,22.68611Q18.59354,22.713549999999998,18.57021,22.73688Q18.54688,22.76021,18.51945,22.77854Q18.49201,22.79687,18.46153,22.8095Q18.43105,22.82213,18.398690000000002,22.82856Q18.366329999999998,22.835,18.33333,22.835Q18.30034,22.835,18.26798,22.82856Q18.23562,22.82213,18.20513,22.8095Q18.17465,22.79687,18.14722,22.77854Q18.11978,22.76021,18.09645,22.73688Q18.07312,22.713549999999998,18.05479,22.68611Q18.036459999999998,22.65868,18.02383,22.6282Q18.01121,22.59771,18.00477,22.56535Q17.99833,22.532989999999998,17.99833,22.5Q17.99833,22.48327,18,22.46662L18,16.583333L10.033375,16.583333Z" fill-rule="evenodd" fill="#FFFFFF" fill-opacity="1" style="mix-blend-mode:passthrough"/></g></g></svg>