<svg xmlns="http://www.w3.org/2000/svg" xmlns:xlink="http://www.w3.org/1999/xlink" fill="none" version="1.1" width="20.5" height="25.5" viewBox="0 0 20.5 25.5"><g><g><path d="M16.9196,0.283309Q15.7421,0,13.8125,0L6.6875,-0.0000010000000000287557Q4.75792,-0.0000010000000000287557,3.58041,0.283308Q2.20395,0.614488,1.404401,1.422454Q0.606491,2.2287600000000003,0.279755,3.6155Q0,4.80284,0,6.75L0,18.75Q0,20.6972,0.279755,21.8845Q0.60649,23.2712,1.404401,24.0775Q2.20395,24.8855,3.58042,25.2167Q4.75793,25.5,6.6875,25.5L13.8125,25.5Q15.7421,25.5,16.9196,25.2167Q18.2961,24.8855,19.0956,24.0775Q19.8935,23.2712,20.2202,21.8845Q20.5,20.6972,20.5,18.75L20.5,6.75Q20.5,4.80284,20.2202,3.6155Q19.8935,2.2287600000000003,19.0956,1.422454Q18.2961,0.6144890000000001,16.9196,0.283309ZM6.6875,1.4999989999999999L13.8125,1.5Q17.062,1.5,18.0294,2.47755Q19,3.45836,19,6.75L19,18.75Q19,22.0416,18.0294,23.0225Q17.062,24,13.8125,24L6.6875,24Q3.43796,24,2.4706,23.0225Q1.5,22.0416,1.5,18.75L1.5,6.75Q1.5,3.45836,2.4706,2.47755Q3.43796,1.4999989999999999,6.6875,1.4999989999999999Z" fill-rule="evenodd" fill="#FFFFFF" fill-opacity="1"/></g><g><path d="M12.625,4.200000286102295L7.875,4.200000286102295Q7.8011315,4.200000286102295,7.728682,4.214411286102295Q7.656233,4.228822286102295,7.587987,4.257090286102295Q7.519742,4.285359286102295,7.458322,4.326398286102295Q7.396903,4.3674372861022945,7.34467,4.419670286102295Q7.292437,4.471903286102295,7.251398,4.533322286102295Q7.210359,4.594742286102295,7.18209,4.662987286102295Q7.153822,4.731233286102295,7.139411,4.803682286102295Q7.125,4.876131786102295,7.125,4.950000286102295Q7.125,5.023868786102295,7.139411,5.096318286102295Q7.153822,5.168767286102295,7.18209,5.237013286102295Q7.210359,5.305258286102295,7.251398,5.366678286102295Q7.292437,5.428097286102295,7.34467,5.480330286102295Q7.396903,5.532563286102295,7.458322,5.573602286102295Q7.519742,5.6146412861022945,7.587987,5.642910286102295Q7.656233,5.671178286102295,7.728682,5.685589286102295Q7.8011315,5.700000286102295,7.875,5.700000286102295L12.625,5.700000286102295Q12.69887,5.700000286102295,12.77132,5.685589286102295Q12.84377,5.671178286102295,12.91201,5.642910286102295Q12.980260000000001,5.6146412861022945,13.04168,5.573602286102295Q13.103100000000001,5.532563286102295,13.15533,5.480330286102295Q13.20756,5.428097286102295,13.2486,5.366678286102295Q13.28964,5.305258286102295,13.317910000000001,5.237013286102295Q13.34618,5.168767286102295,13.36059,5.096318286102295Q13.375,5.023868786102295,13.375,4.950000286102295Q13.375,4.876131786102295,13.36059,4.803682286102295Q13.34618,4.731233286102295,13.317910000000001,4.662987286102295Q13.28964,4.594742286102295,13.2486,4.533322286102295Q13.20756,4.471903286102295,13.15533,4.419670286102295Q13.103100000000001,4.3674372861022945,13.04168,4.326398286102295Q12.980260000000001,4.285359286102295,12.91201,4.257090286102295Q12.84377,4.228822286102295,12.77132,4.214411286102295Q12.69887,4.200000286102295,12.625,4.200000286102295Z" fill-rule="evenodd" fill="#FFFFFF" fill-opacity="1"/></g><g><path d="M12.084614713897706,17.56723554440918Q11.325374713897705,16.80000114440918,10.250004713897706,16.80000114440918Q9.174625713897704,16.80000114440918,8.415382323897704,17.56723554440918Q7.659374713897705,18.33120014440918,7.659374713897705,19.41000114440918Q7.659374713897705,20.48880114440918,8.415381963897705,21.25276114440918Q9.174624713897705,22.02000114440918,10.250004713897706,22.02000114440918Q11.325374713897705,22.02000114440918,12.084614713897706,21.25276114440918Q12.840624713897705,20.48880114440918,12.840624713897705,19.41000114440918Q12.840624713897705,18.331201144409178,12.084614713897706,17.56723554440918ZM9.481584713897705,18.62233114440918Q9.800554713897705,18.30000114440918,10.250004713897706,18.30000114440918Q10.699444713897705,18.30000114440918,11.018414713897705,18.62233114440918Q11.340624713897705,18.94792114440918,11.340624713897705,19.41000114440918Q11.340624713897705,19.87207114440918,11.018414713897705,20.19767114440918Q10.699444713897705,20.52000114440918,10.250004713897706,20.52000114440918Q9.800554713897705,20.52000114440918,9.481584713897705,20.19767114440918Q9.159374713897705,19.87207114440918,9.159374713897705,19.41000114440918Q9.159374713897705,18.94792114440918,9.481584713897705,18.62233114440918Z" fill-rule="evenodd" fill="#FFFFFF" fill-opacity="1"/></g></g></svg>