<svg xmlns="http://www.w3.org/2000/svg" xmlns:xlink="http://www.w3.org/1999/xlink" fill="none" version="1.1" width="24" height="24" viewBox="0 0 24 24"><g><g><g><g><path d="M8.661429803695679,2.8810620497283934Q5.848759803695678,4.067216049728394,4.223979803695679,6.620186049728393Q2.552766803695679,9.246116049728393,2.7780518036956785,12.365956049728393Q3.0278998036956786,15.940156049728394,5.703209803695678,18.509056049728393Q8.38128980369568,21.080556049728393,12.022939803695678,21.240756049728393Q14.548439803695679,21.350256049728394,16.787239803695677,20.257256049728394Q18.94803980369568,19.202356049728394,20.35443980369568,17.277556049728396Q20.56773980369568,16.988756049728394,20.61423980369568,16.793156049728395Q20.623939803695677,16.75235604972839,20.622439803695677,16.73865604972839Q20.625439803695677,16.767056049728396,20.64623980369568,16.801056049728395Q20.667939803695678,16.836456049728394,20.693939803695677,16.853256049728394Q20.68503980369568,16.847556049728393,20.64763980369568,16.838856049728392Q20.45493980369568,16.793856049728394,20.10463980369568,16.857856049728394Q18.994439803695677,17.056656049728396,17.858739803695677,17.009356049728396Q15.910539803695679,16.929656049728393,14.12523980369568,16.111656049728396Q12.404039803695678,15.323056049728393,11.07235980369568,13.960456049728393Q9.739459803695679,12.596556049728393,9.003019803695679,10.868576049728393Q8.23799980369568,9.073536049728393,8.23000980369568,7.143106049728393Q8.21415980369568,5.083616049728393,9.04287980369568,3.1893860497283937Q9.174969803695678,2.8860800497283936,9.171249803695678,2.7045650497283935Q9.17061980369568,2.6735880497283935,9.168469803695679,2.6681300497283935Q9.179569803695678,2.6963980497283937,9.20747980369568,2.7226390497283934Q9.231209803695679,2.7449550497283934,9.25047980369568,2.7515090497283934Q9.23189980369568,2.7451880497283936,9.185269803695679,2.7451560497283936Q8.982299803695678,2.7450170497283937,8.662769803695678,2.8804970497283935L8.661429803695679,2.8810620497283934ZM8.07722980369568,1.4995040497283936Q9.468869803695679,0.9094460497283936,10.235019803695678,1.6298610497283936Q11.031809803695678,2.3790880497283937,10.417119803695678,3.790616049728394Q9.716569803695679,5.391856049728394,9.729989803695679,7.136896049728394Q9.743729803695679,10.454836049728394,12.14513980369568,12.912056049728394Q14.549939803695679,15.372756049728393,17.921239803695677,15.510656049728393Q18.892139803695677,15.551156049728393,19.83533980369568,15.382156049728394Q21.366339803695677,15.102756049728393,21.92623980369568,16.018956049728395Q22.47983980369568,16.924856049728394,21.56553980369568,18.162456049728394Q19.94003980369568,20.387356049728393,17.445239803695678,21.605256049728393Q14.864039803695679,22.865356049728394,11.957049803695678,22.739256049728393Q9.88748980369568,22.648256049728392,7.976269803695678,21.808556049728395Q6.127919803695678,20.996356049728394,4.664289803695679,19.590956049728394Q3.198969803695679,18.183956049728394,2.3274878036956785,16.382156049728394Q1.4246608036956787,14.515656049728394,1.2819478036956786,12.474056049728393Q1.0209288036956787,8.859296049728393,2.9585218036956786,5.814816049728393Q4.834609803695679,2.8669700497283936,8.078569803695679,1.4989380497283935L8.07722980369568,1.4995040497283936Z" fill="#2B3D56" fill-opacity="1"/></g><g transform="matrix(-1,-1.2246469849340659e-16,1.2246469849340659e-16,-1,48,48)" style="opacity:0;"></g></g><g><g><ellipse cx="15" cy="5" rx="1" ry="1" fill="#000000" fill-opacity="1"/></g><g><ellipse cx="15" cy="10" rx="1" ry="1" fill="#000000" fill-opacity="1"/></g><g><ellipse cx="20" cy="11" rx="1" ry="1" fill="#000000" fill-opacity="1"/></g></g></g></g></svg>