<svg xmlns="http://www.w3.org/2000/svg" xmlns:xlink="http://www.w3.org/1999/xlink" fill="none" version="1.1" width="24" height="24" viewBox="0 0 24 24"><g><g><g><g><path d="M17.1265,6.87348Q15.00305,4.75,12,4.75Q8.99695,4.75,6.87348,6.87348Q4.75,8.99695,4.750001,12Q4.75,15.00305,6.87348,17.1265Q8.99695,19.25,12,19.25Q15.00305,19.25,17.1265,17.1265Q19.25,15.00305,19.25,12Q19.25,8.99695,17.1265,6.87348ZM7.93414,7.93414Q9.618269999999999,6.25,12,6.250001Q14.38173,6.25,16.0659,7.93414Q17.75,9.618269999999999,17.75,12Q17.75,14.38173,16.0659,16.0659Q14.38173,17.75,12,17.75Q9.618269999999999,17.75,7.93414,16.0659Q6.25,14.38173,6.250001,12Q6.25,9.618269999999999,7.93414,7.93414Z" fill-rule="evenodd" fill="#000000" fill-opacity="1"/></g><g><path d="M12,1Q11.90151,1,11.80491,1.019215Q11.70831,1.03843,11.61732,1.076121Q11.52632,1.113812,11.44443,1.16853Q11.36254,1.223249,11.29289,1.2928929999999998Q11.22325,1.362537,11.16853,1.44443Q11.11381,1.526322,11.07612,1.617317Q11.03843,1.7083110000000001,11.01921,1.80491Q11,1.9015086,11,2L11,2.0799999Q11,2.178491,11.01921,2.27509Q11.03843,2.371689,11.07612,2.462683Q11.11381,2.553677,11.16853,2.63557Q11.22325,2.717463,11.29289,2.787107Q11.36254,2.856751,11.44443,2.911469Q11.52632,2.966188,11.61732,3.00388Q11.70831,3.04157,11.80491,3.06079Q11.90151,3.08,12,3.08Q12.0985,3.08,12.1951,3.06079Q12.2917,3.04157,12.3827,3.00388Q12.4737,2.966188,12.5556,2.911469Q12.6375,2.856751,12.7071,2.787107Q12.7767,2.717463,12.8315,2.63557Q12.8862,2.553677,12.9239,2.462683Q12.9616,2.371689,12.9808,2.27509Q13,2.178491,13,2.0799999L13,2Q13,1.9015086,12.9808,1.80491Q12.9616,1.7083110000000001,12.9239,1.617317Q12.8862,1.526322,12.8315,1.44443Q12.7767,1.362537,12.7071,1.2928929999999998Q12.6375,1.223249,12.5556,1.16853Q12.4737,1.113812,12.3827,1.076121Q12.2917,1.03843,12.1951,1.019215Q12.0985,1,12,1ZM19.14,3.8600000000000003Q18.9411,3.8600000000000003,18.7573,3.93612Q18.5735,4.01224,18.4329,4.15289L18.3029,4.28289Q18.2332,4.352539999999999,18.1785,4.43443Q18.1238,4.51632,18.0861,4.60732Q18.0484,4.69831,18.0292,4.79491Q18.01,4.89151,18.01,4.99Q18.01,5.08849,18.0292,5.185090000000001Q18.0484,5.28169,18.0861,5.37268Q18.1238,5.46368,18.1785,5.54557Q18.2332,5.62746,18.3029,5.69711Q18.4435,5.837759999999999,18.6273,5.91388Q18.8111,5.99,19.01,5.99Q19.2089,5.99,19.3927,5.91388Q19.5765,5.837759999999999,19.7171,5.69711L19.8471,5.56711Q19.9167,5.49746,19.9715,5.415570000000001Q20.0262,5.33368,20.0639,5.24268Q20.1016,5.15169,20.1208,5.05509Q20.14,4.958489999999999,20.14,4.859999999999999Q20.14,4.7615099999999995,20.1208,4.66491Q20.1016,4.56831,20.0639,4.47731Q20.0262,4.3863199999999996,19.9715,4.30443Q19.9167,4.22254,19.8471,4.15289Q19.7065,4.01224,19.5227,3.93612Q19.3389,3.8600000000000003,19.14,3.8600000000000003ZM4.15289,4.15289Q4.08325,4.22254,4.02853,4.30443Q3.9738100000000003,4.3863199999999996,3.93612,4.477320000000001Q3.8984300000000003,4.56831,3.87921,4.66491Q3.8600000000000003,4.7615099999999995,3.8600000000000003,4.859999999999999Q3.8600000000000003,4.958489999999999,3.87921,5.05509Q3.8984300000000003,5.15169,3.93612,5.24268Q3.9738100000000003,5.33368,4.02853,5.415570000000001Q4.08325,5.49746,4.15289,5.56711L4.28289,5.69711Q4.352539999999999,5.76675,4.43443,5.82147Q4.51632,5.876189999999999,4.60732,5.91388Q4.69831,5.95157,4.79491,5.9707799999999995Q4.89151,5.99,4.99,5.99Q5.08849,5.99,5.185090000000001,5.9707799999999995Q5.28169,5.95157,5.37268,5.91388Q5.46368,5.876189999999999,5.54557,5.82147Q5.62746,5.76675,5.69711,5.69711Q5.76675,5.62746,5.82147,5.54557Q5.876189999999999,5.46368,5.91388,5.37268Q5.95157,5.28169,5.9707799999999995,5.185090000000001Q5.99,5.08849,5.99,4.99Q5.99,4.89151,5.9707799999999995,4.79491Q5.95157,4.69831,5.91388,4.60732Q5.876189999999999,4.51632,5.82147,4.43443Q5.76675,4.352539999999999,5.69711,4.28289L5.56711,4.15289Q5.49746,4.08325,5.415570000000001,4.02853Q5.33368,3.9738100000000003,5.24268,3.93612Q5.15169,3.8984300000000003,5.05509,3.87921Q4.958489999999999,3.8600000000000003,4.859999999999999,3.8600000000000003Q4.7615099999999995,3.8600000000000003,4.66491,3.87921Q4.56831,3.8984300000000003,4.477320000000001,3.93612Q4.3863199999999996,3.9738100000000003,4.30443,4.02853Q4.22254,4.08325,4.15289,4.15289ZM1,12Q1,12.0985,1.019215,12.1951Q1.03843,12.2917,1.076121,12.3827Q1.113812,12.4737,1.16853,12.5556Q1.223249,12.6375,1.2928929999999998,12.7071Q1.362537,12.7767,1.44443,12.8315Q1.526322,12.8862,1.617317,12.9239Q1.7083110000000001,12.9616,1.80491,12.9808Q1.9015086,13,2,13L2.0799999,13Q2.178491,13,2.27509,12.9808Q2.371689,12.9616,2.462683,12.9239Q2.553677,12.8862,2.63557,12.8315Q2.717463,12.7767,2.787107,12.7071Q2.856751,12.6375,2.911469,12.5556Q2.966188,12.4737,3.00388,12.3827Q3.04157,12.2917,3.06079,12.1951Q3.08,12.0985,3.08,12Q3.08,11.90151,3.06079,11.80491Q3.04157,11.70831,3.00388,11.61732Q2.966188,11.52632,2.911469,11.44443Q2.856751,11.36254,2.787107,11.29289Q2.717463,11.22325,2.63557,11.16853Q2.553677,11.11381,2.462683,11.07612Q2.371689,11.03843,2.27509,11.01921Q2.178491,11,2.0799999,11L2,11Q1.9015086,11,1.80491,11.01921Q1.7083110000000001,11.03843,1.617317,11.07612Q1.526322,11.11381,1.44443,11.16853Q1.362537,11.22325,1.2928929999999998,11.29289Q1.223249,11.36254,1.16853,11.44443Q1.113812,11.52632,1.076121,11.61732Q1.03843,11.70831,1.019215,11.80491Q1,11.90151,1,12ZM20.92,12Q20.92,12.0985,20.9392,12.1951Q20.9584,12.2917,20.9961,12.3827Q21.0338,12.4737,21.0885,12.5556Q21.1432,12.6375,21.2129,12.7071Q21.2825,12.7767,21.3644,12.8315Q21.4463,12.8862,21.5373,12.9239Q21.6283,12.9616,21.7249,12.9808Q21.8215,13,21.92,13L22,13Q22.0985,13,22.1951,12.9808Q22.2917,12.9616,22.3827,12.9239Q22.4737,12.8862,22.5556,12.8315Q22.6375,12.7767,22.7071,12.7071Q22.7767,12.6375,22.8315,12.5556Q22.8862,12.4737,22.9239,12.3827Q22.9616,12.2917,22.9808,12.1951Q23,12.0985,23,12Q23,11.90151,22.9808,11.80491Q22.9616,11.70831,22.9239,11.61732Q22.8862,11.52632,22.8315,11.44443Q22.7767,11.36254,22.7071,11.29289Q22.6375,11.22325,22.5556,11.16853Q22.4737,11.11381,22.3827,11.07612Q22.2917,11.03843,22.1951,11.01921Q22.0985,11,22,11L21.92,11Q21.8215,11,21.7249,11.01921Q21.6283,11.03843,21.5373,11.07612Q21.4463,11.11381,21.3644,11.16853Q21.2825,11.22325,21.2129,11.29289Q21.1432,11.36254,21.0885,11.44443Q21.0338,11.52632,20.9961,11.61732Q20.9584,11.70831,20.9392,11.80491Q20.92,11.90151,20.92,12ZM5.69711,18.3029Q5.62746,18.2332,5.54557,18.1785Q5.46368,18.1238,5.37268,18.0861Q5.28169,18.0484,5.185090000000001,18.0292Q5.08849,18.01,4.99,18.01Q4.89151,18.01,4.79491,18.0292Q4.69831,18.0484,4.60732,18.0861Q4.51632,18.1238,4.43443,18.1785Q4.352539999999999,18.2332,4.28289,18.3029L4.15289,18.4329Q4.01224,18.5735,3.93612,18.7573Q3.8600000000000003,18.9411,3.8600000000000003,19.14Q3.8600000000000003,19.3389,3.93612,19.5227Q4.01224,19.7064,4.15289,19.8471Q4.22254,19.9167,4.30443,19.9715Q4.3863199999999996,20.0262,4.47731,20.0639Q4.56831,20.1016,4.66491,20.1208Q4.7615099999999995,20.14,4.859999999999999,20.14Q4.958489999999999,20.14,5.05509,20.1208Q5.15169,20.1016,5.24268,20.0639Q5.33368,20.0262,5.415570000000001,19.9715Q5.49746,19.9167,5.56711,19.8471L5.69711,19.7171Q5.837759999999999,19.5765,5.91388,19.3927Q5.99,19.2089,5.99,19.01Q5.99,18.8111,5.91388,18.6273Q5.837759999999999,18.4435,5.69711,18.3029ZM19.8471,18.4329L19.7171,18.3029Q19.5765,18.1622,19.3927,18.0861Q19.2089,18.01,19.01,18.01Q18.8111,18.01,18.6273,18.0861Q18.4435,18.1622,18.3029,18.3029Q18.1622,18.4435,18.0861,18.6273Q18.01,18.8111,18.01,19.01Q18.01,19.2089,18.0861,19.3927Q18.1622,19.5765,18.3029,19.7171L18.4329,19.8471Q18.5735,19.9878,18.7573,20.0639Q18.9411,20.14,19.14,20.14Q19.3389,20.14,19.5227,20.0639Q19.7065,19.9878,19.8471,19.8471Q19.9878,19.7065,20.0639,19.5227Q20.14,19.3389,20.14,19.14Q20.14,18.9411,20.0639,18.7573Q19.9878,18.5735,19.8471,18.4329ZM12,20.92Q11.90151,20.92,11.80491,20.9392Q11.70831,20.9584,11.61732,20.9961Q11.52632,21.0338,11.44443,21.0885Q11.36254,21.1432,11.29289,21.2129Q11.22325,21.2825,11.16853,21.3644Q11.11381,21.4463,11.07612,21.5373Q11.03843,21.6283,11.01921,21.7249Q11,21.8215,11,21.92L11,22Q11,22.0985,11.01921,22.1951Q11.03843,22.2917,11.07612,22.3827Q11.11381,22.4737,11.16853,22.5556Q11.22325,22.6375,11.29289,22.7071Q11.36254,22.7767,11.44443,22.8315Q11.52632,22.8862,11.61732,22.9239Q11.70831,22.9616,11.80491,22.9808Q11.90151,23,12,23Q12.0985,23,12.1951,22.9808Q12.2917,22.9616,12.3827,22.9239Q12.4737,22.8862,12.5556,22.8315Q12.6375,22.7767,12.7071,22.7071Q12.7767,22.6375,12.8315,22.5556Q12.8862,22.4737,12.9239,22.3827Q12.9616,22.2917,12.9808,22.1951Q13,22.0985,13,22L13,21.92Q13,21.8215,12.9808,21.7249Q12.9616,21.6283,12.9239,21.5373Q12.8862,21.4463,12.8315,21.3644Q12.7767,21.2825,12.7071,21.2129Q12.6375,21.1432,12.5556,21.0885Q12.4737,21.0338,12.3827,20.9961Q12.2917,20.9584,12.1951,20.9392Q12.0985,20.92,12,20.92Z" fill-rule="evenodd" fill="#000000" fill-opacity="1"/></g><g transform="matrix(-1,-1.2246469849340659e-16,1.2246469849340659e-16,-1,48,48)" style="opacity:0;"></g></g></g></g></svg>