<svg xmlns="http://www.w3.org/2000/svg" xmlns:xlink="http://www.w3.org/1999/xlink" fill="none" version="1.1" width="56" height="56" viewBox="0 0 56 56"><defs><clipPath id="master_svg0_3_368"><rect x="0" y="0" width="56" height="56" rx="0"/></clipPath></defs><g><g clip-path="url(#master_svg0_3_368)"><rect x="0" y="0" width="56" height="56" rx="0" fill="#FFFFFF" fill-opacity="0"/><g><g><g><path d="M12.5,10.32297L12.5,30.5L12.5,31.1852L29,37.5723L45.5,31.1852L45.5,10.307L28.488300000000002,3.9276299999999997L12.5,10.32297ZM14.5,29.8148L29,35.4277L43.5,29.8148L43.5,11.693L28.511699999999998,6.07237L14.5,11.67703L14.5,29.8148Z" fill-rule="evenodd" fill="#000000" fill-opacity="1"/></g><g><path d="M28,16.822969999999998L28,36L30,36L30,18.177030000000002L44.3714,12.428477L43.6286,10.571523L28,16.822969999999998Z" fill-rule="evenodd" fill="#000000" fill-opacity="1"/></g><g><path d="M13.860994,10.567432L29.361,16.56743L28.639,18.43257L13.139006,12.432568L13.860994,10.567432Z" fill-rule="evenodd" fill="#000000" fill-opacity="1"/></g></g><g><g><path d="M57,40.98768Q57,37.29009,48.1939,35.031356Q48.0716,35,47.9454,35Q47.9316,35,47.9178,35.000383Q47.8369,35.002622,47.7574,35.01784Q47.6779,35.033059,47.6019,35.060861Q47.5259,35.088663,47.4554,35.128325Q47.3848,35.167987,47.3216,35.218476Q47.2583,35.268965,47.204,35.328968Q47.1497,35.388971,47.1058,35.456926Q47.0618,35.52488,47.0294,35.599018Q46.9969,35.673156,46.9768,35.751547Q46.9454,35.873795,46.9454,36Q46.9454,36.0211242,46.9463,36.0422295Q46.9569,36.29313,47.0848,36.509253Q47.1861,36.68044,47.3452,36.799832Q47.5043,36.919224,47.697,36.968644Q51.3596,37.9081,53.3204,39.09714Q55,40.115700000000004,55,40.98768Q55,41.67502,53.9019,42.48991Q52.5776,43.47265,50.0102,44.3305Q44.5575,46.1524,35.9275,46.7784L35.9255,46.7786L35.9232,46.7787Q35.8295,46.7855,35.7387,46.8097Q35.648,46.8338,35.5633,46.8744Q35.4786,46.915,35.4029,46.9706Q35.3272,47.0263,35.2633,47.0951Q35.1993,47.1638,35.1493,47.2433Q35.0992,47.3228,35.0649,47.4102Q35.0305,47.4976,35.013,47.5899Q34.9955,47.6822,34.9955,47.7761L34.9955,47.7813Q34.9957,47.8149,34.9981,47.8484Q35.0125,48.0468,35.1017,48.2246Q35.1909,48.4024,35.3414,48.5325Q35.4776,48.6504,35.6465,48.7132Q35.8153,48.7761,35.9955,48.7761L35.9956,48.7761Q36.0318,48.7761,36.0678,48.7735L36.0685,48.7735Q44.9517,48.129400000000004,50.644,46.2274Q57,44.10366,57,40.98768ZM7.81263,46.6759Q14.9674,48.7077,25.4786,48.9996Q25.4925,49,25.5064,49Q25.5841,49,25.661,48.988Q25.7469,48.9745,25.8292,48.9465Q25.9115,48.9184,25.9877,48.8765Q26.0639,48.8347,26.1318,48.7803Q26.1996,48.725899999999996,26.2571,48.6606Q26.3145,48.5954,26.3598,48.521100000000004Q26.4052,48.4469,26.437,48.366Q26.4688,48.2851,26.4862,48.1999Q26.5036,48.1147,26.506,48.0278Q26.5064,48.0139,26.5064,48Q26.5064,47.9899,26.5062,47.9797Q26.5024,47.7933,26.4317,47.6208Q26.361,47.4482,26.2328,47.312799999999996Q26.0961,47.1683,25.9145,47.0871Q25.733,47.0059,25.5341,47.0004Q15.273,46.7155,8.359,44.75195Q5.13795,43.8372,3.43844,42.72647Q1.9999980000000002,41.78636,1.9999980000000002,40.98768Q2,40.115700000000004,3.67962,39.09714Q5.63986,37.9084,9.3012,36.969111L9.30202,36.968901L9.30302,36.968644Q9.49569,36.919224,9.65479,36.799832Q9.81388,36.68044,9.91518,36.509252000000004Q10.05456,36.273702,10.05456,36.00000246296L10.05454,35.9927082Q10.05364,35.870209,10.02321,35.751548Q10.00267,35.67147,9.96926,35.595853Q9.93585,35.520236,9.89047,35.451132Q9.8451,35.382028,9.78899,35.321313Q9.73288,35.260598,9.66757,35.209922Q9.60225,35.159245,9.5295,35.119982Q9.45675,35.080719,9.37854,35.053936Q9.30033,35.027153,9.21878,35.013577Q9.13724,35.000001,9.05457,35.000001Q9.04429,35.000001,9.03402,35.000212Q8.91826,35.00259,8.80611,35.031357Q0,37.29009,0,40.98768Q0,44.45715,7.81263,46.6759Z" fill-rule="evenodd" fill="#000000" fill-opacity="1"/></g><g><path d="M24,52L31,48L24.5,44L25,48L24,52Z" fill="#000000" fill-opacity="1"/></g></g></g></g></g></svg>