<svg xmlns="http://www.w3.org/2000/svg" xmlns:xlink="http://www.w3.org/1999/xlink" fill="none" version="1.1" width="28" height="28" viewBox="0 0 28 28"><g><g><g><rect x="0" y="0" width="28" height="28" rx="0" fill="#D8D8D8" fill-opacity="0"/></g><g><path d="M24.083366984558104,14.000003492279053L24.083366984558104,5.833333492279053Q24.083366984558104,5.759464992279053,24.068966984558106,5.687015492279053Q24.054466984558104,5.614566492279053,24.026266984558106,5.546320492279053Q23.997966984558104,5.478075492279053,23.956966984558104,5.416655492279053Q23.915866984558104,5.355236492279053,23.863666984558105,5.3030034922790525Q23.811466984558106,5.250770492279052,23.749966984558107,5.209731492279053Q23.688566984558104,5.168692492279053,23.620366984558107,5.140423492279052Q23.552066984558106,5.112155492279053,23.479666984558104,5.097744492279053Q23.407166984558106,5.083333492279053,23.333366984558104,5.083333492279053Q23.259466984558106,5.083333492279053,23.186966984558104,5.097744492279053Q23.114566984558106,5.112155492279053,23.046366984558105,5.140423492279052Q22.978066984558104,5.168692492279053,22.916666984558105,5.209731492279053Q22.855266984558106,5.250770492279052,22.802966984558104,5.3030034922790525Q22.750766984558105,5.355236492279053,22.709766984558104,5.416655492279053Q22.668666984558104,5.478075492279053,22.640466984558106,5.546320492279053Q22.612166984558105,5.614566492279053,22.597766984558106,5.687015492279053Q22.583366984558104,5.759464992279053,22.583366984558104,5.833333492279053L22.583366984558104,14.000003492279053Q22.583366984558104,17.555333492279054,20.069366984558105,20.069333492279053Q17.555366984558106,22.583333492279053,13.999996984558106,22.583333492279053Q10.444646984558105,22.583333492279053,7.930656984558105,20.069333492279053Q5.416667984558106,17.555333492279054,5.416667984558106,13.999993492279053L5.4166669845581055,5.833333492279053Q5.4166669845581055,5.759464992279053,5.4022559845581055,5.687015492279053Q5.387844984558106,5.614566492279053,5.359576984558106,5.546320492279053Q5.331307984558105,5.478075492279053,5.2902689845581055,5.416655492279053Q5.249229984558106,5.355236492279053,5.196996984558106,5.3030034922790525Q5.1447639845581055,5.250770492279052,5.083344984558106,5.209731492279053Q5.0219249845581055,5.168692492279053,4.953679984558105,5.140423492279052Q4.885433984558105,5.112155492279053,4.812984984558105,5.097744492279053Q4.740535484558105,5.083333492279053,4.6666669845581055,5.083333492279053Q4.592798484558106,5.083333492279053,4.5203489845581055,5.097744492279053Q4.447899984558106,5.112155492279053,4.3796539845581055,5.140423492279052Q4.311408984558105,5.168692492279053,4.249988984558105,5.209731492279053Q4.1885699845581055,5.250770492279052,4.136336984558105,5.3030034922790525Q4.084103984558105,5.355236492279053,4.0430649845581055,5.416655492279053Q4.002025984558106,5.478075492279053,3.9737569845581056,5.546320492279053Q3.9454889845581054,5.614566492279053,3.9310779845581054,5.687015492279053Q3.9166669845581055,5.759464992279053,3.9166669845581055,5.833333492279053L3.9166679845581056,13.999993492279053Q3.9166679845581056,16.05093349227905,4.709369684558106,17.925133492279052Q5.474790984558106,19.73483349227905,6.869996984558105,21.130033492279054Q8.265216984558105,22.525233492279053,10.074876984558106,23.290633492279053Q11.949046984558105,24.083333492279053,13.999996984558106,24.083333492279053Q16.050966984558105,24.083333492279053,17.925166984558103,23.290633492279053Q19.734766984558107,22.525233492279053,21.129966984558106,21.130033492279054Q22.525166984558105,19.73483349227905,23.290666984558104,17.925133492279052Q24.083366984558104,16.05093349227905,24.083366984558104,14.000003492279053Z" fill-rule="evenodd" fill="#0C0507" fill-opacity="1"/></g><g><path d="M2.3333334922790527,6.583333492279053L25.666633492279054,6.583333492279053Q25.740533492279052,6.583333492279053,25.812933492279054,6.568922492279053Q25.885433492279052,6.554511492279053,25.953633492279053,6.526243492279053Q26.021933492279054,6.497974492279052,26.083333492279053,6.456935492279053Q26.14473349227905,6.415896492279053,26.197033492279054,6.363663492279053Q26.249233492279053,6.311430492279053,26.290233492279054,6.250011492279053Q26.331333492279054,6.188591492279053,26.359533492279052,6.120346492279053Q26.387833492279054,6.0521004922790524,26.402233492279052,5.979651492279053Q26.416633492279054,5.907201992279052,26.416633492279054,5.833333492279053Q26.416633492279054,5.759464992279053,26.402233492279052,5.687015492279053Q26.387833492279054,5.614566492279053,26.359533492279052,5.546320492279053Q26.331333492279054,5.478075492279053,26.290233492279054,5.416655492279053Q26.249233492279053,5.355236492279053,26.197033492279054,5.3030034922790525Q26.14473349227905,5.250770492279052,26.083333492279053,5.209731492279053Q26.021933492279054,5.168692492279053,25.953633492279053,5.140423492279052Q25.885433492279052,5.112155492279053,25.812933492279054,5.097744492279053Q25.740533492279052,5.083333492279053,25.666633492279054,5.083333492279053L2.3333334922790527,5.083333492279053Q2.2594649922790526,5.083333492279053,2.187015492279053,5.097744492279053Q2.1145664922790526,5.112155492279053,2.0463204922790528,5.140423492279052Q1.9780754922790527,5.168692492279053,1.9166554922790526,5.209731492279053Q1.8552364922790527,5.250770492279052,1.8030034922790528,5.3030034922790525Q1.7507704922790528,5.355236492279053,1.7097314922790527,5.416655492279053Q1.6686924922790527,5.478075492279053,1.6404234922790528,5.546320492279053Q1.6121554922790526,5.614566492279053,1.5977444922790527,5.687015492279053Q1.5833334922790527,5.759464992279053,1.5833334922790527,5.833333492279053Q1.5833334922790527,5.907201992279052,1.5977444922790527,5.979651492279053Q1.6121554922790526,6.0521004922790524,1.6404234922790528,6.120346492279053Q1.6686924922790527,6.188591492279053,1.7097314922790527,6.250011492279053Q1.7507704922790528,6.311430492279053,1.8030034922790528,6.363663492279053Q1.8552364922790527,6.415896492279053,1.9166554922790526,6.456935492279053Q1.9780754922790527,6.497974492279052,2.0463204922790528,6.526243492279053Q2.1145664922790526,6.554511492279053,2.187015492279053,6.568922492279053Q2.2594649922790526,6.583333492279053,2.3333334922790527,6.583333492279053Z" fill-rule="evenodd" fill="#0C0507" fill-opacity="1"/></g><g><path d="M10.994798,10.994798Q9.75,12.2396,9.75,14Q9.75,15.7604,10.994798,17.005200000000002Q12.2396,18.25,14,18.25Q15.7604,18.25,17.005200000000002,17.005200000000002Q18.25,15.7604,18.25,14Q18.25,12.2396,17.005200000000002,10.994798Q15.7604,9.75,14,9.75Q12.2396,9.75,10.994798,10.994798ZM12.05546,15.94454Q11.25,15.13908,11.25,14Q11.25,12.86092,12.05546,12.05546Q12.86092,11.25,14,11.25Q15.13908,11.25,15.94454,12.05546Q16.75,12.86092,16.75,14Q16.75,15.13908,15.94454,15.94454Q15.13908,16.75,14,16.75Q12.86092,16.75,12.05546,15.94454Z" fill-rule="evenodd" fill="#0C0507" fill-opacity="1"/></g></g></g></svg>