<svg xmlns="http://www.w3.org/2000/svg" xmlns:xlink="http://www.w3.org/1999/xlink" fill="none" version="1.1" width="24" height="24" viewBox="0 0 24 24"><defs><clipPath id="master_svg0_113_13685"><rect x="0" y="0" width="24" height="24" rx="0"/></clipPath></defs><g><g clip-path="url(#master_svg0_113_13685)"><g><path d="M14.1775,1.470824Q13.1047,1.25,12,1.25Q7.5472,1.2500010000000001,4.3986,4.3986Q1.25,7.5472,1.25,12Q1.25,16.4528,4.3986,19.6014Q7.5472,22.75,12,22.75Q16.4528,22.75,19.6014,19.6014Q22.75,16.4528,22.75,12Q22.75,10.8953,22.5291,9.82243Q22.508,9.71959,22.4594,9.62651Q22.4108,9.533439999999999,22.3385,9.45729Q22.2662,9.38114,22.1758,9.32776Q22.0854,9.27439,21.9838,9.247910000000001Q21.8394,9.210270000000001,21.6916,9.23075Q21.5438,9.25122,21.4152,9.32669Q21.2865,9.402149999999999,21.1965,9.52112Q21.1064,9.64009,21.0688,9.78445Q20.5922,11.61277,19.0949,12.7856Q17.5738,13.9772,15.6363,13.9772Q13.3111,13.9772,11.66692,12.3331Q10.02275,10.6889,10.02275,8.36365Q10.02275,6.42619,11.21435,4.905060000000001Q12.3872,3.40785,14.2156,2.931165Q14.3172,2.904675,14.4076,2.851302Q14.498,2.7979279999999997,14.5703,2.721775Q14.6426,2.6456210000000002,14.6912,2.552544Q14.7398,2.459467,14.761,2.356623Q14.791,2.210502,14.7629,2.0639941Q14.7348,1.9174864,14.6527,1.792897Q14.5706,1.668307,14.4472,1.584603Q14.3237,1.500899,14.1775,1.470824ZM11.21462,2.779347Q7.88655,3.0319700000000003,5.4592600000000004,5.4592600000000004Q2.75,8.168520000000001,2.75,12Q2.75,15.8315,5.4592600000000004,18.5407Q8.168520000000001,21.25,12,21.25Q15.8315,21.25,18.5407,18.5407Q20.968,16.1134,21.2207,12.7854Q20.7045,13.4302,20.02,13.9665Q18.0914,15.4772,15.6363,15.4772Q12.6898,15.4772,10.60626,13.3937Q8.52275,11.31022,8.52275,8.36365Q8.52275,5.90862,10.03353,3.98004Q10.56977,3.29552,11.21462,2.779347Z" fill-rule="evenodd" fill="#232D42" fill-opacity="1" style="mix-blend-mode:passthrough"/></g></g></g></svg>