<svg xmlns="http://www.w3.org/2000/svg" xmlns:xlink="http://www.w3.org/1999/xlink" fill="none" version="1.1" width="20" height="20" viewBox="0 0 20 20"><defs><clipPath id="master_svg0_63_64412"><rect x="0" y="0" width="20" height="20" rx="0"/></clipPath></defs><g clip-path="url(#master_svg0_63_64412)"><g><path d="M12.5,1.75L16.5,1.75Q17.22487,1.75,17.73744,2.262563Q18.25,2.775126,18.25,3.5L18.25,7.5Q18.25,7.57387,18.235590000000002,7.64632Q18.22118,7.71877,18.19291,7.78701Q18.16464,7.85526,18.1236,7.91668Q18.08256,7.9781,18.03033,8.03033Q17.9781,8.08256,17.91668,8.1236Q17.85526,8.16464,17.787010000000002,8.192910000000001Q17.71877,8.22118,17.64632,8.23559Q17.57387,8.25,17.5,8.25Q17.42613,8.25,17.35368,8.23559Q17.28123,8.22118,17.212989999999998,8.192910000000001Q17.14474,8.16464,17.08332,8.1236Q17.0219,8.08256,16.96967,8.03033Q16.91744,7.9781,16.8764,7.91668Q16.83536,7.85526,16.80709,7.78701Q16.77882,7.71877,16.764409999999998,7.64632Q16.75,7.57387,16.75,7.5L16.75,3.5Q16.75,3.396447,16.67678,3.3232239999999997Q16.60355,3.25,16.5,3.25L12.5,3.25Q12.4261315,3.25,12.353682,3.235589Q12.281233,3.221178,12.212987,3.19291Q12.144742,3.164641,12.083322,3.123602Q12.021903,3.082563,11.96967,3.03033Q11.917437,2.978097,11.876398,2.916678Q11.835359,2.855258,11.80709,2.787013Q11.778822,2.718767,11.764410999999999,2.646318Q11.75,2.5738685,11.75,2.5Q11.75,2.4261315,11.764410999999999,2.353682Q11.778822,2.281233,11.80709,2.212987Q11.835359,2.144742,11.876398,2.083322Q11.917437,2.021903,11.96967,1.96967Q12.021903,1.917437,12.083322,1.876398Q12.144742,1.835359,12.212987,1.80709Q12.281233,1.778822,12.353682,1.764411Q12.4261315,1.75,12.5,1.75Z" fill-rule="evenodd" fill="#FFFFFF" fill-opacity="1"/></g><g><path d="M2.25,4L2.25,8Q2.25,8.07387,2.264411,8.14632Q2.278822,8.21877,2.30709,8.28701Q2.335359,8.355260000000001,2.376398,8.41668Q2.417437,8.478100000000001,2.46967,8.53033Q2.521903,8.58256,2.583322,8.6236Q2.644742,8.66464,2.712987,8.692910000000001Q2.781233,8.72118,2.853682,8.73559Q2.9261315,8.75,3,8.75Q3.0738685,8.75,3.146318,8.73559Q3.218767,8.72118,3.287013,8.692910000000001Q3.355258,8.66464,3.416678,8.6236Q3.478097,8.58256,3.53033,8.53033Q3.582563,8.478100000000001,3.623602,8.41668Q3.664641,8.355260000000001,3.69291,8.28701Q3.721178,8.21877,3.735589,8.14632Q3.75,8.07387,3.75,8L3.75,4Q3.75,3.896447,3.823223,3.823223Q3.896447,3.75,4,3.75L8,3.75Q8.07387,3.75,8.14632,3.735589Q8.21877,3.721178,8.28701,3.69291Q8.355260000000001,3.664641,8.41668,3.623602Q8.478100000000001,3.582563,8.53033,3.53033Q8.58256,3.478097,8.6236,3.416678Q8.66464,3.355258,8.692910000000001,3.287013Q8.72118,3.218767,8.73559,3.146318Q8.75,3.0738685,8.75,3Q8.75,2.9261315,8.73559,2.853682Q8.72118,2.781233,8.692910000000001,2.712987Q8.66464,2.644742,8.6236,2.583322Q8.58256,2.521903,8.53033,2.46967Q8.478100000000001,2.417437,8.41668,2.376398Q8.355260000000001,2.335359,8.28701,2.30709Q8.21877,2.278822,8.14632,2.264411Q8.07387,2.25,8,2.25L4,2.25Q3.275126,2.25,2.762563,2.762563Q2.25,3.275126,2.25,4Z" fill-rule="evenodd" fill="#FFFFFF" fill-opacity="1"/></g><g transform="matrix(1,0,0,-1,0,34)"><path d="M2.25,18L2.25,28Q2.25,28.073900000000002,2.264411,28.1463Q2.278822,28.2188,2.30709,28.287Q2.335359,28.3553,2.376398,28.4167Q2.417437,28.478099999999998,2.46967,28.5303Q2.521903,28.5826,2.583322,28.6236Q2.644742,28.6646,2.712987,28.6929Q2.781233,28.7212,2.853682,28.735599999999998Q2.9261315,28.75,3,28.75Q3.0738685,28.75,3.146318,28.735599999999998Q3.218767,28.7212,3.287013,28.6929Q3.355258,28.6646,3.416678,28.6236Q3.478097,28.5826,3.53033,28.5303Q3.582563,28.478099999999998,3.623602,28.4167Q3.664641,28.3553,3.69291,28.287Q3.721178,28.2188,3.735589,28.1463Q3.75,28.073900000000002,3.75,28L3.75,18Q3.75,17.75,4,17.75L15,17.75Q15.0739,17.75,15.1463,17.735589Q15.2188,17.721178,15.287,17.69291Q15.3553,17.664641,15.4167,17.623601999999998Q15.4781,17.582563,15.5303,17.53033Q15.5826,17.478096999999998,15.6236,17.416678Q15.6646,17.355258,15.6929,17.287013Q15.7212,17.218767,15.7356,17.146318Q15.75,17.0738685,15.75,17Q15.75,16.9261315,15.7356,16.853682Q15.7212,16.781233,15.6929,16.712987Q15.6646,16.644742,15.6236,16.583322Q15.5826,16.521903000000002,15.5303,16.46967Q15.4781,16.417437,15.4167,16.376398000000002Q15.3553,16.335359,15.287,16.30709Q15.2188,16.278822,15.1463,16.264411Q15.0739,16.25,15,16.25L4,16.25Q3.275126,16.25,2.762563,16.762563Q2.25,17.275126,2.25,18Z" fill-rule="evenodd" fill="#FFFFFF" fill-opacity="1"/></g><g><path d="M17.25,12Q17.25,11.9261315,17.264409999999998,11.853682Q17.27882,11.781233,17.30709,11.712987Q17.33536,11.644742,17.3764,11.583322Q17.41744,11.521903,17.46967,11.46967Q17.5219,11.417437,17.58332,11.376398Q17.64474,11.335359,17.712989999999998,11.30709Q17.78123,11.278822,17.85368,11.264410999999999Q17.92613,11.25,18,11.25Q18.07387,11.25,18.14632,11.264410999999999Q18.21877,11.278822,18.287010000000002,11.30709Q18.35526,11.335359,18.41668,11.376398Q18.4781,11.417437,18.53033,11.46967Q18.58256,11.521903,18.6236,11.583322Q18.66464,11.644742,18.69291,11.712987Q18.72118,11.781233,18.735590000000002,11.853682Q18.75,11.9261315,18.75,12L18.75,16Q18.75,16.72487,18.23744,17.23744Q17.72487,17.75,17,17.75L13,17.75Q12.9261315,17.75,12.853682,17.735590000000002Q12.781233,17.72118,12.712987,17.69291Q12.644742,17.66464,12.583322,17.6236Q12.521903,17.58256,12.46967,17.53033Q12.417437,17.4781,12.376398,17.41668Q12.335359,17.35526,12.30709,17.287010000000002Q12.278822,17.21877,12.264410999999999,17.14632Q12.25,17.07387,12.25,17Q12.25,16.92613,12.264410999999999,16.85368Q12.278822,16.78123,12.30709,16.712989999999998Q12.335359,16.64474,12.376398,16.58332Q12.417437,16.5219,12.46967,16.46967Q12.521903,16.41744,12.583322,16.3764Q12.644742,16.33536,12.712987,16.30709Q12.781233,16.27882,12.853682,16.264409999999998Q12.9261315,16.25,13,16.25L17,16.25Q17.25,16.25,17.25,16L17.25,12Z" fill-rule="evenodd" fill="#FFFFFF" fill-opacity="1"/></g><g><path d="M17.5301198828125,3.5302079296875Q17.6356098828125,3.4247179296875,17.692699882812498,3.2868899296875Q17.7497898828125,3.1490619296875,17.7497898828125,2.9998779296875Q17.7497898828125,2.9260094296875,17.735379882812502,2.8535599296875Q17.7209598828125,2.7811109296875,17.692699882812498,2.7128649296875Q17.6644298828125,2.6446199296875,17.6233898828125,2.5831999296875Q17.5823498828125,2.5217809296875,17.5301198828125,2.4695479296875Q17.477879882812502,2.4173149296875,17.4164598828125,2.3762759296875Q17.3550398828125,2.3352369296875,17.2867998828125,2.3069679296875Q17.2185498828125,2.2786999296875,17.1460998828125,2.2642889296875Q17.0736498828125,2.2498779296875,16.9997898828125,2.2498779296875Q16.8505998828125,2.2498779296875,16.712769882812502,2.3069679296875Q16.5749498828125,2.3640589296875,16.4694598828125,2.4695479296875L16.4689898828125,2.4700109296875L11.5527988828125,7.3862179296875Q11.4473098828125,7.4917079296875,11.3902198828125,7.6295279296875Q11.3331298828125,7.7673579296875,11.3331298828125,7.9165479296875Q11.3331298828125,7.9904179296875,11.347540882812499,8.0628579296875Q11.3619518828125,8.1353079296875,11.3902198828125,8.2035579296875Q11.4184888828125,8.2717979296875,11.4595278828125,8.3332179296875Q11.5005668828125,8.3946379296875,11.5527998828125,8.4468779296875Q11.6050328828125,8.4991079296875,11.6664518828125,8.5401479296875Q11.7278718828125,8.5811879296875,11.7961168828125,8.609457929687501Q11.8643628828125,8.6377179296875,11.9368118828125,8.6521379296875Q12.0092613828125,8.6665479296875,12.0831298828125,8.6665479296875Q12.2323138828125,8.6665479296875,12.3701428828125,8.609457929687501Q12.5079708828125,8.552367929687499,12.6134608828125,8.4468779296875L17.5301198828125,3.5302079296875L17.5301198828125,3.5302079296875Z" fill-rule="evenodd" fill="#FFFFFF" fill-opacity="1"/></g></g></svg>