<svg xmlns="http://www.w3.org/2000/svg" xmlns:xlink="http://www.w3.org/1999/xlink" fill="none" version="1.1" width="24" height="24" viewBox="0 0 24 24"><defs><clipPath id="master_svg0_112_01001"><rect x="0" y="0" width="24" height="24" rx="0"/></clipPath></defs><g clip-path="url(#master_svg0_112_01001)"><g><path d="M2.5,21.75L5,21.75Q5.073869999999999,21.75,5.146319999999999,21.735589Q5.21877,21.721178,5.28701,21.69291Q5.3552599999999995,21.664641,5.4166799999999995,21.623601999999998Q5.4780999999999995,21.582563,5.53033,21.53033Q5.58256,21.478096999999998,5.6236,21.416678Q5.66464,21.355258,5.6929099999999995,21.287013Q5.72118,21.218767,5.73559,21.146318Q5.75,21.0738685,5.75,21Q5.75,20.9261315,5.73559,20.853682Q5.72118,20.781233,5.6929099999999995,20.712987Q5.66464,20.644742,5.6236,20.583322Q5.58256,20.521903000000002,5.53033,20.46967Q5.4780999999999995,20.417437,5.4166799999999995,20.376398000000002Q5.3552599999999995,20.335359,5.28701,20.30709Q5.21877,20.278822,5.146319999999999,20.264411Q5.073869999999999,20.25,5,20.25L2.5,20.25Q2.4261315,20.25,2.353682,20.264411Q2.281233,20.278822,2.212987,20.30709Q2.144742,20.335359,2.083322,20.376398000000002Q2.021903,20.417437,1.96967,20.46967Q1.917437,20.521903000000002,1.876398,20.583322Q1.835359,20.644742,1.80709,20.712987Q1.778822,20.781233,1.764411,20.853682Q1.75,20.9261315,1.75,21Q1.75,21.0738685,1.764411,21.146318Q1.778822,21.218767,1.80709,21.287013Q1.835359,21.355258,1.876398,21.416678Q1.917437,21.478096999999998,1.96967,21.53033Q2.021903,21.582563,2.083322,21.623601999999998Q2.144742,21.664641,2.212987,21.69291Q2.281233,21.721178,2.353682,21.735589Q2.4261315,21.75,2.5,21.75Z" fill-rule="evenodd" fill="#333333" fill-opacity="1"/></g><g><path d="M2.5,18.75L5,18.75Q5.073869999999999,18.75,5.146319999999999,18.735589Q5.21877,18.721178,5.28701,18.69291Q5.3552599999999995,18.664641,5.4166799999999995,18.623601999999998Q5.4780999999999995,18.582563,5.53033,18.53033Q5.58256,18.478096999999998,5.6236,18.416678Q5.66464,18.355258,5.6929099999999995,18.287013Q5.72118,18.218767,5.73559,18.146318Q5.75,18.0738685,5.75,18Q5.75,17.9261315,5.73559,17.853682Q5.72118,17.781233,5.6929099999999995,17.712987Q5.66464,17.644742,5.6236,17.583322Q5.58256,17.521903000000002,5.53033,17.46967Q5.4780999999999995,17.417437,5.4166799999999995,17.376398000000002Q5.3552599999999995,17.335359,5.28701,17.30709Q5.21877,17.278822,5.146319999999999,17.264411Q5.073869999999999,17.25,5,17.25L2.5,17.25Q2.4261315,17.25,2.353682,17.264411Q2.281233,17.278822,2.212987,17.30709Q2.144742,17.335359,2.083322,17.376398000000002Q2.021903,17.417437,1.96967,17.46967Q1.917437,17.521903000000002,1.876398,17.583322Q1.835359,17.644742,1.80709,17.712987Q1.778822,17.781233,1.764411,17.853682Q1.75,17.9261315,1.75,18Q1.75,18.0738685,1.764411,18.146318Q1.778822,18.218767,1.80709,18.287013Q1.835359,18.355258,1.876398,18.416678Q1.917437,18.478096999999998,1.96967,18.53033Q2.021903,18.582563,2.083322,18.623601999999998Q2.144742,18.664641,2.212987,18.69291Q2.281233,18.721178,2.353682,18.735589Q2.4261315,18.75,2.5,18.75Z" fill-rule="evenodd" fill="#333333" fill-opacity="1"/></g><g><path d="M2.5,15.75L5,15.75Q5.073869999999999,15.75,5.146319999999999,15.735589000000001Q5.21877,15.721178,5.28701,15.69291Q5.3552599999999995,15.664641,5.4166799999999995,15.623602Q5.4780999999999995,15.582563,5.53033,15.53033Q5.58256,15.478097,5.6236,15.416678Q5.66464,15.355258,5.6929099999999995,15.287013Q5.72118,15.218767,5.73559,15.146318Q5.75,15.0738685,5.75,15Q5.75,14.9261315,5.73559,14.853682Q5.72118,14.781233,5.6929099999999995,14.712987Q5.66464,14.644742,5.6236,14.583322Q5.58256,14.521903,5.53033,14.46967Q5.4780999999999995,14.417437,5.4166799999999995,14.376398Q5.3552599999999995,14.335359,5.28701,14.30709Q5.21877,14.278822,5.146319999999999,14.264410999999999Q5.073869999999999,14.25,5,14.25L2.5,14.25Q2.4261315,14.25,2.353682,14.264410999999999Q2.281233,14.278822,2.212987,14.30709Q2.144742,14.335359,2.083322,14.376398Q2.021903,14.417437,1.96967,14.46967Q1.917437,14.521903,1.876398,14.583322Q1.835359,14.644742,1.80709,14.712987Q1.778822,14.781233,1.764411,14.853682Q1.75,14.9261315,1.75,15Q1.75,15.0738685,1.764411,15.146318Q1.778822,15.218767,1.80709,15.287013Q1.835359,15.355258,1.876398,15.416678Q1.917437,15.478097,1.96967,15.53033Q2.021903,15.582563,2.083322,15.623602Q2.144742,15.664641,2.212987,15.69291Q2.281233,15.721178,2.353682,15.735589000000001Q2.4261315,15.75,2.5,15.75Z" fill-rule="evenodd" fill="#333333" fill-opacity="1"/></g><g><path d="M2.5,12.75L5,12.75Q5.073869999999999,12.75,5.146319999999999,12.735589000000001Q5.21877,12.721178,5.28701,12.69291Q5.3552599999999995,12.664641,5.4166799999999995,12.623602Q5.4780999999999995,12.582563,5.53033,12.53033Q5.58256,12.478097,5.6236,12.416678Q5.66464,12.355258,5.6929099999999995,12.287013Q5.72118,12.218767,5.73559,12.146318Q5.75,12.0738685,5.75,12Q5.75,11.9261315,5.73559,11.853682Q5.72118,11.781233,5.6929099999999995,11.712987Q5.66464,11.644742,5.6236,11.583322Q5.58256,11.521903,5.53033,11.46967Q5.4780999999999995,11.417437,5.4166799999999995,11.376398Q5.3552599999999995,11.335359,5.28701,11.30709Q5.21877,11.278822,5.146319999999999,11.264410999999999Q5.073869999999999,11.25,5,11.25L2.5,11.25Q2.4261315,11.25,2.353682,11.264410999999999Q2.281233,11.278822,2.212987,11.30709Q2.144742,11.335359,2.083322,11.376398Q2.021903,11.417437,1.96967,11.46967Q1.917437,11.521903,1.876398,11.583322Q1.835359,11.644742,1.80709,11.712987Q1.778822,11.781233,1.764411,11.853682Q1.75,11.9261315,1.75,12Q1.75,12.0738685,1.764411,12.146318Q1.778822,12.218767,1.80709,12.287013Q1.835359,12.355258,1.876398,12.416678Q1.917437,12.478097,1.96967,12.53033Q2.021903,12.582563,2.083322,12.623602Q2.144742,12.664641,2.212987,12.69291Q2.281233,12.721178,2.353682,12.735589000000001Q2.4261315,12.75,2.5,12.75Z" fill-rule="evenodd" fill="#333333" fill-opacity="1"/></g><g><path d="M8,21.75L10.5,21.75Q10.57387,21.75,10.64632,21.735589Q10.71877,21.721178,10.78701,21.69291Q10.85526,21.664641,10.91668,21.623601999999998Q10.9781,21.582563,11.03033,21.53033Q11.08256,21.478096999999998,11.1236,21.416678Q11.16464,21.355258,11.19291,21.287013Q11.22118,21.218767,11.23559,21.146318Q11.25,21.0738685,11.25,21Q11.25,20.9261315,11.23559,20.853682Q11.22118,20.781233,11.19291,20.712987Q11.16464,20.644742,11.1236,20.583322Q11.08256,20.521903000000002,11.03033,20.46967Q10.9781,20.417437,10.91668,20.376398000000002Q10.85526,20.335359,10.78701,20.30709Q10.71877,20.278822,10.64632,20.264411Q10.57387,20.25,10.5,20.25L8,20.25Q7.9261315,20.25,7.853682,20.264411Q7.781233,20.278822,7.712987,20.30709Q7.644742,20.335359,7.583322,20.376398000000002Q7.521903,20.417437,7.46967,20.46967Q7.417437,20.521903000000002,7.376398,20.583322Q7.335359,20.644742,7.30709,20.712987Q7.278822,20.781233,7.264411,20.853682Q7.25,20.9261315,7.25,21Q7.25,21.0738685,7.264411,21.146318Q7.278822,21.218767,7.30709,21.287013Q7.335359,21.355258,7.376398,21.416678Q7.417437,21.478096999999998,7.46967,21.53033Q7.521903,21.582563,7.583322,21.623601999999998Q7.644742,21.664641,7.712987,21.69291Q7.781233,21.721178,7.853682,21.735589Q7.9261315,21.75,8,21.75Z" fill-rule="evenodd" fill="#333333" fill-opacity="1"/></g><g><path d="M8,18.75L10.5,18.75Q10.57387,18.75,10.64632,18.735589Q10.71877,18.721178,10.78701,18.69291Q10.85526,18.664641,10.91668,18.623601999999998Q10.9781,18.582563,11.03033,18.53033Q11.08256,18.478096999999998,11.1236,18.416678Q11.16464,18.355258,11.19291,18.287013Q11.22118,18.218767,11.23559,18.146318Q11.25,18.0738685,11.25,18Q11.25,17.9261315,11.23559,17.853682Q11.22118,17.781233,11.19291,17.712987Q11.16464,17.644742,11.1236,17.583322Q11.08256,17.521903000000002,11.03033,17.46967Q10.9781,17.417437,10.91668,17.376398000000002Q10.85526,17.335359,10.78701,17.30709Q10.71877,17.278822,10.64632,17.264411Q10.57387,17.25,10.5,17.25L8,17.25Q7.9261315,17.25,7.853682,17.264411Q7.781233,17.278822,7.712987,17.30709Q7.644742,17.335359,7.583322,17.376398000000002Q7.521903,17.417437,7.46967,17.46967Q7.417437,17.521903000000002,7.376398,17.583322Q7.335359,17.644742,7.30709,17.712987Q7.278822,17.781233,7.264411,17.853682Q7.25,17.9261315,7.25,18Q7.25,18.0738685,7.264411,18.146318Q7.278822,18.218767,7.30709,18.287013Q7.335359,18.355258,7.376398,18.416678Q7.417437,18.478096999999998,7.46967,18.53033Q7.521903,18.582563,7.583322,18.623601999999998Q7.644742,18.664641,7.712987,18.69291Q7.781233,18.721178,7.853682,18.735589Q7.9261315,18.75,8,18.75Z" fill-rule="evenodd" fill="#333333" fill-opacity="1"/></g><g><path d="M8,15.75L10.5,15.75Q10.57387,15.75,10.64632,15.735589000000001Q10.71877,15.721178,10.78701,15.69291Q10.85526,15.664641,10.91668,15.623602Q10.9781,15.582563,11.03033,15.53033Q11.08256,15.478097,11.1236,15.416678Q11.16464,15.355258,11.19291,15.287013Q11.22118,15.218767,11.23559,15.146318Q11.25,15.0738685,11.25,15Q11.25,14.9261315,11.23559,14.853682Q11.22118,14.781233,11.19291,14.712987Q11.16464,14.644742,11.1236,14.583322Q11.08256,14.521903,11.03033,14.46967Q10.9781,14.417437,10.91668,14.376398Q10.85526,14.335359,10.78701,14.30709Q10.71877,14.278822,10.64632,14.264410999999999Q10.57387,14.25,10.5,14.25L8,14.25Q7.9261315,14.25,7.853682,14.264410999999999Q7.781233,14.278822,7.712987,14.30709Q7.644742,14.335359,7.583322,14.376398Q7.521903,14.417437,7.46967,14.46967Q7.417437,14.521903,7.376398,14.583322Q7.335359,14.644742,7.30709,14.712987Q7.278822,14.781233,7.264411,14.853682Q7.25,14.9261315,7.25,15Q7.25,15.0738685,7.264411,15.146318Q7.278822,15.218767,7.30709,15.287013Q7.335359,15.355258,7.376398,15.416678Q7.417437,15.478097,7.46967,15.53033Q7.521903,15.582563,7.583322,15.623602Q7.644742,15.664641,7.712987,15.69291Q7.781233,15.721178,7.853682,15.735589000000001Q7.9261315,15.75,8,15.75Z" fill-rule="evenodd" fill="#333333" fill-opacity="1"/></g><g><path d="M8,12.75L10.5,12.75Q10.57387,12.75,10.64632,12.735589000000001Q10.71877,12.721178,10.78701,12.69291Q10.85526,12.664641,10.91668,12.623602Q10.9781,12.582563,11.03033,12.53033Q11.08256,12.478097,11.1236,12.416678Q11.16464,12.355258,11.19291,12.287013Q11.22118,12.218767,11.23559,12.146318Q11.25,12.0738685,11.25,12Q11.25,11.9261315,11.23559,11.853682Q11.22118,11.781233,11.19291,11.712987Q11.16464,11.644742,11.1236,11.583322Q11.08256,11.521903,11.03033,11.46967Q10.9781,11.417437,10.91668,11.376398Q10.85526,11.335359,10.78701,11.30709Q10.71877,11.278822,10.64632,11.264410999999999Q10.57387,11.25,10.5,11.25L8,11.25Q7.9261315,11.25,7.853682,11.264410999999999Q7.781233,11.278822,7.712987,11.30709Q7.644742,11.335359,7.583322,11.376398Q7.521903,11.417437,7.46967,11.46967Q7.417437,11.521903,7.376398,11.583322Q7.335359,11.644742,7.30709,11.712987Q7.278822,11.781233,7.264411,11.853682Q7.25,11.9261315,7.25,12Q7.25,12.0738685,7.264411,12.146318Q7.278822,12.218767,7.30709,12.287013Q7.335359,12.355258,7.376398,12.416678Q7.417437,12.478097,7.46967,12.53033Q7.521903,12.582563,7.583322,12.623602Q7.644742,12.664641,7.712987,12.69291Q7.781233,12.721178,7.853682,12.735589000000001Q7.9261315,12.75,8,12.75Z" fill-rule="evenodd" fill="#333333" fill-opacity="1"/></g><g><path d="M8,9.75L10.5,9.75Q10.57387,9.75,10.64632,9.735589000000001Q10.71877,9.721178,10.78701,9.69291Q10.85526,9.664641,10.91668,9.623602Q10.9781,9.582563,11.03033,9.53033Q11.08256,9.478097,11.1236,9.416678Q11.16464,9.355258,11.19291,9.287013Q11.22118,9.218767,11.23559,9.146318Q11.25,9.0738685,11.25,9Q11.25,8.9261315,11.23559,8.853682Q11.22118,8.781233,11.19291,8.712987Q11.16464,8.644742,11.1236,8.583322Q11.08256,8.521903,11.03033,8.46967Q10.9781,8.417437,10.91668,8.376398Q10.85526,8.335359,10.78701,8.30709Q10.71877,8.278822,10.64632,8.264410999999999Q10.57387,8.25,10.5,8.25L8,8.25Q7.9261315,8.25,7.853682,8.264410999999999Q7.781233,8.278822,7.712987,8.30709Q7.644742,8.335359,7.583322,8.376398Q7.521903,8.417437,7.46967,8.46967Q7.417437,8.521903,7.376398,8.583322Q7.335359,8.644742,7.30709,8.712987Q7.278822,8.781233,7.264411,8.853682Q7.25,8.9261315,7.25,9Q7.25,9.0738685,7.264411,9.146318Q7.278822,9.218767,7.30709,9.287013Q7.335359,9.355258,7.376398,9.416678Q7.417437,9.478097,7.46967,9.53033Q7.521903,9.582563,7.583322,9.623602Q7.644742,9.664641,7.712987,9.69291Q7.781233,9.721178,7.853682,9.735589000000001Q7.9261315,9.75,8,9.75Z" fill-rule="evenodd" fill="#333333" fill-opacity="1"/></g><g><path d="M8,6.75L10.5,6.75Q10.57387,6.75,10.64632,6.735589Q10.71877,6.721178,10.78701,6.69291Q10.85526,6.664641,10.91668,6.623602Q10.9781,6.582563,11.03033,6.53033Q11.08256,6.478097,11.1236,6.416678Q11.16464,6.355258,11.19291,6.287013Q11.22118,6.218767,11.23559,6.146318Q11.25,6.0738685,11.25,6Q11.25,5.9261315,11.23559,5.853682Q11.22118,5.781233,11.19291,5.712987Q11.16464,5.644742,11.1236,5.583322Q11.08256,5.521903,11.03033,5.46967Q10.9781,5.417437,10.91668,5.376398Q10.85526,5.335359,10.78701,5.30709Q10.71877,5.278822,10.64632,5.264411Q10.57387,5.25,10.5,5.25L8,5.25Q7.9261315,5.25,7.853682,5.264411Q7.781233,5.278822,7.712987,5.30709Q7.644742,5.335359,7.583322,5.376398Q7.521903,5.417437,7.46967,5.46967Q7.417437,5.521903,7.376398,5.583322Q7.335359,5.644742,7.30709,5.712987Q7.278822,5.781233,7.264411,5.853682Q7.25,5.9261315,7.25,6Q7.25,6.0738685,7.264411,6.146318Q7.278822,6.218767,7.30709,6.287013Q7.335359,6.355258,7.376398,6.416678Q7.417437,6.478097,7.46967,6.53033Q7.521903,6.582563,7.583322,6.623602Q7.644742,6.664641,7.712987,6.69291Q7.781233,6.721178,7.853682,6.735589Q7.9261315,6.75,8,6.75Z" fill-rule="evenodd" fill="#333333" fill-opacity="1"/></g><g><path d="M8,3.75L10.5,3.75Q10.57387,3.75,10.64632,3.735589Q10.71877,3.721178,10.78701,3.69291Q10.85526,3.664641,10.91668,3.623602Q10.9781,3.582563,11.03033,3.53033Q11.08256,3.478097,11.1236,3.416678Q11.16464,3.355258,11.19291,3.287013Q11.22118,3.218767,11.23559,3.146318Q11.25,3.0738685,11.25,3Q11.25,2.9261315,11.23559,2.853682Q11.22118,2.781233,11.19291,2.712987Q11.16464,2.644742,11.1236,2.583322Q11.08256,2.521903,11.03033,2.46967Q10.9781,2.417437,10.91668,2.376398Q10.85526,2.335359,10.78701,2.30709Q10.71877,2.278822,10.64632,2.264411Q10.57387,2.25,10.5,2.25L8,2.25Q7.9261315,2.25,7.853682,2.264411Q7.781233,2.278822,7.712987,2.30709Q7.644742,2.335359,7.583322,2.376398Q7.521903,2.417437,7.46967,2.46967Q7.417437,2.521903,7.376398,2.583322Q7.335359,2.644742,7.30709,2.712987Q7.278822,2.781233,7.264411,2.853682Q7.25,2.9261315,7.25,3Q7.25,3.0738685,7.264411,3.146318Q7.278822,3.218767,7.30709,3.287013Q7.335359,3.355258,7.376398,3.416678Q7.417437,3.478097,7.46967,3.53033Q7.521903,3.582563,7.583322,3.623602Q7.644742,3.664641,7.712987,3.69291Q7.781233,3.721178,7.853682,3.735589Q7.9261315,3.75,8,3.75Z" fill-rule="evenodd" fill="#333333" fill-opacity="1"/></g><g><path d="M13.5,21.75L16,21.75Q16.07387,21.75,16.14632,21.735589Q16.21877,21.721178,16.28701,21.69291Q16.35526,21.664641,16.41668,21.623601999999998Q16.4781,21.582563,16.53033,21.53033Q16.58256,21.478096999999998,16.6236,21.416678Q16.66464,21.355258,16.69291,21.287013Q16.72118,21.218767,16.735590000000002,21.146318Q16.75,21.0738685,16.75,21Q16.75,20.9261315,16.735590000000002,20.853682Q16.72118,20.781233,16.69291,20.712987Q16.66464,20.644742,16.6236,20.583322Q16.58256,20.521903000000002,16.53033,20.46967Q16.4781,20.417437,16.41668,20.376398000000002Q16.35526,20.335359,16.28701,20.30709Q16.21877,20.278822,16.14632,20.264411Q16.07387,20.25,16,20.25L13.5,20.25Q13.4261315,20.25,13.353682,20.264411Q13.281233,20.278822,13.212987,20.30709Q13.144742,20.335359,13.083322,20.376398000000002Q13.021903,20.417437,12.96967,20.46967Q12.917437,20.521903000000002,12.876398,20.583322Q12.835359,20.644742,12.80709,20.712987Q12.778822,20.781233,12.764410999999999,20.853682Q12.75,20.9261315,12.75,21Q12.75,21.0738685,12.764410999999999,21.146318Q12.778822,21.218767,12.80709,21.287013Q12.835359,21.355258,12.876398,21.416678Q12.917437,21.478096999999998,12.96967,21.53033Q13.021903,21.582563,13.083322,21.623601999999998Q13.144742,21.664641,13.212987,21.69291Q13.281233,21.721178,13.353682,21.735589Q13.4261315,21.75,13.5,21.75Z" fill-rule="evenodd" fill="#333333" fill-opacity="1"/></g><g><path d="M19,21.75L21.5,21.75Q21.57387,21.75,21.64632,21.735589Q21.71877,21.721178,21.78701,21.69291Q21.85526,21.664641,21.91668,21.623601999999998Q21.9781,21.582563,22.03033,21.53033Q22.08256,21.478096999999998,22.1236,21.416678Q22.16464,21.355258,22.19291,21.287013Q22.22118,21.218767,22.235590000000002,21.146318Q22.25,21.0738685,22.25,21Q22.25,20.9261315,22.235590000000002,20.853682Q22.22118,20.781233,22.19291,20.712987Q22.16464,20.644742,22.1236,20.583322Q22.08256,20.521903000000002,22.03033,20.46967Q21.9781,20.417437,21.91668,20.376398000000002Q21.85526,20.335359,21.78701,20.30709Q21.71877,20.278822,21.64632,20.264411Q21.57387,20.25,21.5,20.25L19,20.25Q18.9261315,20.25,18.853682,20.264411Q18.781233,20.278822,18.712987,20.30709Q18.644742,20.335359,18.583322,20.376398000000002Q18.521903000000002,20.417437,18.46967,20.46967Q18.417437,20.521903000000002,18.376398000000002,20.583322Q18.335359,20.644742,18.30709,20.712987Q18.278822,20.781233,18.264411,20.853682Q18.25,20.9261315,18.25,21Q18.25,21.0738685,18.264411,21.146318Q18.278822,21.218767,18.30709,21.287013Q18.335359,21.355258,18.376398000000002,21.416678Q18.417437,21.478096999999998,18.46967,21.53033Q18.521903000000002,21.582563,18.583322,21.623601999999998Q18.644742,21.664641,18.712987,21.69291Q18.781233,21.721178,18.853682,21.735589Q18.9261315,21.75,19,21.75Z" fill-rule="evenodd" fill="#333333" fill-opacity="1"/></g><g><path d="M13.5,18.75L16,18.75Q16.07387,18.75,16.14632,18.735589Q16.21877,18.721178,16.28701,18.69291Q16.35526,18.664641,16.41668,18.623601999999998Q16.4781,18.582563,16.53033,18.53033Q16.58256,18.478096999999998,16.6236,18.416678Q16.66464,18.355258,16.69291,18.287013Q16.72118,18.218767,16.735590000000002,18.146318Q16.75,18.0738685,16.75,18Q16.75,17.9261315,16.735590000000002,17.853682Q16.72118,17.781233,16.69291,17.712987Q16.66464,17.644742,16.6236,17.583322Q16.58256,17.521903000000002,16.53033,17.46967Q16.4781,17.417437,16.41668,17.376398000000002Q16.35526,17.335359,16.28701,17.30709Q16.21877,17.278822,16.14632,17.264411Q16.07387,17.25,16,17.25L13.5,17.25Q13.4261315,17.25,13.353682,17.264411Q13.281233,17.278822,13.212987,17.30709Q13.144742,17.335359,13.083322,17.376398000000002Q13.021903,17.417437,12.96967,17.46967Q12.917437,17.521903000000002,12.876398,17.583322Q12.835359,17.644742,12.80709,17.712987Q12.778822,17.781233,12.764410999999999,17.853682Q12.75,17.9261315,12.75,18Q12.75,18.0738685,12.764410999999999,18.146318Q12.778822,18.218767,12.80709,18.287013Q12.835359,18.355258,12.876398,18.416678Q12.917437,18.478096999999998,12.96967,18.53033Q13.021903,18.582563,13.083322,18.623601999999998Q13.144742,18.664641,13.212987,18.69291Q13.281233,18.721178,13.353682,18.735589Q13.4261315,18.75,13.5,18.75Z" fill-rule="evenodd" fill="#333333" fill-opacity="1"/></g><g><path d="M19,18.75L21.5,18.75Q21.57387,18.75,21.64632,18.735589Q21.71877,18.721178,21.78701,18.69291Q21.85526,18.664641,21.91668,18.623601999999998Q21.9781,18.582563,22.03033,18.53033Q22.08256,18.478096999999998,22.1236,18.416678Q22.16464,18.355258,22.19291,18.287013Q22.22118,18.218767,22.235590000000002,18.146318Q22.25,18.0738685,22.25,18Q22.25,17.9261315,22.235590000000002,17.853682Q22.22118,17.781233,22.19291,17.712987Q22.16464,17.644742,22.1236,17.583322Q22.08256,17.521903000000002,22.03033,17.46967Q21.9781,17.417437,21.91668,17.376398000000002Q21.85526,17.335359,21.78701,17.30709Q21.71877,17.278822,21.64632,17.264411Q21.57387,17.25,21.5,17.25L19,17.25Q18.9261315,17.25,18.853682,17.264411Q18.781233,17.278822,18.712987,17.30709Q18.644742,17.335359,18.583322,17.376398000000002Q18.521903000000002,17.417437,18.46967,17.46967Q18.417437,17.521903000000002,18.376398000000002,17.583322Q18.335359,17.644742,18.30709,17.712987Q18.278822,17.781233,18.264411,17.853682Q18.25,17.9261315,18.25,18Q18.25,18.0738685,18.264411,18.146318Q18.278822,18.218767,18.30709,18.287013Q18.335359,18.355258,18.376398000000002,18.416678Q18.417437,18.478096999999998,18.46967,18.53033Q18.521903000000002,18.582563,18.583322,18.623601999999998Q18.644742,18.664641,18.712987,18.69291Q18.781233,18.721178,18.853682,18.735589Q18.9261315,18.75,19,18.75Z" fill-rule="evenodd" fill="#333333" fill-opacity="1"/></g><g><path d="M13.5,15.75L16,15.75Q16.07387,15.75,16.14632,15.735589000000001Q16.21877,15.721178,16.28701,15.69291Q16.35526,15.664641,16.41668,15.623602Q16.4781,15.582563,16.53033,15.53033Q16.58256,15.478097,16.6236,15.416678Q16.66464,15.355258,16.69291,15.287013Q16.72118,15.218767,16.735590000000002,15.146318Q16.75,15.0738685,16.75,15Q16.75,14.9261315,16.735590000000002,14.853682Q16.72118,14.781233,16.69291,14.712987Q16.66464,14.644742,16.6236,14.583322Q16.58256,14.521903,16.53033,14.46967Q16.4781,14.417437,16.41668,14.376398Q16.35526,14.335359,16.28701,14.30709Q16.21877,14.278822,16.14632,14.264410999999999Q16.07387,14.25,16,14.25L13.5,14.25Q13.4261315,14.25,13.353682,14.264410999999999Q13.281233,14.278822,13.212987,14.30709Q13.144742,14.335359,13.083322,14.376398Q13.021903,14.417437,12.96967,14.46967Q12.917437,14.521903,12.876398,14.583322Q12.835359,14.644742,12.80709,14.712987Q12.778822,14.781233,12.764410999999999,14.853682Q12.75,14.9261315,12.75,15Q12.75,15.0738685,12.764410999999999,15.146318Q12.778822,15.218767,12.80709,15.287013Q12.835359,15.355258,12.876398,15.416678Q12.917437,15.478097,12.96967,15.53033Q13.021903,15.582563,13.083322,15.623602Q13.144742,15.664641,13.212987,15.69291Q13.281233,15.721178,13.353682,15.735589000000001Q13.4261315,15.75,13.5,15.75Z" fill-rule="evenodd" fill="#333333" fill-opacity="1"/></g><g><path d="M19,15.75L21.5,15.75Q21.57387,15.75,21.64632,15.735589000000001Q21.71877,15.721178,21.78701,15.69291Q21.85526,15.664641,21.91668,15.623602Q21.9781,15.582563,22.03033,15.53033Q22.08256,15.478097,22.1236,15.416678Q22.16464,15.355258,22.19291,15.287013Q22.22118,15.218767,22.235590000000002,15.146318Q22.25,15.0738685,22.25,15Q22.25,14.9261315,22.235590000000002,14.853682Q22.22118,14.781233,22.19291,14.712987Q22.16464,14.644742,22.1236,14.583322Q22.08256,14.521903,22.03033,14.46967Q21.9781,14.417437,21.91668,14.376398Q21.85526,14.335359,21.78701,14.30709Q21.71877,14.278822,21.64632,14.264410999999999Q21.57387,14.25,21.5,14.25L19,14.25Q18.9261315,14.25,18.853682,14.264410999999999Q18.781233,14.278822,18.712987,14.30709Q18.644742,14.335359,18.583322,14.376398Q18.521903000000002,14.417437,18.46967,14.46967Q18.417437,14.521903,18.376398000000002,14.583322Q18.335359,14.644742,18.30709,14.712987Q18.278822,14.781233,18.264411,14.853682Q18.25,14.9261315,18.25,15Q18.25,15.0738685,18.264411,15.146318Q18.278822,15.218767,18.30709,15.287013Q18.335359,15.355258,18.376398000000002,15.416678Q18.417437,15.478097,18.46967,15.53033Q18.521903000000002,15.582563,18.583322,15.623602Q18.644742,15.664641,18.712987,15.69291Q18.781233,15.721178,18.853682,15.735589000000001Q18.9261315,15.75,19,15.75Z" fill-rule="evenodd" fill="#333333" fill-opacity="1"/></g><g><path d="M19,12.75L21.5,12.75Q21.57387,12.75,21.64632,12.735589000000001Q21.71877,12.721178,21.78701,12.69291Q21.85526,12.664641,21.91668,12.623602Q21.9781,12.582563,22.03033,12.53033Q22.08256,12.478097,22.1236,12.416678Q22.16464,12.355258,22.19291,12.287013Q22.22118,12.218767,22.235590000000002,12.146318Q22.25,12.0738685,22.25,12Q22.25,11.9261315,22.235590000000002,11.853682Q22.22118,11.781233,22.19291,11.712987Q22.16464,11.644742,22.1236,11.583322Q22.08256,11.521903,22.03033,11.46967Q21.9781,11.417437,21.91668,11.376398Q21.85526,11.335359,21.78701,11.30709Q21.71877,11.278822,21.64632,11.264410999999999Q21.57387,11.25,21.5,11.25L19,11.25Q18.9261315,11.25,18.853682,11.264410999999999Q18.781233,11.278822,18.712987,11.30709Q18.644742,11.335359,18.583322,11.376398Q18.521903000000002,11.417437,18.46967,11.46967Q18.417437,11.521903,18.376398000000002,11.583322Q18.335359,11.644742,18.30709,11.712987Q18.278822,11.781233,18.264411,11.853682Q18.25,11.9261315,18.25,12Q18.25,12.0738685,18.264411,12.146318Q18.278822,12.218767,18.30709,12.287013Q18.335359,12.355258,18.376398000000002,12.416678Q18.417437,12.478097,18.46967,12.53033Q18.521903000000002,12.582563,18.583322,12.623602Q18.644742,12.664641,18.712987,12.69291Q18.781233,12.721178,18.853682,12.735589000000001Q18.9261315,12.75,19,12.75Z" fill-rule="evenodd" fill="#333333" fill-opacity="1"/></g><g><path d="M19,9.75L21.5,9.75Q21.57387,9.75,21.64632,9.735589000000001Q21.71877,9.721178,21.78701,9.69291Q21.85526,9.664641,21.91668,9.623602Q21.9781,9.582563,22.03033,9.53033Q22.08256,9.478097,22.1236,9.416678Q22.16464,9.355258,22.19291,9.287013Q22.22118,9.218767,22.235590000000002,9.146318Q22.25,9.0738685,22.25,9Q22.25,8.9261315,22.235590000000002,8.853682Q22.22118,8.781233,22.19291,8.712987Q22.16464,8.644742,22.1236,8.583322Q22.08256,8.521903,22.03033,8.46967Q21.9781,8.417437,21.91668,8.376398Q21.85526,8.335359,21.78701,8.30709Q21.71877,8.278822,21.64632,8.264410999999999Q21.57387,8.25,21.5,8.25L19,8.25Q18.9261315,8.25,18.853682,8.264410999999999Q18.781233,8.278822,18.712987,8.30709Q18.644742,8.335359,18.583322,8.376398Q18.521903000000002,8.417437,18.46967,8.46967Q18.417437,8.521903,18.376398000000002,8.583322Q18.335359,8.644742,18.30709,8.712987Q18.278822,8.781233,18.264411,8.853682Q18.25,8.9261315,18.25,9Q18.25,9.0738685,18.264411,9.146318Q18.278822,9.218767,18.30709,9.287013Q18.335359,9.355258,18.376398000000002,9.416678Q18.417437,9.478097,18.46967,9.53033Q18.521903000000002,9.582563,18.583322,9.623602Q18.644742,9.664641,18.712987,9.69291Q18.781233,9.721178,18.853682,9.735589000000001Q18.9261315,9.75,19,9.75Z" fill-rule="evenodd" fill="#333333" fill-opacity="1"/></g></g></svg>