<svg xmlns="http://www.w3.org/2000/svg" xmlns:xlink="http://www.w3.org/1999/xlink" fill="none" version="1.1" width="24" height="24" viewBox="0 0 24 24"><defs><clipPath id="master_svg0_68_38796"><rect x="0" y="0" width="24" height="24" rx="0"/></clipPath></defs><g clip-path="url(#master_svg0_68_38796)"><g><path d="M14.504434375,2.12374C14.458334375,0.911917,13.443234375,-0.0357825,12.231134375,0.00137075C11.015334375,-0.04109,9.994414375,0.908117,9.948364375,2.12374L9.948364375,2.43502C6.616974375,3.66956,4.387174375,6.825,4.335864375,10.3774L4.335864375,13.2072Q4.335864375,17.4614,3.269964375,17.4614C2.644442375,17.4338,2.108073175,17.9036,2.053140411,18.5273C2.036668275,19.1227,2.523671375,19.6097,3.119044375,19.5932L20.918634375,19.5932C21.466134375,19.5415,21.884434375,19.0819,21.884434375,18.532C21.884434375,17.9822,21.466134375,17.5225,20.918634375,17.4709Q19.852734375,17.4709,19.852734375,13.2167L19.852734375,10.1793C20.003134375,6.70154,17.839234375,3.54215,14.542134375,2.42559L14.542134375,2.12374L14.504434375,2.12374Z" fill="#FFFFFF" fill-opacity="1" style="mix-blend-mode:passthrough"/></g><g><path d="M15.57991984375,20.810043334960938C15.549159843750001,22.61735333496094,14.047529843749999,24.051123334960938,12.24071984375,23.998313334960937C10.43026984375,24.056503334960937,8.92274904375,22.621163334960936,8.89208984375,20.810043334960938L15.57991984375,20.810043334960938Z" fill="#FFFFFF" fill-opacity="1" style="mix-blend-mode:passthrough"/></g></g></svg>