<svg xmlns="http://www.w3.org/2000/svg" xmlns:xlink="http://www.w3.org/1999/xlink" fill="none" version="1.1" width="24" height="24" viewBox="0 0 24 24"><g><g><g><g><rect x="0" y="0" width="24" height="24" rx="0" fill="#D8D8D8" fill-opacity="0"/></g><g><g><path d="" fill="#D8D8D8" fill-opacity="0"/><path d="M20.25,16.143700000000003L17.4,16.143700000000003Q17.3261,16.143700000000003,17.253700000000002,16.158099999999997Q17.1812,16.1725,17.113,16.2008Q17.0447,16.229100000000003,16.9833,16.2701Q16.9219,16.3111,16.8697,16.3634Q16.8174,16.415599999999998,16.776400000000002,16.477Q16.7354,16.5384,16.7071,16.6067Q16.678800000000003,16.6749,16.6644,16.7474Q16.65,16.8198,16.65,16.893700000000003Q16.65,16.967599999999997,16.6644,17.04Q16.678800000000003,17.1125,16.7071,17.1807Q16.7354,17.2489,16.776400000000002,17.3104Q16.8174,17.3718,16.8697,17.424Q16.9219,17.476300000000002,16.9833,17.5173Q17.0447,17.5583,17.113,17.5866Q17.1812,17.6149,17.253700000000002,17.6293Q17.3261,17.643700000000003,17.4,17.643700000000003L21,17.643700000000003Q21.0739,17.643700000000003,21.1463,17.6293Q21.2188,17.6149,21.287,17.5866Q21.3553,17.5583,21.4167,17.5173Q21.4781,17.476300000000002,21.5303,17.424Q21.5826,17.3718,21.6236,17.3104Q21.6646,17.2489,21.6929,17.1807Q21.7212,17.1125,21.7356,17.04Q21.75,16.967599999999997,21.75,16.893700000000003L21.75,4.888802Q21.75,4.207236,21.2634,3.7266880000000002Q20.7807,3.25,20.1,3.25L3.9,3.25Q3.219294,3.25,2.736604,3.726685Q2.25,4.207235,2.25,4.888803L2.25,16.893700000000003Q2.25,16.967599999999997,2.264411,17.04Q2.278822,17.1125,2.30709,17.1807Q2.335359,17.2489,2.376398,17.3104Q2.417437,17.3718,2.46967,17.424Q2.521903,17.476300000000002,2.583322,17.5173Q2.644742,17.5583,2.712987,17.5866Q2.781233,17.6149,2.853682,17.6293Q2.9261315,17.643700000000003,3,17.643700000000003L6.6,17.643700000000003Q6.67387,17.643700000000003,6.74632,17.6293Q6.818770000000001,17.6149,6.88701,17.5866Q6.95526,17.5583,7.01668,17.5173Q7.0781,17.476300000000002,7.13033,17.424Q7.18256,17.3718,7.2236,17.3104Q7.26464,17.2489,7.29291,17.1807Q7.32118,17.1125,7.33559,17.04Q7.35,16.967599999999997,7.35,16.893700000000003Q7.35,16.8198,7.33559,16.7474Q7.32118,16.6749,7.29291,16.6067Q7.26464,16.5384,7.2236,16.477Q7.18256,16.415599999999998,7.13033,16.3634Q7.0781,16.3111,7.01668,16.2701Q6.95526,16.229100000000003,6.88701,16.2008Q6.818770000000001,16.1725,6.74632,16.158099999999997Q6.67387,16.143700000000003,6.6,16.143700000000003L3.75,16.143700000000003L3.75,4.888802Q3.75,4.834062,3.790604,4.793964Q3.835121,4.75,3.9,4.75L20.1,4.75Q20.25,4.75,20.25,4.888802L20.25,16.143700000000003Z" fill-rule="evenodd" fill="#0C0507" fill-opacity="1"/></g><g><path d="" fill="#D8D8D8" fill-opacity="0"/><path d="M17.25,19.9999969039917Q17.25,19.8496369039917,17.19204,19.7108969039917Q17.13408,19.572156903991697,17.02713,19.4664869039917L12.52713,15.0203819039917Q12.47498,14.9688649039917,12.41386,14.928417903991699Q12.352730000000001,14.8879719039917,12.28492,14.8601259039917Q12.217120000000001,14.832279903991699,12.145209999999999,14.8180879039917Q12.0733,14.8038969039917,12,14.8038969039917Q11.9267,14.8038969039917,11.854790000000001,14.8180879039917Q11.782879999999999,14.832279903991699,11.71508,14.8601259039917Q11.647269999999999,14.8879719039917,11.58614,14.928417903991699Q11.52502,14.9688649039917,11.47287,15.020380903991699L6.972875,19.4664869039917Q6.866752,19.5713369039917,6.808832,19.7088169039917Q6.750912,19.8462969039917,6.750014,19.9954769039917Q6.749115,20.1446669039917,6.8053740000000005,20.2828369039917Q6.861633,20.4210069039917,6.9664850000000005,20.5271269039917Q7.072162,20.6340869039917,7.210901,20.6920369039917Q7.349641,20.7499969039917,7.5,20.7499969039917L16.5,20.7499969039917Q16.57387,20.7499969039917,16.64632,20.7355869039917Q16.71877,20.721176903991697,16.787010000000002,20.692906903991698Q16.85526,20.6646369039917,16.91668,20.6235969039917Q16.978099999999998,20.582566903991697,17.03033,20.5303269039917Q17.08256,20.4780969039917,17.1236,20.4166769039917Q17.16464,20.355256903991698,17.192909999999998,20.2870069039917Q17.22118,20.2187669039917,17.235590000000002,20.1463169039917Q17.25,20.0738669039917,17.25,19.9999969039917ZM14.6738,19.2499969039917L12,16.6082269039917L9.3262,19.2499969039917L14.6738,19.2499969039917Z" fill-rule="evenodd" fill="#0C0507" fill-opacity="1"/></g></g></g></g></g></svg>