<svg xmlns="http://www.w3.org/2000/svg" xmlns:xlink="http://www.w3.org/1999/xlink" fill="none" version="1.1" width="24" height="24" viewBox="0 0 24 24"><g><g><path d="M1.25,9L1.25,15Q1.25,19.0607,3.09467,20.9053Q4.93934,22.75,9,22.75L15,22.75Q19.0607,22.75,20.9053,20.9053Q22.75,19.0607,22.75,15L22.75,9Q22.75,4.93934,20.9053,3.09467Q19.0607,1.25,15,1.25L9,1.25Q4.93934,1.25,3.09467,3.09467Q1.25,4.93934,1.25,9ZM4.15533,19.8447Q2.75,18.4393,2.75,15L2.75,9Q2.75,5.56066,4.15533,4.15533Q5.56066,2.75,9,2.75L15,2.75Q18.4393,2.75,19.8447,4.15533Q21.25,5.56066,21.25,9L21.25,15Q21.25,18.4393,19.8447,19.8447Q18.4393,21.25,15,21.25L9,21.25Q5.56066,21.25,4.15533,19.8447Z" fill-rule="evenodd" fill="#2B3D56" fill-opacity="1"/></g><g><path d="M16.31999969482422,18.500000381469725L16.31999969482422,14.600000381469727Q16.31999969482422,14.526131881469727,16.30558869482422,14.453682381469726Q16.291177694824217,14.381233381469727,16.26290969482422,14.312987381469727Q16.23464069482422,14.244742381469727,16.193601694824217,14.183322381469727Q16.15256269482422,14.121903381469727,16.100329694824218,14.069670381469727Q16.048096694824217,14.017437381469726,15.986677694824218,13.976398381469727Q15.925257694824218,13.935359381469727,15.857012694824219,13.907090381469727Q15.788766694824218,13.878822381469726,15.71631769482422,13.864411381469726Q15.643868194824218,13.850000381469727,15.569999694824219,13.850000381469727Q15.496131194824219,13.850000381469727,15.423681694824218,13.864411381469726Q15.351232694824219,13.878822381469726,15.282986694824219,13.907090381469727Q15.21474169482422,13.935359381469727,15.15332169482422,13.976398381469727Q15.091902694824219,14.017437381469726,15.03966969482422,14.069670381469727Q14.987436694824218,14.121903381469727,14.946397694824219,14.183322381469727Q14.90535869482422,14.244742381469727,14.87708969482422,14.312987381469727Q14.848821694824219,14.381233381469727,14.834410694824218,14.453682381469726Q14.819999694824219,14.526131881469727,14.819999694824219,14.600000381469727L14.819999694824219,18.500000381469725Q14.819999694824219,18.573870381469725,14.834410694824218,18.646320381469728Q14.848821694824219,18.718770381469724,14.87708969482422,18.787010381469727Q14.90535869482422,18.855260381469726,14.946397694824219,18.916680381469725Q14.987436694824218,18.978100381469726,15.03966969482422,19.030330381469724Q15.091902694824219,19.082560381469726,15.15332169482422,19.12360038146973Q15.21474169482422,19.164640381469727,15.282986694824219,19.192910381469726Q15.351232694824219,19.221180381469726,15.423681694824218,19.235590381469727Q15.496131194824219,19.250000381469725,15.569999694824219,19.250000381469725Q15.643868194824218,19.250000381469725,15.71631769482422,19.235590381469727Q15.788766694824218,19.221180381469726,15.857012694824219,19.192910381469726Q15.925257694824218,19.164640381469727,15.986677694824218,19.12360038146973Q16.048096694824217,19.082560381469726,16.100329694824218,19.030330381469724Q16.15256269482422,18.978100381469726,16.193601694824217,18.916680381469725Q16.23464069482422,18.855260381469726,16.26290969482422,18.787010381469727Q16.291177694824217,18.718770381469724,16.30558869482422,18.646320381469728Q16.31999969482422,18.573870381469725,16.31999969482422,18.500000381469725Z" fill-rule="evenodd" fill="#2B3D56" fill-opacity="1"/></g><g><path d="M16.31999969482422,7.45L16.31999969482422,5.5Q16.31999969482422,5.4261315,16.30558869482422,5.353682Q16.291177694824217,5.281233,16.26290969482422,5.212987Q16.23464069482422,5.144742,16.193601694824217,5.083322Q16.15256269482422,5.021903,16.100329694824218,4.96967Q16.048096694824217,4.917437,15.986677694824218,4.876398Q15.925257694824218,4.835359,15.857012694824219,4.80709Q15.788766694824218,4.778822,15.71631769482422,4.764411Q15.643868194824218,4.75,15.569999694824219,4.75Q15.496131194824219,4.75,15.423681694824218,4.764411Q15.351232694824219,4.778822,15.282986694824219,4.80709Q15.21474169482422,4.835359,15.15332169482422,4.876398Q15.091902694824219,4.917437,15.03966969482422,4.96967Q14.987436694824218,5.021903,14.946397694824219,5.083322Q14.90535869482422,5.144742,14.87708969482422,5.212987Q14.848821694824219,5.281233,14.834410694824218,5.353682Q14.819999694824219,5.4261315,14.819999694824219,5.5L14.819999694824219,7.45Q14.819999694824219,7.5238700000000005,14.834410694824218,7.59632Q14.848821694824219,7.66877,14.87708969482422,7.73701Q14.90535869482422,7.8052600000000005,14.946397694824219,7.866680000000001Q14.987436694824218,7.928100000000001,15.03966969482422,7.98033Q15.091902694824219,8.03256,15.15332169482422,8.073599999999999Q15.21474169482422,8.11464,15.282986694824219,8.14291Q15.351232694824219,8.17118,15.423681694824218,8.18559Q15.496131194824219,8.2,15.569999694824219,8.2Q15.643868194824218,8.2,15.71631769482422,8.18559Q15.788766694824218,8.17118,15.857012694824219,8.14291Q15.925257694824218,8.11464,15.986677694824218,8.073599999999999Q16.048096694824217,8.03256,16.100329694824218,7.98033Q16.15256269482422,7.928100000000001,16.193601694824217,7.866680000000001Q16.23464069482422,7.8052600000000005,16.26290969482422,7.73701Q16.291177694824217,7.66877,16.30558869482422,7.59632Q16.31999969482422,7.5238700000000005,16.31999969482422,7.45Z" fill-rule="evenodd" fill="#2B3D56" fill-opacity="1"/></g><g><path d="M17.93881026702881,7.681191809265137Q16.95761026702881,6.699999809265137,15.570000267028808,6.699999809265137Q14.182380267028808,6.699999809265137,13.201192267028809,7.681192809265137Q12.220000267028809,8.662389809265136,12.220000267028809,10.049999809265136Q12.220000267028809,11.437619809265136,13.201192267028809,12.418809809265138Q14.182380267028808,13.399999809265136,15.570000267028808,13.399999809265136Q16.95762026702881,13.399999809265136,17.93881026702881,12.418809809265138Q18.920000267028808,11.437619809265136,18.920000267028808,10.049999809265136Q18.920000267028808,8.662379809265136,17.93881026702881,7.681191809265137ZM14.261850267028809,8.741849809265137Q14.803700267028809,8.199999809265137,15.570000267028808,8.199999809265137Q16.336290267028808,8.199999809265137,16.878150267028808,8.741849809265137Q17.420000267028808,9.283699809265137,17.420000267028808,10.049999809265136Q17.420000267028808,10.816289809265136,16.878150267028808,11.358149809265136Q16.336290267028808,11.899999809265136,15.570000267028808,11.899999809265136Q14.803700267028809,11.899999809265136,14.261850267028809,11.358149809265136Q13.720000267028809,10.816289809265136,13.720000267028809,10.049999809265136Q13.720000267028809,9.283699809265137,14.261850267028809,8.741849809265137Z" fill-rule="evenodd" fill="#2B3D56" fill-opacity="1"/></g><g><path d="M9.180000305175781,18.499999237060546L9.180000305175781,16.549999237060547Q9.180000305175781,16.476130737060547,9.165589305175782,16.403681237060546Q9.151178305175781,16.331232237060547,9.12291030517578,16.262986237060545Q9.09464130517578,16.194741237060548,9.053602305175781,16.133321237060546Q9.012563305175782,16.07190223706055,8.96033030517578,16.019669237060548Q8.908097305175781,15.967436237060546,8.84667830517578,15.926397237060547Q8.78525830517578,15.885358237060547,8.717013305175781,15.857089237060547Q8.648767305175781,15.828821237060547,8.576318305175782,15.814410237060546Q8.503868805175781,15.799999237060547,8.430000305175781,15.799999237060547Q8.356131805175782,15.799999237060547,8.28368230517578,15.814410237060546Q8.211233305175782,15.828821237060547,8.142987305175781,15.857089237060547Q8.074742305175782,15.885358237060547,8.013322305175782,15.926397237060547Q7.951903305175781,15.967436237060546,7.899670305175781,16.019669237060548Q7.847437305175781,16.07190223706055,7.806398305175781,16.133321237060546Q7.765359305175782,16.194741237060548,7.737090305175781,16.262986237060545Q7.708822305175781,16.331232237060547,7.694411305175781,16.403681237060546Q7.680000305175781,16.476130737060547,7.680000305175781,16.549999237060547L7.680000305175781,18.499999237060546Q7.680000305175781,18.573869237060546,7.694411305175781,18.646319237060546Q7.708822305175781,18.718769237060545,7.737090305175781,18.78700923706055Q7.765359305175782,18.855259237060547,7.806398305175781,18.916679237060546Q7.847437305175781,18.978099237060547,7.899670305175781,19.030329237060545Q7.951903305175781,19.082559237060547,8.013322305175782,19.123599237060546Q8.074742305175782,19.16463923706055,8.142987305175781,19.192909237060547Q8.211233305175782,19.221179237060547,8.28368230517578,19.235589237060548Q8.356131805175782,19.249999237060546,8.430000305175781,19.249999237060546Q8.503868805175781,19.249999237060546,8.576318305175782,19.235589237060548Q8.648767305175781,19.221179237060547,8.717013305175781,19.192909237060547Q8.78525830517578,19.16463923706055,8.84667830517578,19.123599237060546Q8.908097305175781,19.082559237060547,8.96033030517578,19.030329237060545Q9.012563305175782,18.978099237060547,9.053602305175781,18.916679237060546Q9.09464130517578,18.855259237060547,9.12291030517578,18.78700923706055Q9.151178305175781,18.718769237060545,9.165589305175782,18.646319237060546Q9.180000305175781,18.573869237060546,9.180000305175781,18.499999237060546Z" fill-rule="evenodd" fill="#2B3D56" fill-opacity="1"/></g><g><path d="M9.180000305175781,9.4L9.180000305175781,5.5Q9.180000305175781,5.4261315,9.165589305175782,5.353682Q9.151178305175781,5.281233,9.12291030517578,5.212987Q9.09464130517578,5.144742,9.053602305175781,5.083322Q9.012563305175782,5.021903,8.96033030517578,4.96967Q8.908097305175781,4.917437,8.84667830517578,4.876398Q8.78525830517578,4.835359,8.717013305175781,4.80709Q8.648767305175781,4.778822,8.576318305175782,4.764411Q8.503868805175781,4.75,8.430000305175781,4.75Q8.356131805175782,4.75,8.28368230517578,4.764411Q8.211233305175782,4.778822,8.142987305175781,4.80709Q8.074742305175782,4.835359,8.013322305175782,4.876398Q7.951903305175781,4.917437,7.899670305175781,4.96967Q7.847437305175781,5.021903,7.806398305175781,5.083322Q7.765359305175782,5.144742,7.737090305175781,5.212987Q7.708822305175781,5.281233,7.694411305175781,5.353682Q7.680000305175781,5.4261315,7.680000305175781,5.5L7.680000305175781,9.4Q7.680000305175781,9.47387,7.694411305175781,9.54632Q7.708822305175781,9.61877,7.737090305175781,9.68701Q7.765359305175782,9.75526,7.806398305175781,9.81668Q7.847437305175781,9.8781,7.899670305175781,9.93033Q7.951903305175781,9.98256,8.013322305175782,10.0236Q8.074742305175782,10.06464,8.142987305175781,10.09291Q8.211233305175782,10.121179999999999,8.28368230517578,10.13559Q8.356131805175782,10.15,8.430000305175781,10.15Q8.503868805175781,10.15,8.576318305175782,10.13559Q8.648767305175781,10.121179999999999,8.717013305175781,10.09291Q8.78525830517578,10.06464,8.84667830517578,10.0236Q8.908097305175781,9.98256,8.96033030517578,9.93033Q9.012563305175782,9.8781,9.053602305175781,9.81668Q9.09464130517578,9.75526,9.12291030517578,9.68701Q9.151178305175781,9.61877,9.165589305175782,9.54632Q9.180000305175781,9.47387,9.180000305175781,9.4Z" fill-rule="evenodd" fill="#2B3D56" fill-opacity="1"/></g><g><path d="M10.798809923706056,11.581192381469727Q9.817609923706055,10.600000381469727,8.429999923706054,10.600000381469727Q7.042379923706054,10.600000381469727,6.061191923706055,11.581193381469726Q5.079999923706055,12.562390381469726,5.079999923706055,13.950000381469726Q5.079999923706055,15.337620381469726,6.061191923706055,16.318810381469728Q7.042379923706054,17.300000381469726,8.429999923706054,17.300000381469726Q9.817619923706054,17.300000381469726,10.798809923706056,16.318810381469728Q11.779999923706054,15.337620381469726,11.779999923706054,13.950000381469726Q11.779999923706054,12.562380381469726,10.798809923706056,11.581192381469727ZM7.121849923706055,12.641850381469727Q7.663699923706055,12.100000381469727,8.429999923706054,12.100000381469727Q9.196289923706054,12.100000381469727,9.738149923706054,12.641850381469727Q10.279999923706054,13.183700381469727,10.279999923706054,13.950000381469726Q10.279999923706054,14.716290381469726,9.738149923706054,15.258150381469726Q9.196289923706054,15.800000381469726,8.429999923706054,15.800000381469726Q7.663699923706055,15.800000381469726,7.121849923706055,15.258150381469726Q6.579999923706055,14.716290381469726,6.579999923706055,13.950000381469726Q6.579999923706055,13.183700381469727,7.121849923706055,12.641850381469727Z" fill-rule="evenodd" fill="#2B3D56" fill-opacity="1"/></g><g style="opacity:0;"></g></g></svg>