<svg xmlns="http://www.w3.org/2000/svg" xmlns:xlink="http://www.w3.org/1999/xlink" fill="none" version="1.1" width="12" height="12" viewBox="0 0 12 12"><g><g><path d="M7.89,1C7.89,1,4.109999999999999,1,4.109999999999999,1C2.2199999999999998,1,1.75,1.505,1.75,3.52C1.75,3.52,1.75,9.15,1.75,9.15C1.75,10.48,2.48,10.795,3.365,9.845C3.365,9.845,3.37,9.84,3.37,9.84C3.78,9.405,4.404999999999999,9.44,4.76,9.915C4.76,9.915,5.265000000000001,10.59,5.265000000000001,10.59C5.67,11.125,6.325,11.125,6.73,10.59C6.73,10.59,7.235,9.915,7.235,9.915C7.595,9.435,8.219999999999999,9.4,8.629999999999999,9.84C9.52,10.79,10.245,10.475,10.245,9.145C10.245,9.145,10.245,3.52,10.245,3.52C10.25,1.505,9.78,1,7.89,1ZM3.89,6C3.615,6,3.3899999999999997,5.775,3.3899999999999997,5.5C3.3899999999999997,5.225,3.615,5,3.89,5C4.165,5,4.390000000000001,5.225,4.390000000000001,5.5C4.390000000000001,5.775,4.165,6,3.89,6ZM3.89,4C3.615,4,3.3899999999999997,3.775,3.3899999999999997,3.5C3.3899999999999997,3.225,3.615,3,3.89,3C4.165,3,4.390000000000001,3.225,4.390000000000001,3.5C4.390000000000001,3.775,4.165,4,3.89,4ZM8.115,5.875C8.115,5.875,5.365,5.875,5.365,5.875C5.16,5.875,4.99,5.705,4.99,5.5C4.99,5.295,5.16,5.125,5.365,5.125C5.365,5.125,8.115,5.125,8.115,5.125C8.32,5.125,8.49,5.295,8.49,5.5C8.49,5.705,8.32,5.875,8.115,5.875ZM8.115,3.875C8.115,3.875,5.365,3.875,5.365,3.875C5.16,3.875,4.99,3.705,4.99,3.5C4.99,3.295,5.16,3.125,5.365,3.125C5.365,3.125,8.115,3.125,8.115,3.125C8.32,3.125,8.49,3.295,8.49,3.5C8.49,3.705,8.32,3.875,8.115,3.875Z" fill="#FFFFFF" fill-opacity="1"/></g><g style="opacity:0;"><path d="M0,0C0,0,12,0,12,0C12,0,12,12,12,12C12,12,0,12,0,12C0,12,0,0,0,0Z" fill="#FFFFFF" fill-opacity="1"/></g></g></svg>