<svg xmlns="http://www.w3.org/2000/svg" xmlns:xlink="http://www.w3.org/1999/xlink" fill="none" version="1.1" width="24" height="24" viewBox="0 0 24 24"><defs><clipPath id="master_svg0_112_08961"><rect x="0" y="0" width="24" height="24" rx="0"/></clipPath></defs><g><g clip-path="url(#master_svg0_112_08961)"><g><path d="M10.75,9.125L10.75,3.875Q10.75,3.201902,10.27406,2.7259539999999998Q9.798110000000001,2.25,9.125,2.25L3.875,2.25Q3.201903,2.25,2.7259510000000002,2.7259510000000002Q2.25,3.201903,2.25,3.875L2.25,9.125Q2.25,9.798110000000001,2.7259539999999998,10.27406Q3.201902,10.75,3.875,10.75L9.125,10.75Q9.798110000000001,10.75,10.274049999999999,10.274049999999999Q10.75,9.798110000000001,10.75,9.125ZM9.125,3.75Q9.25,3.75,9.25,3.875L9.25,9.125Q9.25,9.25,9.125,9.25L3.875,9.25Q3.75,9.25,3.75,9.125L3.75,3.875Q3.75,3.75,3.875,3.75L9.125,3.75Z" fill-rule="evenodd" fill="#333333" fill-opacity="1"/></g><g><path d="M10.75,20.125L10.75,14.875Q10.75,14.201892,10.274049999999999,13.725946Q9.798110000000001,13.25,9.125,13.25L3.875,13.25Q3.201903,13.25,2.7259539999999998,13.725944Q2.25,14.201893,2.25,14.875L2.25,20.125Q2.25,20.79811,2.7259539999999998,21.27406Q3.201903,21.75,3.875,21.75L9.125,21.75Q9.798110000000001,21.75,10.274049999999999,21.27405Q10.75,20.79811,10.75,20.125ZM9.21339,14.786606Q9.25,14.823212999999999,9.25,14.875L9.25,20.125Q9.25,20.25,9.125,20.25L3.875,20.25Q3.75,20.25,3.75,20.125L3.75,14.875Q3.75,14.75,3.875,14.75L9.125,14.75Q9.17679,14.75,9.21339,14.786606Z" fill-rule="evenodd" fill="#333333" fill-opacity="1"/></g><g><path d="M21.75,9.125L21.75,3.875Q21.75,3.201903,21.27406,2.7259539999999998Q20.79811,2.25,20.125,2.25L14.875,2.25Q14.201893,2.25,13.725944,2.7259539999999998Q13.25,3.201903,13.25,3.875L13.25,9.125Q13.25,9.798110000000001,13.725946,10.274049999999999Q14.201892,10.75,14.875,10.75L20.125,10.75Q20.79811,10.75,21.27405,10.274049999999999Q21.75,9.798110000000001,21.75,9.125ZM20.125,3.75Q20.25,3.75,20.25,3.875L20.25,9.125Q20.25,9.25,20.125,9.25L14.875,9.25Q14.75,9.25,14.75,9.125L14.75,3.875Q14.75,3.823219,14.786609,3.786609Q14.823218,3.75,14.875,3.75L20.125,3.75Z" fill-rule="evenodd" fill="#333333" fill-opacity="1"/></g><g><path d="M14,14.75L21,14.75Q21.07387,14.75,21.14632,14.735589000000001Q21.21877,14.721178,21.287010000000002,14.69291Q21.35526,14.664641,21.41668,14.623602Q21.4781,14.582563,21.53033,14.53033Q21.58256,14.478097,21.6236,14.416678Q21.66464,14.355258,21.69291,14.287013Q21.72118,14.218767,21.735590000000002,14.146318Q21.75,14.0738685,21.75,14Q21.75,13.9261315,21.735590000000002,13.853682Q21.72118,13.781233,21.69291,13.712987Q21.66464,13.644742,21.6236,13.583322Q21.58256,13.521903,21.53033,13.46967Q21.4781,13.417437,21.41668,13.376398Q21.35526,13.335359,21.287010000000002,13.30709Q21.21877,13.278822,21.14632,13.264410999999999Q21.07387,13.25,21,13.25L14,13.25Q13.9261315,13.25,13.853682,13.264410999999999Q13.781233,13.278822,13.712987,13.30709Q13.644742,13.335359,13.583322,13.376398Q13.521903,13.417437,13.46967,13.46967Q13.417437,13.521903,13.376398,13.583322Q13.335359,13.644742,13.30709,13.712987Q13.278822,13.781233,13.264410999999999,13.853682Q13.25,13.9261315,13.25,14Q13.25,14.0738685,13.264410999999999,14.146318Q13.278822,14.218767,13.30709,14.287013Q13.335359,14.355258,13.376398,14.416678Q13.417437,14.478097,13.46967,14.53033Q13.521903,14.582563,13.583322,14.623602Q13.644742,14.664641,13.712987,14.69291Q13.781233,14.721178,13.853682,14.735589000000001Q13.9261315,14.75,14,14.75Z" fill-rule="evenodd" fill="#333333" fill-opacity="1"/></g><g><path d="M17,17.75L21,17.75Q21.07387,17.75,21.14632,17.735589Q21.21877,17.721178,21.287010000000002,17.69291Q21.35526,17.664641,21.41668,17.623601999999998Q21.4781,17.582563,21.53033,17.53033Q21.58256,17.478096999999998,21.6236,17.416678Q21.66464,17.355258,21.69291,17.287013Q21.72118,17.218767,21.735590000000002,17.146318Q21.75,17.0738685,21.75,17Q21.75,16.9261315,21.735590000000002,16.853682Q21.72118,16.781233,21.69291,16.712987Q21.66464,16.644742,21.6236,16.583322Q21.58256,16.521903000000002,21.53033,16.46967Q21.4781,16.417437,21.41668,16.376398000000002Q21.35526,16.335359,21.287010000000002,16.30709Q21.21877,16.278822,21.14632,16.264411Q21.07387,16.25,21,16.25L17,16.25Q16.9261315,16.25,16.853682,16.264411Q16.781233,16.278822,16.712987,16.30709Q16.644742,16.335359,16.583322,16.376398000000002Q16.521903000000002,16.417437,16.46967,16.46967Q16.417437,16.521903000000002,16.376398000000002,16.583322Q16.335359,16.644742,16.30709,16.712987Q16.278822,16.781233,16.264411,16.853682Q16.25,16.9261315,16.25,17Q16.25,17.0738685,16.264411,17.146318Q16.278822,17.218767,16.30709,17.287013Q16.335359,17.355258,16.376398000000002,17.416678Q16.417437,17.478096999999998,16.46967,17.53033Q16.521903000000002,17.582563,16.583322,17.623601999999998Q16.644742,17.664641,16.712987,17.69291Q16.781233,17.721178,16.853682,17.735589Q16.9261315,17.75,17,17.75Z" fill-rule="evenodd" fill="#333333" fill-opacity="1"/></g><g><path d="M14,21.75L21,21.75Q21.07387,21.75,21.14632,21.735589Q21.21877,21.721178,21.287010000000002,21.69291Q21.35526,21.664641,21.41668,21.623601999999998Q21.4781,21.582563,21.53033,21.53033Q21.58256,21.478096999999998,21.6236,21.416678Q21.66464,21.355258,21.69291,21.287013Q21.72118,21.218767,21.735590000000002,21.146318Q21.75,21.0738685,21.75,21Q21.75,20.9261315,21.735590000000002,20.853682Q21.72118,20.781233,21.69291,20.712987Q21.66464,20.644742,21.6236,20.583322Q21.58256,20.521903000000002,21.53033,20.46967Q21.4781,20.417437,21.41668,20.376398000000002Q21.35526,20.335359,21.287010000000002,20.30709Q21.21877,20.278822,21.14632,20.264411Q21.07387,20.25,21,20.25L14,20.25Q13.9261315,20.25,13.853682,20.264411Q13.781233,20.278822,13.712987,20.30709Q13.644742,20.335359,13.583322,20.376398000000002Q13.521903,20.417437,13.46967,20.46967Q13.417437,20.521903000000002,13.376398,20.583322Q13.335359,20.644742,13.30709,20.712987Q13.278822,20.781233,13.264410999999999,20.853682Q13.25,20.9261315,13.25,21Q13.25,21.0738685,13.264410999999999,21.146318Q13.278822,21.218767,13.30709,21.287013Q13.335359,21.355258,13.376398,21.416678Q13.417437,21.478096999999998,13.46967,21.53033Q13.521903,21.582563,13.583322,21.623601999999998Q13.644742,21.664641,13.712987,21.69291Q13.781233,21.721178,13.853682,21.735589Q13.9261315,21.75,14,21.75Z" fill-rule="evenodd" fill="#333333" fill-opacity="1"/></g></g></g></svg>