<svg xmlns="http://www.w3.org/2000/svg" xmlns:xlink="http://www.w3.org/1999/xlink" fill="none" version="1.1" width="24" height="24" viewBox="0 0 24 24"><defs><clipPath id="master_svg0_584_03487"><rect x="0" y="0" width="24" height="24" rx="0"/></clipPath></defs><g clip-path="url(#master_svg0_584_03487)"><g><path d="M18.75,10Q18.75,9.9261315,18.7356,9.853682Q18.7212,9.781233,18.6929,9.712987Q18.6646,9.644742,18.6236,9.583322Q18.5826,9.521903,18.5303,9.46967Q18.4781,9.417437,18.4167,9.376398Q18.3553,9.335359,18.287,9.30709Q18.2188,9.278822,18.1463,9.264410999999999Q18.0739,9.25,18,9.25L2,9.25Q1.9261314999999999,9.25,1.853682,9.264410999999999Q1.781233,9.278822,1.712987,9.30709Q1.644742,9.335359,1.583322,9.376398Q1.521903,9.417437,1.46967,9.46967Q1.417437,9.521903,1.376398,9.583322Q1.335359,9.644742,1.30709,9.712987Q1.278822,9.781233,1.264411,9.853682Q1.25,9.9261315,1.25,10Q1.25,14.603069999999999,3.39619,17.51595Q5.77902,20.75,10,20.75Q14.221,20.75,16.6038,17.51595Q18.75,14.60308,18.75,10ZM17.234,10.75L2.766003,10.75Q2.92224,14.34392,4.60381,16.62619Q6.53701,19.25,10,19.25Q13.463,19.25,15.3962,16.62619Q17.0778,14.34392,17.234,10.75Z" fill-rule="evenodd" fill="#333333" fill-opacity="1"/></g><g><path d="M10.75,8L10.75,4Q10.75,3.9261315,10.735589000000001,3.853682Q10.721178,3.781233,10.69291,3.712987Q10.664641,3.644742,10.623602,3.583322Q10.582563,3.521903,10.53033,3.46967Q10.478097,3.417437,10.416678,3.376398Q10.355258,3.335359,10.287013,3.30709Q10.218767,3.278822,10.146318,3.264411Q10.0738685,3.25,10,3.25Q9.9261315,3.25,9.853682,3.264411Q9.781233,3.278822,9.712987,3.30709Q9.644742,3.335359,9.583322,3.376398Q9.521903,3.417437,9.46967,3.46967Q9.417437,3.521903,9.376398,3.583322Q9.335359,3.644742,9.30709,3.712987Q9.278822,3.781233,9.264410999999999,3.853682Q9.25,3.9261315,9.25,4L9.25,8Q9.25,8.07387,9.264410999999999,8.14632Q9.278822,8.21877,9.30709,8.28701Q9.335359,8.355260000000001,9.376398,8.41668Q9.417437,8.478100000000001,9.46967,8.53033Q9.521903,8.58256,9.583322,8.6236Q9.644742,8.66464,9.712987,8.692910000000001Q9.781233,8.72118,9.853682,8.73559Q9.9261315,8.75,10,8.75Q10.0738685,8.75,10.146318,8.73559Q10.218767,8.72118,10.287013,8.692910000000001Q10.355258,8.66464,10.416678,8.6236Q10.478097,8.58256,10.53033,8.53033Q10.582563,8.478100000000001,10.623602,8.41668Q10.664641,8.355260000000001,10.69291,8.28701Q10.721178,8.21877,10.735589000000001,8.14632Q10.75,8.07387,10.75,8Z" fill-rule="evenodd" fill="#333333" fill-opacity="1"/></g><g><path d="M15.75,8L15.75,6Q15.75,5.9261315,15.735589000000001,5.853682Q15.721178,5.781233,15.69291,5.712987Q15.664641,5.644742,15.623602,5.583322Q15.582563,5.521903,15.53033,5.46967Q15.478097,5.417437,15.416678,5.376398Q15.355258,5.335359,15.287013,5.30709Q15.218767,5.278822,15.146318,5.264411Q15.0738685,5.25,15,5.25Q14.9261315,5.25,14.853682,5.264411Q14.781233,5.278822,14.712987,5.30709Q14.644742,5.335359,14.583322,5.376398Q14.521903,5.417437,14.46967,5.46967Q14.417437,5.521903,14.376398,5.583322Q14.335359,5.644742,14.30709,5.712987Q14.278822,5.781233,14.264410999999999,5.853682Q14.25,5.9261315,14.25,6L14.25,8Q14.25,8.07387,14.264410999999999,8.14632Q14.278822,8.21877,14.30709,8.28701Q14.335359,8.35526,14.376398,8.41668Q14.417437,8.4781,14.46967,8.53033Q14.521903,8.58256,14.583322,8.6236Q14.644742,8.66464,14.712987,8.69291Q14.781233,8.72118,14.853682,8.73559Q14.9261315,8.75,15,8.75Q15.0738685,8.75,15.146318,8.73559Q15.218767,8.72118,15.287013,8.69291Q15.355258,8.66464,15.416678,8.6236Q15.478097,8.58256,15.53033,8.53033Q15.582563,8.4781,15.623602,8.41668Q15.664641,8.35526,15.69291,8.28701Q15.721178,8.21877,15.735589000000001,8.14632Q15.75,8.07387,15.75,8Z" fill-rule="evenodd" fill="#333333" fill-opacity="1"/></g><g><path d="M6.75,8L6.75,6Q6.75,5.9261315,6.735589,5.853682Q6.721178,5.781233,6.69291,5.712987Q6.664641,5.644742,6.623602,5.583322Q6.582563,5.521903,6.53033,5.46967Q6.478097,5.417437,6.416678,5.376398Q6.355258,5.335359,6.287013,5.30709Q6.218767,5.278822,6.146318,5.264411Q6.0738685,5.25,6,5.25Q5.9261315,5.25,5.853682,5.264411Q5.781233,5.278822,5.712987,5.30709Q5.644742,5.335359,5.583322,5.376398Q5.521903,5.417437,5.46967,5.46967Q5.417437,5.521903,5.376398,5.583322Q5.335359,5.644742,5.30709,5.712987Q5.278822,5.781233,5.264411,5.853682Q5.25,5.9261315,5.25,6L5.25,8Q5.25,8.07387,5.264411,8.14632Q5.278822,8.21877,5.30709,8.28701Q5.335359,8.35526,5.376398,8.41668Q5.417437,8.4781,5.46967,8.53033Q5.521903,8.58256,5.583322,8.6236Q5.644742,8.66464,5.712987,8.69291Q5.781233,8.72118,5.853682,8.73559Q5.9261315,8.75,6,8.75Q6.0738685,8.75,6.146318,8.73559Q6.218767,8.72118,6.287013,8.69291Q6.355258,8.66464,6.416678,8.6236Q6.478097,8.58256,6.53033,8.53033Q6.582563,8.4781,6.623602,8.41668Q6.664641,8.35526,6.69291,8.28701Q6.721178,8.21877,6.735589,8.14632Q6.75,8.07387,6.75,8Z" fill-rule="evenodd" fill="#333333" fill-opacity="1"/></g><g><path d="M17.779665,15.54931Q18.432667,15.75,19.14565,15.75Q20.56457,15.75,21.59436,15.02844Q22.75,14.2187,22.75,13Q22.75,11.781295,21.59436,10.971557Q20.56457,10.25,19.14565,10.25Q18.887698,10.25,18.63474,10.276923Q18.568753,10.283947,18.505025,10.302447Q18.441297,10.320947,18.381807,10.350349Q18.322317,10.379752,18.268914,10.419143Q18.215511,10.458534,18.169854,10.50669Q18.124197,10.554845,18.0877049,10.61027Q18.0512126,10.665694,18.0250187,10.726665Q17.99882486,10.787635,17.9837434,10.852258Q17.9686619,10.9168806,17.9651613,10.9831474Q17.860318,12.96787,17.292427,14.58372Q17.287479,14.5978,17.283095,14.61207Q17.261394,14.68267,17.253885,14.75616Q17.246376,14.82965,17.253348,14.903179999999999Q17.26032,14.97672,17.281503999999998,15.04749Q17.302688,15.11825,17.337272,15.183530000000001Q17.371855,15.2488,17.418506999999998,15.30607Q17.46516,15.36334,17.52209,15.41042Q17.579019,15.45749,17.644038,15.49254Q17.709057,15.5276,17.779665,15.54931ZM20.7336,13.799990000000001Q20.09136,14.25,19.14565,14.25Q19.05606,14.25,18.968166,14.24546Q19.28909,13.0744,19.41222,11.759368Q20.18402,11.814926,20.7336,12.20001Q21.25,12.56184,21.25,13Q21.25,13.43816,20.7336,13.799990000000001Z" fill-rule="evenodd" fill="#333333" fill-opacity="1"/></g></g></svg>