<svg xmlns="http://www.w3.org/2000/svg" xmlns:xlink="http://www.w3.org/1999/xlink" fill="none" version="1.1" width="16" height="16" viewBox="0 0 16 16"><defs><clipPath id="master_svg0_0_4506"><rect x="0" y="0" width="16" height="16" rx="0"/></clipPath></defs><g clip-path="url(#master_svg0_0_4506)"><g><path d="M3.285971889190674,8.138071707611083C3.285971889190674,8.138071707611083,3.6395218891906738,8.491621707611085,3.6395218891906738,8.491621707611085C3.6395218891906738,8.491621707611085,3.6395218891906738,8.491621707611085,3.6395218891906738,8.491621707611085C3.6395218891906738,8.491621707611085,3.285971889190674,8.138071707611083,3.285971889190674,8.138071707611083C3.285971889190674,8.138071707611083,3.285971889190674,8.138071707611083,3.285971889190674,8.138071707611083ZM3.285971889190674,12.380701707611085C3.285971889190674,12.380701707611085,3.6395218891906738,12.027151707611084,3.6395218891906738,12.027151707611084C3.6395218891906738,12.027151707611084,3.6395218891906738,12.027141707611085,3.6395218891906738,12.027141707611085C3.6395218891906738,12.027141707611085,3.285971889190674,12.380701707611085,3.285971889190674,12.380701707611085C3.285971889190674,12.380701707611085,3.285971889190674,12.380701707611085,3.285971889190674,12.380701707611085ZM7.528611889190674,12.380701707611085C7.528611889190674,12.380701707611085,7.175051889190674,12.027141707611085,7.175051889190674,12.027141707611085C7.175051889190674,12.027141707611085,7.175051889190674,12.027151707611084,7.175051889190674,12.027151707611084C7.175051889190674,12.027151707611084,7.528611889190674,12.380701707611085,7.528611889190674,12.380701707611085C7.528611889190674,12.380701707611085,7.528611889190674,12.380701707611085,7.528611889190674,12.380701707611085ZM13.421191889190673,6.488171707611084C13.421191889190673,6.488171707611084,13.774691889190674,6.841721707611084,13.774691889190674,6.841721707611084C13.774691889190674,6.841721707611084,13.774691889190674,6.841711707611084,13.774691889190674,6.841711707611084C13.774691889190674,6.841711707611084,13.421191889190673,6.488171707611084,13.421191889190673,6.488171707611084C13.421191889190673,6.488171707611084,13.421191889190673,6.488171707611084,13.421191889190673,6.488171707611084ZM13.421191889190673,3.6597317076110842C13.421191889190673,3.6597317076110842,13.774691889190674,3.306180707611084,13.774691889190674,3.306180707611084C13.774691889190674,3.306180707611084,13.774691889190674,3.306178707611084,13.774691889190674,3.306178707611084C13.774691889190674,3.306178707611084,13.421191889190673,3.6597317076110842,13.421191889190673,3.6597317076110842C13.421191889190673,3.6597317076110842,13.421191889190673,3.6597317076110842,13.421191889190673,3.6597317076110842ZM10.592741889190673,3.6597317076110842C10.592741889190673,3.6597317076110842,10.946291889190674,4.013291707611084,10.946291889190674,4.013291707611084C10.946291889190674,4.013291707611084,10.946301889190673,4.013281707611084,10.946301889190673,4.013281707611084C10.946301889190673,4.013281707611084,10.592741889190673,3.6597317076110842,10.592741889190673,3.6597317076110842C10.592741889190673,3.6597317076110842,10.592741889190673,3.6597317076110842,10.592741889190673,3.6597317076110842ZM4.700171889190674,9.552271707611084C4.700171889190674,9.552271707611084,4.346621889190674,9.198711707611084,4.346621889190674,9.198711707611084C4.346621889190674,9.198711707611084,4.346601889190674,9.198731707611085,4.346601889190674,9.198731707611085C4.346601889190674,9.198731707611085,4.700171889190674,9.552271707611084,4.700171889190674,9.552271707611084C4.700171889190674,9.552271707611084,4.700171889190674,9.552271707611084,4.700171889190674,9.552271707611084ZM4.700171889190674,10.966501707611084C4.700171889190674,10.966501707611084,4.346601889190674,11.320041707611084,4.346601889190674,11.320041707611084C4.346601889190674,11.320041707611084,4.346621889190674,11.320051707611084,4.346621889190674,11.320051707611084C4.346621889190674,11.320051707611084,4.700171889190674,10.966501707611084,4.700171889190674,10.966501707611084C4.700171889190674,10.966501707611084,4.700171889190674,10.966501707611084,4.700171889190674,10.966501707611084ZM6.114411889190674,10.966501707611084C6.114411889190674,10.966501707611084,6.467961889190674,11.320051707611084,6.467961889190674,11.320051707611084C6.467961889190674,11.320051707611084,6.467961889190674,11.320051707611084,6.467961889190674,11.320051707611084C6.467961889190674,11.320051707611084,6.114411889190674,10.966501707611084,6.114411889190674,10.966501707611084C6.114411889190674,10.966501707611084,6.114411889190674,10.966501707611084,6.114411889190674,10.966501707611084ZM7.882151889190673,2.8347677076110838C7.882151889190673,2.8347677076110838,2.9324218891906737,7.784511707611084,2.9324218891906737,7.784511707611084C2.9324218891906737,7.784511707611084,3.6395218891906738,8.491621707611085,3.6395218891906738,8.491621707611085C3.6395218891906738,8.491621707611085,8.589261889190674,3.541873707611084,8.589261889190674,3.541873707611084C8.589261889190674,3.541873707611084,7.882151889190673,2.8347677076110838,7.882151889190673,2.8347677076110838C7.882151889190673,2.8347677076110838,7.882151889190673,2.8347677076110838,7.882151889190673,2.8347677076110838ZM2.9324218891906737,7.784511707611084C1.5655828891906738,9.151341707611085,1.5655828891906738,11.367421707611085,2.9324218891906737,12.734241707611083C2.9324218891906737,12.734241707611083,3.6395218891906738,12.027141707611085,3.6395218891906738,12.027141707611085C2.663214889190674,11.050841707611085,2.663214889190674,9.467921707611083,3.6395218891906738,8.491621707611085C3.6395218891906738,8.491621707611085,2.9324218891906737,7.784511707611084,2.9324218891906737,7.784511707611084C2.9324218891906737,7.784511707611084,2.9324218891906737,7.784511707611084,2.9324218891906737,7.784511707611084ZM2.9324218891906737,12.734241707611083C4.299251889190674,14.101041707611085,6.515331889190674,14.101041707611085,7.882161889190674,12.734241707611083C7.882161889190674,12.734241707611083,7.175051889190674,12.027151707611084,7.175051889190674,12.027151707611084C6.198751889190674,13.003441707611085,4.615831889190674,13.003441707611085,3.6395218891906738,12.027151707611084C3.6395218891906738,12.027151707611084,2.9324218891906737,12.734241707611083,2.9324218891906737,12.734241707611083C2.9324218891906737,12.734241707611083,2.9324218891906737,12.734241707611083,2.9324218891906737,12.734241707611083ZM7.882161889190674,12.734241707611083C7.882161889190674,12.734241707611083,13.774691889190674,6.841721707611084,13.774691889190674,6.841721707611084C13.774691889190674,6.841721707611084,13.067591889190673,6.134611707611084,13.067591889190673,6.134611707611084C13.067591889190673,6.134611707611084,7.175051889190674,12.027141707611085,7.175051889190674,12.027141707611085C7.175051889190674,12.027141707611085,7.882161889190674,12.734241707611083,7.882161889190674,12.734241707611083C7.882161889190674,12.734241707611083,7.882161889190674,12.734241707611083,7.882161889190674,12.734241707611083ZM13.774691889190674,6.841711707611084C14.750991889190674,5.865391707611084,14.750991889190674,4.282481707611084,13.774691889190674,3.306180707611084C13.774691889190674,3.306180707611084,13.067591889190673,4.013291707611084,13.067591889190673,4.013291707611084C13.653391889190674,4.599051707611084,13.653391889190674,5.548811707611084,13.067591889190673,6.134621707611084C13.067591889190673,6.134621707611084,13.774691889190674,6.841711707611084,13.774691889190674,6.841711707611084C13.774691889190674,6.841711707611084,13.774691889190674,6.841711707611084,13.774691889190674,6.841711707611084ZM13.774691889190674,3.306178707611084C12.798391889190674,2.329866707611084,11.215481889190674,2.329855707611084,10.239181889190673,3.306185707611084C10.239181889190673,3.306185707611084,10.946301889190673,4.013281707611084,10.946301889190673,4.013281707611084C11.532061889190674,3.427498707611084,12.481791889190674,3.427487707611084,13.067591889190673,4.013291707611084C13.067591889190673,4.013291707611084,13.774691889190674,3.306178707611084,13.774691889190674,3.306178707611084C13.774691889190674,3.306178707611084,13.774691889190674,3.306178707611084,13.774691889190674,3.306178707611084ZM10.239191889190673,3.306179707611084C10.239191889190673,3.306179707611084,4.346621889190674,9.198711707611084,4.346621889190674,9.198711707611084C4.346621889190674,9.198711707611084,5.053731889190674,9.905821707611084,5.053731889190674,9.905821707611084C5.053731889190674,9.905821707611084,10.946291889190674,4.013291707611084,10.946291889190674,4.013291707611084C10.946291889190674,4.013291707611084,10.239191889190673,3.306179707611084,10.239191889190673,3.306179707611084C10.239191889190673,3.306179707611084,10.239191889190673,3.306179707611084,10.239191889190673,3.306179707611084ZM4.346601889190674,9.198731707611085C3.7608618891906738,9.784521707611084,3.7608618891906738,10.734251707611085,4.346601889190674,11.320041707611084C4.346601889190674,11.320041707611084,5.053741889190674,10.612961707611085,5.053741889190674,10.612961707611085C4.858481889190674,10.417691707611084,4.858481889190674,10.101081707611083,5.053741889190674,9.905801707611083C5.053741889190674,9.905801707611083,4.346601889190674,9.198731707611085,4.346601889190674,9.198731707611085C4.346601889190674,9.198731707611085,4.346601889190674,9.198731707611085,4.346601889190674,9.198731707611085ZM4.346621889190674,11.320051707611084C4.932421889190674,11.905851707611085,5.882161889190674,11.905851707611085,6.467961889190674,11.320051707611084C6.467961889190674,11.320051707611084,5.760851889190674,10.612951707611083,5.760851889190674,10.612951707611083C5.565581889190674,10.808221707611084,5.249001889190674,10.808221707611084,5.053731889190674,10.612951707611083C5.053731889190674,10.612951707611083,4.346621889190674,11.320051707611084,4.346621889190674,11.320051707611084C4.346621889190674,11.320051707611084,4.346621889190674,11.320051707611084,4.346621889190674,11.320051707611084ZM6.467961889190674,11.320051707611084C6.467961889190674,11.320051707611084,11.417701889190674,6.370281707611084,11.417701889190674,6.370281707611084C11.417701889190674,6.370281707611084,10.710591889190674,5.663181707611084,10.710591889190674,5.663181707611084C10.710591889190674,5.663181707611084,5.760851889190674,10.612951707611083,5.760851889190674,10.612951707611083C5.760851889190674,10.612951707611083,6.467961889190674,11.320051707611084,6.467961889190674,11.320051707611084C6.467961889190674,11.320051707611084,6.467961889190674,11.320051707611084,6.467961889190674,11.320051707611084Z" fill="#8A92A6" fill-opacity="1"/></g></g></svg>