<svg xmlns="http://www.w3.org/2000/svg" xmlns:xlink="http://www.w3.org/1999/xlink" fill="none" version="1.1" width="24" height="24" viewBox="0 0 24 24"><defs><clipPath id="master_svg0_855_03800"><rect x="0" y="0" width="24" height="24" rx="0"/></clipPath></defs><g clip-path="url(#master_svg0_855_03800)"><rect x="0" y="0" width="24" height="24" rx="0" fill="#D8D8D8" fill-opacity="0"/><g><path d="M3.717152,6.16941Q3.000001,7.75899,3.000001,9.5Q3,16.5,11.4,22.8Q11.46449,22.8484,11.53589,22.8858Q11.6073,22.9232,11.683769999999999,22.9487Q11.76025,22.9742,11.83982,22.9871Q11.91939,23,12,23Q12.08061,23,12.16018,22.9871Q12.23975,22.9742,12.31623,22.9487Q12.3927,22.9232,12.46411,22.8858Q12.53551,22.8484,12.6,22.8Q21,16.5,21,9.5Q21,7.75899,20.2828,6.16941Q19.593600000000002,4.64163,18.3408,3.46716Q15.7092,1,12,1Q8.29083,1,5.6592,3.46716Q4.406425,4.64163,3.717152,6.16941ZM12,20.7403Q5,15.2583,5,9.5Q5,6.82662,7.02708,4.92623Q9.08172,3,12,3Q14.9183,3,16.9729,4.92623Q19,6.82662,19,9.5Q19,15.2583,12,20.7403Z" fill-rule="evenodd" fill="#333333" fill-opacity="1"/></g><g><path d="M9.499969482421875,7L9.499969482421875,15Q9.499969482421875,15.09849,9.519184482421874,15.19509Q9.538399482421875,15.29169,9.576090482421876,15.38268Q9.613781482421874,15.47368,9.668499482421876,15.55557Q9.723218482421874,15.63746,9.792862482421874,15.70711Q9.862506482421875,15.77675,9.944399482421876,15.83147Q10.026291482421875,15.88619,10.117286482421875,15.92388Q10.208280482421875,15.96157,10.304879482421875,15.98078Q10.401478082421875,16,10.499969482421875,16Q10.598460882421875,16,10.695059482421875,15.98078Q10.791658482421875,15.96157,10.882652482421875,15.92388Q10.973647482421875,15.88619,11.055539482421874,15.83147Q11.137432482421875,15.77675,11.207076482421876,15.70711Q11.276720482421876,15.63746,11.331439482421874,15.55557Q11.386157482421876,15.47368,11.423848482421874,15.38268Q11.461539482421875,15.29169,11.480754482421876,15.19509Q11.499969482421875,15.09849,11.499969482421875,15L11.499969482421875,7Q11.499969482421875,6.9015086,11.480754482421876,6.80491Q11.461539482421875,6.708311,11.423848482421874,6.617317Q11.386157482421876,6.526322,11.331439482421874,6.44443Q11.276720482421876,6.362537,11.207076482421876,6.292893Q11.137432482421875,6.223249,11.055539482421874,6.16853Q10.973647482421875,6.113812,10.882652482421875,6.076121Q10.791658482421875,6.03843,10.695059482421875,6.019215Q10.598460882421875,6,10.499969482421875,6Q10.401478082421875,6,10.304879482421875,6.019215Q10.208280482421875,6.03843,10.117286482421875,6.076121Q10.026291482421875,6.113812,9.944399482421876,6.16853Q9.862506482421875,6.223249,9.792862482421874,6.292893Q9.723218482421874,6.362537,9.668499482421876,6.44443Q9.613781482421874,6.526322,9.576090482421876,6.617317Q9.538399482421875,6.708311,9.519184482421874,6.80491Q9.499969482421875,6.9015086,9.499969482421875,7Z" fill-rule="evenodd" fill="#333333" fill-opacity="1"/></g><g><path d="M9.499969482421875,7L9.499969482421875,11Q9.499969482421875,11.09849,9.519184482421874,11.19509Q9.538399482421875,11.29169,9.576090482421876,11.38268Q9.613781482421874,11.47368,9.668499482421876,11.55557Q9.723218482421874,11.63746,9.792862482421874,11.70711Q9.862506482421875,11.77675,9.944399482421876,11.83147Q10.026291482421875,11.88619,10.117286482421875,11.92388Q10.208280482421875,11.96157,10.304879482421875,11.98078Q10.401478082421875,12,10.499969482421875,12L13.499969482421875,12Q14.742599482421875,12,15.621279482421876,11.121310000000001Q16.499969482421875,10.24263,16.499969482421875,9Q16.499969482421875,7.757374,15.621279482421876,6.878687Q14.742599482421875,6,13.499969482421875,6L10.499969482421875,6Q10.401478082421875,6,10.304879482421875,6.019215Q10.208280482421875,6.03843,10.117286482421875,6.076121Q10.026291482421875,6.113812,9.944399482421876,6.16853Q9.862506482421875,6.223249,9.792862482421874,6.292893Q9.723218482421874,6.362537,9.668499482421876,6.44443Q9.613781482421874,6.526322,9.576090482421876,6.617317Q9.538399482421875,6.708311,9.519184482421874,6.80491Q9.499969482421875,6.9015086,9.499969482421875,7ZM11.499969482421875,10L13.499969482421875,10Q13.914169482421876,10,14.207069482421876,9.7071Q14.499969482421875,9.414200000000001,14.499969482421875,9Q14.499969482421875,8.5858,14.207069482421876,8.2929Q13.914169482421876,8,13.499969482421875,8L11.499969482421875,8L11.499969482421875,10Z" fill-rule="evenodd" fill="#333333" fill-opacity="1"/></g></g></svg>