<svg xmlns="http://www.w3.org/2000/svg" xmlns:xlink="http://www.w3.org/1999/xlink" fill="none" version="1.1" width="16" height="16" viewBox="0 0 16 16"><defs><clipPath id="master_svg0_173_17113"><rect x="0" y="0" width="16" height="16" rx="0"/></clipPath></defs><g clip-path="url(#master_svg0_173_17113)"><g><g><path d="M2.5,13L2.5,7Q2.5,6.37868,2.9393398,5.9393398Q3.37868,5.5,4,5.5L12,5.5Q12.62132,5.5,13.0607,5.9393398Q13.5,6.378679,13.5,7L13.5,13Q13.5,13.62132,13.0607,14.06066Q12.62132,14.5,12,14.5L4,14.5Q3.37868,14.5,2.9393398,14.06066Q2.5,13.62132,2.5,13ZM3.5,13Q3.5,13.5,4,13.5L12,13.5Q12.5,13.5,12.5,13L12.5,7Q12.5,6.5,12,6.5L4,6.5Q3.5,6.5,3.5,7L3.5,13Z" fill="#8A92A6" fill-opacity="1"/></g><g><path d="M10,4L10,6Q10,6.04925,10.00961,6.09755Q10.019210000000001,6.14584,10.03806,6.19134Q10.056899999999999,6.23684,10.08426,6.27778Q10.11162,6.31873,10.14645,6.35355Q10.18127,6.38837,10.22221,6.41573Q10.26316,6.44309,10.30866,6.46194Q10.35415,6.48078,10.40245,6.49039Q10.45075,6.5,10.5,6.5Q10.54925,6.5,10.59755,6.49039Q10.64584,6.48078,10.69134,6.46194Q10.73684,6.44309,10.77778,6.41573Q10.81873,6.38837,10.85355,6.35355Q10.88837,6.31873,10.91573,6.27778Q10.94309,6.23684,10.96194,6.19134Q10.98078,6.14584,10.99039,6.09755Q11,6.04925,11,6L11,4Q11,2.853904,10.07184,2.142849Q9.23271,1.5,8,1.5Q6.76729,1.5,5.928163,2.142849Q5,2.853904,5,4L5,6Q5,6.04925,5.009607,6.09755Q5.019215,6.14584,5.03806,6.19134Q5.056906,6.23684,5.084265,6.27778Q5.111625,6.31873,5.146447,6.35355Q5.181269,6.38837,5.222215,6.41573Q5.263161,6.44309,5.308658,6.46194Q5.354155,6.48078,5.4024549,6.49039Q5.4507543,6.5,5.5,6.5Q5.5492457,6.5,5.5975451,6.49039Q5.645845,6.48078,5.691342,6.46194Q5.736839,6.44309,5.777785,6.41573Q5.818731,6.38837,5.853553,6.35355Q5.888375,6.31873,5.915735,6.27778Q5.943094,6.23684,5.96194,6.19134Q5.980785,6.14584,5.990393,6.09755Q6,6.04925,6,6L6,4Q6,3.34753,6.53631,2.936676Q7.10631,2.5,8,2.5Q8.89369,2.5,9.46369,2.936677Q10,3.34753,10,4Z" fill-rule="evenodd" fill="#8A92A6" fill-opacity="1"/></g><g><path d="M8.5,9.555338859558105L8.5,10.444227859558106Q8.5,10.493473859558106,8.490393,10.541772859558105Q8.480785000000001,10.590068859558105,8.46194,10.635568859558106Q8.443094,10.681068859558106,8.415735,10.722008859558105Q8.388375,10.762958859558106,8.353553,10.797778859558106Q8.318731,10.832598859558106,8.277785,10.859958859558105Q8.236839,10.887318859558105,8.191342,10.906168859558106Q8.145845,10.925008859558105,8.0975451,10.934618859558105Q8.0492457,10.944228859558105,8,10.944228859558105Q7.9507543,10.944228859558105,7.9024549,10.934618859558105Q7.854155,10.925008859558105,7.808658,10.906168859558106Q7.763161,10.887318859558105,7.722215,10.859958859558105Q7.681269,10.832598859558106,7.646447,10.797778859558106Q7.611625,10.762958859558106,7.584265,10.722008859558105Q7.556906,10.681068859558106,7.53806,10.635568859558106Q7.519215,10.590068859558105,7.509607,10.541772859558105Q7.5,10.493473859558106,7.5,10.444227859558106L7.5,9.555338859558105Q7.5,9.506093159558105,7.509607,9.457793759558106Q7.519215,9.409493859558106,7.53806,9.363996859558105Q7.556906,9.318499859558106,7.584265,9.277553859558106Q7.611625,9.236607859558106,7.646447,9.201785859558106Q7.681269,9.166963859558106,7.722215,9.139603859558106Q7.763161,9.112244859558105,7.808658,9.093398859558105Q7.854155,9.074553859558105,7.9024549,9.064945859558106Q7.9507543,9.055338859558105,8,9.055338859558105Q8.0492457,9.055338859558105,8.0975451,9.064945859558106Q8.145845,9.074553859558105,8.191342,9.093398859558105Q8.236839,9.112244859558105,8.277785,9.139603859558106Q8.318731,9.166963859558106,8.353553,9.201785859558106Q8.388375,9.236607859558106,8.415735,9.277553859558106Q8.443094,9.318499859558106,8.46194,9.363996859558105Q8.480785000000001,9.409493859558106,8.490393,9.457793759558106Q8.5,9.506093159558105,8.5,9.555338859558105Z" fill-rule="evenodd" fill="#8A92A6" fill-opacity="1"/></g></g></g></svg>