<svg xmlns="http://www.w3.org/2000/svg" xmlns:xlink="http://www.w3.org/1999/xlink" fill="none" version="1.1" width="24" height="24" viewBox="0 0 24 24"><g><g><rect x="0" y="0" width="24" height="24" rx="0" fill="#D8D8D8" fill-opacity="0"/></g><g><g><rect x="4.285714268684387" y="4" width="15.428571701049805" height="16" rx="0" fill="#D8D8D8" fill-opacity="0"/><path d="M3.535714268684387,20L3.535714268684387,4Q3.535714268684387,3.9261315,3.550125268684387,3.853682Q3.564536268684387,3.781233,3.5928042686843873,3.712987Q3.621073268684387,3.644742,3.662112268684387,3.583322Q3.7031512686843873,3.521903,3.755384268684387,3.46967Q3.807617268684387,3.417437,3.869036268684387,3.376398Q3.930456268684387,3.335359,3.9987012686843872,3.30709Q4.0669472686843875,3.278822,4.139396268684387,3.264411Q4.2118457686843875,3.25,4.285714268684387,3.25L19.714314268684387,3.25Q19.78811426868439,3.25,19.860614268684387,3.264411Q19.93301426868439,3.278822,20.00131426868439,3.30709Q20.069514268684387,3.335359,20.130914268684386,3.376398Q20.192414268684388,3.417437,20.244614268684387,3.46967Q20.296814268684386,3.521903,20.337914268684386,3.583322Q20.378914268684387,3.644742,20.40721426868439,3.712987Q20.435414268684386,3.781233,20.449914268684388,3.853682Q20.464314268684387,3.9261315,20.464314268684387,4L20.464314268684387,20Q20.464314268684387,20.0739,20.449914268684388,20.1463Q20.435414268684386,20.2188,20.40721426868439,20.287Q20.378914268684387,20.3553,20.337914268684386,20.4167Q20.296814268684386,20.4781,20.244614268684387,20.5303Q20.192414268684388,20.5826,20.130914268684386,20.6236Q20.069514268684387,20.6646,20.00131426868439,20.6929Q19.93301426868439,20.7212,19.860614268684387,20.7356Q19.78811426868439,20.75,19.714314268684387,20.75L4.285714268684387,20.75Q4.2118457686843875,20.75,4.139396268684387,20.7356Q4.0669472686843875,20.7212,3.9987012686843872,20.6929Q3.930456268684387,20.6646,3.869036268684387,20.6236Q3.807617268684387,20.5826,3.755384268684387,20.5303Q3.7031512686843873,20.4781,3.662112268684387,20.4167Q3.621073268684387,20.3553,3.5928042686843873,20.287Q3.564536268684387,20.2188,3.550125268684387,20.1463Q3.535714268684387,20.0739,3.535714268684387,20ZM5.035714268684387,4.75L5.035714268684387,19.25L18.964314268684387,19.25L18.964314268684387,4.75L5.035714268684387,4.75Z" fill="#0C0507" fill-opacity="1"/></g><g><path d="" fill="#D8D8D8" fill-opacity="0"/><path d="M3,4.75L21,4.75Q21.0739,4.75,21.1463,4.735589Q21.2188,4.721178,21.287,4.69291Q21.3553,4.664641,21.4167,4.623602Q21.4781,4.582563,21.5303,4.53033Q21.5826,4.478097,21.6236,4.416678Q21.6646,4.355258,21.6929,4.287013Q21.7212,4.218767,21.7356,4.146318Q21.75,4.0738685,21.75,4Q21.75,3.9261315,21.7356,3.853682Q21.7212,3.781233,21.6929,3.712987Q21.6646,3.644742,21.6236,3.583322Q21.5826,3.521903,21.5303,3.46967Q21.4781,3.417437,21.4167,3.376398Q21.3553,3.335359,21.287,3.30709Q21.2188,3.278822,21.1463,3.264411Q21.0739,3.25,21,3.25L3,3.25Q2.9261315,3.25,2.853682,3.264411Q2.781233,3.278822,2.712987,3.30709Q2.644742,3.335359,2.583322,3.376398Q2.521903,3.417437,2.46967,3.46967Q2.417437,3.521903,2.376398,3.583322Q2.335359,3.644742,2.30709,3.712987Q2.278822,3.781233,2.264411,3.853682Q2.25,3.9261315,2.25,4Q2.25,4.0738685,2.264411,4.146318Q2.278822,4.218767,2.30709,4.287013Q2.335359,4.355258,2.376398,4.416678Q2.417437,4.478097,2.46967,4.53033Q2.521903,4.582563,2.583322,4.623602Q2.644742,4.664641,2.712987,4.69291Q2.781233,4.721178,2.853682,4.735589Q2.9261315,4.75,3,4.75Z" fill-rule="evenodd" fill="#0C0507" fill-opacity="1"/></g><g><path d="" fill="#D8D8D8" fill-opacity="0"/><path d="M3,20.75L21,20.75Q21.0739,20.75,21.1463,20.735589Q21.2188,20.721178,21.287,20.69291Q21.3553,20.664641,21.4167,20.623601999999998Q21.4781,20.582563,21.5303,20.53033Q21.5826,20.478096999999998,21.6236,20.416678Q21.6646,20.355258,21.6929,20.287013Q21.7212,20.218767,21.7356,20.146318Q21.75,20.0738685,21.75,20Q21.75,19.9261315,21.7356,19.853682Q21.7212,19.781233,21.6929,19.712987Q21.6646,19.644742,21.6236,19.583322Q21.5826,19.521903000000002,21.5303,19.46967Q21.4781,19.417437,21.4167,19.376398000000002Q21.3553,19.335359,21.287,19.30709Q21.2188,19.278822,21.1463,19.264411Q21.0739,19.25,21,19.25L3,19.25Q2.9261315,19.25,2.853682,19.264411Q2.781233,19.278822,2.712987,19.30709Q2.644742,19.335359,2.583322,19.376398000000002Q2.521903,19.417437,2.46967,19.46967Q2.417437,19.521903000000002,2.376398,19.583322Q2.335359,19.644742,2.30709,19.712987Q2.278822,19.781233,2.264411,19.853682Q2.25,19.9261315,2.25,20Q2.25,20.0738685,2.264411,20.146318Q2.278822,20.218767,2.30709,20.287013Q2.335359,20.355258,2.376398,20.416678Q2.417437,20.478096999999998,2.46967,20.53033Q2.521903,20.582563,2.583322,20.623601999999998Q2.644742,20.664641,2.712987,20.69291Q2.781233,20.721178,2.853682,20.735589Q2.9261315,20.75,3,20.75Z" fill-rule="evenodd" fill="#0C0507" fill-opacity="1"/></g><g><path d="" fill="#D8D8D8" fill-opacity="0"/><path d="M11.25,4L11.25,20Q11.25,20.0739,11.264410999999999,20.1463Q11.278822,20.2188,11.30709,20.287Q11.335359,20.3553,11.376398,20.4167Q11.417437,20.4781,11.46967,20.5303Q11.521903,20.5826,11.583322,20.6236Q11.644742,20.6646,11.712987,20.6929Q11.781233,20.7212,11.853682,20.7356Q11.9261315,20.75,12,20.75Q12.0738685,20.75,12.146318,20.7356Q12.218767,20.7212,12.287013,20.6929Q12.355258,20.6646,12.416678,20.6236Q12.478097,20.5826,12.53033,20.5303Q12.582563,20.4781,12.623602,20.4167Q12.664641,20.3553,12.69291,20.287Q12.721178,20.2188,12.735589000000001,20.1463Q12.75,20.0739,12.75,20L12.75,4Q12.75,3.9261315,12.735589000000001,3.853682Q12.721178,3.781233,12.69291,3.712987Q12.664641,3.644742,12.623602,3.583322Q12.582563,3.521903,12.53033,3.46967Q12.478097,3.417437,12.416678,3.376398Q12.355258,3.335359,12.287013,3.30709Q12.218767,3.278822,12.146318,3.264411Q12.0738685,3.25,12,3.25Q11.9261315,3.25,11.853682,3.264411Q11.781233,3.278822,11.712987,3.30709Q11.644742,3.335359,11.583322,3.376398Q11.521903,3.417437,11.46967,3.46967Q11.417437,3.521903,11.376398,3.583322Q11.335359,3.644742,11.30709,3.712987Q11.278822,3.781233,11.264410999999999,3.853682Q11.25,3.9261315,11.25,4Z" fill-rule="evenodd" fill="#0C0507" fill-opacity="1"/></g><g><path d="" fill="#D8D8D8" fill-opacity="0"/><path d="M15.10714340209961,10.117647171020508L15.10714340209961,13.882357171020509Q15.10714340209961,13.956217171020509,15.121554402099608,14.028667171020508Q15.13596540209961,14.101117171020508,15.16423340209961,14.169367171020507Q15.19250240209961,14.237607171020507,15.23354140209961,14.299027171020509Q15.274580402099609,14.360447171020507,15.32681340209961,14.412687171020508Q15.37904640209961,14.464917171020508,15.44046540209961,14.505957171020508Q15.50188540209961,14.546997171020507,15.57013040209961,14.575257171020507Q15.63837640209961,14.603527171020508,15.710825402099609,14.617937171020507Q15.78327490209961,14.632357171020509,15.85714340209961,14.632357171020509Q15.931011902099609,14.632357171020509,16.00346140209961,14.617937171020507Q16.07591040209961,14.603527171020508,16.14415640209961,14.575257171020507Q16.21240140209961,14.546997171020507,16.27382140209961,14.505957171020508Q16.335240402099608,14.464917171020508,16.38747340209961,14.412687171020508Q16.43970640209961,14.360447171020507,16.480745402099608,14.299027171020509Q16.52178440209961,14.237607171020507,16.55005340209961,14.169367171020507Q16.578321402099608,14.101117171020508,16.59273240209961,14.028667171020508Q16.60714340209961,13.956217171020509,16.60714340209961,13.882357171020509L16.60714340209961,10.117647171020508Q16.60714340209961,10.043778671020508,16.59273240209961,9.971329171020507Q16.578321402099608,9.898880171020508,16.55005340209961,9.830634171020508Q16.52178440209961,9.762389171020509,16.480745402099608,9.700969171020509Q16.43970640209961,9.639550171020508,16.38747340209961,9.587317171020509Q16.335240402099608,9.535084171020507,16.27382140209961,9.494045171020508Q16.21240140209961,9.453006171020508,16.14415640209961,9.424737171020508Q16.07591040209961,9.396469171020508,16.00346140209961,9.382058171020507Q15.931011902099609,9.367647171020508,15.85714340209961,9.367647171020508Q15.78327490209961,9.367647171020508,15.710825402099609,9.382058171020507Q15.63837640209961,9.396469171020508,15.57013040209961,9.424737171020508Q15.50188540209961,9.453006171020508,15.44046540209961,9.494045171020508Q15.37904640209961,9.535084171020507,15.32681340209961,9.587317171020509Q15.274580402099609,9.639550171020508,15.23354140209961,9.700969171020509Q15.19250240209961,9.762389171020509,15.16423340209961,9.830634171020508Q15.13596540209961,9.898880171020508,15.121554402099608,9.971329171020507Q15.10714340209961,10.043778671020508,15.10714340209961,10.117647171020508Z" fill-rule="evenodd" fill="#0C0507" fill-opacity="1"/></g><g><path d="" fill="#D8D8D8" fill-opacity="0"/><path d="M15.857138298950195,11.231517171020508L16.588348298950194,12.034407171020508Q16.694948298950194,12.151457171020507,16.839748298950195,12.215427171020508Q16.984548298950195,12.279407171020509,17.142858298950195,12.279407171020509L17.146658298950197,12.279407171020509Q17.285778298950195,12.278697171020507,17.415388298950194,12.228147171020508Q17.544998298950194,12.177587171020509,17.647858298950197,12.083917171020508Q17.764898298950197,11.977327171020509,17.828878298950194,11.832527171020509Q17.892858298950195,11.687717171020507,17.892858298950195,11.529417171020508L17.892848298950195,11.525607171020507Q17.892138298950194,11.386487171020509,17.841588298950196,11.256877171020507Q17.791038298950195,11.127267171020508,17.697368298950195,11.024414171020508L17.697228298950193,11.024262171020508L16.411648298950194,9.612650171020508Q16.361908298950194,9.558036171020508,16.302478298950195,9.514174171020509Q16.243038298950196,9.470313171020507,16.176188298950194,9.438890171020507Q16.109338298950195,9.407467171020508,16.037638298950196,9.389690171020508Q15.965938298950196,9.371913171020507,15.892148298950195,9.368465171020508Q15.818358298950196,9.365017171020508,15.745318298950195,9.376030171020508Q15.672278298950195,9.387044171020507,15.602788298950195,9.412096171020508Q15.533295298950195,9.437147171020507,15.470027298950196,9.475275171020508Q15.406759298950195,9.513402171020507,15.352145298950195,9.563140171020509Q15.326234298950196,9.586738171020508,15.302635298950195,9.612650171020508L14.017060298950195,11.024262171020508L14.016921298950196,11.024414171020508Q13.922586298950195,11.127997171020509,13.872007298950196,11.258657171020507Q13.821428298950195,11.389307171020508,13.821428298950195,11.529407171020507Q13.821428298950195,11.546927171020508,13.822246298950196,11.564417171020509Q13.829209298950195,11.713447171020508,13.892671298950194,11.848457171020508Q13.956132298950195,11.983467171020507,14.066431298950196,12.083917171020508Q14.170015298950196,12.178257171020508,14.300670298950195,12.228837171020508Q14.431325298950195,12.279407171020509,14.571428298950195,12.279407171020509Q14.588941698950196,12.279407171020509,14.606436798950195,12.278597171020508Q14.755458298950195,12.271627171020508,14.890471298950196,12.208167171020508Q15.025485298950196,12.144707171020508,15.125935298950195,12.034407171020508L15.857138298950195,11.231517171020508Z" fill-rule="evenodd" fill="#0C0507" fill-opacity="1"/></g><g><path d="" fill="#D8D8D8" fill-opacity="0"/><path d="M8.892857074737549,13.882357171020509L8.892857074737549,10.117647171020508Q8.892857074737549,10.043778671020508,8.87844607473755,9.971329171020507Q8.864035074737549,9.898880171020508,8.835767074737548,9.830634171020508Q8.807498074737548,9.762389171020509,8.766459074737549,9.700969171020509Q8.72542007473755,9.639550171020508,8.673187074737548,9.587317171020509Q8.620954074737549,9.535084171020507,8.559535074737548,9.494045171020508Q8.498115074737548,9.453006171020508,8.429870074737549,9.424737171020508Q8.361624074737549,9.396469171020508,8.28917507473755,9.382058171020507Q8.216725574737548,9.367647171020508,8.142857074737549,9.367647171020508Q8.06898857473755,9.367647171020508,7.996539074737549,9.382058171020507Q7.924090074737549,9.396469171020508,7.855844074737549,9.424737171020508Q7.787599074737549,9.453006171020508,7.726179074737549,9.494045171020508Q7.664760074737549,9.535084171020507,7.612527074737549,9.587317171020509Q7.560294074737548,9.639550171020508,7.519255074737549,9.700969171020509Q7.478216074737549,9.762389171020509,7.4499470747375485,9.830634171020508Q7.421679074737549,9.898880171020508,7.407268074737549,9.971329171020507Q7.392857074737549,10.043778671020508,7.392857074737549,10.117647171020508L7.392857074737549,13.882357171020509Q7.392857074737549,13.956217171020509,7.407268074737549,14.028667171020508Q7.421679074737549,14.101117171020508,7.4499470747375485,14.169367171020507Q7.478216074737549,14.237607171020507,7.519255074737549,14.299027171020509Q7.560294074737548,14.360447171020507,7.612527074737549,14.412687171020508Q7.664760074737549,14.464917171020508,7.726179074737549,14.505957171020508Q7.787599074737549,14.546997171020507,7.855844074737549,14.575257171020507Q7.924090074737549,14.603527171020508,7.996539074737549,14.617937171020507Q8.06898857473755,14.632357171020509,8.142857074737549,14.632357171020509Q8.216725574737548,14.632357171020509,8.28917507473755,14.617937171020507Q8.361624074737549,14.603527171020508,8.429870074737549,14.575257171020507Q8.498115074737548,14.546997171020507,8.559535074737548,14.505957171020508Q8.620954074737549,14.464917171020508,8.673187074737548,14.412687171020508Q8.72542007473755,14.360447171020507,8.766459074737549,14.299027171020509Q8.807498074737548,14.237607171020507,8.835767074737548,14.169367171020507Q8.864035074737549,14.101117171020508,8.87844607473755,14.028667171020508Q8.892857074737549,13.956217171020509,8.892857074737549,13.882357171020509Z" fill-rule="evenodd" fill="#0C0507" fill-opacity="1"/></g><g><path d="" fill="#D8D8D8" fill-opacity="0"/><path d="M9.98304292526245,12.975626684082032L9.983082925262451,12.97558568408203Q10.07741292526245,12.872001684082031,10.12799292526245,12.741346684082032Q10.17857292526245,12.610692684082032,10.17857292526245,12.470589504735031Q10.17857292526245,12.453074884082032,10.177752925262451,12.435580184082031Q10.17079292526245,12.286558684082031,10.107332925262451,12.15154568408203Q10.043862925262452,12.01653168408203,9.933572925262451,11.916081684082032Q9.82998292526245,11.821746684082031,9.699332925262452,11.771167684082032Q9.568672925262451,11.720588684082031,9.42857292526245,11.720588684082031Q9.411052925262451,11.720588684082031,9.39356292526245,11.721406684082032Q9.24454292526245,11.72836968408203,9.109532925262451,11.79183168408203Q8.974512925262452,11.85529268408203,8.87406292526245,11.965591684082032L8.874022925262452,11.965632684082031L8.142852925262451,12.768485684082032L7.411686925262451,11.965632684082031L7.411649925262451,11.965591684082032Q7.305056925262451,11.848547684082032,7.1602539252624515,11.784568684082032Q7.015450925262451,11.720588684082031,6.8571432890374515,11.720588684082031L6.853340335262451,11.72059868408203Q6.714222925262451,11.72130368408203,6.5846129252624515,11.77185568408203Q6.455002925262451,11.822408684082031,6.352145925262451,11.916081684082032Q6.235101925262451,12.02267468408203,6.171122925262451,12.167477684082032Q6.107142925262451,12.312280684082031,6.107142925262451,12.470588684082031L6.107152925262451,12.47439127408203Q6.107857925262451,12.613508684082031,6.158409925262451,12.743118684082031Q6.208962925262451,12.87272868408203,6.302635925262451,12.97558568408203L6.302673925262451,12.975627684082031L7.588349925262452,14.387348684082031Q7.6119489252624515,14.413258684082031,7.637859925262451,14.436858684082031Q7.692473925262451,14.48659868408203,7.755741925262451,14.524728684082032Q7.819009925262451,14.56284868408203,7.8885029252624514,14.58790868408203Q7.9579929252624515,14.612958684082031,8.031032925262451,14.623968684082032Q8.104072925262452,14.634988684082032,8.17786292526245,14.631538684082031Q8.251652925262452,14.628088684082032,8.323352925262451,14.610308684082032Q8.395052925262451,14.592528684082032,8.461902925262452,14.561108684082031Q8.52875292526245,14.529688684082032,8.588192925262451,14.485828684082032Q8.647622925262452,14.441968684082031,8.697362925262452,14.387348684082031L9.98304292526245,12.975626684082032Z" fill-rule="evenodd" fill="#0C0507" fill-opacity="1"/></g></g></g></svg>