<svg xmlns="http://www.w3.org/2000/svg" xmlns:xlink="http://www.w3.org/1999/xlink" fill="none" version="1.1" width="24" height="24" viewBox="0 0 24 24"><defs><clipPath id="master_svg0_112_08951"><rect x="0" y="0" width="24" height="24" rx="0"/></clipPath></defs><g><g><g><g clip-path="url(#master_svg0_112_08951)"><g><path d="M4.72817,8.800996Q1.738652,9.963583,1.25556,13.90884Q1.25,13.95425,1.25,14Q1.25,14.00881,1.250207,14.017610000000001Q1.2530489999999999,14.13863,1.293819,14.252600000000001Q1.334589,14.366579999999999,1.409145,14.46194Q1.501031,14.57947,1.630898,14.65289Q1.760766,14.72631,1.9088444,14.74444Q1.9542526,14.75,2,14.75Q2.022933,14.75,2.0458268,14.7486Q2.110922,14.74461,2.174353,14.72945Q2.237784,14.71429,2.297645,14.688410000000001Q2.357507,14.66253,2.412003,14.6267Q2.466498,14.590869999999999,2.513992,14.54618Q2.561486,14.50148,2.600552,14.449259999999999Q2.639619,14.39704,2.669085,14.33886Q2.698551,14.28068,2.717532,14.21828Q2.736513,14.15589,2.74444,14.09116Q3.11849,11.03642,5.27183,10.199004Q5.410880000000001,10.144932,5.5186399999999995,10.041768Q5.6264,9.938605,5.68649,9.802054Q5.75,9.657705,5.75,9.500000883123L5.75,9.49770889Q5.74957,9.358194,5.699,9.228166Q5.65792,9.12253,5.58746,9.033751Q5.5169999999999995,8.944972,5.42345,8.880979Q5.32991,8.816985,5.22162,8.783493Q5.11334,8.75,5,8.75L4.98598,8.750131Q4.85255,8.752625,4.72817,8.800996Z" fill-rule="evenodd" fill="#333333" fill-opacity="1"/></g><g><path d="M18.728801,10.199251Q20.88158,11.03687,21.25556,14.091149999999999Q21.273690000000002,14.23923,21.34711,14.3691Q21.42053,14.49897,21.53805,14.59085Q21.63698,14.668199999999999,21.7557,14.7091Q21.87443,14.75,22,14.75L22.00072,14.75Q22.0461,14.74996,22.09115,14.74444Q22.15875,14.73616,22.22376,14.71584Q22.28876,14.69553,22.34904,14.66383Q22.40932,14.63213,22.46291,14.5901Q22.5165,14.54806,22.56163,14.497060000000001Q22.60677,14.44606,22.64198,14.38776Q22.67719,14.329460000000001,22.70133,14.26578Q22.725459999999998,14.20209,22.73773,14.135100000000001Q22.75,14.06811,22.75,14L22.74997,13.99334Q22.74959,13.95094,22.74444,13.908850000000001Q22.26141,9.963925,19.272351,8.801197L19.271833,8.800996Q19.1407,8.75,19.000000416591,8.75L18.99544719,8.750014Q18.882689,8.750698,18.775117,8.784509Q18.667544,8.81832,18.57467,8.882267Q18.481794999999998,8.946214,18.41183,9.034644Q18.341865,9.123074,18.300996,9.228167Q18.25,9.3593,18.25,9.5L18.250014,9.50455281Q18.250698,9.617311,18.284509,9.724883Q18.31832,9.832456,18.382267,9.92533Q18.446214,10.018205,18.534644,10.08817Q18.623074,10.158135,18.728167,10.199004L18.728801,10.199251Z" fill-rule="evenodd" fill="#333333" fill-opacity="1"/></g><g><path d="M8.822861,10.228781Q10.76113,10.6999,11.26538,13.15112Q11.27833,13.21408,11.30181,13.27392Q11.325289999999999,13.33376,11.3586,13.388729999999999Q11.391919999999999,13.4437,11.4341,13.4922Q11.47628,13.540700000000001,11.5261,13.58131Q11.57592,13.62192,11.63193,13.65347Q11.68793,13.68501,11.74849,13.70657Q11.80904,13.72813,11.87238,13.73906Q11.93572,13.75,12,13.75Q12.00746,13.75,12.01493,13.74985Q12.08372,13.74848,12.15112,13.73462Q12.29725,13.70456,12.42074,13.62087Q12.54424,13.53717,12.62631,13.41259Q12.75,13.22484,12.75,13L12.74997,12.99366Q12.74936,12.92052,12.73462,12.84888Q12.03887,9.4667997,9.177139,8.771219Q9.0898406,8.75,8.9999999273068,8.75Q8.9848796,8.75,8.9697716,8.750609Q8.9091245,8.753056,8.84966,8.765223Q8.790195,8.77739,8.733461,8.79896Q8.676727,8.820531,8.6242,8.850944Q8.571673,8.881357,8.524719,8.91982Q8.477766,8.958284,8.437609,9.003798Q8.397452,9.049311,8.365137,9.10069Q8.332821,9.152068,8.309188,9.207975Q8.285555,9.263881,8.271219,9.322861Q8.25,9.4101594,8.25,9.5Q8.25,9.5151204,8.250609,9.5302284Q8.253056,9.5908755,8.265223,9.65034Q8.27739,9.709805,8.29896,9.766539Q8.320531,9.823273,8.350944,9.8758Q8.381357,9.928327,8.41982,9.975281Q8.458284,10.022234,8.503798,10.062391Q8.549311,10.102548,8.60069,10.134863Q8.652068,10.167179,8.707975,10.190812Q8.763881,10.214445,8.822861,10.228781Z" fill-rule="evenodd" fill="#333333" fill-opacity="1"/></g><g><path d="M11.265395,12.84882L11.265383,12.84888Q11.25,12.92366,11.25,13Q11.25,13.01534,11.250627,13.03067Q11.259142,13.238710000000001,11.373688,13.41259Q11.455758,13.53717,11.579256,13.62087Q11.702753,13.70456,11.848878,13.73462Q11.923656,13.75,12,13.75Q12.0284638,13.75,12.0568472,13.74784Q12.117369,13.74324,12.176363,13.72897Q12.235358,13.7147,12.29129,13.69112Q12.347221,13.66755,12.398634,13.635290000000001Q12.450047,13.60303,12.495603,13.56292Q12.541159,13.52281,12.579673,13.4759Q12.618187,13.42899,12.648656,13.37649Q12.679124999999999,13.324,12.700756,13.26728Q12.722387,13.21057,12.734617,13.15112Q13.23883,10.70009,15.17684,10.228853L15.17714,10.228781Q15.322099999999999,10.193546,15.44255,10.105517Q15.56299,10.017489,15.64058,9.890069Q15.75,9.710381,15.75,9.500000862871Q15.75,9.49274323,15.74986,9.4854878Q15.74826,9.4030151,15.72878,9.322861Q15.714,9.262033,15.68933,9.204497Q15.664670000000001,9.146962,15.63081,9.094312Q15.59695,9.041661,15.554829999999999,8.995353Q15.5127,8.949044,15.46349,8.910359Q15.41428,8.871673,15.35933,8.841682Q15.30438,8.81169,15.24522,8.791223Q15.18607,8.770755,15.12433,8.760378Q15.0626,8.75,15,8.75L14.99408,8.750023Q14.90724,8.750709,14.82286,8.771219Q11.9613846,9.4667367,11.265507,12.84827L11.265395,12.84882Z" fill-rule="evenodd" fill="#333333" fill-opacity="1"/></g><g><path d="M6.290579,19.75665L6.290541,19.75676Q6.25,19.875,6.25,20L6.2500599999999995,20.00951Q6.2522,20.17817,6.326337,20.32966Q6.391912,20.46366,6.503774,20.56237Q6.615636,20.66108,6.756757,20.70946Q6.875,20.75,7,20.75Q7.0175005,20.75,7.0349835,20.74918Q7.147621,20.74392,7.253733,20.70578Q7.359844,20.66763,7.450047,20.59996Q7.540251,20.5323,7.606569,20.4411Q7.672888,20.34991,7.709459,20.24324L7.709748,20.2424Q8.46664,18.03568,10.13184,17.738321Q10.2787,17.712095,10.40435,17.631665Q10.53,17.551235,10.6153,17.428844Q10.75,17.235578,10.75,17.00000139229L10.74998,16.99485554Q10.74954,16.9310099,10.73832,16.868157Q10.7268,16.803664,10.70428,16.742144Q10.68176,16.680624,10.64891,16.623941Q10.616060000000001,16.567258,10.573879999999999,16.517128Q10.5317,16.466999,10.48147,16.424943Q10.43123,16.382886,10.37447,16.350175Q10.31771,16.317465,10.25613,16.295091Q10.19456,16.272718,10.130040000000001,16.261359Q10.06551,16.25,10,16.25L9.99587,16.250011Q9.93151,16.250366,9.86816,16.261679Q7.333785,16.714245,6.290625,19.75651L6.290579,19.75665Z" fill-rule="evenodd" fill="#333333" fill-opacity="1"/></g><g><path d="M13.868157,17.738321Q15.53368,18.03574,16.29054,20.24324Q16.30944,20.29836,16.33662,20.349899999999998Q16.3638,20.40143,16.39862,20.44815Q16.43343,20.49487,16.47505,20.53565Q16.51666,20.576430000000002,16.56407,20.6103Q16.61148,20.64417,16.66356,20.6703Q16.71563,20.69644,16.77112,20.71422Q16.8266,20.732,16.88417,20.741Q16.94173,20.75,17,20.75L17.00204,20.75Q17.12599,20.74966,17.24324,20.70946Q17.29836,20.69056,17.349899999999998,20.66338Q17.40143,20.6362,17.44815,20.60138Q17.49487,20.56657,17.53565,20.52495Q17.576430000000002,20.48334,17.6103,20.43593Q17.64417,20.38852,17.6703,20.33644Q17.69644,20.28437,17.71422,20.22888Q17.732,20.1734,17.741,20.11583Q17.75,20.05827,17.75,20L17.75,19.99796Q17.74966,19.87401,17.70946,19.75676Q16.66632,16.714264,14.131843,16.261679Q14.0664389,16.25,14.000000158898,16.25L13.9952948,16.250015Q13.9300787,16.250424,13.865912,16.262084Q13.801745,16.273744,13.740554,16.296304Q13.679363,16.318865,13.622985,16.351649Q13.566607,16.384432,13.516733,16.426456Q13.46686,16.468479,13.424988,16.51848Q13.383117,16.568481,13.350505,16.624959Q13.317892,16.681437,13.295518,16.742696Q13.273144,16.803955,13.261679,16.868157Q13.25,16.9335612,13.25,17L13.250015,17.0047052Q13.250424,17.0699213,13.262084,17.134088Q13.273744,17.198255,13.296304,17.259446Q13.318865,17.320637,13.351648,17.377015Q13.384432,17.433393,13.426456,17.483267Q13.468479,17.53314,13.51848,17.575012Q13.568481,17.616883,13.624959,17.649495Q13.681437,17.682108,13.742696,17.704482Q13.803955,17.726856,13.868157,17.738321Z" fill-rule="evenodd" fill="#333333" fill-opacity="1"/></g><g><ellipse cx="12" cy="15.5" rx="2.5" ry="2.5" fill-opacity="0" stroke-opacity="1" stroke="#333333" fill="none" stroke-width="1.5" stroke-linecap="ROUND" stroke-linejoin="round"/></g><g><ellipse cx="17" cy="7" rx="3" ry="3" fill-opacity="0" stroke-opacity="1" stroke="#333333" fill="none" stroke-width="1.5" stroke-linecap="ROUND" stroke-linejoin="round"/></g><g><ellipse cx="7" cy="7" rx="3" ry="3" fill-opacity="0" stroke-opacity="1" stroke="#333333" fill="none" stroke-width="1.5" stroke-linecap="ROUND" stroke-linejoin="round"/></g></g></g></g></g></svg>