<svg xmlns="http://www.w3.org/2000/svg" xmlns:xlink="http://www.w3.org/1999/xlink" fill="none" version="1.1" width="14" height="14" viewBox="0 0 14 14"><g><g><rect x="0" y="0" width="14" height="14" rx="0" fill="#FFFFFF" fill-opacity="0"/></g><g><path d="M2.5216159765625,2.52167701171875Q0.6666259765625,4.37666701171875,0.6666259765625,7.00001701171875Q0.6666259765625,9.62336701171875,2.5216159765625,11.47838701171875Q4.3766059765625,13.33338701171875,6.9999559765625,13.33338701171875Q9.6233159765625,13.33338701171875,11.4783259765625,11.47838701171875Q13.3333259765625,9.62337701171875,13.3333259765625,7.00001701171875Q13.3333259765625,4.37666701171875,11.4783259765625,2.52167701171875Q9.6233059765625,0.66668701171875,6.9999559765625,0.66668701171875Q4.3766059765625,0.66668701171875,2.5216159765625,2.52167701171875ZM3.2287259765625,10.77125701171875Q1.6666259765625,9.20915701171875,1.6666259765625,7.00001701171875Q1.6666259765625,4.7908770117187505,3.2287259765625,3.22878701171875Q4.7908259765625,1.66668701171875,6.9999559765625,1.66668701171875Q9.2090959765625,1.66668701171875,10.7711959765625,3.22878701171875Q12.3333259765625,4.7908770117187505,12.3333259765625,7.00001701171875Q12.3333259765625,9.20915701171875,10.7711959765625,10.77125701171875Q9.2090959765625,12.33338701171875,6.9999559765625,12.33338701171875Q4.7908159765625005,12.33338701171875,3.2287259765625,10.77125701171875Z" fill-rule="evenodd" fill="#000000" fill-opacity="1"/></g><g><path d="M5.6152111765625,3.86527211171875Q5.0416259765625,4.43885701171875,5.0416259765625,5.25001701171875Q5.0416259765625,6.06118701171875,5.6152110765625,6.6347670117187505Q6.1887959765625,7.20835701171875,6.9999559765625,7.20835701171875Q7.8111259765625,7.20835701171875,8.3847059765625,6.6347670117187505Q8.9582959765625,6.06118701171875,8.9582959765625,5.25001701171875Q8.9582959765625,4.43885701171875,8.3847059765625,3.86527221171875Q7.8111259765625,3.29168701171875,6.9999559765625,3.29168701171875Q6.1887959765625,3.29168701171875,5.6152111765625,3.86527211171875ZM6.3223179765625,5.92765701171875Q6.0416259765625,5.6469670117187505,6.0416259765625,5.25001701171875Q6.0416259765625,4.85306701171875,6.3223179765625,4.57237901171875Q6.6030059765625,4.29168701171875,6.9999559765625,4.29168701171875Q7.3969059765625005,4.29168701171875,7.6775959765625,4.57237901171875Q7.9582959765625,4.85306701171875,7.9582959765625,5.25001701171875Q7.9582959765625,5.6469670117187505,7.6775959765625,5.92765701171875Q7.3969059765625005,6.20835701171875,6.9999559765625,6.20835701171875Q6.6030059765625,6.20835701171875,6.3223179765625,5.92765701171875Z" fill-rule="evenodd" fill="#000000" fill-opacity="1"/></g><g><path d="M9.819595703125,9.61196298828125Q10.513405703124999,10.26275298828125,10.577705703125,11.20804298828125Q10.580895703125,11.25503298828125,10.592815703125,11.30060298828125Q10.604735703125,11.34617298828125,10.624945703125,11.38872298828125Q10.645165703125,11.43126298828125,10.672975703125001,11.46928298828125Q10.700785703125,11.50730298828125,10.735205703125,11.539462988281251Q10.769625703125,11.57162298828125,10.809435703125,11.59678298828125Q10.849255703125,11.62194298828125,10.893075703125,11.63923298828125Q10.936895703125,11.65651298828125,10.983165703125,11.66531298828125Q11.029445703125,11.67411298828125,11.076545703125,11.67411298828125Q11.125795703125,11.67411298828125,11.174095703125,11.66450298828125Q11.222395703125,11.65489298828125,11.267885703125,11.63604298828125Q11.313385703125,11.61720298828125,11.354335703125,11.58984298828125Q11.395275703125,11.56248298828125,11.430105703125,11.52766298828125Q11.464925703125,11.49284298828125,11.492285703125,11.45189298828125Q11.519645703125,11.41094298828125,11.538485703125,11.36545298828125Q11.557335703125,11.31995298828125,11.566935703125,11.27165298828125Q11.576545703125,11.223352988281249,11.576545703125,11.17411298828125Q11.576545703125,11.15712298828125,11.575395703125,11.14017298828125Q11.484405703125,9.80247298828125,10.503735703124999,8.88260698828125Q9.518335703125,7.95831298828125,8.166675703125,7.95831298828125L5.833345703125,7.95831298828125Q4.479775703125,7.95831298828125,3.493878703125,8.88488798828125Q2.512559703125,9.80716298828125,2.424179703125,11.14724298828125Q2.423095703125,11.16367298828125,2.423095703125,11.18014298828125Q2.423095703125,11.22939298828125,2.432702703125,11.27769298828125Q2.442310703125,11.32599298828125,2.4611557031249998,11.371482988281251Q2.480001703125,11.41698298828125,2.507360703125,11.45793298828125Q2.534720703125,11.49887298828125,2.569542703125,11.53370298828125Q2.604364703125,11.56852298828125,2.645310703125,11.59588298828125Q2.686256703125,11.62324298828125,2.731753703125,11.642082988281249Q2.777250703125,11.66093298828125,2.825550603125,11.67054298828125Q2.873850003125,11.68014298828125,2.923095703125,11.68014298828125Q2.970264303125,11.68014298828125,3.016600703125,11.67132298828125Q3.062936703125,11.66250298828125,3.106806703125,11.64517298828125Q3.150675703125,11.62784298828125,3.190529703125,11.60261298828125Q3.230384703125,11.57738298828125,3.264817703125,11.54515298828125Q3.299250703125,11.51291298828125,3.327047703125,11.474802988281251Q3.354844703125,11.43669298828125,3.375024703125,11.39406298828125Q3.395205703125,11.35143298828125,3.407056703125,11.30577298828125Q3.418907703125,11.26011298828125,3.422011703125,11.21305298828125Q3.484466703125,10.26606298828125,4.178725703125,9.61358298828125Q4.875935703125,8.95831298828125,5.833345703125,8.95831298828125L8.166675703125,8.95831298828125Q9.122735703124999,8.95831298828125,9.819595703125,9.61196298828125Z" fill-rule="evenodd" fill="#000000" fill-opacity="1"/></g></g></svg>