<svg xmlns="http://www.w3.org/2000/svg" xmlns:xlink="http://www.w3.org/1999/xlink" fill="none" version="1.1" width="24" height="24" viewBox="0 0 24 24"><g><g><g><g><path d="M12,2C9.379999999999999,2,7.25,4.13,7.25,6.75C7.25,9.32,9.26,11.4,11.879999999999999,11.49C11.96,11.48,12.04,11.48,12.1,11.49C12.120000000000001,11.49,12.129999999999999,11.49,12.15,11.49C12.16,11.49,12.16,11.49,12.17,11.49C14.73,11.4,16.740000000000002,9.32,16.75,6.75C16.75,4.13,14.620000000000001,2,12,2Z" fill="#000000" fill-opacity="1"/></g><g><path d="M17.08000003814697,14.149999160766601C14.290000038146973,12.289999160766602,9.740000038146974,12.289999160766602,6.930000038146972,14.149999160766601C5.660000038146973,14.999999160766603,4.960000038146973,16.1499991607666,4.960000038146973,17.3799991607666C4.960000038146973,18.609999160766602,5.660000038146973,19.749999160766603,6.920000038146973,20.589999160766602C8.320000038146972,21.5299991607666,10.160000038146972,21.9999991607666,12.000000038146972,21.9999991607666C13.840000038146973,21.9999991607666,15.680000038146973,21.5299991607666,17.08000003814697,20.589999160766602C18.340000038146975,19.7399991607666,19.04000003814697,18.5999991607666,19.04000003814697,17.359999160766602C19.030000038146973,16.1299991607666,18.340000038146975,14.989999160766601,17.08000003814697,14.149999160766601Z" fill="#000000" fill-opacity="1"/></g><g transform="matrix(-1,0,0,-1,48,48)" style="opacity:0;"><path d="M24,24C24,24,48,24,48,24C48,24,48,48,48,48C48,48,24,48,24,48C24,48,24,24,24,24Z" fill="#000000" fill-opacity="1"/></g></g></g></g></svg>