<svg xmlns="http://www.w3.org/2000/svg" xmlns:xlink="http://www.w3.org/1999/xlink" fill="none" version="1.1" width="24" height="24" viewBox="0 0 24 24"><defs><clipPath id="master_svg0_112_01047"><rect x="0" y="0" width="24" height="24" rx="0"/></clipPath></defs><g clip-path="url(#master_svg0_112_01047)"><g><path d="M7.5126953125,10.787109375L9.2501953125,10.787109375C10.4226953125,10.787109375,11.3226953125,11.200859375,11.3226953125,12.452109375C11.3226953125,13.660859375,10.4151953125,14.202109375,9.2789453125,14.202109375L8.5714453125,14.202109375L8.5714453125,16.077109375L7.5126953125,16.077109375L7.5126953125,10.787109375ZM9.2064453125,13.367109375C9.9364453125,13.367109375,10.2864453125,13.059609375,10.2864453125,12.452109375C10.2864453125,11.844609375000001,9.9001953125,11.630859375,9.1714453125,11.630859375L8.5714453125,11.630859375L8.5714453125,13.367109375L9.2064453125,13.367109375ZM12.2801953125,10.787109375L13.3389453125,10.787109375L13.3389453125,12.874609375L15.3389453125,12.874609375L15.3389453125,10.787109375L16.390195312499998,10.787109375L16.390195312499998,16.083359375L15.3389453125,16.083359375L15.3389453125,13.795859375L13.3389453125,13.795859375L13.3389453125,16.083359375L12.2801953125,16.083359375L12.2801953125,10.787109375Z" fill="#333333" fill-opacity="1"/></g><g><path d="M12,2.027421875C13.05125,3.402421875,15.6488,6.989921875,17.4225,10.972421875C17.7894,11.773721875,17.9824,12.643621875,17.988799999999998,13.524921875C17.988500000000002,13.821521875,17.9668,14.117721875,17.9237,14.411221875C17.7387,15.678621875,17.005000000000003,16.878621875,15.86,17.786121875C14.7425,18.673621875,13.3475,19.182421875,12.03,19.182421875L11.969999999999999,19.182421875C10.6525,19.182421875,9.2575,18.673721875,8.14,17.786121875C6.995,16.876221875,6.265000000000001,15.676221875,6.07625,14.411221875C6.03325,14.117721875,6.01152,13.821521875,6.01125,13.524921875C6.0176,12.643621875,6.21058,11.773721875,6.577500000000001,10.972421875C8.35125,6.989921875,10.94875,3.404921875,12,2.027421875ZM12,0.982421875C11.69098,0.996647975,11.405059999999999,1.150179875,11.2225,1.399921875C9.75,3.322421875,7.3412500000000005,6.798671875,5.66375,10.566171875C5.08739,11.811721875,4.886696,13.198321875,5.08625,14.556121875C5.555,17.758721875,8.807500000000001,20.181221875,11.969999999999999,20.181221875L12.03,20.181221875C15.1925,20.181221875,18.445,17.754921875,18.9137,14.556221875C19.113300000000002,13.198321875,18.912599999999998,11.811721875,18.336199999999998,10.566171875C16.6588,6.798671875,14.25,3.322421875,12.77875,1.399921875C12.59592,1.149846875,12.30947,0.996274975,12,0.982421875ZM19.33,22.801221875C18.25,22.801221875,17.691200000000002,22.426221875,17.197499999999998,22.091121875C16.75,21.789921875,16.3963,21.551221875,15.6225,21.551221875C14.8488,21.551221875,14.4975,21.789921875,14.0487,22.091121875C13.54875,22.423621875,12.995,22.801221875,11.915,22.801221875C10.835,22.801221875,10.276250000000001,22.426221875,9.782499999999999,22.091121875C9.335,21.789921875,8.98125,21.551221875,8.2075,21.551221875C7.43375,21.551221875,7.0825,21.789921875,6.63375,22.091121875C6.13375,22.423621875,5.58,22.801221875,4.5,22.801221875C4.223858,22.801221875,4,22.577321875,4,22.301221875C4,22.025021875,4.223858,21.801221875,4.5,21.801221875C5.27375,21.801221875,5.625,21.563621875,6.07375,21.262421875C6.57375,20.928721875,7.1274999999999995,20.551221875,8.2075,20.551221875C9.2875,20.551221875,9.8475,20.926221875,10.341249999999999,21.262421875C10.78875,21.563721875,11.14125,21.801221875,11.915,21.801221875C12.68875,21.801221875,13.04,21.563621875,13.49,21.262421875C13.99,20.928721875,14.5437,20.551221875,15.6225,20.551221875C16.7013,20.551221875,17.2625,20.926221875,17.7563,21.262421875C18.2025,21.563721875,18.5563,21.801221875,19.33,21.801221875C19.606099999999998,21.801221875,19.83,22.025021875,19.83,22.301221875C19.83,22.577321875,19.606099999999998,22.801221875,19.33,22.801221875Z" fill="#333333" fill-opacity="1"/><path d="M12.97891,1.250116875Q12.61916,0.759887875,12.01118,0.732671875L11.999839999999999,0.732164875L11.9885,0.732685875Q11.38155,0.760627875,11.022400000000001,1.250035875Q7.47681,5.879611875,5.43537,10.464481875Q4.522235,12.437721875,4.838908,14.592521875Q5.19818,17.047021875,7.36252,18.765421875Q9.46064,20.431121875,11.969999999999999,20.431221875L12.03,20.431221875Q14.5386,20.431221875,16.6375,18.763921875Q18.8017,17.044921875,19.161099999999998,14.592421875Q19.477800000000002,12.437721875,18.5631,10.461181875Q16.5256,5.885081875,12.97891,1.250116875ZM12.00016,1.232747875Q12.36188,1.2533168749999999,12.57693,1.5474678750000002L12.58022,1.551856875Q16.0923,6.141171875,18.1094,10.671161875Q18.961399999999998,12.512521875,18.6664,14.519921875Q18.3357,16.776521875,16.3265,18.372421875Q14.3642,19.931121875,12.03,19.931221875L11.969999999999999,19.931221875Q9.634979999999999,19.931121875,7.67342,18.373821875Q5.66422,16.778621875,5.33359,14.519821875Q5.03859,12.512521875,5.8921399999999995,10.667861875Q7.91006,6.135791875,11.42097,1.5519378750000001L11.42268,1.549714875L11.424330000000001,1.547453875Q11.63902,1.253745875,12.00016,1.232747875ZM11.80126,1.8757528749999999Q8.32971,6.424701875,6.35019,10.868331875L6.3496500000000005,10.869521875L6.34912,10.870701875Q5.77126,12.133921875,5.76125,13.525121875Q5.76168,13.988721875,5.82899,14.448021875Q6.13721,16.513721875,7.98452,17.981921875Q9.81089,19.432421875,11.969999999999999,19.432421875L12.03,19.432421875Q14.1891,19.432421875,16.0153,17.982121875Q17.8697,16.512321874999998,18.1711,14.447421875Q18.238300000000002,13.988721875,18.2387,13.523121875Q18.2287,12.132621875,17.6509,10.870711875Q15.6624,6.406131875,12.1986,1.875578875L11.99982,1.615574875L11.80126,1.8757528749999999ZM6.26125,13.524721875Q6.27048,12.243421875,6.8048,11.076521875L6.8058700000000005,11.074121875Q8.704889999999999,6.810391875,12.00017,2.440821875Q15.2869,6.791831875,17.1941,11.074121875Q17.7295,12.243421875,17.738799999999998,13.526721875Q17.7384,13.952021875,17.6764,14.374921875Q17.4036,16.243721875,15.7047,17.590221875Q14.0147,18.932421875,12.03,18.932421875L11.969999999999999,18.932421875Q9.98528,18.932421875,8.295480000000001,17.590421875Q6.60264,16.245021875,6.323510000000001,14.374321875Q6.26164,13.952021875,6.26125,13.524721875ZM19.860300000000002,22.831521875Q20.08,22.611821875,20.08,22.301221875Q20.08,21.990521875,19.860300000000002,21.770821875Q19.640700000000002,21.551221875,19.33,21.551221875Q18.857100000000003,21.551221875,18.5137,21.412821875Q18.2961,21.325221875,17.897,21.055821875Q17.3706,20.697321875,17.002200000000002,20.548821875Q16.3878,20.301221875,15.6225,20.301221875Q14.866,20.301221875,14.257,20.545221875Q13.89911,20.688721875,13.36722,21.043821875L13.35093,21.054721875L13.34483,21.058721875Q12.94337,21.327521875,12.7276,21.414021875Q12.38558,21.551121875,11.915,21.551221875Q11.44253,21.551221875,11.09947,21.413021875Q10.883289999999999,21.325921875,10.48197,21.055821875L10.48138,21.055421875Q9.954920000000001,20.696921875,9.587710000000001,20.548821875Q8.97352,20.301221875,8.2075,20.301221875Q7.45017,20.301221875,6.84094,20.545221875Q6.48287,20.688621875,5.95096,21.043821875L5.93441,21.054821875L5.93002,21.057821875Q5.52895,21.327021875,5.3131900000000005,21.413721875Q4.9711300000000005,21.551121875,4.5,21.551221875Q4.189339,21.551221875,3.9696698,21.770821875Q3.75,21.990521875,3.75,22.301221875Q3.75,22.611821875,3.9696703,22.831521875Q4.18934,23.051221875,4.5,23.051221875Q5.25582,23.051221875,5.8644099999999995,22.808121875Q6.22206,22.665321875,6.75337,22.311821875L6.77309,22.298721875L6.78066,22.293621875Q7.18066,22.025121875,7.39606,21.938521875Q7.7377199999999995,21.801221875,8.2075,21.801221875Q8.67941,21.801221875,9.02301,21.939721875Q9.23958,22.027021875,9.64132,22.297521875L9.642140000000001,22.298021875Q10.17052,22.656521875,10.53543,22.803621875Q11.14935,23.051121875,11.915,23.051221875Q12.67082,23.051221875,13.27941,22.808121875Q13.63707,22.665321875,14.1684,22.311821875L14.1881,22.298721875L14.1957,22.293621875Q14.5957,22.025121875,14.8111,21.938521875Q15.1527,21.801221875,15.6225,21.801221875Q16.0944,21.801221875,16.438000000000002,21.939721875Q16.654600000000002,22.027021875,17.0563,22.297521875L17.0571,22.298021875Q17.5855,22.656521875,17.950400000000002,22.803621875Q18.5644,23.051221875,19.33,23.051221875Q19.640700000000002,23.051221875,19.860300000000002,22.831521875ZM19.33,22.051221875Q19.58,22.051221875,19.58,22.301221875Q19.58,22.551221875,19.33,22.551221875Q18.6613,22.551221875,18.1374,22.339921875Q17.822,22.212821875,17.337899999999998,21.884321875L17.3355,21.882721875Q16.8902,21.582921875,16.625,21.476021875Q16.1914,21.301221875,15.6225,21.301221875Q15.056,21.301121875,14.6246,21.474621875Q14.3605,21.580721875,13.91697,21.878521875L13.90941,21.883621875L13.89144,21.895521875Q13.40339,22.220221875,13.09398,22.343821875Q12.57467,22.551121875,11.915,22.551221875Q11.24635,22.551121875,10.722380000000001,22.339921875Q10.40704,22.212821875,9.92286,21.884321875L9.920539999999999,21.882721875Q9.475249999999999,21.582921875,9.209990000000001,21.476021875Q8.77642,21.301221875,8.2075,21.301221875Q7.640969999999999,21.301121875,7.20956,21.474621875Q6.9455100000000005,21.580721875,6.50196,21.878521875L6.49441,21.883621875L6.47644,21.895521875Q5.98838,22.220221875,5.67898,22.343821875Q5.15967,22.551121875,4.5,22.551221875Q4.25,22.551221875,4.25,22.301221875Q4.25,22.051221875,4.5,22.051221875Q5.06782,22.051221875,5.4996,21.877721875Q5.76406,21.771421875,6.2087,21.472921875L6.213089999999999,21.470021875L6.2286,21.459621875Q6.717169999999999,21.133421875,7.026870000000001,21.009321875Q7.54659,20.801221875,8.2075,20.801221875Q8.8765,20.801221875,9.40072,21.012521875Q9.7182,21.140621875,10.20053,21.469021875L10.20216,21.470121875Q10.64754,21.770021875,10.91265,21.876821875Q11.34561,22.051221875,11.915,22.051221875Q12.48208,22.051221875,12.91368,21.878121875Q13.17804,21.772121875,13.62298,21.474221875L13.62907,21.470121875L13.64486,21.459621875Q14.1334,21.133421875,14.443,21.009321875Q14.9624,20.801221875,15.6225,20.801221875Q16.2908,20.801221875,16.8153,21.012621875Q17.133699999999997,21.140921875,17.6155,21.469021875Q18.060200000000002,21.769221875,18.326900000000002,21.876621875Q18.760199999999998,22.051221875,19.33,22.051221875Z" fill-rule="evenodd" fill="#333333" fill-opacity="1"/></g></g></svg>