<svg xmlns="http://www.w3.org/2000/svg" xmlns:xlink="http://www.w3.org/1999/xlink" fill="none" version="1.1" width="30" height="30" viewBox="0 0 30 30"><defs><clipPath id="master_svg0_719_0901"><rect x="0" y="0" width="30" height="30" rx="0"/></clipPath></defs><g clip-path="url(#master_svg0_719_0901)"><g><rect x="6.87451171875" y="2.5001220703125" width="16.25" height="25" rx="3" fill-opacity="0" stroke-opacity="1" stroke="#999999" fill="none" stroke-width="2" style="mix-blend-mode:passthrough"/></g><g><path d="M13.75048828125,5.2501220703125L16.25048828125,5.2501220703125Q16.348978281249998,5.2501220703125,16.44557828125,5.2693370703125Q16.54217828125,5.2885520703125,16.63316828125,5.3262430703125Q16.72416828125,5.3639340703125,16.80605828125,5.4186520703125Q16.88794828125,5.4733710703125,16.95759828125,5.5430150703125Q17.02723828125,5.6126590703125,17.08195828125,5.6945520703125Q17.13667828125,5.7764440703125,17.17436828125,5.8674390703125Q17.212058281250002,5.9584330703125,17.23127828125,6.0550320703125Q17.25048828125,6.1516306703125,17.25048828125,6.2501220703125Q17.25048828125,6.3486134703125,17.23127828125,6.4452120703125Q17.212058281250002,6.5418110703125,17.17436828125,6.6328050703125Q17.13667828125,6.7238000703125,17.08195828125,6.8056920703125Q17.02723828125,6.8875850703125,16.95759828125,6.9572290703125Q16.88794828125,7.0268730703125,16.80605828125,7.0815920703125Q16.72416828125,7.1363100703125,16.63316828125,7.1740010703125Q16.54217828125,7.2116920703125,16.44557828125,7.2309070703125Q16.348978281249998,7.2501220703125,16.25048828125,7.2501220703125L13.75048828125,7.2501220703125Q13.65199688125,7.2501220703125,13.55539828125,7.2309070703125Q13.45879928125,7.2116920703125,13.36780528125,7.1740010703125Q13.27681028125,7.1363100703125,13.19491828125,7.0815920703125Q13.11302528125,7.0268730703125,13.04338128125,6.9572290703125Q12.97373728125,6.8875850703125,12.91901828125,6.8056920703125Q12.86430028125,6.7238000703125,12.82660928125,6.6328050703125Q12.78891828125,6.5418110703125,12.769703281249999,6.4452120703125Q12.75048828125,6.3486134703125,12.75048828125,6.2501220703125Q12.75048828125,6.1516306703125,12.769703281249999,6.0550320703125Q12.78891828125,5.9584330703125,12.82660928125,5.8674390703125Q12.86430028125,5.7764440703125,12.91901828125,5.6945520703125Q12.97373728125,5.6126590703125,13.04338128125,5.5430150703125Q13.11302528125,5.4733710703125,13.19491828125,5.4186520703125Q13.27681028125,5.3639340703125,13.36780528125,5.3262430703125Q13.45879928125,5.2885520703125,13.55539828125,5.2693370703125Q13.65199688125,5.2501220703125,13.75048828125,5.2501220703125Z" fill-rule="evenodd" fill="#999999" fill-opacity="1" style="mix-blend-mode:passthrough"/></g><g><path d="M12.49951171875,22.7498779296875L17.49951171875,22.7498779296875Q17.598001718749998,22.7498779296875,17.69460171875,22.7690929296875Q17.79120171875,22.788307929687498,17.88219171875,22.8259989296875Q17.97319171875,22.8636899296875,18.05508171875,22.9184079296875Q18.13697171875,22.9731269296875,18.20662171875,23.0427709296875Q18.27626171875,23.1124149296875,18.33098171875,23.1943079296875Q18.38570171875,23.2761999296875,18.42339171875,23.3671949296875Q18.461081718750002,23.4581889296875,18.48029171875,23.5547879296875Q18.49951171875,23.6513865296875,18.49951171875,23.7498779296875Q18.49951171875,23.8483693296875,18.48029171875,23.9449679296875Q18.461081718750002,24.0415669296875,18.42339171875,24.1325609296875Q18.38570171875,24.2235559296875,18.33098171875,24.3054479296875Q18.27626171875,24.3873409296875,18.20662171875,24.4569849296875Q18.13697171875,24.5266289296875,18.05508171875,24.5813479296875Q17.97319171875,24.6360659296875,17.88219171875,24.6737569296875Q17.79120171875,24.711447929687502,17.69460171875,24.7306629296875Q17.598001718749998,24.7498779296875,17.49951171875,24.7498779296875L12.49951171875,24.7498779296875Q12.40102031875,24.7498779296875,12.30442171875,24.7306629296875Q12.20782271875,24.711447929687502,12.11682871875,24.6737569296875Q12.02583371875,24.6360659296875,11.94394171875,24.5813479296875Q11.86204871875,24.5266289296875,11.79240471875,24.4569849296875Q11.72276071875,24.3873409296875,11.66804171875,24.3054479296875Q11.61332371875,24.2235559296875,11.57563271875,24.1325609296875Q11.53794171875,24.0415669296875,11.518726718749999,23.9449679296875Q11.49951171875,23.8483693296875,11.49951171875,23.7498779296875Q11.49951171875,23.6513865296875,11.518726718749999,23.5547879296875Q11.53794171875,23.4581889296875,11.57563271875,23.3671949296875Q11.61332371875,23.2761999296875,11.66804171875,23.1943079296875Q11.72276071875,23.1124149296875,11.79240471875,23.0427709296875Q11.86204871875,22.9731269296875,11.94394171875,22.9184079296875Q12.02583371875,22.8636899296875,12.11682871875,22.8259989296875Q12.20782271875,22.788307929687498,12.30442171875,22.7690929296875Q12.40102031875,22.7498779296875,12.49951171875,22.7498779296875Z" fill-rule="evenodd" fill="#999999" fill-opacity="1" style="mix-blend-mode:passthrough"/></g></g></svg>