<svg xmlns="http://www.w3.org/2000/svg" xmlns:xlink="http://www.w3.org/1999/xlink" fill="none" version="1.1" width="24" height="24" viewBox="0 0 24 24"><defs><clipPath id="master_svg0_112_01030"><rect x="0" y="0" width="24" height="24" rx="0"/></clipPath></defs><g clip-path="url(#master_svg0_112_01030)"><g><path d="M7.6900365625,16.87505C8.6365365625,16.87505,9.5552865625,17.04225,10.5130365625,17.36025L10.5752865625,17.38125C11.2353265625,17.603949999999998,11.8300265625,17.86045,12.7390265625,18.29625L12.9130265625,18.38025C14.1048265625,18.95545,14.2480265625,19.02295,14.7168265625,19.21345C15.5800265625,19.56455,16.2895265625,19.73555,16.9765265625,19.73555C18.8253265625,19.73555,20.3433265625,19.23605,21.5613265625,18.23925C21.8813265625,17.969250000000002,22.3604265625,18.013550000000002,22.6255265625,18.33765C22.8905265625,18.66175,22.8389265625,19.14015,22.5108265625,19.40025C21.0145265625,20.62505,19.1590265625,21.23545,16.9765265625,21.23545C16.084826562499998,21.23545,15.2103265625,21.02775,14.2038265625,20.62345L14.0643265625,20.56645C13.7053265625,20.41945,13.3516265625,20.25985,13.0038265625,20.08795L12.0963265625,19.65145C11.2097865625,19.22695,10.6532865625,18.98695,10.0412865625,18.78445C9.2275365625,18.51445,8.465536562499999,18.37575,7.6907865625,18.37575C5.4190365625,18.37575,3.7757865625,18.96895,2.7100365625,20.12995C2.4300265625,20.43525,1.9555605625,20.45575,1.6502855625000001,20.17575C1.3450095625,19.89575,1.3245265625,19.42125,1.6045355625,19.11595C2.9830365624999997,17.614449999999998,5.0290365625,16.87575,7.6907865625,16.87575L7.6900365625,16.87505ZM7.5025365625,12.89095C8.4490365625,12.89095,9.3677865625,13.05825,10.3255365625,13.37625L10.3877865625,13.39725C11.0477865625,13.61995,11.6425265625,13.87655,12.5515265625,14.31225L12.7255265625,14.39625C13.9173265625,14.97145,14.0605265625,15.03895,14.5293265625,15.22945C15.3925265625,15.58045,16.1020265625,15.75145,16.7890265625,15.75145C18.6378265625,15.75145,20.1558265625,15.25195,21.3738265625,14.25525C21.6938265625,13.98525,22.1729265625,14.02955,22.4380265625,14.35365C22.7030265625,14.67775,22.6514265625,15.15615,22.3233265625,15.41625C20.8270265625,16.64095,18.9715265625,17.25145,16.7890265625,17.25145C15.8973265625,17.25145,15.0228265625,17.04375,14.0163265625,16.63945L13.8768265625,16.58245C13.5178265625,16.43545,13.1641265625,16.27585,12.8163265625,16.103949999999998L11.9088265625,15.66745C11.0222865625,15.24295,10.4657865625,15.00295,9.8537865625,14.80045C9.0400365625,14.53045,8.278036562499999,14.39175,7.5032865625,14.39175C5.2315365625,14.39175,3.5882865625,14.98495,2.5225365625,16.14595C2.2425265625,16.45125,1.7680605625,16.47175,1.4627855625,16.19175C1.1575099625,15.91175,1.1370269625,15.43725,1.4170355625,15.13195C2.7955365624999997,13.63045,4.8415365625,12.89175,7.5032865625,12.89175L7.5025365625,12.89095ZM18.5163265625,12C18.8197265625,12.00092,19.0928265625,12.18423,19.2086265625,12.46471C19.3244265625,12.74515,19.2602265625,13.06775,19.0458265625,13.28245C18.7487265625,13.55615,18.2885265625,13.54605,18.0037265625,13.25965C17.7190265625,12.97325,17.7115265625,12.51301,17.9868265625,12.2175C18.1270265625,12.07693,18.3177265625,11.99856,18.5163265625,12ZM12.3753265625,8.71875C12.7735265625,8.718,13.1553265625,8.875499999999999,13.4373265625,9.156749999999999C13.7193265625,9.437999999999999,13.8768265625,9.8205,13.8753265625,10.21875C13.8744265625,11.04683,13.2033265625,11.71792,12.3753265625,11.71875C11.5443265625,11.71875,10.8752865625,11.0415,10.8752865625,10.21875C10.8761165625,9.39067,11.5472265625,8.71958,12.3753265625,8.71875ZM5.7190365625,9C5.9162865625,8.99625,6.1075365625,9.0735,6.2485365625,9.214500000000001C6.3895365625,9.3555,6.4690365625,9.54825,6.4690365625,9.75C6.4690365625,10.1205,6.1990365625,10.425,5.8525365625,10.488L5.7182865625,10.49925L5.6710365625,10.4985C5.2982765625,10.469059999999999,5.002226562500001,10.17301,4.9727865625,9.80025L4.9697865624999995,9.75075C4.9697865624999995,9.33375,5.3102865625,9.00075,5.7197865625,9.00075L5.7190365625,9ZM18.8440265625,8.25C18.9431265625,8.24839,19.0387265625,8.28709,19.1088265625,8.35725C19.2148265625,8.465250000000001,19.2461265625,8.62607,19.1885265625,8.766C19.1309265625,8.90593,18.9953265625,8.99799,18.8440265625,9C18.6369265625,9,18.4690265625,8.83211,18.4690265625,8.625C18.4690265625,8.41789,18.6369265625,8.25,18.8440265625,8.25ZM15.1300265625,6.00075C15.7279265625,6.02658,16.203826562499998,6.510949999999999,16.219026562499998,7.10925C16.219026562499998,7.4115,16.1013265625,7.7025,15.8913265625,7.91625C15.6813265625,8.129999999999999,15.3955265625,8.25075,15.0985265625,8.25C14.4756265625,8.23747,13.9754265625,7.73225,13.9690265625,7.10925C13.9908265625,6.531000000000001,14.4265265625,6.0607500000000005,14.9770265625,6.00525L15.1300265625,6.00075ZM9.7082865625,2.53125C10.5332965625,2.53740669,11.1997665625,3.206223,11.2030365625,4.03125C11.2030365625,4.8629999999999995,10.5265365625,5.53125,9.6985365625,5.53125C8.8705365625,5.53125,8.193286562499999,4.8622499999999995,8.2030365625,4.03125C8.2030365625,3.20025,8.8795365625,2.53125,9.7082865625,2.53125Z" fill="#333333" fill-opacity="1"/></g></g></svg>