<svg xmlns="http://www.w3.org/2000/svg" xmlns:xlink="http://www.w3.org/1999/xlink" fill="none" version="1.1" width="29.5" height="29.5" viewBox="0 0 29.5 29.5"><g><g><g><path d="M19.73998976655632,10.779664278030396L9.760009766556323,10.779664278030396Q9.686141266556323,10.779664278030396,9.613691766556322,10.794075278030395Q9.541242766556323,10.808486278030395,9.472996766556323,10.836754278030396Q9.404751766556323,10.865023278030396,9.343331766556323,10.906062278030396Q9.281912766556323,10.947101278030395,9.229679766556323,10.999334278030396Q9.177446766556322,11.051567278030396,9.136407766556323,11.112986278030396Q9.095368766556323,11.174406278030396,9.067099766556323,11.242651278030396Q9.038831766556322,11.310897278030396,9.024420766556322,11.383346278030395Q9.010009766556323,11.455795778030396,9.010009766556323,11.529664278030396Q9.010009766556323,11.603532778030395,9.024420766556322,11.675982278030396Q9.038831766556322,11.748431278030395,9.067099766556323,11.816677278030395Q9.095368766556323,11.884922278030395,9.136407766556323,11.946342278030395Q9.177446766556322,12.007761278030396,9.229679766556323,12.059994278030395Q9.281912766556323,12.112227278030396,9.343331766556323,12.153266278030395Q9.404751766556323,12.194305278030395,9.472996766556323,12.222574278030395Q9.541242766556323,12.250842278030396,9.613691766556322,12.265253278030396Q9.686141266556323,12.279664278030396,9.760009766556323,12.279664278030396L19.73998976655632,12.279664278030396Q19.813809766556325,12.279664278030396,19.886309766556323,12.265253278030396Q19.958709766556325,12.250842278030396,20.027009766556322,12.222574278030395Q20.095209766556323,12.194305278030395,20.15670976655632,12.153266278030395Q20.218109766556324,12.112227278030396,20.270309766556323,12.059994278030395Q20.322509766556323,12.007761278030396,20.363609766556323,11.946342278030395Q20.404609766556323,11.884922278030395,20.43290976655632,11.816677278030395Q20.461209766556323,11.748431278030395,20.475609766556325,11.675982278030396Q20.490009766556323,11.603532778030395,20.490009766556323,11.529664278030396Q20.490009766556323,11.455795778030396,20.475609766556325,11.383346278030395Q20.461209766556323,11.310897278030396,20.43290976655632,11.242651278030396Q20.404609766556323,11.174406278030396,20.363609766556323,11.112986278030396Q20.322509766556323,11.051567278030396,20.270309766556323,10.999334278030396Q20.218109766556324,10.947101278030395,20.15670976655632,10.906062278030396Q20.095209766556323,10.865023278030396,20.027009766556322,10.836754278030396Q19.958709766556325,10.808486278030395,19.886309766556323,10.794075278030395Q19.813809766556325,10.779664278030396,19.73998976655632,10.779664278030396Z" fill-rule="evenodd" fill="#2B3D56" fill-opacity="1"/></g><g><path d="M14,9.75L14,11.52966Q14,11.60353,14.014410999999999,11.67598Q14.028822,11.748429999999999,14.05709,11.81668Q14.085359,11.884920000000001,14.126398,11.94634Q14.167437,12.007760000000001,14.21967,12.059989999999999Q14.271903,12.11223,14.333322,12.15327Q14.394742,12.19431,14.462987,12.222570000000001Q14.531233,12.25084,14.603682,12.26525Q14.6761315,12.27966,14.75,12.27966Q14.8238685,12.27966,14.896318,12.26525Q14.968767,12.25084,15.037013,12.222570000000001Q15.105258,12.19431,15.166678,12.15327Q15.228097,12.11223,15.28033,12.059989999999999Q15.332563,12.007760000000001,15.373602,11.94634Q15.414641,11.884920000000001,15.44291,11.81668Q15.471178,11.748429999999999,15.485589000000001,11.67598Q15.5,11.60353,15.5,11.52966L15.5,9.75Q15.5,9.6761315,15.485589000000001,9.603682Q15.471178,9.531233,15.44291,9.462987Q15.414641,9.394742,15.373602,9.333322Q15.332563,9.271903,15.28033,9.21967Q15.228097,9.167437,15.166678,9.126398Q15.105258,9.085359,15.037013,9.05709Q14.968767,9.028822,14.896318,9.014410999999999Q14.8238685,9,14.75,9Q14.6761315,9,14.603682,9.014410999999999Q14.531233,9.028822,14.462987,9.05709Q14.394742,9.085359,14.333322,9.126398Q14.271903,9.167437,14.21967,9.21967Q14.167437,9.271903,14.126398,9.333322Q14.085359,9.394742,14.05709,9.462987Q14.028822,9.531233,14.014410999999999,9.603682Q14,9.6761315,14,9.75Z" fill-rule="evenodd" fill="#2B3D56" fill-opacity="1"/></g><g><path d="M14.49792,16.832477064628602Q12.52447,18.9999970646286,9.75,18.9999970646286Q9.6761315,18.9999970646286,9.603682,19.0144070646286Q9.531233,19.0288270646286,9.462987,19.0570870646286Q9.394742,19.085357064628603,9.333322,19.126397064628602Q9.271903,19.1674370646286,9.21967,19.219667064628602Q9.167437,19.2718970646286,9.126398,19.333317064628602Q9.085359,19.3947370646286,9.05709,19.4629870646286Q9.028822,19.5312370646286,9.014410999999999,19.603687064628602Q9,19.676127064628602,9,19.7499970646286Q9,19.8238670646286,9.014410999999999,19.8963170646286Q9.028822,19.9687670646286,9.05709,20.0370070646286Q9.085359,20.105257064628603,9.126398,20.1666770646286Q9.167437,20.2280970646286,9.21967,20.2803270646286Q9.271903,20.3325670646286,9.333322,20.3735970646286Q9.394742,20.4146370646286,9.462987,20.4429070646286Q9.531233,20.4711770646286,9.603682,20.485587064628604Q9.6761315,20.4999970646286,9.75,20.4999970646286Q11.44097,20.4999970646286,12.98441,19.783017064628602Q14.46733,19.0941470646286,15.60708,17.842317064628602Q18,15.214067064628601,18,11.508457064628601Q18,11.434588564628601,17.985590000000002,11.3621390646286Q17.97118,11.289690064628601,17.942909999999998,11.221444064628601Q17.91464,11.153199064628602,17.8736,11.091779064628602Q17.83256,11.030360064628601,17.78033,10.978127064628602Q17.7281,10.9258940646286,17.66668,10.884855064628601Q17.60526,10.843816064628601,17.537010000000002,10.815547064628602Q17.46877,10.787279064628601,17.39632,10.7728680646286Q17.32387,10.758457064628601,17.25,10.758457064628601Q17.23198,10.758457064628601,17.21397,10.759323064628601Q17.0743,10.766040064628601,16.94642,10.8226430646286Q16.818550000000002,10.8792450646286,16.71967,10.978127064628602Q16.61418,11.0836160646286,16.55709,11.221444064628601Q16.5,11.359273064628601,16.5,11.508457064628601L16.5,11.5092722576286Q16.49974,14.6337970646286,14.49792,16.832477064628602Z" fill-rule="evenodd" fill="#2B3D56" fill-opacity="1"/></g><g><path d="M15.808970683868408,16.69568713192749Q17.465622683868407,18.99999913192749,19.75000268386841,18.99999913192749Q19.82387268386841,18.99999913192749,19.89632268386841,19.01440913192749Q19.96876268386841,19.02881913192749,20.037012683868408,19.05708913192749Q20.105262683868407,19.08535913192749,20.16668268386841,19.12639913192749Q20.228092683868407,19.16743913192749,20.28033268386841,19.21966913192749Q20.33256268386841,19.27189913192749,20.37360268386841,19.33331913192749Q20.414642683868408,19.39473913192749,20.442912683868407,19.46298913192749Q20.471182683868406,19.53122913192749,20.485592683868408,19.60367913192749Q20.50000268386841,19.67612913192749,20.50000268386841,19.74999913192749Q20.50000268386841,19.82386913192749,20.485592683868408,19.89631913192749Q20.471182683868406,19.96876913192749,20.442912683868407,20.03700913192749Q20.414642683868408,20.10525913192749,20.37360268386841,20.16667913192749Q20.33256268386841,20.22809913192749,20.28033268386841,20.28032913192749Q20.228092683868407,20.33255913192749,20.16668268386841,20.37359913192749Q20.105262683868407,20.41463913192749,20.037012683868408,20.44290913192749Q19.96876268386841,20.47117913192749,19.89632268386841,20.48558913192749Q19.82387268386841,20.49999913192749,19.75000268386841,20.49999913192749Q18.22532268386841,20.49999913192749,16.84976268386841,19.687309131927492Q15.567845683868407,18.92994913192749,14.591054683868409,17.57129113192749Q14.450012683868408,17.37510913192749,14.450012683868408,17.13348913192749Q14.450012683868408,17.07356463192749,14.459527683868409,17.01440013192749L14.459841683868408,17.01246313192749Q14.482076683868408,16.87647813192749,14.551195683868409,16.75727613192749Q14.620314683868408,16.63807413192749,14.727288683868409,16.55122413192749Q14.744358683868409,16.53736613192749,14.762210683868409,16.52453113192749Q14.958392683868409,16.38348913192749,15.200012683868408,16.38348913192749Q15.259937183868407,16.38348913192749,15.319101683868409,16.39300413192749L15.321038683868409,16.39331813192749Q15.457023683868409,16.41555313192749,15.576225683868408,16.48467213192749Q15.695427683868408,16.55379113192749,15.782277683868408,16.66076513192749Q15.796135683868409,16.67783513192749,15.808970683868408,16.69568713192749Z" fill-rule="evenodd" fill="#2B3D56" fill-opacity="1"/></g></g><g><path d="M3,11.45L3,18.05Q3,22.4857,5.00717,24.4928Q7.01434,26.5,11.45,26.5L18.05,26.5Q22.4857,26.5,24.4928,24.4928Q26.5,22.4857,26.5,18.05L26.5,11.45Q26.5,7.01434,24.4928,5.00717Q22.4857,3,18.05,3L11.45,3Q7.01434,3,5.00717,5.00717Q3,7.01434,3,11.45ZM6.06783,23.4322Q4.5,21.8643,4.5,18.05L4.5,11.45Q4.5,7.63566,6.06783,6.06783Q7.63566,4.5,11.45,4.5L18.05,4.5Q21.8643,4.5,23.4322,6.06783Q25,7.63566,25,11.45L25,18.05Q25,21.8643,23.4322,23.4322Q21.8643,25,18.05,25L11.45,25Q7.63566,25,6.06783,23.4322Z" fill-rule="evenodd" fill="#2B3D56" fill-opacity="1"/></g><g transform="matrix(-1,0,0,-1,57.5,57.5)" style="opacity:0;"><path d="M28,28.75L28,56.75Q28,56.823899999999995,28.014411,56.8963Q28.028822,56.9688,28.05709,57.037Q28.085359,57.1053,28.126398000000002,57.1667Q28.167437,57.2281,28.21967,57.2803Q28.271903000000002,57.3326,28.333322,57.373599999999996Q28.394742,57.4146,28.462987,57.4429Q28.531233,57.471199999999996,28.603682,57.485600000000005Q28.6761315,57.5,28.75,57.5L56.75,57.5Q56.823899999999995,57.5,56.8963,57.485600000000005Q56.9688,57.471199999999996,57.037,57.4429Q57.1053,57.4146,57.1667,57.373599999999996Q57.2281,57.3326,57.2803,57.2803Q57.3326,57.2281,57.373599999999996,57.1667Q57.4146,57.1053,57.4429,57.037Q57.471199999999996,56.9688,57.485600000000005,56.8963Q57.5,56.823899999999995,57.5,56.75L57.5,28.75Q57.5,28.6761315,57.485600000000005,28.603682Q57.471199999999996,28.531233,57.4429,28.462987Q57.4146,28.394742,57.373599999999996,28.333322Q57.3326,28.271903000000002,57.2803,28.21967Q57.2281,28.167437,57.1667,28.126398000000002Q57.1053,28.085359,57.037,28.05709Q56.9688,28.028822,56.8963,28.014411Q56.823899999999995,28,56.75,28L28.75,28Q28.6761315,28,28.603682,28.014411Q28.531233,28.028822,28.462987,28.05709Q28.394742,28.085359,28.333322,28.126398000000002Q28.271903000000002,28.167437,28.21967,28.21967Q28.167437,28.271903000000002,28.126398000000002,28.333322Q28.085359,28.394742,28.05709,28.462987Q28.028822,28.531233,28.014411,28.603682Q28,28.6761315,28,28.75ZM29.5,56L56,56L56,29.5L29.5,29.5L29.5,56Z" fill-rule="evenodd" fill="#2B3D56" fill-opacity="1"/></g></g></svg>