<svg xmlns="http://www.w3.org/2000/svg" xmlns:xlink="http://www.w3.org/1999/xlink" fill="none" version="1.1" width="16" height="16" viewBox="0 0 16 16"><g><g><path d="M13.74671708984375,5.63317390625C13.04671708984375,2.55317390625,10.36000708984375,1.16650390625,8.00000708984375,1.16650390625C8.00000708984375,1.16650390625,8.00000708984375,1.16650390625,7.99333708984375,1.16650390625C5.64000708984375,1.16650390625,2.94666908984375,2.54650390625,2.24666908984375,5.62650390625C1.46666908984375,9.06650390625,3.5733370898437498,11.97980390625,5.48000708984375,13.81320390625C6.18666708984375,14.49320390625,7.09336708984375,15.63320390625,8.000037089843751,15.63320390625C8.90670708984375,15.63320390625,9.813337089843749,14.49320390625,10.51333708984375,13.81320390625C12.42001708984375,11.97980390625,14.52671708984375,9.07317390625,13.74671708984375,5.63317390625ZM8.00000708984375,8.97317390625C6.84000708984375,8.97317390625,5.900007089843751,8.03317390625,5.900007089843751,6.87317390625C5.900007089843751,5.71317390625,6.84000708984375,4.773173906249999,8.00000708984375,4.773173906249999C9.160007089843749,4.773173906249999,10.10000708984375,5.71317390625,10.10000708984375,6.87317390625C10.10000708984375,8.03317390625,9.160007089843749,8.97317390625,8.00000708984375,8.97317390625Z" fill="#FFFFFF" fill-opacity="1"/></g><g style="opacity:0;"></g><g transform="matrix(-1,0,0,-1,32,32)" style="opacity:0;"></g></g></svg>