<svg xmlns="http://www.w3.org/2000/svg" xmlns:xlink="http://www.w3.org/1999/xlink" fill="none" version="1.1" width="16" height="16" viewBox="0 0 16 16"><defs><clipPath id="master_svg0_539_06375"><rect x="0" y="0" width="16" height="16" rx="0"/></clipPath></defs><g clip-path="url(#master_svg0_539_06375)"><rect x="0" y="0" width="16" height="16" rx="0" fill="#FFFFFF" fill-opacity="0"/><g><g transform="matrix(1,0,0,-1,0,31.400390625)"><g><g><path d="M6.8796,22.27661821713257L5.012931,24.236615217132567Q4.946523,24.306345217132566,4.910762,24.395745217132568Q4.875,24.48515521713257,4.875,24.58144521713257L4.875149,24.59363521713257Q4.877574,24.693065217132567,4.917863,24.783995217132567Q4.958152,24.874925217132567,5.030172,24.943515217132568Q5.099901,25.00992521713257,5.189305,25.04568521713257Q5.2787088,25.08144521713257,5.375,25.08144521713257L5.3871915,25.081295217132567Q5.486618,25.07887521713257,5.577548,25.038585217132567Q5.668478,24.99829521713257,5.737069,24.92627521713257L7.1625,23.42957521713257L7.75289,24.359445217132567Q7.8062000000000005,24.443415217132568,7.887589999999999,24.500585217132567Q7.9689700000000006,24.557755217132566,8.06603,24.579425217132567Q8.1631,24.60110521713257,8.26107,24.583985217132568Q8.35904,24.56686521713257,8.443,24.51355521713257Q8.49478,24.480685217132567,8.53707,24.436275217132568L10.98707,21.863773217132568Q11.05348,21.79404421713257,11.08924,21.704640217132567Q11.125,21.615236417132568,11.125,21.51894521713257L11.125,21.518739312132567L11.12485,21.50675371713257Q11.12243,21.40732721713257,11.082139999999999,21.316397217132568Q11.04185,21.225467217132568,10.96983,21.15687621713257Q10.9001,21.090468217132567,10.8107,21.054707217132567Q10.72129,21.01894521713257,10.625,21.01894521713257L10.61281,21.01909421713257Q10.51338,21.021519217132568,10.422450000000001,21.06180821713257Q10.331520000000001,21.102097217132567,10.26293,21.17411721713257L8.25417,23.283315217132568L7.6637699999999995,22.35344121713257Q7.6309000000000005,22.30166921713257,7.5864899999999995,22.25937621713257Q7.51447,22.19078621713257,7.42169,22.15497721713257Q7.3289,22.11916921713257,7.22948,22.121594217132568Q7.13005,22.124019217132567,7.0391200000000005,22.164308217132568Q6.94819,22.204598217132567,6.8796,22.27661821713257Z" fill-rule="evenodd" fill="#000000" fill-opacity="1"/></g><g><path d="M10.125000969116211,22.01894521713257L10.125000969116211,22.74394521713257Q10.125000969116211,22.793195217132567,10.13460796911621,22.841495217132568Q10.144214969116211,22.88978521713257,10.163060969116211,22.935285217132567Q10.181905969116212,22.980785217132567,10.209265969116212,23.02172521713257Q10.23662496911621,23.06267521713257,10.27144696911621,23.09749521713257Q10.30626896911621,23.132325217132568,10.347215969116212,23.15967521713257Q10.388161969116211,23.187035217132568,10.43365896911621,23.20588521713257Q10.479153969116211,23.22473521713257,10.52745396911621,23.234335217132568Q10.57575396911621,23.24394521713257,10.62500396911621,23.24394521713257Q10.674243969116212,23.24394521713257,10.722543969116211,23.234335217132568Q10.77084396911621,23.22473521713257,10.816343969116211,23.20588521713257Q10.861843969116212,23.187035217132568,10.90278396911621,23.15967521713257Q10.943733969116211,23.132325217132568,10.978553969116211,23.09749521713257Q11.013373969116211,23.06267521713257,11.04073396911621,23.02173521713257Q11.06809396911621,22.980785217132567,11.086943969116211,22.935285217132567Q11.10578396911621,22.88978521713257,11.11539396911621,22.841495217132568Q11.12500396911621,22.793195217132567,11.12500396911621,22.74394521713257L11.12500396911621,21.51894521713257Q11.12500396911621,21.469699517132568,11.11539396911621,21.421400117132567Q11.10578396911621,21.373100217132567,11.086943969116211,21.32760321713257Q11.06809396911621,21.28210621713257,11.04073396911621,21.241160217132567Q11.013373969116211,21.20021421713257,10.978553969116211,21.165392217132567Q10.943733969116211,21.13057021713257,10.90278396911621,21.103210217132567Q10.861843969116212,21.07585121713257,10.816343969116211,21.05700521713257Q10.77084396911621,21.038160217132567,10.722543969116211,21.028552217132567Q10.674243969116212,21.01894521713257,10.62500396911621,21.01894521713257L9.458333969116211,21.01894521713257Q9.40908826911621,21.01894521713257,9.360788869116211,21.028552217132567Q9.312488969116211,21.038160217132567,9.26699196911621,21.05700521713257Q9.221494969116211,21.07585121713257,9.180548969116211,21.103210217132567Q9.139602969116211,21.13057021713257,9.104780969116211,21.165392217132567Q9.069958969116211,21.20021421713257,9.042598969116211,21.241160217132567Q9.01523996911621,21.28210621713257,8.99639396911621,21.32760321713257Q8.97754896911621,21.373100217132567,8.967940969116212,21.421400117132567Q8.958333969116211,21.469699517132568,8.958333969116211,21.51894521713257Q8.958333969116211,21.56819091713257,8.967940969116212,21.61649031713257Q8.97754896911621,21.66479021713257,8.99639396911621,21.710287217132567Q9.01523996911621,21.755784217132568,9.042598969116211,21.79673021713257Q9.069958969116211,21.837676217132568,9.104780969116211,21.87249821713257Q9.139602969116211,21.90732021713257,9.180548969116211,21.93468021713257Q9.221494969116211,21.962039217132567,9.26699196911621,21.980885217132567Q9.312488969116211,21.99973021713257,9.360788869116211,22.00933821713257Q9.40908826911621,22.01894521713257,9.458333969116211,22.01894521713257L10.125000969116211,22.01894521713257Z" fill-rule="evenodd" fill="#000000" fill-opacity="1"/></g><g><path d="M1.6666667461395264,21.21269533634186L1.6666667461395264,24.887695336341856Q1.6666667461395264,27.38459533634186,2.7525147461395263,28.524695336341857Q3.8482167461395265,29.675195336341858,6.2499967461395265,29.675195336341858L9.749996746139526,29.675195336341858Q12.151786746139527,29.675195336341858,13.247466746139526,28.524695336341857Q14.333366746139527,27.38459533634186,14.333366746139527,24.887695336341856L14.333366746139527,21.21269533634186Q14.333366746139527,18.71581533634186,13.247466746139526,17.575680336341858Q12.151786746139527,16.425195336341858,9.749996746139526,16.425195336341858L6.2499967461395265,16.425195336341858Q3.8482167461395265,16.425195336341858,2.7525147461395263,17.575680336341858Q1.6666667461395264,18.71581533634186,1.6666667461395264,21.21269533634186ZM3.4766567461395264,27.83509533634186Q2.6666667461395264,26.984595336341858,2.6666667461395264,24.887695336341856L2.6666667461395264,21.21269533634186Q2.6666667461395264,19.115815336341857,3.4766567461395264,18.26533533634186Q4.276786746139527,17.425195336341858,6.2499967461395265,17.425195336341858L9.749996746139526,17.425195336341858Q11.723216746139526,17.425195336341858,12.523366746139526,18.26533533634186Q13.333366746139527,19.115825336341857,13.333366746139527,21.21269533634186L13.333366746139527,24.887695336341856Q13.333366746139527,26.984595336341858,12.523366746139526,27.83509533634186Q11.723216746139526,28.675195336341858,9.749996746139526,28.675195336341858L6.2499967461395265,28.675195336341858Q4.276786746139527,28.675195336341858,3.4766567461395264,27.83509533634186Z" fill-rule="evenodd" fill="#000000" fill-opacity="1"/></g><g style="opacity:0;"></g></g></g></g></g></svg>