<svg xmlns="http://www.w3.org/2000/svg" xmlns:xlink="http://www.w3.org/1999/xlink" fill="none" version="1.1" width="24" height="24" viewBox="0 0 24 24"><defs><clipPath id="master_svg0_112_10079"><rect x="0" y="0" width="24" height="24" rx="0"/></clipPath></defs><g><g clip-path="url(#master_svg0_112_10079)"><g><path d="M21.0341,8.04762L18.136400000000002,8.04762L18.136400000000002,5.0119C18.1358,4.453305,17.703699999999998,4.000627005,17.1705,4L9.829550000000001,4C9.29634,4.000627191,8.86424,4.453305,8.86364,5.0119L8.86364,8.04762L5.965909,8.04762C5.432701,8.04825,5.000598947,8.50092,5,9.05952L5,15.9405C5.000598505,16.4991,5.4327,16.9518,5.965909,16.9524L8.86364,16.9524L8.86364,19.9881C8.86423,20.5467,9.29634,20.9994,9.829550000000001,21L17.1705,21C17.703699999999998,20.9994,18.1358,20.5467,18.136400000000002,19.9881L18.136400000000002,16.9524L21.0341,16.9524C21.5673,16.9518,21.9994,16.4991,22,15.9405L22,9.05952C21.9994,8.50092,21.5673,8.04825,21.0341,8.04762ZM9.63636,5.0119C9.63636,4.900133,9.722850000000001,4.809524,9.829550000000001,4.809524L17.1705,4.809524C17.2771,4.809524,17.363599999999998,4.900133,17.363599999999998,5.0119L17.363599999999998,8.04762L9.63636,8.04762L9.63636,5.0119ZM17.363599999999998,19.9881C17.363599999999998,20.0999,17.2771,20.1905,17.1705,20.1905L9.829550000000001,20.1905C9.722850000000001,20.1905,9.63636,20.0999,9.63636,19.9881L9.63636,14.5238L17.363599999999998,14.5238L17.363599999999998,19.9881ZM21.2273,15.9405C21.2273,16.0522,21.1408,16.142899999999997,21.0341,16.142899999999997L18.136400000000002,16.142899999999997L18.136400000000002,14.5238L19.2955,14.5238C19.5088,14.5238,19.681800000000003,14.3426,19.681800000000003,14.119C19.681800000000003,13.8955,19.5088,13.71428,19.2955,13.71428L7.704549999999999,13.71428C7.49116,13.71428,7.31818,13.8955,7.31818,14.119C7.31818,14.3426,7.49116,14.5238,7.704549999999999,14.5238L8.86364,14.5238L8.86364,16.142899999999997L5.965909,16.142899999999997C5.859218,16.142899999999997,5.772727,16.0522,5.772727,15.9405L5.772727,9.05952C5.772727,8.94775,5.859218,8.857140000000001,5.965909,8.857140000000001L21.0341,8.857140000000001C21.1408,8.857140000000001,21.2273,8.94775,21.2273,9.05952L21.2273,15.9405ZM20.4545,10.07143C20.4545,10.29497,20.281599999999997,10.476189999999999,20.068199999999997,10.476189999999999C19.854799999999997,10.476189999999999,19.681800000000003,10.29497,19.681800000000003,10.07143C19.681800000000003,9.84788,19.854799999999997,9.66667,20.068199999999997,9.66667C20.281599999999997,9.66667,20.4545,9.84788,20.4545,10.07143ZM16.590899999999998,15.7381C16.590899999999998,15.9616,16.4179,16.142899999999997,16.2045,16.142899999999997L10.795449999999999,16.142899999999997C10.58207,16.142899999999997,10.409089999999999,15.9616,10.409089999999999,15.7381C10.409089999999999,15.5145,10.58207,15.3333,10.795449999999999,15.3333L16.2045,15.3333C16.4179,15.3333,16.590899999999998,15.5145,16.590899999999998,15.7381ZM16.590899999999998,18.1667C16.590899999999998,18.3902,16.4179,18.5714,16.2045,18.5714L15.4318,18.5714C15.2184,18.5714,15.0455,18.3902,15.0455,18.1667C15.0455,17.9431,15.2184,17.7619,15.4318,17.7619L16.2045,17.7619C16.4179,17.7619,16.590899999999998,17.9431,16.590899999999998,18.1667ZM14.27273,18.1667C14.27273,18.3902,14.09975,18.5714,13.88636,18.5714L10.795449999999999,18.5714C10.58207,18.5714,10.409089999999999,18.3902,10.409089999999999,18.1667C10.409089999999999,17.9431,10.58207,17.7619,10.795449999999999,17.7619L13.88636,17.7619C14.09975,17.7619,14.27273,17.9431,14.27273,18.1667Z" fill="#333333" fill-opacity="1"/><path d="M22.25,15.9407L22.25,9.059249999999999Q22.2494,8.5403,21.8976,8.171710000000001Q21.5411,7.79821,21.0344,7.79762L18.386400000000002,7.79762L18.386400000000002,5.0119Q18.3858,4.492678,18.034,4.124094Q17.677500000000002,3.750596,17.1707,3.75L9.829550000000001,3.75Q9.32254,3.750596,8.96602,4.124094Q8.61419,4.492678,8.61364,5.01164L8.61364,7.79762L5.965909,7.79762Q5.458907,7.79821,5.102387,8.171710000000001Q4.750557,8.5403,4.75,9.059249999999999L4.75,15.9405Q4.750556,16.459699999999998,5.102387,16.8283Q5.458905,17.2018,5.965616,17.2024L8.61364,17.2024L8.61364,19.9881Q8.61419,20.5073,8.96602,20.8759Q9.32254,21.2494,9.82925,21.25L17.1705,21.25Q17.677500000000002,21.2494,18.034,20.8759Q18.3858,20.5073,18.386400000000002,19.9884L18.386400000000002,17.2024L21.0341,17.2024Q21.5411,17.2018,21.8976,16.8283Q22.2494,16.459699999999998,22.25,15.9407ZM21.75,9.05952L21.75,15.9402Q21.7497,16.2591,21.5359,16.483Q21.3269,16.701999999999998,21.0341,16.7024L17.886400000000002,16.7024L17.886400000000002,19.9878Q17.886,20.3068,17.6723,20.5307Q17.4633,20.7497,17.1705,20.75L9.82984,20.75Q9.53673,20.7497,9.3277,20.5307Q9.11398,20.3068,9.11364,19.9881L9.11364,16.7024L5.966202,16.7024Q5.673096,16.701999999999998,5.464065,16.483Q5.250342,16.2591,5.25,15.9405L5.25,9.05979Q5.250342,8.74085,5.464065,8.51695Q5.673097,8.29796,5.965909,8.29762L9.11364,8.29762L9.11364,5.01217Q9.11398,4.693232,9.3277,4.469332Q9.53673,4.250345,9.829550000000001,4.25L17.1702,4.25Q17.4633,4.250344,17.6723,4.469331Q17.886,4.693231,17.886400000000002,5.0119L17.886400000000002,8.29762L21.0338,8.29762Q21.3269,8.29796,21.5359,8.51695Q21.7496,8.74076,21.75,9.05952ZM9.38636,5.0119L9.38636,8.29762L17.613599999999998,8.29762L17.613599999999998,5.0119Q17.613599999999998,4.827911,17.4879,4.696181Q17.3574,4.559524,17.1705,4.559524L9.829550000000001,4.559524Q9.64255,4.559524,9.51211,4.696181Q9.38636,4.827911,9.38636,5.0119ZM9.88636,7.79762L17.113599999999998,7.79762L17.113599999999998,5.05952L9.88636,5.05952L9.88636,7.79762ZM21.4773,15.9405L21.4773,9.05952Q21.4773,8.875530000000001,21.3515,8.7438Q21.2211,8.607140000000001,21.0341,8.607140000000001L5.965909,8.607140000000001Q5.778916,8.607140000000001,5.64847,8.7438Q5.522727,8.875530000000001,5.522727,9.05952L5.522727,15.9405Q5.522727,16.124499999999998,5.64847,16.2562Q5.778915,16.392899999999997,5.965909,16.392899999999997L9.11364,16.392899999999997L9.11364,14.2738L7.704549999999999,14.2738Q7.56818,14.2738,7.56818,14.119Q7.56818,13.96428,7.704549999999999,13.96428L19.2955,13.96428Q19.431800000000003,13.96428,19.431800000000003,14.119Q19.431800000000003,14.2738,19.2955,14.2738L17.886400000000002,14.2738L17.886400000000002,16.392899999999997L21.0341,16.392899999999997Q21.2211,16.392899999999997,21.3515,16.2562Q21.4773,16.124499999999998,21.4773,15.9405ZM20.9773,9.107140000000001L20.9773,15.8929L18.386400000000002,15.8929L18.386400000000002,14.7738L19.2955,14.7738Q19.5625,14.7738,19.749499999999998,14.5779Q19.931800000000003,14.3869,19.931800000000003,14.119Q19.931800000000003,13.85122,19.749499999999998,13.66022Q19.5625,13.46428,19.2955,13.46428L7.704549999999999,13.46428Q7.437530000000001,13.46428,7.25051,13.66022Q7.06818,13.85122,7.06818,14.119Q7.06818,14.3869,7.25051,14.5779Q7.437530000000001,14.7738,7.704549999999999,14.7738L8.61364,14.7738L8.61364,15.8929L6.02273,15.8929L6.02273,9.107140000000001L20.9773,9.107140000000001ZM20.522199999999998,9.6126Q20.3352,9.41667,20.068199999999997,9.41667Q19.8012,9.41667,19.6141,9.6126Q19.431800000000003,9.803609999999999,19.431800000000003,10.07143Q19.431800000000003,10.33925,19.6141,10.53026Q19.8012,10.726189999999999,20.068199999999997,10.726189999999999Q20.3352,10.726189999999999,20.522199999999998,10.53026Q20.7045,10.33925,20.7045,10.07143Q20.7045,9.8036,20.522199999999998,9.6126ZM19.9758,9.957840000000001Q20.0151,9.91667,20.068199999999997,9.91667Q20.2045,9.91667,20.2045,10.07143Q20.2045,10.226189999999999,20.068199999999997,10.226189999999999Q19.931800000000003,10.226189999999999,19.931800000000003,10.07143Q19.931800000000003,10.00393,19.9758,9.957840000000001ZM17.613599999999998,19.9881L17.613599999999998,14.2738L9.38636,14.2738L9.38636,19.9881Q9.38636,20.1721,9.51211,20.3038Q9.64255,20.4405,9.829550000000001,20.4405L17.1705,20.4405Q17.3574,20.4405,17.4879,20.3038Q17.613599999999998,20.1721,17.613599999999998,19.9881ZM17.113599999999998,14.7738L17.113599999999998,19.9405L9.88636,19.9405L9.88636,14.7738L17.113599999999998,14.7738ZM16.6586,15.2793Q16.471600000000002,15.0833,16.2045,15.0833L10.795449999999999,15.0833Q10.52844,15.0833,10.34141,15.2793Q10.159089999999999,15.4703,10.159089999999999,15.7381Q10.159089999999999,16.0059,10.34141,16.1969Q10.52844,16.392899999999997,10.795449999999999,16.392899999999997L16.2045,16.392899999999997Q16.471600000000002,16.392899999999997,16.6586,16.1969Q16.840899999999998,16.0059,16.840899999999998,15.7381Q16.840899999999998,15.4703,16.6586,15.2793ZM10.795449999999999,15.5833L16.2045,15.5833Q16.2576,15.5833,16.2969,15.6245Q16.340899999999998,15.6706,16.340899999999998,15.7381Q16.340899999999998,15.8056,16.2969,15.8517Q16.2576,15.8929,16.2045,15.8929L10.795449999999999,15.8929Q10.659089999999999,15.8929,10.659089999999999,15.7381Q10.659089999999999,15.5833,10.795449999999999,15.5833ZM14.3404,17.7078Q14.15337,17.5119,13.88636,17.5119L10.795449999999999,17.5119Q10.52844,17.5119,10.34141,17.7078Q10.159089999999999,17.8988,10.159089999999999,18.1667Q10.159089999999999,18.4345,10.34141,18.625500000000002Q10.52844,18.8214,10.795449999999999,18.8214L13.88636,18.8214Q14.15337,18.8214,14.3404,18.625500000000002Q14.52273,18.4345,14.52273,18.1667Q14.52273,17.8988,14.3404,17.7078ZM16.6586,17.7078Q16.471600000000002,17.5119,16.2045,17.5119L15.4318,17.5119Q15.1648,17.5119,14.97778,17.7078Q14.79545,17.8988,14.79545,18.1667Q14.79545,18.4345,14.97778,18.625500000000002Q15.1648,18.8214,15.4318,18.8214L16.2045,18.8214Q16.471600000000002,18.8214,16.6586,18.625500000000002Q16.840899999999998,18.4345,16.840899999999998,18.1667Q16.840899999999998,17.8988,16.6586,17.7078ZM10.795449999999999,18.0119L13.88636,18.0119Q14.02273,18.0119,14.02273,18.1667Q14.02273,18.3214,13.88636,18.3214L10.795449999999999,18.3214Q10.659089999999999,18.3214,10.659089999999999,18.1667Q10.659089999999999,18.0119,10.795449999999999,18.0119ZM15.4318,18.0119L16.2045,18.0119Q16.340899999999998,18.0119,16.340899999999998,18.1667Q16.340899999999998,18.3214,16.2045,18.3214L15.4318,18.3214Q15.2955,18.3214,15.2955,18.1667Q15.2955,18.0119,15.4318,18.0119Z" fill-rule="evenodd" fill="#333333" fill-opacity="1"/></g></g></g></svg>