<svg xmlns="http://www.w3.org/2000/svg" xmlns:xlink="http://www.w3.org/1999/xlink" fill="none" version="1.1" width="20" height="20" viewBox="0 0 20 20"><defs><clipPath id="master_svg0_219_18987"><rect x="0" y="0" width="20" height="20" rx="0"/></clipPath></defs><g clip-path="url(#master_svg0_219_18987)"><g><path d="M3.238426296875,3.238426296875Q2.476904296875,3.999949296875,2.476904296875,5.076904296875L2.476904296875,14.923104296875Q2.476904296875,16.000004296874998,3.238426296875,16.761504296875Q3.999947296875,17.523104296874997,5.076904296875,17.523104296874997L14.923104296875,17.523104296874997Q16.000004296874998,17.523104296874997,16.761504296875,16.761504296875Q17.523104296874997,16.000004296874998,17.523104296874997,14.923104296875L17.523104296874997,5.076904296875Q17.523104296874997,3.999949296875,16.761504296875,3.238427296875Q16.000004296874998,2.476904296875,14.923104296875,2.476904296875L12.571404296875,2.476904296875Q12.485804296875,2.476904296875,12.403614296875,2.500845296875Q12.321424296875,2.524786296875,12.249204296875,2.570757296875Q12.176994296875,2.616728296875,12.120514296875,2.681060296875Q12.064034296875,2.745393296875,12.027804296875,2.822953296875Q11.338194296875,4.299134296875,9.999984296874999,4.299134296875Q8.661764296874999,4.299134296875,7.972164296875,2.822954296875Q7.935924296875,2.745393296875,7.879454296875,2.681060296875Q7.822974296875,2.616728296875,7.750754296875,2.570757296875Q7.678544296875,2.524786296875,7.596354296875,2.500845296875Q7.514164296875,2.476904296875,7.428554296875,2.476904296875L6.571414296875,2.476904296875L5.076904296875,2.476904296875Q3.999949296875,2.476904296875,3.238426296875,3.238426296875ZM3.676904296875,14.923104296875L3.676904296875,5.076904296875Q3.676904296875,4.497004296875,4.086954296875,4.086954296875Q4.497004296875,3.676904296875,5.076904296875,3.676904296875L7.061174296875,3.676904296875Q8.072904296875,5.499134296875,9.999984296874999,5.499134296875Q11.927054296875,5.499134296875,12.938784296875,3.676904296875L14.923104296875,3.676904296875Q15.503004296875,3.676904296875,15.913004296875,4.086954296875Q16.323104296875,4.497004296875,16.323104296875,5.076904296875L16.323104296875,14.923104296875Q16.323104296875,15.503004296875,15.913004296875,15.913004296875Q15.503004296875,16.323104296875,14.923104296875,16.323104296875L5.076904296875,16.323104296875Q4.497004296875,16.323104296875,4.086954296875,15.913004296875Q3.676904296875,15.503004296875,3.676904296875,14.923104296875Z" fill-rule="evenodd" fill="#232D42" fill-opacity="1"/></g><g><path d="M13.637495703125001,8.95969878125Q13.729025703125,8.85673278125,13.777985703125001,8.72796078125Q13.826945703125,8.59918978125,13.826945703125,8.46142578125Q13.826945703125,8.38755728125,13.812535703125,8.31510778125Q13.798115703125,8.24265878125,13.769855703125,8.17441278125Q13.741585703125,8.10616778125,13.700545703125,8.04474778125Q13.659505703125,7.98332878125,13.607275703125,7.93109578125Q13.555035703125,7.87886278125,13.493615703125,7.83782378125Q13.432195703125,7.79678478125,13.363955703125,7.76851578125Q13.295705703125,7.74024778125,13.223255703125,7.72583678125Q13.150805703125,7.71142578125,13.076945703125,7.71142578125Q12.916275703124999,7.71142578125,12.769695703124999,7.77724578125Q12.623125703125,7.84306578125,12.516385703125,7.96315278125L12.516155703125001,7.96341478125L8.974375703125,11.94791578125L7.483759703125,10.27096578125L7.483652703125,10.27084578125Q7.376908703125,10.15075578125,7.2303377031250005,10.08493578125Q7.083766703125,10.019115781250001,6.923095703125,10.019115781250001Q6.849227203125,10.019115781250001,6.776777703125,10.03352578125Q6.704328703125,10.04793578125,6.636082703125,10.07620578125Q6.567837703125,10.10447578125,6.506417703125,10.14551578125Q6.444998703125,10.18655578125,6.392765703125,10.23878578125Q6.340532703125,10.29101578125,6.299493703125,10.35243578125Q6.258454703125,10.41385578125,6.230185703125,10.48210578125Q6.201917703125,10.55035578125,6.187506703125,10.62279578125Q6.173095703125,10.69524578125,6.173095703125,10.769115781250001Q6.173095703125,10.90688578125,6.222054703125,11.03565578125Q6.271012703125,11.16442578125,6.362538703125,11.26739578125L6.362645703125,11.267515781250001L8.413825703125,13.57508578125Q8.443135703125,13.60805578125,8.476105703125,13.63736578125Q8.587605703125,13.73647578125,8.728545703125,13.78537578125Q8.869495703125,13.83427578125,9.018415703125001,13.825515781250001Q9.167345703125001,13.81675578125,9.301585703125,13.75166578125Q9.435825703125,13.686585781249999,9.534935703125,13.57508578125L13.637265703125,8.95995978125L13.637495703125001,8.95969878125L13.637495703125001,8.95969878125Z" fill-rule="evenodd" fill="#232D42" fill-opacity="1"/></g></g></svg>