<svg xmlns="http://www.w3.org/2000/svg" xmlns:xlink="http://www.w3.org/1999/xlink" fill="none" version="1.1" width="20" height="20" viewBox="0 0 20 20"><defs><clipPath id="master_svg0_63_63124"><rect x="0" y="0" width="20" height="20" rx="0"/></clipPath></defs><g clip-path="url(#master_svg0_63_63124)"><g><path d="M2,10.8330078125Q2,10.7837621125,2.009607,10.7354627125Q2.019215,10.6871628125,2.0380599999999998,10.6416658125Q2.056906,10.5961688125,2.084265,10.5552228125Q2.111625,10.5142768125,2.146447,10.4794548125Q2.181269,10.4446328125,2.222215,10.4172728125Q2.263161,10.3899138125,2.308658,10.3710678125Q2.354155,10.352222812499999,2.4024549,10.3426148125Q2.4507543,10.3330078125,2.5,10.3330078125Q2.5492457,10.3330078125,2.5975451,10.3426148125Q2.645845,10.352222812499999,2.691342,10.3710678125Q2.736839,10.3899138125,2.777785,10.4172728125Q2.818731,10.4446328125,2.853553,10.4794548125Q2.888375,10.5142768125,2.915735,10.5552228125Q2.943094,10.5961688125,2.9619400000000002,10.6416658125Q2.980785,10.6871628125,2.990393,10.7354627125Q3,10.7837621125,3,10.8330078125L3,17.4996778125Q3,17.5489178125,2.990393,17.5972178125Q2.980785,17.6455178125,2.9619400000000002,17.6910178125Q2.943094,17.7365078125,2.915735,17.7774578125Q2.888375,17.8184078125,2.853553,17.853227812500002Q2.818731,17.888047812499998,2.777785,17.9154078125Q2.736839,17.9427678125,2.691342,17.9616078125Q2.645845,17.9804578125,2.5975451,17.9900678125Q2.5492457,17.9996778125,2.5,17.9996778125Q2.4507543,17.9996778125,2.4024549,17.9900678125Q2.354155,17.9804578125,2.308658,17.9616078125Q2.263161,17.9427678125,2.222215,17.9154078125Q2.181269,17.888047812499998,2.146447,17.853227812500002Q2.111625,17.8184078125,2.084265,17.7774578125Q2.056906,17.7365078125,2.0380599999999998,17.6910178125Q2.019215,17.6455178125,2.009607,17.5972178125Q2,17.5489178125,2,17.4996778125L2,10.8330078125Z" fill-rule="evenodd" fill="#8A92A6" fill-opacity="1"/></g><g><path d="M7.49936,11.52735Q7.58333,11.401388,7.58333,11.25Q7.58333,11.2007543,7.57373,11.1524549Q7.56412,11.104155,7.54527,11.058658Q7.52643,11.013161,7.49907,10.972215Q7.47171,10.931269,7.43689,10.896447Q7.40206,10.861625,7.36112,10.834265Q7.32017,10.806906,7.27467,10.78806Q7.22918,10.769214999999999,7.18088,10.759607Q7.13258,10.75,7.08333,10.75Q7.0216,10.75,6.96172,10.765016Q6.90183,10.780032,6.8474,10.809163Q6.79297,10.838293,6.74726,10.879788Q6.70155,10.921283,6.66731,10.97265L6.6672,10.972809L5.14908,13.25L2.5,13.25Q2.4507543,13.25,2.4024549,13.25961Q2.354155,13.269210000000001,2.308658,13.28806Q2.263161,13.30691,2.222215,13.33426Q2.181269,13.36162,2.146447,13.39645Q2.111625,13.43127,2.084265,13.47221Q2.056906,13.51316,2.0380599999999998,13.55866Q2.019215,13.60416,2.009607,13.65245Q2,13.70075,2,13.75Q2,13.79925,2.009607,13.84754Q2.019215,13.89584,2.0380599999999998,13.94134Q2.056906,13.98684,2.084265,14.02778Q2.111625,14.06873,2.146447,14.10355Q2.181269,14.13837,2.222215,14.16573Q2.263161,14.19309,2.308658,14.21194Q2.354155,14.23078,2.4024549,14.24039Q2.4507543,14.25,2.5,14.25L5.41667,14.25Q5.478400000000001,14.25,5.53828,14.23498Q5.59817,14.21997,5.6526,14.19084Q5.70703,14.16171,5.75274,14.12021Q5.79845,14.07872,5.8326899999999995,14.02735L7.49925,11.527509L7.49936,11.52735L7.49936,11.52735Z" fill-rule="evenodd" fill="#8A92A6" fill-opacity="1"/></g><g><path d="M3.19385390625,7.9169828125L14.18060390625,15.2414578125L18.07540390625,12.9045978125L18.075903906249998,12.9042578125Q18.19470390625,12.8330078125,18.33320390625,12.8330078125Q18.382403906249998,12.8330078125,18.430703906250002,12.8426178125Q18.47900390625,12.852217812500001,18.52450390625,12.8710678125Q18.57000390625,12.8899178125,18.611003906249998,12.9172778125Q18.65190390625,12.9446278125,18.686703906250003,12.9794578125Q18.72150390625,13.0142778125,18.74890390625,13.0552178125Q18.77630390625,13.0961678125,18.79510390625,13.1416678125Q18.81400390625,13.1871678125,18.82360390625,13.2354578125Q18.83320390625,13.2837578125,18.83320390625,13.3330078125Q18.83320390625,13.3977678125,18.816703906249998,13.460387812499999Q18.800203906249997,13.523007812500001,18.76830390625,13.5793578125Q18.73640390625,13.6357078125,18.69120390625,13.682077812500001Q18.64590390625,13.728437812500001,18.59040390625,13.7617578125L18.58990390625,13.7620578125L14.64980390625,16.1260878125Q14.15250390625,16.4245378125,13.66980390625,16.1027978125L2.63915390625,8.7490328125Q2.58778690625,8.7147878125,2.54629190625,8.6690778125Q2.50479690625,8.6233678125,2.47566690625,8.5689368125Q2.44653590625,8.5145058125,2.43151990625,8.4546248125Q2.41650390625,8.3947433125,2.41650390625,8.3330078125Q2.41650390625,8.2837621125,2.42611090625,8.2354627125Q2.43571890625,8.1871628125,2.4545639062499998,8.1416658125Q2.47340990625,8.0961688125,2.50076890625,8.0552228125Q2.52812890625,8.0142768125,2.56295090625,7.9794548125Q2.59777290625,7.9446328125,2.63871890625,7.9172728125Q2.67966490625,7.8899138125,2.72516190625,7.8710678125Q2.77065890625,7.8522228125,2.81895880625,7.8426148125Q2.86725820625,7.8330078125,2.91650390625,7.8330078125Q3.06789190625,7.8330078125,3.19385390625,7.9169828125Z" fill-rule="evenodd" fill="#8A92A6" fill-opacity="1"/></g><g><path d="M2.949224875,5.2990992187499995C2.722079475,5.14767921875,2.699491975,4.82234921875,2.903533875,4.64096921875L6.011671875,1.87819721875C6.152341874999999,1.75315151875,6.359381875,1.73794321875,6.516841875,1.84109331875L17.793671875,9.22934921875C18.046671875,9.39517921875,18.044271875,9.766969218749999,17.788971875,9.92938921875L13.979071875,12.35394921875C13.839871875,12.44254921875,13.661471875,12.44054921875,13.524171875,12.34904921875L2.949224875,5.2990992187499995Z" fill="#8A92A6" fill-opacity="1"/><path d="M2.671874975,5.71511921875L13.246871875,12.76514921875L13.246871875,12.76514921875Q13.743771875,13.09624921875,14.247471875,12.77574921875L18.057471874999997,10.35122921875Q18.478671875,10.08321921875,18.481971875,9.58395921875Q18.485271875000002,9.08473921875,18.067671875000002,8.811119218750001L6.790831875,1.42284821875Q6.203871875,1.03833921875,5.679491875,1.50449221875L2.571346875,4.26726921875Q2.234686875,4.56652921875,2.2658848750000002,5.01589921875Q2.297084875,5.46528921875,2.671874975,5.71511921875ZM13.756371875,11.90294921875L3.3164008750000002,4.9429592187499996L6.296181875,2.29427921875L17.411671875,9.57685921875L13.756371875,11.90294921875Z" fill-rule="evenodd" fill="#8A92A6" fill-opacity="1"/></g></g></svg>