<svg xmlns="http://www.w3.org/2000/svg" xmlns:xlink="http://www.w3.org/1999/xlink" fill="none" version="1.1" width="20" height="20" viewBox="0 0 20 20"><defs><clipPath id="master_svg0_63_70458"><rect x="0" y="0" width="20" height="20" rx="0"/></clipPath></defs><g clip-path="url(#master_svg0_63_70458)"><g transform="matrix(-1,0,0,-1,33,17)"><path d="M16.5,8L19.5,8Q20.53553,8,21.26777,8.732233Q22,9.464466,22,10.5L22,13.5Q22,13.54925,21.990389999999998,13.59755Q21.98078,13.64584,21.96194,13.69134Q21.943089999999998,13.73684,21.91573,13.77778Q21.888370000000002,13.81873,21.85355,13.85355Q21.818730000000002,13.88837,21.77778,13.91573Q21.73684,13.94309,21.69134,13.96194Q21.64584,13.98078,21.59755,13.99039Q21.54925,14,21.5,14Q21.45075,14,21.40245,13.99039Q21.35415,13.98078,21.30866,13.96194Q21.26316,13.94309,21.22221,13.91573Q21.181269999999998,13.88837,21.14645,13.85355Q21.111620000000002,13.81873,21.08426,13.77778Q21.0569,13.73684,21.03806,13.69134Q21.01921,13.64584,21.009610000000002,13.59755Q21,13.54925,21,13.5L21,10.5Q21,9.87868,20.56066,9.43934Q20.12132,9,19.5,9L16.5,9Q16.4507543,9,16.4024549,8.990393Q16.354155,8.980785000000001,16.308658,8.96194Q16.263161,8.943094,16.222215,8.915735Q16.181269,8.888375,16.146447,8.853553Q16.111625,8.818731,16.084265,8.777785Q16.056906,8.736839,16.03806,8.691342Q16.019215,8.645845,16.009607,8.5975451Q16,8.5492457,16,8.5Q16,8.4507543,16.009607,8.4024549Q16.019215,8.354155,16.03806,8.308658Q16.056906,8.263161,16.084265,8.222215Q16.111625,8.181269,16.146447,8.146447Q16.181269,8.111625,16.222215,8.084265Q16.263161,8.056906,16.308658,8.03806Q16.354155,8.019214999999999,16.4024549,8.009607Q16.4507543,8,16.5,8Z" fill-rule="evenodd" fill="#FFFFFF" fill-opacity="1"/></g><g><path d="M2,4.5L2,7.5Q2,7.54925,2.009607,7.59755Q2.019215,7.64584,2.0380599999999998,7.69134Q2.056906,7.73684,2.084265,7.77778Q2.111625,7.81873,2.146447,7.85355Q2.181269,7.88837,2.222215,7.91573Q2.263161,7.94309,2.308658,7.96194Q2.354155,7.98078,2.4024549,7.99039Q2.4507543,8,2.5,8Q2.5492457,8,2.5975451,7.99039Q2.645845,7.98078,2.691342,7.96194Q2.736839,7.94309,2.777785,7.91573Q2.818731,7.88837,2.853553,7.85355Q2.888375,7.81873,2.915735,7.77778Q2.943094,7.73684,2.9619400000000002,7.69134Q2.980785,7.64584,2.990393,7.59755Q3,7.54925,3,7.5L3,4.5Q3,3.87868,3.43934,3.43934Q3.87868,3,4.5,3L7.5,3Q7.54925,3,7.59755,2.990393Q7.64584,2.980785,7.69134,2.9619400000000002Q7.73684,2.943094,7.77778,2.915735Q7.81873,2.888375,7.85355,2.853553Q7.88837,2.818731,7.91573,2.777785Q7.94309,2.736839,7.96194,2.691342Q7.98078,2.645845,7.99039,2.5975451Q8,2.5492457,8,2.5Q8,2.4507543,7.99039,2.4024549Q7.98078,2.354155,7.96194,2.308658Q7.94309,2.263161,7.91573,2.222215Q7.88837,2.181269,7.85355,2.146447Q7.81873,2.111625,7.77778,2.084265Q7.73684,2.056906,7.69134,2.0380599999999998Q7.64584,2.019215,7.59755,2.009607Q7.54925,2,7.5,2L4.5,2Q3.464466,2,2.732233,2.732233Q2,3.464466,2,4.5Z" fill-rule="evenodd" fill="#FFFFFF" fill-opacity="1"/></g><g><path d="M17,12.5Q17,12.4507543,17.009610000000002,12.4024549Q17.01921,12.354155,17.03806,12.308658Q17.0569,12.263161,17.08426,12.222215Q17.111620000000002,12.181269,17.14645,12.146447Q17.181269999999998,12.111625,17.22221,12.084265Q17.26316,12.056906,17.30866,12.03806Q17.35415,12.019214999999999,17.40245,12.009607Q17.45075,12,17.5,12Q17.54925,12,17.59755,12.009607Q17.64584,12.019214999999999,17.69134,12.03806Q17.73684,12.056906,17.77778,12.084265Q17.818730000000002,12.111625,17.85355,12.146447Q17.888370000000002,12.181269,17.91573,12.222215Q17.943089999999998,12.263161,17.96194,12.308658Q17.98078,12.354155,17.990389999999998,12.4024549Q18,12.4507543,18,12.5L18,15.5Q18,16.53553,17.26777,17.26777Q16.53553,18,15.5,18L12.5,18Q12.4507543,18,12.4024549,17.990389999999998Q12.354155,17.98078,12.308658,17.96194Q12.263161,17.943089999999998,12.222215,17.91573Q12.181269,17.888370000000002,12.146447,17.85355Q12.111625,17.818730000000002,12.084265,17.77778Q12.056906,17.73684,12.03806,17.69134Q12.019214999999999,17.64584,12.009607,17.59755Q12,17.54925,12,17.5Q12,17.45075,12.009607,17.40245Q12.019214999999999,17.35415,12.03806,17.30866Q12.056906,17.26316,12.084265,17.22221Q12.111625,17.181269999999998,12.146447,17.14645Q12.181269,17.111620000000002,12.222215,17.08426Q12.263161,17.0569,12.308658,17.03806Q12.354155,17.01921,12.4024549,17.009610000000002Q12.4507543,17,12.5,17L15.5,17Q16.12132,17,16.56066,16.56066Q17,16.12132,17,15.5L17,12.5Z" fill-rule="evenodd" fill="#FFFFFF" fill-opacity="1"/></g><g transform="matrix(-1,0,0,-1,17,33)"><path d="M8,16.5Q8,16.4507543,8.009607,16.4024549Q8.019214999999999,16.354155,8.03806,16.308658Q8.056906,16.263161,8.084265,16.222215Q8.111625,16.181269,8.146447,16.146447Q8.181269,16.111625,8.222215,16.084265Q8.263161,16.056906,8.308658,16.03806Q8.354155,16.019215,8.4024549,16.009607Q8.4507543,16,8.5,16Q8.5492457,16,8.5975451,16.009607Q8.645845,16.019215,8.691342,16.03806Q8.736839,16.056906,8.777785,16.084265Q8.818731,16.111625,8.853553,16.146447Q8.888375,16.181269,8.915735,16.222215Q8.943094,16.263161,8.96194,16.308658Q8.980785000000001,16.354155,8.990393,16.4024549Q9,16.4507543,9,16.5L9,19.5Q9,20.12132,9.43934,20.56066Q9.87868,21,10.5,21L13.5,21Q13.54925,21,13.59755,21.009610000000002Q13.64584,21.01921,13.69134,21.03806Q13.73684,21.0569,13.77778,21.08426Q13.81873,21.111620000000002,13.85355,21.14645Q13.88837,21.181269999999998,13.91573,21.22221Q13.94309,21.26316,13.96194,21.30866Q13.98078,21.35415,13.99039,21.40245Q14,21.45075,14,21.5Q14,21.54925,13.99039,21.59755Q13.98078,21.64584,13.96194,21.69134Q13.94309,21.73684,13.91573,21.77778Q13.88837,21.818730000000002,13.85355,21.85355Q13.81873,21.888370000000002,13.77778,21.91573Q13.73684,21.943089999999998,13.69134,21.96194Q13.64584,21.98078,13.59755,21.990389999999998Q13.54925,22,13.5,22L10.5,22Q9.464466,22,8.732233,21.26777Q8,20.53553,8,19.5L8,16.5Z" fill-rule="evenodd" fill="#FFFFFF" fill-opacity="1"/></g><g><path d="M16.853553505859374,3.853553Q16.923883505859376,3.783227,16.961943505859374,3.691341Q17.000003505859375,3.5994559,17.000003505859375,3.5Q17.000003505859375,3.4507543,16.990393505859373,3.4024549Q16.980783505859375,3.354155,16.961943505859374,3.308658Q16.943093505859373,3.263161,16.915733505859375,3.222215Q16.888373505859377,3.181269,16.853553505859374,3.146447Q16.818733505859374,3.111625,16.777783505859375,3.084265Q16.736833505859373,3.056906,16.691343505859376,3.0380599999999998Q16.645843505859375,3.019215,16.597543505859374,3.009607Q16.549243505859376,3,16.500003505859375,3Q16.400543505859375,3,16.308653505859375,3.0380599999999998Q16.216773505859376,3.076121,16.146443505859374,3.146447L16.146323505859375,3.146566L11.729789505859374,7.56311Q11.659463505859375,7.63344,11.621403505859375,7.72533Q11.583343505859375,7.81721,11.583343505859375,7.91667Q11.583343505859375,7.96591,11.592950505859376,8.01421Q11.602558505859374,8.06251,11.621403505859375,8.10801Q11.640249505859375,8.15351,11.667608505859375,8.19445Q11.694968505859375,8.2354,11.729790505859375,8.27022Q11.764612505859375,8.30504,11.805558505859375,8.3324Q11.846504505859375,8.35976,11.892001505859374,8.37861Q11.937498505859375,8.39745,11.985798405859375,8.407060000000001Q12.034097805859375,8.41667,12.083343505859375,8.41667Q12.182799805859375,8.41667,12.274685505859376,8.37861Q12.366570505859375,8.34055,12.436897505859376,8.27022L16.853553505859374,3.853553L16.853553505859374,3.853553Z" fill-rule="evenodd" fill="#FFFFFF" fill-opacity="1"/></g><g><path d="M8.27022,12.436801953125Q8.34055,12.366475953125,8.37861,12.274591953125Q8.41667,12.182706953125,8.41667,12.083251953125Q8.41667,12.034006253125,8.407060000000001,11.985706853125Q8.39745,11.937406953125,8.37861,11.891909953125Q8.35976,11.846412953125,8.3324,11.805466953125Q8.30504,11.764520953125,8.27022,11.729698953125Q8.2354,11.694876953125,8.19445,11.667516953125Q8.153500000000001,11.640157953125,8.10801,11.621311953125Q8.06251,11.602466953124999,8.01421,11.592858953125Q7.96591,11.583251953125,7.91667,11.583251953125Q7.81721,11.583251953125,7.72532,11.621312953125Q7.63344,11.659373953125,7.56311,11.729701953125L7.56299,11.729820953125L3.146681,16.146211953125L3.146443,16.146451953125002Q3.076119,16.216771953125,3.038059,16.308661953125Q3,16.400541953125,3,16.500001953125Q3,16.549241953124998,3.009607,16.597541953125Q3.019215,16.645841953125,3.0380599999999998,16.691341953125Q3.056906,16.736841953125,3.084265,16.777781953125Q3.111625,16.818731953125,3.146447,16.853551953125Q3.181269,16.888371953125,3.222215,16.915731953125Q3.263161,16.943091953125,3.308658,16.961941953125Q3.354155,16.980781953125,3.4024549,16.990391953125Q3.4507543,17.000001953125,3.5,17.000001953125Q3.5994574,17.000001953125,3.691344,16.961941953125Q3.78323,16.923881953125,3.853557,16.853551953125L3.853794,16.853311953125L8.2701,12.436920953125L8.27022,12.436801953125L8.27022,12.436801953125Z" fill-rule="evenodd" fill="#FFFFFF" fill-opacity="1"/></g></g></svg>