<svg xmlns="http://www.w3.org/2000/svg" xmlns:xlink="http://www.w3.org/1999/xlink" fill="none" version="1.1" width="24" height="24" viewBox="0 0 24 24"><g><g style="opacity:0;"><rect x="0" y="0" width="24" height="24" rx="0" fill="#000000" fill-opacity="1"/></g><g><g><g><g><path d="M6.49927125,18.3182453125C6.49927125,18.3182453125,6.0867112500000005,18.3182453125,6.0867112500000005,18.3182453125C3.84052125,17.9790453125,2.83203125,16.154545312499998,2.83203125,14.5226453125C2.83203125,12.9824153125,3.73050625,11.2771553125,5.68331125,10.8004153125C5.14239125,8.6642553125,5.60080125,6.6564553125,6.99435125,5.1987353125C8.58044125,3.5393133125,11.11083125,2.8792133125,13.29283125,3.5576493125C15.30063125,4.1719093125,16.712531249999998,5.8221553125,17.21683125,8.114175312499999C18.96793125,8.508405312499999,20.37063125,9.828605312499999,20.92993125,11.6622153125C21.53493125,13.6516453125,20.98493125,15.6961453125,19.49053125,17.0071453125C19.00453125,17.4564453125,18.445331250000002,17.7956453125,17.840231250000002,18.0248453125C17.72713125,18.067645312499998,17.14313125,18.2923453125,16.46173125,18.2923453125C15.78043125,18.2923453125,10.39209125,18.3182453125,6.49927125,18.3182453125Z" fill="#000000" fill-opacity="1"/></g><g transform="matrix(-1,0,0,-1,48,48)" style="opacity:0;"><path d="M24,24C24,24,48,24,48,24C48,24,48,48,48,48C48,48,24,48,24,48C24,48,24,24,24,24Z" fill="#000000" fill-opacity="1"/></g></g></g><g><path d="" fill="#000000" fill-opacity="1"/><path d="M16.499729609375,20.490393125Q16.569089609375,20.372828125,16.569089609375,20.236328125Q16.569089609375,20.187082425,16.559479609375,20.138783025Q16.549879609375,20.090483125,16.531029609375,20.044986125Q16.512189609375,19.999489125,16.484829609375,19.958543125Q16.457469609375,19.917597125,16.422649609375,19.882775125Q16.387819609375,19.847953125,16.346879609375,19.820593125Q16.305929609375,19.793234125,16.260429609375,19.774388125Q16.214939609375,19.755543125,16.166639609375,19.745935125Q16.118339609375,19.736328125,16.069089609375,19.736328125Q16.003859609375,19.736328125,15.940819609375,19.753062125Q15.877779609375,19.769796125,15.821132609375,19.802143125Q15.764491609375,19.834491125,15.718043609375,19.880287125Q15.671596609375,19.926083125,15.638451609375,19.982263125L15.638436609375,19.982289125L14.408959609375,22.066248125Q14.339599609375,22.183808125,14.339599609375,22.320308125Q14.339599609375,22.369558125,14.349206609375,22.417858125Q14.358814609374999,22.466158125,14.377659609375,22.511658125Q14.396505609375,22.557148125,14.423864609375,22.598098125Q14.451224609375,22.639048125,14.486046609375,22.673868125Q14.520868609375,22.708688125000002,14.561814609375,22.736048125Q14.602760609375,22.763408125,14.648257609375,22.782248125Q14.693754609375,22.801098125,14.742054509375,22.810708125Q14.790353909375,22.820308125,14.839599609375,22.820308125Q14.904827309375,22.820308125,14.967871609375,22.803578125Q15.030916609375,22.786848125,15.087558609375,22.754498125Q15.144200609375,22.722148125,15.190647609375,22.676358125Q15.237095609375,22.630558125,15.270239609375,22.574378125L16.499729609375,20.490393125Z" fill-rule="evenodd" fill="#000000" fill-opacity="1"/></g><g><path d="" fill="#000000" fill-opacity="1"/><path d="M8.0374653125,20.527309125Q8.1308553125,20.396806125,8.1308553125,20.236328125Q8.1308553125,20.187082425,8.1212553125,20.138783025Q8.1116453125,20.090483125,8.0927953125,20.044986125Q8.0739553125,19.999489125,8.0465953125,19.958543125Q8.0192353125,19.917597125,7.9844153124999995,19.882775125Q7.9495953125,19.847953125,7.9086453125,19.820593125Q7.8676953125,19.793234125,7.8222053124999995,19.774388125Q7.7767053125,19.755543125,7.7284053125,19.745935125Q7.6801053125,19.736328125,7.6308553125,19.736328125Q7.5098753125,19.736328125,7.4022653125,19.791642125Q7.2946653125,19.846957125,7.2242513125,19.945347125L5.8873373125,21.813508125Q5.7939453125,21.944018125,5.7939453125,22.104488125Q5.7939453125,22.153738125,5.8035523125,22.202038125Q5.8131603125,22.250338125,5.8320053125,22.295838125Q5.8508513125,22.341328125,5.8782103125,22.382278125Q5.9055703125,22.423228125,5.9403923125,22.458048125Q5.9752143125,22.492868125,6.0161603125,22.520228125Q6.0571063125,22.547588125,6.1026033125,22.566428125Q6.1481003125,22.585278125,6.1964002125,22.594888125Q6.2446996125,22.604488125,6.2939453125,22.604488125Q6.4149343125,22.604488125,6.5225383125,22.549178125Q6.6301423125,22.493868125,6.7005533125,22.395468125L6.7006653125,22.395318125L8.0374653125,20.527309125L8.0374653125,20.527309125Z" fill-rule="evenodd" fill="#000000" fill-opacity="1"/></g><g transform="matrix(0.9946264028549194,-0.10352947562932968,0.10352947562932968,0.9946264028549194,-1.9659806526688044,1.2068818775551335)"><path d="" fill="#000000" fill-opacity="1"/><path d="M12.26258640625,19.8557571875Q12.37328640625,19.7184041875,12.37328640625,19.5419921875Q12.37328640625,19.4927464875,12.36368640625,19.4444470875Q12.35407640625,19.3961471875,12.33522640625,19.3506501875Q12.31638640625,19.3051531875,12.28902640625,19.2642071875Q12.26166640625,19.2232611875,12.22684640625,19.1884391875Q12.19202640625,19.1536171875,12.15107640625,19.1262571875Q12.11012640625,19.0988981875,12.06463640625,19.0800521875Q12.01913640625,19.0612071875,11.97083640625,19.0515991875Q11.92253640625,19.0419921875,11.87328640625,19.0419921875Q11.75984640625,19.0419921875,11.65751640625,19.0909471875Q11.55518240625,19.1399021875,11.48399540625,19.2282271875L10.25377040625,20.7545921875Q10.14306640625,20.8919421875,10.14306640625,21.0683621875Q10.14306640625,21.1176021875,10.15267340625,21.1659021875Q10.162281406249999,21.2142021875,10.18112640625,21.2597021875Q10.19997240625,21.3052021875,10.22733140625,21.3461421875Q10.25469140625,21.3870921875,10.28951340625,21.4219121875Q10.32433540625,21.456732187500002,10.36528140625,21.4840921875Q10.40622740625,21.5114521875,10.45172440625,21.5303021875Q10.49722140625,21.5491421875,10.54552130625,21.5587521875Q10.59382070625,21.5683621875,10.64306640625,21.5683621875Q10.75650740625,21.5683621875,10.85884040625,21.5194021875Q10.96117440625,21.4704521875,11.03236240625,21.3821221875L12.26258640625,19.8557571875Z" fill-rule="evenodd" fill="#000000" fill-opacity="1"/></g></g></g></svg>