<svg xmlns="http://www.w3.org/2000/svg" xmlns:xlink="http://www.w3.org/1999/xlink" fill="none" version="1.1" width="21.5" height="21.5" viewBox="0 0 21.5 21.5"><g><g><g><g><path d="M17.38239985694885,7.42575L17.38239985694885,7.42564Q17.33099985694885,7.34859,17.262399856948853,7.2863500000000005Q17.193899856948853,7.22411,17.112199856948852,7.18041Q17.030599856948854,7.13672,16.940799856948853,7.11419Q16.850899856948853,7.091670000000001,16.758299856948852,7.091670000000001L16.75159985694885,7.0916999999999994Q16.528199856948852,7.0937,16.342299856948852,7.21763Q16.21819985694885,7.3003800000000005,16.13519985694885,7.42434Q16.052199856948853,7.54829,16.022899856948854,7.69458Q16.008299856948852,7.7674,16.008299856948852,7.841670000000001Q16.008299856948852,7.85907,16.00909985694885,7.87645Q16.018799856948853,8.08444,16.13429985694885,8.25769L16.134599856948853,8.25809Q17.224999856948852,9.893989999999999,17.224999856948852,11.858329999999999Q17.224999856948852,14.54142,15.328999856948853,16.4374Q13.433089856948852,18.3333,10.749999856948852,18.3333Q8.066439856948852,18.3333,6.171169856948852,16.436500000000002Q4.2749998569488525,14.53887,4.2749998569488525,11.85Q4.2749998569488525,9.16691,6.170959856948853,7.2709600000000005Q8.066909856948852,5.375,10.749999856948852,5.375Q11.849619856948852,5.375,12.943579856948853,5.70193Q13.048659856948852,5.7333300000000005,13.158329856948853,5.7333300000000005L13.160519856948852,5.7333300000000005Q13.348869856948852,5.73278,13.514599856948852,5.64331Q13.645899856948853,5.572444,13.739999856948852,5.456734Q13.834199856948853,5.341024,13.876899856948853,5.198086Q13.908299856948853,5.093009,13.908299856948853,4.98334Q13.908299856948853,4.950854,13.905499856948852,4.918497Q13.895799856948852,4.806158,13.853399856948853,4.7016525Q13.811099856948852,4.5971469,13.739899856948853,4.509714Q13.668699856948853,4.422282,13.574899856948852,4.359653Q13.481129856948852,4.297024,13.373089856948852,4.264737L13.373039856948852,4.264722L13.372419856948852,4.264538Q12.068629856948853,3.875,10.749999856948852,3.875Q7.445589856948852,3.875,5.110289856948853,6.2102900000000005Q2.7749998569488525,8.54559,2.7749998569488525,11.85Q2.7749998569488525,15.1598,5.110079856948852,17.4968Q7.444769856948852,19.8333,10.749999856948852,19.8333Q14.054399856948853,19.8333,16.38969985694885,17.497999999999998Q18.724999856948852,15.1627,18.724999856948852,11.858329999999999Q18.724999856948852,9.44021,17.383099856948853,7.42668L17.38239985694885,7.42575Z" fill-rule="evenodd" fill="#000000" fill-opacity="1"/></g><g><path d="M12.349150824707031,1.9243756269302368L12.349029824707031,1.9242376269302368Q12.332001824707032,1.9046756269302367,12.31366282470703,1.8863366269302368Q12.208173824707032,1.7808476269302367,12.070345824707031,1.723756626930237Q11.932516824707031,1.6666666269302368,11.783332824707031,1.6666666269302368Q11.64757882470703,1.6666666269302368,11.520438824707032,1.7142516269302368Q11.393297824707032,1.7618366269302368,11.290903824707032,1.8509686269302368Q11.271341824707031,1.867997626930237,11.253002824707032,1.8863366269302368Q11.147513824707032,1.9918256269302368,11.090422824707032,2.129653626930237Q11.033332824707031,2.267482626930237,11.033332824707031,2.416666626930237Q11.033332824707031,2.5524206269302367,11.080917824707031,2.679560626930237Q11.12850282470703,2.806701626930237,11.217635824707031,2.909095626930237L11.217755824707032,2.9092346269302367L13.62597282470703,5.675766626930237Q13.723922824707032,5.788286626930237,13.857472824707031,5.854766626930237Q13.99103282470703,5.921236626930237,14.139852824707031,5.931546626930237Q14.165732824707032,5.933336626930236,14.19166282470703,5.933336626930236Q14.201932824707031,5.933336626930236,14.212202824707031,5.933056626930236Q14.342612824707032,5.929476626930237,14.464152824707032,5.882086626930237Q14.585692824707031,5.834686626930237,14.684092824707031,5.749026626930236Q14.80682282470703,5.642196626930237,14.874242824707032,5.494116626930237Q14.94166282470703,5.346036626930237,14.94166282470703,5.183336626930236Q14.94166282470703,5.170456626930237,14.941222824707031,5.157596626930237Q14.93679282470703,5.028556626930237,14.889462824707032,4.908426626930237Q14.842132824707031,4.7882966269302365,14.75736282470703,4.690906626930237L14.757142824707032,4.690656626930236L12.349150824707031,1.9243756269302368Z" fill-rule="evenodd" fill="#000000" fill-opacity="1"/></g><g><path d="M10.941365206176759,6.627393396911621L10.941136206176758,6.627563396911621Q10.820640206176758,6.715513396911621,10.742977206176757,6.842893396911621Q10.665313206176759,6.970263396911621,10.642306206176757,7.117663396911621Q10.633333206176758,7.175153396911621,10.633333206176758,7.233333396911621Q10.633333206176758,7.248183396911621,10.633921206176758,7.2630233969116205Q10.642959206176759,7.491143396911621,10.777559206176758,7.6755333969116215Q10.865518206176757,7.796023396911622,10.992892206176759,7.873693396911621Q11.120267206176758,7.951353396911621,11.267667206176759,7.974363396911621Q11.325152006176758,7.983333396911621,11.383333206176758,7.983333396911621Q11.398184206176758,7.983333396911621,11.413024706176758,7.982743396911621Q11.641138206176757,7.9737033969116204,11.825530206176758,7.8391033969116215L11.825759206176757,7.8389433969116205L14.633593206176759,5.789306396911621L14.633863206176757,5.789107396911621Q14.754363206176759,5.701148396911621,14.832023206176757,5.573774396911621Q14.909683206176759,5.446399396911621,14.932693206176758,5.298999396911621Q14.941663206176758,5.241515196911621,14.941663206176758,5.183334498601621Q14.941663206176758,5.168481896911621,14.941073206176757,5.153641896911621Q14.932043206176758,4.925528396911621,14.797443206176759,4.741136396911621Q14.709483206176758,4.620640396911621,14.582103206176757,4.542977396911621Q14.454733206176758,4.465313396911621,14.307333206176757,4.442306396911621Q14.249843206176758,4.433333396911621,14.191663206176758,4.433333396911621Q14.176813206176758,4.433333396911621,14.161973206176757,4.433921396911622Q13.933863206176758,4.442959396911621,13.749473206176758,4.577559396911621L13.749193206176757,4.577758396911621L10.941365206176759,6.627393396911621Z" fill-rule="evenodd" fill="#000000" fill-opacity="1"/></g><g transform="matrix(-1,-1.2246469849340659e-16,1.2246469849340659e-16,-1,41.5,41.5)" style="opacity:0;"><path d="M20,20.75L20,40.75Q20,40.823899999999995,20.014411,40.8963Q20.028822,40.9688,20.05709,41.037Q20.085359,41.1053,20.126398000000002,41.1667Q20.167437,41.2281,20.21967,41.2803Q20.271903000000002,41.3326,20.333322,41.373599999999996Q20.394742,41.4146,20.462987,41.4429Q20.531233,41.471199999999996,20.603682,41.485600000000005Q20.6761315,41.5,20.75,41.5L40.75,41.5Q40.823899999999995,41.5,40.8963,41.485600000000005Q40.9688,41.471199999999996,41.037,41.4429Q41.1053,41.4146,41.1667,41.373599999999996Q41.2281,41.3326,41.2803,41.2803Q41.3326,41.2281,41.373599999999996,41.1667Q41.4146,41.1053,41.4429,41.037Q41.471199999999996,40.9688,41.485600000000005,40.8963Q41.5,40.823899999999995,41.5,40.75L41.5,20.75Q41.5,20.6761315,41.485600000000005,20.603682Q41.471199999999996,20.531233,41.4429,20.462987Q41.4146,20.394742,41.373599999999996,20.333322Q41.3326,20.271903000000002,41.2803,20.21967Q41.2281,20.167437,41.1667,20.126398000000002Q41.1053,20.085359,41.037,20.05709Q40.9688,20.028822,40.8963,20.014411Q40.823899999999995,20,40.75,20L20.75,20Q20.6761315,20,20.603682,20.014411Q20.531233,20.028822,20.462987,20.05709Q20.394742,20.085359,20.333322,20.126398000000002Q20.271903000000002,20.167437,20.21967,20.21967Q20.167437,20.271903000000002,20.126398000000002,20.333322Q20.085359,20.394742,20.05709,20.462987Q20.028822,20.531233,20.014411,20.603682Q20,20.6761315,20,20.75ZM21.5,40L40,40L40,21.5L21.5,21.5L21.5,40Z" fill-rule="evenodd" fill="#000000" fill-opacity="1"/></g></g></g></g></svg>