<svg xmlns="http://www.w3.org/2000/svg" xmlns:xlink="http://www.w3.org/1999/xlink" fill="none" version="1.1" width="24" height="24" viewBox="0 0 24 24"><defs><clipPath id="master_svg0_41_19061"><rect x="0" y="0" width="24" height="24" rx="0"/></clipPath></defs><g clip-path="url(#master_svg0_41_19061)"><g><path d="M20.5,4Q20.5,3.9507543,20.509607,3.9024549Q20.519215,3.854155,20.53806,3.808658Q20.556906,3.763161,20.584265,3.722215Q20.611625,3.681269,20.646447,3.646447Q20.681269,3.611625,20.722215,3.584265Q20.763161,3.556906,20.808658,3.5380599999999998Q20.854155,3.519215,20.9024549,3.509607Q20.9507543,3.5,21,3.5Q21.0492457,3.5,21.0975451,3.509607Q21.145845,3.519215,21.191342,3.5380599999999998Q21.236839,3.556906,21.277785,3.584265Q21.318731,3.611625,21.353553,3.646447Q21.388375,3.681269,21.415735,3.722215Q21.443094,3.763161,21.46194,3.808658Q21.480785,3.854155,21.490393,3.9024549Q21.5,3.9507543,21.5,4L21.5,12Q21.5,12.04924,21.490393,12.09754Q21.480785,12.14584,21.46194,12.19134Q21.443094,12.23684,21.415735,12.27778Q21.388375,12.31873,21.353553,12.35355Q21.318731,12.38837,21.277785,12.41573Q21.236839,12.44309,21.191342,12.46194Q21.145845,12.48078,21.0975451,12.49039Q21.0492457,12.5,21,12.5Q20.9507543,12.5,20.9024549,12.49039Q20.854155,12.48078,20.808658,12.46194Q20.763161,12.44309,20.722215,12.41573Q20.681269,12.38837,20.646447,12.35355Q20.611625,12.31873,20.584265,12.27778Q20.556906,12.23684,20.53806,12.19134Q20.519215,12.14584,20.509607,12.09754Q20.5,12.04924,20.5,12L20.5,4Z" fill-rule="evenodd" fill="#333333" fill-opacity="1"/></g><g><path d="M2.5,12Q2.5,11.9507543,2.509607,11.9024549Q2.519215,11.854155,2.5380599999999998,11.808658Q2.556906,11.763161,2.584265,11.722215Q2.611625,11.681269,2.646447,11.646447Q2.681269,11.611625,2.722215,11.584265Q2.763161,11.556906,2.808658,11.53806Q2.854155,11.519214999999999,2.9024549,11.509607Q2.9507543,11.5,3,11.5Q3.0492457,11.5,3.0975451,11.509607Q3.145845,11.519214999999999,3.191342,11.53806Q3.236839,11.556906,3.277785,11.584265Q3.318731,11.611625,3.353553,11.646447Q3.388375,11.681269,3.415735,11.722215Q3.443094,11.763161,3.4619400000000002,11.808658Q3.480785,11.854155,3.490393,11.9024549Q3.5,11.9507543,3.5,12L3.5,20Q3.5,20.049239999999998,3.490393,20.097540000000002Q3.480785,20.14584,3.4619400000000002,20.19134Q3.443094,20.23684,3.415735,20.27778Q3.388375,20.318730000000002,3.353553,20.35355Q3.318731,20.388370000000002,3.277785,20.41573Q3.236839,20.443089999999998,3.191342,20.46194Q3.145845,20.48078,3.0975451,20.490389999999998Q3.0492457,20.5,3,20.5Q2.9507543,20.5,2.9024549,20.490389999999998Q2.854155,20.48078,2.808658,20.46194Q2.763161,20.443089999999998,2.722215,20.41573Q2.681269,20.388370000000002,2.646447,20.35355Q2.611625,20.318730000000002,2.584265,20.27778Q2.556906,20.23684,2.5380599999999998,20.19134Q2.519215,20.14584,2.509607,20.097540000000002Q2.5,20.049239999999998,2.5,20L2.5,12Z" fill-rule="evenodd" fill="#333333" fill-opacity="1"/></g><g><path d="M5.164569999999999,5.40247L5.16432,5.40274Q5.096830000000001,5.47264,5.06044,5.56274Q5.02405,5.65283,5.02405,5.75Q5.02405,5.79925,5.033659999999999,5.84754Q5.04326,5.89584,5.0621100000000006,5.94134Q5.08096,5.98684,5.10832,6.02778Q5.13567,6.06873,5.1705000000000005,6.10355Q5.20532,6.13837,5.2462599999999995,6.16573Q5.28721,6.19309,5.3327100000000005,6.21194Q5.37821,6.23078,5.4265,6.24039Q5.4748,6.25,5.52405,6.25Q5.6258,6.25,5.71946,6.21023Q5.81312,6.17047,5.88378,6.09726Q8.391020000000001,3.5,12,3.5Q15.5208,3.5,18.0104,5.989599999999999Q20.5,8.47919,20.5,12Q20.5,12.04924,20.5096,12.09754Q20.5192,12.14584,20.5381,12.19134Q20.5569,12.23684,20.5843,12.27778Q20.6116,12.31873,20.6464,12.35355Q20.6813,12.38837,20.7222,12.41573Q20.7632,12.44309,20.8087,12.46194Q20.8542,12.48078,20.9025,12.49039Q20.9508,12.5,21,12.5Q21.0492,12.5,21.0975,12.49039Q21.1458,12.48078,21.1913,12.46194Q21.2368,12.44309,21.2778,12.41573Q21.3187,12.38837,21.3536,12.35355Q21.3884,12.31873,21.4157,12.27778Q21.4431,12.23684,21.4619,12.19134Q21.4808,12.14584,21.4904,12.09754Q21.5,12.04924,21.5,12Q21.5,8.06498,18.7175,5.28249Q15.935,2.5,12,2.5Q7.96662,2.500001,5.164569999999999,5.40247ZM2.5,12Q2.5,11.95075,2.509607,11.90245Q2.519215,11.85415,2.5380599999999998,11.80866Q2.556906,11.76316,2.584265,11.72221Q2.611625,11.68127,2.646447,11.64645Q2.681269,11.61162,2.722215,11.58426Q2.763161,11.5569,2.808658,11.53806Q2.854155,11.51921,2.9024549,11.50961Q2.9507543,11.5,3,11.5Q3.0492457,11.5,3.0975451,11.50961Q3.145845,11.51921,3.191342,11.53806Q3.236839,11.5569,3.277785,11.58426Q3.318731,11.61162,3.353553,11.64645Q3.388375,11.68127,3.415735,11.72221Q3.443094,11.76316,3.4619400000000002,11.80866Q3.480785,11.85415,3.490393,11.90245Q3.5,11.95075,3.5,12Q3.500001,15.5208,5.989599999999999,18.0104Q8.47919,20.5,12,20.5Q15.4333,20.5,17.9027,18.1162Q17.9726,18.0487,18.0627,18.0123Q18.1528,17.976,18.25,17.976Q18.2992,17.976,18.3475,17.985599999999998Q18.3958,17.9952,18.4413,18.014Q18.486800000000002,18.032899999999998,18.5278,18.060200000000002Q18.5687,18.087600000000002,18.6036,18.1224Q18.6384,18.1572,18.6657,18.1982Q18.6931,18.2391,18.7119,18.284599999999998Q18.730800000000002,18.3301,18.7404,18.3784Q18.75,18.4267,18.75,18.476Q18.75,18.5777,18.7102,18.6714Q18.6705,18.765,18.5973,18.8357Q15.8372,21.5,12,21.5Q8.06498,21.5,5.28249,18.7175Q2.500406,15.9354,2.500001,12.00114L2.500001,12L2.5,12Z" fill-rule="evenodd" fill="#333333" fill-opacity="1"/></g></g></svg>