<svg xmlns="http://www.w3.org/2000/svg" xmlns:xlink="http://www.w3.org/1999/xlink" fill="none" version="1.1" width="24" height="24" viewBox="0 0 24 24"><defs><clipPath id="master_svg0_584_03508"><rect x="0" y="0" width="24" height="24" rx="0"/></clipPath></defs><g clip-path="url(#master_svg0_584_03508)"><g><path d="M3.75,18L3.75,4Q3.75,2.860913,4.5554563,2.0554563Q5.360913,1.25,6.5,1.25L16.5,1.25Q17.6391,1.25,18.444499999999998,2.0554563Q19.25,2.860914,19.25,4L19.25,18Q19.25,19.1391,18.444499999999998,19.9445Q17.6391,20.75,16.5,20.75L6.5,20.75Q5.360914,20.75,4.5554563,19.9445Q3.75,19.1391,3.75,18ZM5.25,18Q5.25,18.5178,5.6161200000000004,18.8839Q5.98224,19.25,6.5,19.25L16.5,19.25Q17.0178,19.25,17.3839,18.8839Q17.75,18.5178,17.75,18L17.75,4Q17.75,3.48223,17.3839,3.11612Q17.0178,2.75,16.5,2.75L6.5,2.75Q5.9822299999999995,2.75,5.6161200000000004,3.11612Q5.25,3.48223,5.25,4L5.25,18Z" fill="#333333" fill-opacity="1"/></g><g><path d="M4.5,11.75L18.5,11.75Q18.573900000000002,11.75,18.6463,11.735589000000001Q18.7188,11.721178,18.787,11.69291Q18.8553,11.664641,18.9167,11.623602Q18.978099999999998,11.582563,19.0303,11.53033Q19.0826,11.478097,19.1236,11.416678Q19.1646,11.355258,19.1929,11.287013Q19.2212,11.218767,19.235599999999998,11.146318Q19.25,11.0738685,19.25,11Q19.25,10.9261315,19.235599999999998,10.853682Q19.2212,10.781233,19.1929,10.712987Q19.1646,10.644742,19.1236,10.583322Q19.0826,10.521903,19.0303,10.46967Q18.978099999999998,10.417437,18.9167,10.376398Q18.8553,10.335359,18.787,10.30709Q18.7188,10.278822,18.6463,10.264410999999999Q18.573900000000002,10.25,18.5,10.25L4.5,10.25Q4.4261315,10.25,4.353682,10.264410999999999Q4.281233,10.278822,4.212987,10.30709Q4.144742,10.335359,4.083322,10.376398Q4.021903,10.417437,3.96967,10.46967Q3.917437,10.521903,3.876398,10.583322Q3.835359,10.644742,3.80709,10.712987Q3.778822,10.781233,3.764411,10.853682Q3.75,10.9261315,3.75,11Q3.75,11.0738685,3.764411,11.146318Q3.778822,11.218767,3.80709,11.287013Q3.835359,11.355258,3.876398,11.416678Q3.917437,11.478097,3.96967,11.53033Q4.021903,11.582563,4.083322,11.623602Q4.144742,11.664641,4.212987,11.69291Q4.281233,11.721178,4.353682,11.735589000000001Q4.4261315,11.75,4.5,11.75Z" fill-rule="evenodd" fill="#333333" fill-opacity="1"/></g><g><path d="M3.75,10L3.75,12Q3.75,12.07387,3.764411,12.14632Q3.778822,12.21877,3.80709,12.28701Q3.835359,12.35526,3.876398,12.41668Q3.917437,12.4781,3.96967,12.53033Q4.021903,12.58256,4.083322,12.6236Q4.144742,12.66464,4.212987,12.69291Q4.281233,12.72118,4.353682,12.73559Q4.4261315,12.75,4.5,12.75Q4.5738685,12.75,4.646318,12.73559Q4.718767,12.72118,4.787013,12.69291Q4.855258,12.66464,4.916678,12.6236Q4.978097,12.58256,5.03033,12.53033Q5.082563,12.4781,5.123602,12.41668Q5.164641,12.35526,5.19291,12.28701Q5.221178,12.21877,5.235589,12.14632Q5.25,12.07387,5.25,12L5.25,10Q5.25,9.9261315,5.235589,9.853682Q5.221178,9.781233,5.19291,9.712987Q5.164641,9.644742,5.123602,9.583322Q5.082563,9.521903,5.03033,9.46967Q4.978097,9.417437,4.916678,9.376398Q4.855258,9.335359,4.787013,9.30709Q4.718767,9.278822,4.646318,9.264410999999999Q4.5738685,9.25,4.5,9.25Q4.4261315,9.25,4.353682,9.264410999999999Q4.281233,9.278822,4.212987,9.30709Q4.144742,9.335359,4.083322,9.376398Q4.021903,9.417437,3.96967,9.46967Q3.917437,9.521903,3.876398,9.583322Q3.835359,9.644742,3.80709,9.712987Q3.778822,9.781233,3.764411,9.853682Q3.75,9.9261315,3.75,10Z" fill-rule="evenodd" fill="#333333" fill-opacity="1"/></g><g><path d="M17.75,10L17.75,12Q17.75,12.07387,17.764411,12.14632Q17.778822,12.21877,17.80709,12.28701Q17.835359,12.35526,17.876398000000002,12.41668Q17.917437,12.4781,17.96967,12.53033Q18.021903000000002,12.58256,18.083322,12.6236Q18.144742,12.66464,18.212987,12.69291Q18.281233,12.72118,18.353682,12.73559Q18.4261315,12.75,18.5,12.75Q18.5738685,12.75,18.646318,12.73559Q18.718767,12.72118,18.787013,12.69291Q18.855258,12.66464,18.916678,12.6236Q18.978096999999998,12.58256,19.03033,12.53033Q19.082563,12.4781,19.123601999999998,12.41668Q19.164641,12.35526,19.19291,12.28701Q19.221178,12.21877,19.235589,12.14632Q19.25,12.07387,19.25,12L19.25,10Q19.25,9.9261315,19.235589,9.853682Q19.221178,9.781233,19.19291,9.712987Q19.164641,9.644742,19.123601999999998,9.583322Q19.082563,9.521903,19.03033,9.46967Q18.978096999999998,9.417437,18.916678,9.376398Q18.855258,9.335359,18.787013,9.30709Q18.718767,9.278822,18.646318,9.264410999999999Q18.5738685,9.25,18.5,9.25Q18.4261315,9.25,18.353682,9.264410999999999Q18.281233,9.278822,18.212987,9.30709Q18.144742,9.335359,18.083322,9.376398Q18.021903000000002,9.417437,17.96967,9.46967Q17.917437,9.521903,17.876398000000002,9.583322Q17.835359,9.644742,17.80709,9.712987Q17.778822,9.781233,17.764411,9.853682Q17.75,9.9261315,17.75,10Z" fill-rule="evenodd" fill="#333333" fill-opacity="1"/></g><g><path d="M6.75,14.5L6.75,16.5Q6.75,16.57387,6.764411,16.64632Q6.778822,16.71877,6.80709,16.78701Q6.835359,16.85526,6.876398,16.91668Q6.917437,16.9781,6.96967,17.03033Q7.021903,17.08256,7.083322,17.1236Q7.144742,17.16464,7.212987,17.19291Q7.281233,17.22118,7.353682,17.235590000000002Q7.4261315,17.25,7.5,17.25Q7.5738685,17.25,7.646318,17.235590000000002Q7.718767,17.22118,7.787013,17.19291Q7.855258,17.16464,7.916678,17.1236Q7.978097,17.08256,8.03033,17.03033Q8.082563,16.9781,8.123602,16.91668Q8.164641,16.85526,8.19291,16.78701Q8.221178,16.71877,8.235589000000001,16.64632Q8.25,16.57387,8.25,16.5L8.25,14.5Q8.25,14.4261315,8.235589000000001,14.353682Q8.221178,14.281233,8.19291,14.212987Q8.164641,14.144742,8.123602,14.083322Q8.082563,14.021903,8.03033,13.96967Q7.978097,13.917437,7.916678,13.876398Q7.855258,13.835359,7.787013,13.80709Q7.718767,13.778822,7.646318,13.764410999999999Q7.5738685,13.75,7.5,13.75Q7.4261315,13.75,7.353682,13.764410999999999Q7.281233,13.778822,7.212987,13.80709Q7.144742,13.835359,7.083322,13.876398Q7.021903,13.917437,6.96967,13.96967Q6.917437,14.021903,6.876398,14.083322Q6.835359,14.144742,6.80709,14.212987Q6.778822,14.281233,6.764411,14.353682Q6.75,14.4261315,6.75,14.5Z" fill-rule="evenodd" fill="#333333" fill-opacity="1"/></g><g><path d="M6.75,5.5L6.75,7.5Q6.75,7.573869999999999,6.764411,7.646319999999999Q6.778822,7.71877,6.80709,7.78701Q6.835359,7.8552599999999995,6.876398,7.9166799999999995Q6.917437,7.9780999999999995,6.96967,8.03033Q7.021903,8.08256,7.083322,8.1236Q7.144742,8.16464,7.212987,8.19291Q7.281233,8.22118,7.353682,8.23559Q7.4261315,8.25,7.5,8.25Q7.5738685,8.25,7.646318,8.23559Q7.718767,8.22118,7.787013,8.19291Q7.855258,8.16464,7.916678,8.1236Q7.978097,8.08256,8.03033,8.03033Q8.082563,7.9780999999999995,8.123602,7.9166799999999995Q8.164641,7.8552599999999995,8.19291,7.78701Q8.221178,7.71877,8.235589000000001,7.646319999999999Q8.25,7.573869999999999,8.25,7.5L8.25,5.5Q8.25,5.4261315,8.235589000000001,5.353682Q8.221178,5.281233,8.19291,5.212987Q8.164641,5.144742,8.123602,5.083322Q8.082563,5.021903,8.03033,4.96967Q7.978097,4.917437,7.916678,4.876398Q7.855258,4.835359,7.787013,4.80709Q7.718767,4.778822,7.646318,4.764411Q7.5738685,4.75,7.5,4.75Q7.4261315,4.75,7.353682,4.764411Q7.281233,4.778822,7.212987,4.80709Q7.144742,4.835359,7.083322,4.876398Q7.021903,4.917437,6.96967,4.96967Q6.917437,5.021903,6.876398,5.083322Q6.835359,5.144742,6.80709,5.212987Q6.778822,5.281233,6.764411,5.353682Q6.75,5.4261315,6.75,5.5Z" fill-rule="evenodd" fill="#333333" fill-opacity="1"/></g><g><path d="M15.75,20L15.75,22Q15.75,22.07387,15.764410999999999,22.14632Q15.778822,22.21877,15.80709,22.28701Q15.835359,22.35526,15.876398,22.41668Q15.917437,22.4781,15.96967,22.53033Q16.021903000000002,22.58256,16.083322,22.6236Q16.144742,22.66464,16.212987,22.69291Q16.281233,22.72118,16.353682,22.735590000000002Q16.4261315,22.75,16.5,22.75Q16.5738685,22.75,16.646318,22.735590000000002Q16.718767,22.72118,16.787013,22.69291Q16.855258,22.66464,16.916678,22.6236Q16.978096999999998,22.58256,17.03033,22.53033Q17.082563,22.4781,17.123601999999998,22.41668Q17.164641,22.35526,17.19291,22.28701Q17.221178,22.21877,17.235589,22.14632Q17.25,22.07387,17.25,22L17.25,20Q17.25,19.9261315,17.235589,19.853682Q17.221178,19.781233,17.19291,19.712987Q17.164641,19.644742,17.123601999999998,19.583322Q17.082563,19.521903000000002,17.03033,19.46967Q16.978096999999998,19.417437,16.916678,19.376398000000002Q16.855258,19.335359,16.787013,19.30709Q16.718767,19.278822,16.646318,19.264411Q16.5738685,19.25,16.5,19.25Q16.4261315,19.25,16.353682,19.264411Q16.281233,19.278822,16.212987,19.30709Q16.144742,19.335359,16.083322,19.376398000000002Q16.021903000000002,19.417437,15.96967,19.46967Q15.917437,19.521903000000002,15.876398,19.583322Q15.835359,19.644742,15.80709,19.712987Q15.778822,19.781233,15.764410999999999,19.853682Q15.75,19.9261315,15.75,20Z" fill-rule="evenodd" fill="#333333" fill-opacity="1"/></g><g><path d="M5.75,20L5.75,22Q5.75,22.07387,5.764411,22.14632Q5.778822,22.21877,5.80709,22.28701Q5.835359,22.35526,5.876398,22.41668Q5.917437,22.4781,5.96967,22.53033Q6.021903,22.58256,6.083322,22.6236Q6.144742,22.66464,6.212987,22.69291Q6.281233,22.72118,6.353682,22.735590000000002Q6.4261315,22.75,6.5,22.75Q6.5738685,22.75,6.646318,22.735590000000002Q6.718767,22.72118,6.787013,22.69291Q6.855258,22.66464,6.916678,22.6236Q6.978097,22.58256,7.03033,22.53033Q7.082563,22.4781,7.123602,22.41668Q7.164641,22.35526,7.19291,22.28701Q7.221178,22.21877,7.235589,22.14632Q7.25,22.07387,7.25,22L7.25,20Q7.25,19.9261315,7.235589,19.853682Q7.221178,19.781233,7.19291,19.712987Q7.164641,19.644742,7.123602,19.583322Q7.082563,19.521903000000002,7.03033,19.46967Q6.978097,19.417437,6.916678,19.376398000000002Q6.855258,19.335359,6.787013,19.30709Q6.718767,19.278822,6.646318,19.264411Q6.5738685,19.25,6.5,19.25Q6.4261315,19.25,6.353682,19.264411Q6.281233,19.278822,6.212987,19.30709Q6.144742,19.335359,6.083322,19.376398000000002Q6.021903,19.417437,5.96967,19.46967Q5.917437,19.521903000000002,5.876398,19.583322Q5.835359,19.644742,5.80709,19.712987Q5.778822,19.781233,5.764411,19.853682Q5.75,19.9261315,5.75,20Z" fill-rule="evenodd" fill="#333333" fill-opacity="1"/></g></g></svg>