<svg xmlns="http://www.w3.org/2000/svg" xmlns:xlink="http://www.w3.org/1999/xlink" fill="none" version="1.1" width="25.5" height="25.5" viewBox="0 0 25.5 25.5"><g><g><g><g transform="matrix(-1,-1.2246469849340659e-16,1.2246469849340659e-16,-1,49.5,49.5)" style="opacity:0;"><path d="M24,24.75L24,48.75Q24,48.823899999999995,24.014411,48.8963Q24.028822,48.9688,24.05709,49.037Q24.085359,49.1053,24.126398000000002,49.1667Q24.167437,49.2281,24.21967,49.2803Q24.271903000000002,49.3326,24.333322,49.373599999999996Q24.394742,49.4146,24.462987,49.4429Q24.531233,49.471199999999996,24.603682,49.485600000000005Q24.6761315,49.5,24.75,49.5L48.75,49.5Q48.823899999999995,49.5,48.8963,49.485600000000005Q48.9688,49.471199999999996,49.037,49.4429Q49.1053,49.4146,49.1667,49.373599999999996Q49.2281,49.3326,49.2803,49.2803Q49.3326,49.2281,49.373599999999996,49.1667Q49.4146,49.1053,49.4429,49.037Q49.471199999999996,48.9688,49.485600000000005,48.8963Q49.5,48.823899999999995,49.5,48.75L49.5,24.75Q49.5,24.6761315,49.485600000000005,24.603682Q49.471199999999996,24.531233,49.4429,24.462987Q49.4146,24.394742,49.373599999999996,24.333322Q49.3326,24.271903000000002,49.2803,24.21967Q49.2281,24.167437,49.1667,24.126398000000002Q49.1053,24.085359,49.037,24.05709Q48.9688,24.028822,48.8963,24.014411Q48.823899999999995,24,48.75,24L24.75,24Q24.6761315,24,24.603682,24.014411Q24.531233,24.028822,24.462987,24.05709Q24.394742,24.085359,24.333322,24.126398000000002Q24.271903000000002,24.167437,24.21967,24.21967Q24.167437,24.271903000000002,24.126398000000002,24.333322Q24.085359,24.394742,24.05709,24.462987Q24.028822,24.531233,24.014411,24.603682Q24,24.6761315,24,24.75ZM25.5,48L48,48L48,25.5L25.5,25.5L25.5,48Z" fill-rule="evenodd" fill="#000000" fill-opacity="1"/></g></g><g><g><g><path d="M8.1751,10.014413133544922L8.175229999999999,10.014213133544922Q8.3,9.825893133544922,8.3,9.599993133544922Q8.3,9.526123133544921,8.28558,9.453673133544921Q8.27117,9.381223133544921,8.2429,9.312983133544922Q8.21464,9.244733133544923,8.1736,9.183313133544921Q8.13256,9.121893133544923,8.08033,9.069663133544921Q8.02809,9.017433133544921,7.96667,8.976393133544923Q7.9052500000000006,8.935353133544922,7.83701,8.907083133544923Q7.76876,8.878813133544922,7.69631,8.864403133544922Q7.6238600000000005,8.849993133544922,7.55,8.849993133544922Q7.457117,8.849993133544922,7.367045,8.872653133544922Q7.276972,8.895303133544921,7.195147,8.939253133544922Q7.113322,8.983193133544923,7.044688,9.045773133544921Q6.9760539999999995,9.108343133544922,6.924758,9.185773133544922Q5.75,10.958993133544922,5.75,13.074993133544922Q5.75,15.973153133544923,7.80092,18.024093133544923Q9.85184,20.074993133544922,12.75,20.074993133544922Q15.64816,20.074993133544922,17.6991,18.024093133544923Q19.75,15.973153133544923,19.75,13.074993133544922Q19.75,10.176833133544921,17.6991,8.125913133544922Q15.64816,6.074993133544922,12.75,6.074993133544922Q11.59429,6.074993133544922,10.44739,6.419004133544922L10.44705,6.419107133544922L10.44699,6.419123133544922Q10.38943,6.436392133544922,10.33535,6.462607133544922Q10.28127,6.4888211335449215,10.23206,6.523312133544922Q10.18284,6.557804133544922,10.13975,6.599692133544922Q10.09666,6.641580133544922,10.06078,6.689795133544922Q10.02491,6.738010733544922,9.99717,6.791323533544922Q9.96943,6.844636233544922,9.95054,6.901685733544922Q9.93164,6.958735133544922,9.92207,7.018065133544922Q9.9125,7.077396133544922,9.9125,7.137493133544922Q9.9125,7.211362133544922,9.92691,7.283811133544922Q9.941320000000001,7.356260133544922,9.96959,7.424506133544922Q9.99786,7.492751133544922,10.0389,7.554171133544922Q10.07994,7.615590133544922,10.13217,7.667823133544922Q10.1844,7.720056133544922,10.24582,7.761095133544922Q10.30724,7.8021341335449215,10.37549,7.830403133544921Q10.44373,7.858673133544922,10.51618,7.873083133544922Q10.58863,7.887493133544922,10.6625,7.887493133544922Q10.77258,7.887493133544922,10.87801,7.855863133544922Q11.814250000000001,7.574993133544922,12.75,7.574993133544922Q15.02684,7.574993133544922,16.6384,9.186573133544922Q18.25,10.798153133544922,18.25,13.074993133544922Q18.25,15.351833133544922,16.6384,16.963393133544923Q15.02684,18.574993133544922,12.75,18.574993133544922Q10.47316,18.574993133544922,8.86158,16.963393133544923Q7.25,15.351833133544922,7.25,13.074993133544922Q7.25,11.410913133544922,8.1751,10.014413133544922Z" fill-rule="evenodd" fill="#000000" fill-opacity="1"/></g><g><path d="M12.416083896484375,5.41697479296875Q12.505033896484374,5.31462579296875,12.552513896484374,5.18760779296875Q12.599993896484374,5.06059079296875,12.599993896484374,4.92498779296875Q12.599993896484374,4.85111929296875,12.585583896484374,4.77866979296875Q12.571173896484375,4.70622079296875,12.542903896484376,4.63797479296875Q12.514643896484376,4.56972979296875,12.473603896484375,4.50830979296875Q12.432563896484375,4.44689079296875,12.380323896484375,4.39465779296875Q12.328093896484376,4.34242479296875,12.266673896484376,4.30138579296875Q12.205253896484376,4.26034679296875,12.137013896484374,4.23207779296875Q12.068763896484375,4.20380979296875,11.996313896484375,4.18939879296875Q11.923863896484376,4.17498779296875,11.849993896484374,4.17498779296875Q11.687133896484376,4.17498779296875,11.538943896484374,4.24253279296875Q11.390753896484375,4.31007679296875,11.283913896484375,4.43300079296875L11.283823896484375,4.43310679296875L9.209004896484375,6.82039779296875L9.208911896484375,6.82050779296875Q9.119958896484375,6.92285779296875,9.072476896484375,7.04986779296875Q9.024993896484375,7.17688779296875,9.024993896484375,7.31248779296875Q9.024993896484375,7.3863577929687505,9.039404896484374,7.45880779296875Q9.053815896484375,7.53125779296875,9.082083896484376,7.599507792968749Q9.110352896484375,7.6677477929687505,9.151391896484375,7.729167792968751Q9.192430896484375,7.790587792968751,9.244663896484376,7.84281779296875Q9.296896896484375,7.89505779296875,9.358315896484376,7.93609779296875Q9.419735896484376,7.97713779296875,9.487980896484375,8.00539779296875Q9.556226896484375,8.03366779296875,9.628675896484374,8.04807779296875Q9.701125396484375,8.06248779296875,9.774993896484375,8.06248779296875Q9.937854896484374,8.06248779296875,10.086047896484375,7.99494779296875Q10.234241896484376,7.927397792968749,10.341075896484375,7.8044777929687505L10.341318896484374,7.8041977929687505L12.415823896484374,5.41727179296875L12.416083896484375,5.41697479296875L12.416083896484375,5.41697479296875Z" fill-rule="evenodd" fill="#000000" fill-opacity="1"/></g><g><path d="M10.217974896484375,6.707291370605469L12.642763896484375,8.482132370605468L12.642973896484374,8.48229237060547Q12.714333896484375,8.534522370605469,12.771593896484376,8.601922370605468Q12.828843896484376,8.669312370605468,12.868853896484374,8.748182370605468Q12.908863896484375,8.827042370605469,12.929423896484375,8.913052370605469Q12.949993896484376,8.999062370605468,12.949993896484376,9.087492370605469Q12.949993896484376,9.161362370605469,12.935583896484374,9.233812370605468Q12.921173896484376,9.306252370605469,12.892903896484375,9.37450237060547Q12.864633896484374,9.442752370605469,12.823593896484375,9.504162370605469Q12.782563896484374,9.565582370605469,12.730323896484375,9.617822370605468Q12.678093896484375,9.670052370605468,12.616673896484375,9.711092370605469Q12.555253896484375,9.75213237060547,12.487013896484374,9.780402370605469Q12.418763896484375,9.808672370605468,12.346313896484375,9.82308237060547Q12.273863896484375,9.837492370605469,12.199993896484376,9.837492370605469Q11.954843896484375,9.837492370605469,11.757013896484375,9.692692370605469L9.332012896484375,7.917693370605469Q9.260653896484374,7.865461370605469,9.203399896484376,7.798064370605469Q9.146146896484375,7.730668370605469,9.106137896484375,7.651803370605469Q9.066129896484375,7.572939370605469,9.045561896484376,7.4869323706054685Q9.024993896484375,7.400924670605469,9.024993896484375,7.312492370605469Q9.024993896484375,7.238623870605469,9.039404896484374,7.166174370605469Q9.053815896484375,7.093725370605469,9.082083896484376,7.025479370605469Q9.110352896484375,6.957234370605469,9.151391896484375,6.895814370605469Q9.192430896484375,6.834395370605469,9.244663896484376,6.782162370605469Q9.296896896484375,6.729929370605468,9.358315896484376,6.688890370605469Q9.419735896484376,6.647851370605469,9.487980896484375,6.619582370605468Q9.556226896484375,6.591314370605469,9.628675896484374,6.576903370605469Q9.701125396484375,6.562492370605469,9.774993896484375,6.562492370605469Q10.020149896484375,6.562492370605469,10.217974896484375,6.707291370605469Z" fill-rule="evenodd" fill="#000000" fill-opacity="1"/></g></g></g></g></g></svg>