<svg xmlns="http://www.w3.org/2000/svg" xmlns:xlink="http://www.w3.org/1999/xlink" fill="none" version="1.1" width="24" height="24" viewBox="0 0 24 24"><defs><clipPath id="master_svg0_112_10191"><rect x="0" y="0" width="24" height="24" rx="0"/></clipPath></defs><g clip-path="url(#master_svg0_112_10191)"><g><path d="M3.25,15L3.25,6Q3.25,4.860913,4.0554563,4.0554563Q4.860913,3.25,6,3.25L18,3.25Q19.1391,3.25,19.944499999999998,4.0554563Q20.75,4.860914,20.75,6L20.75,15Q20.75,16.1391,19.944499999999998,16.944499999999998Q19.1391,17.75,18,17.75L6,17.75Q4.860915,17.75,4.0554563,16.944499999999998Q3.25,16.1391,3.25,15ZM4.75,15Q4.75,15.5178,5.1161200000000004,15.8839Q5.4822299999999995,16.25,6,16.25L18,16.25Q18.5178,16.25,18.8839,15.8839Q19.25,15.5178,19.25,15L19.25,6Q19.25,5.4822299999999995,18.8839,5.1161200000000004Q18.5178,4.75,18,4.75L6,4.75Q5.4822299999999995,4.75,5.1161200000000004,5.1161200000000004Q4.75,5.4822299999999995,4.75,6L4.75,15Z" fill="#333333" fill-opacity="1"/></g><g><path d="M11.25,17L11.25,20Q11.25,20.07387,11.264410999999999,20.14632Q11.278822,20.21877,11.30709,20.28701Q11.335359,20.35526,11.376398,20.41668Q11.417437,20.4781,11.46967,20.53033Q11.521903,20.58256,11.583322,20.6236Q11.644742,20.66464,11.712987,20.69291Q11.781233,20.72118,11.853682,20.735590000000002Q11.9261315,20.75,12,20.75Q12.0738685,20.75,12.146318,20.735590000000002Q12.218767,20.72118,12.287013,20.69291Q12.355258,20.66464,12.416678,20.6236Q12.478097,20.58256,12.53033,20.53033Q12.582563,20.4781,12.623602,20.41668Q12.664641,20.35526,12.69291,20.28701Q12.721178,20.21877,12.735589000000001,20.14632Q12.75,20.07387,12.75,20L12.75,17Q12.75,16.9261315,12.735589000000001,16.853682Q12.721178,16.781233,12.69291,16.712987Q12.664641,16.644742,12.623602,16.583322Q12.582563,16.521903000000002,12.53033,16.46967Q12.478097,16.417437,12.416678,16.376398000000002Q12.355258,16.335359,12.287013,16.30709Q12.218767,16.278822,12.146318,16.264411Q12.0738685,16.25,12,16.25Q11.9261315,16.25,11.853682,16.264411Q11.781233,16.278822,11.712987,16.30709Q11.644742,16.335359,11.583322,16.376398000000002Q11.521903,16.417437,11.46967,16.46967Q11.417437,16.521903000000002,11.376398,16.583322Q11.335359,16.644742,11.30709,16.712987Q11.278822,16.781233,11.264410999999999,16.853682Q11.25,16.9261315,11.25,17Z" fill-rule="evenodd" fill="#333333" fill-opacity="1"/></g><g><path d="M15.53033,7.53033L15.53076,7.529901Q15.533760000000001,7.526895,15.53673,7.523856L15.53715,7.523421Q15.6395,7.418381,15.694749999999999,7.282522Q15.75,7.146663,15.75,7Q15.75,6.850816,15.692910000000001,6.712987Q15.635819999999999,6.575159,15.53033,6.46967Q15.42484,6.364181,15.28701,6.30709Q15.149180000000001,6.25,15,6.25Q14.850819999999999,6.25,14.71299,6.30709Q14.57516,6.364181,14.46967,6.46967L7.46967,13.46967Q7.364181,13.57516,7.30709,13.71299Q7.25,13.850819999999999,7.25,14Q7.25,14.149180000000001,7.30709,14.28701Q7.364181,14.42484,7.46967,14.53033Q7.575159,14.635819999999999,7.712987,14.692910000000001Q7.850816,14.75,8,14.75Q8.149184,14.75,8.287012,14.692910000000001Q8.424841,14.635819999999999,8.53033,14.53033L15.53033,7.53033Z" fill-rule="evenodd" fill="#333333" fill-opacity="1"/></g><g><path d="M7,20.75L17,20.75Q17.073900000000002,20.75,17.1463,20.735589Q17.2188,20.721178,17.287,20.69291Q17.3553,20.664641,17.4167,20.623601999999998Q17.478099999999998,20.582563,17.5303,20.53033Q17.5826,20.478096999999998,17.6236,20.416678Q17.6646,20.355258,17.6929,20.287013Q17.7212,20.218767,17.735599999999998,20.146318Q17.75,20.0738685,17.75,20Q17.75,19.9261315,17.735599999999998,19.853682Q17.7212,19.781233,17.6929,19.712987Q17.6646,19.644742,17.6236,19.583322Q17.5826,19.521903000000002,17.5303,19.46967Q17.478099999999998,19.417437,17.4167,19.376398000000002Q17.3553,19.335359,17.287,19.30709Q17.2188,19.278822,17.1463,19.264411Q17.073900000000002,19.25,17,19.25L7,19.25Q6.9261315,19.25,6.853682,19.264411Q6.781233,19.278822,6.712987,19.30709Q6.644742,19.335359,6.583322,19.376398000000002Q6.521903,19.417437,6.46967,19.46967Q6.417437,19.521903000000002,6.376398,19.583322Q6.335359,19.644742,6.30709,19.712987Q6.278822,19.781233,6.264411,19.853682Q6.25,19.9261315,6.25,20Q6.25,20.0738685,6.264411,20.146318Q6.278822,20.218767,6.30709,20.287013Q6.335359,20.355258,6.376398,20.416678Q6.417437,20.478096999999998,6.46967,20.53033Q6.521903,20.582563,6.583322,20.623601999999998Q6.644742,20.664641,6.712987,20.69291Q6.781233,20.721178,6.853682,20.735589Q6.9261315,20.75,7,20.75Z" fill-rule="evenodd" fill="#333333" fill-opacity="1"/></g><g><ellipse cx="8.5" cy="8.5" rx="1.5" ry="1.5" fill-opacity="0" stroke-opacity="1" stroke="#333333" fill="none" stroke-width="1.5" stroke-linecap="ROUND" stroke-linejoin="round"/></g><g><ellipse cx="15.5" cy="12.5" rx="1.5" ry="1.5" fill-opacity="0" stroke-opacity="1" stroke="#333333" fill="none" stroke-width="1.5" stroke-linecap="ROUND" stroke-linejoin="round"/></g></g></svg>