<svg xmlns="http://www.w3.org/2000/svg" xmlns:xlink="http://www.w3.org/1999/xlink" fill="none" version="1.1" width="24" height="24" viewBox="0 0 24 24"><g><g><g transform="matrix(-1,0,0,-1,48,48)" style="opacity:0;"><path d="M24,24C24,24,48,24,48,24C48,24,48,48,48,48C48,48,24,48,24,48C24,48,24,24,24,24Z" fill="#000000" fill-opacity="1"/></g><g><path d="M18.268723242187498,21.0000150390625Q18.268723242187498,21.0985150390625,18.2879232421875,21.1951150390625Q18.3071232421875,21.2917150390625,18.344823242187502,21.3827150390625Q18.3825232421875,21.4737150390625,18.4372232421875,21.5556150390625Q18.4919232421875,21.6374150390625,18.561523242187498,21.7071150390625Q18.631223242187502,21.7767150390625,18.7131232421875,21.8315150390625Q18.7950232421875,21.8862150390625,18.8860232421875,21.9239150390625Q18.9770232421875,21.9616150390625,19.0736232421875,21.9808150390625Q19.1702232421875,22.0000150390625,19.268723242187498,22.0000150390625Q19.3671232421875,22.0000150390625,19.4637232421875,21.9808150390625Q19.5603232421875,21.9616150390625,19.6513232421875,21.9239150390625Q19.7423232421875,21.8862150390625,19.8242232421875,21.8315150390625Q19.9061232421875,21.7767150390625,19.9758232421875,21.7071150390625Q20.0454232421875,21.6374150390625,20.1001232421875,21.5556150390625Q20.1548232421875,21.4737150390625,20.1925232421875,21.3827150390625Q20.2302232421875,21.2917150390625,20.2494232421875,21.1951150390625Q20.2687232421875,21.0985150390625,20.2687232421875,21.0000150390625L20.2687232421875,3.9254150390625Q20.2687232421875,3.8269240390625,20.2494232421875,3.7303250390625Q20.2302232421875,3.6337260390625,20.1925232421875,3.5427310390624998Q20.1548232421875,3.4517370390625,20.1001232421875,3.3698450390625Q20.0454232421875,3.2879520390625,19.9758232421875,3.2183080390625Q19.9061232421875,3.1486640390625,19.8242232421875,3.0939450390625Q19.7423232421875,3.0392260390625,19.6513232421875,3.0015355390625Q19.5603232421875,2.9638444390625,19.4637232421875,2.9446297390625Q19.3671232421875,2.9254150390625,19.268723242187498,2.9254150390625Q19.1702232421875,2.9254150390625,19.0736232421875,2.9446297390625Q18.9770232421875,2.9638444390625,18.8860232421875,3.0015355390625Q18.7950232421875,3.0392260390625,18.7131232421875,3.0939450390625Q18.631223242187502,3.1486640390625,18.561523242187498,3.2183080390625Q18.4919232421875,3.2879520390625,18.4372232421875,3.3698450390625Q18.3825232421875,3.4517370390625,18.344823242187502,3.5427310390624998Q18.3071232421875,3.6337260390625,18.2879232421875,3.7303250390625Q18.268723242187498,3.8269240390625,18.268723242187498,3.9254150390625L18.268723242187498,21.0000150390625ZM3.7313232421875,19.8402150390625C3.7313232421875,21.0052150390625,4.7231272421875,21.9237150390625,5.8847132421875,21.8343150390625L14.8847232421875,21.1420150390625C15.9267232421875,21.0619150390625,16.7313232421875,20.1930150390625,16.7313232421875,19.1479150390625L16.7313232421875,5.8520650390625C16.7313232421875,4.8069850390625,15.9267232421875,3.9381050390625,14.8847232421875,3.8579530390625L5.8847132421875,3.1656460390625C4.7231272421875,3.0762930390625,3.7313232421875,3.9947350390625003,3.7313232421875,5.1597550390624995L3.7313232421875,19.8402150390625ZM5.7313232421875,14.0000150390625L5.7313232421875,11.9999950390625Q5.7313232421875,11.9015050390625,5.7505332421875,11.8049050390625Q5.7697532421875,11.7083150390625,5.8074432421874995,11.6173150390625Q5.8451332421875,11.5263250390625,5.8998532421875005,11.4444250390625Q5.9545732421875,11.3625350390625,6.0242132421875,11.2928950390625Q6.0938632421875,11.2232450390625,6.1757532421875005,11.1685250390625Q6.2576432421875,11.1138050390625,6.348643242187499,11.0761150390625Q6.4396332421875,11.0384250390625,6.5362332421875,11.0192150390625Q6.6328332421875,10.9999950390625,6.7313232421875,10.9999950390625Q6.8298132421875,10.9999950390625,6.9264132421875,11.0192150390625Q7.0230132421875,11.0384250390625,7.114003242187501,11.0761150390625Q7.2050032421875,11.1138050390625,7.2868932421874995,11.1685250390625Q7.3687832421875,11.2232450390625,7.4384332421875,11.2928950390625Q7.5080732421875,11.3625350390625,7.5627932421874995,11.4444250390625Q7.6175132421875,11.5263250390625,7.6552032421875005,11.6173150390625Q7.6928932421875,11.7083150390625,7.7121032421875,11.8049050390625Q7.7313232421875,11.9015050390625,7.7313232421875,11.9999950390625L7.7313232421875,14.0000150390625Q7.7313232421875,14.0985150390625,7.7121032421875,14.1951150390625Q7.6928932421875,14.2917150390625,7.6552032421875005,14.3827150390625Q7.6175132421875,14.4737150390625,7.5627932421874995,14.5556150390625Q7.5080732421875,14.6374150390625,7.4384332421875,14.7071150390625Q7.3687832421875,14.7767150390625,7.2868932421874995,14.8315150390625Q7.2050032421875,14.8862150390625,7.114003242187501,14.9239150390625Q7.0230132421875,14.9616150390625,6.9264132421875,14.9808150390625Q6.8298132421875,15.0000150390625,6.7313232421875,15.0000150390625Q6.6328332421875,15.0000150390625,6.5362332421875,14.9808150390625Q6.4396332421875,14.9616150390625,6.348643242187499,14.9239150390625Q6.2576432421875,14.8862150390625,6.1757532421875005,14.8315150390625Q6.0938632421875,14.7767150390625,6.0242132421875,14.7071150390625Q5.9545732421875,14.6374150390625,5.8998532421875005,14.5556150390625Q5.8451332421875,14.4737150390625,5.8074432421874995,14.3827150390625Q5.7697532421875,14.2917150390625,5.7505332421875,14.1951150390625Q5.7313232421875,14.0985150390625,5.7313232421875,14.0000150390625Z" fill-rule="evenodd" fill="#000000" fill-opacity="1"/></g></g></g></svg>