<svg xmlns="http://www.w3.org/2000/svg" xmlns:xlink="http://www.w3.org/1999/xlink" fill="none" version="1.1" width="15.5400390625" height="21.587890625" viewBox="0 0 15.5400390625 21.587890625"><g><g><path d="M9.21079625,21.587600000000002Q10.60419625,21.5744,12.08600625,20.9394Q13.60910625,20.2866,14.96270625,18.3676Q15.54050625,17.548299999999998,15.54050625,16.433999999999997L15.54050625,12.5Q15.54050625,11.671579999999999,14.95470625,11.08579Q14.36890625,10.5,13.54050625,10.5Q13.16690625,10.5,12.84270625,10.619119999999999Q12.70010625,10.33117,12.45470625,10.08579Q11.86890625,9.5,11.04050625,9.5Q10.66694625,9.5,10.34270625,9.61913Q10.20011625,9.33117,9.95473625,9.08579Q9.36894625,8.5,8.54052625,8.5Q8.27837625,8.5,8.04052625,8.55866L8.04052625,7.5Q8.04052625,6.671577,7.45473625,6.085789Q6.86894625,5.5,6.04052625,5.5Q5.21209625,5.5,4.62630625,6.085789Q4.04052625,6.671577,4.04052625,7.5L4.04052625,11.53803Q3.48663625,11.19333,2.79577625,11.15507Q1.77901625,11.09876,0.98380125,11.7349Q0.25963425,12.31423,0.06305424999999998,13.20214Q-0.13997375,14.11917,0.31513625,14.93632Q3.04431625,19.8368,6.02781625,20.9525Q7.76301625,21.601399999999998,9.21079625,21.587600000000002ZM6.54052625,10.5L6.54052625,7.5Q6.54052625,7.2928999999999995,6.39407625,7.1464490000000005Q6.24762625,7,6.04052625,7Q5.83341625,7,5.68696625,7.1464490000000005Q5.54052625,7.2928999999999995,5.54052625,7.5L5.54052625,13.25Q5.54052625,13.399180000000001,5.48343625,13.53701Q5.42633625,13.67484,5.32085625,13.78033Q5.26861625,13.83256,5.20719625,13.8736Q5.14577625,13.91464,5.07753625,13.942910000000001Q5.00928625,13.97118,4.93683625,13.98559Q4.86438625,14,4.79052625,14Q4.71665625,14,4.64420625,13.98559Q4.57175625,13.97118,4.50350625,13.942910000000001Q4.43526625,13.91464,4.37384625,13.8736Q4.31242625,13.83256,4.26019625,13.78033L3.47199625,12.99213Q3.15724625,12.67738,2.71282625,12.65277Q2.26841625,12.628160000000001,1.92084625,12.9062Q1.60980625,13.15503,1.52759025,13.52638Q1.44772925,13.8871,1.62560825,14.206479999999999Q2.60961625,15.97334,3.68915625,17.2619Q5.17105625,19.0306,6.55323625,19.5475Q8.027426250000001,20.0988,9.19653625,20.087699999999998Q10.28948625,20.0773,11.49510625,19.5606Q12.62800625,19.0751,13.73690625,17.5031Q14.04050625,17.072499999999998,14.04050625,16.433999999999997L14.04050625,12.5Q14.04050625,12.2929,13.89410625,12.14645Q13.74760625,12,13.54050625,12Q13.33340625,12,13.18700625,12.14645Q13.04050625,12.2929,13.04050625,12.5Q13.04050625,12.57387,13.02610625,12.64632Q13.01170625,12.71877,12.98340625,12.78701Q12.95520625,12.855260000000001,12.91410625,12.91668Q12.87310625,12.978100000000001,12.82080625,13.03033Q12.76860625,13.08256,12.70720625,13.1236Q12.64580625,13.16464,12.57750625,13.192910000000001Q12.50930625,13.22118,12.43680625,13.23559Q12.36440625,13.25,12.29050625,13.25Q12.21660625,13.25,12.14420625,13.23559Q12.07170625,13.22118,12.00350625,13.192910000000001Q11.93530625,13.16464,11.87380625,13.1236Q11.81240625,13.08256,11.76020625,13.03033Q11.70800625,12.978100000000001,11.66690625,12.91668Q11.62590625,12.855260000000001,11.59760625,12.78701Q11.56930625,12.71877,11.55490625,12.64632Q11.54050625,12.57387,11.54050625,12.5L11.54050625,11.5Q11.54050625,11.2929,11.39410625,11.14645Q11.24760625,11,11.04050625,11Q10.83340625,11,10.68696625,11.14645Q10.54052625,11.2929,10.54052625,11.5Q10.54052625,11.57387,10.52610625,11.64632Q10.51169625,11.71877,10.48342625,11.78701Q10.45515625,11.855260000000001,10.41412625,11.91668Q10.37308625,11.978100000000001,10.32085625,12.03033Q10.26861625,12.08256,10.20719625,12.1236Q10.14577625,12.16464,10.07753625,12.192910000000001Q10.00928625,12.22118,9.93683625,12.23559Q9.86438625,12.25,9.79052625,12.25Q9.71665625,12.25,9.64420625,12.23559Q9.57175625,12.22118,9.50350625,12.192910000000001Q9.43526625,12.16464,9.37384625,12.1236Q9.31242625,12.08256,9.26018625,12.03033Q9.20795625,11.978100000000001,9.16691625,11.91668Q9.12587625,11.855260000000001,9.09761625,11.78701Q9.06934625,11.71877,9.05493625,11.64632Q9.04052625,11.57387,9.04052625,11.5L9.04052625,10.5Q9.04052625,10.2929,8.89407625,10.14645Q8.74762625,10,8.54052625,10Q8.333416249999999,10,8.186966250000001,10.14645Q8.04052625,10.2929,8.04052625,10.5Q8.04052625,10.57387,8.02610625,10.64632Q8.01169625,10.71877,7.98342625,10.78701Q7.95516625,10.855260000000001,7.91412625,10.91668Q7.87308625,10.978100000000001,7.82085625,11.03033Q7.76861625,11.08256,7.70719625,11.1236Q7.64577625,11.16464,7.57753625,11.192910000000001Q7.50928625,11.22118,7.43683625,11.23559Q7.36438625,11.25,7.29052625,11.25Q7.21665625,11.25,7.14420625,11.23559Q7.07175625,11.22118,7.00350625,11.192910000000001Q6.93526625,11.16464,6.87384625,11.1236Q6.81242625,11.08256,6.76019625,11.03033Q6.70795625,10.978100000000001,6.66691625,10.91668Q6.62587625,10.855260000000001,6.59761625,10.78701Q6.56934625,10.71877,6.55493625,10.64632Q6.54052625,10.57387,6.54052625,10.5Z" fill-rule="evenodd" fill="#2B3D56" fill-opacity="1"/></g><g><path d="M9.82101134375,4.219824L9.82085734375,4.21967Q9.71536834375,4.114181,9.57754034375,4.05709Q9.43971134375,4,9.29052734375,4Q9.14134334375,4,9.00351434375,4.05709Q8.86568634375,4.114181,8.76019734375,4.21967Q8.65470834375,4.325159,8.59761734375,4.462987Q8.54052734375,4.600816,8.54052734375,4.75Q8.54052734375,4.899184,8.59761734375,5.037013Q8.65470834375,5.174841,8.76019734375,5.28033L8.76035134375,5.2804839999999995L10.76019734375,7.28033Q10.81242734375,7.33256,10.87384734375,7.3736Q10.93526734375,7.41464,11.00351734375,7.4429099999999995Q11.07175734375,7.47118,11.14420734375,7.48559Q11.21665734375,7.5,11.29052734375,7.5Q11.36439734375,7.5,11.43684734375,7.48559Q11.50929734375,7.47118,11.57753734375,7.4429099999999995Q11.64578734375,7.41464,11.70720734375,7.3736Q11.76862734375,7.33256,11.82085734375,7.28033L13.82085734375,5.28033L13.82128734375,5.279901Q13.824287343750001,5.276895,13.82725734375,5.273856L13.82767734375,5.273421Q13.93002734375,5.168381,13.985277343749999,5.032522Q14.04052734375,4.896663,14.04052734375,4.75Q14.04052734375,4.600816,13.983437343750001,4.462987Q13.926347343749999,4.325159,13.82085734375,4.21967Q13.71536734375,4.114181,13.57753734375,4.05709Q13.439707343750001,4,13.29052734375,4Q13.14134734375,4,13.00351734375,4.05709Q12.86568734375,4.114181,12.76019734375,4.21967L11.29052734375,5.68934L9.82101134375,4.219824Z" fill-rule="evenodd" fill="#2B3D56" fill-opacity="1"/></g><g><path d="M10.54052734375,5.25Q10.54052734375,5.59918,10.47750734375,5.93891Q10.46492734375,6.00673,10.46492734375,6.0757L10.46497734375,6.08397Q10.46748734375,6.31224,10.59676734375,6.50041Q10.68124734375,6.62337,10.80634734375,6.70464Q10.93145734375,6.78591,11.07813734375,6.81312Q11.14595734375,6.8257,11.21492734375,6.8257Q11.25070734375,6.8257,11.28632734375,6.82229Q11.34673734375,6.81651,11.40544734375,6.8011Q11.46414734375,6.78568,11.51961734375,6.76102Q11.57507734375,6.73636,11.62584734375,6.70311Q11.67662734375,6.66985,11.72139734375,6.62886Q11.76615734375,6.58787,11.80375734375,6.54022Q11.84134734375,6.49257,11.87078734375,6.43949Q11.90022734375,6.38641,11.92075734375,6.32929Q11.94127734375,6.27217,11.95234734375,6.21249Q12.04052734375,5.73713,12.04052734375,5.25Q12.04052734375,3.07538,10.50284734375,1.5376910000000001Q8.96515734375,0,6.79052734375,0Q4.6158973437499995,0,3.07820934375,1.5376910000000001Q1.54052734375,3.07538,1.54052734375,5.25Q1.54052734375,5.32387,1.55493834375,5.39632Q1.56934934375,5.46877,1.59761734375,5.53701Q1.62588634375,5.60526,1.66692534375,5.66668Q1.70796434375,5.7281,1.76019734375,5.78033Q1.81243034375,5.83256,1.87384934375,5.8736Q1.93526934375,5.91464,2.00351434375,5.94291Q2.07176034375,5.97118,2.14420934375,5.98559Q2.21665884375,6,2.29052734375,6Q2.36439584375,6,2.43684534375,5.98559Q2.50929434375,5.97118,2.57754034375,5.94291Q2.64578534375,5.91464,2.70720534375,5.8736Q2.76862434375,5.83256,2.82085734375,5.78033Q2.87309034375,5.7281,2.91412934375,5.66668Q2.95516834375,5.60526,2.98343734375,5.53701Q3.01170534375,5.46877,3.02611634375,5.39632Q3.04052734375,5.32387,3.04052734375,5.25Q3.04052734375,3.6967,4.13886734375,2.59835Q5.23721734375,1.5,6.79052734375,1.5Q8.34383734375,1.5,9.44218734375,2.59835Q10.54052734375,3.6967,10.54052734375,5.25Z" fill-rule="evenodd" fill="#2B3D56" fill-opacity="1"/></g></g></svg>