<svg xmlns="http://www.w3.org/2000/svg" xmlns:xlink="http://www.w3.org/1999/xlink" fill="none" version="1.1" width="20" height="20" viewBox="0 0 20 20"><defs><clipPath id="master_svg0_223_16358"><rect x="0" y="0" width="20" height="20" rx="0"/></clipPath></defs><g clip-path="url(#master_svg0_223_16358)"><g><path d="M8.675297011718751,5.220447599975586Q8.71709701171875,5.211663599975586,8.756807011718749,5.195915599975586Q8.79651701171875,5.1801665999755855,8.83298701171875,5.157910599975586Q8.86944701171875,5.135653599975586,8.901607011718749,5.107534599975586Q8.93376701171875,5.0794145999755855,8.96068701171875,5.046246599975586Q8.98761701171875,5.013079599975586,9.00851701171875,4.975825599975586Q9.029427011718749,4.938571599975586,9.04370701171875,4.898310599975586Q9.05799701171875,4.858050599975586,9.06523701171875,4.815950099975586Q9.07248701171875,4.773849899975586,9.07248701171875,4.731130599975586Q9.07248701171875,4.681884899975586,9.06287701171875,4.633585499975586Q9.05326701171875,4.585285599975586,9.034427011718751,4.539788599975586Q9.01557701171875,4.494291599975586,8.98821701171875,4.453345599975586Q8.960857011718751,4.412399599975586,8.926037011718751,4.377577599975586Q8.89121701171875,4.342755599975586,8.85026701171875,4.315395599975586Q8.80932701171875,4.288036599975586,8.76382701171875,4.269190599975586Q8.718327011718749,4.250345599975586,8.670037011718751,4.240737599975586Q8.62173701171875,4.231130599975586,8.57248701171875,4.231130599975586Q8.52052701171875,4.231130599975586,8.469677011718751,4.241813599975586L8.46951701171875,4.241847599975586L8.468607011718749,4.242039599975586Q7.73404701171875,4.396484599975586,7.04370701171875,4.696282899975586Q5.68223701171875,5.287536599975586,4.63316701171875,6.364650599975586Q2.41668701171875,8.640390599975586,2.41668701171875,11.856080599975586L2.41668701171875,14.583370599975586Q2.41668701171875,14.632620599975587,2.42629401171875,14.680920599975586Q2.43590201171875,14.729220599975585,2.4547470117187498,14.774730599975586Q2.47359301171875,14.820230599975586,2.50095201171875,14.861130599975587Q2.52831201171875,14.902130599975585,2.56313401171875,14.936930599975586Q2.59795601171875,14.971730599975587,2.63890201171875,14.999130599975587Q2.67984801171875,15.026430599975585,2.72534501171875,15.045330599975586Q2.77084201171875,15.064130599975586,2.81914191171875,15.073730599975585Q2.86744131171875,15.083330599975586,2.91668701171875,15.083330599975586L17.08338701171875,15.083330599975586Q17.132587011718748,15.083330599975586,17.180887011718752,15.073730599975585Q17.22918701171875,15.064130599975586,17.27468701171875,15.045330599975586Q17.32018701171875,15.026430599975585,17.361187011718748,14.999130599975587Q17.40208701171875,14.971730599975587,17.436887011718753,14.936930599975586Q17.47168701171875,14.902130599975585,17.49908701171875,14.861130599975587Q17.52648701171875,14.820230599975586,17.54528701171875,14.774730599975586Q17.56418701171875,14.729220599975585,17.57378701171875,14.680920599975586Q17.58338701171875,14.632620599975587,17.58338701171875,14.583370599975586L17.58338701171875,11.856080599975586Q17.58338701171875,8.640390599975586,15.36688701171875,6.364650599975586Q14.31778701171875,5.287537599975586,12.95628701171875,4.696282699975586Q12.26584701171875,4.396420599975586,11.53111701171875,4.241972599975586L11.53052701171875,4.241847599975586L11.53035701171875,4.241813599975586Q11.47951701171875,4.231130599975586,11.42755701171875,4.231130599975586Q11.37830701171875,4.231130599975586,11.33000701171875,4.240737599975586Q11.28170701171875,4.250345599975586,11.23621701171875,4.269190599975586Q11.19071701171875,4.288036599975586,11.14976701171875,4.315395599975586Q11.10882701171875,4.342755599975586,11.07399701171875,4.377577599975586Q11.03917701171875,4.412399599975586,11.01181701171875,4.453345599975586Q10.98445701171875,4.494291599975586,10.96561701171875,4.539788599975586Q10.94676701171875,4.585285599975586,10.93715701171875,4.633585499975586Q10.92755701171875,4.681884899975586,10.92755701171875,4.731130599975586Q10.92755701171875,4.773849899975586,10.93480701171875,4.815950099975586Q10.94204701171875,4.858050599975586,10.95633701171875,4.898310599975586Q10.97061701171875,4.938571599975586,10.99151701171875,4.975825599975586Q11.01242701171875,5.013079599975586,11.03935701171875,5.046247599975586Q11.06627701171875,5.0794145999755855,11.09843701171875,5.107534599975586Q11.13059701171875,5.135653599975586,11.16705701171875,5.157910599975586Q11.20351701171875,5.1801665999755855,11.24322701171875,5.195915599975586Q11.28293701171875,5.211663599975586,11.32474701171875,5.220447599975586L11.32476701171875,5.220451599975586L11.32494701171875,5.220489599975586Q11.96048701171875,5.354039599975586,12.55799701171875,5.613522599975586Q13.73888701171875,6.126330599975586,14.65048701171875,7.062370599975586Q16.58338701171875,9.046900599975586,16.58338701171875,11.856080599975586L16.58338701171875,14.083370599975586L3.41668701171875,14.083370599975586L3.41668701171875,11.856080599975586Q3.41668701171875,9.046900599975586,5.34953701171875,7.062370599975586Q6.26120701171875,6.126330599975586,7.44204701171875,5.613523599975586Q8.039647011718749,5.353997599975586,8.675297011718751,5.220447599975586Z" fill-rule="evenodd" fill="#232D42" fill-opacity="1" style="mix-blend-mode:passthrough"/></g><g><path d="M1.67925021171875,14.5959372234375Q1.16668701171875,15.1085000234375,1.16668701171875,15.8333740234375Q1.16668701171875,16.5582440234375,1.67925001171875,17.0708140234375Q2.19181301171875,17.5833740234375,2.91668701171875,17.5833740234375L17.08338701171875,17.5833740234375Q17.80818701171875,17.5833740234375,18.32078701171875,17.0708140234375Q18.83338701171875,16.5582440234375,18.83338701171875,15.8333740234375Q18.83338701171875,15.1085000234375,18.32078701171875,14.5959371234375Q17.80818701171875,14.0833740234375,17.08338701171875,14.0833740234375L2.91668701171875,14.0833740234375Q2.19181301171875,14.0833740234375,1.67925021171875,14.5959372234375ZM2.38635701171875,16.3637040234375Q2.16668701171875,16.1440340234375,2.16668701171875,15.8333740234375Q2.16668701171875,15.5227140234375,2.38635701171875,15.3030440234375Q2.60602701171875,15.0833740234375,2.91668701171875,15.0833740234375L17.08338701171875,15.0833740234375Q17.39398701171875,15.0833740234375,17.61368701171875,15.3030440234375Q17.83338701171875,15.5227150234375,17.83338701171875,15.8333740234375Q17.83338701171875,16.1440340234375,17.61368701171875,16.3637040234375Q17.39398701171875,16.5833740234375,17.08338701171875,16.5833740234375L2.91668701171875,16.5833740234375Q2.60602701171875,16.5833740234375,2.38635701171875,16.3637040234375Z" fill-rule="evenodd" fill="#232D42" fill-opacity="1" style="mix-blend-mode:passthrough"/></g><g><path d="M8.25,3.75L8.25,8.75Q8.25,9.47487,8.7625632,9.98744Q9.275127,10.5,10,10.5Q10.72487,10.5,11.23744,9.98744Q11.75,9.47487,11.75,8.75L11.75,3.75Q11.75,3.025126,11.23744,2.5125632Q10.72487,2,10,2Q9.275126,2,8.7625631,2.5125632Q8.25,3.025126,8.25,3.75ZM9.46967,9.28033Q9.25,9.06066,9.25,8.75L9.25,3.75Q9.25,3.43934,9.46967,3.21967Q9.68934,3,10,3Q10.31066,3,10.53033,3.21967Q10.75,3.43934,10.75,3.75L10.75,8.75Q10.75,9.06066,10.53033,9.28033Q10.31066,9.5,10,9.5Q9.68934,9.5,9.46967,9.28033Z" fill-rule="evenodd" fill="#232D42" fill-opacity="1" style="mix-blend-mode:passthrough"/></g></g></svg>