<svg xmlns="http://www.w3.org/2000/svg" xmlns:xlink="http://www.w3.org/1999/xlink" fill="none" version="1.1" width="25.5" height="25.5" viewBox="0 0 25.5 25.5"><g><g><g><g transform="matrix(-1,0,0,-1,49.5,49.5)" style="opacity:0;"><path d="M24,24.75L24,48.75Q24,48.823899999999995,24.014411,48.8963Q24.028822,48.9688,24.05709,49.037Q24.085359,49.1053,24.126398000000002,49.1667Q24.167437,49.2281,24.21967,49.2803Q24.271903000000002,49.3326,24.333322,49.373599999999996Q24.394742,49.4146,24.462987,49.4429Q24.531233,49.471199999999996,24.603682,49.485600000000005Q24.6761315,49.5,24.75,49.5L48.75,49.5Q48.823899999999995,49.5,48.8963,49.485600000000005Q48.9688,49.471199999999996,49.037,49.4429Q49.1053,49.4146,49.1667,49.373599999999996Q49.2281,49.3326,49.2803,49.2803Q49.3326,49.2281,49.373599999999996,49.1667Q49.4146,49.1053,49.4429,49.037Q49.471199999999996,48.9688,49.485600000000005,48.8963Q49.5,48.823899999999995,49.5,48.75L49.5,24.75Q49.5,24.6761315,49.485600000000005,24.603682Q49.471199999999996,24.531233,49.4429,24.462987Q49.4146,24.394742,49.373599999999996,24.333322Q49.3326,24.271903000000002,49.2803,24.21967Q49.2281,24.167437,49.1667,24.126398000000002Q49.1053,24.085359,49.037,24.05709Q48.9688,24.028822,48.8963,24.014411Q48.823899999999995,24,48.75,24L24.75,24Q24.6761315,24,24.603682,24.014411Q24.531233,24.028822,24.462987,24.05709Q24.394742,24.085359,24.333322,24.126398000000002Q24.271903000000002,24.167437,24.21967,24.21967Q24.167437,24.271903000000002,24.126398000000002,24.333322Q24.085359,24.394742,24.05709,24.462987Q24.028822,24.531233,24.014411,24.603682Q24,24.6761315,24,24.75ZM25.5,48L48,48L48,25.5L25.5,25.5L25.5,48Z" fill-rule="evenodd" fill="#000000" fill-opacity="1"/></g></g><g><g><g><path d="M10.89779,12.6877198Q10.85275,12.639562,10.8,12.6Q10.37285,12.279636,10.08216,12.166435Q9.65477,12,9,12Q6.588428,12,5.757934,13.20214Q5.403752,13.714819,5.30319,14.48487Q5.25,14.89217,5.25,15.75L5.25,16.5Q5.25,17.5594,5.314911,18.056359999999998Q5.434747,18.97382,5.851615,19.57745Q6.834041,21,9.75,21L15.75,21Q20.25,21,20.25,16.5L20.25,15.75Q20.25,14.89217,20.1968,14.48487Q20.0962,13.71482,19.7421,13.20214Q18.9116,12,16.5,12Q15.84523,12,15.41784,12.166435Q15.12715,12.279638,14.7,12.600001Q14.64874,12.638447,14.60474,12.6850328L13.839739999999999,13.495033Q13.396090000000001,13.96875,12.74906,13.96875Q12.100159999999999,13.96875,11.65276,13.495033L10.89779,12.6877198ZM9.84841,13.76167Q9.627089999999999,13.598944,9.53784,13.56419Q9.37301,13.5,9,13.5Q7.3753,13.5,6.992066,14.05474Q6.75,14.40513,6.75,15.75L6.75,16.5Q6.75,18.23869,7.0858799999999995,18.72505Q7.62107,19.5,9.75,19.5L15.75,19.5Q17.4869,19.5,18.1725,18.67268Q18.75,17.97587,18.75,16.5L18.75,15.75Q18.75,14.40512,18.5079,14.05474Q18.1247,13.5,16.5,13.5Q16.127000000000002,13.5,15.96216,13.56419Q15.87262,13.599058,15.65014,13.76274L14.93026,14.52497Q14.04641,15.46875,12.74906,15.46875Q11.45359,15.46875,10.56224,14.52497L9.84841,13.76167Z" fill-rule="evenodd" fill="#000000" fill-opacity="1"/></g><g><path d="M6.75,8.25L6.75,12.75Q6.75,12.82387,6.764411,12.89632Q6.778822,12.96877,6.80709,13.03701Q6.835359,13.105260000000001,6.876398,13.16668Q6.917437,13.228100000000001,6.96967,13.28033Q7.021903,13.33256,7.083322,13.3736Q7.144742,13.41464,7.212987,13.44291Q7.281233,13.47118,7.353682,13.48559Q7.4261315,13.5,7.5,13.5Q7.5738685,13.5,7.646318,13.48559Q7.718767,13.47118,7.787013,13.44291Q7.855258,13.41464,7.916678,13.3736Q7.978097,13.33256,8.03033,13.28033Q8.082563,13.228100000000001,8.123602,13.16668Q8.164641,13.105260000000001,8.19291,13.03701Q8.221178,12.96877,8.235589000000001,12.89632Q8.25,12.82387,8.25,12.75L8.25,8.25Q8.25,6.90513,8.492066,6.55474Q8.8753,6,10.5,6L15,6Q16.6247,6,17.00793,6.55474Q17.25,6.90512,17.25,8.25L17.25,12.75Q17.25,12.82387,17.264409999999998,12.89632Q17.27882,12.96877,17.307090000000002,13.03701Q17.33536,13.105260000000001,17.3764,13.16668Q17.41744,13.228100000000001,17.46967,13.28033Q17.521900000000002,13.33256,17.5833,13.3736Q17.6447,13.41464,17.713,13.44291Q17.7812,13.47118,17.8537,13.48559Q17.926099999999998,13.5,18,13.5Q18.073900000000002,13.5,18.1463,13.48559Q18.2188,13.47118,18.287,13.44291Q18.3553,13.41464,18.4167,13.3736Q18.478099999999998,13.33256,18.5303,13.28033Q18.5826,13.228100000000001,18.6236,13.16668Q18.6646,13.105260000000001,18.6929,13.03701Q18.7212,12.96877,18.735599999999998,12.89632Q18.75,12.82387,18.75,12.75L18.75,8.25Q18.75,7.39217,18.6968,6.98487Q18.5962,6.21482,18.2421,5.70214Q17.411569999999998,4.5,15,4.5L10.5,4.5Q8.088428,4.5,7.257934,5.70214Q6.903752,6.214819,6.80319,6.98487Q6.75,7.39217,6.75,8.25Z" fill-rule="evenodd" fill="#000000" fill-opacity="1"/></g></g></g></g></g></svg>