<svg xmlns="http://www.w3.org/2000/svg" xmlns:xlink="http://www.w3.org/1999/xlink" fill="none" version="1.1" width="19.2861328125" height="22.87353515625" viewBox="0 0 19.2861328125 22.87353515625"><g><g><path d="M12.95638171875,22.873426683044435Q14.34978171875,22.860226683044434,15.83151171875,22.225226683044433Q17.35471171875,21.572426683044434,18.70831171875,19.653426683044433Q19.28611171875,18.83412668304443,19.28611171875,17.71982668304443L19.28611171875,13.785826683044434Q19.28611171875,12.957406683044432,18.70031171875,12.371616683044433Q18.114511718750002,11.785826683044434,17.28611171875,11.785826683044434Q17.000211718750002,11.785826683044434,16.74331171875,11.855576683044433Q16.62771171875,11.299016683044433,16.20031171875,10.871616683044433Q15.61451171875,10.285826683044434,14.78611171875,10.285826683044434Q14.52401171875,10.285826683044434,14.28611171875,10.344486683044433L14.28611171875,8.285826683044434Q14.28611171875,7.457404683044434,13.70032171875,6.871615683044434Q13.11453171875,6.285826683044434,12.28611171875,6.285826683044434Q11.457691718749999,6.285826683044434,10.87190171875,6.871615683044434Q10.28611171875,7.457403683044434,10.28611171875,8.285826683044434L10.28611171875,8.344486683044433Q10.04826171875,8.285826683044434,9.78611171875,8.285826683044434Q8.957691718749999,8.285826683044434,8.37190171875,8.871616683044433Q7.78611171875,9.457406683044434,7.78611171875,10.285826683044434L7.78611171875,12.823856683044433Q7.23222171875,12.479156683044433,6.54137171875,12.440896683044434Q5.52461171875,12.384586683044434,4.72938271875,13.020736683044433Q4.00523671875,13.600066683044433,3.80865971875,14.487966683044434Q3.60563471875,15.404996683044434,4.06072971875,16.222146683044436Q6.78989171875,21.122526683044434,9.77340171875,22.238326683044434Q11.50861171875,22.88722668304443,12.95638171875,22.873426683044435ZM10.28611171875,10.285826683044434Q10.28611171875,10.078726683044433,10.13966171875,9.932276683044433Q9.99321171875,9.785826683044434,9.78611171875,9.785826683044434Q9.57901171875,9.785826683044434,9.43256171875,9.932276683044433Q9.28611171875,10.078726683044433,9.28611171875,10.285826683044434L9.28611171875,14.535826683044434Q9.28611171875,14.685006683044435,9.229021718750001,14.822836683044434Q9.171931718749999,14.960666683044433,9.06644171875,15.066156683044433Q9.014211718750001,15.118386683044434,8.95279171875,15.159426683044433Q8.891371718750001,15.200466683044434,8.82312171875,15.228736683044433Q8.75488171875,15.257006683044434,8.68243171875,15.271416683044434Q8.60998171875,15.285826683044434,8.53611171875,15.285826683044434Q8.46224171875,15.285826683044434,8.38979171875,15.271416683044434Q8.31734171875,15.257006683044434,8.24910171875,15.228736683044433Q8.18085171875,15.200466683044434,8.11943171875,15.159426683044433Q8.05801171875,15.118386683044434,8.00578171875,15.066156683044433L7.21758171875,14.277956683044433Q6.90283171875,13.963206683044433,6.4584217187499995,13.938596683044434Q6.01400171875,13.913986683044435,5.66644171875,14.192016683044432Q5.35541271875,14.440846683044434,5.27319671875,14.812206683044433Q5.19333371875,15.172936683044433,5.3712047187500005,15.492306683044434Q6.35520171875,17.259126683044435,7.43475171875,18.547726683044434Q8.91665171875,20.316426683044433,10.29882171875,20.833326683044433Q11.77302171875,21.384626683044434,12.94213171875,21.37352668304443Q14.03507171875,21.363126683044435,15.24071171875,20.846426683044434Q16.37361171875,20.360926683044433,17.48241171875,18.788926683044433Q17.78611171875,18.35832668304443,17.78611171875,17.71982668304443L17.78611171875,13.785826683044434Q17.78611171875,13.578726683044433,17.63971171875,13.432276683044433Q17.49321171875,13.285826683044434,17.28611171875,13.285826683044434Q17.07901171875,13.285826683044434,16.93251171875,13.432276683044433Q16.78611171875,13.578726683044433,16.78611171875,13.785826683044434Q16.78611171875,13.859696683044433,16.771711718749998,13.932146683044433Q16.75731171875,14.004596683044433,16.72901171875,14.072836683044434Q16.70071171875,14.141086683044435,16.65971171875,14.202506683044433Q16.61871171875,14.263926683044435,16.56641171875,14.316156683044433Q16.514211718749998,14.368386683044434,16.45281171875,14.409426683044433Q16.39141171875,14.450466683044434,16.32311171875,14.478736683044435Q16.25491171875,14.507006683044434,16.18241171875,14.521416683044434Q16.110011718750002,14.535826683044434,16.03611171875,14.535826683044434Q15.96221171875,14.535826683044434,15.88981171875,14.521416683044434Q15.81731171875,14.507006683044434,15.74911171875,14.478736683044435Q15.68081171875,14.450466683044434,15.61941171875,14.409426683044433Q15.55801171875,14.368386683044434,15.50581171875,14.316156683044433Q15.45351171875,14.263926683044435,15.41251171875,14.202506683044433Q15.37151171875,14.141086683044435,15.34321171875,14.072836683044434Q15.31491171875,14.004596683044433,15.30051171875,13.932146683044433Q15.28611171875,13.859696683044433,15.28611171875,13.785826683044434L15.28611171875,12.285826683044434Q15.28611171875,12.078726683044433,15.13971171875,11.932276683044433Q14.99321171875,11.785826683044434,14.78611171875,11.785826683044434Q14.57901171875,11.785826683044434,14.43256171875,11.932276683044433Q14.28611171875,12.078726683044433,14.28611171875,12.285826683044434Q14.28611171875,12.359696683044433,14.27170171875,12.432146683044433Q14.25729171875,12.504596683044433,14.22902171875,12.572836683044434Q14.20075171875,12.641086683044435,14.15971171875,12.702506683044433Q14.11867171875,12.763926683044435,14.06644171875,12.816156683044433Q14.01421171875,12.868386683044434,13.95279171875,12.909426683044433Q13.89137171875,12.950466683044434,13.82312171875,12.978736683044435Q13.75488171875,13.007006683044434,13.68243171875,13.021416683044434Q13.60998171875,13.035826683044434,13.53611171875,13.035826683044434Q13.46224171875,13.035826683044434,13.38979171875,13.021416683044434Q13.31734171875,13.007006683044434,13.24910171875,12.978736683044435Q13.18085171875,12.950466683044434,13.11943171875,12.909426683044433Q13.05801171875,12.868386683044434,13.00578171875,12.816156683044433Q12.95355171875,12.763926683044435,12.91251171875,12.702506683044433Q12.87147171875,12.641086683044435,12.84320171875,12.572836683044434Q12.81493171875,12.504596683044433,12.80052171875,12.432146683044433Q12.78611171875,12.359696683044433,12.78611171875,12.285826683044434L12.78611171875,8.285826683044434Q12.78611171875,8.078726683044433,12.63966171875,7.932275683044434Q12.49321171875,7.785826683044434,12.28611171875,7.785826683044434Q12.07901171875,7.785826683044434,11.93256171875,7.932275683044434Q11.78611171875,8.078726683044433,11.78611171875,8.285826683044434L11.78611171875,10.285826683044434Q11.78611171875,10.359696683044433,11.77170171875,10.432146683044433Q11.75729171875,10.504596683044433,11.729021718750001,10.572836683044434Q11.70075171875,10.641086683044433,11.65971171875,10.702506683044433Q11.61867171875,10.763926683044433,11.56644171875,10.816156683044433Q11.514211718750001,10.868386683044434,11.45279171875,10.909426683044433Q11.391371718750001,10.950466683044434,11.32312171875,10.978736683044433Q11.25488171875,11.007006683044434,11.18243171875,11.021416683044434Q11.10998171875,11.035826683044434,11.03611171875,11.035826683044434Q10.96224171875,11.035826683044434,10.88979171875,11.021416683044434Q10.81734171875,11.007006683044434,10.749101718750001,10.978736683044433Q10.680851718749999,10.950466683044434,10.61943171875,10.909426683044433Q10.55801171875,10.868386683044434,10.50578171875,10.816156683044433Q10.453551718749999,10.763926683044433,10.41251171875,10.702506683044433Q10.37147171875,10.641086683044433,10.343201718749999,10.572836683044434Q10.31493171875,10.504596683044433,10.30052171875,10.432146683044433Q10.28611171875,10.359696683044433,10.28611171875,10.285826683044434Z" fill-rule="evenodd" fill="#2B3D56" fill-opacity="1"/></g><g transform="matrix(0.8427050113677979,-0.5383755564689636,0.5383755564689636,0.8427050113677979,-4.3209329730981665,2.4970014481551743)"><path d="M2.11279296875,7.893157482147217L13.11279296875,7.893157482147217Q13.18669296875,7.893157482147217,13.25909296875,7.907568482147217Q13.33159296875,7.921979482147217,13.39979296875,7.950247482147216Q13.46809296875,7.978516482147217,13.52949296875,8.019555482147217Q13.59089296875,8.060594482147216,13.64309296875,8.112827482147217Q13.69539296875,8.165060482147217,13.73639296875,8.226479482147218Q13.77739296875,8.287899482147218,13.80569296875,8.356144482147217Q13.83399296875,8.424390482147217,13.84839296875,8.496839482147216Q13.86279296875,8.569288982147217,13.86279296875,8.643157482147217Q13.86279296875,8.717025982147216,13.84839296875,8.789475482147218Q13.83399296875,8.861924482147217,13.80569296875,8.930170482147217Q13.77739296875,8.998415482147216,13.73639296875,9.059835482147216Q13.69539296875,9.121254482147217,13.64309296875,9.173487482147216Q13.59089296875,9.225720482147217,13.52949296875,9.266759482147217Q13.46809296875,9.307798482147216,13.39979296875,9.336067482147216Q13.33159296875,9.364335482147217,13.25909296875,9.378746482147218Q13.18669296875,9.393157482147217,13.11279296875,9.393157482147217L2.11279296875,9.393157482147217Q2.03892446875,9.393157482147217,1.96647496875,9.378746482147218Q1.89402596875,9.364335482147217,1.82577996875,9.336067482147216Q1.75753496875,9.307798482147216,1.69611496875,9.266759482147217Q1.63469596875,9.225720482147217,1.58246296875,9.173487482147216Q1.53022996875,9.121254482147217,1.48919096875,9.059835482147216Q1.44815196875,8.998415482147216,1.41988296875,8.930170482147217Q1.39161496875,8.861924482147217,1.37720396875,8.789475482147218Q1.36279296875,8.717025982147216,1.36279296875,8.643157482147217Q1.36279296875,8.569288982147217,1.37720396875,8.496839482147216Q1.39161496875,8.424390482147217,1.41988296875,8.356144482147217Q1.44815196875,8.287899482147218,1.48919096875,8.226479482147218Q1.53022996875,8.165060482147217,1.58246296875,8.112827482147217Q1.63469596875,8.060594482147216,1.69611496875,8.019555482147217Q1.75753496875,7.978516482147217,1.82577996875,7.950247482147216Q1.89402596875,7.921979482147217,1.96647496875,7.907568482147217Q2.03892446875,7.893157482147217,2.11279296875,7.893157482147217Z" fill-rule="evenodd" fill="#2B3D56" fill-opacity="1"/></g><g transform="matrix(0.8427050113677979,-0.5383755564689636,0.5383755564689636,0.8427050113677979,-3.5829604226984486,1.6522642629607844)"><path d="M3.5664628125,7.488184747772217Q3.6719528125,7.382695747772217,3.7290428125,7.244867747772217Q3.7861328125,7.107038747772217,3.7861328125,6.957854747772217Q3.7861328125,6.883986247772217,3.7717228125,6.811536747772217Q3.7573128125,6.739087747772217,3.7290428125,6.670841747772217Q3.7007728125,6.602596747772217,3.6597328125,6.541176747772217Q3.6186928125,6.479757747772217,3.5664628125,6.427524747772217Q3.5142328125,6.375291747772216,3.4528128125,6.334252747772217Q3.3913928125,6.293213747772217,3.3231428125,6.264944747772216Q3.2549028125,6.236676747772217,3.1824528125,6.222265747772217Q3.1100028125,6.207854747772217,3.0361328125,6.207854747772217Q2.8869528124999997,6.207854747772217,2.7491228125,6.264944747772216Q2.6112928125,6.322035747772217,2.5058028125,6.427524747772217L2.5056528125,6.427678747772217L0.5058028125,8.427524747772217Q0.45356981249999995,8.479754747772217,0.4125308125,8.541174747772217Q0.37149181249999996,8.602594747772217,0.3432228125,8.670844747772216Q0.3149548125,8.739084747772218,0.30054381249999995,8.811534747772217Q0.2861328125,8.883984747772217,0.2861328125,8.957854747772217Q0.2861328125,9.031724747772216,0.30054381249999995,9.104174747772216Q0.3149548125,9.176624747772216,0.3432228125,9.244864747772217Q0.37149181249999996,9.313114747772216,0.4125308125,9.374534747772216Q0.45356981249999995,9.435954747772216,0.5058028125,9.488184747772216L2.5055828125,11.487814747772216L2.5059728125,11.488204747772217Q2.6114628125,11.593684747772217,2.7492828124999997,11.650764747772218Q2.8871028125000002,11.707854747772217,3.0362828125,11.707854747772217Q3.1101528125,11.707854747772217,3.1826028125,11.693444747772217Q3.2550528125,11.679034747772217,3.3232928125,11.650764747772218Q3.3915428125,11.622494747772217,3.4529628125,11.581454747772217Q3.5143828125,11.540414747772218,3.5666128125,11.488184747772216Q3.6188428125,11.435954747772218,3.6598828125,11.374534747772216Q3.7009228125,11.313114747772218,3.7291928125,11.244864747772217Q3.7574628125,11.176624747772216,3.7718728125,11.104174747772216Q3.7862828125,11.031724747772216,3.7862828125,10.957854747772217Q3.7862828125,10.808664747772216,3.7291828125,10.670824747772217Q3.6720928125,10.532994747772218,3.5665928125,10.427504747772216L3.5664428125,10.427354747772217L2.0968128125,8.957834747772218L3.5664628125,7.488184747772217L3.5664628125,7.488184747772217Z" fill-rule="evenodd" fill="#2B3D56" fill-opacity="1"/></g><g transform="matrix(0.8427050113677979,-0.5383755564689636,0.5383755564689636,0.8427050113677979,0.2187158587874407,4.973392515176926)"><path d="M9.15108946875,1.5822196441879273L11.15093546875,3.582065644187927Q11.20316546875,3.6342956441879273,11.24420546875,3.6957156441879273Q11.28524546875,3.7571356441879273,11.31351546875,3.8253856441879273Q11.34178546875,3.893625644187927,11.35619546875,3.966075644187927Q11.37060546875,4.038525644187927,11.37060546875,4.112395644187927Q11.37060546875,4.186265644187927,11.35619546875,4.258715644187927Q11.34178546875,4.331165644187927,11.31351546875,4.399405644187928Q11.28524546875,4.467655644187927,11.24420546875,4.529075644187927Q11.20316546875,4.590495644187927,11.15093546875,4.642725644187927L9.15093546875,6.642725644187927Q9.04544646875,6.748215644187927,8.90761846875,6.805305644187928Q8.76978946875,6.862395644187927,8.62060546875,6.862395644187927Q8.54673696875,6.862395644187927,8.47428746875,6.847985644187927Q8.40183846875,6.833575644187928,8.33359246875,6.805305644187928Q8.26534746875,6.777035644187928,8.20392746875,6.735995644187927Q8.14250846875,6.694955644187927,8.09027546875,6.642725644187927Q8.03804246875,6.590495644187928,7.99700346875,6.529075644187928Q7.95596446875,6.467655644187928,7.92769546875,6.399405644187928Q7.89942746875,6.331165644187927,7.88501646875,6.2587156441879275Q7.87060546875,6.186265644187928,7.87060546875,6.112395644187927Q7.87060546875,5.963215644187928,7.92769546875,5.825385644187927Q7.98478646875,5.687555644187928,8.09027546875,5.582065644187927L9.55994546875,4.112395644187927L8.09042946875,2.642879644187927L8.09027546875,2.6427256441879274Q7.98478646875,2.537236644187927,7.92769546875,2.399408644187927Q7.87060546875,2.2615796441879272,7.87060546875,2.1123956441879272Q7.87060546875,2.038527144187927,7.88501646875,1.9660776441879273Q7.89942746875,1.8936286441879273,7.92769546875,1.8253826441879273Q7.95596446875,1.7571376441879272,7.99700346875,1.6957176441879271Q8.03804246875,1.6342986441879273,8.09027546875,1.5820656441879273Q8.14250846875,1.5298326441879273,8.20392746875,1.4887936441879273Q8.26534746875,1.4477546441879272,8.33359246875,1.4194856441879273Q8.40183846875,1.3912176441879271,8.47428746875,1.3768066441879272Q8.54673696875,1.3623956441879272,8.62060546875,1.3623956441879272Q8.76978946875,1.3623956441879272,8.90761846875,1.4194856441879273Q9.04544646875,1.4765766441879271,9.15093546875,1.5820656441879273L9.15108946875,1.5822196441879273Z" fill-rule="evenodd" fill="#2B3D56" fill-opacity="1"/></g></g></svg>