<svg xmlns="http://www.w3.org/2000/svg" xmlns:xlink="http://www.w3.org/1999/xlink" fill="none" version="1.1" width="20" height="20" viewBox="0 0 20 20"><g><g><rect x="8.888888359069824" y="13.287443161010742" width="2.222222089767456" height="6.7125563621521" rx="0" fill="#000000" fill-opacity="1"/></g><g transform="matrix(0,1,-1,0,32.37748908996582,3.147470474243164)"><rect x="14.615009307861328" y="17.762479782104492" width="2.237518787384033" height="9.229939460754395" rx="1.1187593936920166" fill="#000000" fill-opacity="1"/></g><g><path d="M0,11.5408L0,11.5439Q0,11.6913,0.0144458,11.8379Q0.0288916,11.9846,0.0576442,12.1291Q0.0863967,12.2737,0.129179,12.4147Q0.171961,12.5558,0.228361,12.6919Q0.284761,12.8281,0.354236,12.9581Q0.423711,13.088,0.505591,13.2106Q0.587471,13.3331,0.680969,13.4471Q0.774466,13.561,0.87868,13.6652Q0.982893,13.7694,1.09682,13.8629Q1.21075,13.9564,1.33329,14.0383Q1.45583,14.1202,1.58581,14.1896Q1.71579,14.2591,1.85195,14.3155Q1.98811,14.3719,2.12915,14.4147Q2.27018,14.4575,2.41473,14.4862Q2.55928,14.515,2.70595,14.5294Q2.85262,14.5439,3,14.5439L17,14.5439Q17.1474,14.5439,17.2941,14.5294Q17.4407,14.515,17.5853,14.4862Q17.7298,14.4575,17.8709,14.4147Q18.0119,14.3719,18.148,14.3155Q18.2842,14.2591,18.4142,14.1896Q18.5442,14.1202,18.6667,14.0383Q18.7892,13.9564,18.9032,13.8629Q19.0171,13.7694,19.1213,13.6652Q19.2255,13.561,19.319,13.4471Q19.4125,13.3331,19.4944,13.2106Q19.5763,13.088,19.6458,12.9581Q19.7152,12.8281,19.7716,12.6919Q19.828,12.5558,19.8708,12.4147Q19.9136,12.2737,19.9424,12.1291Q19.9711,11.9846,19.9856,11.8379Q20,11.6913,20,11.5439L20,11.5408L0,11.5408ZM0,10.2271L20,10.2271L20,3Q20,2.85262,19.9856,2.70595Q19.9711,2.55928,19.9424,2.41473Q19.9136,2.27018,19.8708,2.12915Q19.828,1.98811,19.7716,1.85195Q19.7152,1.71579,19.6458,1.58581Q19.5763,1.45583,19.4944,1.33329Q19.4125,1.21075,19.319,1.09682Q19.2255,0.982893,19.1213,0.87868Q19.0171,0.774466,18.9032,0.680969Q18.7892,0.587471,18.6667,0.505591Q18.5442,0.423711,18.4142,0.354236Q18.2842,0.284761,18.148,0.228361Q18.0119,0.171961,17.8709,0.129179Q17.7298,0.0863967,17.5853,0.0576442Q17.4407,0.0288916,17.2941,0.0144458Q17.1474,0,17,0L3,0Q2.85262,0,2.70595,0.0144458Q2.55928,0.0288916,2.41473,0.0576442Q2.27018,0.0863967,2.12915,0.129179Q1.98811,0.171961,1.85195,0.228361Q1.71579,0.284761,1.58581,0.354236Q1.45583,0.423711,1.33329,0.505591Q1.21075,0.587471,1.09682,0.680969Q0.982893,0.774466,0.87868,0.87868Q0.774466,0.982893,0.680969,1.09682Q0.587471,1.21075,0.505591,1.33329Q0.423711,1.45583,0.354236,1.58581Q0.284761,1.71579,0.228361,1.85195Q0.171961,1.98811,0.129179,2.12915Q0.0863967,2.27018,0.0576442,2.41473Q0.0288916,2.55928,0.0144458,2.70595Q0,2.85262,0,3L0,10.2271Z" fill-rule="evenodd" fill="#000000" fill-opacity="1"/></g></g></svg>