<svg xmlns="http://www.w3.org/2000/svg" xmlns:xlink="http://www.w3.org/1999/xlink" fill="none" version="1.1" width="20" height="20" viewBox="0 0 20 20"><defs><clipPath id="master_svg0_1_8265"><rect x="0" y="0" width="20" height="20" rx="0"/></clipPath></defs><g clip-path="url(#master_svg0_1_8265)"><g><g><path d="M4.563601953125,4.5635319531250005Q2.583250953125,6.543821953125001,2.583250953125,9.344361953125Q2.583251953125,12.144901953125,4.563601953125,14.125151953125Q6.543931953125,16.105451953124998,9.344531953125,16.105451953124998Q12.145131953125,16.105451953124998,14.125451953125,14.125151953125Q16.105851953125,12.144901953125,16.105851953125,9.344361953125Q16.105851953125,6.543821953125001,14.125451953125,4.5635319531250005Q12.145121953125,2.583251953125,9.344531953125,2.583251953125Q6.543931953125,2.583251953125,4.563601953125,4.5635319531250005ZM5.624241953125,13.064511953125Q4.083251953125,11.523561953125,4.083251953125,9.344361953125Q4.083250953125,7.165151953125,5.624241953125,5.624211953125Q7.165241953124999,4.083251953125,9.344531953125,4.083251953125Q11.523821953125,4.083251953125,13.064811953125,5.624211953125Q14.605851953125,7.165151953125,14.605851953125,9.344361953125Q14.605851953125,11.523561953125,13.064811953125,13.064511953125Q11.523821953125,14.605451953125,9.344531953125,14.605451953125Q7.165241953124999,14.605451953125,5.624241953125,13.064511953125Z" fill-rule="evenodd" fill="#A0AEC0" fill-opacity="1"/></g><g><path d="M7.95125828125,5.693643375Q7.30887218125,5.965337375,6.81391628125,6.460279375Q6.70842328125,6.565769375,6.65133028125,6.703599375Q6.59423828125,6.841429375,6.59423828125,6.990617375Q6.59423828125,7.064485375,6.60864928125,7.136934375Q6.62306028125,7.209379375,6.65132828125,7.277629375Q6.67959728125,7.345879375,6.72063628125,7.407299375Q6.76167528125,7.4687093749999995,6.81390828125,7.520949375Q6.86614128125,7.5731793750000005,6.92756028125,7.614219375Q6.98898028125,7.655259375,7.05722528125,7.683529375Q7.12547128125,7.711799375,7.19792028125,7.726209375Q7.27036978125,7.740619375,7.34423828125,7.740619375Q7.4934192812500005,7.740619375,7.63124628125,7.683529375Q7.76907228125,7.626439375,7.87456028125,7.520959375Q8.16263728125,7.232889375,8.53556828125,7.075159375Q8.92107828125,6.912109375,9.34450828125,6.912109375Q9.767968281249999,6.912109375,10.15348828125,7.075160375Q10.526418281249999,7.232889375,10.81448828125,7.520959375Q10.91997828125,7.626439375,11.05780828125,7.683529375Q11.19562828125,7.740619375,11.34481828125,7.740619375Q11.41867828125,7.740619375,11.491128281249999,7.726209375Q11.563578281249999,7.711799375,11.63182828125,7.683529375Q11.700068281250001,7.655259375,11.76148828125,7.614219375Q11.822908281250001,7.5731793750000005,11.87514828125,7.520949375Q11.92737828125,7.4687093749999995,11.968418281249999,7.407299375Q12.00945828125,7.345879375,12.03772828125,7.277629375Q12.06598828125,7.209379375,12.08039828125,7.136934375Q12.09481828125,7.064485375,12.09481828125,6.990617375Q12.09481828125,6.841430375,12.037718281250001,6.703599375Q11.980628281249999,6.565769375,11.875138281249999,6.460279375Q11.38017828125,5.965334375,10.73778828125,5.693641375Q10.07212828125,5.412109375,9.34450828125,5.412109375Q8.61690828125,5.412109375,7.95125828125,5.693643375Z" fill-rule="evenodd" fill="#A0AEC0" fill-opacity="1"/></g><g><path d="M13.135936765625,14.196597765625Q13.030444765624999,14.091107765625,12.973351765625,13.953276765625Q12.916259765625,13.815446765625,12.916259765625,13.666259765625Q12.916259765625,13.592391265625,12.930670765624999,13.519941765625Q12.945081765625,13.447492765625,12.973349765625,13.379246765625Q13.001618765625,13.311001765625,13.042657765625,13.249581765625Q13.083696765625,13.188162765625,13.135929765625,13.135929765625Q13.188162765625,13.083696765625,13.249581765625,13.042657765625Q13.311001765625,13.001618765625,13.379246765625,12.973349765625Q13.447492765625,12.945081765625,13.519941765625,12.930670765624999Q13.592391265625,12.916259765625,13.666259765625,12.916259765625Q13.815441765625,12.916259765625,13.953267765625,12.973347765625Q14.091093765625,13.030436765625,14.196582765625,13.135921765625L17.196869765625,16.136129765625L17.197019765625,16.136279765624998Q17.302519765625,16.241769765625,17.359609765625,16.379599765625Q17.416699765625,16.517429765625,17.416699765625,16.666619765625Q17.416699765625,16.740489765625,17.402289765625,16.812929765625Q17.387879765625,16.885379765625,17.359609765625,16.953629765625Q17.331339765625,17.021879765625002,17.290299765625,17.083289765625Q17.249259765625,17.144709765625,17.197029765625,17.196949765625Q17.144799765625,17.249179765625,17.083379765625,17.290219765625Q17.021959765625,17.331259765625,16.953709765625,17.359529765625Q16.885469765625,17.387789765625,16.813019765625,17.402209765625Q16.740569765625,17.416619765625,16.666699765625,17.416619765625Q16.517519765625,17.416619765625,16.379689765625,17.359529765625Q16.241869765625,17.302439765625,16.136379765625,17.196949765625L16.136219765625,17.196799765625L13.135936765625,14.196597765625Z" fill-rule="evenodd" fill="#A0AEC0" fill-opacity="1"/></g></g></g></svg>