<svg xmlns="http://www.w3.org/2000/svg" xmlns:xlink="http://www.w3.org/1999/xlink" fill="none" version="1.1" width="20" height="20" viewBox="0 0 20 20"><defs><clipPath id="master_svg0_3_01486"><rect x="0" y="0" width="20" height="20" rx="0"/></clipPath></defs><g clip-path="url(#master_svg0_3_01486)"><g><path d="M3.3877359765625,3.3877359765625Q1.1666249765624999,5.6088559765625,1.1666259765625,8.7499559765625Q1.1666259765625,11.8910259765625,3.3877359765625,14.1122259765625Q5.6088559765625,16.3333259765625,8.7499559765625,16.3333259765625Q11.8910259765625,16.3333259765625,14.1122259765625,14.1122259765625Q16.3333259765625,11.8910259765625,16.3333259765625,8.7499559765625Q16.3333259765625,5.6088559765625,14.1122259765625,3.3877359765625Q11.8910259765625,1.1666249765624999,8.7499559765625,1.1666259765625Q5.6088559765625,1.1666259765625,3.3877359765625,3.3877359765625ZM4.0948459765625,13.4050259765625Q2.1666259765625,11.4768559765625,2.1666259765625,8.7499559765625Q2.1666259765625,6.0230659765625,4.0948459765625,4.0948459765625Q6.0230659765625,2.1666259765625,8.7499559765625,2.1666259765625Q11.4768559765625,2.1666259765625,13.4050259765625,4.0948459765625Q15.3333259765625,6.0230659765625,15.3333259765625,8.7499559765625Q15.3333259765625,11.4768459765625,13.4050259765625,13.4050259765625Q11.4768559765625,15.3333259765625,8.7499559765625,15.3333259765625Q6.0230659765625,15.3333259765625,4.0948459765625,13.4050259765625Z" fill-rule="evenodd" fill="#A0AEC0" fill-opacity="1"/></g><g><path d="M6.03979940625,5.622452L6.03951340625,5.622738Q5.96918740625,5.693064,5.93112640625,5.78495Q5.89306640625,5.876835,5.89306640625,5.976291Q5.89306640625,6.0255399999999995,5.90267340625,6.07384Q5.91228140625,6.12214,5.93112640625,6.16763Q5.94997240625,6.21313,5.97733140625,6.25408Q6.00469140625,6.29502,6.03951340625,6.32984Q6.07433540625,6.36467,6.11528140625,6.39203Q6.15622740625,6.41939,6.20172440625,6.43823Q6.24722140625,6.4570799999999995,6.29552130625,6.46668Q6.34382070625,6.4762900000000005,6.39306640625,6.4762900000000005Q6.49252250625,6.4762900000000005,6.58440840625,6.43823Q6.67629340625,6.40017,6.74661940625,6.32984Q7.13899940625,5.937466,7.64736640625,5.722446Q8.17329640625,5.5,8.75006640625,5.5Q9.32685640625,5.5,9.85279640625,5.722447Q10.36101640625,5.937399,10.75331640625,6.32961L10.75355640625,6.32985Q10.823876406250001,6.40017,10.91576640625,6.43823Q11.00764640625,6.4762900000000005,11.10710640625,6.4762900000000005Q11.15635640625,6.4762900000000005,11.204656406249999,6.46668Q11.25294640625,6.4570799999999995,11.298446406250001,6.43823Q11.34394640625,6.41939,11.38489640625,6.39203Q11.42583640625,6.36467,11.46065640625,6.32984Q11.49548640625,6.29502,11.52284640625,6.25408Q11.55019640625,6.21313,11.56904640625,6.16763Q11.58789640625,6.12214,11.59749640625,6.07384Q11.60710640625,6.0255399999999995,11.60710640625,5.976291Q11.60710640625,5.876835,11.56904640625,5.78495Q11.530986406250001,5.693064,11.46065640625,5.622738Q10.930356406249999,5.0924364,10.24234640625,4.801438Q9.529636406249999,4.5,8.75006640625,4.5Q7.97051640625,4.5,7.25782440625,4.801439Q6.56999740625,5.0923608,6.03979940625,5.622452Z" fill-rule="evenodd" fill="#A0AEC0" fill-opacity="1"/></g><g><path d="M14.1960202265625,13.4889132265625L17.7315072265625,17.0243972265625Q17.8018272265625,17.0947172265625,17.8398872265625,17.1866072265625Q17.8779472265625,17.2784972265625,17.8779472265625,17.3779472265625Q17.8779472265625,17.427197226562498,17.8683372265625,17.4754972265625Q17.8587372265625,17.5237972265625,17.8398872265625,17.5692872265625Q17.8210472265625,17.6147872265625,17.7936872265625,17.6557372265625Q17.7663272265625,17.6966772265625,17.7315072265625,17.7315072265625Q17.6966772265625,17.7663272265625,17.6557372265625,17.7936872265625Q17.6147872265625,17.8210472265625,17.5692872265625,17.8398872265625Q17.5237972265625,17.8587372265625,17.4754972265625,17.8683472265625Q17.427197226562498,17.8779472265625,17.3779472265625,17.8779472265625Q17.2784972265625,17.8779472265625,17.1866072265625,17.8398872265625Q17.0947272265625,17.8018272265625,17.0243972265625,17.7315072265625L13.4889132265625,14.1960202265625L13.4888542265625,14.1959602265625Q13.4185272265625,14.1256342265625,13.3804672265625,14.0337492265625Q13.3424072265625,13.9418634265625,13.3424072265625,13.8424072265625Q13.3424072265625,13.7931615265625,13.3520142265625,13.7448621265625Q13.361622226562499,13.6965622265625,13.3804672265625,13.6510652265625Q13.3993132265625,13.6055682265625,13.4266722265625,13.5646222265625Q13.4540322265625,13.5236762265625,13.4888542265625,13.4888542265625Q13.5236762265625,13.4540322265625,13.5646222265625,13.4266722265625Q13.6055682265625,13.3993132265625,13.6510652265625,13.3804672265625Q13.6965622265625,13.361622226562499,13.7448621265625,13.3520142265625Q13.7931615265625,13.3424072265625,13.8424072265625,13.3424072265625Q13.9418634265625,13.3424072265625,14.0337492265625,13.3804672265625Q14.1256342265625,13.4185272265625,14.1959602265625,13.4888542265625L14.1960202265625,13.4889132265625Z" fill-rule="evenodd" fill="#A0AEC0" fill-opacity="1"/></g></g></svg>