<svg xmlns="http://www.w3.org/2000/svg" xmlns:xlink="http://www.w3.org/1999/xlink" fill="none" version="1.1" width="24" height="24" viewBox="0 0 24 24"><g><g><path d="M15.49,2.0558038Q13.5849,1.25,11.5,1.25Q9.415140000000001,1.25,7.51001,2.0558039Q5.67043,2.833878,4.25216,4.25216Q2.833879,5.67043,2.0558038,7.51001Q1.25,9.415140000000001,1.25,11.5Q1.25,13.5849,2.0558038,15.49Q2.833879,17.3296,4.25216,18.7478Q5.67043,20.1661,7.51001,20.9442Q9.415140000000001,21.75,11.5,21.75Q13.5849,21.75,15.49,20.9442Q17.3296,20.1661,18.7478,18.7478Q20.1661,17.3296,20.9442,15.49Q21.75,13.5849,21.75,11.5Q21.75,9.415140000000001,20.9442,7.51001Q20.1661,5.67043,18.7478,4.25216Q17.3296,2.833879,15.49,2.0558038ZM8.09433,3.43731Q9.71932,2.75,11.5,2.75Q13.2807,2.75,14.9057,3.43731Q16.4758,4.10142,17.6872,5.31282Q18.8986,6.52422,19.5627,8.09433Q20.25,9.71932,20.25,11.5Q20.25,13.2807,19.5627,14.9057Q18.8986,16.4758,17.6872,17.6872Q16.4758,18.8986,14.9057,19.5627Q13.2807,20.25,11.5,20.25Q9.71932,20.25,8.094339999999999,19.5627Q6.52422,18.8986,5.31282,17.6872Q4.10142,16.4758,3.43731,14.9057Q2.75,13.2807,2.75,11.5Q2.75,9.71932,3.43731,8.094339999999999Q4.10141,6.52422,5.31282,5.31282Q6.52422,4.10141,8.09433,3.43731Z" fill-rule="evenodd" fill="#2B3D56" fill-opacity="1"/></g><g><path d="M20.530484,19.469824L20.53033,19.46967Q20.424841,19.364181,20.287013,19.30709Q20.149184,19.25,20,19.25Q19.850816,19.25,19.712987,19.30709Q19.575159,19.364181,19.46967,19.46967Q19.364181,19.575159,19.30709,19.712987Q19.25,19.850816,19.25,20Q19.25,20.149184,19.30709,20.287013Q19.364181,20.424841,19.46967,20.53033L19.469824,20.530484L21.46967,22.53033Q21.57516,22.63582,21.71299,22.69291Q21.85082,22.75,22,22.75Q22.14918,22.75,22.28701,22.69291Q22.42484,22.63582,22.53033,22.53033Q22.63582,22.42484,22.69291,22.28701Q22.75,22.14918,22.75,22Q22.75,21.85082,22.69291,21.71299Q22.63582,21.57516,22.53033,21.46967L20.530484,19.469824Z" fill-rule="evenodd" fill="#2B3D56" fill-opacity="1"/></g><g style="opacity:0;"></g></g></svg>