<svg xmlns="http://www.w3.org/2000/svg" xmlns:xlink="http://www.w3.org/1999/xlink" fill="none" version="1.1" width="28" height="28" viewBox="0 0 28 28"><g><g><rect x="0" y="0" width="28" height="28" rx="0" fill="#D8D8D8" fill-opacity="0"/></g><g><path d="M5,16.224609375L5,24.061339375Q5,24.159839375,5.019215,24.256439375Q5.03843,24.353029375,5.076121,24.444029375Q5.113812,24.535019374999997,5.16853,24.616909375Q5.223249,24.698809375,5.292893,24.768449375Q5.362537,24.838089375,5.44443,24.892809375Q5.526322,24.947529375000002,5.617317,24.985219375Q5.708311,25.022909374999998,5.80491,25.042129375000002Q5.9015086,25.061339375,6,25.061339375Q6.0984914,25.061339375,6.19509,25.042129375000002Q6.291689,25.022909374999998,6.382683,24.985219375Q6.473678,24.947529375000002,6.55557,24.892809375Q6.637463,24.838089375,6.707107,24.768449375Q6.776751,24.698809375,6.83147,24.616909375Q6.886188,24.535019374999997,6.923879,24.444029375Q6.96157,24.353029375,6.980785,24.256439375Q7,24.159839375,7,24.061339375L7,16.224609375Q7,16.126117975,6.980785,16.029519375Q6.96157,15.932920375,6.923879,15.841926375Q6.886188,15.750931375,6.83147,15.669039375Q6.776751,15.587146375,6.707107,15.517502375Q6.637463,15.447858375,6.55557,15.393139375Q6.473678,15.338421375,6.382683,15.300730375Q6.291689,15.263039375,6.19509,15.243824374999999Q6.0984914,15.224609375,6,15.224609375Q5.9015086,15.224609375,5.80491,15.243824374999999Q5.708311,15.263039375,5.617317,15.300730375Q5.526322,15.338421375,5.44443,15.393139375Q5.362537,15.447858375,5.292893,15.517502375Q5.223249,15.587146375,5.16853,15.669039375Q5.113812,15.750931375,5.076121,15.841926375Q5.03843,15.932920375,5.019215,16.029519375Q5,16.126117975,5,16.224609375Z" fill-rule="evenodd" fill="#000000" fill-opacity="1"/></g><g><path d="M10.32671,20.21624375L12.32671,17.27746775Q12.41139,17.15303875,12.4557,17.00919675Q12.5,16.86535375,12.5,16.71484375L12.49998,16.70913834Q12.49946,16.61781915,12.48241,16.52810475Q12.445260000000001,16.33269175,12.33617,16.16636775Q12.227070000000001,16.00004375,12.062619999999999,15.88813075Q11.9382,15.80345075,11.79435,15.75914675Q11.65051,15.71484375,11.5,15.71484375Q11.45778,15.71484375,11.41572,15.71840175Q11.304549999999999,15.72780475,11.19819,15.76147675Q11.09182,15.79514975,10.99549,15.85143575Q10.89917,15.90772175,10.81761,15.98385375Q10.73606,16.05998575,10.67329,16.15221975L8.97095,18.65362375L6,18.65362375Q5.9015086,18.65362375,5.80491,18.67283375Q5.708311,18.69204375,5.617317,18.72974375Q5.526322,18.76743375,5.44443,18.82215375Q5.362537,18.87686375,5.292893,18.94651375Q5.223249,19.01615375,5.16853,19.09804375Q5.113812,19.17994375,5.076121,19.27093375Q5.03843,19.36193375,5.019215,19.45853375Q5,19.55512375,5,19.65362375Q5,19.75211375,5.019215,19.84871375Q5.03843,19.94530375,5.076121,20.036303750000002Q5.113812,20.12729375,5.16853,20.20919375Q5.223249,20.29108375,5.292893,20.36072375Q5.362537,20.43037375,5.44443,20.48508375Q5.526322,20.53980375,5.617317,20.57749375Q5.708311,20.61519375,5.80491,20.63440375Q5.9015086,20.65362375,6,20.65362375L9.5,20.65362375Q9.62226,20.65362375,9.74092,20.62416375Q9.85957,20.59471375,9.96764,20.53753375Q10.07571,20.48036375,10.166820000000001,20.39884375Q10.25793,20.31731375,10.32671,20.21624375Z" fill-rule="evenodd" fill="#000000" fill-opacity="1"/></g><g><path d="M20.778,22.80412625L25.5067,20.02482625Q25.6194,19.95861625,25.7112,19.86568625Q25.8031,19.77275625,25.868,19.65934625Q25.9328,19.54593625,25.9664,19.41966625Q26,19.29338625,26,19.16272625L26,19.15928625Q25.9991,18.88900625,25.8621,18.65599625Q25.7613,18.48451625,25.6026,18.36464625Q25.4438,18.24478625,25.2513,18.19479625Q25.1277,18.16270625,25,18.16270625Q24.9804,18.16270625,24.9607,18.163476250000002Q24.7098,18.17334625,24.4933,18.300586250000002L20.0277,20.92523625L7.046789,12.44788625Q6.79761,12.28515625,6.500000680568,12.28515625L6.4994973,12.28515625Q6.374887,12.28521925,6.254103,12.31586025Q6.133319,12.34650125,6.023748,12.40584725Q5.9141770000000005,12.46519325,5.822521,12.54961425Q5.730865,12.63403525,5.66273,12.73836725Q5.5,12.98754725,5.5,13.28515625L5.5,13.28565895Q5.500063,13.41026925,5.530704,13.53105325Q5.561345,13.65183725,5.620691,13.76140825Q5.6800370000000004,13.87097925,5.764458,13.96263525Q5.848879,14.05429125,5.953211,14.12242625L19.189999999999998,22.76686625Q19.9723,23.27770625,20.778,22.80412625Z" fill-rule="evenodd" fill="#000000" fill-opacity="1"/></g><g><path d="M6.53900921484375,9.719238749999999C6.26643421484375,9.54124875,6.23932931484375,9.15881875,6.48417921484375,8.94560875L10.21394521484375,5.69793875C10.38274521484375,5.55094635,10.63119521484375,5.53306885,10.82014521484375,5.65432275L24.35224521484375,14.33928875C24.65594521484375,14.53422875,24.65304521484375,14.97127875,24.34674521484375,15.16219875L19.774745214843747,18.01231875C19.60774521484375,18.11641875,19.39374521484375,18.11411875,19.228945214843748,18.00661875L6.53900921484375,9.719238749999999Z" fill="#000000" fill-opacity="1"/><path d="M5.99222021484375,10.556508749999999L18.68224521484375,18.84381875L18.68234521484375,18.84391875Q19.487645214843752,19.36971875,20.30384521484375,18.86091875L24.87574521484375,16.01081875Q25.57274521484375,15.57641875,25.57824521484375,14.75899875Q25.58374521484375,13.94146875,24.89244521484375,13.497708750000001L11.36022521484375,4.81271075Q10.938505214843751,4.54208875,10.43772521484375,4.5781167499999995Q9.93568521484375,4.61423975,9.55725521484375,4.94377375L5.82748321484375,8.191458749999999Q5.2677952148437495,8.67881875,5.32006221484375,9.41632875Q5.37217521484375,10.15161875,5.99222021484375,10.556508749999999ZM19.512545214843747,16.99741875L7.65394521484375,9.25300875L10.59106521484375,6.69553875L23.12944521484375,14.74267875L19.512545214843747,16.99741875Z" fill-rule="evenodd" fill="#000000" fill-opacity="1"/></g></g></svg>