<svg xmlns="http://www.w3.org/2000/svg" xmlns:xlink="http://www.w3.org/1999/xlink" fill="none" version="1.1" width="24" height="24" viewBox="0 0 24 24"><defs><clipPath id="master_svg0_102_9109"><rect x="0" y="0" width="24" height="24" rx="0"/></clipPath><clipPath id="master_svg1_102_9111"><rect x="1" y="1" width="23" height="23" rx="0"/></clipPath></defs><g><g clip-path="url(#master_svg0_102_9109)"><g><g clip-path="url(#master_svg1_102_9111)"><g><path d="M21.6321259765625,4.2395499999999995C21.3521259765625,3.9785,20.9857259765625,3.84798,20.6209259765625,3.84798C20.5777259765625,3.84798,20.5561259765625,3.84798,20.5134259765625,3.84798C20.4918259765625,3.84798,20.2551259765625,3.86983,19.8892259765625,3.86983C19.2650259765625,3.86983,18.0821259765625,3.82613,16.9424259765625,3.5438C15.4789259765625,3.1965,13.7793259765625,1.5657999999999999,13.2843259765625,1.2392C13.0482259765625,1.086825,12.7466259765625,1,12.4666759765625,1C12.1872959765625,1,11.9079159765625,1.086825,11.6495959765625,1.2392C11.5852959765625,1.2829,9.821405976562499,3.13037,8.1001859765625,3.5438C6.9599159765625,3.82613,5.7337259765625,3.86983,5.1317359765625,3.86983C4.7442459765625,3.86983,4.5081059765625,3.84798,4.4864859765625,3.84798C4.4648659765625,3.84798,4.4216259765625,3.84798,4.4005659765625005,3.84798C4.0130859765625,3.84798,3.6688399765625,3.9785,3.3894629765625,4.2395499999999995C3.0884629765625,4.5006,2.9166259765625,4.8916,2.9166259765625,5.28317L2.9166259765625,8.891300000000001C2.9166259765625,22.1962,11.8436259765625,23.9126,12.2094859765625,23.9782C12.2954059765625,24,12.3818959765625,24,12.4672459765625,24C12.5531659765625,24,12.6402159765625,24,12.7261359765625,23.9782C13.1130259765625,23.9126,22.0833259765625,22.1957,22.0833259765625,8.891300000000001L22.0833259765625,5.28317C22.0833259765625,4.8916,21.9103259765625,4.5006,21.6321259765625,4.2395499999999995ZM18.3188259765625,9.39213L12.1446259765625,15.4348C12.1013759765625,15.5004,12.0587059765625,15.5659,11.9938359765625,15.6096C11.8214359765625,15.7833,11.5852959765625,15.8701,11.3485959765625,15.8701C11.1113259765625,15.8701,10.8751859765625,15.7833,10.6817259765625,15.6096C10.6384859765625,15.5659,10.5747559765625,15.5009,10.5525659765625,15.4348L7.2398659765625,12.1958C6.8956259765625,11.848,6.8956259765625,11.3052,7.2398659765625,10.95728C7.5835459765625,10.60883,8.1644859765625,10.60883,8.5087259765625,10.95728L11.3485959765625,13.7179L17.0494259765625,8.152999999999999C17.415825976562502,7.80513,17.9740259765625,7.80513,18.318225976562502,8.152999999999999C18.6841259765625,8.47902,18.6841259765625,9.04425,18.3188259765625,9.39213Z" fill="#040404" fill-opacity="1"/></g></g></g></g></g></svg>