<svg xmlns="http://www.w3.org/2000/svg" xmlns:xlink="http://www.w3.org/1999/xlink" fill="none" version="1.1" width="46" height="46" viewBox="0 0 46 46"><g style="mix-blend-mode:passthrough"><g style="opacity:0;mix-blend-mode:passthrough"><rect x="0" y="0" width="46" height="46" rx="0" fill="#000000" fill-opacity="1"/><rect x="0.5" y="0.5" width="45" height="45" rx="0" fill-opacity="0" stroke-opacity="0" stroke="#000000" fill="none" stroke-width="1"/></g><g style="mix-blend-mode:passthrough"><g style="mix-blend-mode:passthrough" transform="matrix(-1,0,0,1,58.22222137451172,0)"><ellipse cx="36.22222185134888" cy="22.999999046325684" rx="6.111111164093018" ry="6.199999809265137" fill-opacity="0" stroke-opacity="1" stroke="#000000" fill="none" stroke-width="2"/></g><g style="mix-blend-mode:passthrough"><path d="M6.255765,21.1249Q4.35635,19.477,4.05115,17.0976Q3.77554,14.94881,4.88011,13.00997Q5.9893364,11.06296,7.97886,10.22395Q10.18723,9.29265,12.56321,10.142109999999999Q12.62763,10.165140000000001,12.69173,10.18457Q13.65325,10.47597,14.54211,9.9559Q15.50426,9.392949999999999,15.7096,8.27753Q15.73821,8.122119999999999,15.7724,7.97072Q16.2852,5.699644,18.0537,4.329072Q19.768700000000003,3,22,3Q24.2313,3,25.9462,4.329076Q27.8326,5.791024,28.2903,8.27755Q28.4957,9.392949999999999,29.4579,9.9559Q30.406,10.510629999999999,31.4367,10.142109999999999Q33.8127,9.29265,36.021100000000004,10.22395Q38.0106,11.06296,39.1199,13.00996Q40.2244,14.94879,39.9488,17.0975Q39.6437,19.4769,37.744299999999996,21.1249Q36.895700000000005,21.8611,36.895700000000005,23Q36.895700000000005,24.139,37.7442,24.8751Q39.6437,26.5231,39.9488,28.9025Q40.2244,31.0512,39.1199,32.989999999999995Q38.0106,34.937,36.021100000000004,35.775999999999996Q33.8127,36.707300000000004,31.4368,35.8579Q30.406,35.4893,29.4579,36.0441Q28.4957,36.607,28.2903,37.7226Q27.8326,40.209,25.9462,41.6709Q24.2313,43,22,43Q19.768700000000003,43,18.053800000000003,41.6709Q16.1674,40.209,15.7096,37.7225Q15.50426,36.607,14.54209,36.0441Q13.59398,35.4893,12.56324,35.8578Q10.18723,36.707300000000004,7.97887,35.775999999999996Q5.9893436,34.937,4.88012,32.989999999999995Q3.77554,31.0512,4.05115,28.9025Q4.35635,26.5231,6.255772,24.8751Q7.10424,24.139,7.10424,23Q7.10424,21.8611,6.255765,21.1249ZM17.6766,8.63963C18.5699,3.78679,25.43,3.78679,26.3234,8.63963C26.8185,11.32862,29.5646,12.935410000000001,32.11,12.02536C36.7038,10.383009999999999,40.1339,16.4038,36.4336,19.6143C34.3831,21.3932,34.3831,24.6069,36.4336,26.3858C40.1339,29.5963,36.7038,35.6169,32.11,33.974599999999995C29.5646,33.064499999999995,26.8185,34.6714,26.3234,37.3604C25.43,42.2132,18.5699,42.2132,17.6766,37.3604C17.1815,34.6714,14.43531,33.064499999999995,11.8899,33.974599999999995C7.29616,35.6169,3.86608,29.5963,7.56645,26.3858C9.61684,24.6069,9.61684,21.3932,7.56645,19.6143C3.86608,16.4038,7.29616,10.383009999999999,11.8899,12.02536C14.43531,12.935410000000001,17.1815,11.32862,17.6766,8.63963Z" fill-rule="evenodd" fill="#000000" fill-opacity="1"/></g></g></g></svg>