<svg xmlns="http://www.w3.org/2000/svg" xmlns:xlink="http://www.w3.org/1999/xlink" fill="none" version="1.1" width="24" height="24" viewBox="0 0 24 24"><defs><clipPath id="master_svg0_41_19056"><rect x="0" y="0" width="24" height="24" rx="0"/></clipPath></defs><g clip-path="url(#master_svg0_41_19056)"><g><path d="M6.56914,20.7535Q6.60225,20.8098,6.64871,20.8557Q6.69517,20.9016,6.75186,20.934Q6.80856,20.9664,6.87167,20.9832Q6.93479,21,7.0001,21L17.0002,21Q17.0655,21,17.1286,20.9832Q17.1917,20.9664,17.2484,20.934Q17.3051,20.9016,17.3515,20.8557Q17.398,20.8098,17.4311,20.7535L22.431,12.2535Q22.4649,12.19588,22.4824,12.13137Q22.5,12.06686,22.5,12Q22.5,11.93314,22.4824,11.86863Q22.4649,11.80412,22.431,11.7465L17.4311,3.246496Q17.398,3.190202,17.3515,3.144302Q17.3051,3.098402,17.2484,3.065977Q17.1917,3.033551,17.1286,3.016776Q17.0655,3,17.0002,3L7.0001,3Q6.93479,3,6.87167,3.016775Q6.80856,3.03355,6.75186,3.0659739999999998Q6.69517,3.098398,6.64871,3.1442959999999998Q6.60225,3.190194,6.56914,3.246486L1.569035,11.74649Q1.535135,11.80412,1.517567,11.86863Q1.5,11.93314,1.5,12Q1.5,12.06686,1.517567,12.13137Q1.535135,12.19589,1.569035,12.25351L6.56914,20.7535ZM7.28607,20L2.580094,12L7.28607,4L16.714199999999998,4L21.4199,12L16.714199999999998,20L7.28607,20Z" fill-rule="evenodd" fill="#232D42" fill-opacity="1"/></g><g><path d="M9.878684,9.878684Q9,10.75737,9,12Q9,13.24263,9.878684,14.12132Q10.75737,15,12,15Q13.24263,15,14.12132,14.12132Q15,13.24263,15,12Q15,10.75737,14.12132,9.878684Q13.24263,9,12,9Q10.75737,9,9.878684,9.878684ZM10.58579,13.41421Q10,12.82842,10,12Q10,11.17158,10.58579,10.58579Q11.17158,10,12,10Q12.82842,10,13.41421,10.58579Q14,11.17158,14,12Q14,12.82842,13.41421,13.41421Q12.82842,14,12,14Q11.17158,14,10.58579,13.41421Z" fill-rule="evenodd" fill="#232D42" fill-opacity="1"/></g></g></svg>