<svg xmlns="http://www.w3.org/2000/svg" xmlns:xlink="http://www.w3.org/1999/xlink" fill="none" version="1.1" width="24" height="24" viewBox="0 0 24 24"><g><g><g><g transform="matrix(-1,0,0,-1,42,18)"><path d="M27,8.25L21,8.25Q20.9261315,8.25,20.853682,8.264410999999999Q20.781233,8.278822,20.712987,8.30709Q20.644742,8.335359,20.583322,8.376398Q20.521903000000002,8.417437,20.46967,8.46967Q20.417437,8.521903,20.376398000000002,8.583322Q20.335359,8.644742,20.30709,8.712987Q20.278822,8.781233,20.264411,8.853682Q20.25,8.9261315,20.25,9Q20.25,9.0738685,20.264411,9.146318Q20.278822,9.218767,20.30709,9.287013Q20.335359,9.355258,20.376398000000002,9.416678Q20.417437,9.478097,20.46967,9.53033Q20.521903000000002,9.582563,20.583322,9.623602Q20.644742,9.664641,20.712987,9.69291Q20.781233,9.721178,20.853682,9.735589000000001Q20.9261315,9.75,21,9.75L26.25,9.75L26.25,15Q26.25,15.07387,26.264409999999998,15.14632Q26.27882,15.21877,26.30709,15.28701Q26.33536,15.355260000000001,26.3764,15.41668Q26.41744,15.478100000000001,26.46967,15.53033Q26.5219,15.58256,26.58332,15.6236Q26.64474,15.66464,26.712989999999998,15.692910000000001Q26.78123,15.72118,26.85368,15.73559Q26.92613,15.75,27,15.75Q27.07387,15.75,27.14632,15.73559Q27.21877,15.72118,27.287010000000002,15.692910000000001Q27.35526,15.66464,27.41668,15.6236Q27.4781,15.58256,27.53033,15.53033Q27.58256,15.478100000000001,27.6236,15.41668Q27.66464,15.355260000000001,27.69291,15.28701Q27.72118,15.21877,27.735590000000002,15.14632Q27.75,15.07387,27.75,15L27.75,9Q27.75,8.9261315,27.735590000000002,8.853682Q27.72118,8.781233,27.69291,8.712987Q27.66464,8.644742,27.6236,8.583322Q27.58256,8.521903,27.53033,8.46967Q27.4781,8.417437,27.41668,8.376398Q27.35526,8.335359,27.287010000000002,8.30709Q27.21877,8.278822,27.14632,8.264410999999999Q27.07387,8.25,27,8.25Z" fill-rule="evenodd" fill="#000000" fill-opacity="1"/></g><g transform="matrix(-1,0,0,-1,18,42)"><path d="M9,27.75L15,27.75Q15.07387,27.75,15.14632,27.735590000000002Q15.21877,27.72118,15.28701,27.69291Q15.355260000000001,27.66464,15.41668,27.6236Q15.478100000000001,27.58256,15.53033,27.53033Q15.58256,27.4781,15.6236,27.41668Q15.66464,27.35526,15.692910000000001,27.287010000000002Q15.72118,27.21877,15.73559,27.14632Q15.75,27.07387,15.75,27Q15.75,26.92613,15.73559,26.85368Q15.72118,26.78123,15.692910000000001,26.712989999999998Q15.66464,26.64474,15.6236,26.58332Q15.58256,26.5219,15.53033,26.46967Q15.478100000000001,26.41744,15.41668,26.3764Q15.355260000000001,26.33536,15.28701,26.30709Q15.21877,26.27882,15.14632,26.264409999999998Q15.07387,26.25,15,26.25L9.75,26.25L9.75,21Q9.75,20.9261315,9.735589000000001,20.853682Q9.721178,20.781233,9.69291,20.712987Q9.664641,20.644742,9.623602,20.583322Q9.582563,20.521903000000002,9.53033,20.46967Q9.478097,20.417437,9.416678,20.376398000000002Q9.355258,20.335359,9.287013,20.30709Q9.218767,20.278822,9.146318,20.264411Q9.0738685,20.25,9,20.25Q8.9261315,20.25,8.853682,20.264411Q8.781233,20.278822,8.712987,20.30709Q8.644742,20.335359,8.583322,20.376398000000002Q8.521903,20.417437,8.46967,20.46967Q8.417437,20.521903000000002,8.376398,20.583322Q8.335359,20.644742,8.30709,20.712987Q8.278822,20.781233,8.264410999999999,20.853682Q8.25,20.9261315,8.25,21L8.25,27Q8.25,27.07387,8.264410999999999,27.14632Q8.278822,27.21877,8.30709,27.287010000000002Q8.335359,27.35526,8.376398,27.41668Q8.417437,27.4781,8.46967,27.53033Q8.521903,27.58256,8.583322,27.6236Q8.644742,27.66464,8.712987,27.69291Q8.781233,27.72118,8.853682,27.735590000000002Q8.9261315,27.75,9,27.75Z" fill-rule="evenodd" fill="#000000" fill-opacity="1"/></g><g style="opacity:0;"></g></g></g></g></svg>