<svg xmlns="http://www.w3.org/2000/svg" xmlns:xlink="http://www.w3.org/1999/xlink" fill="none" version="1.1" width="28" height="28" viewBox="0 0 28 28"><g><g><rect x="0" y="0" width="28" height="28" rx="0" fill="#D8D8D8" fill-opacity="0"/></g><g><path d="M22.414269482421876,2.5857900000000003Q22.999969482421875,3.17157,22.999969482421875,4L22.999969482421875,24Q22.999969482421875,24.8284,22.414169482421876,25.4142Q21.828469482421873,26,20.999969482421875,26L6.999999482421876,26Q6.171569482421875,26,5.585789482421875,25.4142Q5.000000000021875,24.8284,5.000000000021875,24L5.000000000021875,4Q5.000000000021875,3.17157,5.5857864824218755,2.585786Q6.171569482421875,2,6.999999482421876,2L20.999969482421875,2Q21.828469482421873,2,22.414269482421876,2.5857900000000003ZM11.878659482421874,6.87869Q10.999969482421875,7.75737,10.999969482421875,9Q10.999969482421875,10.24263,11.878659482421874,11.12131Q12.757339482421875,12,13.999969482421875,12Q15.242569482421874,12,16.121269482421873,11.12131Q16.999969482421875,10.24263,16.999969482421875,9Q16.999969482421875,7.75737,16.121269482421873,6.87869Q15.242569482421874,6,13.999969482421875,6Q12.757339482421875,6,11.878659482421874,6.87869ZM13.292869482421874,9.7071Q12.999969482421875,9.414200000000001,12.999969482421875,9Q12.999969482421875,8.585799999999999,13.292869482421874,8.2929Q13.585769482421876,8,13.999969482421875,8Q14.414169482421874,8,14.707069482421876,8.2929Q14.999969482421875,8.585799999999999,14.999969482421875,9Q14.999969482421875,9.414200000000001,14.707069482421876,9.7071Q14.414169482421874,10,13.999969482421875,10Q13.585769482421876,10,13.292869482421874,9.7071ZM11.171549482421874,15.1716Q9.999969482421875,16.3432,9.999969482421875,18Q9.999969482421875,19.6568,11.171549482421874,20.8284Q12.343129482421876,22,13.999969482421875,22Q15.656769482421875,22,16.828369482421877,20.8284Q17.999969482421875,19.6568,17.999969482421875,18Q17.999969482421875,16.3432,16.828369482421877,15.1716Q15.656769482421875,14,13.999969482421875,14Q12.343129482421876,14,11.171549482421874,15.1716ZM12.585759482421874,19.4142Q11.999969482421875,18.8284,11.999969482421875,18Q11.999969482421875,17.171599999999998,12.585759482421874,16.5858Q13.171549482421876,16,13.999969482421875,16Q14.828389482421874,16,15.414169482421874,16.5858Q15.999969482421875,17.171599999999998,15.999969482421875,18Q15.999969482421875,18.8284,15.414169482421874,19.4142Q14.828389482421874,20,13.999969482421875,20Q13.171549482421876,20,12.585759482421874,19.4142Z" fill-rule="evenodd" fill="#000000" fill-opacity="1"/></g></g></svg>