<svg xmlns="http://www.w3.org/2000/svg" xmlns:xlink="http://www.w3.org/1999/xlink" fill="none" version="1.1" width="25.57086181640625" height="24" viewBox="0 0 25.57086181640625 24"><g><path d="M6.61531,13.4788L6.62011,13.4708L2.97897,9.57699C2.4351,8.99526,2.40203,8.10205,2.9014,7.48171L3.7563,6.41968L18.1505,21.1106L16.4711,22.1366C15.9626,22.4477,15.3234,22.4501,14.8125,22.143L6.61531,13.4788ZM6.19466,14.1922L8.51146,16.6409L7.02157,19.1633C6.79551,19.5473,6.41913,19.8193,5.98353,19.9134C5.86997,19.9398,5.75161,19.9534,5.63006,19.9534L3.19889,19.9534L3.19889,22.4006C3.19889,23.2839,2.4828,24,1.59945,24C0.716097,24,0,23.2839,0,22.4006L0,16.0028C0,15.1194,0.716097,14.4033,1.59945,14.4033C2.4828,14.4033,3.19889,15.1194,3.19889,16.0028L3.19889,16.7937L4.65839,16.7937L6.19386,14.1922L6.19466,14.1922ZM4.76076,5.17131L8.44108,0.596887C9.03457,-0.14082,10.1354,-0.204373,10.8099,0.460134L25.0937,14.5377C25.8346,15.2674,25.693,16.499,24.8058,17.0416L19.5436,20.2581L4.76076,5.17131Z" fill="#FFFFFF" fill-opacity="1"/></g></svg>