<svg xmlns="http://www.w3.org/2000/svg" xmlns:xlink="http://www.w3.org/1999/xlink" fill="none" version="1.1" width="28" height="28" viewBox="0 0 28 28"><defs><clipPath id="master_svg0_1547_05162"><rect x="0" y="0" width="28" height="28" rx="0"/></clipPath></defs><g><g clip-path="url(#master_svg0_1547_05162)"><g><path d="M2.75,23.66679609375L2.75,4.33349609375Q2.75,3.19440909375,3.5554563,2.38895239375Q4.360913,1.58349609375,5.5,1.58349609375L16.6667,1.58349609375Q17.805799999999998,1.58349609375,18.6112,2.38895239375Q19.4167,3.19441109375,19.4167,4.33349609375L19.4167,23.66679609375Q19.4167,24.80589609375,18.6112,25.61139609375Q17.805799999999998,26.41679609375,16.6667,26.41679609375L5.5,26.41679609375Q4.360912,26.41679609375,3.5554563,25.61139609375Q2.75,24.80589609375,2.75,23.66679609375ZM4.25,23.66679609375Q4.25,24.18459609375,4.6161200000000004,24.55069609375Q4.9822299999999995,24.91679609375,5.5,24.91679609375L16.6667,24.91679609375Q17.1844,24.91679609375,17.5505,24.55069609375Q17.9167,24.18459609375,17.9167,23.66679609375L17.9167,4.33349609375Q17.9167,3.81572609375,17.5505,3.44961609375Q17.1844,3.08349609375,16.6667,3.08349609375L5.5,3.08349609375Q4.9822299999999995,3.08349609375,4.6161200000000004,3.44961609375Q4.25,3.81572609375,4.25,4.33349609375L4.25,23.66679609375Z" fill="#333333" fill-opacity="1"/></g><g><path d="M8.16650390625,20.58349609375L13.99983390625,20.58349609375Q14.07370390625,20.58349609375,14.14615390625,20.56908509375Q14.21860390625,20.55467409375,14.286843906249999,20.52640609375Q14.35509390625,20.49813709375,14.41651390625,20.457098093749998Q14.47793390625,20.41605909375,14.53016390625,20.36382609375Q14.58240390625,20.311593093749998,14.62343390625,20.25017409375Q14.664473906249999,20.18875409375,14.69274390625,20.12050909375Q14.72101390625,20.05226309375,14.73542390625,19.97981409375Q14.74983390625,19.90736459375,14.74983390625,19.83349609375Q14.74983390625,19.75962759375,14.73542390625,19.68717809375Q14.72101390625,19.61472909375,14.69274390625,19.54648309375Q14.664473906249999,19.47823809375,14.62343390625,19.41681809375Q14.58240390625,19.355399093750002,14.53016390625,19.30316609375Q14.47793390625,19.25093309375,14.41651390625,19.209894093750002Q14.35509390625,19.16885509375,14.286843906249999,19.14058609375Q14.21860390625,19.11231809375,14.14615390625,19.09790709375Q14.07370390625,19.08349609375,13.99983390625,19.08349609375L8.16650390625,19.08349609375Q8.09263540625,19.08349609375,8.02018590625,19.09790709375Q7.94773690625,19.11231809375,7.87949090625,19.14058609375Q7.81124590625,19.16885509375,7.74982590625,19.209894093750002Q7.68840690625,19.25093309375,7.63617390625,19.30316609375Q7.58394090625,19.355399093750002,7.54290190625,19.41681809375Q7.50186290625,19.47823809375,7.47359390625,19.54648309375Q7.44532590625,19.61472909375,7.43091490625,19.68717809375Q7.41650390625,19.75962759375,7.41650390625,19.83349609375Q7.41650390625,19.90736459375,7.43091490625,19.97981409375Q7.44532590625,20.05226309375,7.47359390625,20.12050909375Q7.50186290625,20.18875409375,7.54290190625,20.25017409375Q7.58394090625,20.311593093749998,7.63617390625,20.36382609375Q7.68840690625,20.41605909375,7.74982590625,20.457098093749998Q7.81124590625,20.49813709375,7.87949090625,20.52640609375Q7.94773690625,20.55467409375,8.02018590625,20.56908509375Q8.09263540625,20.58349609375,8.16650390625,20.58349609375Z" fill-rule="evenodd" fill="#333333" fill-opacity="1"/></g><g><path d="M13.77003390625,12.41667Q12.71723390625,13.58333,11.08317390625,13.58333Q9.56439390625,13.58333,8.49045090625,12.50939Q7.41650390625,11.43544,7.41650390625,9.91667Q7.41650390625,8.39789,8.49045090625,7.323947Q9.56439390625,6.25,11.08317390625,6.25Q12.71723390625,6.25,13.77003390625,7.416667L24.49980390625,7.416667Q24.57370390625,7.416667,24.64610390625,7.431078Q24.71860390625,7.445489,24.78680390625,7.473757Q24.85510390625,7.502025,24.91650390625,7.543064Q24.97790390625,7.584103,25.03020390625,7.636337Q25.08240390625,7.688569,25.12340390625,7.749989Q25.16450390625,7.811408,25.19270390625,7.879654Q25.22100390625,7.9479,25.23540390625,8.02035Q25.24980390625,8.0928,25.24980390625,8.16667L25.24980390625,11.66667Q25.24980390625,11.74054,25.23540390625,11.81298Q25.22100390625,11.88543,25.19270390625,11.95368Q25.16450390625,12.02192,25.12340390625,12.08334Q25.08240390625,12.14476,25.03020390625,12.197Q24.97790390625,12.24923,24.91650390625,12.29027Q24.85510390625,12.33131,24.78680390625,12.359580000000001Q24.71860390625,12.38784,24.64610390625,12.40225Q24.57370390625,12.41667,24.49980390625,12.41667L13.77003390625,12.41667ZM23.74980390625,10.91667L13.41673390625,10.91667Q13.329483906250001,10.91667,13.244553906250001,10.9367Q13.15963390625,10.95673,13.08157390625,10.99572Q13.00351390625,11.03471,12.93649390625,11.090589999999999Q12.86947390625,11.146460000000001,12.81707390625,11.21622Q12.16573390625,12.08333,11.08317390625,12.08333Q10.185713906250001,12.08333,9.55111390625,11.448730000000001Q8.91650390625,10.814119999999999,8.91650390625,9.91667Q8.91650390625,9.019210000000001,9.55111390625,8.38461Q10.185713906250001,7.75,11.08317390625,7.75Q12.16573390625,7.75,12.81707390625,8.61711Q12.86947390625,8.68687,12.93649390625,8.742750000000001Q13.00351390625,8.79862,13.08157390625,8.83761Q13.15963390625,8.8766,13.244553906250001,8.89663Q13.329483906250001,8.91667,13.41673390625,8.91667L23.74980390625,8.91667L23.74980390625,10.91667Z" fill-rule="evenodd" fill="#333333" fill-opacity="1"/></g></g></g></svg>