<svg xmlns="http://www.w3.org/2000/svg" xmlns:xlink="http://www.w3.org/1999/xlink" fill="none" version="1.1" width="24" height="24" viewBox="0 0 24 24"><defs><clipPath id="master_svg0_112_08330"><rect x="0" y="0" width="24" height="24" rx="0"/></clipPath></defs><g clip-path="url(#master_svg0_112_08330)"><g><path d="M20.4654,7.96941L18.5861,7.96941L18.5861,6.50221C18.5863,5.672615,17.9146,5.0000000484526,17.086100000000002,5L6.87894,5C6.05072,4.9999999515474,5.37932,5.672562,5.37932,6.50221L5.37932,7.96908L3.49963,7.96908C2.671145,7.96908,1.999632188,8.64205,2,9.47195L2,17.578400000000002C2.0000000483693,18.408099999999997,2.671405,19.0806,3.49963,19.0806L4.60454,19.0806C4.60155,19.107300000000002,4.60155,19.134,4.60454,19.160600000000002L4.60454,19.4863C4.59729,19.767899999999997,4.82313,20,5.10425,20C5.38538,20,5.61121,19.767899999999997,5.60396,19.4863L5.60396,19.161C5.60696,19.1343,5.60696,19.107599999999998,5.60396,19.081L18.3511,19.081C18.3481,19.107599999999998,18.3481,19.1343,18.3511,19.161L18.3511,19.4863C18.3511,19.762900000000002,18.5749,19.987099999999998,18.851,19.987099999999998C19.1271,19.987099999999998,19.3509,19.762900000000002,19.3509,19.4863L19.3509,19.161C19.3535,19.1343,19.3535,19.107599999999998,19.3509,19.081L20.5004,19.081C21.3285,19.0811,22,18.4084,22,17.578400000000002L22,9.47162C22,8.62832,21.3074,7.95014,20.4658,7.96941L20.4654,7.96941ZM17.5863,6.50221L17.5863,13.01178L12.4624,13.01178L12.4624,6.00147L17.086399999999998,6.00147C17.3627,6.00147,17.5863,6.2255,17.5863,6.50221ZM6.37907,6.50221C6.37907,6.2255,6.60271,6.00147,6.87894,6.00147L11.46268,6.00147L11.46268,13.01178L6.37907,13.01178L6.37907,6.50221ZM20.9653,17.578400000000002C20.9653,17.8551,20.7417,18.0792,20.4654,18.0792L3.49963,18.0792C3.2234,18.0792,2.99975,17.8551,2.99975,17.578400000000002L2.99975,9.47162C2.99975,9.19492,3.2234,8.97089,3.49963,8.97089L5.37932,8.97089L5.37932,13.04678L4.67443,13.04678C4.39863,13.04717,4.17525,13.27124,4.17525,13.54752C4.17525,13.8238,4.39863,14.04788,4.67443,14.04826L19.3309,14.04826C19.6067,14.04788,19.8301,13.8238,19.8301,13.54752C19.8301,13.27124,19.6067,13.04717,19.3309,13.04678L18.5861,13.04678L18.5861,8.970880000000001L20.4654,8.970880000000001C20.7417,8.970880000000001,20.9653,9.19492,20.9653,9.47162L20.9653,17.578400000000002Z" fill="#333333" fill-opacity="1"/><path d="M20.463,7.71941Q21.1977,7.70365,21.7234,8.21842Q22.25,8.73405,22.25,9.47162L22.25,17.578400000000002Q22.25,18.304299999999998,21.7377,18.8176Q21.2252,19.3311,20.5004,19.331L19.6009,19.331L19.6009,19.4863Q19.6009,19.7972,19.3814,20.017Q19.1617,20.237099999999998,18.851,20.237099999999998Q18.5403,20.237099999999998,18.3206,20.017Q18.1011,19.7972,18.1011,19.4863L18.1011,19.331L5.85396,19.331L5.85396,19.4834Q5.86081,19.7976,5.641439999999999,20.0231Q5.420669999999999,20.25,5.10425,20.25Q4.78783,20.25,4.56706,20.0231Q4.34769,19.7976,4.35454,19.4834L4.35454,19.3306L3.49963,19.3306Q2.774781,19.3306,2.262301,18.8173Q1.75,18.3041,1.75,17.578400000000002L1.75,9.47207Q1.749678,8.746179999999999,2.262027,8.23272Q2.774554,7.71908,3.49963,7.71908L5.12932,7.71908L5.12932,6.50221Q5.12932,5.7765450000000005,5.64162,5.263362Q6.1541,4.75,6.87894,4.75L17.086100000000002,4.75Q17.8112,4.75,18.3238,5.263363Q18.8362,5.776597,18.8361,6.50221L18.8361,7.71941L20.463,7.71941ZM20.4653,8.21941L20.4656,8.21941L20.4685,8.21941L20.4715,8.21935Q20.9974,8.2073,21.3736,8.57568Q21.75,8.94425,21.75,9.47162L21.75,17.578400000000002Q21.75,18.0975,21.3838,18.464399999999998Q21.0178,18.8311,20.5004,18.831L19.0747,18.831L19.1021,19.105800000000002Q19.1036,19.121000000000002,19.1021,19.1361L19.1009,19.1485L19.1009,19.4863Q19.1009,19.737099999999998,18.851,19.737099999999998Q18.6011,19.737099999999998,18.6011,19.4863L18.6011,19.147L18.5996,19.1331Q18.5982,19.121000000000002,18.5995,19.1089L18.6308,18.831L5.3243100000000005,18.831L5.35552,19.1089Q5.35688,19.121000000000002,5.35552,19.1331L5.35396,19.147L5.35396,19.4896L5.3540399999999995,19.492800000000003Q5.35677,19.598599999999998,5.283049999999999,19.6744Q5.2095199999999995,19.75,5.10425,19.75Q4.9989799999999995,19.75,4.92545,19.6744Q4.85173,19.598599999999998,4.8544599999999996,19.492800000000003L4.85454,19.4896L4.85454,19.1466L4.8529800000000005,19.1327Q4.8516200000000005,19.1206,4.8529800000000005,19.1085L4.88419,18.8306L3.49963,18.8306Q2.982139,18.8306,2.616159,18.464Q2.25,18.0972,2.25,17.578400000000002L2.25,9.47184Q2.24977,8.95287,2.615963,8.58589Q2.981978,8.21908,3.49963,8.21908L5.62932,8.21908L5.62932,6.50221Q5.62932,5.9834,5.995480000000001,5.616611Q6.36146,5.25,6.87894,5.25L17.086100000000002,5.25Q17.6039,5.25,17.97,5.616651Q18.3362,5.983435,18.3361,6.50221L18.3361,8.21941L20.4653,8.21941ZM6.12907,6.50221L6.12907,13.01178L6.12907,13.26178L11.71268,13.26178L11.71268,5.751472L6.87894,5.751472Q6.56809,5.751472,6.34849,5.971452Q6.12907,6.19125,6.12907,6.50221ZM17.6169,5.971452Q17.3973,5.751472,17.086399999999998,5.751472L12.2124,5.751472L12.2124,13.26178L17.8363,13.26178L17.8363,6.50221Q17.8363,6.19125,17.6169,5.971452ZM6.62907,12.76178L6.62907,6.50221Q6.62907,6.25147,6.87894,6.25147L11.21268,6.25147L11.21268,12.76178L6.62907,12.76178ZM12.7124,6.25147L17.086399999999998,6.25147Q17.3363,6.25147,17.3363,6.50221L17.3363,12.76178L12.7124,12.76178L12.7124,6.25147ZM21.2153,17.578400000000002L21.2153,9.47162Q21.2153,9.16066,20.9959,8.94086Q20.7763,8.720880000000001,20.4654,8.720880000000001L18.3361,8.720880000000001L18.3361,13.29678L19.3306,13.29678Q19.5801,13.29713,19.5801,13.54752Q19.5801,13.79791,19.3309,13.79826L4.67478,13.79826Q4.42525,13.79791,4.42525,13.54752Q4.42525,13.29713,4.67443,13.29678L5.62932,13.29678L5.62932,8.72089L3.49963,8.72089Q3.18877,8.72089,2.969173,8.94086Q2.74975,9.16066,2.74975,9.47162L2.74975,17.578400000000002Q2.74975,17.889400000000002,2.969173,18.1092Q3.18877,18.3292,3.49963,18.3292L20.4654,18.3292Q20.7763,18.3292,20.9959,18.1092Q21.2153,17.889400000000002,21.2153,17.578400000000002ZM20.4654,9.220880000000001Q20.7153,9.220880000000001,20.7153,9.47162L20.7153,17.578400000000002Q20.7153,17.8292,20.4654,17.8292L3.49963,17.8292Q3.2497499999999997,17.8292,3.2497499999999997,17.578400000000002L3.2497499999999997,9.47162Q3.2497499999999997,9.22089,3.49963,9.22089L5.12932,9.22089L5.12932,12.79678L4.67443,12.79678Q4.363659999999999,12.79721,4.14436,13.01719Q3.92525,13.23698,3.92525,13.54752Q3.92525,13.85806,4.14436,14.07785Q4.363659999999999,14.29783,4.67409,14.29826L19.3309,14.29826Q19.6417,14.29783,19.861,14.07785Q20.0801,13.85806,20.0801,13.54752Q20.0801,13.23698,19.861,13.01719Q19.6417,12.79721,19.3312,12.79678L18.8361,12.79678L18.8361,9.220880000000001L20.4654,9.220880000000001Z" fill-rule="evenodd" fill="#333333" fill-opacity="1"/></g></g></svg>