<svg xmlns="http://www.w3.org/2000/svg" xmlns:xlink="http://www.w3.org/1999/xlink" fill="none" version="1.1" width="26" height="26" viewBox="0 0 26 26"><g><g><g><g><g><path d="M15.310000057220458,6.9797967461395265Q15.300600057220459,9.230136746139525,13.74361005722046,10.840136746139526Q12.186550057220458,12.450166746139526,9.94853005722046,12.525366746139527Q9.89851005722046,12.527066746139527,9.848700057220459,12.522066746139526Q9.749700057220458,12.512166746139526,9.633740057220459,12.522766746139526Q9.587270057220458,12.526966746139527,9.54064005722046,12.525366746139527Q7.301400057220459,12.450166746139526,5.746490057220459,10.839696746139527Q4.190000057220459,9.227616746139526,4.190000057220459,6.976666746139526Q4.190000057220459,4.673846746139526,5.814882057220459,3.0464377461395262Q7.442120057220459,1.4166667461395264,9.750000057220458,1.4166667461395264Q12.05129005722046,1.4166667461395264,13.68064005722046,3.0460247461395262Q15.310000057220458,4.675386746139527,15.310000057220458,6.976666746139526L15.310000057220458,6.9797967461395265ZM13.810000057220458,6.976666746139526Q13.810000057220458,5.2967067461395265,12.61998005722046,4.106686746139527Q11.429960057220459,2.9166667461395264,9.750000057220458,2.9166667461395264Q8.064120057220459,2.9166667461395264,6.876370057220459,4.106266746139527Q5.690000057220459,5.294486746139526,5.690000057220459,6.976666746139526Q5.690000057220459,8.621656746139525,6.8255900572204595,9.797806746139527Q7.958710057220459,10.971386746139526,9.59103005722046,11.026256746139527L9.56583005722046,11.775836746139527L9.497930057220458,11.028916746139526Q9.756490057220459,11.005406746139526,9.997960057220459,11.029556746139527L9.923330057220458,11.775836746139527L9.89814005722046,11.026256746139527Q11.529960057220459,10.971406746139527,12.665350057220458,9.797366746139527Q13.803140057220459,8.620856746139527,13.81001005722046,6.973546746139526L13.810000057220458,6.976666746139526Z" fill="#000000" fill-opacity="1"/></g><g><path d="M17.553838858935546,11.171253492279053Q17.790959158935546,11.144903492279052,18.011369158935548,11.172463492279054L17.918336158935546,11.916663492279053L17.890280158935546,11.167193492279052Q19.111429158935547,11.121483492279053,19.964089158935547,10.239053492279051Q20.819169158935548,9.354123492279053,20.819169158935548,8.125003492279053Q20.819169158935548,6.865223492279053,19.930609158935546,5.974913492279053Q19.040789158935546,5.083333492279053,17.777501158935546,5.083333492279053Q17.703633058935548,5.083333492279053,17.631183848935546,5.068922492279053Q17.558734658935546,5.054511492279053,17.490489158935546,5.026242492279053Q17.422243158935547,4.997974492279052,17.360824158935547,4.956935492279053Q17.29940415893555,4.915896492279053,17.247171158935547,4.863663492279053Q17.194938158935546,4.811430492279053,17.15389915893555,4.750011492279053Q17.112860158935547,4.688591492279053,17.084592158935546,4.620346492279053Q17.056324158935546,4.5521004922790524,17.041913158935547,4.479651492279053Q17.027501158935546,4.407201992279052,17.027501158935546,4.333333492279053Q17.027501158935546,4.259464992279053,17.041913158935547,4.187015492279053Q17.056324158935546,4.114566492279053,17.084592158935546,4.046320492279053Q17.112860158935547,3.9780754922790527,17.15389915893555,3.9166554922790526Q17.194938158935546,3.8552364922790527,17.247171158935547,3.8030034922790525Q17.29940415893555,3.750770492279053,17.360824158935547,3.7097314922790527Q17.422243158935547,3.6686924922790527,17.490489158935546,3.640423492279053Q17.558734658935546,3.6121554922790526,17.631183848935546,3.5977444922790527Q17.703633058935548,3.5833334922790527,17.777501158935546,3.5833334922790527Q19.662979158935546,3.5833334922790527,20.992309158935548,4.915297492279053Q22.319169158935548,6.2447734922790525,22.319169158935548,8.125003492279053Q22.319169158935548,9.960433492279053,21.04278915893555,11.281363492279052Q19.770709158935546,12.597853492279052,17.946391158935548,12.666143492279053Q17.885633158935548,12.668413492279052,17.825302158935546,12.660873492279054Q17.780614158935546,12.655283492279052,17.719499458935548,12.662083492279052Q17.646082788935548,12.670233492279053,17.572485258935547,12.663913492279052Q17.498888158935546,12.657593492279053,17.427937158935546,12.637033492279052Q17.356987158935546,12.616473492279052,17.291411158935546,12.582473492279053Q17.225835158935546,12.548463492279053,17.168153158935546,12.502323492279054Q17.110471158935546,12.456173492279053,17.06290015893555,12.399663492279053Q17.015328158935546,12.343153492279052,16.979696158935546,12.278453492279052Q16.944063158935545,12.213743492279054,16.921739158935548,12.143323492279052Q16.899415158935547,12.072913492279053,16.891257158935545,11.999493492279052Q16.883099158935547,11.926083492279052,16.889420158935547,11.852483492279053Q16.895742158935548,11.778883492279054,16.916300158935545,11.707933492279054Q16.936859158935547,11.636983492279054,16.970863158935547,11.571403492279053Q17.004868158935547,11.505833492279052,17.051013158935547,11.448153492279053Q17.097158158935546,11.390473492279053,17.153669158935546,11.342893492279053Q17.210181158935548,11.295323492279053,17.274887158935545,11.259693492279052Q17.339593158935546,11.224063492279052,17.410008158935547,11.201733492279054Q17.480422158935546,11.179413492279053,17.553838858935546,11.171253492279053ZM18.386669158935547,11.916663492279053Q18.386669158935547,11.990533492279052,18.372258158935548,12.062983492279052Q18.357847158935545,12.135433492279052,18.329579158935548,12.203683492279053Q18.301310158935546,12.271923492279052,18.260271158935545,12.333343492279052Q18.219232158935547,12.394763492279052,18.166999158935546,12.446993492279052Q18.114766158935545,12.499233492279053,18.053347158935548,12.540263492279053Q17.991927158935546,12.581303492279053,17.92368215893555,12.609573492279052Q17.855436158935547,12.637843492279053,17.782987158935548,12.652253492279053Q17.710537658935547,12.666663492279053,17.636669158935547,12.666663492279053Q17.562800658935547,12.666663492279053,17.490351158935546,12.652253492279053Q17.417902158935547,12.637843492279053,17.349656158935545,12.609573492279052Q17.281411158935548,12.581303492279053,17.219991158935546,12.540263492279053Q17.15857215893555,12.499233492279053,17.106339158935548,12.446993492279052Q17.054106158935546,12.394763492279052,17.01306715893555,12.333343492279052Q16.972028158935547,12.271923492279052,16.943759158935546,12.203683492279053Q16.91549115893555,12.135433492279052,16.901080158935546,12.062983492279052Q16.886669158935547,11.990533492279052,16.886669158935547,11.916663492279053Q16.886669158935547,11.842793492279053,16.901080158935546,11.770353492279053Q16.91549115893555,11.697903492279053,16.943759158935546,11.629653492279052Q16.972028158935547,11.561413492279053,17.01306715893555,11.499993492279053Q17.054106158935546,11.438573492279053,17.106339158935548,11.386333492279054Q17.15857215893555,11.334103492279052,17.219991158935546,11.293063492279053Q17.281411158935548,11.252023492279053,17.349656158935545,11.223753492279052Q17.417902158935547,11.195493492279052,17.490351158935546,11.181073492279053Q17.562800658935547,11.166663492279053,17.636669158935547,11.166663492279053Q17.710537658935547,11.166663492279053,17.782987158935548,11.181073492279053Q17.855436158935547,11.195493492279052,17.92368215893555,11.223753492279052Q17.991927158935546,11.252023492279053,18.053347158935548,11.293063492279053Q18.114766158935545,11.334103492279052,18.166999158935546,11.386333492279054Q18.219232158935547,11.438573492279053,18.260271158935545,11.499993492279053Q18.301310158935546,11.561413492279053,18.329579158935548,11.629653492279052Q18.357847158935545,11.697903492279053,18.372258158935548,11.770353492279053Q18.386669158935547,11.842793492279053,18.386669158935547,11.916663492279053ZM18.527501158935546,4.333333492279053Q18.527501158935546,4.407201992279052,18.513090158935547,4.479651492279053Q18.49867915893555,4.5521004922790524,18.470411158935548,4.620346492279053Q18.442143158935547,4.688591492279053,18.401104158935546,4.750011492279053Q18.360064158935547,4.811430492279053,18.307831158935546,4.863663492279053Q18.255599158935546,4.915896492279053,18.194179158935547,4.956935492279053Q18.132760158935547,4.997974492279052,18.06451415893555,5.026243492279053Q17.996268158935546,5.054511492279053,17.923819158935547,5.068922492279053Q17.85137015893555,5.083333492279053,17.777501158935546,5.083333492279053Q17.703633058935548,5.083333492279053,17.631183848935546,5.068922492279053Q17.558734658935546,5.054511492279053,17.490489158935546,5.026243492279053Q17.422243158935547,4.997974492279052,17.360824158935547,4.956935492279053Q17.29940415893555,4.915896492279053,17.247171158935547,4.863663492279053Q17.194938158935546,4.811430492279053,17.15389915893555,4.750011492279053Q17.112860158935547,4.688591492279053,17.084592158935546,4.620346492279053Q17.056324158935546,4.5521004922790524,17.041913158935547,4.479651492279053Q17.027501158935546,4.407201992279052,17.027501158935546,4.333333492279053Q17.027501158935546,4.259464992279053,17.041913158935547,4.187015492279053Q17.056324158935546,4.114566492279053,17.084592158935546,4.046320492279053Q17.112860158935547,3.9780754922790527,17.15389915893555,3.9166554922790526Q17.194938158935546,3.8552364922790527,17.247171158935547,3.8030034922790525Q17.29940415893555,3.750770492279053,17.360824158935547,3.7097314922790527Q17.422243158935547,3.6686924922790527,17.490489158935546,3.640423492279053Q17.558734658935546,3.6121554922790526,17.631183848935546,3.5977444922790527Q17.703633058935548,3.5833334922790527,17.777501158935546,3.5833334922790527Q17.85137015893555,3.5833334922790527,17.923819158935547,3.5977444922790527Q17.996268158935546,3.6121554922790526,18.06451415893555,3.640423492279053Q18.132760158935547,3.6686924922790527,18.194179158935547,3.7097314922790527Q18.255599158935546,3.750770492279053,18.307831158935546,3.8030034922790525Q18.360064158935547,3.8552364922790527,18.401104158935546,3.9166554922790526Q18.442143158935547,3.9780754922790527,18.470411158935548,4.046320492279053Q18.49867915893555,4.114566492279053,18.513090158935547,4.187015492279053Q18.527501158935546,4.259464992279053,18.527501158935546,4.333333492279053Z" fill="#000000" fill-opacity="1"/></g><g><path d="M14.934316479110718,16.39701896911621Q12.897116479110718,15.036458969116211,9.936876479110719,15.036458969116211Q6.975216479110718,15.036458969116211,4.921126479110718,16.39841896911621Q3.2904164791107178,17.49004896911621,3.2904164791107178,18.95697896911621Q3.2904164791107178,20.42252896911621,4.922096479110717,21.50806896911621Q6.968806479110718,22.87749896911621,9.928746479110718,22.87749896911621Q12.888716479110718,22.87749896911621,14.933716479110718,21.50915896911621Q16.567116479110716,20.41577896911621,16.567116479110716,18.94885896911621Q16.567116479110716,17.483308969116212,14.935416479110717,16.39776896911621L14.934316479110718,16.39701896911621ZM15.766216479110717,15.14889896911621Q18.067116479110716,16.67960896911621,18.067116479110716,18.94885896911621Q18.067116479110716,21.21671896911621,15.767916479110717,22.755838969116212Q13.344216479110719,24.377458969116212,9.928746479110718,24.377458969116212Q6.513266479110718,24.377458969116212,4.091236479110718,22.756938969116213Q1.7904164791107178,21.22622896911621,1.7904164791107178,18.95697896911621Q1.7904164791107178,16.689118969116212,4.092206479110718,15.14825296911621Q6.523116479110717,13.536458969116211,9.936876479110719,13.536458969116211Q13.352016479110718,13.536458969116211,15.767416479110718,15.14964696911621L15.766216479110717,15.14889896911621Z" fill="#000000" fill-opacity="1"/></g><g><path d="M20.06571381652832,14.435015938232421Q21.46103381652832,14.749454938232422,22.44685381652832,15.502257938232422Q24.00916381652832,16.673957938232423,24.00916381652832,18.41124793823242Q24.00916381652832,20.148537938232423,22.44166381652832,21.32416793823242Q21.418593816528322,22.109797938232422,20.02129881652832,22.40090793823242Q19.94898311652832,22.41596793823242,19.87511761652832,22.416637938232423Q19.80125211652832,22.417307938232423,19.72867581652832,22.40354793823242Q19.65609881652832,22.389797938232423,19.58760081652832,22.36214793823242Q19.51910181652832,22.334497938232424,19.45731381652832,22.29401793823242Q19.39552581652832,22.253527938232423,19.34282281652832,22.201767938232422Q19.29011981652832,22.150017938232423,19.24852681652832,22.08896793823242Q19.20693381652832,22.02791793823242,19.17804881652832,21.95993793823242Q19.14916481652832,21.89194793823242,19.134098816528322,21.81963793823242Q19.11903281652832,21.74731793823242,19.11836481652832,21.67344793823242Q19.11769681652832,21.59958793823242,19.13145181652832,21.527007938232423Q19.14520681652832,21.454437938232424,19.17285681652832,21.385937938232424Q19.20050581652832,21.317437938232423,19.24098781652832,21.25564793823242Q19.281469816528322,21.193857938232423,19.33322781652832,21.14115793823242Q19.384986816528322,21.08844793823242,19.446031816528322,21.04685793823242Q19.50707781652832,21.00526793823242,19.57506481652832,20.97637793823242Q19.64305181652832,20.947497938232424,19.71536781652832,20.932427938232422Q20.77700281652832,20.71125793823242,21.54166381652832,20.12416793823242Q22.50916381652832,19.398537938232423,22.50916381652832,18.41124793823242Q22.50916381652832,17.423957938232423,21.53648381652832,16.694407938232423Q20.81132981652832,16.140657938232422,19.73595481652832,15.898319938232422Q19.66389381652832,15.882080938232422,19.59638481652832,15.852094938232423Q19.52887681652832,15.822109938232423,19.46851481652832,15.779529938232422Q19.40815281652832,15.736949938232422,19.357258816528322,15.683411938232421Q19.30636381652832,15.629874938232422,19.26689081652832,15.567436938232422Q19.22741881652832,15.504998938232422,19.20088581652832,15.436059938232422Q19.17435281652832,15.367120938232421,19.16177981652832,15.294330938232422Q19.14920581652832,15.221539838232422,19.15107481652832,15.147694938232421Q19.15294281652832,15.073850038232422,19.16918281652832,15.001788938232423Q19.18542181652832,14.929726938232422,19.215406816528322,14.862218938232422Q19.24539281652832,14.794709938232423,19.28797281652832,14.734347938232421Q19.33055281652832,14.673986938232423,19.38408981652832,14.623091938232422Q19.43762781652832,14.572196938232421,19.50006581652832,14.532724938232422Q19.56250381652832,14.493251938232422,19.63144281652832,14.466719938232423Q19.70038181652832,14.440186938232422,19.77317201652832,14.427612938232421Q19.845962616528322,14.415038938232422,19.91980751652832,14.416907938232422Q19.99365281652832,14.418776938232423,20.06571381652832,14.435015938232421ZM20.65083481652832,15.166667938232422Q20.65083481652832,15.240536438232422,20.63642381652832,15.312985938232423Q20.62201281652832,15.385434938232422,20.59374381652832,15.453680938232422Q20.56547581652832,15.521925938232421,20.524436816528322,15.583345938232421Q20.48339781652832,15.644764938232422,20.43116481652832,15.696997938232421Q20.378931816528322,15.749230938232422,20.31751181652832,15.790269938232422Q20.25609281652832,15.831308938232421,20.18784681652832,15.859577938232421Q20.11960181652832,15.887845938232422,20.04715181652832,15.902256938232423Q19.97470281652832,15.916667938232422,19.90083451652832,15.916667938232422Q19.82696601652832,15.916667938232422,19.75451681652832,15.902256938232423Q19.68206781652832,15.887845938232422,19.613821816528322,15.859577938232421Q19.54557681652832,15.831308938232421,19.48415681652832,15.790269938232422Q19.422737816528322,15.749230938232422,19.37050481652832,15.696997938232421Q19.31827181652832,15.644764938232422,19.277232816528322,15.583345938232421Q19.23619281652832,15.521925938232421,19.20792481652832,15.453680938232422Q19.179656816528322,15.385434938232422,19.16524581652832,15.312985938232423Q19.15083481652832,15.240536438232422,19.15083481652832,15.166667938232422Q19.15083481652832,15.092799438232422,19.16524581652832,15.020349938232421Q19.179656816528322,14.947900938232422,19.20792481652832,14.879654938232422Q19.23619281652832,14.811409938232423,19.277232816528322,14.749989938232423Q19.31827181652832,14.688570938232422,19.37050481652832,14.636337938232423Q19.422737816528322,14.584104938232421,19.48415681652832,14.543065938232422Q19.54557681652832,14.502026938232422,19.613821816528322,14.473757938232422Q19.68206781652832,14.445489938232422,19.75451681652832,14.431078938232421Q19.82696601652832,14.416667938232422,19.90083451652832,14.416667938232422Q19.97470281652832,14.416667938232422,20.04715181652832,14.431078938232421Q20.11960181652832,14.445489938232422,20.18784681652832,14.473757938232422Q20.25609281652832,14.502026938232422,20.31751181652832,14.543065938232422Q20.378931816528322,14.584104938232421,20.43116481652832,14.636337938232423Q20.48339781652832,14.688570938232422,20.524436816528322,14.749989938232423Q20.56547581652832,14.811409938232423,20.59374381652832,14.879654938232422Q20.62201281652832,14.947900938232422,20.63642381652832,15.020349938232421Q20.65083481652832,15.092799438232422,20.65083481652832,15.166667938232422ZM20.61833381652832,21.666667938232422Q20.61833381652832,21.74053793823242,20.60392281652832,21.81298793823242Q20.58951181652832,21.88543793823242,20.56124381652832,21.953677938232424Q20.53297481652832,22.021927938232423,20.49193581652832,22.08334793823242Q20.45089681652832,22.144767938232423,20.39866381652832,22.19699793823242Q20.34643081652832,22.249227938232423,20.28501181652832,22.29026793823242Q20.22359181652832,22.33130793823242,20.155346816528322,22.359577938232423Q20.08710081652832,22.387847938232422,20.01465181652832,22.402257938232424Q19.94220231652832,22.416667938232422,19.86833381652832,22.416667938232422Q19.79446531652832,22.416667938232422,19.72201581652832,22.402257938232424Q19.64956681652832,22.387847938232422,19.58132081652832,22.359577938232423Q19.51307581652832,22.33130793823242,19.45165581652832,22.29026793823242Q19.390236816528322,22.249227938232423,19.33800381652832,22.19699793823242Q19.28577081652832,22.144767938232423,19.244731816528322,22.08334793823242Q19.20369281652832,22.021927938232423,19.17542381652832,21.953677938232424Q19.147155816528322,21.88543793823242,19.13274481652832,21.81298793823242Q19.11833381652832,21.74053793823242,19.11833381652832,21.666667938232422Q19.11833381652832,21.592797938232422,19.13274481652832,21.520347938232423Q19.147155816528322,21.447897938232423,19.17542381652832,21.37965793823242Q19.20369281652832,21.31140793823242,19.244731816528322,21.249987938232422Q19.28577081652832,21.18856793823242,19.33800381652832,21.136337938232423Q19.390236816528322,21.08410793823242,19.45165581652832,21.043067938232422Q19.51307581652832,21.002027938232423,19.58132081652832,20.97375793823242Q19.64956681652832,20.94548793823242,19.72201581652832,20.93107793823242Q19.79446531652832,20.916667938232422,19.86833381652832,20.916667938232422Q19.94220231652832,20.916667938232422,20.01465181652832,20.93107793823242Q20.08710081652832,20.94548793823242,20.155346816528322,20.97375793823242Q20.22359181652832,21.002027938232423,20.28501181652832,21.043067938232422Q20.34643081652832,21.08410793823242,20.39866381652832,21.136337938232423Q20.45089681652832,21.18856793823242,20.49193581652832,21.249987938232422Q20.53297481652832,21.31140793823242,20.56124381652832,21.37965793823242Q20.58951181652832,21.447897938232423,20.60392281652832,21.520347938232423Q20.61833381652832,21.592797938232422,20.61833381652832,21.666667938232422Z" fill="#000000" fill-opacity="1"/></g><g transform="matrix(-1,-1.2246469849340659e-16,1.2246469849340659e-16,-1,52,52)" style="opacity:0;"><path d="M26,26L26,52L52,52L52,26L26,26ZM27,27L27,51L51,51L51,27L27,27Z" fill-rule="evenodd" fill="#000000" fill-opacity="1"/></g></g></g></g></g></svg>