<svg xmlns="http://www.w3.org/2000/svg" xmlns:xlink="http://www.w3.org/1999/xlink" fill="none" version="1.1" width="20" height="20" viewBox="0 0 20 20"><defs><clipPath id="master_svg0_4_9373"><rect x="0" y="0" width="20" height="20" rx="0"/></clipPath></defs><g clip-path="url(#master_svg0_4_9373)"><g><g><path d="M1.9,5.356266626930237L1.9,8.345296626930237Q1.9,11.864366626930236,3.89841,14.650566626930237Q5.841950000000001,17.360266626930237,9.14893,18.662266626930236Q10.001100000000001,18.997766626930236,10.8531,18.662266626930236Q14.1592,17.360266626930237,16.1022,14.651166626930237Q18.1,11.865666626930237,18.1,8.347376626930238L18.1,5.355866626930236Q18.1,4.4894966269302365,17.5803,3.796296626930237Q17.0607,3.103096626930237,16.229,2.860166626930237L10.73236,1.2544796269302367Q10.00366,1.041613626930237,9.27491,1.2542926269302368L3.7716000000000003,2.8603866269302367Q2.93975,3.103146626930237,2.4198751,3.796436626930237Q1.9,4.489716626930237,1.9,5.356266626930237ZM4.87352,13.951166626930236Q3.099999,11.478526626930236,3.1,8.345296626930237L3.1,5.356266626930237Q3.1,4.306436626930237,4.10778,4.012326626930237L9.6111,2.4062386269302367Q10.003499999999999,2.2917196269302367,10.39588,2.4063396269302366L15.8926,4.012026626930236Q16.9,4.306316626930236,16.9,5.355866626930236L16.9,8.347376626930238Q16.9,11.479786626930236,15.127,13.951866626930236Q13.3903,16.373466626930238,10.4134,17.545766626930238Q10.00105,17.708166626930236,9.58855,17.545766626930238Q6.61082,16.373366626930235,4.87352,13.951166626930236Z" fill-rule="evenodd" fill="#232D42" fill-opacity="1"/></g><g><ellipse cx="10.000325441360474" cy="7.499999761581421" rx="2.0833332538604736" ry="2.0833332538604736" fill-opacity="0" stroke-opacity="1" stroke="#232D42" fill="none" stroke-width="1.2000000476837158" stroke-linecap="ROUND" stroke-linejoin="round"/></g><g><path d="M7.2190351875,10.135376015441894Q6.0669921875,11.287423015441895,6.0669921875,12.916663015441895Q6.0669921875,12.975763015441895,6.0785211875,13.033723015441895Q6.0900501875,13.091683015441895,6.1126641875,13.146273015441896Q6.1352791875,13.200873015441895,6.1681101875,13.250013015441894Q6.2009421875,13.299143015441894,6.2427281875,13.340933015441895Q6.2845141875,13.382713015441894,6.3336501875,13.415553015441894Q6.3827851875,13.448383015441895,6.4373821875,13.470993015441895Q6.4919781875,13.493613015441895,6.5499381875,13.505133015441896Q6.6078973874999996,13.516663015441894,6.6669921875,13.516663015441894Q6.7260869875000004,13.516663015441894,6.7840461875,13.505133015441896Q6.8420061875,13.493613015441895,6.8966021875,13.470993015441895Q6.9511991875,13.448383015441895,7.0003341875,13.415553015441894Q7.0494701875,13.382713015441894,7.0912561875,13.340933015441895Q7.1330421875,13.299143015441894,7.1658741875,13.250013015441894Q7.1987051875,13.200873015441895,7.2213201875,13.146273015441896Q7.2439341875,13.091683015441895,7.2554631875,13.033723015441895Q7.2669921875,12.975763015441895,7.2669921875,12.916663015441895Q7.2669921875,11.784473015441895,8.0675621875,10.983903015441895Q8.8681321875,10.183333015441894,10.0003221875,10.183333015441894Q11.1325121875,10.183333015441894,11.9330921875,10.983903015441895Q12.7336621875,11.784473015441895,12.7336621875,12.916663015441895Q12.7336621875,12.975763015441895,12.745192187499999,13.033723015441895Q12.7567121875,13.091683015441895,12.7793321875,13.146273015441896Q12.8019421875,13.200873015441895,12.8347721875,13.250013015441894Q12.8676121875,13.299143015441894,12.9093921875,13.340933015441895Q12.951182187499999,13.382713015441894,13.0003121875,13.415553015441894Q13.0494521875,13.448383015441895,13.104052187499999,13.470993015441895Q13.1586421875,13.493613015441895,13.216602187500001,13.505133015441896Q13.274562187499999,13.516663015441894,13.3336621875,13.516663015441894Q13.392752187500001,13.516663015441894,13.450712187499999,13.505133015441896Q13.5086721875,13.493613015441895,13.5632721875,13.470993015441895Q13.6178621875,13.448383015441895,13.6670021875,13.415553015441894Q13.716132187500001,13.382713015441894,13.7579221875,13.340933015441895Q13.799712187499999,13.299143015441894,13.8325421875,13.250013015441894Q13.8653721875,13.200873015441895,13.8879821875,13.146273015441896Q13.9106021875,13.091683015441895,13.9221321875,13.033723015441895Q13.933662187500001,12.975763015441895,13.933662187500001,12.916663015441895Q13.933662187500001,11.287423015441895,12.7816121875,10.135377015441895Q11.629572187499999,8.983333015441895,10.0003221875,8.983333015441895Q8.3710821875,8.983333015441895,7.2190351875,10.135376015441894Z" fill-rule="evenodd" fill="#232D42" fill-opacity="1"/></g></g></g></svg>