<svg xmlns="http://www.w3.org/2000/svg" xmlns:xlink="http://www.w3.org/1999/xlink" fill="none" version="1.1" width="24" height="24" viewBox="0 0 24 24"><defs><clipPath id="master_svg0_584_03480"><rect x="0" y="0" width="24" height="24" rx="0"/></clipPath></defs><g clip-path="url(#master_svg0_584_03480)"><g><path d="M2.298736,9.26876L4.62918,18.5088Q4.76891,19.0628,5.2330000000000005,19.411Q5.68487,19.75,6.25565,19.75L17.744300000000003,19.75Q18.3151,19.75,18.767,19.411Q19.2311,19.0628,19.3708,18.5088L21.7013,9.26875Q21.899,8.484815,21.3785,7.856675Q20.8759,7.25,20.0748,7.25L3.925202,7.25Q3.124094,7.25,2.621451,7.856674Q2.101008,8.484832,2.298736,9.26876ZM6.25565,18.25Q6.11088,18.25,6.083629999999999,18.1419L3.753189,8.901932Q3.741565,8.855846,3.776512,8.813667Q3.829261,8.75,3.925202,8.75L20.0748,8.75Q20.1707,8.75,20.2235,8.813665Q20.2584,8.855853,20.2468,8.901948L17.9164,18.1419Q17.8891,18.25,17.744300000000003,18.25L6.25565,18.25Z" fill-rule="evenodd" fill="#333333" fill-opacity="1"/></g><g><path d="M5.25,8L5.25,4Q5.25,3.9261315,5.264411,3.853682Q5.278822,3.781233,5.30709,3.712987Q5.335359,3.644742,5.376398,3.583322Q5.417437,3.521903,5.46967,3.46967Q5.521903,3.417437,5.583322,3.376398Q5.644742,3.335359,5.712987,3.30709Q5.781233,3.278822,5.853682,3.264411Q5.9261315,3.25,6,3.25L10,3.25Q10.07387,3.25,10.14632,3.264411Q10.21877,3.278822,10.28701,3.30709Q10.355260000000001,3.335359,10.41668,3.376398Q10.478100000000001,3.417437,10.53033,3.46967Q10.58256,3.521903,10.6236,3.583322Q10.66464,3.644742,10.692910000000001,3.712987Q10.72118,3.781233,10.73559,3.853682Q10.75,3.9261315,10.75,4L10.75,8Q10.75,8.07387,10.73559,8.14632Q10.72118,8.21877,10.692910000000001,8.28701Q10.66464,8.355260000000001,10.6236,8.41668Q10.58256,8.478100000000001,10.53033,8.53033Q10.478100000000001,8.58256,10.41668,8.6236Q10.355260000000001,8.66464,10.28701,8.692910000000001Q10.21877,8.72118,10.14632,8.73559Q10.07387,8.75,10,8.75L6,8.75Q5.9261315,8.75,5.853682,8.73559Q5.781233,8.72118,5.712987,8.692910000000001Q5.644742,8.66464,5.583322,8.6236Q5.521903,8.58256,5.46967,8.53033Q5.417437,8.478100000000001,5.376398,8.41668Q5.335359,8.355260000000001,5.30709,8.28701Q5.278822,8.21877,5.264411,8.14632Q5.25,8.07387,5.25,8ZM6.75,4.75L6.75,7.25L9.25,7.25L9.25,4.75L6.75,4.75Z" fill="#333333" fill-opacity="1"/></g><g><path d="M18.57974,8.62119L18.58016,8.62148Q18.77041,8.75,19,8.75Q19.03295,8.75,19.06577,8.74711Q19.14912,8.73977,19.22881,8.71425Q19.308500000000002,8.68872,19.3806,8.64626Q19.4527,8.60379,19.513669999999998,8.54649Q19.574640000000002,8.489180000000001,19.62148,8.41984Q19.75,8.22959,19.75,8Q19.75,7.96705,19.74711,7.9342299999999994Q19.73977,7.85088,19.71424,7.77119Q19.68872,7.69151,19.646259999999998,7.619400000000001Q19.60379,7.5473,19.54649,7.486330000000001Q19.489179999999998,7.4253599999999995,19.41984,7.37852L13.49879,3.378524Q13.440010000000001,3.338812,13.37482,3.310826Q13.30963,3.28284,13.24035,3.267573Q13.17107,3.252307,13.100159999999999,3.2503Q13.029250000000001,3.248293,12.95922,3.259619Q12.88919,3.270943,12.82252,3.295198Q12.75586,3.319453,12.69492,3.355777Q12.633980000000001,3.392102,12.58094,3.439207Q12.527899999999999,3.486312,12.48462,3.542528L9.405677,7.54253Q9.32997,7.64088,9.289985,7.75838Q9.25,7.87588,9.25,8Q9.25,8.00972,9.250252,8.01944Q9.252421,8.10309,9.272971,8.1842Q9.293522,8.26531,9.331444,8.3399Q9.369365,8.41449,9.422793,8.47889Q9.476221,8.54328,9.542528,8.59432Q9.640882,8.67003,9.758382,8.71001Q9.875883,8.75,10,8.75Q10.00972091,8.75,10.0194406,8.749749999999999Q10.103088,8.74758,10.1842,8.72703Q10.265312,8.706479999999999,10.339901,8.66856Q10.41449,8.63063,10.478887,8.577210000000001Q10.543284,8.52378,10.594323,8.45747L10.59454,8.45719L13.243269999999999,5.01611L18.57974,8.62119Z" fill-rule="evenodd" fill="#333333" fill-opacity="1"/></g><g><path d="M8,12.75L12,12.75Q12.07387,12.75,12.14632,12.735589000000001Q12.21877,12.721178,12.28701,12.69291Q12.355260000000001,12.664641,12.41668,12.623602Q12.478100000000001,12.582563,12.53033,12.53033Q12.58256,12.478097,12.6236,12.416678Q12.66464,12.355258,12.692910000000001,12.287013Q12.72118,12.218767,12.73559,12.146318Q12.75,12.0738685,12.75,12Q12.75,11.9261315,12.73559,11.853682Q12.72118,11.781233,12.692910000000001,11.712987Q12.66464,11.644742,12.6236,11.583322Q12.58256,11.521903,12.53033,11.46967Q12.478100000000001,11.417437,12.41668,11.376398Q12.355260000000001,11.335359,12.28701,11.30709Q12.21877,11.278822,12.14632,11.264410999999999Q12.07387,11.25,12,11.25L8,11.25Q7.9261315,11.25,7.853682,11.264410999999999Q7.781233,11.278822,7.712987,11.30709Q7.644742,11.335359,7.583322,11.376398Q7.521903,11.417437,7.46967,11.46967Q7.417437,11.521903,7.376398,11.583322Q7.335359,11.644742,7.30709,11.712987Q7.278822,11.781233,7.264411,11.853682Q7.25,11.9261315,7.25,12Q7.25,12.0738685,7.264411,12.146318Q7.278822,12.218767,7.30709,12.287013Q7.335359,12.355258,7.376398,12.416678Q7.417437,12.478097,7.46967,12.53033Q7.521903,12.582563,7.583322,12.623602Q7.644742,12.664641,7.712987,12.69291Q7.781233,12.721178,7.853682,12.735589000000001Q7.9261315,12.75,8,12.75Z" fill-rule="evenodd" fill="#333333" fill-opacity="1"/></g></g></svg>