<svg xmlns="http://www.w3.org/2000/svg" xmlns:xlink="http://www.w3.org/1999/xlink" fill="none" version="1.1" width="24" height="24" viewBox="0 0 24 24"><g><g><g><g><path d="M21,2.25L15,2.25Q14.9261315,2.25,14.853682,2.264411Q14.781233,2.278822,14.712987,2.30709Q14.644742,2.335359,14.583322,2.376398Q14.521903,2.417437,14.46967,2.46967Q14.417437,2.521903,14.376398,2.583322Q14.335359,2.644742,14.30709,2.712987Q14.278822,2.781233,14.264410999999999,2.853682Q14.25,2.9261315,14.25,3Q14.25,3.0738685,14.264410999999999,3.146318Q14.278822,3.218767,14.30709,3.287013Q14.335359,3.355258,14.376398,3.416678Q14.417437,3.478097,14.46967,3.53033Q14.521903,3.582563,14.583322,3.623602Q14.644742,3.664641,14.712987,3.69291Q14.781233,3.721178,14.853682,3.735589Q14.9261315,3.75,15,3.75L20.25,3.75L20.25,9Q20.25,9.07387,20.264409999999998,9.14632Q20.27882,9.21877,20.30709,9.28701Q20.33536,9.355260000000001,20.3764,9.41668Q20.41744,9.478100000000001,20.46967,9.53033Q20.5219,9.58256,20.58332,9.6236Q20.64474,9.66464,20.712989999999998,9.692910000000001Q20.78123,9.72118,20.85368,9.73559Q20.92613,9.75,21,9.75Q21.07387,9.75,21.14632,9.73559Q21.21877,9.72118,21.287010000000002,9.692910000000001Q21.35526,9.66464,21.41668,9.6236Q21.4781,9.58256,21.53033,9.53033Q21.58256,9.478100000000001,21.6236,9.41668Q21.66464,9.355260000000001,21.69291,9.28701Q21.72118,9.21877,21.735590000000002,9.14632Q21.75,9.07387,21.75,9L21.75,3Q21.75,2.9261315,21.735590000000002,2.853682Q21.72118,2.781233,21.69291,2.712987Q21.66464,2.644742,21.6236,2.583322Q21.58256,2.521903,21.53033,2.46967Q21.4781,2.417437,21.41668,2.376398Q21.35526,2.335359,21.287010000000002,2.30709Q21.21877,2.278822,21.14632,2.264411Q21.07387,2.25,21,2.25Z" fill-rule="evenodd" fill="#000000" fill-opacity="1"/></g><g><path d="M3,21.75L9,21.75Q9.07387,21.75,9.14632,21.735590000000002Q9.21877,21.72118,9.28701,21.69291Q9.355260000000001,21.66464,9.41668,21.6236Q9.478100000000001,21.58256,9.53033,21.53033Q9.58256,21.4781,9.6236,21.41668Q9.66464,21.35526,9.692910000000001,21.287010000000002Q9.72118,21.21877,9.73559,21.14632Q9.75,21.07387,9.75,21Q9.75,20.92613,9.73559,20.85368Q9.72118,20.78123,9.692910000000001,20.712989999999998Q9.66464,20.64474,9.6236,20.58332Q9.58256,20.5219,9.53033,20.46967Q9.478100000000001,20.41744,9.41668,20.3764Q9.355260000000001,20.33536,9.28701,20.30709Q9.21877,20.27882,9.14632,20.264409999999998Q9.07387,20.25,9,20.25L3.75,20.25L3.75,15Q3.75,14.9261315,3.735589,14.853682Q3.721178,14.781233,3.69291,14.712987Q3.664641,14.644742,3.623602,14.583322Q3.582563,14.521903,3.53033,14.46967Q3.478097,14.417437,3.416678,14.376398Q3.355258,14.335359,3.287013,14.30709Q3.218767,14.278822,3.146318,14.264410999999999Q3.0738685,14.25,3,14.25Q2.9261315,14.25,2.853682,14.264410999999999Q2.781233,14.278822,2.712987,14.30709Q2.644742,14.335359,2.583322,14.376398Q2.521903,14.417437,2.46967,14.46967Q2.417437,14.521903,2.376398,14.583322Q2.335359,14.644742,2.30709,14.712987Q2.278822,14.781233,2.264411,14.853682Q2.25,14.9261315,2.25,15L2.25,21Q2.25,21.07387,2.264411,21.14632Q2.278822,21.21877,2.30709,21.287010000000002Q2.335359,21.35526,2.376398,21.41668Q2.417437,21.4781,2.46967,21.53033Q2.521903,21.58256,2.583322,21.6236Q2.644742,21.66464,2.712987,21.69291Q2.781233,21.72118,2.853682,21.735590000000002Q2.9261315,21.75,3,21.75Z" fill-rule="evenodd" fill="#000000" fill-opacity="1"/></g><g><path d="M21.529870000000003,3.530792L21.53033,3.53033Q21.635820000000002,3.424841,21.692909999999998,3.287013Q21.75,3.149184,21.75,3Q21.75,2.850816,21.692909999999998,2.712987Q21.635820000000002,2.575159,21.53033,2.46967Q21.526899999999998,2.466238,21.52342,2.46285Q21.41838,2.3604950000000002,21.282519999999998,2.305247Q21.14666,2.25,21,2.25L20.99585,2.2500109999999998Q20.847749999999998,2.250831,20.71107,2.307887Q20.5744,2.3649430000000002,20.46967,2.46967L12.96967,9.96967Q12.864181,10.07516,12.80709,10.21299Q12.75,10.350819999999999,12.75,10.5Q12.75,10.51802,12.750866,10.53603Q12.757583,10.675699999999999,12.814186,10.80358Q12.870789,10.93145,12.96967,11.03033Q13.075159,11.13582,13.212987,11.19291Q13.350816,11.25,13.5,11.25Q13.649184,11.25,13.787013,11.19291Q13.924841,11.13582,14.03033,11.03033L14.030792,11.02987L21.529870000000003,3.530792Z" fill-rule="evenodd" fill="#000000" fill-opacity="1"/></g><g><path d="M11.02987,14.030792L11.03033,14.03033Q11.13582,13.924841,11.19291,13.787013Q11.25,13.649184,11.25,13.5Q11.25,13.350816,11.19291,13.212987Q11.13582,13.075159,11.03033,12.96967Q11.0269,12.966238,11.02342,12.96285Q10.918379999999999,12.860495,10.78252,12.805247Q10.64666,12.75,10.5,12.75L10.49585,12.750011Q10.34775,12.750831,10.21107,12.807887000000001Q10.0744,12.864943,9.96967,12.96967L2.46967,20.46967Q2.364181,20.57516,2.30709,20.712989999999998Q2.25,20.85082,2.25,21Q2.25,21.01802,2.2508660000000003,21.03603Q2.257583,21.1757,2.314186,21.30358Q2.3707890000000003,21.431449999999998,2.46967,21.53033Q2.575159,21.635820000000002,2.712987,21.692909999999998Q2.850816,21.75,3,21.75Q3.149184,21.75,3.287013,21.692909999999998Q3.424841,21.635820000000002,3.53033,21.53033L3.530792,21.529870000000003L11.02987,14.030792Z" fill-rule="evenodd" fill="#000000" fill-opacity="1"/></g><g style="opacity:0;"></g></g></g></g></svg>