<svg xmlns="http://www.w3.org/2000/svg" xmlns:xlink="http://www.w3.org/1999/xlink" fill="none" version="1.1" width="16" height="16" viewBox="0 0 16 16"><g><g style="opacity:0;"><path d="M0,16L0,0L16,0L16,16L0,16ZM1,15L1,1L15,1L15,15L1,15Z" fill-rule="evenodd" fill="#2B3D56" fill-opacity="1"/></g><g transform="matrix(0.7071067690849304,0.7071067690849304,-0.7071067690849304,0.7071067690849304,3.477189514609954,-5.5528587127216085)"><path d="M18.124808265991213,1.950506523963928L18.12517826599121,1.9501335239639284Q18.126668265991214,1.9486405239639282,18.12814826599121,1.947138523963928Q18.23206826599121,1.8418665239639282,18.28823826599121,1.7050205239639282Q18.34439826599121,1.5681755239639283,18.34439826599121,1.4202521439639282Q18.34439826599121,1.2709035239639281,18.28718826599121,1.1329465239639283Q18.22997826599121,0.9949905239639283,18.12427826599121,0.8894735239639282Q18.121068265991212,0.8862685239639282,18.11781826599121,0.8831025239639282Q18.01277826599121,0.7807465239639282,17.87692826599121,0.7254995239639283Q17.74106826599121,0.6702525239639282,17.59439826599121,0.6702525239639282L17.59376826599121,0.6702525239639282Q17.560318265991214,0.6702805239639282,17.527008265991213,0.6732855239639283Q17.39565826599121,0.6851365239639282,17.27622826599121,0.7410855239639282Q17.156798265991213,0.7970345239639283,17.063628265991213,0.8903705239639282L17.063248265991213,0.8907435239639282L7.910985265991211,10.058499523963928L7.910710265991211,10.058769523963928Q7.805426265991211,10.164229523963929,7.748457265991211,10.301929523963928Q7.691488265991211,10.439629523963928,7.691488265991211,10.588649523963928L7.691488265991211,10.589289523963929Q7.691614265991211,10.738469523963929,7.748821265991211,10.876249523963928Q7.806028265991211,11.014029523963929,7.911606265991211,11.119429523963928Q8.017068265991211,11.224709523963929,8.15476826599121,11.281679523963929Q8.29246826599121,11.338649523963928,8.441488265991211,11.338649523963928L8.44212223899121,11.338649523963928Q8.59130626599121,11.338529523963928,8.72908626599121,11.281319523963928Q8.866866265991211,11.224109523963929,8.97226626599121,11.118529523963929L8.972541265991211,11.118259523963928L18.124808265991213,1.950506523963928Z" fill-rule="evenodd" fill="#2B3D56" fill-opacity="1"/></g></g></svg>