<svg xmlns="http://www.w3.org/2000/svg" xmlns:xlink="http://www.w3.org/1999/xlink" fill="none" version="1.1" width="24" height="24" viewBox="0 0 24 24"><defs><clipPath id="master_svg0_113_13673"><rect x="0" y="0" width="24" height="24" rx="0"/></clipPath></defs><g clip-path="url(#master_svg0_113_13673)"><g><path d="M7.05025,7.05025Q5,9.10051,5,12Q5,14.8995,7.05025,16.9497Q9.10051,19,12,19Q14.89949,19,16.9497,16.9497Q19,14.8995,19,12Q19,9.10051,16.9497,7.05025Q14.89949,5,12,5Q9.10051,5,7.05025,7.05025ZM7.75736,16.2426Q6,14.48528,6,12Q5.999999,9.51472,7.75736,7.75736Q9.51472,6,12,6Q14.48528,6,16.2426,7.75736Q18,9.51472,18,12Q18,14.48528,16.2426,16.2426Q14.48528,18,12,18Q9.51472,18,7.75736,16.2426Z" fill-rule="evenodd" fill="#232D42" fill-opacity="1" style="mix-blend-mode:passthrough"/></g><g><path d="M13.25,1.75Q13.25,1.81141,13.24398,1.87252Q13.237960000000001,1.93363,13.22598,1.99386Q13.214,2.05409,13.19618,2.11286Q13.17835,2.17162,13.15485,2.22835Q13.13135,2.2850900000000003,13.1024,2.33925Q13.07345,2.3933999999999997,13.03934,2.4444600000000003Q13.00522,2.49552,12.96626,2.54299Q12.92731,2.59046,12.88388,2.63388Q12.84046,2.67731,12.79299,2.71626Q12.745519999999999,2.75522,12.69446,2.78934Q12.6434,2.82345,12.58925,2.8524Q12.53509,2.88135,12.47835,2.90485Q12.42162,2.92835,12.36286,2.94618Q12.30409,2.964,12.24386,2.97598Q12.18363,2.98796,12.12252,2.99398Q12.06141,3,12,3Q11.93859,3,11.87748,2.99398Q11.81637,2.98796,11.75614,2.97598Q11.695908,2.964,11.637144,2.94618Q11.57838,2.92835,11.521646,2.90485Q11.464911,2.88135,11.410754,2.8524Q11.356596,2.82345,11.305537,2.78934Q11.254478,2.75522,11.207008,2.71626Q11.159539,2.67731,11.116116,2.63388Q11.072694,2.59046,11.033737,2.54299Q10.99478,2.49552,10.960663,2.4444600000000003Q10.926546,2.3933999999999997,10.897598,2.33925Q10.868651,2.2850900000000003,10.8451506,2.22835Q10.8216505,2.17162,10.8038246,2.11286Q10.7859986,2.05409,10.7740184,1.99386Q10.7620382,1.93363,10.75601909,1.87252Q10.75,1.81141,10.75,1.75Q10.75,1.68859,10.75601909,1.62748Q10.7620382,1.56637,10.7740184,1.50614Q10.7859986,1.445908,10.8038246,1.3871440000000002Q10.8216505,1.3283800000000001,10.8451506,1.271646Q10.868651,1.214912,10.897598,1.1607539999999998Q10.926546,1.106597,10.960663,1.055537Q10.99478,1.004478,11.033737,0.9570080000000001Q11.072694,0.909539,11.116116,0.866116Q11.159539,0.822694,11.207008,0.783737Q11.254478,0.74478,11.305537,0.710663Q11.356596,0.676546,11.410754,0.647598Q11.464911,0.6186510000000001,11.521645,0.5951506Q11.57838,0.5716505000000001,11.637144,0.5538246Q11.695908,0.5359986,11.75614,0.5240184Q11.81637,0.5120382,11.87748,0.50601909Q11.93859,0.5,12,0.5Q12.06141,0.5,12.12252,0.50601909Q12.18363,0.5120382,12.24386,0.5240184Q12.30409,0.5359986,12.36286,0.5538246Q12.42162,0.5716505000000001,12.47835,0.5951506Q12.53509,0.6186510000000001,12.58925,0.647598Q12.6434,0.676546,12.69446,0.710663Q12.745519999999999,0.74478,12.79299,0.783737Q12.84046,0.822694,12.88388,0.866116Q12.92731,0.909539,12.96626,0.9570080000000001Q13.00522,1.004478,13.03934,1.055537Q13.07345,1.106597,13.1024,1.1607539999999998Q13.13135,1.214912,13.15485,1.271646Q13.17835,1.3283800000000001,13.19617,1.3871440000000002Q13.214,1.445908,13.22598,1.50614Q13.237960000000001,1.56637,13.24398,1.62748Q13.25,1.68859,13.25,1.75Z" fill="#232D42" fill-opacity="1" style="mix-blend-mode:passthrough"/></g><g><path d="M20.5,4.75Q20.5,4.81141,20.49398,4.87252Q20.48796,4.93363,20.47598,4.99386Q20.464,5.05409,20.44618,5.1128599999999995Q20.428350000000002,5.17162,20.40485,5.22835Q20.38135,5.28509,20.3524,5.33925Q20.32345,5.3934,20.28934,5.44446Q20.25522,5.49552,20.21626,5.54299Q20.17731,5.59046,20.13388,5.6338799999999996Q20.09046,5.67731,20.04299,5.71626Q19.99552,5.75522,19.94446,5.78934Q19.8934,5.823449999999999,19.83925,5.852399999999999Q19.78509,5.881349999999999,19.72835,5.90485Q19.67162,5.92835,19.61286,5.94617Q19.55409,5.964,19.49386,5.97598Q19.43363,5.98796,19.37252,5.9939800000000005Q19.31141,6,19.25,6Q19.18859,6,19.12748,5.9939800000000005Q19.06637,5.98796,19.00614,5.97598Q18.945908,5.964,18.887144,5.94618Q18.82838,5.92835,18.771646,5.90485Q18.714911,5.881349999999999,18.660754,5.852399999999999Q18.606596,5.823449999999999,18.555537,5.78934Q18.504478,5.75522,18.457008,5.71626Q18.409539,5.67731,18.366116,5.6338799999999996Q18.322694,5.59046,18.283737,5.54299Q18.24478,5.49552,18.210663,5.44446Q18.176546,5.3934,18.147598,5.33925Q18.118651,5.28509,18.0951506,5.22835Q18.0716505,5.17162,18.0538246,5.1128599999999995Q18.0359986,5.05409,18.0240184,4.99386Q18.0120382,4.93363,18.00601909,4.87252Q18,4.81141,18,4.75Q18,4.68859,18.00601909,4.62748Q18.0120382,4.56637,18.0240184,4.50614Q18.0359986,4.445908,18.0538246,4.387144Q18.0716505,4.32838,18.0951506,4.2716460000000005Q18.118651,4.214911,18.147598,4.160754Q18.176546,4.106596,18.210663,4.055537Q18.24478,4.004478,18.283737,3.957008Q18.322694,3.909539,18.366116,3.866116Q18.409539,3.822694,18.457008,3.783737Q18.504478,3.74478,18.555537,3.710663Q18.606596,3.676546,18.660754,3.647598Q18.714911,3.618651,18.771645,3.5951506Q18.82838,3.5716505,18.887144,3.5538246Q18.945908,3.5359986,19.00614,3.5240184Q19.06637,3.5120382,19.12748,3.50601909Q19.18859,3.5,19.25,3.5Q19.31141,3.5,19.37252,3.50601909Q19.43363,3.5120382,19.49386,3.5240184Q19.55409,3.5359986,19.61286,3.5538246Q19.67162,3.5716505,19.72835,3.5951506Q19.78509,3.618651,19.83925,3.647598Q19.8934,3.676546,19.94446,3.710663Q19.99552,3.74478,20.04299,3.783737Q20.09046,3.822694,20.13388,3.866116Q20.17731,3.909539,20.21626,3.957008Q20.25522,4.004478,20.28934,4.055537Q20.32345,4.106596,20.3524,4.160754Q20.38135,4.214911,20.40485,4.271645Q20.428350000000002,4.32838,20.44617,4.387144Q20.464,4.445908,20.47598,4.50614Q20.48796,4.56637,20.49398,4.62748Q20.5,4.68859,20.5,4.75Z" fill="#232D42" fill-opacity="1" style="mix-blend-mode:passthrough"/></g><g><path d="M23.5,12Q23.5,12.06141,23.49398,12.12252Q23.48796,12.18363,23.47598,12.24386Q23.464,12.30409,23.44618,12.36286Q23.428350000000002,12.42162,23.40485,12.47835Q23.38135,12.53509,23.3524,12.58925Q23.32345,12.6434,23.28934,12.69446Q23.25522,12.745519999999999,23.21626,12.79299Q23.17731,12.84046,23.13388,12.88388Q23.09046,12.92731,23.04299,12.96626Q22.99552,13.00522,22.94446,13.03934Q22.8934,13.07345,22.83925,13.1024Q22.78509,13.13135,22.72835,13.15485Q22.67162,13.17835,22.61286,13.19617Q22.55409,13.214,22.49386,13.22598Q22.43363,13.237960000000001,22.37252,13.24398Q22.31141,13.25,22.25,13.25Q22.18859,13.25,22.12748,13.24398Q22.06637,13.237960000000001,22.00614,13.22598Q21.945909,13.214,21.887144,13.19618Q21.82838,13.17835,21.771646,13.15485Q21.714911999999998,13.13135,21.660754,13.1024Q21.606597,13.07345,21.555537,13.03934Q21.504478,13.00522,21.457008,12.96626Q21.409539,12.92731,21.366117,12.88388Q21.322694,12.84046,21.283737,12.79299Q21.24478,12.745519999999999,21.210663,12.69446Q21.176546,12.6434,21.147598,12.58925Q21.118651,12.53509,21.0951506,12.47835Q21.0716505,12.42162,21.0538246,12.36286Q21.0359986,12.30409,21.0240184,12.24386Q21.0120382,12.18363,21.00601909,12.12252Q21,12.06141,21,12Q21,11.93859,21.00601909,11.87748Q21.0120382,11.81637,21.0240184,11.75614Q21.0359986,11.695908,21.0538246,11.637144Q21.0716505,11.57838,21.0951506,11.521646Q21.118651,11.464911,21.147598,11.410754Q21.176546,11.356596,21.210663,11.305537Q21.24478,11.254478,21.283737,11.207008Q21.322694,11.159539,21.366117,11.116116Q21.409539,11.072694,21.457008,11.033737Q21.504478,10.99478,21.555537,10.960663Q21.606597,10.926546,21.660754,10.897598Q21.714911999999998,10.868651,21.771646,10.8451506Q21.82838,10.8216505,21.887144,10.8038246Q21.945909,10.7859986,22.00614,10.7740184Q22.06637,10.7620382,22.12748,10.75601909Q22.18859,10.75,22.25,10.75Q22.31141,10.75,22.37252,10.75601909Q22.43363,10.7620382,22.49386,10.7740184Q22.55409,10.7859986,22.61286,10.8038246Q22.67162,10.8216505,22.72835,10.8451506Q22.78509,10.868651,22.83925,10.897598Q22.8934,10.926546,22.94446,10.960663Q22.99552,10.99478,23.04299,11.033737Q23.09046,11.072694,23.13388,11.116116Q23.17731,11.159539,23.21626,11.207008Q23.25522,11.254478,23.28934,11.305537Q23.32345,11.356596,23.3524,11.410754Q23.38135,11.464911,23.40485,11.521645Q23.428350000000002,11.57838,23.44618,11.637144Q23.464,11.695908,23.47598,11.75614Q23.48796,11.81637,23.49398,11.87748Q23.5,11.93859,23.5,12Z" fill="#232D42" fill-opacity="1" style="mix-blend-mode:passthrough"/></g><g><path d="M20.5,19.25Q20.5,19.31141,20.49398,19.37252Q20.48796,19.43363,20.47598,19.49386Q20.464,19.55409,20.44618,19.61286Q20.428350000000002,19.67162,20.40485,19.72835Q20.38135,19.78509,20.3524,19.83925Q20.32345,19.8934,20.28934,19.94446Q20.25522,19.99552,20.21626,20.04299Q20.17731,20.09046,20.13388,20.13388Q20.09046,20.17731,20.04299,20.21626Q19.99552,20.25522,19.94446,20.28934Q19.8934,20.32345,19.83925,20.3524Q19.78509,20.38135,19.72835,20.40485Q19.67162,20.428350000000002,19.61286,20.44617Q19.55409,20.464,19.49386,20.47598Q19.43363,20.48796,19.37252,20.49398Q19.31141,20.5,19.25,20.5Q19.18859,20.5,19.12748,20.49398Q19.06637,20.48796,19.00614,20.47598Q18.945909,20.464,18.887144,20.44618Q18.82838,20.428350000000002,18.771646,20.40485Q18.714911999999998,20.38135,18.660754,20.3524Q18.606597,20.32345,18.555537,20.28934Q18.504478,20.25522,18.457008,20.21626Q18.409539,20.17731,18.366117,20.13388Q18.322694,20.09046,18.283737,20.04299Q18.24478,19.99552,18.210663,19.94446Q18.176546,19.8934,18.147598,19.83925Q18.118651,19.78509,18.0951506,19.72835Q18.0716505,19.67162,18.0538246,19.61286Q18.0359986,19.55409,18.0240184,19.49386Q18.0120382,19.43363,18.00601909,19.37252Q18,19.31141,18,19.25Q18,19.18859,18.00601909,19.12748Q18.0120382,19.06637,18.0240184,19.00614Q18.0359986,18.945908,18.0538246,18.887144Q18.0716505,18.82838,18.0951506,18.771646Q18.118651,18.714911,18.147598,18.660754Q18.176546,18.606596,18.210663,18.555537Q18.24478,18.504478,18.283737,18.457008Q18.322694,18.409539,18.366117,18.366116Q18.409539,18.322694,18.457008,18.283737Q18.504478,18.24478,18.555537,18.210663Q18.606597,18.176546,18.660754,18.147598Q18.714911999999998,18.118651,18.771646,18.0951506Q18.82838,18.0716505,18.887144,18.0538246Q18.945909,18.0359986,19.00614,18.0240184Q19.06637,18.0120382,19.12748,18.00601909Q19.18859,18,19.25,18Q19.31141,18,19.37252,18.00601909Q19.43363,18.0120382,19.49386,18.0240184Q19.55409,18.0359986,19.61286,18.0538246Q19.67162,18.0716505,19.72835,18.0951506Q19.78509,18.118651,19.83925,18.147598Q19.8934,18.176546,19.94446,18.210663Q19.99552,18.24478,20.04299,18.283737Q20.09046,18.322694,20.13388,18.366116Q20.17731,18.409539,20.21626,18.457008Q20.25522,18.504478,20.28934,18.555537Q20.32345,18.606596,20.3524,18.660754Q20.38135,18.714911,20.40485,18.771645Q20.428350000000002,18.82838,20.44618,18.887144Q20.464,18.945908,20.47598,19.00614Q20.48796,19.06637,20.49398,19.12748Q20.5,19.18859,20.5,19.25Z" fill="#232D42" fill-opacity="1" style="mix-blend-mode:passthrough"/></g><g><path d="M13.25,22.25Q13.25,22.31141,13.24398,22.37252Q13.237960000000001,22.43363,13.22598,22.49386Q13.214,22.55409,13.19618,22.61286Q13.17835,22.67162,13.15485,22.72835Q13.13135,22.78509,13.1024,22.83925Q13.07345,22.8934,13.03934,22.94446Q13.00522,22.99552,12.96626,23.04299Q12.92731,23.09046,12.88388,23.13388Q12.84046,23.17731,12.79299,23.21626Q12.745519999999999,23.25522,12.69446,23.28934Q12.6434,23.32345,12.58925,23.3524Q12.53509,23.38135,12.47835,23.40485Q12.42162,23.428350000000002,12.36286,23.44617Q12.30409,23.464,12.24386,23.47598Q12.18363,23.48796,12.12252,23.49398Q12.06141,23.5,12,23.5Q11.93859,23.5,11.87748,23.49398Q11.81637,23.48796,11.75614,23.47598Q11.695909,23.464,11.637144,23.44618Q11.57838,23.428350000000002,11.521646,23.40485Q11.464912,23.38135,11.410754,23.3524Q11.356597,23.32345,11.305537,23.28934Q11.254478,23.25522,11.207008,23.21626Q11.159539,23.17731,11.116117,23.13388Q11.072694,23.09046,11.033737,23.04299Q10.99478,22.99552,10.960663,22.94446Q10.926546,22.8934,10.897598,22.83925Q10.868651,22.78509,10.8451506,22.72835Q10.8216505,22.67162,10.8038246,22.61286Q10.7859986,22.55409,10.7740184,22.49386Q10.7620382,22.43363,10.75601909,22.37252Q10.75,22.31141,10.75,22.25Q10.75,22.18859,10.75601909,22.12748Q10.7620382,22.06637,10.7740184,22.00614Q10.7859986,21.945908,10.8038246,21.887144Q10.8216505,21.82838,10.8451506,21.771646Q10.868651,21.714911,10.897598,21.660754Q10.926546,21.606596,10.960663,21.555537Q10.99478,21.504478,11.033737,21.457008Q11.072694,21.409539,11.116117,21.366116Q11.159539,21.322694,11.207008,21.283737Q11.254478,21.24478,11.305537,21.210663Q11.356597,21.176546,11.410754,21.147598Q11.464912,21.118651,11.521646,21.0951506Q11.57838,21.0716505,11.637144,21.0538246Q11.695909,21.0359986,11.75614,21.0240184Q11.81637,21.0120382,11.87748,21.00601909Q11.93859,21,12,21Q12.06141,21,12.12252,21.00601909Q12.18363,21.0120382,12.24386,21.0240184Q12.30409,21.0359986,12.36286,21.0538246Q12.42162,21.0716505,12.47835,21.0951506Q12.53509,21.118651,12.58925,21.147598Q12.6434,21.176546,12.69446,21.210663Q12.745519999999999,21.24478,12.79299,21.283737Q12.84046,21.322694,12.88388,21.366116Q12.92731,21.409539,12.96626,21.457008Q13.00522,21.504478,13.03934,21.555537Q13.07345,21.606596,13.1024,21.660754Q13.13135,21.714911,13.15485,21.771645Q13.17835,21.82838,13.19618,21.887144Q13.214,21.945908,13.22598,22.00614Q13.237960000000001,22.06637,13.24398,22.12748Q13.25,22.18859,13.25,22.25Z" fill="#232D42" fill-opacity="1" style="mix-blend-mode:passthrough"/></g><g><path d="M6,19.25Q6,19.31141,5.9939800000000005,19.37252Q5.98796,19.43363,5.97598,19.49386Q5.964,19.55409,5.94618,19.61286Q5.92835,19.67162,5.90485,19.72835Q5.881349999999999,19.78509,5.852399999999999,19.83925Q5.823449999999999,19.8934,5.78934,19.94446Q5.75522,19.99552,5.71626,20.04299Q5.67731,20.09046,5.6338799999999996,20.13388Q5.59046,20.17731,5.54299,20.21626Q5.49552,20.25522,5.44446,20.28934Q5.3934,20.32345,5.33925,20.3524Q5.28509,20.38135,5.22835,20.40485Q5.17162,20.428350000000002,5.1128599999999995,20.44618Q5.05409,20.464,4.99386,20.47598Q4.93363,20.48796,4.87252,20.49398Q4.81141,20.5,4.75,20.5Q4.68859,20.5,4.62748,20.49398Q4.56637,20.48796,4.50614,20.47598Q4.445908,20.464,4.387144,20.44618Q4.32838,20.428350000000002,4.2716460000000005,20.40485Q4.214912,20.38135,4.160754,20.3524Q4.106597,20.32345,4.055537,20.28934Q4.004478,20.25522,3.957008,20.21626Q3.909539,20.17731,3.866116,20.13388Q3.822694,20.09046,3.783737,20.04299Q3.74478,19.99552,3.710663,19.94446Q3.676546,19.8934,3.647598,19.83925Q3.618651,19.78509,3.5951506,19.72835Q3.5716505,19.67162,3.5538246,19.61286Q3.5359986,19.55409,3.5240184,19.49386Q3.5120382,19.43363,3.50601909,19.37252Q3.5,19.31141,3.5,19.25Q3.5,19.18859,3.50601909,19.12748Q3.5120382,19.06637,3.5240184,19.00614Q3.5359986,18.945909,3.5538246,18.887144Q3.5716505,18.82838,3.5951506,18.771646Q3.618651,18.714911999999998,3.647598,18.660754Q3.676546,18.606597,3.710663,18.555537Q3.74478,18.504478,3.783737,18.457008Q3.822694,18.409539,3.866116,18.366117Q3.909539,18.322694,3.957008,18.283737Q4.004478,18.24478,4.055537,18.210663Q4.106597,18.176546,4.160754,18.147598Q4.214912,18.118651,4.2716460000000005,18.0951506Q4.32838,18.0716505,4.387144,18.0538246Q4.445908,18.0359986,4.50614,18.0240184Q4.56637,18.0120382,4.62748,18.00601909Q4.68859,18,4.75,18Q4.81141,18,4.87252,18.00601909Q4.93363,18.0120382,4.99386,18.0240184Q5.05409,18.0359986,5.1128599999999995,18.0538246Q5.17162,18.0716505,5.22835,18.0951506Q5.28509,18.118651,5.33925,18.147598Q5.3934,18.176546,5.44446,18.210663Q5.49552,18.24478,5.54299,18.283737Q5.59046,18.322694,5.6338799999999996,18.366117Q5.67731,18.409539,5.71626,18.457008Q5.75522,18.504478,5.78934,18.555537Q5.823449999999999,18.606597,5.852399999999999,18.660754Q5.881349999999999,18.714911999999998,5.90485,18.771646Q5.92835,18.82838,5.94618,18.887144Q5.964,18.945909,5.97598,19.00614Q5.98796,19.06637,5.9939800000000005,19.12748Q6,19.18859,6,19.25Z" fill="#232D42" fill-opacity="1" style="mix-blend-mode:passthrough"/></g><g><path d="M3,12Q3,12.06141,2.99398,12.12252Q2.98796,12.18363,2.97598,12.24386Q2.964,12.30409,2.94618,12.36286Q2.92835,12.42162,2.90485,12.47835Q2.88135,12.53509,2.8524,12.58925Q2.82345,12.6434,2.78934,12.69446Q2.75522,12.745519999999999,2.71626,12.79299Q2.67731,12.84046,2.63388,12.88388Q2.59046,12.92731,2.54299,12.96626Q2.49552,13.00522,2.4444600000000003,13.03934Q2.3933999999999997,13.07345,2.33925,13.1024Q2.2850900000000003,13.13135,2.22835,13.15485Q2.17162,13.17835,2.11286,13.19618Q2.05409,13.214,1.99386,13.22598Q1.93363,13.237960000000001,1.87252,13.24398Q1.81141,13.25,1.75,13.25Q1.68859,13.25,1.62748,13.24398Q1.56637,13.237960000000001,1.50614,13.22598Q1.445908,13.214,1.3871440000000002,13.19618Q1.3283800000000001,13.17835,1.271646,13.15485Q1.214912,13.13135,1.1607539999999998,13.1024Q1.106597,13.07345,1.055537,13.03934Q1.004478,13.00522,0.9570080000000001,12.96626Q0.909539,12.92731,0.866116,12.88388Q0.822694,12.84046,0.783737,12.79299Q0.74478,12.745519999999999,0.710663,12.69446Q0.676546,12.6434,0.647598,12.58925Q0.6186510000000001,12.53509,0.5951506,12.47835Q0.5716505000000001,12.42162,0.5538246,12.36286Q0.5359986,12.30409,0.5240184,12.24386Q0.5120382,12.18363,0.50601909,12.12252Q0.5,12.06141,0.5,12Q0.5,11.93859,0.50601909,11.87748Q0.5120382,11.81637,0.5240184,11.75614Q0.5359986,11.695909,0.5538246,11.637144Q0.5716505000000001,11.57838,0.5951506,11.521646Q0.6186510000000001,11.464912,0.647598,11.410754Q0.676546,11.356597,0.710663,11.305537Q0.74478,11.254478,0.783737,11.207008Q0.822694,11.159539,0.866116,11.116117Q0.909539,11.072694,0.9570080000000001,11.033737Q1.004478,10.99478,1.055537,10.960663Q1.106597,10.926546,1.1607539999999998,10.897598Q1.214912,10.868651,1.271646,10.8451506Q1.3283800000000001,10.8216505,1.3871440000000002,10.8038246Q1.445908,10.7859986,1.50614,10.7740184Q1.56637,10.7620382,1.62748,10.75601909Q1.68859,10.75,1.75,10.75Q1.81141,10.75,1.87252,10.75601909Q1.93363,10.7620382,1.99386,10.7740184Q2.05409,10.7859986,2.11286,10.8038246Q2.17162,10.8216505,2.22835,10.8451506Q2.2850900000000003,10.868651,2.33925,10.897598Q2.3933999999999997,10.926546,2.4444600000000003,10.960663Q2.49552,10.99478,2.54299,11.033737Q2.59046,11.072694,2.63388,11.116117Q2.67731,11.159539,2.71626,11.207008Q2.75522,11.254478,2.78934,11.305537Q2.82345,11.356597,2.8524,11.410754Q2.88135,11.464912,2.90485,11.521646Q2.92835,11.57838,2.94618,11.637144Q2.964,11.695909,2.97598,11.75614Q2.98796,11.81637,2.99398,11.87748Q3,11.93859,3,12Z" fill="#232D42" fill-opacity="1" style="mix-blend-mode:passthrough"/></g><g><path d="M6,4.75Q6,4.81141,5.9939800000000005,4.87252Q5.98796,4.93363,5.97598,4.99386Q5.964,5.05409,5.94618,5.1128599999999995Q5.92835,5.17162,5.90485,5.22835Q5.881349999999999,5.28509,5.852399999999999,5.33925Q5.823449999999999,5.3934,5.78934,5.44446Q5.75522,5.49552,5.71626,5.54299Q5.67731,5.59046,5.6338799999999996,5.6338799999999996Q5.59046,5.67731,5.54299,5.71626Q5.49552,5.75522,5.44446,5.78934Q5.3934,5.823449999999999,5.33925,5.852399999999999Q5.28509,5.881349999999999,5.22835,5.90485Q5.17162,5.92835,5.1128599999999995,5.94618Q5.05409,5.964,4.99386,5.97598Q4.93363,5.98796,4.87252,5.9939800000000005Q4.81141,6,4.75,6Q4.68859,6,4.62748,5.9939800000000005Q4.56637,5.98796,4.50614,5.97598Q4.445908,5.964,4.387144,5.94618Q4.32838,5.92835,4.2716460000000005,5.90485Q4.214912,5.881349999999999,4.160754,5.852399999999999Q4.106597,5.823449999999999,4.055537,5.78934Q4.004478,5.75522,3.957008,5.71626Q3.909539,5.67731,3.866116,5.6338799999999996Q3.822694,5.59046,3.783737,5.54299Q3.74478,5.49552,3.710663,5.44446Q3.676546,5.3934,3.647598,5.33925Q3.618651,5.28509,3.5951506,5.22835Q3.5716505,5.17162,3.5538246,5.1128599999999995Q3.5359986,5.05409,3.5240184,4.99386Q3.5120382,4.93363,3.50601909,4.87252Q3.5,4.81141,3.5,4.75Q3.5,4.68859,3.50601909,4.62748Q3.5120382,4.56637,3.5240184,4.50614Q3.5359986,4.445908,3.5538246,4.387144Q3.5716505,4.32838,3.5951506,4.2716460000000005Q3.618651,4.214912,3.647598,4.160754Q3.676546,4.106597,3.710663,4.055537Q3.74478,4.004478,3.783737,3.957008Q3.822694,3.909539,3.866116,3.866116Q3.909539,3.822694,3.957008,3.783737Q4.004478,3.74478,4.055537,3.710663Q4.106597,3.676546,4.160754,3.647598Q4.214912,3.618651,4.2716460000000005,3.5951506Q4.32838,3.5716505,4.387144,3.5538246Q4.445908,3.5359986,4.50614,3.5240184Q4.56637,3.5120382,4.62748,3.50601909Q4.68859,3.5,4.75,3.5Q4.81141,3.5,4.87252,3.50601909Q4.93363,3.5120382,4.99386,3.5240184Q5.05409,3.5359986,5.1128599999999995,3.5538246Q5.17162,3.5716505,5.22835,3.5951506Q5.28509,3.618651,5.33925,3.647598Q5.3934,3.676546,5.44446,3.710663Q5.49552,3.74478,5.54299,3.783737Q5.59046,3.822694,5.6338799999999996,3.866116Q5.67731,3.909539,5.71626,3.957008Q5.75522,4.004478,5.78934,4.055537Q5.823449999999999,4.106597,5.852399999999999,4.160754Q5.881349999999999,4.214912,5.90485,4.2716460000000005Q5.92835,4.32838,5.94618,4.387144Q5.964,4.445908,5.97598,4.50614Q5.98796,4.56637,5.9939800000000005,4.62748Q6,4.68859,6,4.75Z" fill="#232D42" fill-opacity="1" style="mix-blend-mode:passthrough"/></g></g></svg>