<svg xmlns="http://www.w3.org/2000/svg" xmlns:xlink="http://www.w3.org/1999/xlink" fill="none" version="1.1" width="10" height="10" viewBox="0 0 10 10"><g><g><path d="M0,0L10,0L10,10L0,10L0,0Z" fill="#FFFFFF" fill-opacity="0.009999999776482582"/></g><g><path d="M0.8333333134651184,2.5L9.166663313465119,2.5L9.166663313465119,4.16667L8.875313313465119,4.34148C8.413483313465118,4.61858,7.836523313465118,4.61858,7.374683313465119,4.34148L7.083333313465118,4.16667L6.791983313465118,4.34148C6.330143313465118,4.61858,5.753183313465119,4.61858,5.291353313465119,4.34148L5.000003313465118,4.16667L4.708643313465118,4.34148C4.246813313465118,4.61858,3.6698533134651186,4.61858,3.2080233134651186,4.34148L2.9166633134651185,4.16667L2.625313313465118,4.34148C2.163483313465118,4.61858,1.5865233134651184,4.61858,1.1246933134651185,4.34148L0.8333333134651184,4.16667L0.8333333134651184,2.5Z" fill="#FFFFFF" fill-opacity="1"/></g><g><path d="M0.4166666567325592,4.166663253860474L0.4166666567325592,2.5000002538604735C0.4166666567325592,2.269881253860474,0.6032146567325591,2.0833332538604736,0.8333336567325592,2.0833332538604736L9.16666665673256,2.0833332538604736C9.396786656732559,2.0833332538604736,9.583336656732559,2.269881253860474,9.583336656732559,2.5000002538604735L9.583336656732559,4.166663253860474C9.583336656732559,4.313023253860473,9.506536656732559,4.448653253860474,9.38103665673256,4.523953253860474L9.089686656732558,4.6987632538604736Q8.644346656732559,4.965973253860474,8.12499665673256,4.965973253860474Q7.605646656732559,4.965973253860474,7.160306656732559,4.6987632538604736L7.083336656732559,4.652583253860474L7.006356656732559,4.6987632538604736Q6.561016656732559,4.965973253860474,6.041666656732559,4.965973253860474Q5.522316656732559,4.965973253860474,5.076976656732559,4.6987632538604736L4.999996656732559,4.652583253860474L4.9230166567325595,4.6987632538604736Q4.477686656732559,4.965973253860474,3.958336656732559,4.965973253860474Q3.4389866567325593,4.965973253860474,2.993646656732559,4.6987632538604736L2.916666656732559,4.652583253860474L2.8396866567325594,4.6987632538604736Q2.3943466567325595,4.965973253860474,1.874996656732559,4.965973253860474Q1.355652656732559,4.965973253860474,0.9103166567325591,4.6987632538604736L0.6189636567325592,4.523953253860474C0.4934592567325592,4.448653253860474,0.4166666567325592,4.313023253860473,0.4166666567325592,4.166663253860474ZM1.3390706567325592,3.9841932538604734L1.2499996567325593,3.9307532538604737L1.2499996567325593,2.9166662538604737L8.74999665673256,2.9166662538604737L8.74999665673256,3.9307532538604737L8.66093665673256,3.9841932538604734Q8.413526656732559,4.132643253860474,8.12499665673256,4.132643253860474Q7.836476656732559,4.132643253860474,7.589066656732559,3.9841932538604734L7.297706656732559,3.809373253860474C7.165756656732559,3.7302032538604735,7.0009066567325595,3.7302032538604735,6.868956656732559,3.809373253860474L6.577606656732559,3.9841932538604734Q6.330196656732559,4.132643253860474,6.041666656732559,4.132643253860474Q5.7531366567325595,4.132643253860474,5.505726656732559,3.9841932538604734L5.21437665673256,3.809373253860474C5.082416656732559,3.7302032538604735,4.917576656732559,3.7302032538604735,4.78562665673256,3.809373253860474L4.494276656732559,3.9841932538604734Q4.246856656732559,4.132643253860474,3.958336656732559,4.132643253860474Q3.6698066567325593,4.132643253860474,3.422396656732559,3.9841932538604734L3.1310366567325594,3.809373253860474C2.999086656732559,3.7302032538604735,2.8342466567325593,3.7302032538604735,2.702296656732559,3.809373253860474L2.4109366567325594,3.9841932538604734Q2.163526656732559,4.132643253860474,1.874996656732559,4.132643253860474Q1.5864766567325592,4.132643253860474,1.3390706567325592,3.9841932538604734Z" fill-rule="evenodd" fill="#FFFFFF" fill-opacity="1"/></g><g><path d="M8.75,4.583333507720948L8.75,9.166666507720947C8.75,9.396786507720947,8.56345,9.583336507720947,8.33333,9.583336507720947L1.666667,9.583336507720947C1.436548,9.583336507720947,1.25,9.396786507720947,1.25,9.166666507720947L1.25,4.685187507720947C1.25,4.455068507720947,1.436548,4.268520507720948,1.666667,4.268520507720948C1.896785,4.268520507720948,2.083333,4.455068507720947,2.083333,4.685187507720947L2.083333,8.749996507720947L7.91667,8.749996507720947L7.91667,4.583333507720948C7.91667,4.353214507720947,8.10321,4.166666507720947,8.33333,4.166666507720947C8.56345,4.166666507720947,8.75,4.353214507720947,8.75,4.583333507720948Z" fill-rule="evenodd" fill="#FFFFFF" fill-opacity="1"/></g><g><path d="M7.91667,2.4999966567325593L7.91667,1.2499996567325593L2.083333,1.2499996567325593L2.083333,2.462956656732559C2.083333,2.693076656732559,1.896785,2.879626656732559,1.666667,2.879626656732559C1.436548,2.879626656732559,1.25,2.693076656732559,1.25,2.462956656732559L1.25,0.8333336567325592C1.25,0.6032146567325591,1.436548,0.4166666567325592,1.666667,0.4166666567325592L8.33333,0.4166666567325592C8.56345,0.4166666567325592,8.75,0.6032146567325591,8.75,0.8333336567325592L8.75,2.4999966567325593C8.75,2.730116656732559,8.56345,2.916666656732559,8.33333,2.916666656732559C8.10321,2.916666656732559,7.91667,2.730116656732559,7.91667,2.4999966567325593Z" fill-rule="evenodd" fill="#FFFFFF" fill-opacity="1"/></g><g><path d="M3.9583332538604736,6.666666507720947L6.041663253860474,6.666666507720947L6.041663253860474,9.166666507720947L3.9583332538604736,9.166666507720947L3.9583332538604736,6.666666507720947Z" fill="#FFFFFF" fill-opacity="1"/></g><g><path d="M3.5416665077209473,6.666667L3.5416665077209473,9.16667C3.5416665077209473,9.39679,3.7282145077209474,9.58333,3.958333507720947,9.58333L6.041666507720947,9.58333C6.271786507720947,9.58333,6.458336507720947,9.39679,6.458336507720947,9.16667L6.458336507720947,6.666667C6.458336507720947,6.436548,6.271786507720947,6.25,6.041666507720947,6.25L3.958333507720947,6.25C3.7282145077209474,6.25,3.5416665077209473,6.436548,3.5416665077209473,6.666667ZM4.374999507720947,8.75L4.374999507720947,7.083333L5.624996507720947,7.083333L5.624996507720947,8.75L4.374999507720947,8.75Z" fill-rule="evenodd" fill="#FFFFFF" fill-opacity="1"/></g></g></svg>