<svg xmlns="http://www.w3.org/2000/svg" xmlns:xlink="http://www.w3.org/1999/xlink" fill="none" version="1.1" width="24" height="24" viewBox="0 0 24 24"><defs><clipPath id="master_svg0_66_0357"><rect x="0" y="0" width="24" height="24" rx="0"/></clipPath></defs><g><g clip-path="url(#master_svg0_66_0357)"><g><path d="M12,1Q11.9015086,1,11.80491,1.019215Q11.708311,1.03843,11.617317,1.076121Q11.526322,1.113812,11.44443,1.16853Q11.362537,1.223249,11.292893,1.2928929999999998Q11.223249,1.362537,11.16853,1.44443Q11.113812,1.526322,11.076121,1.617317Q11.03843,1.7083110000000001,11.019214999999999,1.80491Q11,1.9015086,11,2L11,4Q11,4.09849,11.019214999999999,4.19509Q11.03843,4.29169,11.076121,4.382680000000001Q11.113812,4.47368,11.16853,4.5555699999999995Q11.223249,4.63746,11.292893,4.70711Q11.362537,4.77675,11.44443,4.8314699999999995Q11.526322,4.88619,11.617317,4.9238800000000005Q11.708311,4.96157,11.80491,4.98078Q11.9015086,5,12,5Q12.0984914,5,12.19509,4.98078Q12.291689,4.96157,12.382683,4.9238800000000005Q12.473678,4.88619,12.55557,4.8314699999999995Q12.637463,4.77675,12.707107,4.70711Q12.776751,4.63746,12.83147,4.5555699999999995Q12.886188,4.47368,12.923879,4.382680000000001Q12.96157,4.29169,12.980785000000001,4.19509Q13,4.09849,13,4L13,2Q13,1.9015086,12.980785000000001,1.80491Q12.96157,1.7083110000000001,12.923879,1.617317Q12.886188,1.526322,12.83147,1.44443Q12.776751,1.362537,12.707107,1.2928929999999998Q12.637463,1.223249,12.55557,1.16853Q12.473678,1.113812,12.382683,1.076121Q12.291689,1.03843,12.19509,1.019215Q12.0984914,1,12,1Z" fill-rule="evenodd" fill="#FFFFFF" fill-opacity="1"/></g><g><path d="M15.134015,4.571730051498413L15.133975,4.571800051498413Q15,4.803850051498413,15,5.071800051498413Q15,5.080800051498413,15.000162,5.089810051498413Q15.002368,5.212290051498413,15.034074,5.330620051498413Q15.085556,5.522750051498413,15.206647,5.6805600514984125Q15.327736999999999,5.838370051498413,15.5,5.937830051498413Q15.732051,6.071800051498413,16,6.071800051498413Q16.0277211,6.071800051498413,16.0553996,6.070260051498414Q16.179818,6.063360051498413,16.298738,6.0261400514984125Q16.417658,5.988910051498413,16.523806,5.923640051498413Q16.629954,5.858370051498413,16.716836999999998,5.769040051498413Q16.80372,5.679720051498413,16.866025,5.571800051498413L17.86599,3.839819051498413L17.86603,3.839750051498413Q18,3.607699051498413,18,3.3397500514984135Q18,3.312028951498413,17.99846,3.284350451498413Q17.99156,3.159932051498413,17.95434,3.041012051498413Q17.91711,2.9220920514984132,17.85184,2.815944051498413Q17.78657,2.709796051498413,17.69724,2.622913051498413Q17.60792,2.536030051498413,17.5,2.473725051498413Q17.26795,2.339750051498413,17,2.339750051498413Q16.972279,2.339750051498413,16.9446,2.341286051498413Q16.820182,2.348189051498413,16.701262,2.385415051498413Q16.582342,2.422641051498413,16.476194,2.487912051498413Q16.370046,2.553184051498413,16.283163,2.642509051498413Q16.19628,2.731834051498413,16.133975,2.839750051498413L16.133935,2.839819051498413L15.134015,4.571730051498413Z" fill-rule="evenodd" fill="#FFFFFF" fill-opacity="1"/></g><g><path d="M18.4282935859375,7.133863L18.4281005859375,7.133975Q18.3140855859375,7.199801,18.2209935859375,7.292893Q18.1279015859375,7.385986,18.0620745859375,7.5Q17.9962485859375,7.614015,17.9621745859375,7.741181Q17.9281005859375,7.868348,17.9281005859375,8Q17.9281005859375,8.0232,17.9291765859375,8.04638Q17.9404585859375,8.28935,18.0620755859375,8.5Q18.1615315859375,8.67226,18.3193395859375,8.79335Q18.4771475859375,8.914439999999999,18.6692815859375,8.96593Q18.7964485859375,9,18.9281005859375,9Q18.9438639859375,9,18.9596209859375,8.9995Q19.2106205859375,8.99159,19.4281005859375,8.86603L19.4284395859375,8.86583L21.1601505859375,7.8660250000000005Q21.3324105859375,7.766569,21.4535005859375,7.608761Q21.5745905859375,7.450953,21.6260805859375,7.258819Q21.6601505859375,7.131653,21.6601505859375,7.00000147749Q21.6601505859375,6.9842359,21.6596505859375,6.9684796Q21.6517405859375,6.71748,21.5261805859375,6.5Q21.4603505859375,6.385985,21.3672605859375,6.292893Q21.2741605859375,6.199801,21.1601505859375,6.1339749999999995Q21.0461405859375,6.068148,20.9189705859375,6.034074Q20.7918005859375,6,20.6601505859375,6Q20.636950585937498,6,20.613770585937502,6.001076Q20.3708005859375,6.012358,20.1601505859375,6.1339749999999995L18.4282935859375,7.133863Z" fill-rule="evenodd" fill="#FFFFFF" fill-opacity="1"/></g><g><path d="M23,12Q23,11.9015086,22.98078,11.80491Q22.961570000000002,11.708311,22.92388,11.617317Q22.88619,11.526322,22.83147,11.44443Q22.77675,11.362537,22.70711,11.292893Q22.63746,11.223249,22.55557,11.16853Q22.47368,11.113812,22.38268,11.076121Q22.29169,11.03843,22.19509,11.019214999999999Q22.098489999999998,11,22,11L20,11Q19.9015086,11,19.80491,11.019214999999999Q19.708311,11.03843,19.617317,11.076121Q19.526322,11.113812,19.44443,11.16853Q19.362537,11.223249,19.292893,11.292893Q19.223249,11.362537,19.16853,11.44443Q19.113812,11.526322,19.076121,11.617317Q19.038429999999998,11.708311,19.019215,11.80491Q19,11.9015086,19,12Q19,12.0984914,19.019215,12.19509Q19.038429999999998,12.291689,19.076121,12.382683Q19.113812,12.473678,19.16853,12.55557Q19.223249,12.637463,19.292893,12.707107Q19.362537,12.776751,19.44443,12.83147Q19.526322,12.886188,19.617317,12.923879Q19.708311,12.96157,19.80491,12.980785000000001Q19.9015086,13,20,13L22,13Q22.098489999999998,13,22.19509,12.980785000000001Q22.29169,12.96157,22.38268,12.923879Q22.47368,12.886188,22.55557,12.83147Q22.63746,12.776751,22.70711,12.707107Q22.77675,12.637463,22.83147,12.55557Q22.88619,12.473678,22.92388,12.382683Q22.961570000000002,12.291689,22.98078,12.19509Q23,12.0984914,23,12Z" fill-rule="evenodd" fill="#FFFFFF" fill-opacity="1"/></g><g><path d="M19.4282945859375,15.134087L19.4281005859375,15.133975Q19.1960495859375,15,18.9281005859375,15Q18.9003794859375,15,18.8727009859375,15.001536Q18.7482825859375,15.008439,18.6293625859375,15.045665Q18.5104425859375,15.082891,18.4042945859375,15.148162Q18.2981475859375,15.213434,18.211263585937502,15.302759Q18.1243805859375,15.392084,18.0620755859375,15.5Q17.9281005859375,15.732051,17.9281005859375,16Q17.9281005859375,16.0277211,17.9296365859375,16.0553996Q17.9365395859375,16.179818,17.9737655859375,16.298738Q18.0109915859375,16.417658,18.0762625859375,16.523806Q18.1415345859375,16.629953,18.230859585937502,16.716836999999998Q18.3201845859375,16.80372,18.4281005859375,16.866025L18.4282935859375,16.866137L20.1598805859375,17.86587L20.1601505859375,17.86603Q20.3922005859375,18,20.6601505859375,18Q20.6878705859375,18,20.7155505859375,17.99846Q20.8399705859375,17.99156,20.9588905859375,17.95434Q21.0778105859375,17.91711,21.1839605859375,17.85184Q21.290100585937502,17.78657,21.3769905859375,17.69724Q21.4638705859375,17.60792,21.5261805859375,17.5Q21.6601505859375,17.26795,21.6601505859375,17Q21.6601505859375,16.972279,21.6586105859375,16.9446Q21.6517105859375,16.820182,21.6144905859375,16.701262Q21.577260585937502,16.582342,21.5119905859375,16.476194Q21.4467205859375,16.370047,21.3573905859375,16.283163Q21.2680705859375,16.19628,21.1601505859375,16.133975L19.4282945859375,15.134087Z" fill-rule="evenodd" fill="#FFFFFF" fill-opacity="1"/></g><g><path d="M16.866137,18.428392768066406L16.866025,18.428199768066406Q16.800199,18.314184768066408,16.707107,18.221092768066406Q16.614014,18.128000768066407,16.5,18.062174768066406Q16.385986,17.996347768066407,16.258819,17.962273768066407Q16.131653,17.928199768066406,16.000000169374,17.928199768066406Q15.9767968,17.928199768066406,15.9536186,17.929275768066407Q15.710646,17.940557768066405,15.5,18.062174768066406Q15.385985,18.128000768066407,15.292893,18.221092768066406Q15.199801,18.314185768066405,15.133974,18.428199768066406Q15.068148,18.542213768066407,15.034074,18.669380768066407Q15,18.796547768066407,15,18.928199768066406Q15,18.951402868066406,15.001076,18.974581168066408Q15.012358,19.217553768066406,15.133975,19.428199768066406L15.134087,19.428393768066407L16.133975,21.160249768066407Q16.199801,21.274259768066408,16.292893,21.367359768066407Q16.385986,21.460449768066407,16.5,21.526279768066406Q16.614015,21.592099768066404,16.741181,21.626179768066407Q16.868348,21.660249768066407,17,21.660249768066407Q17.0232,21.660249768066407,17.04638,21.659169768066405Q17.28935,21.647889768066406,17.5,21.526279768066406Q17.61401,21.460449768066407,17.70711,21.367359768066407Q17.8002,21.274259768066408,17.86603,21.160249768066407Q17.93185,21.046239768066407,17.96593,20.919069768066407Q18,20.791899768066408,18,20.660249768066407Q18,20.637049768066404,17.99892,20.613869768066408Q17.98764,20.370899768066405,17.86603,20.160249768066407L17.86587,20.159979768066407L16.866137,18.428392768066406Z" fill-rule="evenodd" fill="#FFFFFF" fill-opacity="1"/></g><g><path d="M12,23Q12.0984914,23,12.19509,22.98078Q12.291689,22.961570000000002,12.382683,22.92388Q12.473678,22.88619,12.55557,22.83147Q12.637463,22.77675,12.707107,22.70711Q12.776751,22.63746,12.83147,22.55557Q12.886188,22.47368,12.923879,22.38268Q12.96157,22.29169,12.980785000000001,22.19509Q13,22.098489999999998,13,22L13,20Q13,19.9015086,12.980785000000001,19.80491Q12.96157,19.708311,12.923879,19.617317Q12.886188,19.526322,12.83147,19.44443Q12.776751,19.362537,12.707107,19.292893Q12.637463,19.223249,12.55557,19.16853Q12.473678,19.113812,12.382683,19.076121Q12.291689,19.038429999999998,12.19509,19.019215Q12.0984914,19,12,19Q11.9015086,19,11.80491,19.019215Q11.708311,19.038429999999998,11.617317,19.076121Q11.526322,19.113812,11.44443,19.16853Q11.362537,19.223249,11.292893,19.292893Q11.223249,19.362537,11.16853,19.44443Q11.113812,19.526322,11.076121,19.617317Q11.03843,19.708311,11.019214999999999,19.80491Q11,19.9015086,11,20L11,22Q11,22.098489999999998,11.019214999999999,22.19509Q11.03843,22.29169,11.076121,22.38268Q11.113812,22.47368,11.16853,22.55557Q11.223249,22.63746,11.292893,22.70711Q11.362537,22.77675,11.44443,22.83147Q11.526322,22.88619,11.617317,22.92388Q11.708311,22.961570000000002,11.80491,22.98078Q11.9015086,23,12,23Z" fill-rule="evenodd" fill="#FFFFFF" fill-opacity="1"/></g><g><path d="M8.86583,19.428538768066407L8.86603,19.428199768066406Q9,19.196149768066405,9,18.928201256196406Q9,18.919195198066408,8.99984,18.910192068066408Q8.997630000000001,18.787709768066406,8.96593,18.669380768066407Q8.914439999999999,18.477246768066408,8.79335,18.319438768066405Q8.67226,18.161630768066406,8.5,18.062174768066406Q8.267949999999999,17.928199768066406,8,17.928199768066406Q7.972279,17.928199768066406,7.9446,17.929735768066408Q7.820182,17.936638768066405,7.701262,17.973864768066406Q7.582342,18.011090768066406,7.476194,18.076361768066405Q7.370047,18.141633768066406,7.283163,18.230958768066408Q7.19628,18.320283768066407,7.133975,18.428199768066406L7.133863,18.428392768066406L6.1339749999999995,20.160249768066407Q6,20.392299768066405,6,20.660249768066407Q6,20.687969768066406,6.001536,20.715649768066406Q6.008439,20.840069768066407,6.045665,20.958989768066406Q6.082891,21.077909768066405,6.148162,21.184059768066405Q6.213434,21.290199768066408,6.302759,21.377089768066405Q6.392084,21.463969768066406,6.5,21.526279768066406Q6.732051,21.660249768066407,7,21.660249768066407Q7.00900382,21.660249768066407,7.0180077,21.660089768066406Q7.14049,21.657879768066408,7.258819,21.626179768066407Q7.450953,21.574689768066406,7.608761,21.453599768066407Q7.766569,21.332509768066405,7.8660250000000005,21.160249768066407L8.86583,19.428538768066407Z" fill-rule="evenodd" fill="#FFFFFF" fill-opacity="1"/></g><g><path d="M5.571714942092895,16.866134L5.571894942092896,16.866026Q5.685914942092896,16.8002,5.779004942092896,16.707108Q5.872094942092895,16.614015,5.937924942092895,16.500001Q6.003754942092895,16.385987,6.037824942092895,16.25882Q6.071904942092896,16.131654,6.071894942092896,16.00000142634Q6.071894942092896,15.9767974,6.070824942092896,15.9536198Q6.059544942092895,15.710648,5.937924942092895,15.500001Q5.872094942092895,15.385986,5.779004942092896,15.292894Q5.685914942092896,15.199801,5.571904942092896,15.133975Q5.457884942092896,15.068149,5.330714942092896,15.034074Q5.203554942092896,15,5.071894942092896,15Q5.0486949420928955,15,5.0255149420928955,15.001076Q4.782544942092896,15.012357,4.571904942092895,15.133974L4.571714942092895,15.134082L2.8398459420928956,16.133974Q2.7258309420928954,16.1998,2.6327389420928955,16.292893Q2.5396459420928954,16.385985,2.4738199420928955,16.5Q2.4079929420928954,16.614014,2.3739189420928954,16.741181Q2.3398449420928955,16.868347,2.3398449420928955,17Q2.3398449420928955,17.0232,2.3409209420928954,17.04638Q2.3522019420928952,17.28935,2.4738189420928958,17.5Q2.5396449420928953,17.61401,2.6327379420928954,17.70711Q2.7258299420928953,17.8002,2.8398449420928955,17.86603Q2.9538589420928956,17.93185,3.0810259420928956,17.96593Q3.2081919420928955,18,3.3398449420928955,18Q3.3630468420928956,18,3.3862251420928957,17.99892Q3.6291969420928956,17.98764,3.8398439420928954,17.86603L5.571714942092895,16.866134Z" fill-rule="evenodd" fill="#FFFFFF" fill-opacity="1"/></g><g><path d="M1,12Q1,12.0984914,1.019215,12.19509Q1.03843,12.291689,1.076121,12.382683Q1.113812,12.473678,1.16853,12.55557Q1.223249,12.637463,1.2928929999999998,12.707107Q1.362537,12.776751,1.44443,12.83147Q1.526322,12.886188,1.617317,12.923879Q1.7083110000000001,12.96157,1.80491,12.980785000000001Q1.9015086,13,2,13L4,13Q4.09849,13,4.19509,12.980785000000001Q4.29169,12.96157,4.382680000000001,12.923879Q4.47368,12.886188,4.5555699999999995,12.83147Q4.63746,12.776751,4.70711,12.707107Q4.77675,12.637463,4.8314699999999995,12.55557Q4.88619,12.473678,4.9238800000000005,12.382683Q4.96157,12.291689,4.98078,12.19509Q5,12.0984914,5,12Q5,11.9015086,4.98078,11.80491Q4.96157,11.708311,4.9238800000000005,11.617317Q4.88619,11.526322,4.8314699999999995,11.44443Q4.77675,11.362537,4.70711,11.292893Q4.63746,11.223249,4.5555699999999995,11.16853Q4.47368,11.113812,4.382680000000001,11.076121Q4.29169,11.03843,4.19509,11.019214999999999Q4.09849,11,4,11L2,11Q1.9015086,11,1.80491,11.019214999999999Q1.7083110000000001,11.03843,1.617317,11.076121Q1.526322,11.113812,1.44443,11.16853Q1.362537,11.223249,1.2928929999999998,11.292893Q1.223249,11.362537,1.16853,11.44443Q1.113812,11.526322,1.076121,11.617317Q1.03843,11.708311,1.019215,11.80491Q1,11.9015086,1,12Z" fill-rule="evenodd" fill="#FFFFFF" fill-opacity="1"/></g><g><path d="M4.571714942092895,8.86592L4.571904942092895,8.86603Q4.803954942092895,9,5.071894942092896,9Q5.099624942092896,9,5.127304942092896,8.99846Q5.251714942092896,8.99156,5.370634942092895,8.95433Q5.489554942092895,8.917110000000001,5.595704942092896,8.85184Q5.701854942092895,8.78657,5.788734942092896,8.69724Q5.875624942092895,8.60791,5.937924942092895,8.5Q6.071894942092896,8.267949999999999,6.071894942092896,8Q6.071894942092896,7.972278,6.070364942092896,7.944599Q6.063464942092896,7.82018,6.026234942092895,7.701261Q5.989004942092896,7.5823409999999996,5.923734942092896,7.476193Q5.858464942092896,7.370046,5.769144942092895,7.283162Q5.679814942092896,7.196279,5.571894942092896,7.133974L5.571714942092895,7.133866L3.8398439420928954,6.133974Q3.6077939420928953,6,3.3398450689278953,6Q3.3121232420928957,6,3.2844441420928954,6.001536Q3.1600249420928956,6.008439,3.0411049420928955,6.045665Q2.9221859420928955,6.082891,2.8160379420928954,6.148163Q2.7098899420928957,6.2134350000000005,2.6230069420928954,6.30276Q2.5361239420928956,6.392085,2.4738189420928958,6.500001Q2.3398449420928955,6.732051,2.3398449420928955,7Q2.3398449420928955,7.0277216,2.3413809420928953,7.0554008Q2.3482839420928956,7.17982,2.3855099420928956,7.2987400000000004Q2.4227359420928956,7.4176590000000004,2.4880079420928958,7.523807Q2.5532799420928955,7.629955,2.6426049420928956,7.716838Q2.7319299420928953,7.803721,2.8398459420928956,7.866026L4.571714942092895,8.86592Z" fill-rule="evenodd" fill="#FFFFFF" fill-opacity="1"/></g><g><path d="M6.134015,3.839819051498413L7.133975,5.571800051498413Q7.199801,5.685810051498413,7.292893,5.778910051498413Q7.385986,5.8720000514984125,7.5,5.937830051498413Q7.614015,6.003650051498413,7.741181,6.0377300514984125Q7.868348,6.071800051498413,8,6.071800051498413Q8.0232,6.071800051498413,8.04638,6.070720051498413Q8.28935,6.059440051498413,8.5,5.937830051498413Q8.67226,5.838370051498413,8.79335,5.6805600514984125Q8.914439999999999,5.522750051498413,8.96593,5.330620051498413Q9,5.203450051498413,9,5.071800051498413Q9,5.056040051498413,8.9995,5.040280051498414Q8.99159,4.789280051498413,8.86603,4.571800051498413L8.86599,4.571730051498413L7.866065,2.839819051498413L7.8660250000000005,2.839750051498413Q7.800199,2.725736051498413,7.707107,2.632643051498413Q7.614014,2.539551051498413,7.5,2.473725051498413Q7.385986,2.407898051498413,7.258819,2.373824051498413Q7.131653,2.339750051498413,7.000000250795,2.339750051498413Q6.9767968,2.339750051498413,6.9536186,2.340826051498413Q6.710647,2.352108051498413,6.5,2.473725051498413Q6.385985,2.539551051498413,6.292893,2.632643051498413Q6.199801,2.725736051498413,6.1339749999999995,2.839750051498413Q6.068148,2.953764051498413,6.034074,3.080931051498413Q6,3.208098051498413,6,3.339750051498413Q6,3.362953051498413,6.001076,3.386131451498413Q6.012358,3.6291030514984133,6.1339749999999995,3.839750051498413L6.134015,3.839819051498413Z" fill-rule="evenodd" fill="#FFFFFF" fill-opacity="1"/></g></g></g></svg>