<svg xmlns="http://www.w3.org/2000/svg" xmlns:xlink="http://www.w3.org/1999/xlink" fill="none" version="1.1" width="20" height="20" viewBox="0 0 20 20"><defs><clipPath id="master_svg0_76_13371"><rect x="0" y="0" width="20" height="20" rx="0"/></clipPath></defs><g clip-path="url(#master_svg0_76_13371)"><g><path d="M18.6667,10.08333L14.5001,17.1667L6.16675,17.1667L2,10.08333L6.16675,3L14.5001,3L18.6667,10.08333ZM10.32007,13.0801Q10.46745,13.0801,10.61412,13.0656Q10.76079,13.0512,10.90534,13.0224Q11.04989,12.99368,11.19092,12.9509Q11.33196,12.90812,11.46812,12.85172Q11.60428,12.79531,11.73426,12.72584Q11.86424,12.65637,11.98678,12.57449Q12.1093,12.49261,12.2232,12.39911Q12.3372,12.30561,12.4414,12.2014Q12.5456,12.09718,12.6391,11.98326Q12.7326,11.86933,12.8145,11.74679Q12.8964,11.62424,12.9658,11.49427Q13.0353,11.36429,13.0917,11.22813Q13.1481,11.09196,13.1909,10.95093Q13.2337,10.809899999999999,13.2624,10.66535Q13.2912,10.520800000000001,13.3056,10.374130000000001Q13.3201,10.22746,13.3201,10.080079999999999Q13.3201,9.9327,13.3056,9.78603Q13.2912,9.63936,13.2624,9.494810000000001Q13.2337,9.350259999999999,13.1909,9.20922Q13.1481,9.068190000000001,13.0917,8.932030000000001Q13.0353,8.79587,12.9658,8.665890000000001Q12.8964,8.535910000000001,12.8145,8.41337Q12.7326,8.29082,12.6391,8.1769Q12.5456,8.06297,12.4414,7.95876Q12.3372,7.85454,12.2232,7.76105Q12.1093,7.66755,11.98678,7.58567Q11.86424,7.50379,11.73426,7.43431Q11.60428,7.36484,11.46812,7.30844Q11.33196,7.25204,11.19092,7.20926Q11.04989,7.16648,10.90534,7.13772Q10.76079,7.10897,10.61412,7.09452Q10.46745,7.08008,10.32007,7.08008Q10.17269,7.08008,10.02602,7.09452Q9.879349999999999,7.10897,9.7348,7.13772Q9.590250000000001,7.16648,9.44921,7.20926Q9.30818,7.25204,9.17202,7.30844Q9.03586,7.36484,8.90588,7.43431Q8.7759,7.50379,8.65336,7.58567Q8.53082,7.66755,8.41689,7.76105Q8.302959999999999,7.85454,8.19875,7.95876Q8.094529999999999,8.06297,8.00104,8.1769Q7.90754,8.29082,7.82566,8.41337Q7.74378,8.535910000000001,7.6743,8.665890000000001Q7.60483,8.79587,7.54843,8.932030000000001Q7.49203,9.068190000000001,7.44925,9.20922Q7.40647,9.350259999999999,7.37771,9.494810000000001Q7.34896,9.63936,7.33451,9.78603Q7.32007,9.9327,7.32007,10.080079999999999Q7.32007,10.22746,7.33451,10.374130000000001Q7.34896,10.520800000000001,7.37771,10.66535Q7.40647,10.809899999999999,7.44925,10.95093Q7.49203,11.09196,7.54843,11.22813Q7.60483,11.36429,7.6743,11.49427Q7.74378,11.62424,7.82566,11.74679Q7.90754,11.86933,8.00104,11.98326Q8.094529999999999,12.09718,8.19875,12.2014Q8.302959999999999,12.30561,8.41689,12.39911Q8.530809999999999,12.49261,8.65336,12.57449Q8.7759,12.65637,8.90588,12.72584Q9.03586,12.79531,9.17202,12.85172Q9.30818,12.90812,9.44921,12.9509Q9.590250000000001,12.99368,9.7348,13.0224Q9.879349999999999,13.0512,10.02602,13.0656Q10.17269,13.0801,10.32007,13.0801Z" fill-rule="evenodd" fill="#8A92A6" fill-opacity="1"/><path d="M18.954,10.25234L14.7874,17.3357Q14.7425,17.412,14.6656,17.456Q14.5887,17.5,14.5001,17.5L6.16675,17.5Q6.07816,17.5,6.00126,17.456Q5.92436,17.412,5.879440000000001,17.3357L1.71269,10.25234Q1.666667,10.1741,1.666667,10.08333Q1.666667,9.992560000000001,1.71269,9.91432L5.879440000000001,2.830991Q5.92436,2.754632,6.00126,2.710649Q6.07816,2.666667,6.16675,2.666667L14.5001,2.666667Q14.5887,2.666667,14.6656,2.710651Q14.7425,2.754636,14.7874,2.830997L18.954,9.91433Q19,9.99257,19,10.08333Q19,10.1741,18.954,10.25234ZM18.3794,9.91433L18.6667,10.08333L18.3794,10.25234L14.2128,3.169003L14.5001,3L14.5001,3.333333L6.16675,3.333333L6.16675,3L6.45406,3.169009L2.28731,10.25234L2,10.08333L2.28731,9.91432L6.45406,16.997700000000002L6.16675,17.1667L6.16675,16.8333L14.5001,16.8333L14.5001,17.1667L14.2128,16.997700000000002L18.3794,9.91433ZM10.32007,12.74674Q11.42464,12.74675,12.2057,11.9657Q12.9867,11.18465,12.9867,10.080079999999999Q12.9867,8.97551,12.2057,8.19446Q11.42464,7.41341,10.32007,7.41341Q9.215499999999999,7.41341,8.43445,8.19446Q7.6534,8.97551,7.6534,10.080079999999999Q7.6534,11.18465,8.43445,11.9657Q9.215499999999999,12.74675,10.32007,12.74674ZM10.32007,13.4134Q8.93936,13.4134,7.96305,12.4371Q6.98673,11.46079,6.98673,10.080079999999999Q6.98673,8.69937,7.96305,7.72306Q8.93936,6.7467500000000005,10.32007,6.7467500000000005Q11.70078,6.74674,12.6771,7.72306Q13.6534,8.69937,13.6534,10.080079999999999Q13.6534,11.46079,12.6771,12.4371Q11.70078,13.4134,10.32007,13.4134Z" fill="#8A92A6" fill-opacity="1"/></g></g></svg>