<svg xmlns="http://www.w3.org/2000/svg" xmlns:xlink="http://www.w3.org/1999/xlink" fill="none" version="1.1" width="24" height="24" viewBox="0 0 24 24"><defs><clipPath id="master_svg0_844_02969"><rect x="0" y="0" width="24" height="24" rx="0"/></clipPath></defs><g><g clip-path="url(#master_svg0_844_02969)"><g><g><path d="M2,4L2,20Q2,20.0983,2.00963055,20.196Q2.0192611,20.2938,2.0384294,20.3902Q2.0575978,20.4865,2.0861193,20.5806Q2.114641,20.6746,2.152241,20.7654Q2.189841,20.8561,2.236157,20.9428Q2.282474,21.0294,2.337061,21.1111Q2.391648,21.1928,2.453979,21.2688Q2.516311,21.3447,2.585786,21.4142Q2.655262,21.4837,2.731213,21.546Q2.807164,21.6083,2.888859,21.6629Q2.970554,21.7175,3.05721,21.7638Q3.14386,21.8102,3.23463,21.8478Q3.3254099999999998,21.8854,3.41943,21.9139Q3.5134499999999997,21.9424,3.60982,21.9616Q3.7061900000000003,21.9807,3.80397,21.9904Q3.90175,22,4,22L7.80755,22C7.63196,21.4855,7.66183,20.8947,7.97242,20.3582L13.5055,10.80118C14.2758,9.47061,16.1968,9.47061,16.9672,10.80118L18,12.5852L18,4Q18,3.90175,17.9904,3.80397Q17.9807,3.7061900000000003,17.9616,3.60982Q17.9424,3.5134499999999997,17.913899999999998,3.41943Q17.8854,3.3254099999999998,17.8478,3.23463Q17.810200000000002,3.14386,17.7638,3.05721Q17.7175,2.970554,17.6629,2.888859Q17.6084,2.807164,17.546,2.731213Q17.4837,2.655262,17.4142,2.585786Q17.3447,2.516311,17.2688,2.453979Q17.1928,2.391648,17.1111,2.337061Q17.029400000000003,2.282474,16.9428,2.236157Q16.856099999999998,2.189841,16.7654,2.152241Q16.674599999999998,2.114641,16.5806,2.0861193Q16.4865,2.0575978,16.3902,2.0384294Q16.293799999999997,2.0192611,16.195999999999998,2.00963055Q16.098300000000002,2,16,2L4,2Q3.90175,2,3.80397,2.00963055Q3.7061900000000003,2.0192611,3.60982,2.0384294Q3.5134499999999997,2.0575978,3.41943,2.0861193Q3.3254099999999998,2.114641,3.23463,2.152241Q3.14386,2.189841,3.05721,2.236157Q2.970554,2.282474,2.888859,2.337061Q2.807164,2.391648,2.731213,2.453979Q2.655262,2.516311,2.585786,2.585786Q2.516311,2.655262,2.453979,2.731213Q2.391648,2.807164,2.337061,2.888859Q2.282474,2.970554,2.236157,3.05721Q2.189841,3.14386,2.152241,3.23463Q2.114641,3.3254099999999998,2.0861193,3.41943Q2.0575978,3.5134499999999997,2.0384294,3.60982Q2.0192611,3.7061900000000003,2.00963055,3.80397Q2,3.90175,2,4ZM4,5.75C4,6.16421,4.335789999999999,6.5,4.75,6.5L14.25,6.5C14.6642,6.5,15,6.16421,15,5.75C15,5.335789999999999,14.6642,5,14.25,5L4.75,5C4.335789999999999,5,4,5.335789999999999,4,5.75ZM4.75,9Q4.676130000000001,9,4.603680000000001,9.01441Q4.53123,9.02882,4.46299,9.057089999999999Q4.3947400000000005,9.08536,4.3333200000000005,9.1264Q4.2719000000000005,9.16744,4.21967,9.21967Q4.16744,9.271899999999999,4.1264,9.33332Q4.08536,9.394739999999999,4.0570900000000005,9.46299Q4.02882,9.53123,4.01441,9.60368Q4,9.67613,4,9.75Q4,9.82387,4.01441,9.89632Q4.02882,9.96877,4.0570900000000005,10.03701Q4.08536,10.10526,4.1264,10.16668Q4.16744,10.2281,4.21967,10.28033Q4.2719000000000005,10.33256,4.3333200000000005,10.3736Q4.3947400000000005,10.41464,4.46299,10.44291Q4.53123,10.47118,4.603680000000001,10.48559Q4.676130000000001,10.5,4.75,10.5L9.25,10.5Q9.32387,10.5,9.39632,10.48559Q9.46877,10.47118,9.53701,10.44291Q9.605260000000001,10.41464,9.66668,10.3736Q9.728100000000001,10.33256,9.78033,10.28033Q9.83256,10.2281,9.8736,10.16668Q9.91464,10.10526,9.942910000000001,10.03701Q9.97118,9.96877,9.98559,9.89632Q10,9.82387,10,9.75Q10,9.67613,9.98559,9.60368Q9.97118,9.53123,9.942910000000001,9.46299Q9.91464,9.394739999999999,9.8736,9.33332Q9.83256,9.271899999999999,9.78033,9.21967Q9.728100000000001,9.16744,9.66668,9.1264Q9.605260000000001,9.08536,9.53701,9.057089999999999Q9.46877,9.02882,9.39632,9.01441Q9.32387,9,9.25,9L4.75,9Z" fill-rule="evenodd" fill="#232D42" fill-opacity="1"/></g><g><path d="M13.83701375,12.4055319375L9.61501975,19.6980559375C8.92028275,20.8980559375,9.78618775,22.3999359375,11.17278375,22.3999359375L19.61679375,22.3999359375C21.00339375,22.3999359375,21.86929375,20.8980559375,21.17449375,19.6980559375L16.95254375,12.4055319375C16.25924375,11.2080189375,14.53030375,11.2080189375,13.83701375,12.4055319375ZM14.17187375,15.3566959375C14.17187375,14.7708359375,14.65013375,14.2958959375,15.24009375,14.2958959375C15.83006375,14.2958959375,16.30831375,14.7708359375,16.30831375,15.3566959375C16.30831375,15.3892059375,16.30831375,15.4531359375,16.25960375,15.6742159375L15.628533749999999,18.5390959375C15.628533749999999,18.7521359375,15.45462375,18.9248359375,15.24009375,18.9248359375C15.02556375,18.9248359375,14.85165375,18.7521359375,14.85165375,18.5390959375L14.22057375,15.6742059375C14.17187375,15.4531359375,14.17187375,15.3892059375,14.17187375,15.3566959375ZM16.01666375,20.4677759375Q16.01666375,20.543765937499998,16.00173375,20.618285937499998Q15.98680375,20.6928159375,15.95752375,20.7630159375Q15.92824375,20.8332159375,15.88573375,20.8963959375Q15.84322375,20.9595759375,15.78911375,21.0133059375Q15.73501375,21.067035937500002,15.67139375,21.1092459375Q15.60776375,21.1514659375,15.537073750000001,21.1805459375Q15.46638375,21.2096159375,15.391333750000001,21.2244459375Q15.31629375,21.2392659375,15.239773750000001,21.2392659375Q15.163263749999999,21.2392659375,15.088213750000001,21.2244459375Q15.01316375,21.2096159375,14.942473750000001,21.1805459375Q14.871783749999999,21.1514659375,14.80816375,21.1092459375Q14.74454375,21.067035937500002,14.69043375,21.0133059375Q14.63633375,20.9595759375,14.593813749999999,20.8963959375Q14.551303749999999,20.8332159375,14.522023749999999,20.7630159375Q14.492743749999999,20.6928159375,14.47781375,20.618285937499998Q14.46289375,20.543765937499998,14.46289375,20.4677759375Q14.46289375,20.3917959375,14.47781375,20.3172659375Q14.492743749999999,20.2427459375,14.522023749999999,20.1725459375Q14.551303749999999,20.1023359375,14.59382375,20.0391559375Q14.63633375,19.9759759375,14.69043375,19.922255937499997Q14.74454375,19.8685259375,14.80816375,19.826305937500003Q14.871783749999999,19.7840959375,14.942473750000001,19.755015937499998Q15.01316375,19.725935937499997,15.088213750000001,19.7111159375Q15.163263749999999,19.6962859375,15.239773750000001,19.6962859375Q15.31629375,19.6962859375,15.391333750000001,19.7111159375Q15.46638375,19.725935937499997,15.537073750000001,19.755015937499998Q15.60776375,19.7840959375,15.67139375,19.826305937500003Q15.73501375,19.8685259375,15.78911375,19.922255937499997Q15.84322375,19.9759759375,15.88573375,20.0391559375Q15.92824375,20.1023359375,15.95752375,20.1725459375Q15.98680375,20.2427459375,16.00173375,20.3172659375Q16.01666375,20.3917959375,16.01666375,20.4677759375Z" fill-rule="evenodd" fill="#232D42" fill-opacity="1"/></g></g></g></g></svg>