<svg xmlns="http://www.w3.org/2000/svg" xmlns:xlink="http://www.w3.org/1999/xlink" fill="none" version="1.1" width="24" height="24" viewBox="0 0 24 24"><defs><clipPath id="master_svg0_154_736"><rect x="0" y="0" width="24" height="24" rx="0"/></clipPath></defs><g><g clip-path="url(#master_svg0_154_736)"><rect x="0" y="0" width="24" height="24" rx="0" fill="#FFFFFF" fill-opacity="0"/><g><g><g><path d="M13,7.5Q13,7.67194,12.98315,7.8430599999999995Q12.96629,8.01418,12.93275,8.18282Q12.8992,8.35146,12.84929,8.516Q12.79938,8.68054,12.73358,8.83939Q12.66778,8.998249999999999,12.58672,9.14989Q12.50567,9.30153,12.41014,9.4445Q12.31462,9.58746,12.20554,9.720379999999999Q12.09646,9.853290000000001,11.97487,9.97487Q11.853290000000001,10.09646,11.720379999999999,10.20554Q11.58746,10.31462,11.4445,10.41014Q11.30153,10.50567,11.14989,10.58672Q10.998249999999999,10.66778,10.83939,10.73358Q10.68054,10.79938,10.516,10.84929Q10.35146,10.8992,10.18282,10.93275Q10.01418,10.96629,9.84306,10.98315Q9.67194,11,9.5,11Q9.32806,11,9.15694,10.98315Q8.98582,10.96629,8.81718,10.93275Q8.64854,10.8992,8.484,10.84929Q8.31946,10.79938,8.16061,10.73358Q8.00175,10.66778,7.85011,10.58672Q7.69847,10.50567,7.5555,10.41014Q7.41254,10.31462,7.2796199999999995,10.20554Q7.14671,10.09646,7.02513,9.97487Q6.903543,9.853290000000001,6.794463,9.720379999999999Q6.685383,9.58746,6.589856,9.4445Q6.4943290000000005,9.30153,6.413276,9.14989Q6.332222,8.998249999999999,6.266422,8.83939Q6.200622,8.68054,6.150709,8.516Q6.100796,8.35146,6.0672515,8.18282Q6.0337069,8.01418,6.0168535,7.8430599999999995Q6,7.67194,6,7.5Q6,7.32806,6.0168535,7.1569400000000005Q6.0337069,6.98582,6.0672515,6.8171800000000005Q6.100796,6.648540000000001,6.150709,6.484Q6.200622,6.319459999999999,6.266422,6.16061Q6.332222,6.0017499999999995,6.413276,5.85011Q6.4943290000000005,5.69847,6.589856,5.5555Q6.685383,5.41254,6.794463,5.2796199999999995Q6.903543,5.14671,7.02513,5.02513Q7.14671,4.903543,7.2796199999999995,4.794463Q7.41254,4.685383,7.5555,4.589856Q7.69847,4.4943290000000005,7.85011,4.413276Q8.00175,4.332222,8.16061,4.266422Q8.31946,4.200622,8.484,4.150709Q8.64854,4.100796,8.81718,4.0672515Q8.98582,4.0337069,9.15694,4.0168535Q9.32806,4,9.5,4Q9.67194,4,9.84306,4.0168535Q10.01418,4.0337069,10.18282,4.0672515Q10.35146,4.100796,10.516,4.150709Q10.68054,4.200622,10.83939,4.266422Q10.998249999999999,4.332222,11.14989,4.413276Q11.30153,4.4943290000000005,11.4445,4.589856Q11.58746,4.685383,11.720379999999999,4.794463Q11.853290000000001,4.903543,11.97487,5.02513Q12.09646,5.14671,12.20554,5.2796199999999995Q12.31462,5.41254,12.41014,5.5555Q12.50567,5.69847,12.58672,5.85011Q12.66778,6.0017499999999995,12.73358,6.16061Q12.79938,6.319459999999999,12.84929,6.484Q12.8992,6.648540000000001,12.93275,6.8171800000000005Q12.96629,6.98582,12.98315,7.1569400000000005Q13,7.32806,13,7.5Z" fill="#000000" fill-opacity="1"/></g><g><path d="M16.947326,4.776618Q18.17339,7.229,16.963234,10.188189999999999L16.962792,10.18927L16.962773,10.18932Q16.934585,10.25822,16.887545,10.31593Q16.840505,10.37363,16.778695,10.415130000000001Q16.716885,10.456620000000001,16.645666,10.47831Q16.5744478,10.5,16.5,10.5Q16.4507543,10.5,16.4024549,10.49039Q16.354155,10.48078,16.308658,10.46194Q16.263161,10.44309,16.222215,10.41573Q16.181269,10.38837,16.146447,10.35355Q16.111625,10.31873,16.084265,10.27778Q16.056906,10.23684,16.03806,10.19134Q16.019215,10.14584,16.009607,10.09755Q16,10.04925,16,10Q16,9.901679999999999,16.037226,9.81068L16.037429,9.81019Q17.076206,7.27051,16.052817,5.223669L16.052786,5.223607Q16,5.118035,16,5Q16,4.9507543,16.009607,4.9024549Q16.019215,4.854155,16.03806,4.808658Q16.056906,4.763161,16.084265,4.722215Q16.111625,4.681269,16.146447,4.646447Q16.181269,4.611625,16.222215,4.584265Q16.263161,4.556906,16.308658,4.53806Q16.354155,4.519215,16.4024549,4.509607Q16.4507543,4.5,16.5,4.5Q16.5696457,4.5,16.63664,4.519033Q16.703635,4.538066,16.762878,4.574682Q16.822121,4.611299,16.869103,4.662712Q16.916084,4.714125,16.947227,4.776419L16.947326,4.776618Z" fill-rule="evenodd" fill="#000000" fill-opacity="1"/></g><g><path d="M19.562921,3.242821Q19.5,3.129563,19.5,3Q19.5,2.9507543,19.509607,2.9024549Q19.519215,2.854155,19.53806,2.808658Q19.556906,2.763161,19.584265,2.722215Q19.611625,2.681269,19.646447,2.646447Q19.681269,2.611625,19.722215,2.584265Q19.763161,2.556906,19.808658,2.5380599999999998Q19.854155,2.519215,19.9024549,2.509607Q19.9507543,2.5,20,2.5Q20.0668757,2.5,20.131401,2.517575Q20.195926,2.53515,20.253564,2.569065Q20.311202,2.602979,20.357901,2.650849Q20.404601,2.698719,20.437079,2.757179Q22.80947,7.02748,20.455183,12.2069Q20.425389,12.27245,20.378309,12.32693Q20.33123,12.38141,20.270693,12.42039Q20.210155,12.45937,20.141079,12.47968Q20.0720022,12.5,20,12.5Q19.9507543,12.5,19.9024549,12.49039Q19.854155,12.48078,19.808658,12.46194Q19.763161,12.44309,19.722215,12.41573Q19.681269,12.38837,19.646447,12.35355Q19.611625,12.31873,19.584265,12.27778Q19.556906,12.23684,19.53806,12.19134Q19.519215,12.14584,19.509607,12.09754Q19.5,12.04924,19.5,12Q19.5,11.8917,19.544817,11.7931Q21.69053,7.07253,19.562921,3.242821Z" fill-rule="evenodd" fill="#000000" fill-opacity="1"/></g><g><path d="M2,21.4L2,22L17,22L17,21.4C17,19.1598,17,18.0397,16.5641,17.18405C16.180500000000002,16.4314,15.5686,15.81945,14.816,15.43595C13.9603,15,12.8402,15,10.6,15L8.4,15C6.1598,15,5.0397,15,4.1840399999999995,15.43595C3.43139,15.81945,2.819465,16.4314,2.435975,17.18405C2,18.0397,2,19.1598,2,21.4Z" fill="#000000" fill-opacity="1"/></g></g></g></g></g></svg>