<svg xmlns="http://www.w3.org/2000/svg" xmlns:xlink="http://www.w3.org/1999/xlink" fill="none" version="1.1" width="24" height="24" viewBox="0 0 24 24"><defs><clipPath id="master_svg0_720_03023"><rect x="0" y="0" width="24" height="24" rx="0"/></clipPath></defs><g clip-path="url(#master_svg0_720_03023)"><g><path d="M3.66976,21L20.3305,21C21.251,21,22,20.3362,22,19.520200000000003L22,7.71465C22,6.8985199999999995,21.251,6.23476,20.3302,6.23476L3.66976,6.23476C2.748964,6.23476,2,6.8985199999999995,2,7.71465L2,19.520200000000003C2,20.3362,2.748964,21,3.66976,21ZM16.606099999999998,8.93776L16.606099999999998,8.31357L17.3996,8.31357L17.3996,7.5389800000000005L18.0389,7.5389800000000005L18.0389,8.31357L18.8323,8.31357L18.8323,8.93776L18.0389,8.93776L18.0389,9.71236L17.3996,9.71236L17.3996,8.93776L16.606099999999998,8.93776ZM7.02294,16.858800000000002L10.63514,10.165420000000001L14.5974,10.165420000000001L10.63514,14.7582L14.9379,13.87888L9.76244,19.5699L11.10664,16.221L7.02294,16.858800000000002ZM4.99519,8.31357L7.22576,8.31357L7.22576,8.93776L4.99519,8.93776L4.99519,8.31357ZM4.54324,4.657153L4.54324,5.4456299999999995C4.54324,5.80934,4.84435,6.1052800000000005,5.214449999999999,6.1052800000000005L7.17444,6.1052800000000005C7.54742,6.10486,7.84967,5.80977,7.8501,5.4456299999999995L7.8501,4.657153C7.8501,4.309491,7.57286,4.0245077,7.22298,4L5.16613,4C4.81858,4.0243993,4.54324,4.309491,4.54324,4.657153ZM15.9491,4.657153L15.9491,5.4456299999999995C15.9491,5.80934,16.2501,6.1052800000000005,16.6201,6.1052800000000005L18.5848,6.1052800000000005C18.9549,6.1052800000000005,19.2557,5.80934,19.2557,5.4456299999999995L19.2557,4.657153C19.2557,4.309491,18.9806,4.0245077,18.6333,4L16.5718,4C16.2245,4.0243993,15.9491,4.309491,15.9491,4.657153Z" fill="#232D42" fill-opacity="1"/></g></g></svg>