<svg xmlns="http://www.w3.org/2000/svg" xmlns:xlink="http://www.w3.org/1999/xlink" fill="none" version="1.1" width="24" height="24" viewBox="0 0 24 24"><defs><clipPath id="master_svg0_720_03026"><rect x="0" y="0" width="24" height="24" rx="0"/></clipPath></defs><g><g clip-path="url(#master_svg0_720_03026)"><g><g><path d="M18.619551109886167,6.49861C14.75135110988617,3.42952,9.225311109886169,3.42952,5.3570811098861695,6.49861C4.910751109886169,6.85597,4.251878109886169,6.81392,3.8693061098861694,6.41452C3.4442261098861695,5.9520599999999995,3.4867341098861693,5.23734,3.9755761098861693,4.83794C8.65145110988617,1.075159,15.36775110988617,1.0541390000000002,20.06485110988617,4.77488C20.59615110988617,5.1953,20.61745110988617,5.9730799999999995,20.149851109886168,6.43554C19.72475110988617,6.83494,19.06595110988617,6.85597,18.619551109886167,6.49861Z" fill="#232D42" fill-opacity="1"/></g><g><path d="M16.4527,10.2401805128479C13.8172,8.2852205128479,10.16153,8.2852205128479,7.52604,10.2401805128479C7.0797,10.5765205128479,6.44208,10.5344805128479,6.05951,10.1350705128479C5.59192,9.6515905128479,5.65569,8.8738105128479,6.18703,8.4744105128479C9.60893,5.930852512847901,14.3486,5.930852512847901,17.7917,8.4744105128479C18.3231,8.8738105128479,18.4081,9.6515905128479,17.9192,10.1350705128479C17.5367,10.5555005128479,16.899,10.5765205128479,16.4527,10.2401805128479ZM20.8735,12.5735205128479L3.10521,12.5735205128479C2.807652,12.5735205128479,2.5313499999999998,12.6996505128479,2.31881,12.8888405128479C2.10627,13.0990505128479,2,13.372330512847899,2,13.6666205128479L2,21.9069405128479C2,22.5165405128479,2.488842,23.0000405128479,3.10521,23.0000405128479L20.8948,23.0000405128479C21.1924,23.0000405128479,21.4687,22.8738405128479,21.6812,22.6846405128479C21.8937,22.4744405128479,22,22.2012405128479,22,21.9069405128479L22,13.6666205128479C22,13.372330512847899,21.8725,13.0990505128479,21.6812,12.8888405128479C21.4687,12.6996505128479,21.1711,12.5735205128479,20.8735,12.5735205128479ZM8.445509999999999,17.3277405128479Q8.445509999999999,17.4353405128479,8.43485,17.5423405128479Q8.42419,17.649440512847903,8.40297,17.754940512847902Q8.38175,17.8604405128479,8.35018,17.9633405128479Q8.31861,18.0663405128479,8.27698,18.1657405128479Q8.23536,18.2650405128479,8.184090000000001,18.3599405128479Q8.132819999999999,18.454840512847902,8.07239,18.5442405128479Q8.01196,18.6337405128479,7.94296,18.716840512847902Q7.87396,18.8000405128479,7.79706,18.8761405128479Q7.72015,18.9521405128479,7.63607,19.020440512847898Q7.55199,19.088640512847903,7.46156,19.1484405128479Q7.37112,19.2081405128479,7.2752,19.2588405128479Q7.17928,19.3096405128479,7.07879,19.3507405128479Q6.97831,19.391940512847903,6.87422,19.4231405128479Q6.77014,19.4543405128479,6.66347,19.4753405128479Q6.55679,19.4963405128479,6.44855,19.5069405128479Q6.34031,19.517440512847898,6.23154,19.517440512847898Q6.12278,19.517440512847898,6.01454,19.5069405128479Q5.9063,19.4963405128479,5.79962,19.4753405128479Q5.69295,19.4543405128479,5.58886,19.4231405128479Q5.484780000000001,19.391940512847903,5.3843,19.3507405128479Q5.28381,19.3096405128479,5.1878899999999994,19.2588405128479Q5.09197,19.2081405128479,5.00153,19.1484405128479Q4.911099999999999,19.088640512847903,4.82702,19.020440512847898Q4.74294,18.9521405128479,4.66603,18.8761405128479Q4.58913,18.8000405128479,4.52013,18.716840512847902Q4.45113,18.6337405128479,4.3907,18.5442405128479Q4.3302700000000005,18.454840512847902,4.279,18.3599405128479Q4.22773,18.2650405128479,4.18611,18.1657405128479Q4.14448,18.0663405128479,4.112909999999999,17.9633405128479Q4.08134,17.8604405128479,4.0601199999999995,17.754940512847902Q4.0389,17.649440512847903,4.02824,17.5423405128479Q4.017580000000001,17.4353405128479,4.017580000000001,17.3277405128479Q4.017580000000001,17.220140512847898,4.02824,17.1131405128479Q4.0389,17.0060405128479,4.0601199999999995,16.9005405128479Q4.08134,16.7950405128479,4.112909999999999,16.6921405128479Q4.14448,16.589140512847898,4.18611,16.4897705128479Q4.22773,16.3903905128479,4.279,16.2955205128479Q4.3302700000000005,16.2006405128479,4.3907,16.1112005128479Q4.45113,16.021760512847898,4.52013,15.9386005128479Q4.58913,15.8554505128479,4.66603,15.7793805128479Q4.74294,15.703310512847901,4.82702,15.6350705128479Q4.911099999999999,15.5668305128479,5.00153,15.5070605128479Q5.09197,15.4473005128479,5.1878899999999994,15.3965905128479Q5.28381,15.3458805128479,5.3843,15.304710512847901Q5.484780000000001,15.2635405128479,5.58886,15.2323205128479Q5.69295,15.2010905128479,5.79962,15.1801005128479Q5.9063,15.1591205128479,6.01454,15.1485705128479Q6.12278,15.1380305128479,6.23154,15.1380305128479Q6.34031,15.1380305128479,6.44855,15.1485705128479Q6.55679,15.1591205128479,6.66347,15.1801005128479Q6.77014,15.2010905128479,6.87422,15.2323205128479Q6.97831,15.2635405128479,7.07879,15.304710512847901Q7.17928,15.3458805128479,7.2752,15.3965905128479Q7.37112,15.4473005128479,7.46156,15.5070605128479Q7.55199,15.5668305128479,7.63607,15.6350705128479Q7.72015,15.703310512847901,7.79706,15.7793805128479Q7.87396,15.8554505128479,7.94296,15.9386005128479Q8.01196,16.021760512847898,8.07239,16.1112005128479Q8.132819999999999,16.2006405128479,8.184090000000001,16.2955205128479Q8.23536,16.3903905128479,8.27698,16.4897705128479Q8.31861,16.589140512847898,8.35018,16.6921405128479Q8.38175,16.7950405128479,8.40297,16.9005405128479Q8.42419,17.0060405128479,8.43485,17.1131405128479Q8.445509999999999,17.220140512847898,8.445509999999999,17.3277405128479ZM12.0927,16.0140105128479Q12.0064,16.0140105128479,11.9218,16.030840512847902Q11.83719,16.0476705128479,11.75749,16.0806805128479Q11.67779,16.113690512847903,11.60606,16.1616205128479Q11.53434,16.2095505128479,11.47334,16.2705505128479Q11.41234,16.3315505128479,11.36441,16.4032705128479Q11.31648,16.4750005128479,11.28347,16.5547005128479Q11.25045,16.634440512847902,11.23363,16.7190405128479Q11.2168,16.8036405128479,11.2168,16.8898405128479Q11.2168,16.9761405128479,11.23363,17.0607405128479Q11.25045,17.145340512847902,11.28347,17.2250405128479Q11.31648,17.3047405128479,11.36441,17.3765405128479Q11.41234,17.448240512847903,11.47334,17.509240512847903Q11.53434,17.570240512847903,11.60606,17.6181405128479Q11.67779,17.6660405128479,11.75749,17.6991405128479Q11.83719,17.7321405128479,11.9218,17.748940512847902Q12.0064,17.7657405128479,12.0927,17.7657405128479L19.1968,17.7657405128479Q19.283,17.7657405128479,19.3677,17.748940512847902Q19.4523,17.7321405128479,19.532,17.6991405128479Q19.6117,17.6660405128479,19.6834,17.6181405128479Q19.7551,17.570240512847903,19.8161,17.509240512847903Q19.8771,17.448240512847903,19.925,17.3765405128479Q19.973,17.3047405128479,20.006,17.2250405128479Q20.039,17.145340512847902,20.0558,17.0607405128479Q20.0727,16.9761405128479,20.0727,16.8898405128479Q20.0727,16.8036405128479,20.0558,16.7190405128479Q20.039,16.634440512847902,20.006,16.5547005128479Q19.973,16.4750005128479,19.925,16.4032705128479Q19.8771,16.3315505128479,19.8161,16.2705505128479Q19.7551,16.2095505128479,19.6834,16.1616205128479Q19.6117,16.113690512847903,19.532,16.0806805128479Q19.4523,16.0476705128479,19.3677,16.030840512847902Q19.283,16.0140105128479,19.1968,16.0140105128479L12.0927,16.0140105128479Z" fill-rule="evenodd" fill="#232D42" fill-opacity="1"/></g></g></g></g></svg>