<svg xmlns="http://www.w3.org/2000/svg" xmlns:xlink="http://www.w3.org/1999/xlink" fill="none" version="1.1" width="24" height="24" viewBox="0 0 24 24"><defs><clipPath id="master_svg0_720_03034"><rect x="0" y="0" width="24" height="24" rx="0"/></clipPath></defs><g><g clip-path="url(#master_svg0_720_03034)"><g><g><path d="M16.3136,12.46241C16.453,12.41761,16.5987,12.39479,16.7453,12.39479C17.317,12.39479,17.8265,12.73778,18.0403,13.257C18.2536,12.73807,18.7635,12.39479,19.3357,12.39479C19.4832,12.39479,19.6292,12.41782,19.7696,12.46325L19.773,12.46436C19.8492,12.4894,19.9249,12.51609,20,12.5444L20,4.67282C20,3.7845269999999998,19.2719,3.0618644,18.377,3.0618644L16.3562,3.0618644C15.4612,3.0618644,14.7332,3.7845269999999998,14.7332,4.67282L14.7332,13.28C15.2116,12.92389,15.7393,12.65011,16.3076,12.46433L16.3136,12.46241ZM12.6405,18.7258C12.5663,18.368000000000002,12.5287,17.999000000000002,12.5287,17.6289C12.5287,17.258499999999998,12.5664,16.8891,12.6408,16.531C12.7142,16.176000000000002,12.9311,15.8567,13.2361,15.6547L13.2485,15.6466C13.4138,15.5402,13.6,15.4696,13.7947,15.4397L13.7947,5.29483C13.7947,4.02946,12.7575,3,11.4827,3C11.30844,3,11.13398,3.0196656,10.96411,3.0584777L3.79332,4.69698C3.28571,4.81299,2.827465,5.09967,2.503066,5.50422C2.1786659999999998,5.90878,2,6.41636,2,6.933450000000001L2,17.2009C2,17.7255,2.18328,18.2387,2.516089,18.6462C2.848898,19.0536,3.3169399999999998,19.3377,3.83398,19.4461L11.00477,20.9502C11.16206,20.9833,11.32238,20.9999,11.48316,21C12.3498,21,13.1465,20.5124,13.5395,19.7531C13.4357,19.7163,13.3365,19.6674,13.2442,19.6074C12.9345,19.4064,12.7146,19.0854,12.6405,18.7258ZM9.290790000000001,13.9097C8.9113,13.9097,8.595379999999999,13.6034,8.58661,13.2269L8.586400000000001,13.2119L8.586400000000001,10.69059C8.586400000000001,10.30499,8.90239,9.99127,9.29082,9.99127C9.67042,9.99127,9.98632,10.29759,9.995000000000001,10.67408L9.99521,10.68898L9.99523,13.2104C9.99521,13.596,9.67922,13.9097,9.290790000000001,13.9097Z" fill="#232D42" fill-opacity="1"/></g><g><path d="M21.91894,16.15168C21.90679,16.08851,21.87046,16.03324,21.82011,15.997720000000001C21.76916,15.9626,21.70718,15.95018,21.64763,15.96316C21.5786,15.97808,21.50834,15.98568,21.43788,15.98586C21.06687,15.98586,20.73592,15.786480000000001,20.55232,15.45189C20.33326,15.053139999999999,20.383589999999998,14.55183,20.67536,14.20242C20.759430000000002,14.10291,20.75063,13.949874,20.65577,13.861898C20.24472,13.477948,19.77489,13.191733,19.25936,13.0121427C19.13911,12.9706975,19.00861,13.038788,18.968510000000002,13.165087C18.82778,13.607247,18.439059999999998,13.904358,18,13.904358C17.56095,13.904358,17.17218,13.607269,17.03145,13.165087C16.99135,13.0387871,16.86181,12.9706751,16.7406,13.0121427C16.22513,13.191755,15.75531,13.477969,15.34419,13.861898C15.24934,13.94988,15.24054,14.10291,15.324629999999999,14.20242C15.61735,14.5518,15.66673,15.053139999999999,15.44765,15.45189C15.26494,15.786480000000001,14.93307,15.98586,14.562075,15.98586C14.49216,15.98586,14.421348,15.97794,14.352329,15.96316C14.292705,15.95034,14.230268,15.96316,14.179914,15.997720000000001C14.129581,16.03324,14.0932074,16.08851,14.0811031,16.15168C14.0270203,16.42903,14,16.71423,14,16.99948C14,17.28472,14.0270414,17.56992,14.0811031,17.84727C14.0932074,17.91044,14.129581,17.96571,14.179914,18.00028C14.23084,18.0354,14.292801,18.04782,14.352329,18.03484C14.421355,18.0199,14.49162,18.0123,14.562075,18.01215C14.93309,18.01215,15.26402,18.21146,15.44765,18.54606C15.66673,18.94482,15.617329999999999,19.4462,15.324629999999999,19.79559C15.24073,19.89524,15.24911,20.04825,15.34419,20.13606C15.75531,20.52001,16.22513,20.80623,16.7406,20.98588C16.76485,20.9938,16.78908,20.99775,16.81333,20.99775C16.90933,20.99775,16.999769999999998,20.93356,17.03145,20.83289C17.17218,20.39272,17.56186,20.09565,18,20.09565C18.4381,20.09565,18.82778,20.392699999999998,18.968510000000002,20.83486C19.00861,20.96122,19.13911,21.029310000000002,19.25936,20.98787C19.77489,20.80821,20.24472,20.52202,20.65577,20.13807C20.75063,20.0501,20.759430000000002,19.89709,20.67536,19.79759C20.38269,19.4482,20.33326,18.94682,20.55232,18.548090000000002C20.73502,18.21351,21.06687,18.01413,21.43788,18.01413C21.5078,18.01413,21.57861,18.02205,21.64763,18.03687C21.70634,18.04969,21.769750000000002,18.03784,21.82011,18.00231C21.870440000000002,17.96675,21.90677,17.91249,21.91894,17.8493C21.97296,17.57197,22,17.28574,22,17.0015C22,16.71423,21.97296,16.42903,21.91894,16.15168ZM18.00002,18.54112C17.18997,18.54112,16.53369,17.851219999999998,16.53369,17.00049C16.53369,16.14972,17.18995,15.459810000000001,18.00002,15.459810000000001C18.81009,15.459810000000001,19.46635,16.14972,19.46635,17.00049C19.46635,17.85119,18.81009,18.54112,18.00002,18.54112Z" fill="#232D42" fill-opacity="1"/></g></g></g></g></svg>