<svg xmlns="http://www.w3.org/2000/svg" xmlns:xlink="http://www.w3.org/1999/xlink" fill="none" version="1.1" width="24" height="24" viewBox="0 0 24 24"><g><g><g><g style="opacity:0;"><path d="M0,0C0,0,24,0,24,0C24,0,24,24,24,24C24,24,0,24,0,24C0,24,0,0,0,0Z" fill="#FFFFFF" fill-opacity="1"/></g><g><g><path d="M15.000000515136719,22.749999771118162C14.73000051513672,22.749999771118162,14.48000051513672,22.599999771118163,14.350000615136718,22.369999771118167C14.220000615136719,22.129999771118165,14.219999915136718,21.849999771118163,14.35999951513672,21.609999771118165C14.35999951513672,21.609999771118165,15.40999551513672,19.859999771118165,15.40999551513672,19.859999771118165C15.619995515136718,19.509999771118164,16.08000551513672,19.389999771118163,16.44000551513672,19.599999771118163C16.800005515136718,19.809999771118164,16.910005515136717,20.269999771118165,16.70000551513672,20.629999771118165C16.70000551513672,20.629999771118165,16.43000551513672,21.079999771118164,16.43000551513672,21.079999771118164C19.19000551513672,20.429999771118165,21.25999551513672,17.949999771118165,21.25999551513672,14.989999771118164C21.25999551513672,14.579999771118164,21.59999551513672,14.239999771118164,22.00999551513672,14.239999771118164C22.41999551513672,14.239999771118164,22.75999551513672,14.579999771118164,22.75999551513672,14.989999771118164C22.749995515136717,19.269999771118165,19.26999551513672,22.749999771118162,15.000000515136719,22.749999771118162Z" fill="#FFFFFF" fill-opacity="1"/></g></g><g><g><path d="M2,9.75C1.59,9.75,1.25,9.41,1.25,9C1.25,4.73,4.73,1.25,9,1.25C9.27,1.25,9.52,1.4,9.65,1.63C9.78,1.87,9.78,2.15,9.64,2.3899999999999997C9.64,2.3899999999999997,8.59,4.140000000000001,8.59,4.140000000000001C8.379999999999999,4.49,7.92,4.609999999999999,7.56,4.390000000000001C7.21,4.18,7.09,3.72,7.31,3.36C7.31,3.36,7.58,2.91,7.58,2.91C4.8100000000000005,3.56,2.75,6.04,2.75,9C2.75,9.41,2.41,9.75,2,9.75Z" fill="#FFFFFF" fill-opacity="1"/></g></g><g><path d="M16.39999984741211,8.210000038146973C16.39999984741211,8.210000038146973,12.63999984741211,6.180000038146972,12.63999984741211,6.180000038146972C12.23999984741211,5.970000038146972,11.769999847412109,5.970000038146972,11.36999984741211,6.180000038146972C11.36999984741211,6.180000038146972,7.59999984741211,8.210000038146973,7.59999984741211,8.210000038146973C7.329999847412109,8.360000038146973,7.159999847412109,8.650000038146972,7.159999847412109,8.970000038146972C7.159999847412109,9.300000038146973,7.329999847412109,9.590000038146972,7.59999984741211,9.740000038146972C7.59999984741211,9.740000038146972,11.359999847412109,11.770000038146971,11.359999847412109,11.770000038146971C11.55999984741211,11.880000038146973,11.77999984741211,11.930000038146972,11.99999984741211,11.930000038146972C12.219999847412108,11.930000038146972,12.43999984741211,11.880000038146973,12.63999984741211,11.770000038146971C12.63999984741211,11.770000038146971,16.39999984741211,9.740000038146972,16.39999984741211,9.740000038146972C16.669999847412107,9.590000038146972,16.83999984741211,9.300000038146973,16.83999984741211,8.970000038146972C16.83999984741211,8.650000038146972,16.669999847412107,8.360000038146973,16.39999984741211,8.210000038146973Z" fill="#FFFFFF" fill-opacity="1"/></g><g><path d="M10.74,12.470001665649415C10.74,12.470001665649415,7.24,10.720000665649414,7.24,10.720000665649414C6.97,10.590000665649415,6.66,10.600000665649414,6.4,10.760000665649414C6.15,10.920000665649415,6,11.190000665649414,6,11.490000665649415C6,11.490000665649415,6,14.800001665649415,6,14.800001665649415C6,15.370001665649415,6.32,15.890001665649415,6.83,16.140001665649415C6.83,16.140001665649415,10.33,17.890001665649415,10.33,17.890001665649415C10.45,17.950001665649413,10.58,17.980001665649414,10.719999999999999,17.980001665649414C10.879999999999999,17.980001665649414,11.030000000000001,17.940001665649415,11.17,17.850001665649415C11.43,17.690001665649415,11.58,17.420001665649416,11.58,17.120001665649415C11.58,17.120001665649415,11.58,13.810001665649414,11.58,13.810001665649414C11.57,13.240001665649414,11.26,12.730001665649414,10.74,12.470001665649415Z" fill="#FFFFFF" fill-opacity="1"/></g><g><path d="M17.590000076293947,10.760000665649414C17.330000076293945,10.600000665649414,17.020000076293947,10.590000665649415,16.750000076293944,10.720000665649414C16.750000076293944,10.720000665649414,13.250000076293945,12.470001665649415,13.250000076293945,12.470001665649415C12.740000076293946,12.730001665649414,12.420000076293945,13.240001665649414,12.420000076293945,13.810001665649414C12.420000076293945,13.810001665649414,12.420000076293945,17.120001665649415,12.420000076293945,17.120001665649415C12.420000076293945,17.420001665649416,12.570000076293946,17.690001665649415,12.830000076293945,17.850001665649415C12.970000076293946,17.940001665649415,13.120000076293945,17.980001665649414,13.280000076293945,17.980001665649414C13.410000076293946,17.980001665649414,13.540000076293946,17.950001665649413,13.670000076293945,17.890001665649415C13.670000076293945,17.890001665649415,17.170000076293945,16.140001665649415,17.170000076293945,16.140001665649415C17.680000076293943,15.880001665649413,18.000000076293944,15.370001665649415,18.000000076293944,14.800001665649415C18.000000076293944,14.800001665649415,18.000000076293944,11.490000665649415,18.000000076293944,11.490000665649415C18.000000076293944,11.190000665649414,17.850000076293945,10.920000665649415,17.590000076293947,10.760000665649414Z" fill="#FFFFFF" fill-opacity="1"/></g></g></g></g></svg>