<svg xmlns="http://www.w3.org/2000/svg" xmlns:xlink="http://www.w3.org/1999/xlink" fill="none" version="1.1" width="24" height="24" viewBox="0 0 24 24"><g><g><g transform="matrix(-1,0,0,-1,48,48)" style="opacity:0;"></g><g><g><path d="M22,12C22,3.7649999999999997,20.235,2,12,2C3.7649999999999997,2,2,3.7649999999999997,2,12C3.66667,20.3333,12,22,12,22C12,22,20.3333,20.3333,22,12ZM13.3952,13.0318C15.1963,13.0318,16.656399999999998,11.57176,16.656399999999998,9.770679999999999C16.656399999999998,9.219899999999999,16.5199,8.700990000000001,16.2788,8.24598L14.2105,10.31421L12.8517,8.955390000000001L14.92,6.88716C14.4649,6.64607,13.946,6.50952,13.3952,6.50952C11.59414,6.50952,10.13405,7.96959,10.13405,9.770679999999999C10.13405,10.32146,10.27061,10.84037,10.5117,11.29538L8.06393,13.7423C7.68859,14.1175,7.68854,14.726,8.06381,15.1012C8.439,15.4764,9.047270000000001,15.4765,9.422509999999999,15.1013L11.87053,12.6542C12.3255,12.8953,12.8445,13.0318,13.3952,13.0318Z" fill-rule="evenodd" fill="#000000" fill-opacity="1"/></g></g></g></g></svg>