<svg xmlns="http://www.w3.org/2000/svg" xmlns:xlink="http://www.w3.org/1999/xlink" fill="none" version="1.1" width="24" height="24" viewBox="0 0 24 24"><defs><clipPath id="master_svg0_638_02700"><rect x="0" y="0" width="24" height="24" rx="0"/></clipPath><clipPath id="master_svg1_638_02704"><rect x="2" y="2" width="20" height="20" rx="0"/></clipPath></defs><g><g clip-path="url(#master_svg0_638_02700)"><rect x="0" y="0" width="24" height="24" rx="0" fill="#FFFFFF" fill-opacity="0"/><g><g clip-path="url(#master_svg1_638_02704)"><g><path d="M12.625,21.5L12.625,17.375L15.125,17.375C15.5,17.375,15.75,17.125,15.75,16.75C15.75,16.375,15.5,16.125,15.125,16.125L12.625,16.125L12.625,14.25L15.125,14.25C15.5,14.25,15.75,14,15.75,13.625C15.75,13.25,15.5,13,15.125,13L13,13L14.5,11.5C14.75,11.25,14.75,10.875,14.5,10.625C14.375,10.5,14.25,10.5,14,10.5C13.875,10.5,13.75,10.5,13.625,10.625L12.125,12.125L10.625,10.625C10.5,10.5,10.375,10.5,10.25,10.5C10,10.5,9.875,10.5,9.75,10.625C9.5,10.875,9.5,11.25,9.75,11.5L11.25,13L8.875,13C8.5,13,8.25,13.25,8.25,13.625C8.25,14,8.5,14.25,8.875,14.25L11.375,14.25L11.375,16.125L8.875,16.125C8.5,16.125,8.25,16.375,8.25,16.75C8.25,17.125,8.5,17.375,8.875,17.375L11.375,17.375L11.375,21.5L5.75,21.5C4.75,21.5,3.875,20.625,3.875,19.625L3.875,12L3.5,12C2.625,12,2,11.25,2,10.5L2,10.25C2,9.625,2.25,9,2.875,8.625L11,3C11.625,2.5,12.5,2.5,13.125,3L21.25,8.625C21.75,9,22,9.625,22,10.25L22,10.5C22,11.25,21.375,12,20.5,12L20.125,12L20.125,19.625C20.125,20.625,19.25,21.5,18.25,21.5L12.625,21.5Z" fill="#232D42" fill-opacity="1"/></g></g></g></g></g></svg>