<svg xmlns="http://www.w3.org/2000/svg" xmlns:xlink="http://www.w3.org/1999/xlink" fill="none" version="1.1" width="24" height="24" viewBox="0 0 24 24"><defs><clipPath id="master_svg0_742_02793"><rect x="0" y="0" width="24" height="24" rx="0"/></clipPath></defs><g><g clip-path="url(#master_svg0_742_02793)"><g><path d="M13.0833,16.9167C12,17.125,10.79167,17.25,9.41667,17.25C5.375,17.2917,2.000000762939,16,2.000000762939,14.3333L2.000000762939,17.8333C2.000000762939,19.5,5.375,20.7917,9.5,20.7917C11.04167,20.7917,12.4583,20.5833,13.625,20.2917C13.2083,19.5,13.0417,18.625,13.0417,17.7083C13,17.5,13.0833,17.2083,13.0833,16.9167ZM9.5,10.25C13.625,10.25,17,8.95833,17,7.29167L17,4.95833C17,3.29167,13.625,2,9.5,2C5.375,2,2,3.29167,2,4.95833L2,7.33333C2,8.875,5.375,10.25,9.5,10.25ZM9.5,15.5C11.04167,15.5,12.5417,15.2917,13.75,15C14.4167,13.7083,15.5833,12.75,17,12.4167L17,9.04167C17,10.70833,13.625,12,9.5,12C5.375,12,2,10.66667,2,9.04167L2,12.5417C2,14.2083,5.375,15.5,9.5,15.5ZM17.8333,13.125C15.5417,13.125,13.6667,15.125,13.6667,17.5417C13.6667,20,15.5417,22,17.8333,22C20.125,22,22,20,22,17.5833C22,15.125,20.125,13.125,17.8333,13.125ZM19.625,18.8333L17.8333,18.8333C17.5,18.8333,17.25,18.5417,17.25,18.2083L17.25,16.2917C17.25,15.9583,17.5,15.6667,17.8333,15.6667C18.1667,15.6667,18.4167,15.9583,18.4167,16.2917L18.4167,17.5417L19.625,17.5417C19.9583,17.5417,20.2083,17.8333,20.2083,18.1667C20.2083,18.5417,19.9583,18.8333,19.625,18.8333Z" fill="#232D42" fill-opacity="1"/></g></g></g></svg>