<svg xmlns="http://www.w3.org/2000/svg" xmlns:xlink="http://www.w3.org/1999/xlink" fill="none" version="1.1" width="24" height="24" viewBox="0 0 24 24"><defs><clipPath id="master_svg0_697_02690"><rect x="0" y="0" width="24" height="24" rx="0"/></clipPath><clipPath id="master_svg1_691_02710"><rect x="2" y="2" width="20" height="20" rx="0"/></clipPath></defs><g><g clip-path="url(#master_svg0_697_02690)"><rect x="0" y="0" width="24" height="24" rx="0" fill="#FFFFFF" fill-opacity="0"/><g><g clip-path="url(#master_svg1_691_02710)"><g><path d="M21.57133872089386,9.881070000000001L18.87583872089386,7.53419L18.87583872089386,3.8641300000000003C18.87623872089386,3,17.99923872089386,3,17.49923872089386,3C16.99923872089386,3,16.40353872089386,3.5,16.402738720893858,3.9639100000000003L16.402738720893858,5.31218L13.58263872089386,2.840512Q11.92690872089386,1.159488,10.34243872089386,2.840512Q4.91757872089386,7.60865,3.0954887208938597,9.18205Q0.9948487208938599,10.9963,3.01878572089386,12.0225L4.9992587208938595,12L4.9992587208938595,16L3.2442087208938597,17.8201Q2.05692972089386,19.5678,3.56579872089386,20.9911Q5.69279872089386,23.1381,7.69615872089386,20.7162L17.98533872089386,20.7162Q18.85133872089386,20.5917,18.99913872089386,19.4433L18.99923872089386,12L21.44773872089386,11.90358Q22.48663872089386,10.92969,21.57133872089386,9.881070000000001ZM6.5711887208938595,20.4482Q5.59428872089386,21.6338,4.41942872089386,20.4482Q3.45490872089386,19.5737,4.41942872089386,18.5001L9.11890872089386,13.7566Q8.69973872089386,9.72466,12.55683872089386,9.894210000000001L12.63123872089386,10.61102L11.24592872089386,11.93392L12.97723872089386,13.7816L14.56023872089386,12.333L15.25173872089386,12.4828Q15.57493872089386,16.3527,11.245328720893859,15.8533L6.5711887208938595,20.4482L6.5711887208938595,20.4482Z" fill="#232D42" fill-opacity="1"/></g></g></g></g></g></svg>