<svg xmlns="http://www.w3.org/2000/svg" xmlns:xlink="http://www.w3.org/1999/xlink" fill="none" version="1.1" width="24" height="24" viewBox="0 0 24 24"><defs><clipPath id="master_svg0_24_0631"><rect x="0" y="0" width="24" height="24" rx="0"/></clipPath></defs><g clip-path="url(#master_svg0_24_0631)"><g><rect x="0" y="0" width="24" height="24" rx="0" fill="#FFFFFF" fill-opacity="0"/></g><g><g><path d="M6.974903106689453,12.444442328186035C6.974903106689453,9.836452328186034,9.140183106689452,7.722222328186035,11.811143106689453,7.722222328186035C14.482103106689454,7.722222328186035,16.647383106689453,9.836452328186034,16.647383106689453,12.444442328186035L16.647383106689453,20.000022328186034L6.974903106689453,20.000022328186034L6.974903106689453,12.444442328186035Z" fill="#000000" fill-opacity="1"/><path d="M5.974903106689453,12.444442328186035L5.974903106689453,20.000022328186034Q5.974903106689453,20.098522328186036,5.994118106689453,20.195122328186034Q6.013333106689453,20.291722328186033,6.051024106689453,20.382722328186034Q6.088715106689453,20.473722328186035,6.143433106689453,20.555522328186036Q6.198152106689453,20.637422328186034,6.267796106689453,20.707122328186035Q6.337440106689453,20.776722328186036,6.419333106689453,20.831422328186036Q6.5012251066894535,20.886222328186037,6.592220106689453,20.923922328186038Q6.683214106689453,20.961522328186035,6.779813106689453,20.980822328186036Q6.876411706689453,21.000022328186034,6.974903106689453,21.000022328186034L16.647383106689453,21.000022328186034Q16.74587310668945,21.000022328186034,16.842473106689454,20.980822328186036Q16.939073106689452,20.961522328186035,17.030103106689452,20.923922328186038Q17.121103106689453,20.886222328186037,17.20300310668945,20.831422328186036Q17.284803106689452,20.776722328186036,17.354503106689453,20.707122328186035Q17.42410310668945,20.637422328186034,17.478803106689455,20.555522328186036Q17.533603106689455,20.473722328186035,17.571303106689452,20.382722328186034Q17.609003106689453,20.291722328186033,17.628203106689455,20.195122328186034Q17.647403106689453,20.098522328186036,17.647403106689453,20.000022328186034L17.647403106689453,12.444442328186035Q17.647403106689453,10.067232328186035,15.929493106689453,8.389847328186034Q14.221603106689454,6.722222328186035,11.811143106689453,6.722222328186035Q9.400683106689453,6.722222328186035,7.692791106689453,8.389847328186034Q5.974903106689453,10.067232328186035,5.974903106689453,12.444442328186035ZM7.974903106689453,19.000022328186034L15.647383106689453,19.000022328186034L15.647383106689453,12.444442328186035Q15.647383106689453,10.909672328186035,14.532253106689453,9.820832328186036Q13.407123106689454,8.722222328186035,11.811143106689453,8.722222328186035Q10.215163106689452,8.722222328186035,9.090033106689454,9.820832328186036Q7.974903106689453,10.909672328186035,7.974903106689453,12.444442328186035L7.974903106689453,19.000022328186034Z" fill-rule="evenodd" fill="#000000" fill-opacity="1"/></g><g><path d="M10.81114387512207,3L10.81114387512207,4.41667Q10.81114387512207,4.51516,10.83035887512207,4.61176Q10.84957387512207,4.70836,10.88726487512207,4.7993500000000004Q10.92495587512207,4.89034,10.97967387512207,4.97224Q11.03439287512207,5.05413,11.10403687512207,5.12377Q11.17368087512207,5.19342,11.25557387512207,5.248139999999999Q11.33746587512207,5.302849999999999,11.42846087512207,5.34055Q11.51945487512207,5.37824,11.61605387512207,5.39745Q11.71265247512207,5.41667,11.81114387512207,5.41667Q11.90963527512207,5.41667,12.00623387512207,5.39745Q12.10283287512207,5.37824,12.19382687512207,5.34055Q12.28482187512207,5.302849999999999,12.36671387512207,5.248139999999999Q12.44860687512207,5.19342,12.518250875122071,5.12377Q12.587894875122071,5.05413,12.64261387512207,4.97224Q12.697331875122071,4.89034,12.73502287512207,4.7993500000000004Q12.77271387512207,4.70836,12.791928875122071,4.61176Q12.81114387512207,4.51516,12.81114387512207,4.41667L12.81114387512207,3Q12.81114387512207,2.9015086,12.791928875122071,2.80491Q12.77271387512207,2.708311,12.73502287512207,2.617317Q12.697331875122071,2.526322,12.64261387512207,2.44443Q12.587894875122071,2.362537,12.518250875122071,2.292893Q12.44860687512207,2.223249,12.36671387512207,2.16853Q12.28482187512207,2.1138120000000002,12.19382687512207,2.076121Q12.10283287512207,2.03843,12.00623387512207,2.019215Q11.90963527512207,2,11.81114387512207,2Q11.71265247512207,2,11.61605387512207,2.019215Q11.51945487512207,2.03843,11.42846087512207,2.076121Q11.33746587512207,2.1138120000000002,11.25557387512207,2.16853Q11.17368087512207,2.223249,11.10403687512207,2.292893Q11.03439287512207,2.362537,10.97967387512207,2.44443Q10.92495587512207,2.526322,10.88726487512207,2.617317Q10.84957387512207,2.708311,10.83035887512207,2.80491Q10.81114387512207,2.9015086,10.81114387512207,3Z" fill-rule="evenodd" fill="#000000" fill-opacity="1"/></g><g><path d="M18.32071300415039,5.6956048320465085Q18.32983300415039,5.684995832046509,18.33864300415039,5.674134832046509Q18.44715300415039,5.540481832046509,18.504723004150392,5.378236832046508Q18.56229300415039,5.215991832046509,18.56229300415039,5.043836832046509Q18.56229300415039,4.935808832046509,18.53922300415039,4.830273832046509Q18.51615300415039,4.7247388320465085,18.47107300415039,4.626564832046509Q18.42600300415039,4.528390832046509,18.36099300415039,4.4421098320465084Q18.29599300415039,4.355827832046509,18.21406300415039,4.285418832046509Q18.20345300415039,4.276300832046509,18.19259300415039,4.2674838320465085Q18.05894300415039,4.158974832046509,17.89669300415039,4.101405832046509Q17.734453004150392,4.043836832046509,17.56229400415039,4.043836832046509Q17.52453400415039,4.043836832046509,17.48688200415039,4.046684832046509Q17.47965700415039,4.047230832046509,17.47244000415039,4.047881832046508Q17.27808100415039,4.065416832046509,17.10457400415039,4.1547408320465085Q16.93106800415039,4.244063832046509,16.80387600415039,4.392068832046509L16.80373100415039,4.392237832046509L15.87144200415039,5.477078832046509L15.87125500415039,5.477296832046509Q15.75435000415039,5.6133308320465085,15.69201200415039,5.781514832046509Q15.62967300415039,5.949698832046509,15.62967300415039,6.129066832046509Q15.62967300415039,6.1668268320465085,15.63252100415039,6.204476832046509Q15.647521004150391,6.402826832046509,15.737284004150391,6.5803268320465085Q15.827046004150391,6.757836832046509,15.97790500415039,6.887486832046509Q16.113939004150392,7.004386832046508,16.282123004150392,7.066726832046509Q16.45030700415039,7.129066832046509,16.62967300415039,7.129066832046509Q16.66743320415039,7.129066832046509,16.70508590415039,7.126216832046509Q16.90343200415039,7.111216832046509,17.08093900415039,7.021456832046509Q17.25844600415039,6.931696832046509,17.38809100415039,6.780836832046509L18.32071300415039,5.6956048320465085Z" fill-rule="evenodd" fill="#000000" fill-opacity="1"/></g><g><path d="M20.45267479675293,9.233587693359375L19.02380779675293,9.479615693359374Q18.93733879675293,9.494503693359375,18.85478279675293,9.524222693359375Q18.77222779675293,9.553942693359375,18.69610879675293,9.597583693359375Q18.61998979675293,9.641225693359376,18.55263479675293,9.697455693359375Q18.48527879675293,9.753686693359375,18.42874379675293,9.820786693359375Q18.37220979675293,9.887887693359374,18.32822479675293,9.963807693359374Q18.28423879675293,10.039728693359375,18.25414679675293,10.122148793359376Q18.22405379675293,10.204568993359375,18.20877479675293,10.290970193359374Q18.19349479675293,10.377371693359375,18.19349479675293,10.465113693359376L18.19355579675293,10.476164693359374Q18.19443879675293,10.556059693359375,18.20799679675293,10.634799693359374Q18.24174979675293,10.830827693359375,18.34794979675293,10.999017693359376Q18.45414979675293,11.167206693359375,18.61662879675293,11.281955693359375Q18.74319379675293,11.371335693359375,18.89087179675293,11.418225693359375Q19.03855079675293,11.465115693359374,19.19349479675293,11.465115693359374L19.19415695375293,11.465115693359374Q19.27928649675293,11.465055693359375,19.36318179675293,11.450615693359374L20.79204479675293,11.204583693359375Q20.87851479675293,11.189694693359375,20.96107479675293,11.159975693359375Q21.04363479675293,11.130256693359375,21.11974479675293,11.086615693359375Q21.19586479675293,11.042973693359375,21.26322479675293,10.986743693359376Q21.33057479675293,10.930513693359375,21.38711479675293,10.863412693359376Q21.44364479675293,10.796311693359375,21.48763479675293,10.720391693359375Q21.53161479675293,10.644471693359375,21.56171479675293,10.562051693359376Q21.59180479675293,10.479631693359375,21.60708479675293,10.393229693359375Q21.62236479675293,10.306828993359375,21.62236479675293,10.219087141959376L21.62230479675293,10.208034293359376Q21.62141479675293,10.128139793359376,21.607864796752928,10.049398693359375Q21.57410479675293,9.853371693359374,21.46790479675293,9.685181693359375Q21.36170479675293,9.516992693359375,21.19922479675293,9.402246693359375Q21.072664796752928,9.312864693359375,20.92498479675293,9.265975693359374Q20.77730479675293,9.219085693359375,20.62236479675293,9.219085693359375L20.62170479675293,9.219085693359375Q20.53657479675293,9.219142693359375,20.45267479675293,9.233587693359375Z" fill-rule="evenodd" fill="#000000" fill-opacity="1"/></g><g><path d="M4.25887,11.450515693359375L4.25917,11.450565693359374Q4.34338,11.465065693359374,4.42883,11.465065693359374Q4.44081,11.465065693359374,4.45278,11.464775693359375Q4.60156,11.461215693359375,4.74286,11.414475693359375Q4.88415,11.367745693359375,5.00572,11.281885693359374Q5.16819,11.167138693359375,5.27439,10.998945693359374Q5.38058,10.830753693359375,5.41433,10.634724693359376Q5.42883,10.550514693359375,5.42883,10.465065693359374L5.42875,10.452567693359375Q5.4276599999999995,10.365617693359376,5.41159,10.280160593359374Q5.39551,10.194703493359375,5.36492,10.113304693359375Q5.33433,10.031904693359374,5.290150000000001,9.957007693359374Q5.24597,9.882109693359375,5.1895299999999995,9.815961693359375Q5.13308,9.749814693359376,5.06607,9.694401693359374Q4.99906,9.638989693359376,4.92348,9.595975693359375Q4.84791,9.552962693359374,4.76605,9.523639693359375Q4.68418,9.494315693359376,4.59849,9.479562693359375L3.169769,9.233601693359375L3.1696590000000002,9.233582693359375Q3.085449,9.219085693359375,3,9.219085693359375L2.9875018,9.219163693359375Q2.900552,9.220250693359375,2.815095,9.236329693359375Q2.729638,9.252407693359375,2.6482390000000002,9.282995693359375Q2.56684,9.313583693359375,2.491942,9.357762693359374Q2.4170439999999997,9.401941693359374,2.350896,9.458385693359375Q2.284749,9.514829693359374,2.229336,9.581843693359374Q2.173924,9.648857693359375,2.13091,9.724430693359375Q2.087897,9.800003693359375,2.058574,9.881867693359375Q2.02925,9.963730693359375,2.014497,10.049426693359376Q2,10.133636693359374,2,10.219085693359375L2.0000780000000002,10.231583893359375Q2.001165,10.318533693359376,2.017244,10.403990693359376Q2.033322,10.489447693359375,2.06391,10.570846693359375Q2.0944979999999997,10.652245693359376,2.138677,10.727143693359375Q2.182856,10.802041693359374,2.2393,10.868189693359374Q2.295744,10.934336693359375,2.362758,10.989749693359375Q2.429772,11.045161693359375,2.505345,11.088175693359375Q2.580918,11.131188693359375,2.662782,11.160511693359375Q2.7446450000000002,11.189835693359376,2.8303409999999998,11.204588693359375L2.830451,11.204607693359375L4.25887,11.450515693359375Z" fill-rule="evenodd" fill="#000000" fill-opacity="1"/></g><g><path d="M5.301660097747803,5.6956048320465085L6.234281097747803,6.780836832046509Q6.304690097747803,6.862766832046509,6.390972097747802,6.927766832046509Q6.477254097747803,6.992766832046509,6.575427097747803,7.037846832046509Q6.673601097747802,7.082926832046509,6.779137097747803,7.105996832046509Q6.884672097747803,7.129066832046509,6.992700097747803,7.129066832046509Q7.006688097747803,7.129066832046509,7.020672097747803,7.128676832046509Q7.192759097747802,7.123856832046509,7.353329097747803,7.061776832046508Q7.513899097747803,6.999686832046509,7.644469097747803,6.887486832046509Q7.7263990977478025,6.817076832046508,7.791399097747803,6.730796832046509Q7.856409097747803,6.644506832046509,7.901479097747803,6.546336832046508Q7.9465590977478024,6.448166832046509,7.969629097747803,6.342626832046509Q7.992699097747803,6.237096832046509,7.992699097747803,6.129066832046509Q7.992699097747803,6.115076832046508,7.992309097747802,6.101096832046509Q7.987489097747803,5.929004832046509,7.925409097747803,5.768433832046509Q7.8633190977478025,5.607862832046509,7.751119097747803,5.477296832046509L7.751069097747803,5.477238832046509L6.818498097747803,4.392068832046509Q6.748089097747803,4.310138832046508,6.661807097747802,4.2451358320465085Q6.575525097747803,4.180131832046509,6.477351097747802,4.135054832046508Q6.379178097747802,4.0899788320465085,6.2736420977478025,4.066907832046509Q6.168107097747803,4.043836832046509,6.060079215992802,4.043836832046509Q6.0460901977478025,4.043836832046509,6.032106797747803,4.044227832046509Q5.860019097747803,4.049043832046509,5.699448097747803,4.111127832046509Q5.538877097747803,4.1732128320465085,5.408311097747803,4.285417832046509Q5.326381097747802,4.355826832046509,5.261378097747802,4.442108832046509Q5.196374097747803,4.528390832046509,5.151297097747802,4.626564832046509Q5.106221097747802,4.724737832046509,5.083150097747803,4.830273832046509Q5.060079097747803,4.935808832046509,5.060079097747803,5.043836832046509Q5.060079097747803,5.057825632046509,5.060470097747803,5.071809132046509Q5.065286097747803,5.2438968320465085,5.127370097747803,5.4044678320465085Q5.1894550977478024,5.5650388320465085,5.301660097747803,5.6956048320465085Z" fill-rule="evenodd" fill="#000000" fill-opacity="1"/></g><g><path d="M3.1059108301997185,21L21.00001083019972,21Q21.098510830199718,21,21.19511083019972,20.980785Q21.29171083019972,20.961570000000002,21.38271083019972,20.923879Q21.473710830199717,20.886188,21.55561083019972,20.83147Q21.63751083019972,20.776751,21.707110830199717,20.707107Q21.77671083019972,20.637463,21.83151083019972,20.55557Q21.88621083019972,20.473678,21.92391083019972,20.382683Q21.961610830199717,20.291689,21.98081083019972,20.19509Q22.00001083019972,20.0984914,22.00001083019972,20Q22.00001083019972,19.9015086,21.98081083019972,19.80491Q21.961610830199717,19.708311,21.92391083019972,19.617317Q21.88621083019972,19.526322,21.83151083019972,19.44443Q21.77671083019972,19.362537,21.707110830199717,19.292893Q21.63751083019972,19.223249,21.55561083019972,19.16853Q21.473710830199717,19.113812,21.38271083019972,19.076121Q21.29171083019972,19.038429999999998,21.19511083019972,19.019215Q21.098510830199718,19,21.00001083019972,19L3.1059108301997185,19Q3.0074194301997186,19,2.9108208301997185,19.019215Q2.8142218301997186,19.038429999999998,2.7232278301997184,19.076121Q2.6322328301997184,19.113812,2.5503408301997186,19.16853Q2.4684478301997186,19.223249,2.3988038301997183,19.292893Q2.3291598301997185,19.362537,2.2744408301997185,19.44443Q2.2197228301997187,19.526322,2.1820318301997186,19.617317Q2.1443408301997184,19.708311,2.1251258301997185,19.80491Q2.1059108301997185,19.9015086,2.1059108301997185,20Q2.1059108301997185,20.0984914,2.1251258301997185,20.19509Q2.1443408301997184,20.291689,2.1820318301997186,20.382683Q2.2197228301997187,20.473678,2.2744408301997185,20.55557Q2.3291598301997185,20.637463,2.3988038301997183,20.707107Q2.4684478301997186,20.776751,2.5503408301997186,20.83147Q2.6322328301997184,20.886188,2.7232278301997184,20.923879Q2.8142218301997186,20.961570000000002,2.9108208301997185,20.980785Q3.0074194301997186,21,3.1059108301997185,21Z" fill-rule="evenodd" fill="#000000" fill-opacity="1"/></g></g></g></svg>