<svg xmlns="http://www.w3.org/2000/svg" xmlns:xlink="http://www.w3.org/1999/xlink" fill="none" version="1.1" width="20" height="20" viewBox="0 0 20 20"><defs><clipPath id="master_svg0_234_25844"><rect x="0" y="0" width="20" height="20" rx="0"/></clipPath></defs><g clip-path="url(#master_svg0_234_25844)"><g><g transform="matrix(0,0.9999999403953552,-0.9999999403953552,0,18.75061025222385,-15.41735738015268)"><path d="M20.239794375,15.1008259765625Q20.964764375,16.3333259765625,22.394614375,16.3333259765625L28.440184375,16.3333259765625Q29.870084374999998,16.3333259765625,30.595084375,15.1008259765625L33.585184375,10.0174759765625Q34.330784375,8.7499559765625,33.585184375,7.4824359765625L30.595084375,2.3991039765625Q29.870084374999998,1.1666259765625,28.440184375,1.1666259765625L22.394614375,1.1666259765625Q20.964764375,1.1666259765625,20.239794375,2.3990569765625L17.249534375,7.4823859765625Q16.503891375,8.7499559765625,17.249534375,10.0175259765625L20.239794375,15.1008259765625ZM28.440184375,15.3333259765625L22.394614375,15.3333259765625Q21.536704375,15.3333259765625,21.101724375,14.5938259765625L18.111464375,9.510495976562499Q17.664078375,8.7499559765625,18.111464375,7.9894159765625L21.101724375,2.9060859765625002Q21.536704375,2.1666259765625,22.394614375,2.1666259765625L28.440184375,2.1666259765625Q29.298084375000002,2.1666259765625,29.733084375,2.9061159765625L32.723184375,7.9894459765625Q33.170584375000004,8.7499559765625,32.723184375,9.5104659765625L29.733084375,14.5938259765625Q29.298084375000002,15.3333259765625,28.440184375,15.3333259765625Z" fill-rule="evenodd" fill="#232D42" fill-opacity="1"/></g><g transform="matrix(0,0.9999999403953552,-0.9999999403953552,0,20.00060987969482,-4.167357678175904)"><path d="M12.340628375,8.1732699765625Q11.583984375,8.9299159765625,11.583984375,9.9999559765625Q11.583984375,11.0700059765625,12.340628375,11.8266459765625Q13.097274375,12.5832959765625,14.167314375,12.5832959765625Q15.237364375,12.5832959765625,15.994004375,11.8266459765625Q16.750654375,11.0700059765625,16.750654375,9.9999559765625Q16.750654375,8.9299159765625,15.994004375,8.1732699765625Q15.237364375,7.4166259765625,14.167314375,7.4166259765625Q13.097274375,7.4166259765625,12.340628375,8.1732699765625ZM13.047735375,11.1195359765625Q12.583984375,10.6557859765625,12.583984375,9.9999559765625Q12.583984375,9.3441259765625,13.047735375,8.8803769765625Q13.511484375,8.4166259765625,14.167314375,8.4166259765625Q14.823144375,8.4166259765625,15.286894375,8.8803769765625Q15.750654375,9.3441259765625,15.750654375,9.9999559765625Q15.750654375,10.6557859765625,15.286894375,11.1195359765625Q14.823144375,11.5832959765625,14.167314375,11.5832959765625Q13.511484375,11.5832959765625,13.047735375,11.1195359765625Z" fill-rule="evenodd" fill="#232D42" fill-opacity="1"/></g></g></g></svg>