<svg xmlns="http://www.w3.org/2000/svg" xmlns:xlink="http://www.w3.org/1999/xlink" fill="none" version="1.1" width="24" height="24" viewBox="0 0 24 24"><defs><clipPath id="master_svg0_720_03038"><rect x="0" y="0" width="24" height="24" rx="0"/></clipPath></defs><g clip-path="url(#master_svg0_720_03038)"><g><path d="M20.8287,20.000598702L3.17183,20.000598702C2.531241,19.981229,2,20.434254,2,20.999899C1.999999889246,21.56554,2.531241,22.01857,3.17183,21.999200000000002L20.8221,21.999200000000002C21.4623,22.02159,21.9962,21.5714,22,21.00596C22.0037,20.440527,21.4759,19.9848387,20.8354,20.000598702L20.8314,20.000598702L20.8287,20.000598702Z" fill="#232D42" fill-opacity="1"/></g><g><path d="M10.34711,15.6993L11.10327,12.3129L8.69899,12.3129L12.999,8.022079999999999L12.2415,11.39488L14.6431,11.39488L10.34711,15.6993ZM3.14093,6.47032L3.14093,19L20.8295,19L20.8295,6.47032L3.1395999999999997,6.47032L3.14093,6.47032ZM20.8255,6.47032C21.4676,6.49279,22,5.96718,22,5.310919999999999C22,4.65466,21.4676,4.129049999999999,20.8255,4.15152L18.8087,4.15152L18.8087,2L17.296300000000002,2L17.296300000000002,4.15152L12.8779,4.15152L12.8779,2L11.35355,2L11.35355,4.15152L6.93505,4.15152L6.93505,2L5.42273,2L5.42273,4.15152L3.14093,4.15152C2.509416,4.14542,1.99553794,4.669169999999999,2.000029318,5.31432C2.054374,5.931900000000001,2.535972,6.41987,3.14093,6.47032L20.8295,6.47032L20.8255,6.47032Z" fill="#232D42" fill-opacity="1"/></g></g></svg>