<svg xmlns="http://www.w3.org/2000/svg" xmlns:xlink="http://www.w3.org/1999/xlink" fill="none" version="1.1" width="24" height="24" viewBox="0 0 24 24"><g><g><g><g style="opacity:0;"></g><g><path d="M18.50015625,4.10982421875C18.50015625,4.10982421875,13.51015625,2.23982421875,13.51015625,2.23982421875C12.68015625,1.92982421875,11.32015625,1.92982421875,10.49015625,2.23982421875C10.49015625,2.23982421875,5.50015625,4.10982421875,5.50015625,4.10982421875C4.3501562499999995,4.539824218750001,3.41015625,5.89982421875,3.41015625,7.11982421875C3.41015625,7.11982421875,3.41015625,14.54982421875,3.41015625,14.54982421875C3.41015625,15.72982421875,4.19015625,17.27982421875,5.14015625,17.98982421875C5.14015625,17.98982421875,9.440156250000001,21.19982421875,9.440156250000001,21.19982421875C10.850156250000001,22.25982421875,13.17015625,22.25982421875,14.58015625,21.19982421875C14.58015625,21.19982421875,18.88015625,17.98982421875,18.88015625,17.98982421875C19.83015625,17.27982421875,20.61015625,15.72982421875,20.61015625,14.54982421875C20.61015625,14.54982421875,20.61015625,7.11982421875,20.61015625,7.11982421875C20.59015625,5.89982421875,19.65015625,4.539824218750001,18.50015625,4.10982421875ZM11.93015625,7.02982421875C13.11015625,7.02982421875,14.07015625,7.98982421875,14.07015625,9.16982421875C14.07015625,10.32982421875,13.16015625,11.25982421875,12.01015625,11.29982421875C12.01015625,11.29982421875,11.99015625,11.29982421875,11.99015625,11.29982421875C11.99015625,11.29982421875,11.97015625,11.29982421875,11.97015625,11.29982421875C11.95015625,11.29982421875,11.93015625,11.29982421875,11.91015625,11.29982421875C10.71015625,11.25982421875,9.81015625,10.32982421875,9.81015625,9.16982421875C9.80015625,7.98982421875,10.76015625,7.02982421875,11.93015625,7.02982421875ZM14.19015625,16.35982421875C13.58015625,16.759824218749998,12.79015625,16.96982421875,12.00015625,16.96982421875C11.21015625,16.96982421875,10.41015625,16.76982421875,9.81015625,16.35982421875C9.24015625,15.97982421875,8.93015625,15.45982421875,8.92015625,14.88982421875C8.92015625,14.32982421875,9.24015625,13.78982421875,9.81015625,13.40982421875C11.02015625,12.60982421875,12.99015625,12.60982421875,14.20015625,13.40982421875C14.77015625,13.78982421875,15.09015625,14.30982421875,15.09015625,14.87982421875C15.08015625,15.43982421875,14.76015625,15.97982421875,14.19015625,16.35982421875Z" fill="#000000" fill-opacity="1"/></g></g></g></g></svg>