<svg xmlns="http://www.w3.org/2000/svg" xmlns:xlink="http://www.w3.org/1999/xlink" fill="none" version="1.1" width="24" height="24" viewBox="0 0 24 24"><defs><clipPath id="master_svg0_742_02797"><rect x="0" y="0" width="24" height="24" rx="0"/></clipPath></defs><g><g clip-path="url(#master_svg0_742_02797)"><g><path d="M20.2154,22L3.77231,22C2.787692,22,2,21.2726,2,20.2693L2,18.262700000000002C2,17.2594,2.8,16.532,3.77231,16.532L20.2154,16.532C21.2,16.532,22,17.2594,22,18.262700000000002L22,20.2693C21.9877,21.2726,21.2,22,20.2154,22ZM18.2215,17.949199999999998C17.5077,17.949199999999998,16.9292,18.538600000000002,16.9292,19.2535C16.9292,19.9809,17.5077,20.5703,18.2215,20.5703C18.9354,20.5452,19.4892,19.9432,19.4769,19.2284C19.4523,18.538600000000002,18.9108,17.9743,18.2215,17.949199999999998ZM20.2154,15.2277L3.77231,15.2277C2.787692,15.2277,2,14.5003,2,13.497L2,11.49043C2,10.48713,2.8,9.759730000000001,3.77231,9.759730000000001L20.2154,9.759730000000001C21.2,9.759730000000001,22,10.48713,22,11.49043L22,13.497C21.9877,14.5003,21.2,15.2277,20.2154,15.2277ZM18.2215,11.18944C17.5077,11.18944,16.9292,11.77888,16.9292,12.50627C16.9292,13.2337,17.5077,13.8106,18.2215,13.8231C18.9354,13.8231,19.5138,13.2462,19.5138,12.51881C19.5262,11.77888,18.9477,11.18944,18.2215,11.18944C18.2338,11.18944,18.2338,11.18944,18.2215,11.18944ZM20.2154,8.46799L3.77231,8.46799C2.787692,8.46799,2,7.74059,2,6.73729L2,4.73069C2,3.727393,2.8,3,3.77231,3L20.2154,3C21.2,3,22,3.727393,22,4.73069L22,6.73729C21.9877,7.74059,21.2,8.46799,20.2154,8.46799ZM18.2215,4.41716C17.5077,4.41716,16.9292,5.006600000000001,16.9292,5.73399C16.9292,6.46139,17.5077,7.03828,18.2215,7.03828C18.9231,7.03828,19.5015,6.448840000000001,19.5015,5.73399C19.5138,5.006600000000001,18.9354,4.41716,18.2215,4.41716Z" fill="#232D42" fill-opacity="1"/></g></g></g></svg>