<svg xmlns="http://www.w3.org/2000/svg" xmlns:xlink="http://www.w3.org/1999/xlink" fill="none" version="1.1" width="24" height="24" viewBox="0 0 24 24"><defs><clipPath id="master_svg0_815_02944"><rect x="0" y="0" width="24" height="24" rx="0"/></clipPath></defs><g><g clip-path="url(#master_svg0_815_02944)"><g><g><path d="M3,4L3,20Q3,20.0983,3.00963055,20.196Q3.0192611,20.2938,3.0384294,20.3902Q3.0575978,20.4865,3.0861193,20.5806Q3.114641,20.6746,3.152241,20.7654Q3.189841,20.8561,3.236157,20.9428Q3.282474,21.0294,3.337061,21.1111Q3.391648,21.1928,3.453979,21.2688Q3.516311,21.3447,3.585786,21.4142Q3.655262,21.4837,3.731213,21.546Q3.807164,21.6083,3.888859,21.6629Q3.970554,21.7175,4.0572099999999995,21.7638Q4.14386,21.8102,4.23463,21.8478Q4.32541,21.8854,4.41943,21.9139Q4.51345,21.9424,4.60982,21.9616Q4.70619,21.9807,4.80397,21.9904Q4.90175,22,5,22L9,22Q9.09825,22,9.19603,21.9904Q9.29381,21.9807,9.39018,21.9616Q9.486550000000001,21.9424,9.58057,21.9139Q9.67459,21.8854,9.76537,21.8478Q9.85614,21.8102,9.942789999999999,21.7638Q10.02945,21.7175,10.111139999999999,21.6629Q10.19284,21.6084,10.26879,21.546Q10.34474,21.4837,10.41421,21.4142Q10.48369,21.3447,10.54602,21.2688Q10.60835,21.1928,10.662939999999999,21.1111Q10.71753,21.0294,10.76384,20.9428Q10.81016,20.8561,10.847760000000001,20.7654Q10.88536,20.6746,10.913879999999999,20.5806Q10.9424,20.4865,10.96157,20.3902Q10.98074,20.2938,10.99037,20.196Q11,20.0983,11,20L11,13Q11,13.0985,10.98078,13.1951Q10.96157,13.2917,10.92388,13.3827Q10.88619,13.4737,10.83147,13.5556Q10.77675,13.6375,10.70711,13.7071Q10.63746,13.7767,10.55557,13.8315Q10.47368,13.8862,10.38268,13.9239Q10.29169,13.9616,10.19509,13.9808Q10.09849,14,10,14L6,14Q5.90151,14,5.80491,13.9808Q5.70831,13.9616,5.617319999999999,13.9239Q5.52632,13.8862,5.4444300000000005,13.8315Q5.36254,13.7767,5.29289,13.7071Q5.22325,13.6375,5.1685300000000005,13.5556Q5.11381,13.4737,5.0761199999999995,13.3827Q5.03843,13.2917,5.01921,13.1951Q5,13.0985,5,13L5,11Q5,10.90151,5.01921,10.80491Q5.03843,10.70831,5.0761199999999995,10.61732Q5.11381,10.52632,5.1685300000000005,10.44443Q5.22325,10.36254,5.29289,10.29289Q5.36254,10.22325,5.4444300000000005,10.16853Q5.52632,10.11381,5.617319999999999,10.07612Q5.70831,10.03843,5.80491,10.01921Q5.90151,10,6,10L10,10Q10.09849,10,10.19509,10.01921Q10.29169,10.03843,10.38268,10.07612Q10.47368,10.11381,10.55557,10.16853Q10.63746,10.22325,10.70711,10.29289Q10.77675,10.36254,10.83147,10.44443Q10.88619,10.52632,10.92388,10.61732Q10.96157,10.70831,10.98078,10.80491Q11,10.90151,11,11L11,4Q11,3.90175,10.99037,3.80397Q10.98074,3.7061900000000003,10.96157,3.60982Q10.9424,3.5134499999999997,10.913879999999999,3.41943Q10.88536,3.3254099999999998,10.847760000000001,3.23463Q10.81016,3.14386,10.76384,3.05721Q10.71753,2.970554,10.662939999999999,2.888859Q10.60835,2.807164,10.54602,2.731213Q10.48369,2.655262,10.41421,2.585786Q10.34474,2.516311,10.26879,2.453979Q10.19284,2.391648,10.111139999999999,2.337061Q10.029440000000001,2.282474,9.942789999999999,2.236157Q9.85614,2.189841,9.76537,2.152241Q9.67459,2.114641,9.58057,2.0861193Q9.486550000000001,2.0575978,9.39018,2.0384294Q9.29381,2.0192611,9.19603,2.00963055Q9.09825,2,9,2L5,2Q4.90175,2,4.80397,2.00963055Q4.70619,2.0192611,4.60982,2.0384294Q4.51345,2.0575978,4.41943,2.0861193Q4.32541,2.114641,4.23463,2.152241Q4.14386,2.189841,4.0572099999999995,2.236157Q3.970554,2.282474,3.888859,2.337061Q3.807164,2.391648,3.731213,2.453979Q3.655262,2.516311,3.585786,2.585786Q3.516311,2.655262,3.453979,2.731213Q3.391648,2.807164,3.337061,2.888859Q3.282474,2.970554,3.236157,3.05721Q3.189841,3.14386,3.152241,3.23463Q3.114641,3.3254099999999998,3.0861193,3.41943Q3.0575978,3.5134499999999997,3.0384294,3.60982Q3.0192611,3.7061900000000003,3.00963055,3.80397Q3,3.90175,3,4Z" fill-rule="evenodd" fill="#232D42" fill-opacity="1"/></g><g><path d="M13,13L13,20Q13,20.0983,13.00963055,20.196Q13.0192611,20.2938,13.0384294,20.3902Q13.0575978,20.4865,13.0861193,20.5806Q13.114641,20.6746,13.152241,20.7654Q13.189841,20.8561,13.236157,20.9428Q13.282474,21.0294,13.337061,21.1111Q13.391648,21.1928,13.453979,21.2688Q13.516311,21.3447,13.585786,21.4142Q13.655262,21.4837,13.731213,21.546Q13.807164,21.6083,13.888859,21.6629Q13.970554,21.7175,14.05721,21.7638Q14.14386,21.8102,14.23463,21.8478Q14.32541,21.8854,14.41943,21.9139Q14.51345,21.9424,14.60982,21.9616Q14.70619,21.9807,14.80397,21.9904Q14.90175,22,15,22L19,22Q19.09825,22,19.19603,21.9904Q19.29381,21.9807,19.39018,21.9616Q19.48655,21.9424,19.58057,21.9139Q19.674590000000002,21.8854,19.76537,21.8478Q19.85614,21.8102,19.94279,21.7638Q20.02945,21.7175,20.11114,21.6629Q20.19284,21.6084,20.26879,21.546Q20.34474,21.4837,20.41421,21.4142Q20.48369,21.3447,20.54602,21.2688Q20.60835,21.1928,20.66294,21.1111Q20.71753,21.0294,20.763840000000002,20.9428Q20.81016,20.8561,20.84776,20.7654Q20.88536,20.6746,20.91388,20.5806Q20.9424,20.4865,20.961570000000002,20.3902Q20.98074,20.2938,20.99037,20.196Q21,20.0983,21,20L21,4Q21,3.90175,20.99037,3.80397Q20.98074,3.7061900000000003,20.961570000000002,3.60982Q20.9424,3.5134499999999997,20.91388,3.41943Q20.88536,3.3254099999999998,20.84776,3.23463Q20.81016,3.14386,20.763840000000002,3.05721Q20.71753,2.970554,20.66294,2.888859Q20.60835,2.807164,20.54602,2.731213Q20.48369,2.655262,20.41421,2.585786Q20.34474,2.516311,20.26879,2.453979Q20.19284,2.391648,20.11114,2.337061Q20.02944,2.282474,19.94279,2.236157Q19.85614,2.189841,19.76537,2.152241Q19.674590000000002,2.114641,19.58057,2.0861193Q19.48655,2.0575978,19.39018,2.0384294Q19.29381,2.0192611,19.19603,2.00963055Q19.09825,2,19,2L15,2Q14.90175,2,14.80397,2.00963055Q14.70619,2.0192611,14.60982,2.0384294Q14.51345,2.0575978,14.41943,2.0861193Q14.32541,2.114641,14.23463,2.152241Q14.14386,2.189841,14.05721,2.236157Q13.970554,2.282474,13.888859,2.337061Q13.807164,2.391648,13.731213,2.453979Q13.655262,2.516311,13.585786,2.585786Q13.516311,2.655262,13.453979,2.731213Q13.391648,2.807164,13.337061,2.888859Q13.282474,2.970554,13.236157,3.05721Q13.189841,3.14386,13.152241,3.23463Q13.114641,3.3254099999999998,13.0861193,3.41943Q13.0575978,3.5134499999999997,13.0384294,3.60982Q13.0192611,3.7061900000000003,13.00963055,3.80397Q13,3.90175,13,4L13,11Q13,10.90151,13.0192147,10.80491Q13.0384294,10.70831,13.0761205,10.61732Q13.113811,10.52632,13.16853,10.44443Q13.223249,10.36254,13.292893,10.29289Q13.362537,10.22325,13.44443,10.16853Q13.526322,10.11381,13.617316,10.07612Q13.708311,10.03843,13.80491,10.01921Q13.901509,10,14,10L18,10Q18.098489999999998,10,18.19509,10.01921Q18.29169,10.03843,18.38268,10.07612Q18.47368,10.11381,18.55557,10.16853Q18.63746,10.22325,18.70711,10.29289Q18.77675,10.36254,18.83147,10.44443Q18.88619,10.52632,18.92388,10.61732Q18.961570000000002,10.70831,18.98078,10.80491Q19,10.90151,19,11L19,13Q19,13.0985,18.98078,13.1951Q18.961570000000002,13.2917,18.92388,13.3827Q18.88619,13.4737,18.83147,13.5556Q18.77675,13.6375,18.70711,13.7071Q18.63746,13.7767,18.55557,13.8315Q18.47368,13.8862,18.38268,13.9239Q18.29169,13.9616,18.19509,13.9808Q18.098489999999998,14,18,14L14,14Q13.901509,14,13.80491,13.9808Q13.708311,13.9616,13.617316,13.9239Q13.526322,13.8862,13.44443,13.8315Q13.362537,13.7767,13.292893,13.7071Q13.223249,13.6375,13.16853,13.5556Q13.113811,13.4737,13.0761205,13.3827Q13.0384294,13.2917,13.0192147,13.1951Q13,13.0985,13,13Z" fill-rule="evenodd" fill="#232D42" fill-opacity="1"/></g><g><rect x="8" y="11.5" width="8" height="1" rx="0.5" fill="#232D42" fill-opacity="1"/></g></g></g></g></svg>