<svg xmlns="http://www.w3.org/2000/svg" xmlns:xlink="http://www.w3.org/1999/xlink" fill="none" version="1.1" width="24" height="24" viewBox="0 0 24 24"><g><g><g><g><g style="opacity:0;"></g></g><g><path d="M11.390011591796874,2.21C11.750011591796875,1.93,12.249981591796875,1.93,12.609981591796876,2.21C14.499981591796875,3.67,20.119981591796876,8.48,20.109981591796874,13.91C20.109981591796874,18.37,16.479981591796875,22,12.010011591796875,22C7.540011591796874,22,3.910001448796875,18.36,3.910001448796875,13.9C3.880001491796875,8.39,9.490011591796875,3.66,11.390011591796874,2.21ZM10.404211591796875,14.6643L8.654511591796876,14.6643C8.093931591796874,14.6643,7.793811591796874,14.0571,8.161881591796874,13.6679L12.448371591796874,9.204609999999999C12.844741591796875,8.78942,13.592191591796874,9.04891,13.592191591796874,9.599029999999999L13.592191591796874,13.3357L15.341881591796875,13.3357C15.908181591796875,13.3357,16.208281591796876,13.9429,15.834481591796875,14.3321L11.548031591796875,18.7954C11.151661591796875,19.2106,10.404211591796875,18.9511,10.404211591796875,18.401L10.404211591796875,14.6643Z" fill-rule="evenodd" fill="#000000" fill-opacity="1"/></g></g></g></g></svg>