<svg xmlns="http://www.w3.org/2000/svg" xmlns:xlink="http://www.w3.org/1999/xlink" fill="none" version="1.1" width="25" height="25" viewBox="0 0 25 25"><g><g><g><g><g><g style="opacity:0;"><rect x="0.5" y="0.4999999999854481" width="24" height="24" rx="0" fill="#FFFFFF" fill-opacity="0"/><rect x="0.5" y="0.4999999999854481" width="24" height="24" rx="0" fill-opacity="0" stroke-opacity="0" stroke="#000000" fill="none" stroke-width="1" stroke-linecap="ROUND"/></g><g><g><path d="M5,6.49999690054392Q5,4.636036900543919,6.31802,3.3180169005439195Q7.6360399999999995,1.9999969005439198,9.5,1.9999969005439198L14.5,1.9999969005439198Q16.364,1.9999969005439198,17.682000000000002,3.3180169005439195Q19,4.636036900543919,19,6.49999690054392L19,6.99999690054392L22,6.99999690054392Q22.8284,6.99999690054392,23.4142,7.58578690054392Q24,8.171566900543919,24,8.99999690054392Q24,9.82842690054392,23.4142,10.41420690054392Q22.8284,10.99999690054392,22,10.99999690054392L19,10.99999690054392L19,18.49999690054392Q19,20.36399690054392,17.682000000000002,21.68199690054392Q16.364,22.99999690054392,14.5,22.99999690054392L9.5,22.99999690054392Q7.6360399999999995,22.99999690054392,6.31802,21.68199690054392Q5,20.36399690054392,5,18.49999690054392L5,6.49999690054392ZM12,11.37600690054392Q12.17498,11.37600690054392,12.34808,11.35038690054392Q12.521180000000001,11.324766900543919,12.688649999999999,11.27407690054392Q12.85613,11.22337690054392,13.01437,11.14871690054392Q13.17261,11.07404690054392,13.3182,10.97701690054392Q13.46379,10.87997690054392,13.5936,10.76267690054392Q13.7234,10.64536690054392,13.83462,10.51032690054392Q13.94584,10.37527690054392,14.03607,10.22540690054392Q14.12629,10.07552690054392,14.19359,9.914056900543919L21.9542,9.914056900543919C22.459,9.914056900543919,22.8682,9.504816900543918,22.8682,8.99999690054392C22.8682,8.495176900543921,22.459,8.08593690054392,21.9542,8.08593690054392L14.19317,8.08593690054392Q14.12582,7.924556900543919,14.03557,7.77477690054392Q13.94532,7.62499690054392,13.8341,7.49004690054392Q13.72288,7.3550869005439194,13.59309,7.23786690054392Q13.4633,7.12064690054392,13.31775,7.02368690054392Q13.17219,6.92672690054392,13.014,6.85211690054392Q12.8558,6.77750690054392,12.68839,6.72685690054392Q12.52097,6.6761969005439195,12.347940000000001,6.65059690054392Q12.17491,6.62499690054392,12,6.62499690054392Q11.88326,6.62499690054392,11.76708,6.63643690054392Q11.6509,6.6478769005439196,11.5364,6.6706369005439194Q11.4219,6.69340690054392,11.310179999999999,6.72728690054392Q11.19847,6.76116690054392,11.09061,6.8058169005439195Q10.982759999999999,6.85047690054392,10.8798,6.90549690054392Q10.77684,6.96050690054392,10.679770000000001,7.02533690054392Q10.582709999999999,7.09017690054392,10.492460000000001,7.16421690054392Q10.40222,7.23824690054392,10.31967,7.32076690054392Q10.23712,7.40328690054392,10.16306,7.49349690054392Q10.089,7.58370690054392,10.02414,7.6807469005439195Q9.95928,7.77777690054392,9.904250000000001,7.88069690054392Q9.849219999999999,7.98361690054392,9.80454,8.09143690054392Q9.75987,8.199256900543919,9.72598,8.310926900543919Q9.69209,8.422606900543919,9.669319999999999,8.53706690054392Q9.64654,8.65152690054392,9.635100000000001,8.767666900543919Q9.623660000000001,8.88380690054392,9.623660000000001,9.00050690054392Q9.623660000000001,9.11720690054392,9.635100000000001,9.23334690054392Q9.64654,9.34948690054392,9.669319999999999,9.46393690054392Q9.69209,9.57839690054392,9.72598,9.69007690054392Q9.75987,9.80175690054392,9.80454,9.90956690054392Q9.849219999999999,10.01738690054392,9.904250000000001,10.12030690054392Q9.95928,10.223226900543919,10.02414,10.32026690054392Q10.089,10.417296900543919,10.16306,10.50750690054392Q10.23712,10.59771690054392,10.31967,10.68023690054392Q10.40222,10.76275690054392,10.492460000000001,10.83679690054392Q10.582709999999999,10.91082690054392,10.679770000000001,10.975666900543919Q10.77684,11.04049690054392,10.8798,11.09551690054392Q10.982759999999999,11.15052690054392,11.09061,11.19518690054392Q11.19847,11.23984690054392,11.310179999999999,11.27371690054392Q11.4219,11.30759690054392,11.5364,11.33036690054392Q11.6509,11.35313690054392,11.76708,11.36456690054392Q11.88326,11.37600690054392,12,11.37600690054392ZM9,17.49999690054392C9,17.22389690054392,9.22386,16.99999690054392,9.5,16.99999690054392L14.5,16.99999690054392C14.77614,16.99999690054392,15,17.22389690054392,15,17.49999690054392C15,17.77609690054392,14.77614,17.99999690054392,14.5,17.99999690054392L9.5,17.99999690054392C9.22386,17.99999690054392,9,17.77609690054392,9,17.49999690054392Z" fill-rule="evenodd" fill="#000000" fill-opacity="1"/></g></g></g></g></g></g></g></svg>