<svg xmlns="http://www.w3.org/2000/svg" xmlns:xlink="http://www.w3.org/1999/xlink" fill="none" version="1.1" width="24" height="24" viewBox="0 0 24 24"><defs><clipPath id="master_svg0_749_02861"><rect x="0" y="0" width="24" height="24" rx="0"/></clipPath></defs><g><g clip-path="url(#master_svg0_749_02861)"><g><path d="M11.99871,5.96396C16.2075,5.96396,19.6193,9.18065,19.6193,13.1486L19.6193,18.3964C19.6193,18.7944,19.2771,19.1171,18.8549,19.1171L5.14253,19.1171C4.72034,19.1171,4.37808,18.7944,4.37808,18.3964L4.37808,13.1486C4.37808,9.18065,7.78995,5.96396,11.99871,5.96396ZM11.32982,2L12.66761,2C12.77316,2,12.85872,2.0806695,12.85872,2.18018L12.85872,4.34234C12.85872,4.4418500000000005,12.77316,4.52252,12.66761,4.52252L11.32982,4.52252C11.22427,4.52252,11.1387,4.4418500000000005,11.1387,4.34234L11.1387,2.18018C11.1387,2.0806695,11.22427,2,11.32982,2ZM4.00194,4.78507C4.07658,4.714700000000001,4.19759,4.714700000000001,4.27222,4.78507L5.89387,6.31394C5.96851,6.38431,5.96851,6.4984,5.89387,6.56876L4.9479,7.46061C4.87327,7.53098,4.75226,7.53098,4.67762,7.46061L3.0559792,5.93173C2.9813401,5.86137,2.9813401,5.74728,3.0559792,5.6769099999999995L4.00194,4.78507ZM19.9981,4.78507L20.944,5.6769099999999995C21.0187,5.74728,21.0187,5.86137,20.944,5.93173L19.3224,7.46061C19.2477,7.53098,19.1267,7.53098,19.0521,7.46061L18.106099999999998,6.56876C18.0315,6.49839,18.0315,6.38431,18.106099999999998,6.31394L19.7278,4.78507C19.8024,4.714700000000001,19.9234,4.714700000000001,19.9981,4.78507ZM4.35419,20.5586L19.6432,20.5586C20.0654,20.5586,20.4077,20.8812,20.4077,21.2793L20.4077,21.8198C20.4077,21.9193,20.3221,22,20.2166,22L3.780847,22C3.6752979999999997,22,3.589734,21.9193,3.589734,21.8198L3.589734,21.2793C3.589734,20.8812,3.931994,20.5586,4.35419,20.5586ZM7.88978,13.4189L7.88978,19.1171L9.41868,19.1171L9.41868,13.4189Q9.34854,12.7686,8.65376,12.7686Q7.95899,12.7686,7.88978,13.4189Z" fill="#232D42" fill-opacity="1"/></g></g></g></svg>