<svg xmlns="http://www.w3.org/2000/svg" xmlns:xlink="http://www.w3.org/1999/xlink" fill="none" version="1.1" width="24" height="24" viewBox="0 0 24 24"><defs><clipPath id="master_svg0_111_174"><rect x="0" y="0" width="24" height="24" rx="0"/></clipPath><clipPath id="master_svg1_111_066"><rect x="1" y="1" width="22" height="22" rx="0"/></clipPath></defs><g clip-path="url(#master_svg0_111_174)"><rect x="0" y="0" width="24" height="24" rx="0" fill="#FFFFFF" fill-opacity="0"/><g clip-path="url(#master_svg1_111_066)"><g><path d="" fill="#FFFFFF" fill-opacity="0"/></g><g><path d="M11.17739935546875,1.056959409C11.75450935546875,1.056959409,12.008619355468749,1.450727625,12.008619355468749,1.9532206250000002L12.008619355468749,2.916120625L14.84403935546875,2.916120625C17.911339355468748,2.916120625,20.94153935546875,4.757420625,20.94153935546875,8.628470625L20.94153935546875,13.536740625C20.94123935546875,13.857440625,20.92403935546875,14.435840625,20.33353935546875,14.435840625C19.72293935546875,14.435840625,19.67543935546875,13.816640625,19.67543935546875,13.504840625L19.67543935546875,8.628150625C19.67543935546875,5.937450625,17.28993935546875,4.167890625,14.84403935546875,4.167890625L12.008619355468749,4.167890625L12.008619355468749,5.800350625C13.48771935546875,5.800350625,16.19753935546875,6.642730625,16.19753935546875,9.927100625L16.19753935546875,21.405340625C16.19753935546875,22.109740625,15.62653935546875,22.680740625,14.92213935546875,22.680740625L7.57800935546875,22.680740625C6.87364935546875,22.680740625,6.30264935546875,22.109740625,6.30264935546875,21.405340625L6.30264935546875,9.927420625C6.30264935546875,6.563020625,9.342799355468749,5.800990625,10.41632935546875,5.800990625L10.41632935546875,4.168210625C7.55377935546875,4.168840625,5.87476935546875,4.168840625,5.37864935546875,4.168210625L5.24441935546875,4.168210625C4.9329123554687495,4.166930625,4.34783935546875,4.1602306250000005,4.34783935546875,3.570060625C4.34783935546875,2.979570625,4.9329123554687495,2.9145206249999998,5.24441935546875,2.916440625L5.30595535546875,2.916440625C5.66113935546875,2.917070625,7.15522935546875,2.917070625,9.78884935546875,2.916440625L10.41632935546875,2.916440625L10.41632935546875,1.9532206250000002C10.41632935546875,1.542872625,10.60061935546875,1.056640625,11.17771935546875,1.056640625L11.17739935546875,1.056959409ZM14.07247935546875,9.927420625L8.33334935546875,9.927420625C8.069469355468751,9.927790625,7.85574935546875,10.141810625,7.85574935546875,10.405680625C7.85574935546875,10.669560625,8.069469355468751,10.883580625,8.33334935546875,10.883940625L14.07247935546875,10.883940625C14.33634935546875,10.883580625,14.55003935546875,10.669560625,14.55003935546875,10.405680625C14.55003935546875,10.141810625,14.33634935546875,9.927790625,14.07247935546875,9.927420625Z" fill="#000000" fill-opacity="1"/></g></g></g></svg>