<svg xmlns="http://www.w3.org/2000/svg" xmlns:xlink="http://www.w3.org/1999/xlink" fill="none" version="1.1" width="24" height="24" viewBox="0 0 24 24"><defs><clipPath id="master_svg0_563_05120"><rect x="0" y="0" width="24" height="24" rx="0"/></clipPath></defs><g><g clip-path="url(#master_svg0_563_05120)"><g><g><path d="M9.979330000000001,10.93444C14.3835,10.93444,17.9587,9.828420000000001,17.9587,8.456109999999999L17.9587,6.47833C17.9587,5.10602,14.3835,4,9.979330000000001,4C5.57519,4,2,5.10602,2,6.47833L2,8.456109999999999C2.000253812,9.820350000000001,5.5673200000000005,10.93444,9.979330000000001,10.93444ZM12.4753,16.7528C11.69002,16.833,10.85092,16.8763,9.97958,16.8763C5.57544,16.8763,2.00837578,15.7703,2.00837578,14.398L2.00837578,17.3688C2.00837578,18.7331,5.57544,19.8472,9.98771,19.8472C10.59355,19.8472,11.18367,19.8262,11.75119,19.7864C11.69251,19.7409,11.63674,19.6918,11.58418,19.639400000000002C10.77503,18.8423,11.23443,17.9022,11.58418,17.5549L12.4753,16.7528Z" fill="#000000" fill-opacity="1"/></g><g><path d="M9.941600000000001,14.894927034606933C11.5955,14.894927034606933,13.1319,14.751697034606934,14.4044,14.506497034606934L15.8928,13.283217034606935C15.4793,12.778137034606933,15.3252,12.157327034606933,15.4431,11.567917034606934C14.0156,11.956587034606933,12.0765,12.194917034606934,9.941849999999999,12.194917034606934C5.5584,12.194917034606934,2,11.189797034606933,2,9.942687034606934L2,12.642467034606934C2,13.882477034606934,5.55031,14.894927034606933,9.941600000000001,14.894927034606933Z" fill="#000000" fill-opacity="1"/></g><g transform="matrix(0.9993908405303955,-0.0348329171538353,0.03496620059013367,0.9993908405303955,-0.38004957653440385,0.4513171431456442)"><path d="M21.693730980224608,13.220088715972901L21.692500980224608,13.3673287159729C21.692500980224608,13.4074787159729,21.692500980224608,13.495088715972901,21.670450980224608,13.5607987159729C21.62554098022461,13.8190687159729,21.53202098022461,14.0666187159729,21.39479098022461,14.2904787159729C21.30235098022461,14.4432187159729,21.18850098022461,14.5821087159729,21.05665098022461,14.7029787159729C20.99417098022461,14.7577387159729,20.93536098022461,14.8124987159729,20.869200980224612,14.8635987159729C20.71967098022461,14.9670587159729,20.55639098022461,15.0493687159729,20.38404098022461,15.108178715972901C20.27692098022461,15.1515587159729,20.16625098022461,15.1857487159729,20.05326098022461,15.2103887159729C19.944760980224608,15.2354987159729,19.83386098022461,15.2489587159729,19.72247098022461,15.2505487159729L19.40638098022461,15.2505487159729C19.33983098022461,15.249038715972901,19.27574098022461,15.2755587159729,19.22996098022461,15.3235587159729L18.311500980224608,16.2430587159729L14.94602098022461,19.6038987159729L14.84679098022461,19.698808715972902C14.76274098022461,19.7743287159729,14.66877098022461,19.8381887159729,14.56745098022461,19.888638715972903C14.45268098022461,19.9484187159729,14.32831098022461,19.987948715972898,14.19991098022461,20.0054487159729L13.767840980224609,20.0054487159729C13.639194980224609,19.9828187159729,13.51507898022461,19.9396687159729,13.40029798022461,19.8776887159729C13.25819598022461,19.7980487159729,13.133298980224609,19.6913687159729,13.03275298022461,19.5637487159729C12.93349398022461,19.4387187159729,12.85869568022461,19.296328715972898,12.81222698022461,19.1439487159729C12.773127280224609,19.0188387159729,12.75694403022461,18.8877787159729,12.76444616022461,18.7569987159729C12.772829680224609,18.5652987159729,12.828353080224609,18.3785587159729,12.926164980224609,18.213078715972898C12.98129698022461,18.1133087159729,13.04908798022461,18.0212287159729,13.128314980224609,17.9392987159729L17.43430098022461,13.6479987159729C17.48546098022461,13.594378715972901,17.53061098022461,13.5201687159729,17.51883098022461,13.447228715972901C17.51883098022461,13.3596187159729,17.51883098022461,13.2756587159729,17.49678098022461,13.1880487159729C17.49229098022461,13.1248487159729,17.49229098022461,13.0614187159729,17.49678098022461,12.9982287159729C17.50536098022461,12.906318715972901,17.51886098022461,12.8149287159729,17.537210980224607,12.7244387159729C17.58254098022461,12.5366487159729,17.65401098022461,12.3557487159729,17.75039098022461,12.1878287159729C17.83941098022461,12.0272067159729,17.94927098022461,11.8787557159729,18.07750098022461,11.7461227159729C18.13876098022461,11.6816317159729,18.20532098022461,11.6216017159729,18.27597098022461,11.5672507159729C18.36051098022461,11.501542715972901,18.45240098022461,11.4467867159729,18.54061098022461,11.388379715972901C18.64842098022461,11.320643715972901,18.764400980224607,11.266697715972901,18.88610098022461,11.2277607159729C18.987380980224607,11.1936897159729,19.09029098022461,11.165702815972901,19.19483098022461,11.1438000159729C19.30019098022461,11.119871015972901,19.40700098022461,11.1027993159729,19.51460098022461,11.0926938359729C19.637520980224608,11.0878265259729,19.76085098022461,11.0967498759729,19.88214098022461,11.1182469159729C19.94919098022461,11.1255347159729,20.01221098022461,11.153637615972901,20.062240980224608,11.1985567159729C20.14010098022461,11.2733037159729,20.16349098022461,11.3879957159729,20.12105098022461,11.4869417159729C20.08851098022461,11.564467715972901,20.039630980224608,11.6341727159729,19.97770098022461,11.691366715972901L19.62854098022461,12.0564107159729L19.26099098022461,12.4214587159729C19.20455098022461,12.4746487159729,19.155150980224608,12.534748715972901,19.113970980224607,12.6003287159729C19.05272098022461,12.696858715972901,19.03271098022461,12.8136787159729,19.05884098022461,12.9252187159729C19.08498098022461,13.0282387159729,19.13970098022461,13.1215287159729,19.21689098022461,13.195348715972901C19.37126098022461,13.3523187159729,19.52930098022461,13.5019887159729,19.68694098022461,13.6589587159729C19.73798098022461,13.709248715972901,19.79761098022461,13.7502187159729,19.86336098022461,13.7794187159729C19.93558098022461,13.8128387159729,20.01615098022461,13.8242687159729,20.09491098022461,13.8122687159729C20.20313098022461,13.7883387159729,20.30073098022461,13.7307487159729,20.37424098022461,13.6479987159729L20.826320980224608,13.1920987159729L21.19387098022461,12.8270587159729C21.257820980224608,12.7621187159729,21.35029098022461,12.7333387159729,21.44012098022461,12.750398715972901C21.546880980224607,12.7628487159729,21.62839098022461,12.8270587159729,21.670440980224612,12.9252187159729C21.692520980224607,12.9929487159729,21.693730980224608,13.0253987159729,21.692520980224607,13.0578487159729L21.692520980224607,13.0902887159729M13.95896098022461,18.2171387159729C13.70061098022461,18.2103687159729,13.46392998022461,18.3598787159729,13.36056598022461,18.5951387159729C13.257202980224609,18.8304087159729,13.30780698022461,19.104418715972898,13.48850798022461,19.2879387159729C13.66854698022461,19.4711787159729,13.942110980224609,19.5284187159729,14.18128098022461,19.4328887159729C14.42045098022461,19.3373487159729,14.577940980224609,19.1079287159729,14.58011098022461,18.8519087159729C14.58125098022461,18.5016287159729,14.29734098022461,18.2162087159729,13.94467098022461,18.213078715972898" fill="#000000" fill-opacity="1"/></g></g></g></g></svg>