<svg xmlns="http://www.w3.org/2000/svg" xmlns:xlink="http://www.w3.org/1999/xlink" fill="none" version="1.1" width="24" height="24" viewBox="0 0 24 24"><defs><clipPath id="master_svg0_23_630"><rect x="0" y="0" width="24" height="24" rx="0"/></clipPath></defs><g clip-path="url(#master_svg0_23_630)"><rect x="0" y="0" width="24" height="24" rx="0" fill="#FFFFFF" fill-opacity="0"/><g><g><g><path d="M3,8.82C3,10.9255,4.50627,12.6792,6.5,13.0623L6.5,16L9.5,16L9.5,13.5C9.5,13.2239,9.72386,13,10,13C10.27614,13,10.5,13.2239,10.5,13.5L10.5,16L17.5,16L17.5,13.0623C19.4937,12.6792,21,10.9255,21,8.82C21,6.43415,19.0658,4.5,16.68,4.5C16.189799999999998,4.5,15.7186,4.58166,15.2794,4.7321100000000005C14.4915,3.68049,13.2352,3,11.82,3C10.4449,3,9.219899999999999,3.642465,8.4287,4.6436C8.0749,4.54992,7.7033,4.5,7.32,4.5C4.93413,4.5,3,6.43415,3,8.82ZM17.5,17L6.5,17L6.5,21C6.5,21.5523,6.9477,22,7.5,22L16.5,22C17.052300000000002,22,17.5,21.5523,17.5,21L17.5,17Z" fill-rule="evenodd" fill="#000000" fill-opacity="1"/></g><g><path d="" fill="#FFFFFF" fill-opacity="0"/></g><g><path d="" fill="#FFFFFF" fill-opacity="0"/></g></g></g></g></svg>