<svg xmlns="http://www.w3.org/2000/svg" xmlns:xlink="http://www.w3.org/1999/xlink" fill="none" version="1.1" width="24" height="24" viewBox="0 0 24 24"><defs><clipPath id="master_svg0_29_556"><rect x="0" y="0" width="24" height="24" rx="0"/></clipPath></defs><g clip-path="url(#master_svg0_29_556)"><rect x="0" y="0" width="24" height="24" rx="0" fill="#FFFFFF" fill-opacity="0"/><g><g><rect x="10.888888359069824" y="14.28759765625" width="2.222222089767456" height="6.7125563621521" rx="0" fill="#000000" fill-opacity="1"/></g><g transform="matrix(0,1,-1,0,35.37770462036133,2.147686004638672)"><rect x="16.615009307861328" y="18.7626953125" width="2.237518787384033" height="9.229939460754395" rx="1.1187593936920166" fill="#000000" fill-opacity="1"/></g><g><path d="M2,15.5408L2,15.5439Q2,15.6913,2.0144458,15.8379Q2.0288916,15.9846,2.0576442,16.1291Q2.0863967,16.273699999999998,2.129179,16.4147Q2.171961,16.555799999999998,2.228361,16.6919Q2.284761,16.8281,2.354236,16.9581Q2.423711,17.088,2.505591,17.2106Q2.587471,17.3331,2.680969,17.4471Q2.774466,17.561,2.87868,17.6652Q2.982893,17.769399999999997,3.09682,17.8629Q3.21075,17.956400000000002,3.33329,18.0383Q3.4558299999999997,18.1202,3.58581,18.1896Q3.71579,18.2591,3.85195,18.3155Q3.98811,18.3719,4.12915,18.4147Q4.27018,18.4575,4.4147300000000005,18.4862Q4.55928,18.515,4.70595,18.529400000000003Q4.85262,18.5439,5,18.5439L19,18.5439Q19.1474,18.5439,19.2941,18.529400000000003Q19.4407,18.515,19.5853,18.4862Q19.7298,18.4575,19.8709,18.4147Q20.0119,18.3719,20.148,18.3155Q20.2842,18.2591,20.4142,18.1896Q20.5442,18.1202,20.6667,18.0383Q20.7892,17.956400000000002,20.9032,17.8629Q21.0171,17.769399999999997,21.1213,17.6652Q21.2255,17.561,21.319,17.4471Q21.4125,17.3331,21.4944,17.2106Q21.5763,17.088,21.6458,16.9581Q21.7152,16.8281,21.7716,16.6919Q21.828,16.555799999999998,21.8708,16.4147Q21.9136,16.273699999999998,21.9424,16.1291Q21.9711,15.9846,21.9856,15.8379Q22,15.6913,22,15.5439L22,15.5408L2,15.5408ZM2,14.2271L22,14.2271L22,7Q22,6.85262,21.9856,6.70595Q21.9711,6.55928,21.9424,6.4147300000000005Q21.9136,6.27018,21.8708,6.12915Q21.828,5.98811,21.7716,5.85195Q21.7152,5.71579,21.6458,5.58581Q21.5763,5.45583,21.4944,5.33329Q21.4125,5.21075,21.319,5.09682Q21.2255,4.982893,21.1213,4.87868Q21.0171,4.774466,20.9032,4.680969Q20.7892,4.587471,20.6667,4.505591Q20.5442,4.423711,20.4142,4.354236Q20.2842,4.284761,20.148,4.228361Q20.0119,4.171961,19.8709,4.129179Q19.7298,4.0863967,19.5853,4.0576442Q19.4407,4.0288916,19.2941,4.0144458Q19.1474,4,19,4L5,4Q4.85262,4,4.70595,4.0144458Q4.55928,4.0288916,4.4147300000000005,4.0576442Q4.27018,4.0863967,4.12915,4.129179Q3.98811,4.171961,3.85195,4.228361Q3.71579,4.284761,3.58581,4.354236Q3.4558299999999997,4.423711,3.33329,4.505591Q3.21075,4.587471,3.09682,4.680969Q2.982893,4.774466,2.87868,4.87868Q2.774466,4.982893,2.680969,5.09682Q2.587471,5.21075,2.505591,5.33329Q2.423711,5.45583,2.354236,5.58581Q2.284761,5.71579,2.228361,5.85195Q2.171961,5.98811,2.129179,6.12915Q2.0863967,6.27018,2.0576442,6.4147300000000005Q2.0288916,6.55928,2.0144458,6.70595Q2,6.85262,2,7L2,14.2271Z" fill-rule="evenodd" fill="#000000" fill-opacity="1"/></g></g></g></svg>