<svg xmlns="http://www.w3.org/2000/svg" xmlns:xlink="http://www.w3.org/1999/xlink" fill="none" version="1.1" width="24" height="24" viewBox="0 0 24 24"><defs><clipPath id="master_svg0_584_03541"><rect x="0" y="0" width="24" height="24" rx="0"/></clipPath></defs><g clip-path="url(#master_svg0_584_03541)"><g><path d="M2.500075,4C2.776252,4.00000867524,3.00013,4.210698,3.00013,4.470594L3.00013,12.47059L9.50104,12.47059C9.77607,12.47211,9.998190000000001,12.68235,9.998190000000001,12.94118C9.998190000000001,13.2,9.77607,13.41025,9.50104,13.41177L9.000969999999999,13.41177L9.000969999999999,19.529400000000003C8.99938,19.7883,8.775960000000001,19.9973,8.5009,19.9973C8.22584,19.9973,8.00242,19.7883,8.00083,19.529400000000003L8.00083,15.7647L3.00013,15.7647L3.00013,19.529400000000003C2.998547,19.7882,2.775125,19.9973,2.500067,19.9973C2.225009,19.9973,2.00158652,19.7882,2,19.529400000000003L2,4.470594C1.9999999670763,4.210692,2.223891,4,2.500075,4ZM20.0025,19.058799999999998L21.5027,19.058799999999998C21.7778,19.060299999999998,22,19.2705,22,19.529400000000003C22,19.7883,21.7778,19.9986,21.5027,20L13.5016,20C13.2265,19.9986,13.0043,19.7883,13.0043,19.529400000000003C13.0043,19.2705,13.2265,19.060299999999998,13.5016,19.058799999999998L16.0019,19.058799999999998L16.0019,11.05883L10.0011,11.05883C9.44874,11.05884,9.000969999999999,10.637450000000001,9.000969999999999,10.11764L9.000969999999999,8.23531L6.50064,8.23531C6.22559,8.23382,6.00345,8.02357,6.00345,7.76473C6.00345,7.50589,6.22559,7.295640000000001,6.50064,7.2941400000000005L21.5027,7.2941400000000005C21.7778,7.295640000000001,21.9999,7.50589,21.9999,7.76473C21.9999,8.02357,21.7778,8.23382,21.5027,8.23531L20.0025,8.23531L20.0025,19.058799999999998ZM18.5023,11.05883L17.5021,11.05883C17.226,11.05884,17.0021,11.26952,17.0021,11.52941L17.0021,18.5882C17.0021,18.848100000000002,17.226,19.058799999999998,17.5021,19.058799999999998L18.5023,19.058799999999998C18.7785,19.058799999999998,19.0023,18.848100000000002,19.0023,18.5882L19.0023,11.52941C19.0023,11.26951,18.7784,11.05883,18.5023,11.05883ZM8.00083,13.41177L3.00013,13.41177L3.00013,14.8235L8.00083,14.8235L8.00083,13.41177ZM18.5023,8.235299999999999L10.50117,8.235299999999999C10.22499,8.23531,10.0011,8.44599,10.0011,8.70587L10.0011,9.64706C10.00111,9.90696,10.225,10.11764,10.50117,10.11764L18.5023,10.11764C18.7785,10.11763,19.0023,9.90695,19.0023,9.64706L19.0023,8.70587C19.0023,8.445979999999999,18.7784,8.235299999999999,18.5023,8.235299999999999Z" fill="#333333" fill-opacity="1"/><path d="M2.00940561,3.99218427Q1.8,4.189245,1.8,4.470594L1.800004,19.5306Q1.801721,19.8108,2.0108389,20.0064Q2.214801,20.1973,2.500067,20.1973Q2.7853339999999998,20.1973,2.9892950000000003,20.0064Q3.19841,19.8108,3.2001299999999997,19.529400000000003L3.2001299999999997,15.9647L7.80083,15.9647L7.80084,19.5306Q7.80256,19.8108,8.011669999999999,20.0065Q8.21563,20.1973,8.5009,20.1973Q8.786159999999999,20.1973,8.990120000000001,20.0065Q9.19924,19.8108,9.20096,19.529400000000003L9.20096,13.61176L9.50214,13.61176Q9.787420000000001,13.61019,9.99024,13.41821Q10.19818,13.22137,10.19818,12.94118Q10.19818,12.66098,9.99024,12.46415Q9.78743,12.27217,9.50104,12.27059L3.2001299999999997,12.27059L3.2001299999999997,4.470594Q3.2001299999999997,4.189251,2.990736,3.9921921Q2.78652,3.800009,2.500075,3.8Q2.21363,3.8,2.00940561,3.99218427ZM2.199996,19.5282L2.2,4.470594Q2.2,4.36209,2.283531,4.283483Q2.372245,4.2,2.500075,4.2Q2.8001329999999998,4.200009,2.8001329999999998,4.470594L2.8001329999999998,12.67059L9.50104,12.67059Q9.79819,12.67224,9.79819,12.94118Q9.79818,13.21012,9.499939999999999,13.21177L8.80097,13.21177L8.80097,19.529400000000003Q8.79932,19.7973,8.5009,19.7973Q8.202480000000001,19.7973,8.20083,19.5282L8.20083,15.5647L2.8001329999999998,15.5647L2.8001329999999998,19.529400000000003Q2.7984869999999997,19.7973,2.500067,19.7973Q2.201646,19.7973,2.199996,19.5282ZM20.2025,8.435310000000001L21.5038,8.435310000000001Q21.7891,8.43376,21.9919,8.24178Q22.1999,8.04494,22.1999,7.76473Q22.1999,7.48452,21.9919,7.28767Q21.7891,7.095689999999999,21.5027,7.0941399999999994L6.49955,7.0941399999999994Q6.21425,7.095689999999999,6.01142,7.28768Q5.80345,7.48451,5.80345,7.76473Q5.80345,8.04494,6.01142,8.24178Q6.21425,8.43376,6.50064,8.435310000000001L8.80097,8.435310000000001L8.80097,10.11764Q8.80096,10.59392,9.15683,10.92881Q9.50752,11.25884,10.0011,11.25883L15.8019,11.25883L15.8019,18.858800000000002L13.5005,18.858800000000002Q13.2152,18.860300000000002,13.0123,19.052300000000002Q12.8043,19.249200000000002,12.8043,19.529400000000003Q12.8043,19.8097,13.0123,20.0065Q13.2152,20.1985,13.5016,20.2L21.5037,20.2Q21.7891,20.1985,21.992,20.0065Q22.2,19.8097,22.2,19.529400000000003Q22.2,19.249200000000002,21.992,19.052300000000002Q21.7891,18.860300000000002,21.5027,18.858800000000002L20.2025,18.858800000000002L20.2025,8.435310000000001ZM21.5016,8.035319999999999L19.8025,8.035309999999999L19.8025,8.23531L19.8025,19.2588L21.5027,19.2588Q21.8,19.2604,21.8,19.529400000000003Q21.8,19.7985,21.5016,19.8L13.5016,19.8Q13.2043,19.7985,13.2043,19.529400000000003Q13.2043,19.2604,13.5026,19.2588L16.201900000000002,19.2588L16.201900000000002,10.858830000000001L10.0011,10.858830000000001Q9.66614,10.858830000000001,9.430959999999999,10.63752Q9.20096,10.42107,9.20096,10.11764L9.20096,8.035309999999999L6.50064,8.035309999999999Q6.20345,8.03369,6.20345,7.76473Q6.20345,7.495760000000001,6.50173,7.49414L21.5027,7.49414Q21.7999,7.495760000000001,21.7999,7.76473Q21.7999,8.03369,21.5016,8.035319999999999ZM19.2023,9.64706L19.2023,8.70587Q19.2023,8.42453,18.9929,8.22747Q18.7887,8.0353,18.5023,8.0353L10.50117,8.0353Q10.21473,8.035309999999999,10.01051,8.22748Q9.8011,8.42453,9.8011,8.70587L9.8011,9.64706Q9.801110000000001,9.92841,10.01051,10.12546Q10.21473,10.31764,10.50117,10.31764L18.5023,10.31764Q18.7887,10.317630000000001,18.9929,10.12546Q19.2024,9.9284,19.2023,9.64706ZM18.5023,8.4353Q18.8023,8.4353,18.8023,8.70588L18.8023,9.64706Q18.8023,9.917629999999999,18.5023,9.917639999999999L10.50117,9.917639999999999Q10.20111,9.917639999999999,10.2011,9.64706L10.2011,8.70588Q10.2011,8.435310000000001,10.50117,8.4353L18.5023,8.4353ZM19.2023,18.5882L19.2023,11.52941Q19.2023,11.248059999999999,18.9929,11.051Q18.7887,10.858830000000001,18.5023,10.858830000000001L17.5021,10.858830000000001Q17.2157,10.85884,17.011499999999998,11.05101Q16.8021,11.24807,16.8021,11.52941L16.8021,18.5882Q16.8021,18.8696,17.011499999999998,19.0666Q17.2157,19.2588,17.5021,19.2588L18.5023,19.2588Q18.7887,19.2588,18.9929,19.0666Q19.2023,18.8696,19.2023,18.5882ZM18.5023,11.25883Q18.8023,11.25883,18.8023,11.52941L18.8023,18.5882Q18.8023,18.6967,18.7188,18.7753Q18.6301,18.858800000000002,18.5023,18.858800000000002L17.5021,18.858800000000002Q17.2021,18.858800000000002,17.2021,18.5882L17.2021,11.52941Q17.2021,11.25884,17.5021,11.25883L18.5023,11.25883ZM2.8001329999999998,15.0235L8.20083,15.0235L8.20083,13.21177L2.8001329999999998,13.21177L2.8001329999999998,15.0235ZM7.80083,14.6235L3.2001299999999997,14.6235L3.2001299999999997,13.61176L7.80083,13.61176L7.80083,14.6235Z" fill-rule="evenodd" fill="#333333" fill-opacity="1"/></g></g></svg>