<svg xmlns="http://www.w3.org/2000/svg" xmlns:xlink="http://www.w3.org/1999/xlink" fill="none" version="1.1" width="24" height="24" viewBox="0 0 24 24"><defs><clipPath id="master_svg0_112_08323"><rect x="0" y="0" width="24" height="24" rx="0"/></clipPath></defs><g clip-path="url(#master_svg0_112_08323)"><g><path d="M19.7143,13L3.28613,13C2.577153,13,2,12.55143,2,12C2,11.448571,2.577153,11,3.28613,11L19.7143,11C20.4233,11,21,11.448571,21,12C21,12.55143,20.4233,13,19.7143,13ZM3.28613,11.571289C2.983072,11.571289,2.734375,11.764286,2.734375,12C2.734375,12.235710000000001,2.983072,12.42871,3.28613,12.42871L19.7143,12.42857C20.0173,12.42857,20.2653,12.235710000000001,20.2653,12C20.2653,11.764286,20.0173,11.571429,19.7143,11.571429L3.28613,11.571289Z" fill="#333333" fill-opacity="1"/><path d="M20.8072,12.94359Q21.3,12.5603,21.3,12Q21.3,11.439704,20.8072,11.0564086Q20.349,10.7,19.7143,10.7L3.28613,10.7Q2.651463,10.7,2.193068,11.0563685Q1.7,11.439694,1.7,12Q1.7,12.56031,2.193068,12.94363Q2.651462,13.3,3.28613,13.3L19.7143,13.3Q20.349,13.3,20.8072,12.94359ZM2.8562,11.36902Q2.695167,11.426011,2.56133,11.53006Q2.3,11.733225000000001,2.3,12Q2.3,12.26677,2.56133,12.46994Q2.695167,12.57399,2.8562,12.630980000000001Q2.7809660000000003,12.59279,2.712584,12.53968Q2.434375,12.3236,2.434375,12Q2.434375,11.676405,2.712584,11.460322Q2.7809660000000003,11.40721,2.8562,11.36902ZM20.143,11.36863Q20.2188,11.407,20.2876,11.460516Q20.5653,11.676491,20.5653,12Q20.5653,12.32351,20.2876,12.53948Q20.2188,12.593,20.143,12.63137Q20.3046,12.57436,20.4388,12.46998Q20.7,12.26685,20.7,12Q20.7,11.733154,20.4388,11.53002Q20.3046,11.425644,20.143,11.36863ZM3.28613,11.871289L19.7143,11.871429Q19.8386,11.871429,19.9193,11.934127Q19.9653,11.96994,19.9653,12Q19.9653,12.12857,19.7143,12.12857L3.28613,12.12871Q3.0865400000000003,12.12871,3.04519,12.04782Q3.03438,12.02667,3.03438,12Q3.03438,11.970106,3.08063,11.934182Q3.1616,11.871289,3.28613,11.871289Z" fill-rule="evenodd" fill="#333333" fill-opacity="1"/></g><g><path d="M4.384615,13C4.596154,13,4.7692309999999996,13.18,4.7692309999999996,13.4L4.7692309999999996,18.6C4.7692309999999996,18.82,4.596154,19,4.384615,19C4.173077,19,4,18.82,4,18.6L4,13.4C4,13.18,4.173077,13,4.384615,13ZM18.6154,13C18.826900000000002,13,19,13.18,19,13.4L19,18.6C19,18.82,18.826900000000002,19,18.6154,19C18.4038,19,18.230800000000002,18.82,18.230800000000002,18.6L18.230800000000002,13.4C18.230800000000002,13.18,18.4038,13,18.6154,13Z" fill="#333333" fill-opacity="1"/><path d="M3.896731,12.9095674Q3.7,13.114167,3.7,13.4L3.7,18.6Q3.7,18.88583,3.896731,19.090429999999998Q4.0982381,19.3,4.384615,19.3Q4.670993,19.3,4.8725000000000005,19.090429999999998Q5.06923,18.88583,5.06923,18.6L5.06923,13.4Q5.06923,13.114168,4.8725000000000005,12.9095674Q4.670993,12.7,4.384615,12.7Q4.0982379,12.7,3.896731,12.9095674ZM18.127499999999998,12.9095672Q17.930799999999998,13.114168,17.930799999999998,13.4L17.930799999999998,18.6Q17.930799999999998,18.88583,18.127499999999998,19.090429999999998Q18.329,19.3,18.6154,19.3Q18.9018,19.3,19.1033,19.090429999999998Q19.3,18.88583,19.3,18.6L19.3,13.4Q19.3,13.114168,19.1033,12.9095675Q18.9018,12.7,18.6154,12.7Q18.329,12.7,18.127499999999998,12.9095672ZM4.3,18.6L4.3,13.4Q4.3,13.3,4.384615,13.3Q4.41992,13.3,4.440495,13.317409Q4.469231,13.341724,4.469231,13.4L4.469231,18.6Q4.469231,18.7,4.384615,18.7Q4.3,18.7,4.3,18.6ZM18.5308,18.6L18.5308,13.4Q18.5308,13.3,18.6154,13.3Q18.6463,13.3,18.6708,13.325432Q18.7,13.355833,18.7,13.4L18.7,18.6Q18.7,18.7,18.6154,18.7Q18.5308,18.7,18.5308,18.6Z" fill-rule="evenodd" fill="#333333" fill-opacity="1"/></g><g><path d="M5,15.16692L19,15.16692L19,16L5,16L5,15.16692ZM12,9.75C10.14595,9.75,8.63664,8.25417,8.63664,6.416667C8.63664,6.1875,8.82583,6,9.05706,6L14.94294,6C15.1742,6,15.3634,6.1875,15.3634,6.416667C15.3634,8.25417,13.85405,9.75,12,9.75ZM9.51321,6.833333C9.71291,8.01458,10.75345,8.91667,12,8.91667C13.24865,8.91667,14.28709,8.01458,14.48679,6.833333L9.51321,6.833333Z" fill="#333333" fill-opacity="1"/><path d="M14.58813,8.985479999999999Q15.6634,7.91985,15.6634,6.416667Q15.6634,6.119739,15.451,5.9093145Q15.2398,5.7,14.94294,5.7L9.05706,5.7Q8.760159999999999,5.7,8.548960000000001,5.9093146Q8.33664,6.119739,8.33664,6.416666Q8.33664,7.91984,9.41187,8.985479999999999Q10.48598,10.05,12,10.05Q13.51402,10.05,14.58813,8.985479999999999ZM14.94294,6.3Q15.0634,6.3,15.0634,6.416667Q15.0634,7.66974,14.16577,8.55931Q13.26706,9.45,12,9.45Q10.73293,9.45,9.83423,8.55931Q8.93664,7.66974,8.93664,6.416665Q8.93664,6.3,9.05706,6.3L14.94294,6.3ZM14.84176,6.533333L9.15824,6.533333L9.217410000000001,6.883341Q9.38652,7.88366,10.17023,8.54696Q10.961500000000001,9.21667,12,9.21667Q13.03976,9.21667,13.83063,8.5469Q14.61343,7.88398,14.78259,6.883341L14.84176,6.533333ZM14.1034,7.13333Q13.91549,7.68879,13.44287,8.089030000000001Q12.81983,8.61667,12,8.61667Q11.181329999999999,8.61667,10.55785,8.08898Q10.08469,7.68851,9.89667,7.13333L14.1034,7.13333ZM4.7,14.86692L4.7,16.3L19.3,16.3L19.3,14.86692L4.7,14.86692ZM5.3,15.7L18.7,15.7L18.7,15.46692L5.3,15.46692L5.3,15.7Z" fill-rule="evenodd" fill="#333333" fill-opacity="1"/></g><g><path d="M9.4,10L14.6,10C14.82,10,15,10.225,15,10.5C15,10.775,14.82,11,14.6,11L9.4,11C9.18,11,9,10.775,9,10.5C9,10.225,9.18,10,9.4,10Z" fill="#333333" fill-opacity="1"/><path d="M8.883239,9.9594665Q8.7,10.188516,8.7,10.5Q8.7,10.811485,8.883239,11.04053Q9.0908125,11.3,9.4,11.3L14.6,11.3Q14.909189999999999,11.3,15.11676,11.04053Q15.3,10.811484,15.3,10.5Q15.3,10.188516,15.11676,9.9594665Q14.909189999999999,9.7,14.6,9.7L9.4,9.7Q9.0908125,9.7,8.883239,9.9594665ZM9.4,10.7Q9.3,10.7,9.3,10.5Q9.3,10.3,9.4,10.3L14.6,10.3Q14.7,10.3,14.7,10.5Q14.7,10.7,14.6,10.7L9.4,10.7Z" fill-rule="evenodd" fill="#333333" fill-opacity="1"/></g></g></svg>