<svg xmlns="http://www.w3.org/2000/svg" xmlns:xlink="http://www.w3.org/1999/xlink" fill="none" version="1.1" width="16" height="16" viewBox="0 0 16 16"><g><g><path d="M10.826666746139527,1.3333333730697632C10.826666746139527,1.3333333730697632,5.173336746139526,1.3333333730697632,5.173336746139526,1.3333333730697632C3.3333337461395263,1.3333333730697632,2.6666667461395264,2.000000373069763,2.6666667461395264,3.873333373069763C2.6666667461395264,3.873333373069763,2.6666667461395264,12.126633373069764,2.6666667461395264,12.126633373069764C2.6666667461395264,14.000033373069764,3.3333337461395263,14.666633373069763,5.173336746139526,14.666633373069763C5.173336746139526,14.666633373069763,10.819996746139527,14.666633373069763,10.819996746139527,14.666633373069763C12.666666746139526,14.666633373069763,13.333366746139527,14.000033373069764,13.333366746139527,12.126633373069764C13.333366746139527,12.126633373069764,13.333366746139527,3.873333373069763,13.333366746139527,3.873333373069763C13.333366746139527,2.000000373069763,12.666666746139526,1.3333333730697632,10.826666746139527,1.3333333730697632ZM7.9999967461395265,12.866633373069764C7.359996746139526,12.866633373069764,6.833336746139526,12.340033373069764,6.833336746139526,11.700033373069763C6.833336746139526,11.060003373069764,7.359996746139526,10.533333373069762,7.9999967461395265,10.533333373069762C8.639996746139527,10.533333373069762,9.166666746139526,11.060003373069764,9.166666746139526,11.700033373069763C9.166666746139526,12.340033373069764,8.639996746139527,12.866633373069764,7.9999967461395265,12.866633373069764ZM9.333336746139526,4.166663373069763C9.333336746139526,4.166663373069763,6.666666746139526,4.166663373069763,6.666666746139526,4.166663373069763C6.393336746139527,4.166663373069763,6.166666746139526,3.940003373069763,6.166666746139526,3.6666633730697633C6.166666746139526,3.3933333730697632,6.393336746139527,3.1666633730697633,6.666666746139526,3.1666633730697633C6.666666746139526,3.1666633730697633,9.333336746139526,3.1666633730697633,9.333336746139526,3.1666633730697633C9.606666746139528,3.1666633730697633,9.833336746139526,3.3933333730697632,9.833336746139526,3.6666633730697633C9.833336746139526,3.940003373069763,9.606666746139528,4.166663373069763,9.333336746139526,4.166663373069763Z" fill="#000000" fill-opacity="1"/></g><g transform="matrix(-1,0,0,-1,32,32)" style="opacity:0;"></g></g></svg>