<svg xmlns="http://www.w3.org/2000/svg" xmlns:xlink="http://www.w3.org/1999/xlink" fill="none" version="1.1" width="24" height="24" viewBox="0 0 24 24"><defs><clipPath id="master_svg0_112_00962"><rect x="0" y="0" width="24" height="24" rx="0"/></clipPath></defs><g clip-path="url(#master_svg0_112_00962)"><g><g><rect x="0" y="0" width="24" height="24" rx="0" fill="#FFFFFF" fill-opacity="0.009999999776482582"/></g><g><g><path d="M6.876688,14.3873Q6.25,15.614,6.25,17Q6.25,19.3817,7.934136,21.0659Q9.618269999999999,22.75,12,22.75Q14.381730000000001,22.75,16.06586,21.0659Q17.75,19.3817,17.75,17Q17.75,15.614,17.1233,14.3873Q16.605330000000002,13.3733,15.75,12.6403L15.75,5Q15.75,3.4467,14.65165,2.34835Q13.5533,1.25,12,1.25Q10.4467,1.25,9.34835,2.348349Q8.25,3.4467,8.25,5L8.25,12.6403Q7.3946629999999995,13.3733,6.876688,14.3873ZM8.9948,20.0052Q7.75,18.7604,7.75,17Q7.75,15.975,8.21248,15.0697Q8.66051,14.1926,9.45043,13.5993Q9.520199999999999,13.5469,9.57607,13.4799Q9.63195,13.4129,9.67094,13.3348Q9.70994,13.2567,9.72997,13.1718Q9.75,13.0869,9.75,12.9996L9.75,5Q9.75,4.068020000000001,10.40901,3.4090100000000003Q11.06802,2.75,12,2.75Q12.93198,2.75,13.59099,3.4090100000000003Q14.25,4.068020000000001,14.25,5L14.25,12.9996Q14.25,13.0869,14.27003,13.1718Q14.29006,13.2567,14.32906,13.3348Q14.36805,13.4129,14.42393,13.4799Q14.479800000000001,13.5469,14.54957,13.5993Q15.33949,14.1926,15.78752,15.0697Q16.25,15.975,16.25,17Q16.25,18.7604,15.0052,20.0052Q13.76041,21.25,12,21.25Q10.23959,21.25,8.9948,20.0052Z" fill-rule="evenodd" fill="#333333" fill-opacity="1"/></g><g><path d="M11.25,8.5L11.25,15Q11.25,15.07387,11.264410999999999,15.14632Q11.278822,15.21877,11.30709,15.28701Q11.335359,15.355260000000001,11.376398,15.41668Q11.417437,15.478100000000001,11.46967,15.53033Q11.521903,15.58256,11.583322,15.6236Q11.644742,15.66464,11.712987,15.692910000000001Q11.781233,15.72118,11.853682,15.73559Q11.9261315,15.75,12,15.75Q12.0738685,15.75,12.146318,15.73559Q12.218767,15.72118,12.287013,15.692910000000001Q12.355258,15.66464,12.416678,15.6236Q12.478097,15.58256,12.53033,15.53033Q12.582563,15.478100000000001,12.623602,15.41668Q12.664641,15.355260000000001,12.69291,15.28701Q12.721178,15.21877,12.735589000000001,15.14632Q12.75,15.07387,12.75,15L12.75,8.5Q12.75,8.4261315,12.735589000000001,8.353682Q12.721178,8.281233,12.69291,8.212987Q12.664641,8.144742,12.623602,8.083322Q12.582563,8.021903,12.53033,7.96967Q12.478097,7.917437,12.416678,7.876398Q12.355258,7.835359,12.287013,7.80709Q12.218767,7.778822,12.146318,7.764411Q12.0738685,7.75,12,7.75Q11.9261315,7.75,11.853682,7.764411Q11.781233,7.778822,11.712987,7.80709Q11.644742,7.835359,11.583322,7.876398Q11.521903,7.917437,11.46967,7.96967Q11.417437,8.021903,11.376398,8.083322Q11.335359,8.144742,11.30709,8.212987Q11.278822,8.281233,11.264410999999999,8.353682Q11.25,8.4261315,11.25,8.5Z" fill-rule="evenodd" fill="#333333" fill-opacity="1"/></g><g><ellipse cx="12" cy="17" rx="2" ry="2" fill-opacity="0" stroke-opacity="1" stroke="#333333" fill="none" stroke-width="1.5" stroke-linejoin="round"/></g></g></g></g></svg>