<svg xmlns="http://www.w3.org/2000/svg" xmlns:xlink="http://www.w3.org/1999/xlink" fill="none" version="1.1" width="24" height="24" viewBox="0 0 24 24"><defs><clipPath id="master_svg0_306_01163"><rect x="0" y="0" width="24" height="24" rx="0"/></clipPath></defs><g clip-path="url(#master_svg0_306_01163)"><g><path d="M9,12.9997L9,5C9,3.34314,10.34315,2,12,2C13.65685,2,15,3.34314,15,5L15,12.9997C16.21445,13.9118,17,15.3642,17,17C17,19.7614,14.7614,22,12,22C9.2386,22,7,19.7614,7,17C7,15.3642,7.78555,13.9118,9,12.9997ZM13,14.162Q13.61991,14.3773,14.121310000000001,14.8787Q15,15.7574,15,17Q15,18.2426,14.121310000000001,19.1213Q13.242619999999999,20,12,20Q10.75738,20,9.87869,19.1213Q9,18.2426,9,17Q9,15.7574,9.87869,14.8787Q10.38009,14.3773,11,14.162L11,6.86667C11,6.38802,11.44772,6,12,6C12.55228,6,13,6.38802,13,6.86667L13,14.162Z" fill-rule="evenodd" fill="#015C5F" fill-opacity="1"/><path d="M8.5,12.9997L8.5,5Q8.5,3.55025,9.52513,2.525126Q10.55025,1.5,12,1.5Q13.44974,1.5,14.47487,2.525126Q15.5,3.55025,15.5,5L15.5,12.9997L15,12.9997L15.30029,12.5999Q16.32122,13.3667,16.90068,14.501Q17.5,15.6742,17.5,17Q17.5,19.2782,15.88908,20.8891Q14.27816,22.5,12,22.5Q9.72184,22.5,8.11092,20.8891Q6.5,19.2782,6.5,17Q6.5,15.6742,7.0993181,14.501Q7.678784,13.3667,8.69971,12.5999L9,12.9997L8.5,12.9997ZM9.5,12.9997Q9.5,13.1176,9.44729,13.2231Q9.39459,13.3286,9.30029,13.3994Q8.46416,14.0275,7.989844,14.9559Q7.5,15.9148,7.5,17Q7.5,18.8639,8.81803,20.182Q10.13606,21.5,12,21.5Q13.86394,21.5,15.18197,20.182Q16.5,18.8639,16.5,17Q16.5,15.9148,16.01016,14.9559Q15.53584,14.0275,14.69971,13.3994Q14.60541,13.3286,14.552710000000001,13.2231Q14.5,13.1176,14.5,12.9997L14.5,5Q14.5,3.96447,13.767769999999999,3.23223Q13.03553,2.5,12,2.5Q10.96447,2.5,10.23223,3.23223Q9.5,3.96447,9.5,5L9.5,12.9997ZM13.16404,13.6897Q13.892330000000001,13.9426,14.47487,14.5251Q15.5,15.5503,15.5,17Q15.5,18.4497,14.47487,19.4749Q13.449729999999999,20.5,12,20.5Q10.55027,20.5,9.52513,19.4749Q8.5,18.4497,8.5,17Q8.5,15.5503,9.52513,14.5251Q10.10767,13.9426,10.83596,13.6897L11,14.162L10.5,14.162L10.5,6.86667Q10.5,6.27937,10.96543,5.8759999999999994Q11.39927,5.5,12,5.5Q12.60073,5.5,13.03457,5.8759999999999994Q13.5,6.27937,13.5,6.86667L13.5,14.162L13,14.162L13.16404,13.6897ZM12.83596,14.6343Q12.76237,14.6088,12.700040000000001,14.562Q12.63771,14.5153,12.592559999999999,14.4518Q12.5474,14.3883,12.5237,14.3141Q12.5,14.2399,12.5,14.162L12.5,6.86667Q12.5,6.736,12.37964,6.63169Q12.227699999999999,6.5,12,6.5Q11.772300000000001,6.5,11.62036,6.63169Q11.5,6.736,11.5,6.86667L11.5,14.162Q11.5,14.2399,11.4763,14.3141Q11.4526,14.3883,11.407440000000001,14.4518Q11.36229,14.5153,11.299959999999999,14.562Q11.23763,14.6088,11.16404,14.6343Q10.65251,14.812,10.232240000000001,15.2322Q9.5,15.9645,9.5,17Q9.5,18.0355,10.232240000000001,18.7678Q10.96448,19.5,12,19.5Q13.03552,19.5,13.767759999999999,18.7678Q14.5,18.0355,14.5,17Q14.5,15.9645,13.767759999999999,15.2322Q13.34749,14.812,12.83596,14.6343Z" fill="#015C5F" fill-opacity="1"/></g></g></svg>