<svg xmlns="http://www.w3.org/2000/svg" xmlns:xlink="http://www.w3.org/1999/xlink" fill="none" version="1.1" width="24" height="24" viewBox="0 0 24 24"><g><g><path d="M3,5.25L21,5.25Q21.0739,5.25,21.1463,5.235589Q21.2188,5.221178,21.287,5.19291Q21.3553,5.164641,21.4167,5.123602Q21.4781,5.082563,21.5303,5.03033Q21.5826,4.978097,21.6236,4.916678Q21.6646,4.855258,21.6929,4.787013Q21.7212,4.718767,21.7356,4.646318Q21.75,4.5738685,21.75,4.5Q21.75,4.4261315,21.7356,4.353682Q21.7212,4.281233,21.6929,4.212987Q21.6646,4.144742,21.6236,4.083322Q21.5826,4.021903,21.5303,3.96967Q21.4781,3.917437,21.4167,3.876398Q21.3553,3.835359,21.287,3.80709Q21.2188,3.778822,21.1463,3.764411Q21.0739,3.75,21,3.75L3,3.75Q2.9261315,3.75,2.853682,3.764411Q2.781233,3.778822,2.712987,3.80709Q2.644742,3.835359,2.583322,3.876398Q2.521903,3.917437,2.46967,3.96967Q2.417437,4.021903,2.376398,4.083322Q2.335359,4.144742,2.30709,4.212987Q2.278822,4.281233,2.264411,4.353682Q2.25,4.4261315,2.25,4.5Q2.25,4.5738685,2.264411,4.646318Q2.278822,4.718767,2.30709,4.787013Q2.335359,4.855258,2.376398,4.916678Q2.417437,4.978097,2.46967,5.03033Q2.521903,5.082563,2.583322,5.123602Q2.644742,5.164641,2.712987,5.19291Q2.781233,5.221178,2.853682,5.235589Q2.9261315,5.25,3,5.25Z" fill-rule="evenodd" fill="#015C5F" fill-opacity="1"/></g><g><path d="M3,12.75L21,12.75Q21.0739,12.75,21.1463,12.735589000000001Q21.2188,12.721178,21.287,12.69291Q21.3553,12.664641,21.4167,12.623602Q21.4781,12.582563,21.5303,12.53033Q21.5826,12.478097,21.6236,12.416678Q21.6646,12.355258,21.6929,12.287013Q21.7212,12.218767,21.7356,12.146318Q21.75,12.0738685,21.75,12Q21.75,11.9261315,21.7356,11.853682Q21.7212,11.781233,21.6929,11.712987Q21.6646,11.644742,21.6236,11.583322Q21.5826,11.521903,21.5303,11.46967Q21.4781,11.417437,21.4167,11.376398Q21.3553,11.335359,21.287,11.30709Q21.2188,11.278822,21.1463,11.264410999999999Q21.0739,11.25,21,11.25L3,11.25Q2.9261315,11.25,2.853682,11.264410999999999Q2.781233,11.278822,2.712987,11.30709Q2.644742,11.335359,2.583322,11.376398Q2.521903,11.417437,2.46967,11.46967Q2.417437,11.521903,2.376398,11.583322Q2.335359,11.644742,2.30709,11.712987Q2.278822,11.781233,2.264411,11.853682Q2.25,11.9261315,2.25,12Q2.25,12.0738685,2.264411,12.146318Q2.278822,12.218767,2.30709,12.287013Q2.335359,12.355258,2.376398,12.416678Q2.417437,12.478097,2.46967,12.53033Q2.521903,12.582563,2.583322,12.623602Q2.644742,12.664641,2.712987,12.69291Q2.781233,12.721178,2.853682,12.735589000000001Q2.9261315,12.75,3,12.75Z" fill-rule="evenodd" fill="#015C5F" fill-opacity="1"/></g><g><path d="M3,20.75L12.47,20.75Q12.54387,20.75,12.61632,20.735589Q12.68877,20.721178,12.75701,20.69291Q12.82526,20.664641,12.88668,20.623601999999998Q12.9481,20.582563,13.0003,20.53033Q13.0526,20.478096999999998,13.0936,20.416678Q13.1346,20.355258,13.1629,20.287013Q13.1912,20.218767,13.2056,20.146318Q13.22,20.0738685,13.22,20Q13.22,19.9261315,13.2056,19.853682Q13.1912,19.781233,13.1629,19.712987Q13.1346,19.644742,13.0936,19.583322Q13.0526,19.521903000000002,13.0003,19.46967Q12.9481,19.417437,12.88668,19.376398000000002Q12.82526,19.335359,12.75701,19.30709Q12.68877,19.278822,12.61632,19.264411Q12.54387,19.25,12.47,19.25L3,19.25Q2.9261315,19.25,2.853682,19.264411Q2.781233,19.278822,2.712987,19.30709Q2.644742,19.335359,2.583322,19.376398000000002Q2.521903,19.417437,2.46967,19.46967Q2.417437,19.521903000000002,2.376398,19.583322Q2.335359,19.644742,2.30709,19.712987Q2.278822,19.781233,2.264411,19.853682Q2.25,19.9261315,2.25,20Q2.25,20.0738685,2.264411,20.146318Q2.278822,20.218767,2.30709,20.287013Q2.335359,20.355258,2.376398,20.416678Q2.417437,20.478096999999998,2.46967,20.53033Q2.521903,20.582563,2.583322,20.623601999999998Q2.644742,20.664641,2.712987,20.69291Q2.781233,20.721178,2.853682,20.735589Q2.9261315,20.75,3,20.75Z" fill-rule="evenodd" fill="#015C5F" fill-opacity="1"/></g><g transform="matrix(-1,0,0,-1,48,48)" style="opacity:0;"></g></g></svg>