<svg xmlns="http://www.w3.org/2000/svg" xmlns:xlink="http://www.w3.org/1999/xlink" fill="none" version="1.1" width="24" height="24" viewBox="0 0 24 24"><g><g><path d="M17.390047715759277,15.67C17.390047715759277,15.67,13.349997715759278,12,13.349997715759278,12C13.349997715759278,12,10.639997715759279,12,10.639997715759279,12C10.639997715759279,12,6.599997715759278,15.67,6.599997715759278,15.67C5.469999915759277,16.69,5.099999715759277,18.259999999999998,5.649999715759277,19.68C6.199999715759278,21.09,7.539997715759277,22,9.049997715759277,22C9.049997715759277,22,14.939997715759278,22,14.939997715759278,22C16.460047715759277,22,17.79004771575928,21.09,18.340047715759276,19.68C18.890047715759277,18.259999999999998,18.520047715759276,16.69,17.390047715759277,15.67ZM13.819997715759277,18.14C13.819997715759277,18.14,10.179997715759278,18.14,10.179997715759278,18.14C9.799997715759277,18.14,9.499997715759278,17.83,9.499997715759278,17.46C9.499997715759278,17.09,9.809997715759277,16.78,10.179997715759278,16.78C10.179997715759278,16.78,13.819997715759277,16.78,13.819997715759277,16.78C14.199997715759277,16.78,14.499997715759278,17.09,14.499997715759278,17.46C14.499997715759278,17.83,14.189997715759278,18.14,13.819997715759277,18.14Z" fill="#000000" fill-opacity="1"/></g><g><path d="M18.350001501464845,4.32C17.80000150146484,2.91,16.460001501464845,2,14.950001501464843,2C14.950001501464843,2,9.050001501464845,2,9.050001501464845,2C7.540001501464843,2,6.200000501464844,2.91,5.650000501464843,4.32C5.110000501464844,5.74,5.480000401464844,7.31,6.610001501464843,8.33C6.610001501464843,8.33,10.650001501464843,12,10.650001501464843,12C10.650001501464843,12,13.360001501464843,12,13.360001501464843,12C13.360001501464843,12,17.400001501464843,8.33,17.400001501464843,8.33C18.520001501464844,7.31,18.890001501464845,5.74,18.350001501464845,4.32ZM13.820001501464844,7.23C13.820001501464844,7.23,10.180001501464844,7.23,10.180001501464844,7.23C9.800001501464845,7.23,9.500001501464844,6.92,9.500001501464844,6.55C9.500001501464844,6.18,9.810001501464843,5.87,10.180001501464844,5.87C10.180001501464844,5.87,13.820001501464844,5.87,13.820001501464844,5.87C14.200001501464843,5.87,14.500001501464844,6.18,14.500001501464844,6.55C14.500001501464844,6.92,14.190001501464844,7.23,13.820001501464844,7.23Z" fill="#000000" fill-opacity="1"/></g><g transform="matrix(-1,0,0,-1,48,48)" style="opacity:0;"><path d="M24,24C24,24,48,24,48,24C48,24,48,48,48,48C48,48,24,48,24,48C24,48,24,24,24,24Z" fill="#000000" fill-opacity="1"/></g></g></svg>