<svg xmlns="http://www.w3.org/2000/svg" xmlns:xlink="http://www.w3.org/1999/xlink" fill="none" version="1.1" width="20" height="20" viewBox="0 0 20 20"><defs><clipPath id="master_svg0_223_16350"><rect x="0" y="0" width="20" height="20" rx="0"/></clipPath></defs><g clip-path="url(#master_svg0_223_16350)"><g><g><path d="M4.503312945365906,2L4.503312945365906,7.68629Q4.503312945365906,10.02114,6.109142945365906,11.67419Q7.720892945365906,13.3333,10.003312945365906,13.3333Q12.285742945365905,13.3333,13.897482945365907,11.67419Q15.503312945365906,10.02114,15.503312945365906,7.68629L15.503312945365906,2Q15.503312945365906,1.9507543,15.493712945365905,1.9024549Q15.484112945365906,1.854155,15.465212945365906,1.8086579999999999Q15.446412945365905,1.763161,15.419012945365905,1.722215Q15.391712945365907,1.681269,15.356912945365906,1.646447Q15.322012945365906,1.611625,15.281112945365905,1.584265Q15.240112945365906,1.5569060000000001,15.194612945365906,1.53806Q15.149112945365905,1.519215,15.100812945365906,1.509607Q15.052512945365907,1.5,15.003312945365906,1.5L5.003312945365906,1.5Q4.954067245365906,1.5,4.905767845365906,1.509607Q4.857467945365906,1.519215,4.811970945365906,1.53806Q4.766473945365906,1.5569060000000001,4.725527945365906,1.584265Q4.684581945365906,1.611625,4.649759945365906,1.646447Q4.614937945365906,1.681269,4.587577945365906,1.722215Q4.560218945365905,1.763161,4.5413729453659055,1.8086579999999999Q4.522527945365906,1.854155,4.512919945365906,1.9024549Q4.503312945365906,1.9507543,4.503312945365906,2ZM6.8264229453659055,10.9774Q5.503312945365906,9.61539,5.503312945365906,7.68629L5.503312945365906,2.5L14.503312945365906,2.5L14.503312945365906,7.68629Q14.503312945365906,9.61538,13.180202945365906,10.9774Q11.863012945365906,12.3333,10.003312945365906,12.3333Q8.143612945365906,12.3333,6.8264229453659055,10.9774Z" fill-rule="evenodd" fill="#232D42" fill-opacity="1" style="mix-blend-mode:passthrough"/></g><g><path d="M1.6699999570846558,4.416748046875Q1.6207542570846558,4.416748046875,1.5724548570846557,4.426355046875Q1.5241549570846558,4.435963046875,1.4786579570846556,4.454808046875Q1.4331609570846557,4.473654046875,1.3922149570846558,4.501013046875Q1.3512689570846557,4.528373046875,1.3164469570846558,4.563195046875Q1.2816249570846558,4.598017046875,1.2542649570846558,4.638963046875Q1.2269059570846559,4.679909046875,1.2080599570846557,4.725406046875Q1.1892149570846557,4.770903046875,1.1796069570846557,4.819202946875Q1.1699999570846558,4.867502346875,1.1699999570846558,4.916748046875Q1.1699999570846558,7.076218046875,2.340019957084656,8.376238046875Q3.4264799570846556,9.583418046875,5.003329957084656,9.583418046875Q5.052579957084656,9.583418046875,5.100879957084656,9.573808046875001Q5.149179957084655,9.564198046875,5.194669957084656,9.545358046875Q5.240169957084656,9.526508046875,5.281119957084655,9.499148046875Q5.322059957084656,9.471788046875,5.356889957084656,9.436968046875Q5.391709957084656,9.402148046875,5.419069957084655,9.361198046875Q5.446429957084655,9.320248046875001,5.465269957084656,9.274758046875Q5.484119957084656,9.229258046875,5.4937199570846555,9.180958046875Q5.503329957084656,9.132658046875001,5.503329957084656,9.083418046875L5.503329957084656,4.916748046875Q5.503329957084656,4.867502346875,5.4937199570846555,4.819202946875Q5.484119957084656,4.770903046875,5.465269957084656,4.725406046875Q5.446429957084655,4.679909046875,5.419069957084655,4.638963046875Q5.391709957084656,4.598017046875,5.356889957084656,4.563195046875Q5.322059957084656,4.528373046875,5.281119957084655,4.501013046875Q5.240169957084656,4.473654046875,5.194669957084656,4.454808046875Q5.149179957084655,4.435963046875,5.100879957084656,4.426355046875Q5.052579957084656,4.416748046875,5.003329957084656,4.416748046875L1.6699999570846558,4.416748046875ZM2.1892849570846558,5.416748046875Q2.302714957084656,6.839938046875,3.083309957084656,7.707268046875Q3.691359957084656,8.382878046875,4.503329957084656,8.537518046875L4.503329957084656,5.416748046875L2.1892849570846558,5.416748046875Z" fill-rule="evenodd" fill="#232D42" fill-opacity="1" style="mix-blend-mode:passthrough"/></g><g><path d="M17.666622945365905,8.7928640234375Q18.836642945365906,7.4928440234375,18.836642945365906,5.3333740234375Q18.836642945365906,5.2841283234375,18.827042945365907,5.2358289234375Q18.817432945365905,5.1875290234375,18.798582945365904,5.1420320234375Q18.779742945365907,5.0965350234375,18.752382945365905,5.0555890234375Q18.725022945365907,5.0146430234375,18.690202945365904,4.9798210234375Q18.655372945365905,4.9449990234375,18.614432945365905,4.9176390234375Q18.573482945365907,4.8902800234375,18.527992945365906,4.8714340234375Q18.482492945365905,4.8525890234375,18.434192945365908,4.8429810234375Q18.385892945365907,4.8333740234375,18.336642945365906,4.8333740234375L15.003312945365906,4.8333740234375Q14.954067245365906,4.8333740234375,14.905767845365906,4.8429810234375Q14.857467945365906,4.8525890234375,14.811970945365905,4.8714340234375Q14.766473945365906,4.8902800234375,14.725527945365906,4.9176390234375Q14.684581945365906,4.9449990234375,14.649759945365906,4.9798210234375Q14.614937945365906,5.0146430234375,14.587577945365906,5.0555890234375Q14.560218945365905,5.0965350234375,14.541372945365906,5.1420320234375Q14.522527945365905,5.1875290234375,14.512919945365907,5.2358289234375Q14.503312945365906,5.2841283234375,14.503312945365906,5.3333740234375L14.503312945365906,9.5000440234375Q14.503312945365906,9.549284023437501,14.512919945365907,9.5975840234375Q14.522527945365905,9.6458840234375,14.541372945365906,9.6913840234375Q14.560218945365905,9.736874023437501,14.587577945365906,9.7778240234375Q14.614937945365906,9.8187740234375,14.649759945365906,9.8535940234375Q14.684581945365906,9.8884140234375,14.725527945365906,9.9157740234375Q14.766473945365906,9.9431340234375,14.811970945365905,9.9619840234375Q14.857467945365906,9.9808240234375,14.905767845365906,9.990434023437501Q14.954067245365906,10.0000440234375,15.003312945365906,10.0000440234375Q16.580162945365906,10.0000440234375,17.666622945365905,8.7928640234375ZM17.817362945365907,5.8333740234375Q17.703932945365906,7.2565640234375,16.923332945365907,8.1238940234375Q16.315282945365905,8.7995040234375,15.503312945365906,8.9541440234375L15.503312945365906,5.8333740234375L17.817362945365907,5.8333740234375Z" fill-rule="evenodd" fill="#232D42" fill-opacity="1" style="mix-blend-mode:passthrough"/></g><g><path d="M9.503312945365906,13.3333740234375Q9.503312945365906,13.2841283234375,9.512919945365907,13.2358289234375Q9.522527945365905,13.1875290234375,9.541372945365906,13.1420320234375Q9.560218945365905,13.0965350234375,9.587577945365906,13.0555890234375Q9.614937945365906,13.0146430234375,9.649759945365906,12.9798210234375Q9.684581945365906,12.9449990234375,9.725527945365906,12.9176390234375Q9.766473945365906,12.8902800234375,9.811970945365905,12.8714340234375Q9.857467945365906,12.852589023437499,9.905767845365906,12.8429810234375Q9.954067245365906,12.8333740234375,10.003312945365906,12.8333740234375Q10.052558645365906,12.8333740234375,10.100858045365905,12.8429810234375Q10.149157945365905,12.852589023437499,10.194654945365906,12.8714340234375Q10.240151945365906,12.8902800234375,10.281097945365905,12.9176390234375Q10.322043945365905,12.9449990234375,10.356865945365906,12.9798210234375Q10.391687945365906,13.0146430234375,10.419047945365906,13.0555890234375Q10.446406945365906,13.0965350234375,10.465252945365906,13.1420320234375Q10.484097945365907,13.1875290234375,10.493705945365905,13.2358289234375Q10.503312945365906,13.2841283234375,10.503312945365906,13.3333740234375L10.503312945365906,15.3333740234375Q10.503312945365906,15.3826240234375,10.493705945365905,15.4309140234375Q10.484097945365907,15.4792140234375,10.465252945365906,15.5247140234375Q10.446406945365906,15.5702140234375,10.419047945365906,15.6111540234375Q10.391687945365906,15.6521040234375,10.356865945365906,15.6869240234375Q10.322043945365905,15.7217540234375,10.281097945365905,15.7491040234375Q10.240151945365906,15.7764640234375,10.194654945365906,15.7953140234375Q10.149157945365905,15.8141540234375,10.100858045365905,15.8237640234375Q10.052558645365906,15.8333740234375,10.003312945365906,15.8333740234375Q9.954067245365906,15.8333740234375,9.905767845365906,15.8237640234375Q9.857467945365906,15.8141540234375,9.811970945365905,15.7953140234375Q9.766473945365906,15.7764640234375,9.725527945365906,15.7491040234375Q9.684581945365906,15.7217540234375,9.649759945365906,15.6869240234375Q9.614937945365906,15.6521040234375,9.587577945365906,15.6111640234375Q9.560218945365905,15.5702140234375,9.541372945365906,15.5247140234375Q9.522527945365905,15.4792140234375,9.512919945365907,15.4309140234375Q9.503312945365906,15.3826240234375,9.503312945365906,15.3333740234375L9.503312945365906,13.3333740234375Z" fill-rule="evenodd" fill="#232D42" fill-opacity="1" style="mix-blend-mode:passthrough"/></g><g><path d="M6.253312945365906,18.3333740234375L13.753312945365906,18.3333740234375Q13.903362945365906,18.3333740234375,14.028612945365905,18.2507540234375Q14.069722945365907,18.2236440234375,14.104752945365906,18.1890340234375Q14.139782945365905,18.1544140234375,14.167382945365905,18.1136340234375Q14.194982945365906,18.0728540234375,14.214102945365905,18.0274640234375Q14.233222945365906,17.9820840234375,14.243112945365905,17.9338440234375Q14.253012945365906,17.8856040234375,14.253302945365906,17.8363540234375Q14.253592945365906,17.7871140234375,14.244272945365907,17.7387540234375Q14.234962945365906,17.6904040234375,14.216382945365906,17.6447940234375Q14.197812945365905,17.599184023437502,14.170692945365905,17.5580740234375L12.521742945365906,15.0580740234375Q12.487572945365905,15.0062780234375,12.441782945365905,14.964404023437499Q12.396002945365906,14.9225310234375,12.341362945365905,14.8931180234375Q12.286732945365905,14.8637060234375,12.226562945365906,14.8485400234375Q12.166402945365906,14.8333740234375,12.104352945365907,14.8333740234375L7.790812945365905,14.8333740234375Q7.726752945365906,14.8333740234375,7.664762945365906,14.8495240234375Q7.602772945365906,14.8656740234375,7.546852945365906,14.8969310234375Q7.4909329453659055,14.9281880234375,7.444702945365906,14.9725320234375Q7.3984729453659055,15.0168770234375,7.364912945365906,15.0714440234375L5.827410945365906,17.5714440234375Q5.753312945365906,17.6919240234375,5.753312945365906,17.8333740234375Q5.753312945365906,17.8826240234375,5.762919945365906,17.9309140234375Q5.772527945365906,17.9792140234375,5.7913729453659055,18.0247140234375Q5.810218945365905,18.0702140234375,5.837577945365906,18.1111540234375Q5.864937945365906,18.1521040234375,5.899759945365906,18.1869240234375Q5.934581945365906,18.221744023437502,5.975527945365906,18.2491040234375Q6.016473945365906,18.2764640234375,6.061970945365906,18.2953140234375Q6.107467945365906,18.3141540234375,6.155767845365906,18.3237640234375Q6.204067245365906,18.3333740234375,6.253312945365906,18.3333740234375ZM12.824552945365905,17.3333740234375L7.147801945365906,17.3333740234375L8.070302945365906,15.8333740234375L11.835182945365906,15.8333740234375L12.824552945365905,17.3333740234375Z" fill-rule="evenodd" fill="#232D42" fill-opacity="1" style="mix-blend-mode:passthrough"/></g><g><path d="M11.372042945365905,5.7306240234375Q11.282412945365905,5.5728340234375,11.104662945365906,5.5363540234375L12.784562945365906,5.8811340234375Q13.126642945365905,5.9513540234375,13.234562945365905,6.2834740234375Q13.342472945365905,6.6156040234375,13.106992945365906,6.8734840234375L11.950582945365905,8.1398340234375Q12.072942945365906,8.005834023437501,12.052712945365906,7.8255040234374995L12.243922945365906,9.5297340234375Q12.282862945365906,9.8767740234375,12.000332945365905,10.0820440234375Q11.717812945365907,10.2873040234375,11.399782945365907,10.143034023437501L9.838062945365905,9.4345440234375Q10.003312945365906,9.5095140234375,10.168562945365906,9.4345440234375L8.606842945365905,10.143034023437501Q8.288812945365907,10.2873040234375,8.006292945365907,10.0820440234375Q7.723765945365906,9.8767740234375,7.7627029453659055,9.5297340234375L7.953911945365906,7.8255040234374995Q7.933678945365906,8.005834023437501,8.056042945365906,8.1398340234375L6.8996359453659055,6.8734840234375Q6.6641489453659055,6.6156040234375,6.772062945365906,6.2834740234375Q6.879977945365906,5.9513540234375,7.222067945365906,5.8811440234375L8.901962945365906,5.5363540234375Q8.724212945365906,5.5728340234375,8.634582945365906,5.7306240234375L9.481602945365905,4.2394869234375Q9.654092945365907,3.9358370234375,10.003312945365906,3.9358370234375Q10.352532945365905,3.9358370234375,10.525022945365906,4.2394865234375L11.372042945365905,5.7306240234375L11.372042945365905,5.7306240234375ZM10.502532945365907,6.2245340234375L9.655512945365906,4.7334040234375Q9.770502945365905,4.9358370234375,10.003312945365906,4.9358370234375Q10.236122945365906,4.9358370234375,10.351112945365905,4.7334040234375L9.504092945365905,6.2245340234375Q9.369652945365907,6.4612140234375,9.103012945365906,6.5159340234375005L7.423116945365906,6.8607240234375Q7.651176945365906,6.8139140234374995,7.723119945365906,6.592494023437499Q7.795062945365906,6.3710740234375,7.638071945365906,6.1991540234375L8.794482945365905,7.4655140234375Q8.978022945365906,7.6665140234375,8.947672945365905,7.9370040234375L8.756462945365906,9.6412240234375Q8.782422945365905,9.4098640234375,8.594072945365905,9.2730240234375Q8.405722945365905,9.136174023437501,8.193712945365906,9.232364023437501L9.755432945365905,8.5238740234375Q10.003312945365906,8.411424023437501,10.251192945365906,8.5238740234375L11.812912945365905,9.232364023437501Q11.600902945365906,9.136174023437501,11.412552945365906,9.2730240234375Q11.224202945365906,9.4098640234375,11.250152945365905,9.6412240234375L11.058952945365906,7.9370040234375Q11.028602945365906,7.6665140234375,11.212142945365905,7.4655140234375L12.368552945365906,6.1991540234375Q12.211562945365905,6.3710740234375,12.283502945365907,6.592494023437499Q12.355452945365906,6.8139140234374995,12.583502945365906,6.8607240234375L10.903612945365905,6.5159340234375005Q10.636972945365905,6.4612140234375,10.502532945365907,6.2245440234375L10.502532945365907,6.2245340234375Z" fill="#232D42" fill-opacity="1"/></g></g></g></svg>