<svg xmlns="http://www.w3.org/2000/svg" xmlns:xlink="http://www.w3.org/1999/xlink" fill="none" version="1.1" width="18" height="18" viewBox="0 0 18 18"><g><g><path d="M9.562500953674316,11.94000072479248C9.562500953674316,11.94000072479248,10.050000953674317,11.94000072479248,10.050000953674317,11.94000072479248C10.537500953674316,11.94000072479248,10.942500953674315,11.505000724792481,10.942500953674315,10.98000072479248C10.942500953674315,10.32750172479248,10.710000953674317,10.200000724792481,10.327500953674317,10.06500072479248C10.327500953674317,10.06500072479248,9.570001123674317,9.80250072479248,9.570001123674317,9.80250072479248C9.570001123674317,9.80250072479248,9.570001123674317,11.94000072479248,9.570001123674317,11.94000072479248C9.570001123674317,11.94000072479248,9.562500953674316,11.94000072479248,9.562500953674316,11.94000072479248Z" fill="#FFFFFF" fill-opacity="1"/></g><g><path d="M8.97749993209839,1.4250000228408815C4.837499932098389,1.4400000353408813,1.4850000320983887,4.807497435340881,1.5000000719983886,8.947497435340882C1.5150000320983887,13.087487435340881,4.882499932098389,16.439987435340882,9.022499932098388,16.42498743534088C13.162449932098388,16.40998743534088,16.51504993209839,13.042487435340881,16.50004993209839,8.90249743534088C16.485049932098388,4.762497435340881,13.117549932098388,1.4175000253408814,8.97749993209839,1.4250000228408815ZM10.694999932098389,8.99999743534088C11.279999932098388,9.20249743534088,12.06754993209839,9.637497435340881,12.06754993209839,10.97999743534088C12.06754993209839,12.134987435340882,11.159999932098389,13.064987435340882,10.04999993209839,13.064987435340882C10.04999993209839,13.064987435340882,9.562499932098389,13.064987435340882,9.562499932098389,13.064987435340882C9.562499932098389,13.064987435340882,9.562499932098389,13.49998743534088,9.562499932098389,13.49998743534088C9.562499932098389,13.807487435340882,9.307499932098388,14.06248743534088,8.999999932098389,14.06248743534088C8.69249993209839,14.06248743534088,8.437499932098389,13.807487435340882,8.437499932098389,13.49998743534088C8.437499932098389,13.49998743534088,8.437499932098389,13.064987435340882,8.437499932098389,13.064987435340882C8.437499932098389,13.064987435340882,8.167499932098389,13.064987435340882,8.167499932098389,13.064987435340882C6.9374999320983886,13.064987435340882,5.939999932098389,12.029987435340882,5.939999932098389,10.754997435340881C5.939999932098389,10.447497435340882,6.194999932098389,10.192497435340881,6.502499932098389,10.192497435340881C6.809999932098389,10.192497435340881,7.064999932098389,10.447497435340882,7.064999932098389,10.754997435340881C7.064999932098389,11.407497435340881,7.559999932098389,11.939987435340882,8.167499932098389,11.939987435340882C8.167499932098389,11.939987435340882,8.437499932098389,11.939987435340882,8.437499932098389,11.939987435340882C8.437499932098389,11.939987435340882,8.437499932098389,9.404997435340881,8.437499932098389,9.404997435340881C8.437499932098389,9.404997435340881,7.304999932098388,8.99999743534088,7.304999932098388,8.99999743534088C6.719999932098388,8.797497435340881,5.932499932098389,8.362497435340881,5.932499932098389,7.019997435340882C5.932499932098389,5.864997435340881,6.839999932098388,4.934997435340881,7.949999932098389,4.934997435340881C7.949999932098389,4.934997435340881,8.437499932098389,4.934997435340881,8.437499932098389,4.934997435340881C8.437499932098389,4.934997435340881,8.437499932098389,4.499997435340881,8.437499932098389,4.499997435340881C8.437499932098389,4.192497435340881,8.69249993209839,3.937497435340881,8.999999932098389,3.937497435340881C9.307499932098388,3.937497435340881,9.562499932098389,4.192497435340881,9.562499932098389,4.499997435340881C9.562499932098389,4.499997435340881,9.562499932098389,4.934997435340881,9.562499932098389,4.934997435340881C9.562499932098389,4.934997435340881,9.832499932098388,4.934997435340881,9.832499932098388,4.934997435340881C11.062499932098389,4.934997435340881,12.060049932098389,5.969997435340882,12.060049932098389,7.244997435340881C12.060049932098389,7.552497435340881,11.805049932098388,7.807497435340881,11.497499932098389,7.807497435340881C11.189999932098388,7.807497435340881,10.934999932098389,7.552497435340881,10.934999932098389,7.244997435340881C10.934999932098389,6.592497435340881,10.439999932098388,6.059997435340882,9.832499932098388,6.059997435340882C9.832499932098388,6.059997435340882,9.562499932098389,6.059997435340882,9.562499932098389,6.059997435340882C9.562499932098389,6.059997435340882,9.562499932098389,8.594997435340883,9.562499932098389,8.594997435340883C9.562499932098389,8.594997435340883,10.694999932098389,8.99999743534088,10.694999932098389,8.99999743534088Z" fill="#FFFFFF" fill-opacity="1"/></g><g><path d="M7.065000534057617,7.0275004196166995C7.065000534057617,7.680000419616699,7.297500534057617,7.8075004196167,7.680000534057617,7.9425004196166995C7.680000534057617,7.9425004196166995,8.437500534057618,8.205000419616699,8.437500534057618,8.205000419616699C8.437500534057618,8.205000419616699,8.437500534057618,6.060000419616699,8.437500534057618,6.060000419616699C8.437500534057618,6.060000419616699,7.950000534057617,6.060000419616699,7.950000534057617,6.060000419616699C7.462500534057617,6.060000419616699,7.065000534057617,6.495000419616699,7.065000534057617,7.0275004196166995Z" fill="#FFFFFF" fill-opacity="1"/></g><g style="opacity:0;"></g></g></svg>