<svg xmlns="http://www.w3.org/2000/svg" xmlns:xlink="http://www.w3.org/1999/xlink" fill="none" version="1.1" width="16" height="21.587890625" viewBox="0 0 16 21.587890625"><g><g><path d="M9.67026890625,21.587600000000002Q11.06366890625,21.5744,12.54547890625,20.9394Q14.06857890625,20.2866,15.42217890625,18.3676Q15.99997890625,17.548299999999998,15.99997890625,16.433999999999997L15.99997890625,12.5Q15.99997890625,11.671579999999999,15.41417890625,11.08579Q14.82837890625,10.5,13.99997890625,10.5Q13.62637890625,10.5,13.30217890625,10.619119999999999Q13.15957890625,10.33117,12.91417890625,10.08579Q12.32837890625,9.5,11.49997890625,9.5Q11.12641890625,9.5,10.80217890625,9.61913Q10.65958890625,9.33117,10.41420890625,9.08579Q9.82841890625,8.5,8.99999890625,8.5Q8.73784890625,8.5,8.49999890625,8.55866L8.49999890625,7.5Q8.49999890625,6.671577,7.91420890625,6.085789Q7.32841890625,5.5,6.49999890625,5.5Q5.67156890625,5.5,5.08577890625,6.085789Q4.49999890625,6.671577,4.49999890625,7.5L4.49999890625,11.53803Q3.94610890625,11.19333,3.25524890625,11.15507Q2.2384889062499997,11.09876,1.44327390625,11.7349Q0.71910690625,12.31423,0.52252690625,13.20214Q0.31949890625,14.11917,0.77460890625,14.93632Q3.50378890625,19.8368,6.48728890625,20.9525Q8.22248890625,21.601399999999998,9.67026890625,21.587600000000002ZM6.99999890625,10.5L6.99999890625,7.5Q6.99999890625,7.2928999999999995,6.85354890625,7.1464490000000005Q6.70709890625,7,6.49999890625,7Q6.29288890625,7,6.14643890625,7.1464490000000005Q5.99999890625,7.2928999999999995,5.99999890625,7.5L5.99999890625,13.25Q5.99999890625,13.399180000000001,5.94290890625,13.53701Q5.88580890625,13.67484,5.78032890625,13.78033Q5.72808890625,13.83256,5.66666890625,13.8736Q5.60524890625,13.91464,5.53700890625,13.942910000000001Q5.46875890625,13.97118,5.39630890625,13.98559Q5.32385890625,14,5.24999890625,14Q5.17612890625,14,5.10367890625,13.98559Q5.03122890625,13.97118,4.96297890625,13.942910000000001Q4.89473890625,13.91464,4.83331890625,13.8736Q4.77189890625,13.83256,4.71966890625,13.78033L3.93146890625,12.99213Q3.61671890625,12.67738,3.17229890625,12.65277Q2.72788890625,12.628160000000001,2.3803189062500003,12.9062Q2.06927890625,13.15503,1.98706290625,13.52638Q1.90720190625,13.8871,2.08508090625,14.206479999999999Q3.06908890625,15.97334,4.14862890625,17.2619Q5.63052890625,19.0306,7.01270890625,19.5475Q8.486898906250001,20.0988,9.65600890625,20.087699999999998Q10.74895890625,20.0773,11.95457890625,19.5606Q13.08747890625,19.0751,14.19637890625,17.5031Q14.49997890625,17.072499999999998,14.49997890625,16.433999999999997L14.49997890625,12.5Q14.49997890625,12.2929,14.35357890625,12.14645Q14.20707890625,12,13.99997890625,12Q13.79287890625,12,13.64647890625,12.14645Q13.49997890625,12.2929,13.49997890625,12.5Q13.49997890625,12.57387,13.48557890625,12.64632Q13.47117890625,12.71877,13.44287890625,12.78701Q13.41467890625,12.855260000000001,13.37357890625,12.91668Q13.33257890625,12.978100000000001,13.28027890625,13.03033Q13.22807890625,13.08256,13.16667890625,13.1236Q13.10527890625,13.16464,13.03697890625,13.192910000000001Q12.96877890625,13.22118,12.89627890625,13.23559Q12.82387890625,13.25,12.74997890625,13.25Q12.67607890625,13.25,12.60367890625,13.23559Q12.53117890625,13.22118,12.46297890625,13.192910000000001Q12.39477890625,13.16464,12.33327890625,13.1236Q12.27187890625,13.08256,12.21967890625,13.03033Q12.16747890625,12.978100000000001,12.12637890625,12.91668Q12.08537890625,12.855260000000001,12.05707890625,12.78701Q12.02877890625,12.71877,12.01437890625,12.64632Q11.99997890625,12.57387,11.99997890625,12.5L11.99997890625,11.5Q11.99997890625,11.2929,11.85357890625,11.14645Q11.70707890625,11,11.49997890625,11Q11.29287890625,11,11.14643890625,11.14645Q10.99999890625,11.2929,10.99999890625,11.5Q10.99999890625,11.57387,10.98557890625,11.64632Q10.97116890625,11.71877,10.94289890625,11.78701Q10.91462890625,11.855260000000001,10.87359890625,11.91668Q10.83255890625,11.978100000000001,10.78032890625,12.03033Q10.72808890625,12.08256,10.66666890625,12.1236Q10.60524890625,12.16464,10.53700890625,12.192910000000001Q10.46875890625,12.22118,10.39630890625,12.23559Q10.32385890625,12.25,10.24999890625,12.25Q10.17612890625,12.25,10.10367890625,12.23559Q10.03122890625,12.22118,9.96297890625,12.192910000000001Q9.89473890625,12.16464,9.83331890625,12.1236Q9.77189890625,12.08256,9.71965890625,12.03033Q9.66742890625,11.978100000000001,9.62638890625,11.91668Q9.58534890625,11.855260000000001,9.55708890625,11.78701Q9.52881890625,11.71877,9.51440890625,11.64632Q9.49999890625,11.57387,9.49999890625,11.5L9.49999890625,10.5Q9.49999890625,10.2929,9.35354890625,10.14645Q9.20709890625,10,8.99999890625,10Q8.792888906249999,10,8.646438906250001,10.14645Q8.49999890625,10.2929,8.49999890625,10.5Q8.49999890625,10.57387,8.48557890625,10.64632Q8.47116890625,10.71877,8.44289890625,10.78701Q8.414638906250001,10.855260000000001,8.373598906249999,10.91668Q8.33255890625,10.978100000000001,8.28032890625,11.03033Q8.228088906250001,11.08256,8.166668906249999,11.1236Q8.10524890625,11.16464,8.03700890625,11.192910000000001Q7.96875890625,11.22118,7.89630890625,11.23559Q7.82385890625,11.25,7.74999890625,11.25Q7.67612890625,11.25,7.60367890625,11.23559Q7.53122890625,11.22118,7.46297890625,11.192910000000001Q7.39473890625,11.16464,7.33331890625,11.1236Q7.27189890625,11.08256,7.21966890625,11.03033Q7.16742890625,10.978100000000001,7.12638890625,10.91668Q7.08534890625,10.855260000000001,7.05708890625,10.78701Q7.02881890625,10.71877,7.01440890625,10.64632Q6.99999890625,10.57387,6.99999890625,10.5Z" fill-rule="evenodd" fill="#FFFFFF" fill-opacity="1"/></g><g><path d="M0.75,3.5L11.75,3.5Q11.8239,3.5,11.8963,3.485589Q11.9688,3.471178,12.037,3.44291Q12.1053,3.414641,12.1667,3.373602Q12.2281,3.332563,12.2803,3.28033Q12.3326,3.228097,12.3736,3.166678Q12.4146,3.105258,12.4429,3.037013Q12.4712,2.968767,12.4856,2.896318Q12.5,2.8238685,12.5,2.75Q12.5,2.6761315,12.4856,2.603682Q12.4712,2.531233,12.4429,2.462987Q12.4146,2.394742,12.3736,2.333322Q12.3326,2.271903,12.2803,2.21967Q12.2281,2.167437,12.1667,2.126398Q12.1053,2.085359,12.037,2.05709Q11.9688,2.028822,11.8963,2.014411Q11.8239,2,11.75,2L0.75,2Q0.6761315,2,0.603682,2.014411Q0.5312330000000001,2.028822,0.462987,2.05709Q0.394742,2.085359,0.333322,2.126398Q0.271903,2.167437,0.21967000000000003,2.21967Q0.16743699999999995,2.271903,0.126398,2.333322Q0.08535899999999996,2.394742,0.057089999999999974,2.462987Q0.028822000000000014,2.531233,0.014410999999999952,2.603682Q0,2.6761315,0,2.75Q0,2.8238685,0.014410999999999952,2.896318Q0.028822000000000014,2.968767,0.057089999999999974,3.037013Q0.08535899999999996,3.105258,0.126398,3.166678Q0.16743699999999995,3.228097,0.21967000000000003,3.28033Q0.271903,3.332563,0.333322,3.373602Q0.394742,3.414641,0.462987,3.44291Q0.5312330000000001,3.471178,0.603682,3.485589Q0.6761315,3.5,0.75,3.5Z" fill-rule="evenodd" fill="#FFFFFF" fill-opacity="1"/></g><g><path d="M3.28033,1.28033L3.28076,1.279901Q3.28376,1.2768950000000001,3.28673,1.2738559999999999L3.28715,1.273421Q3.38951,1.1683810000000001,3.44475,1.032522Q3.5,0.896663,3.5,0.75Q3.5,0.600816,3.44291,0.462987Q3.38582,0.325159,3.28033,0.21967000000000003Q3.17484,0.11418099999999998,3.03701,0.057089999999999974Q2.89918,0,2.75,0Q2.6008199999999997,0,2.46299,0.057089999999999974Q2.32516,0.11418099999999998,2.21967,0.21967000000000003L2.21952,0.21982400000000002L0.21967000000000003,2.21967Q0.16743699999999995,2.2719,0.126398,2.33332Q0.08535899999999996,2.39474,0.057089999999999974,2.46299Q0.028822000000000014,2.53123,0.014410999999999952,2.6036799999999998Q0,2.6761299999999997,0,2.75Q0,2.82387,0.014410999999999952,2.89632Q0.028822000000000014,2.96877,0.057089999999999974,3.03701Q0.08535899999999996,3.10526,0.126398,3.16668Q0.16743699999999995,3.2281,0.21967000000000003,3.28033L2.21945,5.27996L2.21984,5.28035Q2.32533,5.38583,2.4631499999999997,5.44291Q2.6009700000000002,5.5,2.75015,5.5L2.75018,5.5Q2.89936,5.49999,3.03719,5.4429Q3.17501,5.3858,3.2805,5.28031Q3.38598,5.17482,3.44306,5.037Q3.50015,4.89918,3.50015,4.75L3.50015,4.749969999999999Q3.50014,4.60079,3.44305,4.46296Q3.38595,4.32514,3.28046,4.21965L3.28031,4.2195L1.81068,2.74998L3.28033,1.28033Z" fill-rule="evenodd" fill="#FFFFFF" fill-opacity="1"/></g><g><path d="M10.280484,0.21982400000000002L10.28033,0.21967000000000003Q10.174841,0.11418099999999998,10.037013,0.057089999999999974Q9.899184,0,9.75,0Q9.600816,0,9.462987,0.057089999999999974Q9.325159,0.11418099999999998,9.21967,0.21967000000000003Q9.114181,0.325159,9.05709,0.462987Q9,0.600816,9,0.75Q9,0.899184,9.05709,1.037013Q9.114181,1.174841,9.21967,1.28033L9.219824,1.280484L10.68934,2.75L9.21967,4.21967Q9.114181,4.32516,9.05709,4.46299Q9,4.600820000000001,9,4.75Q9,4.89918,9.05709,5.03701Q9.114181,5.17484,9.21967,5.28033Q9.325159,5.38582,9.462987,5.44291Q9.600816,5.5,9.75,5.5Q9.899184,5.5,10.037013,5.44291Q10.174841,5.38582,10.28033,5.28033L12.28033,3.28033Q12.33256,3.2281,12.3736,3.16668Q12.41464,3.10526,12.44291,3.03701Q12.47118,2.96877,12.48559,2.89632Q12.5,2.82387,12.5,2.75Q12.5,2.6761299999999997,12.48559,2.6036799999999998Q12.47118,2.53123,12.44291,2.46299Q12.41464,2.39474,12.3736,2.33332Q12.33256,2.2719,12.28033,2.21967L10.280484,0.21982400000000002Z" fill-rule="evenodd" fill="#FFFFFF" fill-opacity="1"/></g></g></svg>