<svg xmlns="http://www.w3.org/2000/svg" xmlns:xlink="http://www.w3.org/1999/xlink" fill="none" version="1.1" width="20" height="20" viewBox="0 0 20 20"><g><g></g><g><path d="M17,4.166666507720947Q17,4.092798007720948,16.985599999999998,4.020348507720947Q16.9712,3.947899507720947,16.9429,3.8796535077209473Q16.9146,3.811408507720947,16.8736,3.749988507720947Q16.8326,3.6885695077209473,16.7803,3.636336507720947Q16.728099999999998,3.5841035077209473,16.6667,3.5430645077209473Q16.6053,3.5020255077209472,16.537,3.4737565077209474Q16.4688,3.445488507720947,16.3963,3.431077507720947Q16.323900000000002,3.4166665077209473,16.25,3.4166665077209473L3.75,3.4166665077209473Q3.6761315,3.4166665077209473,3.603682,3.431077507720947Q3.531233,3.445488507720947,3.462987,3.4737565077209474Q3.394742,3.5020255077209472,3.333322,3.5430645077209473Q3.271903,3.5841035077209473,3.21967,3.636336507720947Q3.167437,3.6885695077209473,3.126398,3.749988507720947Q3.085359,3.811408507720947,3.05709,3.8796535077209473Q3.028822,3.947899507720947,3.014411,4.020348507720947Q3,4.092798007720948,3,4.166666507720947L3,14.333366507720948Q3,16.300866507720947,4.391243,17.692066507720945Q5.78249,19.083366507720946,7.75,19.083366507720946L12.25,19.083366507720946Q14.2175,19.083366507720946,15.6088,17.692066507720945Q17,16.300866507720947,17,14.333366507720948L17,4.166666507720947ZM15.5,4.916666507720947L4.5,4.916666507720947L4.5,14.333366507720948Q4.5,15.679566507720947,5.4519,16.631466507720948Q6.40381,17.583366507720946,7.75,17.583366507720946L12.25,17.583366507720946Q13.59619,17.583366507720946,14.5481,16.631466507720948Q15.5,15.679566507720947,15.5,14.333366507720948L15.5,4.916666507720947Z" fill-rule="evenodd" fill="#000000" fill-opacity="1"/></g><g><path d="M7.5833330154418945,8.333333015441895L7.5833330154418945,13.750003015441894Q7.5833330154418945,13.823873015441894,7.5977440154418945,13.896313015441894Q7.612155015441894,13.968763015441894,7.640423015441894,14.037013015441895Q7.668692015441895,14.105253015441894,7.7097310154418945,14.166673015441894Q7.750770015441894,14.228093015441894,7.803003015441894,14.280333015441894Q7.8552360154418945,14.332563015441895,7.916655015441894,14.373603015441894Q7.9780750154418945,14.414643015441895,8.046320015441895,14.442913015441896Q8.114566015441895,14.471173015441895,8.187015015441894,14.485593015441895Q8.259464515441895,14.500003015441894,8.333333015441895,14.500003015441894Q8.407201515441894,14.500003015441894,8.479651015441895,14.485593015441895Q8.552100015441894,14.471173015441895,8.620346015441894,14.442913015441896Q8.688591015441894,14.414643015441895,8.750011015441894,14.373603015441894Q8.811430015441895,14.332563015441895,8.863663015441894,14.280333015441894Q8.915896015441895,14.228093015441894,8.956935015441895,14.166673015441894Q8.997974015441894,14.105253015441894,9.026243015441894,14.037013015441895Q9.054511015441895,13.968763015441894,9.068922015441895,13.896313015441894Q9.083333015441895,13.823873015441894,9.083333015441895,13.750003015441894L9.083333015441895,8.333333015441895Q9.083333015441895,8.259464515441895,9.068922015441895,8.187015015441894Q9.054511015441895,8.114566015441895,9.026243015441894,8.046320015441895Q8.997974015441894,7.9780750154418945,8.956935015441895,7.916655015441894Q8.915896015441895,7.8552360154418945,8.863663015441894,7.803003015441894Q8.811430015441895,7.750770015441894,8.750011015441894,7.7097310154418945Q8.688591015441894,7.668692015441895,8.620346015441894,7.640423015441894Q8.552100015441894,7.612155015441894,8.479651015441895,7.5977440154418945Q8.407201515441894,7.5833330154418945,8.333333015441895,7.5833330154418945Q8.259464515441895,7.5833330154418945,8.187015015441894,7.5977440154418945Q8.114566015441895,7.612155015441894,8.046320015441895,7.640423015441894Q7.9780750154418945,7.668692015441895,7.916655015441894,7.7097310154418945Q7.8552360154418945,7.750770015441894,7.803003015441894,7.803003015441894Q7.750770015441894,7.8552360154418945,7.7097310154418945,7.916655015441894Q7.668692015441895,7.9780750154418945,7.640423015441894,8.046320015441895Q7.612155015441894,8.114566015441895,7.5977440154418945,8.187015015441894Q7.5833330154418945,8.259464515441895,7.5833330154418945,8.333333015441895Z" fill-rule="evenodd" fill="#000000" fill-opacity="1"/></g><g><path d="M10.916666030883789,8.333333015441895L10.916666030883789,13.750003015441894Q10.916666030883789,13.823873015441894,10.931077030883788,13.896313015441894Q10.945488030883789,13.968763015441894,10.97375603088379,14.037013015441895Q11.00202503088379,14.105253015441894,11.043064030883789,14.166673015441894Q11.084103030883789,14.228093015441894,11.13633603088379,14.280333015441894Q11.188569030883789,14.332563015441895,11.24998803088379,14.373603015441894Q11.31140803088379,14.414643015441895,11.379653030883789,14.442913015441896Q11.44789903088379,14.471173015441895,11.520348030883788,14.485593015441895Q11.59279753088379,14.500003015441894,11.666666030883789,14.500003015441894Q11.740534530883789,14.500003015441894,11.81298403088379,14.485593015441895Q11.885433030883789,14.471173015441895,11.953679030883789,14.442913015441896Q12.021924030883788,14.414643015441895,12.083344030883788,14.373603015441894Q12.144763030883789,14.332563015441895,12.196996030883788,14.280333015441894Q12.24922903088379,14.228093015441894,12.290268030883789,14.166673015441894Q12.331307030883789,14.105253015441894,12.359576030883789,14.037013015441895Q12.38784403088379,13.968763015441894,12.40225503088379,13.896313015441894Q12.416666030883789,13.823873015441894,12.416666030883789,13.750003015441894L12.416666030883789,8.333333015441895Q12.416666030883789,8.259464515441895,12.40225503088379,8.187015015441894Q12.38784403088379,8.114566015441895,12.359576030883789,8.046320015441895Q12.331307030883789,7.9780750154418945,12.290268030883789,7.916655015441894Q12.24922903088379,7.8552360154418945,12.196996030883788,7.803003015441894Q12.144763030883789,7.750770015441894,12.083344030883788,7.7097310154418945Q12.021924030883788,7.668692015441895,11.953679030883789,7.640423015441894Q11.885433030883789,7.612155015441894,11.81298403088379,7.5977440154418945Q11.740534530883789,7.5833330154418945,11.666666030883789,7.5833330154418945Q11.59279753088379,7.5833330154418945,11.520348030883788,7.5977440154418945Q11.44789903088379,7.612155015441894,11.379653030883789,7.640423015441894Q11.31140803088379,7.668692015441895,11.24998803088379,7.7097310154418945Q11.188569030883789,7.750770015441894,11.13633603088379,7.803003015441894Q11.084103030883789,7.8552360154418945,11.043064030883789,7.916655015441894Q11.00202503088379,7.9780750154418945,10.97375603088379,8.046320015441895Q10.945488030883789,8.114566015441895,10.931077030883788,8.187015015441894Q10.916666030883789,8.259464515441895,10.916666030883789,8.333333015441895Z" fill-rule="evenodd" fill="#000000" fill-opacity="1"/></g><g><path d="M1.6666666269302368,4.916666507720947L18.333366626930236,4.916666507720947Q18.407166626930238,4.916666507720947,18.479666626930236,4.902255507720947Q18.552066626930237,4.887844507720947,18.620366626930238,4.859576507720948Q18.688566626930236,4.831307507720947,18.749966626930238,4.790268507720947Q18.811466626930237,4.749229507720948,18.863666626930236,4.6969965077209475Q18.915866626930235,4.644763507720947,18.956966626930235,4.583344507720947Q18.997966626930236,4.521924507720947,19.026266626930237,4.453679507720947Q19.054466626930235,4.385433507720947,19.068966626930237,4.312984507720947Q19.083366626930236,4.240535007720947,19.083366626930236,4.166666507720947Q19.083366626930236,4.092798007720948,19.068966626930237,4.020348507720947Q19.054466626930235,3.947899507720947,19.026266626930237,3.8796535077209473Q18.997966626930236,3.811408507720947,18.956966626930235,3.749988507720947Q18.915866626930235,3.6885695077209473,18.863666626930236,3.636336507720947Q18.811466626930237,3.5841035077209473,18.749966626930238,3.5430645077209473Q18.688566626930236,3.5020255077209472,18.620366626930238,3.4737565077209474Q18.552066626930237,3.445488507720947,18.479666626930236,3.431077507720947Q18.407166626930238,3.4166665077209473,18.333366626930236,3.4166665077209473L1.6666666269302368,3.4166665077209473Q1.5927981269302367,3.4166665077209473,1.5203486269302369,3.431077507720947Q1.4478996269302369,3.445488507720947,1.3796536269302369,3.4737565077209474Q1.3114086269302367,3.5020255077209472,1.2499886269302367,3.5430645077209473Q1.1885696269302368,3.5841035077209473,1.1363366269302368,3.636336507720947Q1.0841036269302369,3.6885695077209473,1.0430646269302368,3.749988507720947Q1.0020256269302368,3.811408507720947,0.9737566269302368,3.8796535077209473Q0.9454886269302368,3.947899507720947,0.9310776269302368,4.020348507720947Q0.9166666269302368,4.092798007720948,0.9166666269302368,4.166666507720947Q0.9166666269302368,4.240535007720947,0.9310776269302368,4.312984507720947Q0.9454886269302368,4.385433507720947,0.9737566269302368,4.453679507720947Q1.0020256269302368,4.521924507720947,1.0430646269302368,4.583344507720947Q1.0841036269302369,4.644763507720947,1.1363366269302368,4.6969965077209475Q1.1885696269302368,4.749229507720948,1.2499886269302367,4.790268507720947Q1.3114086269302367,4.831307507720947,1.3796536269302369,4.859576507720948Q1.4478996269302369,4.887844507720947,1.5203486269302369,4.902255507720947Q1.5927981269302367,4.916666507720947,1.6666666269302368,4.916666507720947Z" fill-rule="evenodd" fill="#000000" fill-opacity="1"/></g><g><path d="M6.666666507720947,4.916666626930237L13.333336507720947,4.916666626930237Q13.522016507720947,4.916666626930237,13.688236507720948,4.827376626930237Q13.819656507720946,4.7567866269302375,13.914066507720946,4.641276626930237Q14.008466507720946,4.525756626930237,14.051486507720949,4.382906626930237Q14.094496507720947,4.240056626930237,14.079566507720948,4.091626626930237Q14.064646507720948,3.943186626930237,13.994046507720947,3.8117666269302366L12.651176507720947,1.3117636269302368Q12.603066507720946,1.2222006269302368,12.532846507720947,1.1486766269302369Q12.462626507720948,1.0751526269302367,12.375376507720947,1.0229756269302368Q12.288116507720947,0.9707976269302369,12.190126507720947,0.9437326269302369Q12.092126507720948,0.9166666269302368,11.990456507720946,0.9166666269302368L8.037086507720947,0.9166666269302368Q7.9362265077209475,0.9166666269302368,7.8389565077209475,0.9433086269302369Q7.741686507720948,0.9699516269302368,7.654908507720947,1.0213426269302368Q7.568130507720947,1.0727346269302367,7.498010507720947,1.1452256269302368Q7.427891507720947,1.2177156269302367,7.379412507720947,1.3061536269302367L6.008996507720948,3.8061566269302367Q5.916666507720947,3.974586626930237,5.916666507720947,4.166666626930237Q5.916666507720947,4.240536626930236,5.931077507720947,4.312986626930236Q5.945488507720947,4.385436626930237,5.973756507720947,4.453676626930237Q6.002025507720948,4.521926626930236,6.043064507720947,4.583346626930236Q6.084103507720947,4.644766626930236,6.136336507720947,4.696996626930237Q6.188569507720947,4.749226626930237,6.249988507720947,4.7902666269302365Q6.311408507720947,4.831306626930237,6.379653507720947,4.859576626930236Q6.4478995077209476,4.887846626930237,6.520348507720947,4.902256626930237Q6.592798007720948,4.916666626930237,6.666666507720947,4.916666626930237ZM12.079116507720947,3.416666626930237L7.933086507720947,3.416666626930237L8.481246507720947,2.416666626930237L11.541966507720947,2.416666626930237L12.079116507720947,3.416666626930237Z" fill-rule="evenodd" fill="#000000" fill-opacity="1"/></g></g></svg>