<svg xmlns="http://www.w3.org/2000/svg" xmlns:xlink="http://www.w3.org/1999/xlink" fill="none" version="1.1" width="20" height="20" viewBox="0 0 20 20"><g><g><g><ellipse cx="10" cy="10.000000953674316" rx="9.5" ry="9.500000953674316" fill-opacity="0" stroke-opacity="1" stroke="#3563EF" fill="none" stroke-width="1"/></g></g><g><path d="M15.24244,8.353553Q15.31277,8.283227,15.35083,8.191342Q15.38889,8.0994561,15.38889,8Q15.38889,7.9507543,15.37928,7.9024549Q15.36967,7.854155,15.35083,7.808658Q15.33198,7.763161,15.30462,7.722215Q15.27726,7.681269,15.24244,7.646447Q15.20762,7.611625,15.16667,7.584265Q15.12573,7.556906,15.08023,7.53806Q15.03473,7.519215,14.98643,7.509607Q14.93814,7.5,14.88889,7.5Q14.78943,7.5,14.69755,7.53806Q14.60566,7.576121,14.53534,7.646447L11.44267,10.73911L9.98968,8.196375Q9.965250000000001,8.153617,9.93294,8.116448Q9.90064,8.0792791,9.861699999999999,8.0491266Q9.82276,8.0189741,9.778690000000001,7.99699681Q9.73462,7.9750195,9.68711,7.9620622Q9.6396,7.9491048,9.59048,7.9456652Q9.54135,7.9422256,9.4925,7.948436Q9.44365,7.9546464,9.39695,7.9702681Q9.35024,7.9858898,9.30749,8.0103225Q9.24935,8.0435435,9.202,8.0908906L5.646447,11.64645Q5.57612,11.71677,5.53806,11.80866Q5.5,11.90054,5.5,12Q5.5,12.04925,5.509607,12.09755Q5.519215,12.14584,5.53806,12.19134Q5.556906,12.23684,5.584265,12.27778Q5.611625,12.31873,5.646447,12.35355Q5.681269,12.38837,5.722215,12.41573Q5.763161,12.44309,5.808658,12.46194Q5.854155,12.48078,5.9024549,12.49039Q5.9507543,12.5,6,12.5Q6.0994563,12.5,6.191342,12.46194Q6.283227,12.42388,6.353554,12.35355L6.354016,12.35309L9.44622,9.26089L10.89921,11.80363Q10.93243,11.86176,10.97978,11.90911Q11.0146,11.94393,11.05555,11.97129Q11.096499999999999,11.99865,11.14199,12.0175Q11.18749,12.03634,11.23579,12.045950000000001Q11.284089999999999,12.05556,11.33333,12.05556Q11.38258,12.05556,11.43088,12.045950000000001Q11.47918,12.03634,11.52468,12.0175Q11.570170000000001,11.99865,11.61112,11.97129Q11.65207,11.94393,11.68689,11.90911L15.24244,8.353553L15.24244,8.353553Z" fill-rule="evenodd" fill="#3563EF" fill-opacity="1"/></g></g></svg>