<svg xmlns="http://www.w3.org/2000/svg" xmlns:xlink="http://www.w3.org/1999/xlink" fill="none" version="1.1" width="24" height="24" viewBox="0 0 24 24"><defs><clipPath id="master_svg0_112_04447"><rect x="0" y="0" width="24" height="24" rx="0"/></clipPath></defs><g clip-path="url(#master_svg0_112_04447)"><g><path d="M15.556416875,15.828708125C14.859066875,15.828708125,14.293906875000001,15.263108124999999,14.294446875,14.565768125C14.294986875,13.868418125,14.861016875,13.303698125,15.558356875,13.304768124999999C16.255706875,13.305848125,16.819946875,13.872308125,16.818346875,14.569658125C16.819146875,15.266488125,16.253246875000002,15.831138124999999,15.556416875,15.828708125ZM8.743816875,15.011198125C8.049646875,15.010398125,7.487406875,14.447288125,7.487676875,13.753118125C7.4879468750000004,13.058938125000001,8.050616875,12.496268125,8.744786874999999,12.495998125C9.438956875,12.495738124999999,10.002066875,13.057968125,10.002866875,13.752138125C10.002866875,14.447498125,9.439176875,15.011198125,8.743816875,15.011198125ZM12.496206875,13.431548124999999C11.628996875,13.458258125,10.911486875,12.762508125,10.911486875,11.894888125C10.911486875,11.027268124999999,11.628996875,10.331518125,12.496206875,10.358228125L12.574896875,10.358228125C13.390966875,10.401788125,14.030336875,11.076198125,14.030336875,11.893428125C14.030336875,12.710668125,13.390966875,13.385078125,12.574896875,13.428638124999999L12.496206875,13.431548124999999ZM16.356436875,12.061748125C15.689466875,12.022428125,15.168716875,11.470088125,15.168716875,10.801958125C15.168716875,10.133828125,15.689466875,9.581488125,16.356436875,9.542178125L16.389956875,9.542178125C17.056946875,9.581488125,17.577646875,10.133828125,17.577646875,10.801958125C17.577646875,11.470088125,17.056946875,12.022428125,16.389956875,12.061748125L16.356436875,12.061748125ZM7.972936875,11.245688125000001C7.1246638749999995,11.246498125,6.436352081,10.559488125,6.435547790527,9.711218125C6.4347435,8.862946125,7.121749875,8.174633789,7.970016875,8.173829040527C8.818296875,8.173024292,9.506606875,8.860031125,9.507406875000001,9.708298125C9.507406875000001,10.556238125,8.820876875,11.244078125,7.972936875,11.245688125000001Z" fill="#333333" fill-opacity="1"/></g><g><path d="M16.9885,22.5205921875L6.03298,22.5205921875L6.03298,22.4986921875C5.54917,22.4097921875,5.04351,22.0615921875,4.8599,21.2716921875L0,1.9501811875000001L1.82009,1.4911500875L2.84016,5.5335321875C3.26674,5.1616321875,3.72675,4.8299121875,4.21434,4.5426121875C5.40581,3.8375621875,6.76445,3.4646921875,8.14889,3.4627921875C9.25514,3.4744621875,10.3483,3.7032121875,11.3665,4.1360421875C12.442,4.5858821875,13.4906,5.097752187499999,14.5068,5.6690621875L14.5229,5.6778021875C15.575,6.2490421875,16.2715,6.6250121875,17.1459,6.6250121875C18.0202,6.6250121875,19.2093,6.2490421875,21.1737,5.3309821875L22.1938,1.4794921875L24.0153,1.9618391875L22.8495,6.3627021875L22.8,6.5346621875C22.7665,6.6628921875,19.237,19.9193921875,18.9164,21.1449921875C18.6527,22.1576921875,17.7448,22.5205921875,16.9885,22.5205921875ZM4.16479,10.8189421875C4.44313,11.9249921875,6.18744,18.8599921875,6.42206,19.8027921875C6.61879,20.5926921875,7.42027,20.6319921875,7.45379,20.6319921875L16.4216,20.6319921875C16.8458,20.5975921875,17.1992,20.2930921875,17.296,19.8785921875L19.6902,10.8772321875C18.351,11.4266121875,17.3863,11.6655921875,16.5324,11.6655921875C15.3753,11.6655921875,14.4923,11.2284321875,13.293,10.5799621875L13.2594,10.5624721875C12.4067,10.0841221875,11.527,9.6554621875,10.6247,9.278642187500001C9.92281,8.982742187500001,9.16999,8.8263421875,8.40828,8.8181521875C6.21805,8.8108721875,4.70543,10.2258521875,4.16917,10.8174921875L4.16479,10.8189421875ZM8.39079,6.9383121875C9.4065,6.9453721875,10.411,7.1513121875,11.3475,7.5445321875C12.3278,7.9530421875,13.2829,8.4192021875,14.2081,8.9405621875C15.1436,9.4535121875,15.763,9.7886821875,16.5484,9.7886821875C17.3688,9.7886821875,18.4312,9.4389421875,20.3198,8.5471121875L20.5588,7.6479921875C19.1438,8.2308921875,18.1208,8.485902187499999,17.2071,8.500482187500001L17.124,8.500482187500001C15.795,8.500482187500001,14.8799,8.0021021875,13.6135,7.3113721875C12.6538,6.7717021875,11.6637,6.2880621875,10.6481,5.8628721875C9.8607,5.5299221875,9.01539,5.3556121875,8.16055,5.3499221875C5.71821,5.3499221875,4.0555,6.8654521875,3.3706,7.6334221875L3.6431,8.735092187500001C4.00786,8.4322421875,4.39788,8.1611721875,4.80889,7.9248621875C5.89692,7.2804621875,7.13791,6.9397621875,8.40245,6.9383121875L8.39079,6.9383121875Z" fill="#333333" fill-opacity="1"/></g></g></svg>