<svg xmlns="http://www.w3.org/2000/svg" xmlns:xlink="http://www.w3.org/1999/xlink" fill="none" version="1.1" width="24" height="24" viewBox="0 0 24 24"><defs><clipPath id="master_svg0_448_00070"><rect x="0" y="0" width="24" height="24" rx="0"/></clipPath></defs><g><g clip-path="url(#master_svg0_448_00070)"><g><path d="M8.36364,3.81818C5.85325,3.81818,3.81818,5.85325,3.81818,8.36364C3.81818,10.87402,5.85325,12.9091,8.36364,12.9091C10.87402,12.9091,12.9091,10.87402,12.9091,8.36364C12.9091,5.85325,10.87402,3.81818,8.36364,3.81818ZM2,8.36364C2.000000208074,4.8491,4.8491,2,8.36364,2C11.87818,2,14.7273,4.8491,14.7273,8.36364C14.7273,11.87818,11.87818,14.7273,8.36364,14.7273C4.8491,14.7273,2.000000208074,11.87818,2,8.36364ZM17.4545,14.7273C15.9483,14.7273,14.7273,15.9483,14.7273,17.4545C14.7273,18.9608,15.9483,20.1818,17.4545,20.1818C18.9608,20.1818,20.1818,18.9608,20.1818,17.4545C20.1818,15.9483,18.9608,14.7273,17.4545,14.7273ZM12.9091,17.4545C12.9079,14.9433,14.9433,12.9069,17.4545,12.9069C19.9658,12.9069,22.0012,14.9433,22,17.4545C22,19.9649,19.9649,22,17.4545,22C14.9442,22,12.9091,19.9649,12.9091,17.4545ZM19.2727,6.54545C18.7707,6.54545,18.3636,6.95247,18.3636,7.45455C18.3636,7.95662,18.7707,8.36364,19.2727,8.36364C19.7748,8.36364,20.1818,7.95662,20.1818,7.45455C20.1818,6.95247,19.7748,6.54545,19.2727,6.54545ZM16.5455,7.45455C16.5455,5.94831,17.7665,4.72727,19.2727,4.72727C20.779,4.72727,22,5.94831,22,7.45455C22,8.96078,20.779,10.18182,19.2727,10.18182C17.7665,10.18182,16.5455,8.96078,16.5455,7.45455Z" fill="#333333" fill-opacity="1"/></g></g></g></svg>