<svg xmlns="http://www.w3.org/2000/svg" xmlns:xlink="http://www.w3.org/1999/xlink" fill="none" version="1.1" width="24" height="24" viewBox="0 0 24 24"><g><g><rect x="0" y="0" width="24" height="24" rx="0" fill="#FFFFFF" fill-opacity="0.009999999776482582"/></g><g><path d="M10.26915,5.489749883804322L2.73804,18.497989883804323C1.9661119999999999,19.83138988380432,2.92823,21.50008988380432,4.46889,21.50008988380432L19.5311,21.50008988380432C21.0718,21.50008988380432,22.0339,19.83138988380432,21.262,18.497989883804323L13.7309,5.489749883804322C12.9605,4.159179883804321,11.0395,4.159179883804321,10.26915,5.489749883804322" fill-rule="evenodd" fill="#EA6733" fill-opacity="1"/><path d="M22.5337,19.54618988380432Q22.5474,18.72248988380432,22.1274,17.99698988380432L14.5963,4.988709883804321Q14.1771,4.264679883804321,13.4576,3.866399883804321Q12.7809,3.4918178838043215,12,3.4918178838043215Q11.2191,3.4918178838043215,10.54239,3.866399883804321Q9.8229,4.264679883804321,9.40372,4.988709883804321L1.8726150000000001,17.99698988380432Q1.452615,18.72248988380432,1.466312,19.54618988380432Q1.479192,20.32088988380432,1.8699210000000002,20.99858988380432Q2.26065,21.676289883804323,2.92457,22.07548988380432Q3.63063,22.50008988380432,4.46889,22.50008988380432L19.5311,22.50008988380432Q20.3694,22.50008988380432,21.0754,22.07548988380432Q21.7393,21.676289883804323,22.1301,20.99858988380432Q22.5208,20.32088988380432,22.5337,19.54618988380432ZM12.8654,5.990779883804321L20.3965,18.99908988380432Q20.686,19.49908988380432,20.3974,19.999589883804322Q20.1089,20.50008988380432,19.5311,20.50008988380432L4.46889,20.50008988380432Q3.89114,20.50008988380432,3.60257,19.999589883804322Q3.31399,19.49908988380432,3.60347,18.99908988380432L11.1346,5.990779883804321Q11.4234,5.491819883804322,12,5.491819883804322Q12.5766,5.491819883804322,12.8654,5.990779883804321Z" fill-rule="evenodd" fill="#EA6733" fill-opacity="1"/></g><g><path d="M11,17.500099182128906L11,18.000099182128906Q11,18.098590182128905,11.019214999999999,18.195189182128907Q11.03843,18.291788182128908,11.076121,18.382782182128906Q11.113812,18.473777182128906,11.16853,18.555669182128906Q11.223249,18.637559182128907,11.292893,18.707209182128906Q11.362537,18.776849182128906,11.44443,18.831569182128906Q11.526322,18.886289182128905,11.617317,18.923979182128907Q11.708311,18.961669182128908,11.80491,18.980889182128905Q11.9015086,19.000099182128906,12,19.000099182128906Q12.0984914,19.000099182128906,12.19509,18.980889182128905Q12.291689,18.961669182128908,12.382683,18.923979182128907Q12.473678,18.886289182128905,12.55557,18.831569182128906Q12.637463,18.776849182128906,12.707107,18.707209182128906Q12.776751,18.637559182128907,12.83147,18.555669182128906Q12.886188,18.473777182128906,12.923879,18.382782182128906Q12.96157,18.291788182128908,12.980785000000001,18.195189182128907Q13,18.098590182128905,13,18.000099182128906L13,17.500099182128906Q13,17.401607782128906,12.980785000000001,17.305009182128906Q12.96157,17.208410182128905,12.923879,17.117416182128906Q12.886188,17.026421182128907,12.83147,16.944529182128907Q12.776751,16.862636182128906,12.707107,16.792992182128906Q12.637463,16.723348182128905,12.55557,16.668629182128907Q12.473678,16.613911182128906,12.382683,16.576220182128907Q12.291689,16.538529182128904,12.19509,16.519314182128905Q12.0984914,16.500099182128906,12,16.500099182128906Q11.9015086,16.500099182128906,11.80491,16.519314182128905Q11.708311,16.538529182128904,11.617317,16.576220182128907Q11.526322,16.613911182128906,11.44443,16.668629182128907Q11.362537,16.723348182128905,11.292893,16.792992182128906Q11.223249,16.862636182128906,11.16853,16.944529182128907Q11.113812,17.026421182128907,11.076121,17.117416182128906Q11.03843,17.208410182128905,11.019214999999999,17.305009182128906Q11,17.401607782128906,11,17.500099182128906Z" fill-rule="evenodd" fill="#FFFFFF" fill-opacity="1"/></g><g><path d="M11.00415,14.50009999847412L11.004151,14.50092999847412Q11.004316,14.699839998474122,11.080589,14.883549998474122Q11.156862,15.067259998474121,11.297630999999999,15.207789998474121Q11.438247,15.348179998474121,11.62185,15.424139998474121Q11.805454,15.50009999847412,12.00415039,15.50009999847412L12.00498051,15.50009999847412Q12.203893,15.499929998474121,12.387601,15.423659998474122Q12.571308,15.34738999847412,12.711844,15.206619998474121Q12.852227,15.06599999847412,12.928189,14.88239999847412Q13.00415,14.698799998474122,13.00415,14.50009999847412L13.00415,14.499269998474121L13.00415,14.499109998474122L13,9.500349998474121L13,9.499519879474121Q12.999835000000001,9.30060799847412,12.923562,9.116899998474121Q12.847289,8.933191998474122,12.70652,8.792655998474121Q12.565903,8.652272998474121,12.3823,8.576311998474122Q12.198697,8.500349998474121,12,8.500349998474121L11.999169881,8.500349998474121Q11.800258,8.50051499847412,11.61655,8.57678799847412Q11.432842,8.653060998474121,11.292306,8.793829998474122Q11.151923,8.93444699847412,11.075962,9.11804999847412Q11,9.301652998474122,11,9.500349998474121L11,9.50118011747412L11,9.501341850474121L11.00415,14.50009999847412Z" fill-rule="evenodd" fill="#FFFFFF" fill-opacity="1"/></g></g></svg>