<svg xmlns="http://www.w3.org/2000/svg" xmlns:xlink="http://www.w3.org/1999/xlink" fill="none" version="1.1" width="12" height="12" viewBox="0 0 12 12"><defs><clipPath id="master_svg0_539_06394"><rect x="0" y="0" width="12" height="12" rx="0"/></clipPath></defs><g clip-path="url(#master_svg0_539_06394)"><g><rect x="0" y="0" width="12" height="12" rx="0" fill="#FFFFFF" fill-opacity="0"/></g><g><path d="M8,4Q8,4.09825,7.99037,4.19603Q7.98074,4.293810000000001,7.96157,4.39018Q7.9424,4.486549999999999,7.91388,4.58057Q7.88536,4.67459,7.84776,4.76537Q7.81016,4.85614,7.76384,4.9427900000000005Q7.71753,5.029450000000001,7.66294,5.11114Q7.60835,5.19284,7.54602,5.26879Q7.48369,5.34474,7.414210000000001,5.414210000000001Q7.34474,5.48369,7.26879,5.54602Q7.19284,5.60835,7.11114,5.66294Q7.029450000000001,5.71753,6.9427900000000005,5.76384Q6.85614,5.81016,6.76537,5.84776Q6.67459,5.88536,6.58057,5.91388Q6.486549999999999,5.9424,6.39018,5.96157Q6.293810000000001,5.98074,6.19603,5.99037Q6.09825,6,6,6Q5.90175,6,5.80397,5.99037Q5.70619,5.98074,5.60982,5.96157Q5.51345,5.9424,5.41943,5.91388Q5.32541,5.88536,5.23463,5.84776Q5.14386,5.81016,5.0572099999999995,5.76384Q4.970554,5.71753,4.888859,5.66294Q4.807164,5.60835,4.731213,5.54602Q4.6552620000000005,5.48369,4.585786,5.414210000000001Q4.516311,5.34474,4.453979,5.26879Q4.391648,5.19284,4.337061,5.11114Q4.282474,5.029450000000001,4.236157,4.9427900000000005Q4.189841,4.85614,4.152241,4.76537Q4.114641,4.67459,4.0861193,4.58057Q4.0575978,4.486549999999999,4.0384294,4.39018Q4.0192611,4.293810000000001,4.00963055,4.19603Q4,4.09825,4,4Q4,3.90175,4.00963055,3.80397Q4.0192611,3.7061900000000003,4.0384294,3.60982Q4.0575978,3.5134499999999997,4.0861193,3.41943Q4.114641,3.3254099999999998,4.152241,3.23463Q4.189841,3.14386,4.236157,3.05721Q4.282474,2.970554,4.337061,2.888859Q4.391648,2.807164,4.453979,2.731213Q4.516311,2.655262,4.585786,2.585786Q4.6552620000000005,2.516311,4.731213,2.453979Q4.807164,2.391648,4.888859,2.337061Q4.970554,2.282474,5.0572099999999995,2.236157Q5.14386,2.189841,5.23463,2.152241Q5.32541,2.114641,5.41943,2.0861193Q5.51345,2.0575978,5.60982,2.0384294Q5.70619,2.0192611,5.80397,2.00963055Q5.90175,2,6,2Q6.09825,2,6.19603,2.00963055Q6.293810000000001,2.0192611,6.39018,2.0384294Q6.486549999999999,2.0575978,6.58057,2.0861193Q6.67459,2.114641,6.76537,2.152241Q6.85614,2.189841,6.9427900000000005,2.236157Q7.029450000000001,2.282474,7.11114,2.337061Q7.19284,2.391648,7.26879,2.453979Q7.34474,2.516311,7.414210000000001,2.585786Q7.48369,2.655262,7.54602,2.731213Q7.60835,2.807164,7.66294,2.888859Q7.71753,2.970554,7.76384,3.05721Q7.81016,3.14386,7.84776,3.23463Q7.88536,3.3254099999999998,7.91388,3.41943Q7.9424,3.5134499999999997,7.96157,3.60982Q7.98074,3.7061900000000003,7.99037,3.80397Q8,3.90175,8,4Z" fill="#000000" fill-opacity="1"/></g><g><path d="M1.5,10.2L1.5,10.5L10.5,10.5L10.5,10.2C10.5,9.0799,10.5,8.51985,10.28203,8.09202C10.09027,7.7157,9.7843,7.409725,9.40798,7.217975C8.98015,7,8.4201,7,7.3,7L4.7,7C3.5799,7,3.01985,7,2.5920300000000003,7.217975C2.215695,7.409725,1.909732,7.7157,1.717988,8.09202C1.5,8.51985,1.5,9.0799,1.5,10.2Z" fill="#000000" fill-opacity="1"/></g></g></svg>