<svg xmlns="http://www.w3.org/2000/svg" xmlns:xlink="http://www.w3.org/1999/xlink" fill="none" version="1.1" width="18" height="18" viewBox="0 0 18 18"><g><g style="opacity:0;"><path d="M0,0C0,0,18,0,18,0C18,0,18,18,18,18C18,18,0,18,0,18C0,18,0,0,0,0Z" fill="#FFFFFF" fill-opacity="1"/></g><g><path d="M14.63250005722046,4.3875C14.63250005722046,4.3875,10.17750005722046,1.815,10.17750005722046,1.815C9.450000057220459,1.395,8.550000057220458,1.395,7.815000057220459,1.815C7.815000057220459,1.815,3.367500057220459,4.3875,3.367500057220459,4.3875C2.640000057220459,4.8075,2.190000057220459,5.5875,2.190000057220459,6.435C2.190000057220459,6.435,2.190000057220459,11.565,2.190000057220459,11.565C2.190000057220459,12.405,2.640000057220459,13.185,3.367500057220459,13.6125C3.367500057220459,13.6125,7.822500057220459,16.185000000000002,7.822500057220459,16.185000000000002C8.550000057220458,16.605,9.450000057220459,16.605,10.18500005722046,16.185000000000002C10.18500005722046,16.185000000000002,14.640000057220458,13.6125,14.640000057220458,13.6125C15.36750005722046,13.1925,15.817500057220458,12.4125,15.817500057220458,11.565C15.817500057220458,11.565,15.817500057220458,6.435,15.817500057220458,6.435C15.810000057220458,5.5875,15.360000057220459,4.8149999999999995,14.63250005722046,4.3875ZM9.000000057220458,5.505C9.967500057220459,5.505,10.747500057220458,6.285,10.747500057220458,7.2525C10.747500057220458,8.219999999999999,9.967500057220459,9,9.000000057220458,9C8.03250005722046,9,7.252500057220459,8.219999999999999,7.252500057220459,7.2525C7.252500057220459,6.2925,8.03250005722046,5.505,9.000000057220458,5.505ZM11.01000005722046,12.495C11.01000005722046,12.495,6.990000057220459,12.495,6.990000057220459,12.495C6.382500057220459,12.495,6.030000057220459,11.82,6.367500057220459,11.3175C6.877500057220459,10.56,7.867500057220459,10.05,9.000000057220458,10.05C10.132500057220458,10.05,11.122500057220458,10.56,11.63250005722046,11.3175C11.970000057220458,11.8125,11.610000057220459,12.495,11.01000005722046,12.495Z" fill="#FFFFFF" fill-opacity="1"/></g></g></svg>