<svg xmlns="http://www.w3.org/2000/svg" xmlns:xlink="http://www.w3.org/1999/xlink" fill="none" version="1.1" width="10" height="10" viewBox="0 0 10 10"><g><g style="opacity:0;"></g><g><path d="M7.083336746139526,2.9166633730697633Q7.083336746139526,3.0190133730697633,7.073306746139527,3.120873373069763Q7.063266746139527,3.2227233730697633,7.0433067461395265,3.3231033730697632Q7.023336746139527,3.423483373069763,6.993626746139526,3.521423373069763Q6.963916746139526,3.619363373069763,6.924746746139526,3.7139233730697634Q6.885586746139526,3.8084833730697634,6.837336746139526,3.898743373069763Q6.789086746139526,3.9890033730697634,6.732226746139526,4.074103373069763Q6.6753667461395265,4.159203373069763,6.610436746139527,4.238323373069763Q6.545506746139527,4.317433373069763,6.473136746139526,4.389803373069763Q6.400766746139526,4.4621733730697635,6.321656746139526,4.527103373069764Q6.2425367461395265,4.592033373069763,6.157436746139526,4.648893373069763Q6.072336746139527,4.705753373069763,5.982076746139526,4.754003373069763Q5.8918167461395266,4.802253373069763,5.797256746139526,4.841413373069763Q5.702696746139527,4.880583373069763,5.604756746139526,4.910293373069763Q5.506816746139526,4.9400033730697634,5.406436746139526,4.959973373069763Q5.306056746139527,4.9799333730697635,5.204206746139526,4.9899733730697635Q5.102346746139526,5.000003373069763,4.9999967461395265,5.000003373069763Q4.897656746139527,5.000003373069763,4.795796746139526,4.9899733730697635Q4.693946746139527,4.9799333730697635,4.593566746139526,4.959973373069763Q4.493176746139526,4.9400033730697634,4.395236746139526,4.910293373069763Q4.297296746139526,4.880583373069763,4.2027467461395265,4.841413373069763Q4.108186746139526,4.802253373069763,4.017926746139526,4.754003373069763Q3.9276567461395264,4.705753373069763,3.8425617461395265,4.648893373069763Q3.7574627461395265,4.592033373069763,3.6783477461395266,4.527103373069764Q3.5992317461395262,4.4621733730697635,3.5268607461395263,4.389803373069763Q3.4544907461395264,4.317433373069763,3.389561746139526,4.238323373069763Q3.3246327461395264,4.159203373069763,3.2677717461395264,4.074103373069763Q3.2109107461395263,3.9890033730697634,3.1626637461395264,3.898743373069763Q3.1144177461395266,3.8084833730697634,3.075250746139526,3.7139233730697634Q3.0360847461395264,3.619363373069763,3.0063743461395265,3.521423373069763Q2.976664446139526,3.423483373069763,2.9566974461395263,3.3231033730697632Q2.936730346139526,3.2227233730697633,2.9266985461395265,3.120873373069763Q2.9166667461395264,3.0190133730697633,2.9166667461395264,2.9166633730697633Q2.9166667461395264,2.8143233730697634,2.9266985461395265,2.712463373069763Q2.936730346139526,2.6106133730697634,2.9566974461395263,2.510233373069763Q2.976664446139526,2.409843373069763,3.0063743461395265,2.311903373069763Q3.0360847461395264,2.213963373069763,3.075250746139526,2.1194133730697633Q3.1144177461395266,2.024853373069763,3.1626637461395264,1.934593373069763Q3.2109107461395263,1.8443233730697632,3.2677717461395264,1.7592283730697633Q3.3246327461395264,1.6741293730697633,3.389561746139526,1.5950143730697632Q3.4544907461395264,1.515898373069763,3.5268607461395263,1.443527373069763Q3.5992317461395262,1.3711573730697633,3.6783477461395266,1.3062283730697632Q3.7574627461395265,1.2412993730697632,3.8425617461395265,1.1844383730697632Q3.9276567461395264,1.1275773730697631,4.017926746139526,1.0793303730697632Q4.108186746139526,1.0310843730697632,4.2027467461395265,0.9919173730697632Q4.297296746139526,0.9527513730697632,4.395236746139526,0.9230409730697632Q4.493176746139526,0.8933310730697632,4.593566746139526,0.8733640730697632Q4.693946746139527,0.8533969730697631,4.795796746139526,0.8433651730697632Q4.897656746139527,0.8333333730697632,4.9999967461395265,0.8333333730697632Q5.102346746139526,0.8333333730697632,5.204206746139526,0.8433651730697632Q5.306056746139527,0.8533969730697631,5.406436746139526,0.8733640730697632Q5.506816746139526,0.8933310730697632,5.604756746139526,0.9230409730697632Q5.702696746139527,0.9527513730697632,5.797256746139526,0.9919173730697632Q5.8918167461395266,1.0310843730697632,5.982076746139526,1.0793303730697632Q6.072336746139527,1.1275773730697631,6.157436746139526,1.1844383730697632Q6.2425367461395265,1.2412993730697632,6.321656746139526,1.3062283730697632Q6.400766746139526,1.3711573730697633,6.473136746139526,1.443527373069763Q6.545506746139527,1.515898373069763,6.610436746139527,1.5950143730697632Q6.6753667461395265,1.6741293730697633,6.732226746139526,1.7592283730697633Q6.789086746139526,1.8443233730697632,6.837336746139526,1.934593373069763Q6.885586746139526,2.024853373069763,6.924746746139526,2.1194133730697633Q6.963916746139526,2.213963373069763,6.993626746139526,2.311903373069763Q7.023336746139527,2.409843373069763,7.0433067461395265,2.510233373069763Q7.063266746139527,2.6106133730697634,7.073306746139527,2.712463373069763Q7.083336746139526,2.8143233730697634,7.083336746139526,2.9166633730697633Z" fill="#015C5F" fill-opacity="1"/></g><g><path d="M5.000000095367431,6.0416669845581055C2.912500095367432,6.0416669845581055,1.2125000953674316,7.441666984558106,1.2125000953674316,9.166666984558105C1.2125000953674316,9.283336984558105,1.3041667953674316,9.374996984558106,1.4208330953674317,9.374996984558106C1.4208330953674317,9.374996984558106,8.57917009536743,9.374996984558106,8.57917009536743,9.374996984558106C8.69583009536743,9.374996984558106,8.787500095367431,9.283336984558105,8.787500095367431,9.166666984558105C8.787500095367431,7.441666984558106,7.087500095367432,6.0416669845581055,5.000000095367431,6.0416669845581055Z" fill="#015C5F" fill-opacity="1"/></g></g></svg>