<svg xmlns="http://www.w3.org/2000/svg" xmlns:xlink="http://www.w3.org/1999/xlink" fill="none" version="1.1" width="20" height="20" viewBox="0 0 20 20"><defs><clipPath id="master_svg0_34_413"><rect x="0" y="0" width="20" height="20" rx="0"/></clipPath></defs><g clip-path="url(#master_svg0_34_413)"><rect x="0" y="0" width="20" height="20" rx="0" fill="#FFFFFF" fill-opacity="0"/><g><path d="M16.4498,7.37379Q17.1206,6.95642,17.4395,6.21209Q18.247,4.32773,15.656,1.2655699999999999C15.6291,1.233808,15.5997,1.204337,15.5679,1.177463C15.2517,0.9099137,14.7785,0.9493624,14.5109,1.2655750000000001Q11.92,4.32773,12.7274,6.21207Q13.0464,6.95641,13.7171,7.37379Q14.3385,7.76043,15.0835,7.76043Q15.8284,7.76043,16.4498,7.37379ZM15.0835,2.95055Q16.4327,4.75329,16.0608,5.62128Q15.7869,6.26043,15.0835,6.26043Q14.38,6.26043,14.1062,5.62129Q13.7343,4.753299999999999,15.0835,2.95055ZM1,17.5833L1,9.25002C1,8.835799999999999,1.335786,8.50002,1.75,8.50002L4.66667,8.50002C5.08088,8.50002,5.41667,8.835799999999999,5.41667,9.25002L5.41667,10.96981Q6.00874,10.91774,6.41266,10.77588Q6.77725,10.64783,7.33815,10.25452Q8.22012,9.63607,9.01278,9.37183Q10.67326,8.81834,11.8777,9.31106Q12.5448,9.58397,12.8789,10.13284Q13.2373,10.72159,13.1148,11.4566Q13.0032,12.1259,12.5176,12.7663Q12.9694,12.5767,13.676,11.9475Q14.2427,11.4429,14.6333,11.15Q16.1022,10.04836,17.4983,10.28105Q18.2264,10.40241,18.6785,10.88671Q19.1666,11.4097,19.1666,12.1667Q19.1666,12.8408,18.7883,13.7349Q18.3797,14.7009,17.686,15.517Q15.8234,17.7083,13,17.7083Q10.6785,17.7083,7.09832,17.0198Q6.05855,16.8199,5.41667,16.7331L5.41667,17.5833C5.41667,17.9976,5.08088,18.3333,4.66667,18.3333L1.75,18.3333C1.335786,18.3333,1,17.9976,1,17.5833ZM3.91667,11.7421L3.91663,11.75L3.91663,15.9167L3.91667,15.9246L3.91667,16.8333L2.5,16.8333L2.5,10.00002L3.91667,10.00002L3.91667,11.7421ZM5.41667,15.2228Q6.16427,15.3127,7.3816,15.5468Q10.82142,16.2083,13,16.2083Q15.1297,16.2083,16.543100000000003,14.5455Q17.0878,13.9047,17.4069,13.1505Q17.6666,12.5366,17.6666,12.1667Q17.6666,11.8298,17.2517,11.7606Q16.4887,11.6335,15.5333,12.35Q15.1931,12.6051,14.6735,13.0678Q13.7423,13.8969,13.0352,14.1751Q11.9972,14.5833,10.08329,14.5833C9.81985,14.5833,9.57572,14.4451,9.44017,14.2192C9.22706,13.864,9.34224,13.4033,9.69742,13.1902Q11.4838,12.1184,11.6352,11.21Q11.6941,10.85661,11.3097,10.69938Q10.62002,10.41722,9.48714,10.79485Q8.90212,10.98987,8.19934,11.4827Q7.46926,11.9946,6.90971,12.1911Q6.28524,12.4105,5.41667,12.474L5.41667,15.2228Z" fill-rule="evenodd" fill="#000000" fill-opacity="1"/></g></g></svg>