<svg xmlns="http://www.w3.org/2000/svg" xmlns:xlink="http://www.w3.org/1999/xlink" fill="none" version="1.1" width="20" height="20" viewBox="0 0 20 20"><g><g><g><rect x="0" y="0" width="20" height="20" rx="0" fill="#FFFFFF" fill-opacity="0"/></g><g><path d="M2.8333332538604736,16.333366626930236L2.8333332538604736,3.666666626930237Q2.8333332538604736,2.6311326269302366,3.5655662538604735,1.8988996269302367Q4.2977992538604735,1.1666666269302368,5.333333253860474,1.1666666269302368L14.666633253860473,1.1666666269302368Q15.702233253860474,1.1666666269302368,16.434433253860476,1.8988996269302367Q17.166633253860475,2.631131626930237,17.166633253860475,3.666666626930237L17.166633253860475,16.333366626930236Q17.166633253860475,17.368866626930235,16.434433253860476,18.101066626930237Q15.702233253860474,18.833366626930236,14.666633253860473,18.833366626930236L5.333333253860474,18.833366626930236Q4.297798253860473,18.833366626930236,3.5655662538604735,18.101066626930237Q2.8333332538604736,17.368866626930235,2.8333332538604736,16.333366626930236ZM3.8333332538604736,16.333366626930236Q3.8333332538604736,16.954666626930237,4.272673253860473,17.393966626930236Q4.712013253860474,17.833366626930236,5.333333253860474,17.833366626930236L14.666633253860473,17.833366626930236Q15.288033253860474,17.833366626930236,15.727333253860474,17.393966626930236Q16.166633253860475,16.954666626930237,16.166633253860475,16.333366626930236L16.166633253860475,3.666666626930237Q16.166633253860475,3.045346626930237,15.727333253860474,2.606006626930237Q15.288033253860474,2.166666626930237,14.666633253860473,2.166666626930237L5.333333253860474,2.166666626930237Q4.712013253860474,2.166666626930237,4.272673253860473,2.606006626930237Q3.8333332538604736,3.045346626930237,3.8333332538604736,3.666666626930237L3.8333332538604736,16.333366626930236Z" fill="#000000" fill-opacity="1"/></g><g><path d="M8.75,6.3333330154418945L13.75,6.3333330154418945Q13.79925,6.3333330154418945,13.84755,6.323726015441895Q13.89584,6.3141180154418945,13.94134,6.295273015441895Q13.98684,6.276427015441895,14.02778,6.249068015441894Q14.06873,6.2217080154418944,14.10355,6.186886015441894Q14.13837,6.152064015441894,14.16573,6.111118015441894Q14.19309,6.070172015441894,14.21194,6.024675015441894Q14.23078,5.979178015441894,14.24039,5.930878115441894Q14.25,5.882578715441895,14.25,5.8333330154418945Q14.25,5.784087315441894,14.24039,5.735787915441895Q14.23078,5.687488015441895,14.21194,5.641991015441895Q14.19309,5.596494015441895,14.16573,5.555548015441895Q14.13837,5.514602015441895,14.10355,5.479780015441895Q14.06873,5.444958015441895,14.02778,5.417598015441895Q13.98684,5.390239015441894,13.94134,5.371393015441894Q13.89584,5.3525480154418945,13.84755,5.3429400154418945Q13.79925,5.3333330154418945,13.75,5.3333330154418945L8.75,5.3333330154418945Q8.7007543,5.3333330154418945,8.6524549,5.3429400154418945Q8.604155,5.3525480154418945,8.558658,5.371393015441894Q8.513161,5.390239015441894,8.472215,5.417598015441895Q8.431269,5.444958015441895,8.396447,5.479780015441895Q8.361625,5.514602015441895,8.334265,5.555548015441895Q8.306906,5.596494015441895,8.28806,5.641991015441895Q8.269214999999999,5.687488015441895,8.259607,5.735787915441895Q8.25,5.784087315441894,8.25,5.8333330154418945Q8.25,5.882578715441895,8.259607,5.930878115441894Q8.269214999999999,5.979178015441894,8.28806,6.024675015441894Q8.306906,6.070172015441894,8.334265,6.111118015441894Q8.361625,6.152064015441894,8.396447,6.186886015441894Q8.431269,6.2217080154418944,8.472215,6.249068015441894Q8.513161,6.276427015441895,8.558658,6.295273015441895Q8.604155,6.3141180154418945,8.6524549,6.323726015441895Q8.7007543,6.3333330154418945,8.75,6.3333330154418945Z" fill-rule="evenodd" fill="#000000" fill-opacity="1"/></g><g><path d="M8.75,10.5L13.75,10.5Q13.79925,10.5,13.84755,10.490393Q13.89584,10.480785000000001,13.94134,10.46194Q13.98684,10.443094,14.02778,10.415735Q14.06873,10.388375,14.10355,10.353553Q14.13837,10.318731,14.16573,10.277785Q14.19309,10.236839,14.21194,10.191342Q14.23078,10.145845,14.24039,10.0975451Q14.25,10.0492457,14.25,10Q14.25,9.9507543,14.24039,9.9024549Q14.23078,9.854155,14.21194,9.808658Q14.19309,9.763161,14.16573,9.722215Q14.13837,9.681269,14.10355,9.646447Q14.06873,9.611625,14.02778,9.584265Q13.98684,9.556906,13.94134,9.53806Q13.89584,9.519214999999999,13.84755,9.509607Q13.79925,9.5,13.75,9.5L8.75,9.5Q8.7007543,9.5,8.6524549,9.509607Q8.604155,9.519214999999999,8.558658,9.53806Q8.513161,9.556906,8.472215,9.584265Q8.431269,9.611625,8.396447,9.646447Q8.361625,9.681269,8.334265,9.722215Q8.306906,9.763161,8.28806,9.808658Q8.269214999999999,9.854155,8.259607,9.9024549Q8.25,9.9507543,8.25,10Q8.25,10.0492457,8.259607,10.0975451Q8.269214999999999,10.145845,8.28806,10.191342Q8.306906,10.236839,8.334265,10.277785Q8.361625,10.318731,8.396447,10.353553Q8.431269,10.388375,8.472215,10.415735Q8.513161,10.443094,8.558658,10.46194Q8.604155,10.480785000000001,8.6524549,10.490393Q8.7007543,10.5,8.75,10.5Z" fill-rule="evenodd" fill="#000000" fill-opacity="1"/></g><g><path d="M8.75,14.666666030883789L13.75,14.666666030883789Q13.79925,14.666666030883789,13.84755,14.657059030883788Q13.89584,14.64745103088379,13.94134,14.62860603088379Q13.98684,14.60976003088379,14.02778,14.582401030883789Q14.06873,14.555041030883789,14.10355,14.520219030883789Q14.13837,14.485397030883789,14.16573,14.444451030883789Q14.19309,14.403505030883789,14.21194,14.35800803088379Q14.23078,14.312511030883789,14.24039,14.264211130883789Q14.25,14.21591173088379,14.25,14.166666030883789Q14.25,14.117420330883789,14.24039,14.06912093088379Q14.23078,14.02082103088379,14.21194,13.975324030883788Q14.19309,13.92982703088379,14.16573,13.88888103088379Q14.13837,13.84793503088379,14.10355,13.81311303088379Q14.06873,13.77829103088379,14.02778,13.75093103088379Q13.98684,13.723572030883789,13.94134,13.704726030883789Q13.89584,13.685881030883788,13.84755,13.67627303088379Q13.79925,13.666666030883789,13.75,13.666666030883789L8.75,13.666666030883789Q8.7007543,13.666666030883789,8.6524549,13.67627303088379Q8.604155,13.685881030883788,8.558658,13.704726030883789Q8.513161,13.723572030883789,8.472215,13.75093103088379Q8.431269,13.77829103088379,8.396447,13.81311303088379Q8.361625,13.84793503088379,8.334265,13.88888103088379Q8.306906,13.92982703088379,8.28806,13.975324030883788Q8.269214999999999,14.02082103088379,8.259607,14.06912093088379Q8.25,14.117420330883789,8.25,14.166666030883789Q8.25,14.21591173088379,8.259607,14.264211130883789Q8.269214999999999,14.312511030883789,8.28806,14.35800803088379Q8.306906,14.403505030883789,8.334265,14.444451030883789Q8.361625,14.485397030883789,8.396447,14.520219030883789Q8.431269,14.555041030883789,8.472215,14.582401030883789Q8.513161,14.60976003088379,8.558658,14.62860603088379Q8.604155,14.64745103088379,8.6524549,14.657059030883788Q8.7007543,14.666666030883789,8.75,14.666666030883789Z" fill-rule="evenodd" fill="#000000" fill-opacity="1"/></g><g><path d="M7.500003015441894,5.833333Q7.500003015441894,5.915409,7.483983015441894,5.995908Q7.467973015441895,6.07641,7.4365630154418945,6.15224Q7.405153015441894,6.22806,7.359553015441895,6.29631Q7.313963015441894,6.3645499999999995,7.255923015441894,6.42259Q7.197883015441894,6.48063,7.129643015441895,6.52622Q7.061393015441895,6.57182,6.9855730154418945,6.60323Q6.909743015441895,6.63464,6.8292410154418945,6.65065Q6.748742015441895,6.66667,6.666666015441894,6.66667Q6.584590015441894,6.66667,6.504091015441895,6.65065Q6.423592015441894,6.63464,6.3477630154418945,6.60323Q6.271935015441895,6.57182,6.203691015441895,6.52622Q6.135447015441894,6.48063,6.0774110154418945,6.42259Q6.019374015441895,6.3645499999999995,5.973775015441895,6.29631Q5.928175915441894,6.22806,5.896766715441895,6.15224Q5.865357515441895,6.07641,5.849345315441894,5.995908Q5.8333330154418945,5.915409,5.8333330154418945,5.833333Q5.8333330154418945,5.751257,5.849345315441894,5.670758Q5.865357515441895,5.590259,5.896766715441895,5.51443Q5.928175915441894,5.438602,5.973775015441895,5.370358Q6.019374015441895,5.3021139999999995,6.0774110154418945,5.244078Q6.135447015441894,5.186041,6.203691015441895,5.140442Q6.271935015441895,5.0948429,6.3477630154418945,5.0634337Q6.423592015441894,5.0320245,6.504091015441895,5.0160123Q6.584590015441894,5,6.666666015441894,5Q6.748742015441895,5,6.8292410154418945,5.0160123Q6.909743015441895,5.0320245,6.9855730154418945,5.0634337Q7.061393015441895,5.0948429,7.129643015441895,5.140442Q7.197883015441894,5.186041,7.255923015441894,5.244078Q7.313963015441894,5.3021139999999995,7.359553015441895,5.370358Q7.405153015441894,5.438602,7.4365630154418945,5.51443Q7.467973015441895,5.590259,7.483983015441894,5.670758Q7.500003015441894,5.751257,7.500003015441894,5.833333Z" fill="#000000" fill-opacity="1"/></g><g><path d="M7.500003015441894,9.999999030883789Q7.500003015441894,10.08207503088379,7.483983015441894,10.162574030883789Q7.467973015441895,10.243076030883788,7.4365630154418945,10.318906030883788Q7.405153015441894,10.394726030883788,7.359553015441895,10.46297603088379Q7.313963015441894,10.531216030883789,7.255923015441894,10.589256030883789Q7.197883015441894,10.647296030883789,7.129643015441895,10.69288603088379Q7.061393015441895,10.73848603088379,6.9855730154418945,10.769896030883789Q6.909743015441895,10.80130603088379,6.8292410154418945,10.81731603088379Q6.748742015441895,10.833336030883789,6.666666015441894,10.833336030883789Q6.584590015441894,10.833336030883789,6.504091015441895,10.81731603088379Q6.423592015441894,10.80130603088379,6.3477630154418945,10.769896030883789Q6.271935015441895,10.73848603088379,6.203691015441895,10.69288603088379Q6.135447015441894,10.647296030883789,6.0774110154418945,10.589256030883789Q6.019374015441895,10.531216030883789,5.973775015441895,10.46297603088379Q5.928175915441894,10.394726030883788,5.896766715441895,10.318906030883788Q5.865357515441895,10.243076030883788,5.849345315441894,10.162574030883789Q5.8333330154418945,10.08207503088379,5.8333330154418945,9.999999030883789Q5.8333330154418945,9.91792303088379,5.849345315441894,9.837424030883788Q5.865357515441895,9.756925030883789,5.896766715441895,9.68109603088379Q5.928175915441894,9.605268030883789,5.973775015441895,9.537024030883789Q6.019374015441895,9.468780030883789,6.0774110154418945,9.410744030883789Q6.135447015441894,9.352707030883789,6.203691015441895,9.30710803088379Q6.271935015441895,9.261508930883789,6.3477630154418945,9.230099730883788Q6.423592015441894,9.19869053088379,6.504091015441895,9.182678330883789Q6.584590015441894,9.166666030883789,6.666666015441894,9.166666030883789Q6.748742015441895,9.166666030883789,6.8292410154418945,9.182678330883789Q6.909743015441895,9.19869053088379,6.9855730154418945,9.230099730883788Q7.061393015441895,9.261508930883789,7.129643015441895,9.30710803088379Q7.197883015441894,9.352707030883789,7.255923015441894,9.410744030883789Q7.313963015441894,9.468780030883789,7.359553015441895,9.537024030883789Q7.405153015441894,9.605268030883789,7.4365630154418945,9.68109603088379Q7.467973015441895,9.756925030883789,7.483983015441894,9.837424030883788Q7.500003015441894,9.91792303088379,7.500003015441894,9.999999030883789Z" fill="#000000" fill-opacity="1"/></g><g><path d="M7.500003015441894,14.166666015441894Q7.500003015441894,14.248742015441895,7.483983015441894,14.329241015441895Q7.467973015441895,14.409743015441894,7.4365630154418945,14.485573015441894Q7.405153015441894,14.561393015441894,7.359553015441895,14.629643015441895Q7.313963015441894,14.697883015441894,7.255923015441894,14.755923015441894Q7.197883015441894,14.813963015441894,7.129643015441895,14.859553015441895Q7.061393015441895,14.905153015441895,6.9855730154418945,14.936563015441894Q6.909743015441895,14.967973015441896,6.8292410154418945,14.983983015441895Q6.748742015441895,15.000003015441894,6.666666015441894,15.000003015441894Q6.584590015441894,15.000003015441894,6.504091015441895,14.983983015441895Q6.423592015441894,14.967973015441896,6.3477630154418945,14.936563015441894Q6.271935015441895,14.905153015441895,6.203691015441895,14.859553015441895Q6.135447015441894,14.813963015441894,6.0774110154418945,14.755923015441894Q6.019374015441895,14.697883015441894,5.973775015441895,14.629643015441895Q5.928175915441894,14.561393015441894,5.896766715441895,14.485573015441894Q5.865357515441895,14.409743015441894,5.849345315441894,14.329241015441895Q5.8333330154418945,14.248742015441895,5.8333330154418945,14.166666015441894Q5.8333330154418945,14.084590015441895,5.849345315441894,14.004091015441894Q5.865357515441895,13.923592015441894,5.896766715441895,13.847763015441895Q5.928175915441894,13.771935015441894,5.973775015441895,13.703691015441894Q6.019374015441895,13.635447015441894,6.0774110154418945,13.577411015441895Q6.135447015441894,13.519374015441894,6.203691015441895,13.473775015441895Q6.271935015441895,13.428175915441894,6.3477630154418945,13.396766715441894Q6.423592015441894,13.365357515441895,6.504091015441895,13.349345315441894Q6.584590015441894,13.333333015441895,6.666666015441894,13.333333015441895Q6.748742015441895,13.333333015441895,6.8292410154418945,13.349345315441894Q6.909743015441895,13.365357515441895,6.9855730154418945,13.396766715441894Q7.061393015441895,13.428175915441894,7.129643015441895,13.473775015441895Q7.197883015441894,13.519374015441894,7.255923015441894,13.577411015441895Q7.313963015441894,13.635447015441894,7.359553015441895,13.703691015441894Q7.405153015441894,13.771935015441894,7.4365630154418945,13.847763015441895Q7.467973015441895,13.923592015441894,7.483983015441894,14.004091015441894Q7.500003015441894,14.084590015441895,7.500003015441894,14.166666015441894Z" fill="#000000" fill-opacity="1"/></g></g></g></svg>