<svg xmlns="http://www.w3.org/2000/svg" xmlns:xlink="http://www.w3.org/1999/xlink" fill="none" version="1.1" width="24" height="24" viewBox="0 0 24 24"><g><g><rect x="0" y="0" width="24" height="24" rx="0" fill="#FFFFFF" fill-opacity="0.009999999776482582"/></g><g><path d="M8,14.750001907348633Q8,14.811411907348633,7.9939800000000005,14.872521907348633Q7.98796,14.933631907348634,7.97598,14.993861907348633Q7.964,15.054091907348633,7.94618,15.112861907348632Q7.92835,15.171621907348634,7.90485,15.228351907348634Q7.881349999999999,15.285091907348633,7.852399999999999,15.339251907348633Q7.823449999999999,15.393401907348633,7.78934,15.444461907348632Q7.75522,15.495521907348632,7.71626,15.542991907348632Q7.67731,15.590461907348633,7.6338799999999996,15.633881907348632Q7.59046,15.677311907348633,7.54299,15.716261907348633Q7.49552,15.755221907348632,7.44446,15.789341907348632Q7.3934,15.823451907348632,7.33925,15.852401907348632Q7.28509,15.881351907348632,7.22835,15.904851907348633Q7.17162,15.928351907348633,7.1128599999999995,15.946181907348633Q7.05409,15.964001907348633,6.99386,15.975981907348633Q6.93363,15.987961907348634,6.87252,15.993981907348633Q6.81141,16.000001907348633,6.75,16.000001907348633Q6.68859,16.000001907348633,6.62748,15.993981907348633Q6.56637,15.987961907348634,6.50614,15.975981907348633Q6.445908,15.964001907348633,6.387144,15.946181907348633Q6.32838,15.928351907348633,6.2716460000000005,15.904851907348633Q6.214912,15.881351907348632,6.160754,15.852401907348632Q6.106597,15.823451907348632,6.055537,15.789341907348632Q6.004478,15.755221907348632,5.957008,15.716261907348633Q5.909539,15.677311907348633,5.866116,15.633881907348632Q5.822694,15.590461907348633,5.783737,15.542991907348632Q5.74478,15.495521907348632,5.710663,15.444461907348632Q5.676546,15.393401907348633,5.647598,15.339251907348633Q5.618651,15.285091907348633,5.5951506,15.228351907348634Q5.5716505,15.171621907348634,5.5538246000000004,15.112861907348632Q5.5359986,15.054091907348633,5.5240184,14.993861907348633Q5.5120382,14.933631907348634,5.50601909,14.872521907348633Q5.5,14.811411907348633,5.5,14.750001907348633Q5.5,14.688591907348632,5.50601909,14.627481907348633Q5.5120382,14.566371907348632,5.5240184,14.506141907348633Q5.5359986,14.445909907348632,5.5538246000000004,14.387145907348632Q5.5716505,14.328381907348632,5.5951506,14.271647907348633Q5.618651,14.214913907348633,5.647598,14.160755907348634Q5.676546,14.106598907348634,5.710663,14.055538907348632Q5.74478,14.004479907348633,5.783737,13.957009907348633Q5.822694,13.909540907348633,5.866116,13.866117907348633Q5.909539,13.822695907348633,5.957008,13.783738907348633Q6.004478,13.744781907348633,6.055537,13.710664907348633Q6.106597,13.676547907348633,6.160754,13.647599907348633Q6.214912,13.618652907348633,6.2716460000000005,13.595152507348633Q6.32838,13.571652407348633,6.387144,13.553826507348633Q6.445908,13.536000507348632,6.50614,13.524020307348632Q6.56637,13.512040107348632,6.62748,13.506020997348633Q6.68859,13.500001907348633,6.75,13.500001907348633Q6.81141,13.500001907348633,6.87252,13.506020997348633Q6.93363,13.512040107348632,6.99386,13.524020307348632Q7.05409,13.536000507348632,7.1128599999999995,13.553826507348633Q7.17162,13.571652407348633,7.22835,13.595152507348633Q7.28509,13.618652907348633,7.33925,13.647599907348633Q7.3934,13.676547907348633,7.44446,13.710664907348633Q7.49552,13.744781907348633,7.54299,13.783738907348633Q7.59046,13.822695907348633,7.6338799999999996,13.866117907348633Q7.67731,13.909540907348633,7.71626,13.957009907348633Q7.75522,14.004479907348633,7.78934,14.055538907348632Q7.823449999999999,14.106598907348634,7.852399999999999,14.160755907348634Q7.881349999999999,14.214913907348633,7.90485,14.271647907348633Q7.92835,14.328381907348632,7.94618,14.387145907348632Q7.964,14.445909907348632,7.97598,14.506141907348633Q7.98796,14.566371907348632,7.9939800000000005,14.627481907348633Q8,14.688591907348632,8,14.750001907348633Z" fill="#4476E3" fill-opacity="1"/></g><g><path d="M18.5,14.750001907348633Q18.5,14.811411907348633,18.49398,14.872521907348633Q18.48796,14.933631907348634,18.47598,14.993861907348633Q18.464,15.054091907348633,18.44618,15.112861907348632Q18.428350000000002,15.171621907348634,18.40485,15.228351907348634Q18.38135,15.285091907348633,18.3524,15.339251907348633Q18.32345,15.393401907348633,18.28934,15.444461907348632Q18.25522,15.495521907348632,18.21626,15.542991907348632Q18.17731,15.590461907348633,18.13388,15.633881907348632Q18.09046,15.677311907348633,18.04299,15.716261907348633Q17.99552,15.755221907348632,17.94446,15.789341907348632Q17.8934,15.823451907348632,17.83925,15.852401907348632Q17.78509,15.881351907348632,17.72835,15.904851907348633Q17.67162,15.928351907348633,17.61286,15.946181907348633Q17.55409,15.964001907348633,17.49386,15.975981907348633Q17.43363,15.987961907348634,17.37252,15.993981907348633Q17.31141,16.000001907348633,17.25,16.000001907348633Q17.18859,16.000001907348633,17.12748,15.993981907348633Q17.06637,15.987961907348634,17.00614,15.975981907348633Q16.945908,15.964001907348633,16.887144,15.946181907348633Q16.82838,15.928351907348633,16.771646,15.904851907348633Q16.714911999999998,15.881351907348632,16.660754,15.852401907348632Q16.606597,15.823451907348632,16.555537,15.789341907348632Q16.504478,15.755221907348632,16.457008,15.716261907348633Q16.409539,15.677311907348633,16.366116,15.633881907348632Q16.322694,15.590461907348633,16.283737,15.542991907348632Q16.24478,15.495521907348632,16.210663,15.444461907348632Q16.176546,15.393401907348633,16.147598,15.339251907348633Q16.118651,15.285091907348633,16.0951506,15.228351907348634Q16.0716505,15.171621907348634,16.0538246,15.112861907348632Q16.0359986,15.054091907348633,16.0240184,14.993861907348633Q16.0120382,14.933631907348634,16.00601909,14.872521907348633Q16,14.811411907348633,16,14.750001907348633Q16,14.688591907348632,16.00601909,14.627481907348633Q16.0120382,14.566371907348632,16.0240184,14.506141907348633Q16.0359986,14.445909907348632,16.0538246,14.387145907348632Q16.0716505,14.328381907348632,16.0951506,14.271647907348633Q16.118651,14.214913907348633,16.147598,14.160755907348634Q16.176546,14.106598907348634,16.210663,14.055538907348632Q16.24478,14.004479907348633,16.283737,13.957009907348633Q16.322694,13.909540907348633,16.366116,13.866117907348633Q16.409539,13.822695907348633,16.457008,13.783738907348633Q16.504478,13.744781907348633,16.555537,13.710664907348633Q16.606597,13.676547907348633,16.660754,13.647599907348633Q16.714911999999998,13.618652907348633,16.771646,13.595152507348633Q16.82838,13.571652407348633,16.887144,13.553826507348633Q16.945908,13.536000507348632,17.00614,13.524020307348632Q17.06637,13.512040107348632,17.12748,13.506020997348633Q17.18859,13.500001907348633,17.25,13.500001907348633Q17.31141,13.500001907348633,17.37252,13.506020997348633Q17.43363,13.512040107348632,17.49386,13.524020307348632Q17.55409,13.536000507348632,17.61286,13.553826507348633Q17.67162,13.571652407348633,17.72835,13.595152507348633Q17.78509,13.618652907348633,17.83925,13.647599907348633Q17.8934,13.676547907348633,17.94446,13.710664907348633Q17.99552,13.744781907348633,18.04299,13.783738907348633Q18.09046,13.822695907348633,18.13388,13.866117907348633Q18.17731,13.909540907348633,18.21626,13.957009907348633Q18.25522,14.004479907348633,18.28934,14.055538907348632Q18.32345,14.106598907348634,18.3524,14.160755907348634Q18.38135,14.214913907348633,18.40485,14.271647907348633Q18.428350000000002,14.328381907348632,18.44618,14.387145907348632Q18.464,14.445909907348632,18.47598,14.506141907348633Q18.48796,14.566371907348632,18.49398,14.627481907348633Q18.5,14.688591907348632,18.5,14.750001907348633Z" fill="#4476E3" fill-opacity="1"/></g><g><path d="M3.5,18.5C2.671575,18.5,2,17.828400000000002,2,17L2,12.35485C2,11.21815,2.64243,10.17905,3.6593,9.6711L4.00027,9.50075L5.1552500000000006,4.5459700000000005C5.3663,3.6405849999999997,6.17335,3,7.103,3L16.9471,3C17.8838,3,18.695,3.64999,18.899,4.56408L20.0016,9.50075L20.3417,9.6708C21.358,10.179,22,11.21775,22,12.35405L22,17C22,17.828400000000002,21.3284,18.5,20.5,18.5L19.5016,18.5L19.5016,19C19.5016,20.1045,18.6054,21,17.500799999999998,21C16.3962,21,15.5,20.1045,15.5,19L15.5,18.5L8.5,18.5L8.5,19.0002C8.5,20.1047,7.60465,21,6.50015,21C5.39565,21,4.50027,20.1047,4.50027,19.0002L4.50027,18.5L3.5,18.5Z" fill="#4476E3" fill-opacity="1"/><path d="M3.5380700000000003,19.5L3.5,19.5Q2.464467,19.5,1.732238,18.7678Q1,18.035600000000002,1,17L1,12.35485Q1,11.21815,1.597763,10.25132Q2.171935,9.32264,3.13276,8.81734L4.18136,4.31895Q4.4187899999999996,3.300398,5.23796,2.650205Q6.05714,2,7.103,2L16.9471,2Q18.0008,2,18.8231,2.658882Q19.6454,3.317789,19.875,4.34616L20.8742,8.820219999999999Q21.8305,9.32553,22.4026,10.251159999999999Q23,11.21776,23,12.35405L23,17Q23,18.035600000000002,22.2678,18.7678Q21.5356,19.5,20.5,19.5L20.4637,19.5Q20.3191,20.425,19.6223,21.1215Q18.7433,22,17.500799999999998,22Q16.258200000000002,22,15.3793,21.1215Q14.6824,20.425,14.5378,19.5L9.46219,19.5Q9.31774,20.425,8.621369999999999,21.1214Q7.74274,22,6.50015,22Q5.257569999999999,22,4.37892,21.1214Q3.68253,20.425,3.5380700000000003,19.5ZM5.50027,18.5Q5.50026,18.4015,5.48105,18.3049Q5.4618400000000005,18.2083,5.4241399999999995,18.1173Q5.38645,18.0263,5.33173,17.9444Q5.27702,17.8625,5.20737,17.7929Q5.1377299999999995,17.7232,5.05584,17.6685Q4.97394,17.613799999999998,4.88295,17.5761Q4.79195,17.5384,4.6953499999999995,17.519199999999998Q4.59876,17.5,4.50027,17.5L3.5,17.5Q3.29289,17.5,3.14644,17.3536Q3,17.2071,3,17L3,12.35485Q3,11.78649,3.29888,11.30307Q3.59776,10.819659999999999,4.1061700000000005,10.5657L4.4472000000000005,10.39532Q4.5458300000000005,10.34604,4.631349999999999,10.27646Q4.71687,10.20689,4.78518,10.12035Q4.85349,10.03382,4.9013100000000005,9.93448Q4.94913,9.835139999999999,4.9741599999999995,9.72777L6.12914,4.77299Q6.20829,4.43346,6.48134,4.21673Q6.75439,4,7.103,4L16.9471,4Q17.2984,4,17.572499999999998,4.21963Q17.846600000000002,4.4392499999999995,17.923099999999998,4.782L19.0256,9.71871Q19.0499,9.82742,19.0975,9.92813Q19.1451,10.028839999999999,19.2137,10.1166Q19.2823,10.204360000000001,19.3685,10.27488Q19.4548,10.34539,19.5544,10.395199999999999L19.8945,10.565249999999999Q20.4026,10.819320000000001,20.7013,11.30262Q21,11.78591,21,12.35405L21,17Q21,17.2071,20.8536,17.3536Q20.7071,17.5,20.5,17.5L19.5016,17.5Q19.4031,17.5,19.3065,17.519199999999998Q19.2099,17.5384,19.1189,17.5761Q19.0279,17.613799999999998,18.946,17.6685Q18.8641,17.7232,18.7944,17.7929Q18.7248,17.8625,18.6701,17.9444Q18.6154,18.0263,18.5777,18.1173Q18.54,18.2083,18.5208,18.3049Q18.5016,18.4015,18.5016,18.5L18.5016,19Q18.5016,19.414,18.2085,19.7069Q17.9152,20,17.500799999999998,20Q17.0863,20,16.793100000000003,19.7069Q16.5,19.414,16.5,19L16.5,18.5Q16.5,18.4015,16.480800000000002,18.3049Q16.4616,18.2083,16.4239,18.1173Q16.386200000000002,18.0263,16.3315,17.9444Q16.276699999999998,17.8625,16.2071,17.7929Q16.1375,17.7232,16.0556,17.6685Q15.9737,17.613799999999998,15.8827,17.5761Q15.7917,17.5384,15.6951,17.519199999999998Q15.5985,17.5,15.5,17.5L8.5,17.5Q8.40151,17.5,8.30491,17.519199999999998Q8.20831,17.5384,8.11732,17.5761Q8.02632,17.613799999999998,7.94443,17.6685Q7.86254,17.7232,7.79289,17.7929Q7.72325,17.8625,7.66853,17.9444Q7.61381,18.0263,7.57612,18.1173Q7.53843,18.2083,7.51921,18.3049Q7.5,18.4015,7.5,18.5L7.5,19.0002Q7.5,19.4143,7.20716,19.7072Q6.91431,20,6.50015,20Q6.08598,20,5.79312,19.7071Q5.50027,19.4143,5.50027,19.0002L5.50027,18.5Z" fill-rule="evenodd" fill="#4476E3" fill-opacity="1"/></g><g><path d="M7,11.000001907348633L17,11.000001907348633L16.174,7.283051907348633C16.07235,6.825551907348633,15.66655,6.500001907348633,15.19785,6.500001907348633L8.80215,6.500001907348633C8.33345,6.500001907348633,7.92765,6.825551907348633,7.826,7.283051907348633L7,11.000001907348633Z" fill="#FFFFFF" fill-opacity="1"/><path d="M7.5506910000000005,5.939933907348633Q7.00230525,6.3798479073486325,6.849814,7.066118907348633L6.849805,7.066155907348633L6.023814,10.783071907348633Q5.98066,10.977241907348633,6.015105,11.173151907348633Q6.049546,11.369061907348634,6.156337,11.536871907348633Q6.263128,11.704691907348632,6.426009,11.818861907348634Q6.588891,11.933041907348633,6.783067,11.976191907348632Q6.890226,12.000001907348633,7,12.000001907348633L17,12.000001907348633Q17.0985,12.000001907348633,17.1951,11.980781907348632Q17.2917,11.961571907348633,17.3827,11.923881907348633Q17.4737,11.886191907348632,17.5556,11.831471907348632Q17.6375,11.776751907348633,17.7071,11.707111907348633Q17.776699999999998,11.637461907348634,17.8315,11.555571907348632Q17.886200000000002,11.473681907348633,17.9239,11.382681907348633Q17.9616,11.291691907348632,17.980800000000002,11.195091907348633Q18,11.098491907348633,18,11.000001907348633Q18,10.890231907348632,17.9762,10.783071907348633L17.150199999999998,7.066118907348633Q16.997709999999998,6.379859907348632,16.44931,5.939933907348633Q15.9009,5.500001907348633,15.19785,5.500001907348633L8.80215,5.500001907348633Q8.0991,5.500001907348633,7.5506910000000005,5.939933907348633ZM8.80218,7.500001907348633L8.24662,10.000001907348633L15.75338,10.000001907348633L15.19782,7.500001907348633L8.80218,7.500001907348633Z" fill-rule="evenodd" fill="#FFFFFF" fill-opacity="1"/></g></g></svg>