<svg xmlns="http://www.w3.org/2000/svg" xmlns:xlink="http://www.w3.org/1999/xlink" fill="none" version="1.1" width="16" height="16" viewBox="0 0 16 16"><g><g><rect x="0" y="0" width="16" height="16" rx="0" fill="#FFFFFF" fill-opacity="0.009999999776482582"/></g><g><path d="M5.996529507720947,2.329865Q5.166666507720947,3.1597299999999997,5.166666507720947,4.33333Q5.166666507720947,5.50694,5.996529507720947,6.3368Q6.826396507720947,7.16667,7.999996507720947,7.16667Q9.173606507720947,7.16667,10.003466507720947,6.3368Q10.833336507720947,5.50694,10.833336507720947,4.33333Q10.833336507720947,3.1597299999999997,10.003466507720947,2.329865Q9.173606507720947,1.5,7.999996507720947,1.5Q6.826396507720947,1.5,5.996529507720947,2.329865ZM6.703636507720947,5.6297Q6.166666507720947,5.0927299999999995,6.166666507720947,4.33333Q6.166666507720947,3.57394,6.703636507720947,3.03697Q7.240606507720948,2.5,7.999996507720947,2.5Q8.759396507720947,2.5,9.296366507720947,3.03697Q9.833336507720947,3.57394,9.833336507720947,4.33333Q9.833336507720947,5.0927299999999995,9.296366507720947,5.6297Q8.759396507720947,6.16667,7.999996507720947,6.16667Q7.240606507720948,6.16667,6.703636507720947,5.6297Z" fill-rule="evenodd" fill="#232D42" fill-opacity="1"/></g><g><path d="M3.872584,6.761510070343018L3.872744,6.761610070343018Q3.9918,6.833350070343018,4.1308,6.833350070343018Q4.1399799999999995,6.833350070343018,4.14916,6.833010070343017Q4.21142,6.830720070343018,4.27122,6.813220070343018Q4.3310200000000005,6.7957300703430175,4.38469,6.764090070343018Q4.43837,6.732450070343018,4.48263,6.688610070343017Q4.5268999999999995,6.644770070343018,4.55906,6.591400070343018Q4.6308,6.472350070343017,4.6308,6.333350070343018L4.63066,6.321350070343017Q4.62934,6.266370070343017,4.6161,6.212990070343018Q4.59216,6.116460070343018,4.5331,6.036440070343017Q4.4740400000000005,5.956420070343018,4.38886,5.905090070343018Q3.5,5.3694900703430175,3.5,4.333350070343018Q3.5,3.3766160703430175,4.2860499999999995,2.8283330703430174Q4.3676200000000005,2.7714350703430175,4.42121,2.6876510703430174Q4.4748,2.603867070343018,4.49225,2.5059534703430177Q4.5,2.4624395703430175,4.5,2.4182403303720177L4.4999199999999995,2.4091908503430175Q4.49716,2.2570210703430176,4.41009,2.1321920703430175Q4.35319,2.050619070343018,4.26941,1.9970300703430177Q4.18563,1.9434410703430176,4.0877099999999995,1.9259940703430176Q4.0442,1.9182400703430176,4,1.9182400703430176L3.990951,1.9183220703430175Q3.838781,1.9210760703430176,3.713952,2.0081470703430178Q2.5,2.8549010703430175,2.5,4.333350070343018Q2.5,5.093460070343017,2.878312,5.748570070343018Q3.244635,6.3829100703430175,3.872071,6.761200070343017L3.872584,6.761510070343018Z" fill-rule="evenodd" fill="#232D42" fill-opacity="1"/></g><g><path d="M12.286224,2.0082700703430176Q13.5,2.8550080703430174,13.5,4.333350070343018Q13.5,5.811460070343017,12.286636,6.6581300703430175L12.286059999999999,6.6585300703430175L12.28604,6.658550070343018Q12.163879,6.743750070343018,12.0150045,6.7482200703430175Q12.00750393,6.748450070343018,12,6.748450070343018Q11.877409,6.748450070343018,11.768721,6.691740070343018Q11.660033,6.635040070343018,11.589901,6.5344900703430175Q11.504695,6.4123300703430175,11.500225,6.263450070343017Q11.5,6.255950070343017,11.5,6.248450070343018Q11.5,6.125860070343018,11.556705000000001,6.017170070343018Q11.613411,5.908480070343018,11.71396,5.838350070343018Q12.5,5.290090070343018,12.5,4.333350070343018Q12.5,3.3766170703430176,11.713952,2.8283330703430174Q11.633087,2.7719290703430177,11.579687,2.6890490703430174Q11.526288,2.6061690703430176,11.508347,2.5092215703430174Q11.508045,2.5075884703430176,11.507754,2.5059534703430177Q11.5,2.4624394703430177,11.5,2.418240070343017Q11.5,2.2692980703430177,11.581502,2.1446350703430177Q11.585611,2.1383500703430176,11.589907,2.1321920703430175Q11.646311,2.0513270703430178,11.729191,1.9979270703430176Q11.812071,1.9445280703430177,11.9090185,1.9265870703430177Q11.9106516,1.9262850703430177,11.9122867,1.9259940703430176Q11.9558007,1.9182400703430176,12,1.9182400703430176Q12.148942,1.9182400703430176,12.273605,1.9997420703430175Q12.279906,2.0038620703430174,12.28608,2.0081690703430177L12.286224,2.0082700703430176Z" fill-rule="evenodd" fill="#232D42" fill-opacity="1"/></g><g><path d="M5.45482,9.074395015441894Q4.242999,9.576323015441895,3.741063,10.788153015441894L3.741057,10.788163015441894Q3.57017,11.200713015441895,3.526535,11.840213015441895Q3.5,12.229103015441895,3.5,13.333333015441895L3.5,14.000003015441894Q3.5,14.049243015441895,3.509607,14.097543015441895Q3.519215,14.145843015441894,3.5380599999999998,14.191343015441895Q3.556906,14.236833015441896,3.584265,14.277783015441894Q3.611625,14.318733015441895,3.646447,14.353553015441895Q3.681269,14.388373015441895,3.722215,14.415733015441894Q3.763161,14.443093015441894,3.808658,14.461943015441895Q3.854155,14.480783015441894,3.9024549,14.490393015441896Q3.9507543,14.500003015441894,4,14.500003015441894L12,14.500003015441894Q12.04924,14.500003015441894,12.09754,14.490393015441896Q12.14584,14.480783015441894,12.19134,14.461943015441895Q12.23684,14.443093015441894,12.27778,14.415733015441894Q12.31873,14.388373015441895,12.35355,14.353553015441895Q12.38837,14.318733015441895,12.41573,14.277783015441894Q12.44309,14.236833015441896,12.46194,14.191343015441895Q12.48078,14.145843015441894,12.49039,14.097543015441895Q12.5,14.049243015441895,12.5,14.000003015441894L12.5,13.333333015441895Q12.5,12.229103015441895,12.47346,11.840213015441895Q12.42983,11.200703015441894,12.25894,10.788153015441894Q11.757010000000001,9.576326015441895,10.545169999999999,9.074390015441894Q10.132629999999999,8.903503015441894,9.493120000000001,8.859868015441894Q9.104230000000001,8.833333015441895,8,8.833333015441895Q6.895770000000001,8.833333015441895,6.506880000000001,8.859868015441894Q5.86737,8.903503015441894,5.45482,9.074395015441894ZM4.5,13.333333015441895Q4.5,11.569023015441894,4.664937,11.170843015441895L4.664943,11.170833015441895Q5.00836,10.341703015441894,5.83751,9.998270015441895Q6.23569,9.833333015441895,8,9.833333015441895Q9.76431,9.833333015441895,10.1625,9.998276015441894Q10.99164,10.341693015441894,11.33506,11.170853015441894Q11.5,11.569023015441894,11.5,13.333333015441895L11.5,13.500003015441894L4.5,13.500003015441894L4.5,13.333333015441895Z" fill-rule="evenodd" fill="#232D42" fill-opacity="1"/></g><g><path d="M13.437922297058105,9.178626078063965Q14.354462297058106,9.645751278063965,14.821512297058106,10.562371078063965Q15.066122297058106,11.042479078063964,15.128652297058105,11.807829078063964Q15.166642297058106,12.272829078063964,15.166642297058106,13.599999078063965L15.166642297058106,13.999999078063965Q15.166642297058106,14.049249078063966,15.157042297058105,14.097549078063965Q15.147432297058106,14.145849078063964,15.128582297058106,14.191339078063965Q15.109742297058105,14.236839078063966,15.082382297058105,14.277789078063964Q15.055022297058105,14.318729078063964,15.020202297058106,14.353559078063965Q14.985372297058106,14.388379078063965,14.944432297058105,14.415739078063964Q14.903482297058105,14.443099078063966,14.857982297058106,14.461939078063965Q14.812492297058105,14.480789078063964,14.764192297058106,14.490399078063966Q14.715892297058105,14.499999078063965,14.666642297058106,14.499999078063965Q14.617402297058106,14.499999078063965,14.569102297058105,14.490399078063966Q14.520802297058106,14.480789078063964,14.475302297058105,14.461939078063965Q14.429802297058105,14.443099078063966,14.388862297058106,14.415739078063964Q14.347912297058105,14.388379078063965,14.313092297058105,14.353559078063965Q14.278272297058106,14.318729078063964,14.250912297058106,14.277789078063964Q14.223552297058106,14.236839078063966,14.204705297058105,14.191339078063965Q14.185860297058106,14.145849078063964,14.176252297058106,14.097549078063965Q14.166645297058105,14.049249078063966,14.166645297058105,13.999999078063965L14.166645297058105,13.599999078063965Q14.166645297058105,11.479839078063964,13.930509297058105,11.016369078063965Q13.610932297058106,10.389170078063964,12.983775297058106,10.069553078063965L12.983614297058105,10.069471078063964Q12.921994297058106,10.038073078063965,12.871210297058106,9.991129078063965Q12.820426297058106,9.944184078063964,12.784291297058106,9.885217078063965Q12.748156297058106,9.826250078063964,12.729384297058106,9.759688078063965Q12.710612297058105,9.693127078063965,12.710612297058105,9.623969078063965Q12.710612297058105,9.515606078063964,12.755475297058105,9.416965078063965Q12.760071297058106,9.406861078063965,12.765110297058106,9.396971078063965Q12.796508297058105,9.335351078063965,12.843452297058105,9.284567078063965Q12.890397297058106,9.233783078063965,12.949364297058105,9.197648078063965Q13.008331297058106,9.161513078063965,13.074893297058106,9.142741078063965Q13.141454297058106,9.123969078063965,13.210612297058105,9.123969078063965Q13.318975297058106,9.123969078063965,13.417616297058105,9.168832078063964Q13.427720297058105,9.173428078063965,13.437610297058106,9.178467078063965L13.437922297058105,9.178626078063965Z" fill-rule="evenodd" fill="#232D42" fill-opacity="1"/></g><g><path d="M3.016301853523254,10.069553078063965L3.0164618535232544,10.069470078063965Q3.0177918535232546,10.068795078063966,3.0191118535232544,10.068111078063964Q3.1067718535232545,10.022786078063964,3.1706318535232545,9.947556078063965Q3.2345018535232546,9.872326078063965,3.2649918535232545,9.778473078063964Q3.2658518535232544,9.775844078063965,3.2666718535232544,9.773205078063965Q3.2894618535232545,9.700327478063965,3.2894618535232545,9.623969078063965Q3.2894618535232545,9.503927078063965,3.2349618535232545,9.396970078063966Q3.2342918535232545,9.395644078063965,3.2336118535232545,9.394322078063965Q3.1882818535232547,9.306663078063965,3.1130518535232543,9.242798078063965Q3.0378218535232544,9.178933078063965,2.943971853523254,9.148439078063966Q2.9413418535232543,9.147585078063965,2.9387018535232543,9.146760078063965Q2.8658218535232542,9.123969078063965,2.7894618535232545,9.123969078063965Q2.6694218535232546,9.123969078063965,2.5624618535232546,9.178468078063965Q1.6457078535232543,9.645589478063965,1.1785878535232543,10.562375078063965Q0.9339658535232545,11.042469078063965,0.8714338535232544,11.807829078063964Q0.8334418535232544,12.272829078063964,0.8334418535232544,13.599999078063965L0.8334418535232544,13.999999078063965Q0.8334418535232544,14.049249078063966,0.8430488535232543,14.097549078063965Q0.8526568535232544,14.145849078063964,0.8715018535232544,14.191339078063965Q0.8903478535232544,14.236839078063966,0.9177068535232544,14.277789078063964Q0.9450668535232544,14.318729078063964,0.9798888535232544,14.353559078063965Q1.0147108535232543,14.388379078063965,1.0556568535232544,14.415739078063964Q1.0966028535232544,14.443099078063966,1.1420998535232543,14.461939078063965Q1.1875968535232544,14.480789078063964,1.2358967535232543,14.490399078063966Q1.2841961535232544,14.499999078063965,1.3334418535232544,14.499999078063965Q1.3826875535232543,14.499999078063965,1.4309869535232544,14.490399078063966Q1.4792868535232544,14.480789078063964,1.5247838535232545,14.461939078063965Q1.5702808535232544,14.443099078063966,1.6112268535232543,14.415739078063964Q1.6521728535232545,14.388379078063965,1.6869948535232544,14.353559078063965Q1.7218168535232543,14.318729078063964,1.7491768535232544,14.277789078063964Q1.7765358535232543,14.236839078063966,1.7953818535232544,14.191339078063965Q1.8142268535232544,14.145849078063964,1.8238348535232545,14.097549078063965Q1.8334418535232544,14.049249078063966,1.8334418535232544,13.999999078063965L1.8334418535232544,13.599999078063965Q1.8334418535232544,11.479839078063964,2.0695958535232544,11.016359078063966Q2.3891718535232545,10.389161078063966,3.016301853523254,10.069553078063965Z" fill-rule="evenodd" fill="#232D42" fill-opacity="1"/></g></g></svg>