<svg xmlns="http://www.w3.org/2000/svg" xmlns:xlink="http://www.w3.org/1999/xlink" fill="none" version="1.1" width="24" height="24" viewBox="0 0 24 24"><g><g><rect x="0" y="0" width="24" height="24" rx="0" fill="#FFFFFF" fill-opacity="0.009999999776482582"/></g><g><path d="M13,6.5Q13,6.67194,12.98315,6.8430599999999995Q12.96629,7.01418,12.93275,7.18282Q12.8992,7.35146,12.84929,7.516Q12.79938,7.68054,12.73358,7.83939Q12.66778,7.99825,12.58672,8.14989Q12.50567,8.30153,12.41014,8.4445Q12.31462,8.58746,12.20554,8.720379999999999Q12.09646,8.853290000000001,11.97487,8.97487Q11.853290000000001,9.09646,11.720379999999999,9.20554Q11.58746,9.31462,11.4445,9.41014Q11.30153,9.50567,11.14989,9.58672Q10.998249999999999,9.66778,10.83939,9.73358Q10.68054,9.79938,10.516,9.84929Q10.35146,9.8992,10.18282,9.93275Q10.01418,9.96629,9.84306,9.98315Q9.67194,10,9.5,10Q9.32806,10,9.15694,9.98315Q8.98582,9.96629,8.81718,9.93275Q8.64854,9.8992,8.484,9.84929Q8.31946,9.79938,8.16061,9.73358Q8.00175,9.66778,7.85011,9.58672Q7.69847,9.50567,7.5555,9.41014Q7.41254,9.31462,7.2796199999999995,9.20554Q7.14671,9.09646,7.02513,8.97487Q6.903543,8.853290000000001,6.794463,8.720379999999999Q6.685383,8.58746,6.589856,8.4445Q6.4943290000000005,8.30153,6.413276,8.14989Q6.332222,7.99825,6.266422,7.83939Q6.200622,7.68054,6.150709,7.516Q6.100796,7.35146,6.0672515,7.18282Q6.0337069,7.01418,6.0168535,6.8430599999999995Q6,6.67194,6,6.5Q6,6.32806,6.0168535,6.1569400000000005Q6.0337069,5.98582,6.0672515,5.8171800000000005Q6.100796,5.648540000000001,6.150709,5.484Q6.200622,5.319459999999999,6.266422,5.16061Q6.332222,5.0017499999999995,6.413276,4.85011Q6.4943290000000005,4.69847,6.589856,4.5555Q6.685383,4.41254,6.794463,4.2796199999999995Q6.903543,4.14671,7.02513,4.02513Q7.14671,3.903543,7.2796199999999995,3.794463Q7.41254,3.685383,7.5555,3.589856Q7.69847,3.494329,7.85011,3.4132759999999998Q8.00175,3.332222,8.16061,3.266422Q8.31946,3.200622,8.484,3.150709Q8.64854,3.100796,8.81718,3.0672515Q8.98582,3.0337069,9.15694,3.0168535Q9.32806,3,9.5,3Q9.67194,3,9.84306,3.0168535Q10.01418,3.0337069,10.18282,3.0672515Q10.35146,3.100796,10.516,3.150709Q10.68054,3.200622,10.83939,3.266422Q10.998249999999999,3.332222,11.14989,3.4132759999999998Q11.30153,3.494329,11.4445,3.589856Q11.58746,3.685383,11.720379999999999,3.794463Q11.853290000000001,3.903543,11.97487,4.02513Q12.09646,4.14671,12.20554,4.2796199999999995Q12.31462,4.41254,12.41014,4.5555Q12.50567,4.69847,12.58672,4.85011Q12.66778,5.0017499999999995,12.73358,5.16061Q12.79938,5.319459999999999,12.84929,5.484Q12.8992,5.648540000000001,12.93275,5.8171800000000005Q12.96629,5.98582,12.98315,6.1569400000000005Q13,6.32806,13,6.5Z" fill="#015C5F" fill-opacity="1"/><path d="M6.318021,3.318021Q5,4.6360399999999995,5,6.5Q5,8.363959999999999,6.318021,9.68198Q7.6360399999999995,11,9.5,11Q11.363959999999999,11,12.68198,9.68198Q14,8.363959999999999,14,6.5Q14,4.6360399999999995,12.68198,3.318021Q11.363959999999999,2,9.5,2Q7.6360399999999995,2,6.318021,3.318021ZM7.7322299999999995,8.267769999999999Q7,7.53553,7,6.5Q7,5.46447,7.7322299999999995,4.7322299999999995Q8.46447,4,9.5,4Q10.53553,4,11.267769999999999,4.73224Q12,5.46447,12,6.5Q12,7.53553,11.267759999999999,8.267769999999999Q10.53553,9,9.5,9Q8.46447,9,7.7322299999999995,8.267769999999999Z" fill-rule="evenodd" fill="#015C5F" fill-opacity="1"/></g><g><path d="M17.0000320078125,6.5Q17.0000320078125,7.91298,15.7877210078125,8.64348Q15.6769950078125,8.7102,15.5868750078125,8.80288Q15.4967560078125,8.89557,15.4331690078125,9.00812Q15.3695820078125,9.12068,15.3367070078125,9.2457Q15.3038330078125,9.37073,15.3038330078125,9.5L15.3039360078125,9.51436Q15.307817007812499,9.78461,15.4473120078125,10.016110000000001Q15.5499730078125,10.18648,15.7100180078125,10.3046Q15.8700640078125,10.42272,16.0631270078125,10.470600000000001Q16.1816850078125,10.5,16.3038330078125,10.5L16.3045309248125,10.5Q16.5821550078125,10.49981,16.8199450078125,10.35652Q17.8170330078125,9.75571,18.3990530078125,8.74785Q19.0000330078125,7.70717,19.0000330078125,6.5Q19.0000330078125,5.29283,18.3990530078125,4.252151Q17.8170330078125,3.244295,16.8199450078125,2.643479Q16.5818330078125,2.5,16.3038330078125,2.5Q16.2854704078125,2.5,16.2671202078125,2.500674Q16.1425940078125,2.505249,16.0229990078125,2.540244Q15.9034030078125,2.575239,15.7960530078125,2.638513Q15.6887030078125,2.701788,15.6001640078125,2.789472Q15.5116250078125,2.8771560000000003,15.4473120078125,2.983888Q15.3038330078125,3.222,15.3038330078125,3.5Q15.3038330078125,3.5183626,15.3045070078125,3.5367128Q15.3090820078125,3.661239,15.3440770078125,3.780834Q15.3790720078125,3.90043,15.4423460078125,4.00778Q15.5056210078125,4.11513,15.5933050078125,4.203669Q15.6809890078125,4.2922080000000005,15.7877210078125,4.356521Q17.0000320078125,5.08702,17.0000320078125,6.5Z" fill-rule="evenodd" fill="#015C5F" fill-opacity="1"/></g><g><path d="M2,20.399996185302733L2,20.999996185302734L17,20.999996185302734L17,20.399996185302733C17,18.159796185302735,17,17.039696185302734,16.5641,16.184046185302734C16.180500000000002,15.431396185302734,15.5686,14.819446185302734,14.816,14.435946185302734C13.9603,13.999996185302734,12.8402,13.999996185302734,10.6,13.999996185302734L8.4,13.999996185302734C6.1598,13.999996185302734,5.0397,13.999996185302734,4.1840399999999995,14.435946185302734C3.43139,14.819446185302734,2.819465,15.431396185302734,2.435975,16.184046185302734C2,17.039696185302734,2,18.159796185302735,2,20.399996185302733Z" fill="#015C5F" fill-opacity="1"/><path d="M3.73007,13.544927185302734Q2.282528,14.282500185302734,1.544968,15.730056185302734L1.544967,15.730056185302734Q1.155635,16.494166185302735,1.0578180000000001,17.691386185302733Q1,18.399036185302734,1,20.399996185302733L1,20.999996185302734Q1,21.098486185302733,1.019215,21.195086185302735Q1.03843,21.291686185302733,1.076121,21.382676185302735Q1.113812,21.473676185302736,1.16853,21.555566185302734Q1.223249,21.637456185302735,1.2928929999999998,21.707106185302735Q1.362537,21.776746185302734,1.44443,21.831466185302734Q1.526322,21.886186185302734,1.617317,21.923876185302735Q1.7083110000000001,21.961566185302736,1.80491,21.980776185302734Q1.9015086,21.999996185302734,2,21.999996185302734L17,21.999996185302734Q17.0985,21.999996185302734,17.1951,21.980776185302734Q17.2917,21.961566185302736,17.3827,21.923876185302735Q17.4737,21.886186185302734,17.5556,21.831466185302734Q17.6375,21.776746185302734,17.7071,21.707106185302735Q17.776699999999998,21.637456185302735,17.8315,21.555566185302734Q17.886200000000002,21.473676185302736,17.9239,21.382676185302735Q17.9616,21.291686185302733,17.980800000000002,21.195086185302735Q18,21.098486185302733,18,20.999996185302734L18,20.399996185302733Q18,18.399046185302733,17.9422,17.691386185302733Q17.8444,16.494176185302734,17.4551,15.730076185302735Q16.7175,14.282510185302735,15.2699,13.544943185302735Q14.5058,13.155621185302735,13.3086,13.057811185302734Q12.601,12.999996185302734,10.6,12.999996185302734L8.4,12.999996185302734Q6.39904,12.999996185302734,5.69139,13.057811185302734Q4.49418,13.155621185302735,3.73007,13.544927185302734ZM3.05118,17.854246185302735Q3.11685,17.050446185302736,3.32698,16.638036185302735L3.32698,16.638036185302735Q3.76953,15.769486185302734,4.6380099999999995,15.326966185302734Q5.05043,15.116836185302734,5.85425,15.051166185302733Q6.48061,14.999996185302734,8.4,14.999996185302734L10.6,14.999996185302734Q12.5194,14.999996185302734,13.1458,15.051166185302733Q13.9496,15.116836185302734,14.362,15.326946185302734Q15.2305,15.769496185302735,15.673,16.638016185302735Q15.8832,17.050426185302733,15.9488,17.854246185302735Q15.9945,18.412876185302736,15.9994,19.999996185302734L3.0006,19.999996185302734Q3.0055300000000003,18.412876185302736,3.05118,17.854246185302735Z" fill-rule="evenodd" fill="#015C5F" fill-opacity="1"/></g><g><path d="M22.45501796875,15.73004741821289Q21.71745796875,14.28251341821289,20.26991396875,13.54494341821289Q20.05599996875,13.43594741821289,19.815918201077,13.43594741821289L19.80996242875,13.435965418212891Q19.67240796875,13.436784418212891,19.54018296875,13.474713418212891Q19.40795796875,13.51264341821289,19.29088596875,13.58486541821289Q19.17381296875,13.65708741821289,19.08058896875,13.758237418212891Q18.98736496875,13.85938741821289,18.92491396875,13.98195141821289Q18.81591796875,14.195865418212891,18.81591796875,14.43594741821289L18.81593596875,14.441902958212891Q18.81675496875,14.57945741821289,18.85468396875,14.71168241821289Q18.89261396875,14.84390741821289,18.96483596875,14.960980418212891Q19.03705796875,15.078052418212891,19.13820796875,15.17127641821289Q19.23935796875,15.26450041821289,19.36192196875,15.326951418212891Q20.23046296875,15.769497418212891,20.67301196875,16.63803741821289Q20.88312796875,17.05042741821289,20.94879796875,17.85424741821289Q20.99996796875,18.48060741821289,20.99996796875,20.39999741821289L20.99996796875,20.999997418212892Q20.99996796875,21.09848741821289,21.01917796875,21.195087418212893Q21.03839796875,21.29168741821289,21.07608796875,21.38267741821289Q21.11377796875,21.47367741821289,21.16849796875,21.555567418212892Q21.22321796875,21.63745741821289,21.29285796875,21.707107418212892Q21.36250796875,21.776747418212892,21.44439796875,21.831467418212892Q21.52628796875,21.88618741821289,21.61728796875,21.92387741821289Q21.70827796875,21.96156741821289,21.80487796875,21.98077741821289Q21.90147796875,21.999997418212892,21.99996796875,21.999997418212892Q22.09845796875,21.999997418212892,22.19505796875,21.98077741821289Q22.291657968750002,21.96156741821289,22.38264796875,21.92387741821289Q22.47364796875,21.88618741821289,22.55553796875,21.831467418212892Q22.63742796875,21.776747418212892,22.70707796875,21.707107418212892Q22.77671796875,21.63745741821289,22.83143796875,21.555567418212892Q22.88615796875,21.47367741821289,22.92384796875,21.38267741821289Q22.96153796875,21.29168741821289,22.98074796875,21.195087418212893Q22.99996796875,21.09848741821289,22.99996796875,20.999997418212892L22.99996796875,20.39999741821289Q22.99996796875,18.39903741821289,22.94215796875,17.69138741821289Q22.84433796875,16.494177418212892,22.45501796875,15.73004741821289Z" fill-rule="evenodd" fill="#015C5F" fill-opacity="1"/></g></g></svg>