<svg xmlns="http://www.w3.org/2000/svg" xmlns:xlink="http://www.w3.org/1999/xlink" fill="none" version="1.1" width="24" height="24" viewBox="0 0 24 24"><g><g><path d="M22.52399694824219,14.204061013671875L22.52409694824219,14.203599013671875Q22.539996948242187,14.127616013671876,22.539996948242187,14.049987813671875Q22.539996948242187,14.035917713671875,22.53949694824219,14.021857623671876Q22.53169694824219,13.813786013671875,22.417696948242188,13.639520013671875Q22.336096948242186,13.514661013671875,22.212796948242186,13.430552013671875Q22.08959694824219,13.346443013671875,21.943596948242188,13.315887013671874Q21.867596948242188,13.299989013671874,21.789996948242187,13.299988013671875Q21.762796948242187,13.299988013671875,21.735696948242186,13.301957013671874Q21.67509694824219,13.306352013671875,21.616096948242188,13.320425013671874Q21.557096948242187,13.334498013671874,21.50109694824219,13.357882013671874Q21.44499694824219,13.381266013671874,21.393496948242188,13.413352013671876Q21.341996948242187,13.445438013671875,21.296296948242187,13.485392013671875Q21.250596948242187,13.525346013671875,21.211896948242188,13.572127013671874Q21.173296948242186,13.618909013671875,21.142596948242186,13.671300013671875Q21.111996948242187,13.723691013671875,21.090096948242188,13.780329013671874Q21.06829694824219,13.836967013671876,21.055896948242186,13.896376013671874Q20.390896948242187,17.074449013671874,17.86979694824219,19.148279013671875Q15.314796948242188,21.249999013671875,11.999996948242188,21.249999013671875Q8.669016948242188,21.249999013671875,6.1107969482421876,19.141269013671874Q3.5853469482421874,17.059549013671877,2.9348709482421875,13.870112013671875Q2.9161949482421874,13.778540013671876,2.8756169482421874,13.694351013671875Q2.8350389482421874,13.610162013671875,2.7750419482421878,13.538506013671874Q2.7150439482421875,13.466850013671875,2.6392959482421876,13.412109013671875Q2.5635469482421875,13.357368013671875,2.4766819482421876,13.322891013671875Q2.3433969482421877,13.269989013671875,2.1999968913980874,13.269989013671875L2.1863434482421873,13.270113013671875Q2.1175442482421873,13.271366013671875,2.0501219482421873,13.285117013671876Q1.9039459482421874,13.314929013671875,1.7803069482421874,13.398410013671874Q1.6566669482421874,13.481892013671875,1.5743859482421874,13.606334013671875Q1.5276789482421875,13.676973013671875,1.4978999482421875,13.756248013671875Q1.4499969482421875,13.883768013671874,1.4499969482421875,14.019989013671875Q1.4499969482421875,14.096654013671875,1.4655079482421876,14.171733013671876Q2.2224133482421875,17.879999013671874,5.156706948242188,20.298719013671874Q8.130476948242187,22.749999013671875,11.999996948242188,22.749999013671875Q15.852496948242187,22.749999013671875,18.822696948242186,20.306709013671874Q21.750896948242186,17.898009013671874,22.52399694824219,14.204061013671875Z" fill-rule="evenodd" fill="#0C0507" fill-opacity="1"/></g><g><path d="M1.4655609482421874,9.828009999999999L1.4655079482421876,9.82827Q1.4499969482421875,9.90335,1.4499969482421875,9.98001Q1.4499969482421875,10.00816,1.4521069482421876,10.03623Q1.4566569482421876,10.09675,1.4708799482421875,10.15576Q1.4851029482421874,10.21477,1.5086289482421875,10.27072Q1.5321559482421874,10.32667,1.5643739482421875,10.37811Q1.5965909482421874,10.42955,1.6366609482421874,10.47514Q1.6767319482421876,10.52073,1.7236109482421875,10.55928Q1.7704909482421876,10.59783,1.8229599482421874,10.62835Q1.8754289482421875,10.65886,1.9321219482421874,10.68054Q1.9888149482421875,10.70222,2.0482559482421876,10.7145Q2.1233338482421873,10.73001,2.1999969482421875,10.73001Q2.2150213482421877,10.73001,2.2300364482421875,10.72941Q2.4380869482421876,10.72107,2.6120629482421873,10.60667Q2.7367129482421877,10.5247,2.8205079482421875,10.40128Q2.9043029482421874,10.27785,2.9344859482421874,10.13175Q3.5925969482421873,6.94624,6.118546948242187,4.86228Q8.678816948242186,2.75,11.999996948242188,2.75Q15.345796948242187,2.75,17.910596948242187,4.88178Q20.44349694824219,6.98704,21.073296948242188,10.20083L21.073796948242187,10.203L21.073996948242186,10.20401Q21.102596948242187,10.35041,21.185096948242187,10.47472Q21.267596948242186,10.59902,21.39139694824219,10.68229Q21.581196948242187,10.81,21.809996948242187,10.81L21.81829694824219,10.80995Q21.88679694824219,10.80919,21.95399694824219,10.79604Q22.017496948242187,10.78361,22.077996948242188,10.76048Q22.13849694824219,10.73735,22.194096948242187,10.7042Q22.24969694824219,10.67105,22.298796948242188,10.62886Q22.347896948242187,10.58668,22.388996948242188,10.5367Q22.430196948242187,10.48673,22.462096948242188,10.43044Q22.494096948242188,10.37415,22.515996948242186,10.31322Q22.53779694824219,10.25229,22.548896948242188,10.18851Q22.559996948242187,10.12473,22.559996948242187,10.06L22.559996948242187,10.05233Q22.55929694824219,9.98352,22.545996948242188,9.91599L22.545996948242188,9.9159L22.545796948242188,9.91481Q21.81379694824219,6.17553,18.869396948242187,3.7282200000000003Q15.887796948242187,1.25,11.999996948242188,1.25Q8.139926948242188,1.25,5.163956948242188,3.7052300000000002Q2.2306016482421875,6.1253,1.4655609482421874,9.828009999999999Z" fill-rule="evenodd" fill="#0C0507" fill-opacity="1"/></g><g><path d="M13.59099,10.4090098Q12.93198,9.75,12,9.75Q11.068019,9.75,10.4090098,10.4090097Q9.75,11.068019,9.75,12Q9.75,12.93198,10.4090097,13.59099Q11.068019,14.25,12,14.25Q12.93198,14.25,13.59099,13.59099Q14.25,12.93198,14.25,12Q14.25,11.06802,13.59099,10.4090098ZM11.46967,11.46967Q11.68934,11.25,12,11.25Q12.31066,11.25,12.53033,11.46967Q12.75,11.68934,12.75,12Q12.75,12.31066,12.53033,12.53033Q12.31066,12.75,12,12.75Q11.68934,12.75,11.46967,12.53033Q11.25,12.31066,11.25,12Q11.25,11.68934,11.46967,11.46967Z" fill-rule="evenodd" fill="#0C0507" fill-opacity="1"/></g><g style="opacity:0;"></g></g></svg>