<svg xmlns="http://www.w3.org/2000/svg" xmlns:xlink="http://www.w3.org/1999/xlink" fill="none" version="1.1" width="24" height="24" viewBox="0 0 24 24"><defs><clipPath id="master_svg0_584_03469"><rect x="0" y="0" width="24" height="24" rx="0"/></clipPath></defs><g clip-path="url(#master_svg0_584_03469)"><g><path d="M20.25,20.25L15,20.25L15,21.75L21,21.75Q21.0739,21.75,21.1463,21.7356Q21.2188,21.7212,21.287,21.6929Q21.3553,21.6646,21.4167,21.6236Q21.4781,21.5826,21.5303,21.5303Q21.5826,21.4781,21.6236,21.4167Q21.6646,21.3553,21.6929,21.287Q21.7212,21.2188,21.7356,21.1463Q21.75,21.0739,21.75,21L21.75,10.2Q21.75,10.115639999999999,21.7313,10.03339Q21.7125,9.951139999999999,21.676,9.87511Q21.6394,9.79908,21.5869,9.73306Q21.5344,9.66705,21.4685,9.61435L12.46852,2.414348Q12.41901,2.374738,12.36355,2.344003Q12.30809,2.3132669999999997,12.24826,2.2922789999999997Q12.18842,2.27129,12.12592,2.2606450000000002Q12.06341,2.25,12,2.25Q11.93659,2.25,11.87409,2.2606450000000002Q11.81158,2.27129,11.75175,2.2922789999999997Q11.69191,2.3132669999999997,11.63645,2.344003Q11.58099,2.374738,11.53148,2.414348L2.531479,9.61435Q2.465606,9.66705,2.413086,9.73306Q2.360566,9.79908,2.324023,9.87511Q2.28748,9.951139999999999,2.26874,10.03339Q2.25,10.115639999999999,2.25,10.2L2.25,21Q2.25,21.0739,2.264411,21.1463Q2.278822,21.2188,2.30709,21.287Q2.335359,21.3553,2.376398,21.4167Q2.417437,21.4781,2.46967,21.5303Q2.521903,21.5826,2.583322,21.6236Q2.644742,21.6646,2.712987,21.6929Q2.781233,21.7212,2.853682,21.7356Q2.9261315,21.75,3,21.75L9,21.75L9,20.25L3.75,20.25L3.75,10.560469999999999L12,3.960469L20.25,10.560469999999999L20.25,20.25Z" fill-rule="evenodd" fill="#333333" fill-opacity="1"/></g><g><path d="M6.35,13.5L6.35,10.5Q6.35,10.4359806,6.36249,10.373191Q6.374979,10.310402,6.399478,10.251256Q6.423978,10.19211,6.459545,10.138879Q6.495112,10.085649,6.540381,10.040381Q6.585649,9.995112,6.638879,9.959545Q6.69211,9.923978,6.751256,9.899478Q6.810402,9.874979,6.873191,9.86249Q6.9359806,9.85,7,9.85L17,9.85Q17.064,9.85,17.1268,9.86249Q17.1896,9.874979,17.2487,9.899478Q17.3079,9.923978,17.3611,9.959545Q17.4143,9.995112,17.459600000000002,10.040381Q17.5049,10.085649,17.5405,10.138879Q17.576,10.19211,17.6005,10.251256Q17.625,10.310402,17.6375,10.373191Q17.65,10.4359806,17.65,10.5L17.65,13.5Q17.65,13.56402,17.6375,13.626809999999999Q17.625,13.6896,17.6005,13.74874Q17.576,13.80789,17.5405,13.86112Q17.5049,13.91435,17.459600000000002,13.959620000000001Q17.4143,14.00489,17.3611,14.04045Q17.3079,14.07602,17.2487,14.10052Q17.1896,14.12502,17.1268,14.137509999999999Q17.064,14.15,17,14.15L7,14.15Q6.9359806,14.15,6.873191,14.137509999999999Q6.810402,14.12502,6.751256,14.10052Q6.69211,14.07602,6.638879,14.04046Q6.585649,14.00489,6.540381,13.959620000000001Q6.495112,13.91435,6.459545,13.86112Q6.423978,13.80789,6.399478,13.74874Q6.374979,13.6896,6.36249,13.626809999999999Q6.35,13.56402,6.35,13.5ZM7.65,11.15L7.65,12.85L16.35,12.85L16.35,11.15L7.65,11.15Z" fill="#333333" fill-opacity="1"/></g><g><path d="M8.25,14L8.25,21Q8.25,21.07387,8.264410999999999,21.14632Q8.278822,21.21877,8.30709,21.287010000000002Q8.335359,21.35526,8.376398,21.41668Q8.417437,21.4781,8.46967,21.53033Q8.521903,21.58256,8.583322,21.6236Q8.644742,21.66464,8.712987,21.69291Q8.781233,21.72118,8.853682,21.735590000000002Q8.9261315,21.75,9,21.75Q9.0738685,21.75,9.146318,21.735590000000002Q9.218767,21.72118,9.287013,21.69291Q9.355258,21.66464,9.416678,21.6236Q9.478097,21.58256,9.53033,21.53033Q9.582563,21.4781,9.623602,21.41668Q9.664641,21.35526,9.69291,21.287010000000002Q9.721178,21.21877,9.735589000000001,21.14632Q9.75,21.07387,9.75,21L9.75,14Q9.75,13.9261315,9.735589000000001,13.853682Q9.721178,13.781233,9.69291,13.712987Q9.664641,13.644742,9.623602,13.583322Q9.582563,13.521903,9.53033,13.46967Q9.478097,13.417437,9.416678,13.376398Q9.355258,13.335359,9.287013,13.30709Q9.218767,13.278822,9.146318,13.264410999999999Q9.0738685,13.25,9,13.25Q8.9261315,13.25,8.853682,13.264410999999999Q8.781233,13.278822,8.712987,13.30709Q8.644742,13.335359,8.583322,13.376398Q8.521903,13.417437,8.46967,13.46967Q8.417437,13.521903,8.376398,13.583322Q8.335359,13.644742,8.30709,13.712987Q8.278822,13.781233,8.264410999999999,13.853682Q8.25,13.9261315,8.25,14Z" fill-rule="evenodd" fill="#333333" fill-opacity="1"/></g><g><path d="M14.25,14L14.25,21Q14.25,21.07387,14.264410999999999,21.14632Q14.278822,21.21877,14.30709,21.287010000000002Q14.335359,21.35526,14.376398,21.41668Q14.417437,21.4781,14.46967,21.53033Q14.521903,21.58256,14.583322,21.6236Q14.644742,21.66464,14.712987,21.69291Q14.781233,21.72118,14.853682,21.735590000000002Q14.9261315,21.75,15,21.75Q15.0738685,21.75,15.146318,21.735590000000002Q15.218767,21.72118,15.287013,21.69291Q15.355258,21.66464,15.416678,21.6236Q15.478097,21.58256,15.53033,21.53033Q15.582563,21.4781,15.623602,21.41668Q15.664641,21.35526,15.69291,21.287010000000002Q15.721178,21.21877,15.735589000000001,21.14632Q15.75,21.07387,15.75,21L15.75,14Q15.75,13.9261315,15.735589000000001,13.853682Q15.721178,13.781233,15.69291,13.712987Q15.664641,13.644742,15.623602,13.583322Q15.582563,13.521903,15.53033,13.46967Q15.478097,13.417437,15.416678,13.376398Q15.355258,13.335359,15.287013,13.30709Q15.218767,13.278822,15.146318,13.264410999999999Q15.0738685,13.25,15,13.25Q14.9261315,13.25,14.853682,13.264410999999999Q14.781233,13.278822,14.712987,13.30709Q14.644742,13.335359,14.583322,13.376398Q14.521903,13.417437,14.46967,13.46967Q14.417437,13.521903,14.376398,13.583322Q14.335359,13.644742,14.30709,13.712987Q14.278822,13.781233,14.264410999999999,13.853682Q14.25,13.9261315,14.25,14Z" fill-rule="evenodd" fill="#333333" fill-opacity="1"/></g><g><path d="M9,16.6L15,16.6Q15.059090000000001,16.6,15.117049999999999,16.588471Q15.17501,16.576942,15.229610000000001,16.554328Q15.2842,16.531713,15.33334,16.498882Q15.382480000000001,16.46605,15.42426,16.424264Q15.46605,16.382478,15.49888,16.333342000000002Q15.53171,16.284207,15.55433,16.22961Q15.57694,16.175014,15.588470000000001,16.117054Q15.6,16.0590948,15.6,16Q15.6,15.9409052,15.588470000000001,15.882946Q15.57694,15.824985999999999,15.55433,15.77039Q15.53171,15.715793,15.49888,15.666658Q15.46605,15.617522,15.42426,15.575736Q15.382480000000001,15.53395,15.33334,15.501118Q15.28421,15.468287,15.229610000000001,15.445672Q15.17501,15.423058,15.117049999999999,15.411529Q15.059090000000001,15.4,15,15.4L9,15.4Q8.9409052,15.4,8.882946,15.411529Q8.824985999999999,15.423058,8.77039,15.445672Q8.715793,15.468287,8.666658,15.501118Q8.617522,15.53395,8.575736,15.575736Q8.53395,15.617522,8.501118,15.666658Q8.468287,15.715793,8.445672,15.77039Q8.423058,15.824985999999999,8.411529,15.882946Q8.4,15.9409052,8.4,16Q8.4,16.0590948,8.411529,16.117054Q8.423058,16.175014,8.445672,16.22961Q8.468287,16.284207,8.501118,16.333342000000002Q8.53395,16.382478,8.575736,16.424264Q8.617522,16.46605,8.666658,16.498882Q8.715793,16.531713,8.77039,16.554328Q8.824985999999999,16.576942,8.882946,16.588471Q8.9409052,16.6,9,16.6Z" fill-rule="evenodd" fill="#333333" fill-opacity="1"/></g><g><path d="M9,19.1L15,19.1Q15.059090000000001,19.1,15.117049999999999,19.088471Q15.17501,19.076942,15.229610000000001,19.054328Q15.2842,19.031713,15.33334,18.998882Q15.382480000000001,18.96605,15.42426,18.924264Q15.46605,18.882478,15.49888,18.833342000000002Q15.53171,18.784207,15.55433,18.72961Q15.57694,18.675014,15.588470000000001,18.617054Q15.6,18.5590948,15.6,18.5Q15.6,18.4409052,15.588470000000001,18.382946Q15.57694,18.324986,15.55433,18.27039Q15.53171,18.215793,15.49888,18.166657999999998Q15.46605,18.117522,15.42426,18.075736Q15.382480000000001,18.03395,15.33334,18.001118Q15.28421,17.968287,15.229610000000001,17.945672Q15.17501,17.923058,15.117049999999999,17.911529Q15.059090000000001,17.9,15,17.9L9,17.9Q8.9409052,17.9,8.882946,17.911529Q8.824985999999999,17.923058,8.77039,17.945672Q8.715793,17.968287,8.666658,18.001118Q8.617522,18.03395,8.575736,18.075736Q8.53395,18.117522,8.501118,18.166657999999998Q8.468287,18.215793,8.445672,18.27039Q8.423058,18.324986,8.411529,18.382946Q8.4,18.4409052,8.4,18.5Q8.4,18.5590948,8.411529,18.617054Q8.423058,18.675014,8.445672,18.72961Q8.468287,18.784207,8.501118,18.833342000000002Q8.53395,18.882478,8.575736,18.924264Q8.617522,18.96605,8.666658,18.998882Q8.715793,19.031713,8.77039,19.054328Q8.824985999999999,19.076942,8.882946,19.088471Q8.9409052,19.1,9,19.1Z" fill-rule="evenodd" fill="#333333" fill-opacity="1"/></g></g></svg>