<svg xmlns="http://www.w3.org/2000/svg" xmlns:xlink="http://www.w3.org/1999/xlink" fill="none" version="1.1" width="28" height="28" viewBox="0 0 28 28"><g><g><rect x="0" y="0" width="28" height="28" rx="0" fill="#D8D8D8" fill-opacity="0"/></g><g><g><path d="M13.90864,3.193595Q6,8.99326,6,16.5Q6,18.2287,6.66838,19.8089Q7.31364,21.3345,8.48959,22.5104Q9.66553,23.6864,11.19111,24.3316Q12.77134,25,14.5,25Q16.228659999999998,25,17.8089,24.3316Q19.3345,23.6864,20.5104,22.5104Q21.6864,21.3345,22.3316,19.8089Q23,18.2287,23,16.5Q23,8.99326,15.09136,3.193595Q15.02745,3.146724,14.956949999999999,3.110507Q14.88645,3.07429,14.811119999999999,3.04963Q14.735800000000001,3.024971,14.657530000000001,3.012486Q14.57926,3,14.5,3Q14.42074,3,14.342469999999999,3.012486Q14.264199999999999,3.024971,14.188880000000001,3.04963Q14.11355,3.07429,14.043050000000001,3.110507Q13.97255,3.146724,13.90864,3.193595ZM9.9038,21.0962Q8,19.1924,8,16.5Q8,10.283380000000001,14.5,5.25186Q21,10.28337,21,16.5Q21,19.1924,19.0962,21.0962Q17.1924,23,14.5,23Q11.8076,23,9.9038,21.0962Z" fill-rule="evenodd" fill="#000000" fill-opacity="1"/></g><g><path d="M7,16.5C7,20.64215,10.35785,24,14.5,24C18.642200000000003,24,22,20.64215,22,16.5Q17.5,18,14.5,16.5Q11.5,15,7,16.5Z" fill="#000000" fill-opacity="1"/><path d="M21.683799999999998,15.551317Q17.576700000000002,16.92033,14.94721,15.605573Q11.576730000000001,13.92033,6.683772,15.551317Q6.609562,15.576053,6.540101,15.612029Q6.4706399999999995,15.648004,6.407618,15.6943427Q6.344596,15.74068132,6.289546,15.7962561Q6.234496,15.851831,6.188758,15.91529Q6.143019,15.978749,6.107705,16.048548Q6.07239,16.118347,6.048359,16.192789Q6.0243269999999995,16.26723,6.012164,16.344503Q6,16.421776,6,16.5Q6,18.22866,6.66838,19.8089Q7.31364,21.33447,8.48959,22.51041Q9.66553,23.68636,11.19111,24.33162Q12.77134,25,14.5,25Q16.228659999999998,25,17.8089,24.33162Q19.3345,23.68636,20.5104,22.51041Q21.6864,21.33447,22.3316,19.8089Q23,18.22866,23,16.5Q23,16.401509,22.980800000000002,16.30491Q22.9616,16.208311,22.9239,16.117317Q22.886200000000002,16.026322,22.8315,15.94443Q22.776699999999998,15.862537,22.7071,15.7928932Q22.6375,15.7232493,22.5556,15.6685304Q22.4737,15.613812,22.3827,15.57612Q22.2917,15.538429,22.1951,15.519215Q22.0985,15.5,22,15.5Q21.837699999999998,15.5,21.683799999999998,15.551317ZM8.036059999999999,17.22612Q11.65746,16.196762,14.05279,17.39443Q16.91214,18.8241,20.8672,17.86709Q20.4972,19.69518,19.0962,21.0962Q17.1924,23,14.5,23Q11.8076,23,9.9038,21.0962Q8.262,19.4544,8.036059999999999,17.22612Z" fill-rule="evenodd" fill="#000000" fill-opacity="1"/></g></g></g></svg>