<svg xmlns="http://www.w3.org/2000/svg" xmlns:xlink="http://www.w3.org/1999/xlink" fill="none" version="1.1" width="20" height="20" viewBox="0 0 20 20"><g><g><rect x="0" y="0" width="20" height="20" rx="0" fill="#FFFFFF" fill-opacity="0"/></g><g><path d="M1.66668701171875,9.25Q1.5928185117187499,9.25,1.52036901171875,9.264410999999999Q1.44792001171875,9.278822,1.37967401171875,9.30709Q1.31142901171875,9.335359,1.25000901171875,9.376398Q1.18859001171875,9.417437,1.13635701171875,9.46967Q1.08412401171875,9.521903,1.04308501171875,9.583322Q1.00204601171875,9.644742,0.97377701171875,9.712987Q0.94550901171875,9.781233,0.93109801171875,9.853682Q0.91668701171875,9.9261315,0.91668701171875,10Q0.91668701171875,11.8475,1.63080741171875,13.53587Q2.32032601171875,15.166080000000001,3.57713701171875,16.42289Q4.83393701171875,17.67969,6.46414701171875,18.369210000000002Q8.15251701171875,19.08333,10.00001701171875,19.08333Q11.84748701171875,19.08333,13.53588701171875,18.369210000000002Q15.16608701171875,17.67969,16.42288701171875,16.42289Q17.67968701171875,15.166080000000001,18.36918701171875,13.53587Q19.08338701171875,11.8475,19.08338701171875,10Q19.08338701171875,9.9261315,19.06898701171875,9.853682Q19.05448701171875,9.781233,19.02628701171875,9.712987Q18.99798701171875,9.644742,18.95698701171875,9.583322Q18.91588701171875,9.521903,18.86368701171875,9.46967Q18.81148701171875,9.417437,18.74998701171875,9.376398Q18.68858701171875,9.335359,18.62038701171875,9.30709Q18.55208701171875,9.278822,18.47968701171875,9.264410999999999Q18.40718701171875,9.25,18.33338701171875,9.25Q18.25948701171875,9.25,18.18698701171875,9.264410999999999Q18.11458701171875,9.278822,18.04638701171875,9.30709Q17.97808701171875,9.335359,17.91668701171875,9.376398Q17.85528701171875,9.417437,17.80298701171875,9.46967Q17.75078701171875,9.521903,17.70978701171875,9.583322Q17.66868701171875,9.644742,17.64048701171875,9.712987Q17.61218701171875,9.781233,17.59778701171875,9.853682Q17.58338701171875,9.9261315,17.58338701171875,10Q17.58338701171875,10.552275999999999,17.19278701171875,10.942805Q16.80228701171875,11.33333,16.24998701171875,11.33333Q15.69778701171875,11.33333,15.30718701171875,10.942805Q14.91668701171875,10.552277,14.91668701171875,10Q14.91668701171875,9.9261315,14.90228701171875,9.853682Q14.88788701171875,9.781233,14.85958701171875,9.712987Q14.83128701171875,9.644742,14.79028701171875,9.583322Q14.74928701171875,9.521903,14.69698701171875,9.46967Q14.64478701171875,9.417437,14.58338701171875,9.376398Q14.52198701171875,9.335359,14.45368701171875,9.30709Q14.38548701171875,9.278822,14.31298701171875,9.264410999999999Q14.24058701171875,9.25,14.16668701171875,9.25Q14.09278701171875,9.25,14.02038701171875,9.264410999999999Q13.94788701171875,9.278822,13.87968701171875,9.30709Q13.81138701171875,9.335359,13.74998701171875,9.376398Q13.68858701171875,9.417437,13.63638701171875,9.46967Q13.58408701171875,9.521903,13.54308701171875,9.583322Q13.50208701171875,9.644742,13.47378701171875,9.712987Q13.44548701171875,9.781233,13.43108701171875,9.853682Q13.41668701171875,9.9261315,13.41668701171875,10Q13.41668701171875,10.552278,13.02618701171875,10.942805Q12.63558701171875,11.33333,12.08338701171875,11.33333Q11.53107701171875,11.33333,11.14054701171875,10.942805Q10.75001701171875,10.552277,10.75001701171875,10Q10.75001701171875,9.9261315,10.73560701171875,9.853682Q10.72119701171875,9.781233,10.69292701171875,9.712987Q10.66465701171875,9.644742,10.62361701171875,9.583322Q10.58258701171875,9.521903,10.53034701171875,9.46967Q10.47811701171875,9.417437,10.41669701171875,9.376398Q10.35527701171875,9.335359,10.28703701171875,9.30709Q10.21878701171875,9.278822,10.14633701171875,9.264410999999999Q10.07388701171875,9.25,10.00001701171875,9.25Q9.92614701171875,9.25,9.85369701171875,9.264410999999999Q9.78124701171875,9.278822,9.71300701171875,9.30709Q9.644757011718749,9.335359,9.58333701171875,9.376398Q9.521917011718749,9.417437,9.46968701171875,9.46967Q9.41745701171875,9.521903,9.37641701171875,9.583322Q9.33537701171875,9.644742,9.307107011718749,9.712987Q9.27883701171875,9.781233,9.26442701171875,9.853682Q9.25001701171875,9.9261315,9.25001701171875,10Q9.25001701171875,10.552278,8.85949701171875,10.942805Q8.46896701171875,11.33333,7.91668701171875,11.33333Q7.36440701171875,11.33333,6.97387701171875,10.942805Q6.58335701171875,10.552277,6.58335701171875,10Q6.58335701171875,9.9261315,6.56894701171875,9.853682Q6.55452701171875,9.781233,6.52626701171875,9.712987Q6.49799701171875,9.644742,6.45695701171875,9.583322Q6.41591701171875,9.521903,6.36368701171875,9.46967Q6.31144701171875,9.417437,6.25002701171875,9.376398Q6.18860701171875,9.335359,6.12036701171875,9.30709Q6.05211701171875,9.278822,5.97966701171875,9.264410999999999Q5.90722701171875,9.25,5.83335701171875,9.25Q5.75948701171875,9.25,5.68703701171875,9.264410999999999Q5.614587011718751,9.278822,5.54633701171875,9.30709Q5.47809701171875,9.335359,5.41667701171875,9.376398Q5.35525701171875,9.417437,5.303027011718751,9.46967Q5.250787011718749,9.521903,5.2097470117187505,9.583322Q5.16870701171875,9.644742,5.14044701171875,9.712987Q5.1121770117187495,9.781233,5.09776701171875,9.853682Q5.08335701171875,9.9261315,5.08335701171875,10Q5.08335701171875,10.552277,4.69282701171875,10.942805Q4.30229701171875,11.33333,3.75001701171875,11.33333Q3.19773701171875,11.33333,2.80721701171875,10.942806000000001Q2.41668701171875,10.552279,2.41668701171875,10Q2.41668701171875,9.9261315,2.40227601171875,9.853682Q2.38786501171875,9.781233,2.35959701171875,9.712987Q2.33132801171875,9.644742,2.29028901171875,9.583322Q2.24925001171875,9.521903,2.19701701171875,9.46967Q2.14478401171875,9.417437,2.08336501171875,9.376398Q2.02194501171875,9.335359,1.95370001171875,9.30709Q1.88545401171875,9.278822,1.81300501171875,9.264410999999999Q1.7405555117187501,9.25,1.66668701171875,9.25ZM2.89174701171875,12.70862Q3.44389701171875,14.168330000000001,4.6377970117187495,15.36223Q6.85889701171875,17.58333,10.00001701171875,17.58333Q13.14118701171875,17.58333,15.36228701171875,15.36223Q16.556187011718748,14.168330000000001,17.10828701171875,12.70861Q16.70498701171875,12.83333,16.24998701171875,12.83333Q15.07638701171875,12.83333,14.24658701171875,12.00347Q14.20558701171875,11.96252,14.16668701171875,11.92074Q14.12778701171875,11.96252,14.08678701171875,12.00347Q13.25698701171875,12.83333,12.08338701171875,12.83333Q10.90975701171875,12.83333,10.07988701171875,12.00347Q10.03893701171875,11.96252,10.00001701171875,11.92074Q9.96110701171875,11.96251,9.92015701171875,12.00347Q9.09028701171875,12.83333,7.91668701171875,12.83333Q6.74308701171875,12.83333,5.91321701171875,12.00347Q5.87227701171875,11.96252,5.83335701171875,11.92074Q5.79442701171875,11.96252,5.75348701171875,12.00347Q4.9236170117187505,12.83333,3.75001701171875,12.83333Q3.2950570117187503,12.83333,2.89174701171875,12.70862Z" fill-rule="evenodd" fill="#000000" fill-opacity="1"/></g><g><path d="M12.41664298828125,5.41650390625Q12.41664298828125,4.2915839062500005,10.64620298828125,1.28586090625Q10.54776298828125,1.11872390625,10.38062298828125,1.02027590625Q10.25208298828125,0.94456090625,10.10434298828125,0.92380090625Q9.95661298828125,0.90304090625,9.81218298828125,0.94039590625Q9.66775298828125,0.97775090625,9.54861298828125,1.0675349062500001Q9.42946298828125,1.1573179062499999,9.35375298828125,1.28586090625Q7.58331298828125,4.29157390625,7.58331298828125,5.41650390625Q7.58331298828125,6.41750390625,8.29114428828125,7.12534390625Q8.99897498828125,7.83317390625,9.99998298828125,7.83317390625Q11.000982988281251,7.83317390625,11.70881298828125,7.12534390625Q12.41664298828125,6.41750390625,12.41664298828125,5.41650390625ZM9.99998298828125,3.18352390625Q9.08331298828125,4.86816390625,9.08331298828125,5.41650390625Q9.08331298828125,5.79618390625,9.35180298828125,6.06467390625Q9.62029298828125,6.33317390625,9.99998298828125,6.33317390625Q10.37966298828125,6.33317390625,10.64815298828125,6.06467390625Q10.91664298828125,5.79618390625,10.91664298828125,5.41650390625Q10.91664298828125,4.86816390625,9.99998298828125,3.18352390625Z" fill-rule="evenodd" fill="#000000" fill-opacity="1"/></g></g></svg>