<svg xmlns="http://www.w3.org/2000/svg" xmlns:xlink="http://www.w3.org/1999/xlink" fill="none" version="1.1" width="24" height="24" viewBox="0 0 24 24"><defs><clipPath id="master_svg0_401_9443"><rect x="0" y="0" width="24" height="24" rx="0"/></clipPath></defs><g><g clip-path="url(#master_svg0_401_9443)"><g><path d="M21.400390625,3.192390625C21.400390625,2.754390625,21.046390625,2.400390625,20.608390625,2.400390625L3.192390625,2.400390625C2.754390625,2.400390625,2.400390625,2.754390625,2.400390625,3.192390625L2.400390625,20.608390625C2.400390625,21.045790625,2.754981625,21.400390625,3.192390625,21.400390625L20.608390625,21.400390625C21.045790625,21.400390625,21.400390625,21.045790625,21.400390625,20.608390625L21.400390625,3.192390625ZM4.775390625,3.984390625L19.025390625,3.984390625L19.025390625,3.983390625C19.462790625,3.983390625,19.817390625,4.337980625,19.817390625,4.775390625L19.817390625,7.942390625L19.811390625,8.034390625C19.765390625,8.433390625000001,19.426390625,8.733390625,19.025390625,8.733390625L4.775390625,8.733390625L4.6833906249999995,8.728390625C4.283390625,8.681390624999999,3.983390625,8.343390625,3.983390625,7.942390625L3.983390625,4.775390625L3.989390625,4.682390625C4.035390625,4.284390625,4.374390625,3.984390625,4.775390625,3.984390625ZM8.733390625,5.566390625C8.733390625,5.128390625,8.379390625,4.7743906250000006,7.942390625,4.7743906250000006L7.942390625,4.775390625C7.504390625,4.775390625,7.150390625,5.129390625,7.150390625,5.567390625L7.150390625,7.150390625C7.134460625,7.598550625,7.493450625,7.970530625,7.941890625,7.970530625C8.390330625,7.970530625,8.749320625,7.598550625,8.733390625,7.150390625L8.733390625,5.566390625ZM12.692390625,5.566390625C12.692390625,5.128390625,12.337390625,4.7743906250000006,11.900390625,4.7743906250000006L11.900390625,4.775390625C11.463390625,4.775390625,11.108390625,5.129390625,11.108390625,5.567390625L11.108390625,7.150390625C11.108390625,7.587800625,11.462980625,7.942390625,11.900390625,7.942390625C12.337800625,7.942390625,12.692390625,7.587800625,12.692390625,7.150390625L12.692390625,5.566390625ZM16.650390625,5.566390625C16.650390625,5.128390625,16.296390625,4.7743906250000006,15.858390625,4.7743906250000006L15.858390625,4.775390625C15.421390625,4.775390625,15.067390625,5.129390625,15.067390625,5.567390625L15.067390625,7.150390625C15.082590625,7.576580625,15.432390625,7.914250625,15.858890625,7.914250625C16.285390624999998,7.914250625,16.635190625,7.576580625,16.650390625,7.150390625L16.650390625,5.566390625ZM12.000000625,19.199790625C10.343140625,19.199790625,9.000000625,17.946190625,9.000000625,16.399790625C9.000000625,15.368690625,9.999750625,13.501790625,12.000000625,10.799800625C14.000290625,13.501790625,14.999990625,15.368690625,14.999990625,16.399790625C14.999990625,17.946190625,13.656890625,19.199790625,12.000000625,19.199790625Z" fill-rule="evenodd" fill="#000000" fill-opacity="1"/></g></g></g></svg>