<svg xmlns="http://www.w3.org/2000/svg" xmlns:xlink="http://www.w3.org/1999/xlink" fill="none" version="1.1" width="18" height="18" viewBox="0 0 18 18"><defs><clipPath id="master_svg0_14_1063"><rect x="0" y="0" width="18" height="18" rx="0"/></clipPath></defs><g clip-path="url(#master_svg0_14_1063)"><g><rect x="0" y="0" width="18" height="18" rx="0" fill="#FFFFFF" fill-opacity="0"/></g><g><path d="M8.40864,0.693595Q2.375,5.118259999999999,2.375,10.875Q2.375,13.6192,4.315414,15.5596Q6.25583,17.5,9,17.5Q11.74417,17.5,13.6846,15.5596Q15.625,13.6192,15.625,10.875Q15.625,5.118259999999999,9.59136,0.693595Q9.52745,0.646724,9.456949999999999,0.610507Q9.38645,0.57429,9.311119999999999,0.54963Q9.235800000000001,0.524971,9.157530000000001,0.512486Q9.07926,0.5,9,0.5Q8.92074,0.5,8.842469999999999,0.512486Q8.764199999999999,0.524971,8.688880000000001,0.54963Q8.61355,0.57429,8.543050000000001,0.610507Q8.47255,0.646724,8.40864,0.693595ZM5.72963,14.1454Q4.375,12.7907,4.375,10.875Q4.375,6.40869,9,2.75624Q13.625,6.40869,13.625,10.875Q13.625,12.7907,12.27037,14.1454Q10.91575,15.5,9,15.5Q7.08425,15.5,5.72963,14.1454Z" fill-rule="evenodd" fill="#000000" fill-opacity="1"/></g><g><path d="M3.375,10.875C3.375,13.98161,5.89339,16.5,9,16.5C12.10661,16.5,14.625,13.98161,14.625,10.875Q11.25,12,9,10.875Q6.75,9.75,3.375,10.875Z" fill="#000000" fill-opacity="1"/><path d="M14.3088,9.926317Q11.326730000000001,10.920331000000001,9.44721,9.980573Q6.8267299999999995,8.67033,3.058772,9.926317Q2.984562,9.951053,2.915101,9.987029Q2.84564,10.023004,2.7826180000000003,10.069343Q2.719596,10.115681,2.664546,10.171256Q2.609496,10.2268309,2.563758,10.2902897Q2.518019,10.3537486,2.482705,10.423548Q2.44739,10.493347,2.423359,10.567789Q2.399327,10.64223,2.387164,10.719503Q2.375,10.796776,2.375,10.875Q2.375,13.61917,4.315414,15.55959Q6.25583,17.5,9,17.5Q11.74417,17.5,13.6846,15.55959Q15.625,13.61917,15.625,10.875Q15.625,10.776509,15.6058,10.67991Q15.5866,10.583311,15.5489,10.492317Q15.5112,10.4013224,15.4565,10.31942977Q15.4017,10.2375372,15.3321,10.167893Q15.2625,10.098249,15.1806,10.04353Q15.0987,9.988812,15.0077,9.951121Q14.9167,9.913429,14.8201,9.894214999999999Q14.7235,9.875,14.625,9.875Q14.4627,9.875,14.3088,9.926317ZM4.4269,11.603439999999999Q6.91065,10.948359,8.55279,11.76943Q10.63234,12.8092,13.4345,12.23287Q13.11703,13.29872,12.27037,14.14537Q10.91575,15.5,9,15.5Q7.08425,15.5,5.72963,14.14537Q4.64014,13.05589,4.4269,11.603439999999999Z" fill-rule="evenodd" fill="#000000" fill-opacity="1"/></g></g></svg>