<svg xmlns="http://www.w3.org/2000/svg" xmlns:xlink="http://www.w3.org/1999/xlink" fill="none" version="1.1" width="24" height="24" viewBox="0 0 24 24"><defs><clipPath id="master_svg0_22_445"><rect x="0" y="0" width="24" height="24" rx="0"/></clipPath></defs><g clip-path="url(#master_svg0_22_445)"><g><path d="M15,16L15,17L14,17L14,16L13,16L13,17L12,17L12,16L11,16L11,17L10,17L10,15L15,15L15,16ZM21,13C20.8,17.3,17.3,20.7,13,21L12,21C7.7,20.8,4.3,17.3,4,13L4,12C4.2,7.7,7.7,4.3,12,4L13,4C17.3,4.2,20.7,7.7,21,12L21,13ZM20,13L19,13L19,12L20,12C19.8,8.3,16.8,5.3,13,4.999999L13,6L12,6L12,5C8.3,5.2,5.3,8.2,5,12L6,12L6,13L5,13C5.2,16.7,8.2,19.7,12,20L12,19L13,19L13,20C16.7,19.7,19.7,16.7,20,13ZM7,7.7L7.7,7L8.4,7.7L7.7,8.4L7,7.7ZM16.5,17.2L17.2,16.5L17.9,17.2L17.2,17.9L16.5,17.2ZM17.2,7L17.9,7.7L17.2,8.4L16.5,7.7L17.2,7ZM7.7,16.5L8.4,17.2L7.7,17.9L7,17.2L7.7,16.5ZM12.5,8L13.5,12.5L11.5,12.5L12.5,8Z" fill="#000000" fill-opacity="1"/></g></g></svg>