<svg xmlns="http://www.w3.org/2000/svg" xmlns:xlink="http://www.w3.org/1999/xlink" fill="none" version="1.1" width="24" height="24" viewBox="0 0 24 24"><defs><clipPath id="master_svg0_29_1719"><rect x="0" y="0" width="24" height="24" rx="0"/></clipPath></defs><g clip-path="url(#master_svg0_29_1719)"><rect x="0" y="0" width="24" height="24" rx="0" fill="#FFFFFF" fill-opacity="0"/><g><g><g style="opacity:0;"><path d="M-1,-1C-1,-1,25,-1,25,-1C25,-1,25,25,25,25C25,25,-1,25,-1,25C-1,25,-1,-1,-1,-1Z" fill="#000000" fill-opacity="1"/></g><g><path d="M16.972542207336424,7.027496746139526C16.972542207336424,7.027496746139526,5.835832207336425,18.164166746139525,5.835832207336425,18.164166746139525C5.315832207336426,18.684166746139525,4.427502207336426,18.564966746139525,4.113333207336426,17.904166746139527C3.5500002073364256,16.744966746139525,3.225000093536426,15.434166746139526,3.225000093536426,14.058366746139527C3.2033334073364257,8.078336746139527,9.270002207336425,2.9649967461395264,11.328332207336425,1.3941667461395264C11.729162207336426,1.0908334461395264,12.270832207336426,1.0908334461395264,12.660832207336426,1.3941667461395264C13.603342207336425,2.1091667461395263,15.369142207336425,3.5933367461395265,17.026642207336426,5.543336746139526C17.395042207336424,5.976666746139526,17.373342207336428,6.626666746139526,16.972542207336424,7.027496746139526Z" fill="#000000" fill-opacity="1"/></g><g><path d="M20.774987944030762,14.069167663879394C20.774987944030762,18.900797663879395,16.84248794403076,22.833297663879392,11.999997944030762,22.833297663879392C10.060837944030762,22.833297663879392,8.251667944030762,22.204997663879396,6.789166944030762,21.121697663879395C6.2583339440307615,20.731697663879395,6.215000944030762,19.951697663879393,6.680833944030762,19.485797663879396C6.680833944030762,19.485797663879396,17.58998794403076,8.576666663879395,17.58998794403076,8.576666663879395C18.09918794403076,8.067499663879394,18.954987944030762,8.175833463879394,19.30168794403076,8.804166663879395C20.18998794403076,10.439997663879394,20.785787944030762,12.216667663879395,20.774987944030762,14.069167663879394Z" fill="#000000" fill-opacity="1"/></g></g></g></g></svg>