<svg xmlns="http://www.w3.org/2000/svg" xmlns:xlink="http://www.w3.org/1999/xlink" fill="none" version="1.1" width="26" height="26" viewBox="0 0 26 26"><g><g style="opacity:0;"><rect x="0" y="0" width="26" height="26" rx="0" fill="#000000" fill-opacity="1"/></g><g><g><g><path d="M20,13Q20,13.17184,19.9916,13.34347Q19.9831,13.51511,19.9663,13.686119999999999Q19.9494,13.85713,19.9242,14.02711Q19.899,14.19709,19.8655,14.36563Q19.832,14.53417,19.7902,14.70086Q19.7485,14.86755,19.6986,15.03199Q19.648699999999998,15.19643,19.5908,15.35823Q19.532899999999998,15.52002,19.4672,15.67878Q19.401400000000002,15.83754,19.3279,15.99288Q19.2545,16.1482,19.1734,16.299799999999998Q19.092399999999998,16.4513,19.0041,16.5987Q18.9158,16.7461,18.8203,16.889Q18.724800000000002,17.0319,18.622500000000002,17.1699Q18.5201,17.3079,18.411099999999998,17.4408Q18.3021,17.5736,18.186700000000002,17.7009Q18.0713,17.828200000000002,17.9497,17.9497Q17.828200000000002,18.0713,17.7009,18.186700000000002Q17.5736,18.3021,17.4408,18.411099999999998Q17.3079,18.5201,17.1699,18.622500000000002Q17.0319,18.724800000000002,16.889,18.8203Q16.7461,18.9158,16.5987,19.0041Q16.4513,19.092399999999998,16.299799999999998,19.1734Q16.1482,19.2545,15.99288,19.3279Q15.83754,19.401400000000002,15.67878,19.4672Q15.52002,19.532899999999998,15.35823,19.5908Q15.19643,19.648699999999998,15.03199,19.6986Q14.86755,19.7485,14.70086,19.7902Q14.53417,19.832,14.36563,19.8655Q14.19709,19.899,14.02711,19.9242Q13.85713,19.9494,13.686119999999999,19.9663Q13.51511,19.9831,13.34347,19.9916Q13.17184,20,13,20Q12.82816,20,12.65653,19.9916Q12.48489,19.9831,12.313880000000001,19.9663Q12.14287,19.9494,11.97289,19.9242Q11.80291,19.899,11.63437,19.8655Q11.46583,19.832,11.299140000000001,19.7902Q11.13245,19.7485,10.96801,19.6986Q10.80357,19.648699999999998,10.641770000000001,19.5908Q10.479980000000001,19.532899999999998,10.32122,19.4672Q10.16246,19.401400000000002,10.00711,19.3279Q9.85177,19.2545,9.70022,19.1734Q9.54867,19.092399999999998,9.40128,19.0041Q9.25389,18.9158,9.11101,18.8203Q8.96813,18.724800000000002,8.8301,18.622500000000002Q8.69208,18.5201,8.55925,18.411099999999998Q8.42641,18.3021,8.29909,18.186700000000002Q8.171759999999999,18.0713,8.05025,17.9497Q7.9287399999999995,17.828200000000002,7.81334,17.7009Q7.69794,17.5736,7.5889299999999995,17.4408Q7.47991,17.3079,7.37755,17.1699Q7.27518,17.0319,7.17971,16.889Q7.08424,16.7461,6.9959,16.5987Q6.907556,16.4513,6.826551,16.299799999999998Q6.745546,16.1482,6.6720749999999995,15.99288Q6.598604,15.83754,6.532843,15.67878Q6.467083,15.52002,6.409191,15.35823Q6.3513,15.19643,6.301418,15.03199Q6.251535,14.86755,6.2097809999999996,14.70086Q6.168027,14.53417,6.134503,14.36563Q6.100979,14.19709,6.0757644,14.02711Q6.0505502,13.85713,6.0337069,13.686119999999999Q6.0168636,13.51511,6.0084318,13.34347Q6,13.17184,6,13Q6,12.82816,6.0084318,12.65653Q6.0168636,12.48489,6.0337069,12.313880000000001Q6.0505502,12.14287,6.0757644,11.97289Q6.100979,11.80291,6.134503,11.63437Q6.168027,11.46583,6.2097809999999996,11.299140000000001Q6.251535,11.13245,6.301418,10.96801Q6.3513,10.80357,6.409191,10.641770000000001Q6.467083,10.479980000000001,6.532843,10.32122Q6.598604,10.16246,6.6720749999999995,10.00711Q6.745546,9.85177,6.826551,9.70022Q6.907556,9.54867,6.995899,9.40128Q7.08424,9.25389,7.17971,9.11101Q7.27518,8.96813,7.37755,8.8301Q7.47991,8.69208,7.5889299999999995,8.55925Q7.69794,8.42641,7.81334,8.29909Q7.9287399999999995,8.171759999999999,8.05025,8.05025Q8.171759999999999,7.9287399999999995,8.29909,7.81334Q8.42641,7.69794,8.55925,7.5889299999999995Q8.69208,7.47991,8.8301,7.37755Q8.96813,7.27518,9.11101,7.17971Q9.25389,7.08424,9.40128,6.9959Q9.54867,6.907556,9.70022,6.826551Q9.85177,6.745546,10.00711,6.6720749999999995Q10.16246,6.598604,10.32122,6.532843Q10.479980000000001,6.467083,10.641770000000001,6.409191Q10.80357,6.3513,10.96801,6.301418Q11.13245,6.251535,11.299140000000001,6.2097809999999996Q11.46583,6.168027,11.63437,6.134503Q11.80291,6.100979,11.97289,6.0757644Q12.14287,6.0505502,12.313880000000001,6.0337069Q12.48489,6.0168636,12.65653,6.0084318Q12.82816,6,13,6Q13.17184,6,13.34347,6.0084318Q13.51511,6.0168636,13.686119999999999,6.0337069Q13.85713,6.0505502,14.02711,6.0757644Q14.19709,6.100979,14.36563,6.134503Q14.53417,6.168027,14.70086,6.2097809999999996Q14.86755,6.251535,15.03199,6.301418Q15.19643,6.3513,15.35823,6.409191Q15.52002,6.467083,15.67878,6.532843Q15.83754,6.598604,15.99288,6.6720749999999995Q16.1482,6.745546,16.299799999999998,6.826551Q16.4513,6.907556,16.5987,6.995899Q16.7461,7.08424,16.889,7.17971Q17.0319,7.27518,17.1699,7.37755Q17.3079,7.47991,17.4408,7.5889299999999995Q17.5736,7.69794,17.7009,7.81334Q17.828200000000002,7.9287399999999995,17.9497,8.05025Q18.0713,8.171759999999999,18.186700000000002,8.29909Q18.3021,8.42641,18.411099999999998,8.55925Q18.5201,8.69208,18.622500000000002,8.8301Q18.724800000000002,8.96813,18.8203,9.11101Q18.9158,9.25389,19.0041,9.40128Q19.092399999999998,9.54867,19.1734,9.70022Q19.2545,9.85177,19.3279,10.00711Q19.401400000000002,10.16246,19.4672,10.32122Q19.532899999999998,10.479980000000001,19.5908,10.641770000000001Q19.648699999999998,10.80357,19.6986,10.96801Q19.7485,11.13245,19.7902,11.299140000000001Q19.832,11.46583,19.8655,11.63437Q19.899,11.80291,19.9242,11.97289Q19.9494,12.14287,19.9663,12.313880000000001Q19.9831,12.48489,19.9916,12.65653Q20,12.82816,20,13Z" fill="#000000" fill-opacity="1"/></g><g><path d="M13,23.96C12.45,23.96,12,23.55,12,23C12,23,12,22.92,12,22.92C12,22.37,12.45,21.92,13,21.92C13.55,21.92,14,22.37,14,22.92C14,23.47,13.55,23.96,13,23.96ZM20.14,21.14C19.88,21.14,19.63,21.04,19.43,20.85C19.43,20.85,19.3,20.72,19.3,20.72C18.91,20.33,18.91,19.7,19.3,19.31C19.69,18.92,20.32,18.92,20.71,19.31C20.71,19.31,20.84,19.44,20.84,19.44C21.23,19.83,21.23,20.46,20.84,20.85C20.65,21.04,20.4,21.14,20.14,21.14ZM5.859999999999999,21.14C5.6,21.14,5.35,21.04,5.15,20.85C4.76,20.46,4.76,19.83,5.15,19.44C5.15,19.44,5.279999999999999,19.31,5.279999999999999,19.31C5.67,18.92,6.3,18.92,6.69,19.31C7.08,19.7,7.08,20.33,6.69,20.72C6.69,20.72,6.56,20.85,6.56,20.85C6.37,21.04,6.11,21.14,5.859999999999999,21.14ZM23,14C23,14,22.92,14,22.92,14C22.37,14,21.92,13.55,21.92,13C21.92,12.45,22.37,12,22.92,12C23.47,12,23.96,12.45,23.96,13C23.96,13.55,23.55,14,23,14ZM3.08,14C3.08,14,3,14,3,14C2.45,14,2,13.55,2,13C2,12.45,2.45,12,3,12C3.55,12,4.04,12.45,4.04,13C4.04,13.55,3.63,14,3.08,14ZM20.01,6.99C19.75,6.99,19.5,6.89,19.3,6.7C18.91,6.31,18.91,5.68,19.3,5.29C19.3,5.29,19.43,5.16,19.43,5.16C19.82,4.77,20.45,4.77,20.84,5.16C21.23,5.55,21.23,6.18,20.84,6.57C20.84,6.57,20.71,6.7,20.71,6.7C20.52,6.89,20.27,6.99,20.01,6.99ZM5.99,6.99C5.73,6.99,5.48,6.89,5.279999999999999,6.7C5.279999999999999,6.7,5.15,6.56,5.15,6.56C4.76,6.17,4.76,5.54,5.15,5.15C5.54,4.76,6.17,4.76,6.56,5.15C6.56,5.15,6.69,5.279999999999999,6.69,5.279999999999999C7.08,5.67,7.08,6.3,6.69,6.69C6.5,6.89,6.24,6.99,5.99,6.99ZM13,4.04C12.45,4.04,12,3.63,12,3.08C12,3.08,12,3,12,3C12,2.45,12.45,2,13,2C13.55,2,14,2.45,14,3C14,3.55,13.55,4.04,13,4.04Z" fill="#000000" fill-opacity="1"/></g><g transform="matrix(-1,-1.2246469849340659e-16,1.2246469849340659e-16,-1,50,50)" style="opacity:0;"><path d="M25,25C25,25,49,25,49,25C49,25,49,49,49,49C49,49,25,49,25,49C25,49,25,25,25,25Z" fill="#000000" fill-opacity="1"/></g></g></g></g></svg>