<svg xmlns="http://www.w3.org/2000/svg" xmlns:xlink="http://www.w3.org/1999/xlink" fill="none" version="1.1" width="24" height="24" viewBox="0 0 24 24"><g><g><rect x="0" y="0" width="24" height="24" rx="0" fill="#FFFFFF" fill-opacity="0.009999999776482582"/></g><g><path d="M10.81007,20.892272265625Q11.33875,20.500072265625,12,20.500072265625Q12.6613,20.500072265625,13.1899,20.892272265625Q13.7099,21.278172265625,13.9056,21.890172265625Q13.9352,21.982772265625,13.9821,22.067972265625Q14.029,22.153072265625,14.0914,22.227672265625Q14.1538,22.302172265625,14.2294,22.363272265625Q14.305,22.424472265625,14.391,22.469872265625Q14.477,22.515272265625,14.5701,22.543272265625Q14.6632,22.571272265625,14.7599,22.580872265625Q14.8567,22.590372265625,14.9535,22.581072265625Q15.0503,22.571872265625,15.1434,22.544072265625Q17.9127,21.719572265625,19.9266,19.626972265625Q19.9903,19.560672265625,20.041,19.483872265625Q20.0916,19.407172265625,20.1273,19.322472265625Q20.1631,19.237672265625,20.1828,19.147872265625Q20.2025,19.058072265625,20.2055,18.966172265625Q20.2085,18.874272265625,20.1947,18.783372265625Q20.1809,18.692472265625,20.1508,18.605572265625Q20.1206,18.518772265625,20.0751,18.438872265625Q20.0296,18.358972265625,19.9704,18.288672265625Q19.5,17.731172265625,19.5,17.000072265625Q19.5,16.171672265625,20.0858,15.585872265625Q20.6716,15.000072265625,21.5,15.000072265625Q21.6004,15.000072265625,21.6992,15.009772265625Q21.7907,15.018772265625,21.8823,15.010872265625Q21.9739,15.003072265625,22.0626,14.978672265625Q22.1512,14.954272265625,22.2339,14.914072265625Q22.3166,14.873872265625,22.3906,14.819272265625Q22.4646,14.764772265625,22.5274,14.697572265625Q22.5902,14.630372265625,22.6397,14.552972265625Q22.6892,14.475472265625,22.7237,14.390272265625Q22.7583,14.305072265625,22.7767,14.214972265625Q23,13.123372265625,23,12.000062265625Q23,10.304232265625,22.4961,8.700092265624999Q22.4722,8.623992265624999,22.4366,8.552642265625Q22.4009,8.481292265625001,22.3544,8.416502265624999Q22.3079,8.351702265625,22.2516,8.295102265625001Q22.1954,8.238502265625,22.131,8.191532265625Q22.0665,8.144562265625,21.9954,8.108402265625Q21.9243,8.072242265625,21.8484,8.047812265625Q21.7724,8.023382265625,21.6936,8.011302265625Q21.6147,7.999222265625,21.535,7.999782265625L21.5,8.000062265625001Q20.6716,8.000062265625001,20.0858,7.414272265625Q19.5,6.828482265625,19.5,6.000062265625Q19.5,5.5322622656250005,19.7046,5.117272265625Q19.7401,5.045382265624999,19.7636,4.968752265625Q19.7871,4.8921322656249995,19.7982,4.812732265625Q19.8092,4.733342265625,19.8075,4.653202265625Q19.8057,4.5730622656249995,19.7912,4.494222265625Q19.7767,4.415382265625,19.7498,4.339862265625Q19.723,4.264342265625,19.6844,4.194062265625Q19.6459,4.123782265625,19.5966,4.060552265625Q19.5474,3.997312265625,19.4886,3.942722265625Q17.519399999999997,2.111630265625,14.9407,1.397816265625Q14.8581,1.374931265625,14.7727,1.366460265625Q14.6873,1.357992265625,14.6018,1.364179265625Q14.5162,1.370368265625,14.433,1.391038265625Q14.3497,1.411707265625,14.2712,1.446253265625Q14.1927,1.480798265625,14.1212,1.5282102656249998Q14.0497,1.575623265625,13.9874,1.6345162656249999Q13.925,1.6934102656249999,13.8736,1.7620642656249998Q13.8222,1.830719265625,13.7832,1.907128265625Q13.5306,2.402250365625,13.0582,2.697650265625Q12.5746,3.000067265625,12,3.000067265625Q11.4254,3.000067265625,10.9418,2.697650265625Q10.46942,2.402250465625,10.21683,1.907128265625Q10.17784,1.830719265625,10.12642,1.7620642656249998Q10.075,1.6934102656249999,10.01263,1.6345162656249999Q9.95026,1.575623265625,9.878779999999999,1.5282102656249998Q9.80729,1.480798265625,9.72878,1.446253265625Q9.650269999999999,1.411707265625,9.56701,1.391038265625Q9.48376,1.370368265625,9.398209999999999,1.364179265625Q9.31265,1.357992265625,9.22729,1.366460265625Q9.14194,1.374931265625,9.05927,1.397816265625Q6.48062,2.111629265625,4.51135,3.942722265625Q4.45265,3.997312265625,4.40339,4.060552265625Q4.35413,4.123782265625,4.315580000000001,4.194062265625Q4.27702,4.264342265625,4.25015,4.339862265625Q4.22328,4.415382265625,4.2087900000000005,4.494222265625Q4.1942900000000005,4.5730622656249995,4.19254,4.653202265625Q4.19079,4.733342265625,4.20182,4.812732265625Q4.21286,4.8921322656249995,4.2364,4.968752265625Q4.25994,5.045382265624999,4.295389999999999,5.117272265625Q4.5,5.5322622656250005,4.5,6.000062265625Q4.5,6.828482265625,3.9142099999999997,7.414272265625Q3.32843,8.000062265625001,2.507135,8.000082265625L2.46503,7.999782265625Q2.385264,7.999222265625,2.306418,8.011302265625Q2.227571,8.023382265625,2.151636,8.047812265625Q2.0757022,8.072242265625,2.00460081,8.108402265625Q1.9334994,8.144562265625,1.869029,8.191532265625Q1.804559,8.238502265625,1.74835,8.295102265625001Q1.692141,8.351702265625,1.645616,8.416492265625Q1.59909,8.481282265625001,1.563424,8.552632265625Q1.527758,8.623982265625,1.503854,8.700082265625Q1,10.304152265625,1,12.000062265625Q1,13.123372265625,1.223281,14.214972265625Q1.241706,14.305072265625,1.276248,14.390272265625Q1.31079,14.475472265625,1.36029,14.552972265625Q1.409791,14.630372265625,1.4725890000000001,14.697572265625Q1.535388,14.764772265625,1.60938,14.819272265625Q1.683371,14.873872265625,1.766074,14.914072265625Q1.848778,14.954272265625,1.9374196,14.978672265625Q2.0260615,15.003072265625,2.11767,15.010872265625Q2.209278,15.018772265625,2.300781,15.009772265625Q2.399578,15.000072265625,2.5,15.000072265625Q3.32843,15.000072265625,3.9142099999999997,15.585872265625Q4.5,16.171672265625,4.5,17.000072265625Q4.5,17.731172265625,4.0296400000000006,18.288672265625Q3.97035,18.358872265625,3.92486,18.438872265625Q3.8793800000000003,18.518772265625,3.84922,18.605572265625Q3.81907,18.692472265625,3.80527,18.783372265625Q3.79146,18.874272265625,3.79447,18.966172265625Q3.7974699999999997,19.058072265625,3.81719,19.147872265625Q3.8369,19.237672265625,3.8726599999999998,19.322472265625Q3.90842,19.407172265625,3.9590300000000003,19.483872265625Q4.00964,19.560672265625,4.0733999999999995,19.626972265625Q6.08734,21.719672265625,8.85655,22.544072265625Q8.94974,22.571872265625,9.046520000000001,22.581072265625Q9.14331,22.590372265625,9.24007,22.580872265625Q9.33682,22.571272265625,9.429929999999999,22.543272265625Q9.52304,22.515272265625,9.60901,22.469872265625Q9.69497,22.424472265625,9.770579999999999,22.363272265625Q9.84619,22.302172265625,9.90861,22.227672265625Q9.971029999999999,22.153072265625,10.01792,22.067972265625Q10.06481,21.982772265625,10.09442,21.890172265625Q10.29006,21.278172265625,10.81007,20.892272265625ZM14.3816,19.286172265625Q13.3222,18.500072265625,12,18.500072265625Q10.67782,18.500072265625,9.61836,19.286172265625Q9.00927,19.738072265625,8.62277,20.347172265625Q7.22448,19.786172265625,6.0861,18.786672265625Q6.5,17.969372265624997,6.5,17.000072265625Q6.5,15.343172265625,5.32843,14.171672265625Q4.35952,13.202772265625,3.0587,13.035072265625Q3,12.522072265625,3,12.000062265625Q3,10.946282265625,3.23703,9.937232265625Q4.42812,9.728792265625,5.32843,8.828492265625Q6.5,7.656912265625,6.5,6.000062265625Q6.5,5.472692265625,6.36905,4.9774822656249995Q7.52289,4.046212265625,8.90914,3.543372265625Q9.31658,4.040182265625,9.88138,4.393382265625Q10.85153,5.000062265625,12,5.000062265625Q13.1485,5.000062265625,14.1186,4.393382265625Q14.6834,4.040182265625,15.0909,3.543372265625Q16.4771,4.046212265625,17.631,4.977492265625Q17.5,5.472692265625,17.5,6.000062265625Q17.5,7.656912265625,18.6716,8.828492265625Q19.5735,9.730452265625,20.7631,9.938022265625001Q21,10.946732265625,21,12.000062265625Q21,12.521972265625,20.9413,13.035172265625Q19.6405,13.202772265625,18.6716,14.171672265625Q17.5,15.343172265625,17.5,17.000072265625Q17.5,17.969372265624997,17.913899999999998,18.786672265625Q16.7755,19.786172265625,15.3772,20.347172265625Q14.9907,19.738072265625,14.3816,19.286172265625Z" fill-rule="evenodd" fill="#2B3D56" fill-opacity="1"/></g><g><path d="M8.818018,8.818018Q7.5,10.13604,7.5,12Q7.5,13.863959999999999,8.818018,15.18198Q10.13604,16.5,12,16.5Q13.863959999999999,16.5,15.18198,15.18198Q16.5,13.863959999999999,16.5,12Q16.5,10.13604,15.18198,8.818018Q13.863959999999999,7.5,12,7.5Q10.13604,7.5,8.818018,8.818018ZM10.23223,13.767769999999999Q9.5,13.035540000000001,9.5,12Q9.5,10.964459999999999,10.23223,10.23223Q10.964459999999999,9.5,12,9.5Q13.035540000000001,9.5,13.767769999999999,10.23223Q14.5,10.964459999999999,14.5,12Q14.5,13.035540000000001,13.767769999999999,13.767769999999999Q13.035540000000001,14.5,12,14.5Q10.964459999999999,14.5,10.23223,13.767769999999999Z" fill-rule="evenodd" fill="#2B3D56" fill-opacity="1"/></g></g></svg>