<svg xmlns="http://www.w3.org/2000/svg" xmlns:xlink="http://www.w3.org/1999/xlink" fill="none" version="1.1" width="24" height="24" viewBox="0 0 24 24"><g><g></g><g><path d="M20.5,5Q20.5,4.9015086,20.480800000000002,4.80491Q20.4616,4.708311,20.4239,4.617317Q20.386200000000002,4.526322,20.3315,4.44443Q20.276699999999998,4.362537,20.2071,4.292893Q20.1375,4.223249,20.0556,4.16853Q19.9737,4.113812,19.8827,4.076121Q19.7917,4.03843,19.6951,4.019215Q19.5985,4,19.5,4L4.5,4Q4.4015086,4,4.30491,4.019215Q4.208311,4.03843,4.117317,4.076121Q4.026322,4.113812,3.94443,4.16853Q3.862537,4.223249,3.792893,4.292893Q3.723249,4.362537,3.66853,4.44443Q3.6138120000000002,4.526322,3.576121,4.617317Q3.53843,4.708311,3.519215,4.80491Q3.5,4.9015086,3.5,5L3.5,18Q3.5,20.0711,4.964466,21.5355Q6.42893,23,8.5,23L15.5,23Q17.5711,23,19.0355,21.5355Q20.5,20.0711,20.5,18L20.5,5ZM18.5,6L5.5,6L5.5,18Q5.5,19.2426,6.37868,20.121299999999998Q7.25736,21,8.5,21L15.5,21Q16.7426,21,17.621299999999998,20.121299999999998Q18.5,19.2426,18.5,18L18.5,6Z" fill-rule="evenodd" fill="#2B3D56" fill-opacity="1"/></g><g><path d="M9,10L9,16.5Q9,16.598489999999998,9.019214999999999,16.69509Q9.03843,16.79169,9.076121,16.88268Q9.113812,16.97368,9.16853,17.05557Q9.223249,17.13746,9.292893,17.20711Q9.362537,17.27675,9.44443,17.33147Q9.526322,17.38619,9.617317,17.42388Q9.708311,17.461570000000002,9.80491,17.48078Q9.9015086,17.5,10,17.5Q10.0984914,17.5,10.19509,17.48078Q10.291689,17.461570000000002,10.382683,17.42388Q10.473678,17.38619,10.55557,17.33147Q10.637463,17.27675,10.707107,17.20711Q10.776751,17.13746,10.83147,17.05557Q10.886188,16.97368,10.923879,16.88268Q10.96157,16.79169,10.980785000000001,16.69509Q11,16.598489999999998,11,16.5L11,10Q11,9.9015086,10.980785000000001,9.80491Q10.96157,9.708311,10.923879,9.617317Q10.886188,9.526322,10.83147,9.44443Q10.776751,9.362537,10.707107,9.292893Q10.637463,9.223249,10.55557,9.16853Q10.473678,9.113812,10.382683,9.076121Q10.291689,9.03843,10.19509,9.019214999999999Q10.0984914,9,10,9Q9.9015086,9,9.80491,9.019214999999999Q9.708311,9.03843,9.617317,9.076121Q9.526322,9.113812,9.44443,9.16853Q9.362537,9.223249,9.292893,9.292893Q9.223249,9.362537,9.16853,9.44443Q9.113812,9.526322,9.076121,9.617317Q9.03843,9.708311,9.019214999999999,9.80491Q9,9.9015086,9,10Z" fill-rule="evenodd" fill="#2B3D56" fill-opacity="1"/></g><g><path d="M13,10L13,16.5Q13,16.598489999999998,13.019214999999999,16.69509Q13.03843,16.79169,13.076121,16.88268Q13.113812,16.97368,13.16853,17.05557Q13.223249,17.13746,13.292893,17.20711Q13.362537,17.27675,13.44443,17.33147Q13.526322,17.38619,13.617317,17.42388Q13.708311,17.461570000000002,13.80491,17.48078Q13.9015086,17.5,14,17.5Q14.0984914,17.5,14.19509,17.48078Q14.291689,17.461570000000002,14.382683,17.42388Q14.473678,17.38619,14.55557,17.33147Q14.637463,17.27675,14.707107,17.20711Q14.776751,17.13746,14.83147,17.05557Q14.886188,16.97368,14.923879,16.88268Q14.96157,16.79169,14.980785000000001,16.69509Q15,16.598489999999998,15,16.5L15,10Q15,9.9015086,14.980785000000001,9.80491Q14.96157,9.708311,14.923879,9.617317Q14.886188,9.526322,14.83147,9.44443Q14.776751,9.362537,14.707107,9.292893Q14.637463,9.223249,14.55557,9.16853Q14.473678,9.113812,14.382683,9.076121Q14.291689,9.03843,14.19509,9.019214999999999Q14.0984914,9,14,9Q13.9015086,9,13.80491,9.019214999999999Q13.708311,9.03843,13.617317,9.076121Q13.526322,9.113812,13.44443,9.16853Q13.362537,9.223249,13.292893,9.292893Q13.223249,9.362537,13.16853,9.44443Q13.113812,9.526322,13.076121,9.617317Q13.03843,9.708311,13.019214999999999,9.80491Q13,9.9015086,13,10Z" fill-rule="evenodd" fill="#2B3D56" fill-opacity="1"/></g><g><path d="M2,6L22,6Q22.0985,6,22.1951,5.980785Q22.2917,5.96157,22.3827,5.923879Q22.4737,5.886188,22.5556,5.83147Q22.6375,5.776751,22.7071,5.707107Q22.7767,5.637463,22.8315,5.55557Q22.8862,5.473678,22.9239,5.382683Q22.9616,5.291689,22.9808,5.19509Q23,5.0984914,23,5Q23,4.9015086,22.9808,4.80491Q22.9616,4.708311,22.9239,4.617317Q22.8862,4.526322,22.8315,4.44443Q22.7767,4.362537,22.7071,4.292893Q22.6375,4.223249,22.5556,4.16853Q22.4737,4.113812,22.3827,4.076121Q22.2917,4.03843,22.1951,4.019215Q22.0985,4,22,4L2,4Q1.9015086,4,1.80491,4.019215Q1.7083110000000001,4.03843,1.617317,4.076121Q1.526322,4.113812,1.44443,4.16853Q1.362537,4.223249,1.2928929999999998,4.292893Q1.223249,4.362537,1.16853,4.44443Q1.113812,4.526322,1.076121,4.617317Q1.03843,4.708311,1.019215,4.80491Q1,4.9015086,1,5Q1,5.0984914,1.019215,5.19509Q1.03843,5.291689,1.076121,5.382683Q1.113812,5.473678,1.16853,5.55557Q1.223249,5.637463,1.2928929999999998,5.707107Q1.362537,5.776751,1.44443,5.83147Q1.526322,5.886188,1.617317,5.923879Q1.7083110000000001,5.96157,1.80491,5.980785Q1.9015086,6,2,6Z" fill-rule="evenodd" fill="#2B3D56" fill-opacity="1"/></g><g><path d="M8,6L16,6Q16.25158,6,16.4732,5.88095Q16.55997,5.834350000000001,16.63598,5.771710000000001Q16.71198,5.7090700000000005,16.77431,5.63281Q16.83663,5.55654,16.88288,5.46959Q16.92914,5.38263,16.95753,5.288320000000001Q16.98593,5.1940100000000005,16.99538,5.09598Q17.00484,4.99794,16.994979999999998,4.89994Q16.985129999999998,4.80195,16.95634,4.70775Q16.92756,4.61356,16.88095,4.5268L15.2695,1.526796Q15.205359999999999,1.407378,15.11173,1.309347Q15.01811,1.211315,14.901769999999999,1.141745Q14.78543,1.072175,14.65477,1.036087Q14.5241,1,14.38855,1L9.6445,1Q9.51003,1,9.38033,1.035523Q9.25064,1.071046,9.13493,1.139569Q9.01923,1.208091,8.925737,1.304745Q8.832244,1.401398,8.767606,1.5193159999999999L7.123106,4.5193200000000004Q7,4.74389,7,5Q7,5.09849,7.019215,5.19509Q7.03843,5.29169,7.076121,5.382680000000001Q7.113812,5.47368,7.16853,5.5555699999999995Q7.223249,5.63746,7.292893,5.70711Q7.362537,5.77675,7.44443,5.8314699999999995Q7.526322,5.88619,7.617317,5.9238800000000005Q7.708311,5.96157,7.80491,5.98078Q7.9015086,6,8,6ZM14.32772,4L9.68856,4L10.23672,3L13.790569999999999,3L14.32772,4Z" fill-rule="evenodd" fill="#2B3D56" fill-opacity="1"/></g></g></svg>