<svg xmlns="http://www.w3.org/2000/svg" xmlns:xlink="http://www.w3.org/1999/xlink" fill="none" version="1.1" width="24" height="24" viewBox="0 0 24 24"><defs><clipPath id="master_svg0_1_0601"><rect x="0" y="0" width="24" height="24" rx="0"/></clipPath></defs><g clip-path="url(#master_svg0_1_0601)"><g><path d="M12.0434,3.38658Q12.68,4.02316,12.68,5.43Q12.68,5.50387,12.6944,5.57632Q12.7088,5.64877,12.7371,5.71701Q12.7654,5.78526,12.8064,5.84668Q12.8474,5.9081,12.8997,5.96033Q12.9519,6.01256,13.0133,6.0536Q13.0747,6.09464,13.143,6.12291Q13.2112,6.15118,13.2837,6.16559Q13.3561,6.18,13.43,6.18Q13.5039,6.18,13.5763,6.16559Q13.6488,6.15118,13.717,6.12291Q13.7853,6.09464,13.8467,6.0536Q13.9081,6.01256,13.9603,5.96033Q14.0126,5.9081,14.0536,5.84668Q14.0946,5.78526,14.1229,5.71701Q14.1512,5.64877,14.1656,5.57632Q14.18,5.50387,14.18,5.43Q14.18,3.40184,13.1041,2.32592Q12.0282,1.25,10,1.25L5.43,1.25Q3.40184,1.25,2.32592,2.32592Q1.25,3.40184,1.25,5.43L1.25,12.57Q1.25,14.5982,2.32592,15.6741Q3.40184,16.75,5.43,16.75L8,16.75Q8.07387,16.75,8.14632,16.735599999999998Q8.21877,16.7212,8.28701,16.6929Q8.355260000000001,16.6646,8.41668,16.6236Q8.478100000000001,16.5826,8.53033,16.5303Q8.58256,16.478099999999998,8.6236,16.4167Q8.66464,16.3553,8.692910000000001,16.287Q8.72118,16.2188,8.73559,16.1463Q8.75,16.073900000000002,8.75,16Q8.75,15.9261,8.73559,15.8537Q8.72118,15.7812,8.692910000000001,15.713Q8.66464,15.6447,8.6236,15.5833Q8.58256,15.5219,8.53033,15.4697Q8.478100000000001,15.4174,8.41668,15.3764Q8.355260000000001,15.3354,8.28701,15.3071Q8.21877,15.2788,8.14632,15.2644Q8.07387,15.25,8,15.25L5.43,15.25Q4.02316,15.25,3.38658,14.6134Q2.75,13.9768,2.75,12.57L2.75,5.43Q2.75,4.02316,3.38658,3.38658Q4.02316,2.75,5.43,2.75L10,2.75Q11.40684,2.75,12.0434,3.38658Z" fill-rule="evenodd" fill="#2B3D56" fill-opacity="1"/></g><g><path d="M21.67409969482422,21.6741Q22.74999969482422,20.5982,22.74999969482422,18.57L22.74999969482422,11.43Q22.74999969482422,9.40184,21.67409969482422,8.32592Q20.598199694824217,7.25,18.56999969482422,7.25L13.999999694824218,7.25Q11.971839694824219,7.25,10.895919694824219,8.32592Q9.819999694824219,9.40184,9.819999694824219,11.43L9.819999694824219,18.57Q9.819999694824219,20.5982,10.895919694824219,21.6741Q11.971839694824219,22.75,13.999999694824218,22.75L18.56999969482422,22.75Q20.598199694824217,22.75,21.67409969482422,21.6741ZM21.24999969482422,11.43L21.24999969482422,18.57Q21.24999969482422,19.9768,20.613399694824217,20.6134Q19.97683969482422,21.25,18.56999969482422,21.25L13.999999694824218,21.25Q12.59315969482422,21.25,11.95657969482422,20.6134Q11.319999694824219,19.9768,11.319999694824219,18.57L11.319999694824219,11.43Q11.319999694824219,10.02316,11.95657969482422,9.38658Q12.59315969482422,8.75,13.999999694824218,8.75L18.56999969482422,8.75Q19.97683969482422,8.75,20.613399694824217,9.38658Q21.24999969482422,10.02316,21.24999969482422,11.43Z" fill-rule="evenodd" fill="#2B3D56" fill-opacity="1"/></g><g><path d="M14.8701171875,15.75L18.130117187499998,15.75Q18.2039871875,15.75,18.2764371875,15.735589000000001Q18.3488871875,15.721178,18.4171271875,15.69291Q18.4853771875,15.664641,18.5467971875,15.623602Q18.6082171875,15.582563,18.6604471875,15.53033Q18.7126771875,15.478097,18.7537171875,15.416678Q18.7947571875,15.355258,18.8230271875,15.287013Q18.851297187500002,15.218767,18.8657071875,15.146318Q18.880117187499998,15.0738685,18.880117187499998,15Q18.880117187499998,14.9261315,18.8657071875,14.853682Q18.851297187500002,14.781233,18.8230271875,14.712987Q18.7947571875,14.644742,18.7537171875,14.583322Q18.7126771875,14.521903,18.6604471875,14.46967Q18.6082171875,14.417437,18.5467971875,14.376398Q18.4853771875,14.335359,18.4171271875,14.30709Q18.3488871875,14.278822,18.2764371875,14.264410999999999Q18.2039871875,14.25,18.130117187499998,14.25L14.8701171875,14.25Q14.7962486875,14.25,14.7237991875,14.264410999999999Q14.6513501875,14.278822,14.5831041875,14.30709Q14.5148591875,14.335359,14.4534391875,14.376398Q14.3920201875,14.417437,14.3397871875,14.46967Q14.2875541875,14.521903,14.2465151875,14.583322Q14.2054761875,14.644742,14.1772071875,14.712987Q14.1489391875,14.781233,14.134528187499999,14.853682Q14.1201171875,14.9261315,14.1201171875,15Q14.1201171875,15.0738685,14.134528187499999,15.146318Q14.1489391875,15.218767,14.1772071875,15.287013Q14.2054761875,15.355258,14.2465151875,15.416678Q14.2875541875,15.478097,14.3397871875,15.53033Q14.3920201875,15.582563,14.4534391875,15.623602Q14.5148591875,15.664641,14.5831041875,15.69291Q14.6513501875,15.721178,14.7237991875,15.735589000000001Q14.7962486875,15.75,14.8701171875,15.75Z" fill-rule="evenodd" fill="#2B3D56" fill-opacity="1"/></g><g><path d="M17.25,16.62999988555908L17.25,13.369999885559082Q17.25,13.296131385559082,17.235589,13.223681885559081Q17.221178,13.151232885559082,17.19291,13.082986885559082Q17.164641,13.014741885559083,17.123601999999998,12.953321885559083Q17.082563,12.891902885559082,17.03033,12.839669885559083Q16.978096999999998,12.787436885559082,16.916678,12.746397885559082Q16.855258,12.705358885559082,16.787013,12.677089885559083Q16.718767,12.648821885559082,16.646318,12.634410885559081Q16.5738685,12.619999885559082,16.5,12.619999885559082Q16.4261315,12.619999885559082,16.353682,12.634410885559081Q16.281233,12.648821885559082,16.212987,12.677089885559083Q16.144742,12.705358885559082,16.083322,12.746397885559082Q16.021903000000002,12.787436885559082,15.96967,12.839669885559083Q15.917437,12.891902885559082,15.876398,12.953321885559083Q15.835359,13.014741885559083,15.80709,13.082986885559082Q15.778822,13.151232885559082,15.764410999999999,13.223681885559081Q15.75,13.296131385559082,15.75,13.369999885559082L15.75,16.62999988555908Q15.75,16.703869885559083,15.764410999999999,16.776319885559083Q15.778822,16.848769885559083,15.80709,16.917009885559082Q15.835359,16.98525988555908,15.876398,17.046679885559083Q15.917437,17.10809988555908,15.96967,17.160329885559083Q16.021903000000002,17.21255988555908,16.083322,17.253599885559083Q16.144742,17.294639885559082,16.212987,17.32290988555908Q16.281233,17.351179885559084,16.353682,17.365589885559082Q16.4261315,17.37999988555908,16.5,17.37999988555908Q16.5738685,17.37999988555908,16.646318,17.365589885559082Q16.718767,17.351179885559084,16.787013,17.32290988555908Q16.855258,17.294639885559082,16.916678,17.253599885559083Q16.978096999999998,17.21255988555908,17.03033,17.160329885559083Q17.082563,17.10809988555908,17.123601999999998,17.046679885559083Q17.164641,16.98525988555908,17.19291,16.917009885559082Q17.221178,16.848769885559083,17.235589,16.776319885559083Q17.25,16.703869885559083,17.25,16.62999988555908Z" fill-rule="evenodd" fill="#2B3D56" fill-opacity="1"/></g><g style="opacity:0;"></g></g></svg>