<svg xmlns="http://www.w3.org/2000/svg" xmlns:xlink="http://www.w3.org/1999/xlink" fill="none" version="1.1" width="24" height="24" viewBox="0 0 24 24"><g><g><path d="M15.75,18.5L15.75,18Q15.75,17.92613,15.7356,17.85368Q15.7212,17.78123,15.6929,17.71299Q15.6646,17.64474,15.6236,17.58332Q15.5826,17.5219,15.5303,17.46967Q15.4781,17.41744,15.4167,17.3764Q15.3553,17.33536,15.287,17.30709Q15.2188,17.27882,15.1463,17.264409999999998Q15.0739,17.25,15,17.25Q14.9261,17.25,14.8537,17.264409999999998Q14.7812,17.27882,14.713,17.30709Q14.6447,17.33536,14.5833,17.3764Q14.5219,17.41744,14.4697,17.46967Q14.4174,17.5219,14.3764,17.58332Q14.3354,17.64474,14.3071,17.71299Q14.2788,17.78123,14.2644,17.85368Q14.25,17.92613,14.25,18L14.25,18.5Q14.25,20.25816,15.4959,21.504080000000002Q16.741799999999998,22.75,18.5,22.75Q20.2582,22.75,21.5041,21.504080000000002Q22.75,20.25816,22.75,18.5Q22.75,16.74184,21.5041,15.49592Q20.2582,14.25,18.5,14.25L2,14.25Q1.9261314999999999,14.25,1.853682,14.264410999999999Q1.781233,14.278822,1.712987,14.30709Q1.644742,14.335359,1.583322,14.376398Q1.521903,14.417437,1.46967,14.46967Q1.417437,14.521903,1.376398,14.583322Q1.335359,14.644742,1.30709,14.712987Q1.278822,14.781233,1.264411,14.853682Q1.25,14.9261315,1.25,15Q1.25,15.0738685,1.264411,15.146318Q1.278822,15.218767,1.30709,15.287013Q1.335359,15.355258,1.376398,15.416678Q1.417437,15.478097,1.46967,15.53033Q1.521903,15.582563,1.583322,15.623602Q1.644742,15.664641,1.712987,15.69291Q1.781233,15.721178,1.853682,15.735589000000001Q1.9261314999999999,15.75,2,15.75L18.5,15.75Q19.6368,15.75,20.4434,16.55658Q21.25,17.36316,21.25,18.5Q21.25,19.63684,20.4434,20.44342Q19.6368,21.25,18.5,21.25Q17.3632,21.25,16.5566,20.44342Q15.75,19.63684,15.75,18.5Z" fill-rule="evenodd" fill="#2B3D56" fill-opacity="1"/></g><g><path d="M14.25,8.5L14.25,9Q14.25,9.07387,14.2644,9.14632Q14.2788,9.21877,14.3071,9.28701Q14.3354,9.355260000000001,14.3764,9.41668Q14.4174,9.478100000000001,14.4697,9.53033Q14.5219,9.58256,14.5833,9.6236Q14.6447,9.66464,14.713,9.692910000000001Q14.7812,9.72118,14.8537,9.73559Q14.9261,9.75,15,9.75Q15.0739,9.75,15.1463,9.73559Q15.2188,9.72118,15.287,9.692910000000001Q15.3553,9.66464,15.4167,9.6236Q15.4781,9.58256,15.5303,9.53033Q15.5826,9.478100000000001,15.6236,9.41668Q15.6646,9.355260000000001,15.6929,9.28701Q15.7212,9.21877,15.7356,9.14632Q15.75,9.07387,15.75,9L15.75,8.5Q15.75,7.3653200000000005,16.5598,6.5571Q17.368499999999997,5.75,18.5,5.75Q19.6293,5.75,20.4397,6.56033Q21.25,7.37066,21.25,8.5Q21.25,9.63468,20.4402,10.4429Q19.6315,11.25,18.5,11.25L2,11.25Q1.9261314999999999,11.25,1.853682,11.26441Q1.781233,11.27882,1.712987,11.307089999999999Q1.644742,11.33536,1.583322,11.3764Q1.521903,11.41744,1.46967,11.46967Q1.417437,11.521899999999999,1.376398,11.58332Q1.335359,11.644739999999999,1.30709,11.71299Q1.278822,11.78123,1.264411,11.85368Q1.25,11.92613,1.25,12Q1.25,12.07387,1.264411,12.14632Q1.278822,12.21877,1.30709,12.28701Q1.335359,12.355260000000001,1.376398,12.41668Q1.417437,12.478100000000001,1.46967,12.53033Q1.521903,12.58256,1.583322,12.6236Q1.644742,12.66464,1.712987,12.692910000000001Q1.781233,12.72118,1.853682,12.73559Q1.9261314999999999,12.75,2,12.75L18.5,12.75Q20.252,12.75,21.4998,11.5046Q22.75,10.25687,22.75,8.5Q22.75,6.74934,21.5003,5.49967Q20.2507,4.25,18.5,4.25Q16.747999999999998,4.25,15.5002,5.495398Q14.25,6.74313,14.25,8.5Z" fill-rule="evenodd" fill="#2B3D56" fill-opacity="1"/></g><g><path d="M5.87,6.3099998855590815L5.87,6.689999885559082Q5.86999,6.763869885559082,5.88441,6.836319885559082Q5.898820000000001,6.908769885559082,5.92708,6.977009885559082Q5.95535,7.045259885559082,5.99639,7.106679885559082Q6.03743,7.168099885559082,6.08966,7.220329885559082Q6.1419,7.272559885559081,6.20332,7.313599885559082Q6.26474,7.354639885559083,6.33298,7.382909885559082Q6.40123,7.411179885559083,6.47368,7.4255898855590825Q6.54613,7.439999885559082,6.62,7.439999885559082Q6.69386,7.439999885559082,6.76631,7.4255898855590825Q6.83876,7.411179885559083,6.90701,7.382909885559082Q6.97525,7.354639885559083,7.03667,7.313599885559082Q7.09809,7.272559885559081,7.15032,7.220329885559082Q7.20256,7.168099885559082,7.2436,7.106679885559082Q7.28464,7.045259885559082,7.3129,6.977009885559082Q7.34117,6.908769885559082,7.35558,6.836319885559082Q7.37,6.763869885559082,7.37,6.689999885559082L7.37,6.3099998855590815Q7.37,5.508369885559082,7.93726,4.939649885559082Q8.50545,4.369999885559082,9.309999999999999,4.369999885559082Q10.11163,4.369999885559082,10.68035,4.937259885559082Q11.25,5.5054498855590825,11.25,6.3099998855590815Q11.25,7.111629885559082,10.68274,7.680349885559082Q10.11455,8.249999885559081,9.309999999999999,8.249999885559081L2,8.249999885559081Q1.9261314999999999,8.249999885559081,1.853682,8.264409885559083Q1.781233,8.278819885559082,1.712987,8.307089885559083Q1.644742,8.335359885559082,1.583322,8.376399885559081Q1.521903,8.417439885559082,1.46967,8.469669885559082Q1.417437,8.521899885559083,1.376398,8.583319885559082Q1.335359,8.644739885559083,1.30709,8.712989885559082Q1.278822,8.781229885559082,1.264411,8.853679885559082Q1.25,8.926129885559082,1.25,8.999999885559081Q1.25,9.073869885559082,1.264411,9.146319885559082Q1.278822,9.218769885559082,1.30709,9.287009885559083Q1.335359,9.355259885559082,1.376398,9.416679885559082Q1.417437,9.478099885559082,1.46967,9.530329885559082Q1.521903,9.582559885559082,1.583322,9.62359988555908Q1.644742,9.664639885559083,1.712987,9.692909885559082Q1.781233,9.721179885559081,1.853682,9.735589885559083Q1.9261314999999999,9.749999885559081,2,9.749999885559081L9.309999999999999,9.749999885559081Q10.737,9.749999885559081,11.74476,8.739649885559082Q12.75,7.731819885559082,12.75,6.3099998855590815Q12.75,4.882999885559082,11.73965,3.875238885559082Q10.73182,2.869999885559082,9.309999999999999,2.869999885559082Q7.883,2.869999885559082,6.87524,3.880350885559082Q5.87,4.888169885559082,5.87,6.3099998855590815Z" fill-rule="evenodd" fill="#2B3D56" fill-opacity="1"/></g><g style="opacity:0;"><path d="M0,24L0,0L24,0L24,24L0,24ZM1,23L1,1L23,1L23,23L1,23Z" fill-rule="evenodd" fill="#2B3D56" fill-opacity="1"/></g></g></svg>