<svg xmlns="http://www.w3.org/2000/svg" xmlns:xlink="http://www.w3.org/1999/xlink" fill="none" version="1.1" width="10.523810386657715" height="10.523810386657715" viewBox="0 0 10.523810386657715 10.523810386657715"><g><path d="M10.02381,3.35714C10.02381,4.9351,8.74462,6.21429,7.16667,6.21429C6.68412,6.21429,6.2295,6.09464,5.83086,5.88343L2.28571,9.42857C1.95697,9.75731,1.423979,9.75731,1.0952380000000002,9.42857C0.766497,9.09983,0.766497,8.56684,1.0952380000000002,8.2381L4.64038,4.69295C4.42917,4.294309999999999,4.30952,3.83969,4.30952,3.35714C4.30952,1.77919,5.58871,0.5,7.16667,0.5C7.64921,0.5,8.10383,0.619631,8.50248,0.830855L6.69048,2.64286L7.88095,3.83333L9.69295,2.02133C9.90417,2.41998,10.02381,2.8746,10.02381,3.35714Z" fill="#FFFFFF" fill-opacity="1"/><path d="M10.5238,3.35714Q10.5238,2.52151,10.13477,1.78724Q10.09961,1.72088,10.04651,1.66778Q10.01168,1.63296,9.97074,1.6056Q9.92979,1.57824,9.88429,1.55939Q9.8388,1.54055,9.7905,1.53094Q9.7422,1.52133,9.69295,1.52133Q9.64371,1.52133,9.59541,1.53094Q9.54711,1.54055,9.50161,1.55939Q9.45611,1.57824,9.41517,1.6056Q9.37422,1.63296,9.3394,1.66778L7.88095,3.12623L7.39758,2.64286L8.85603,1.184408Q8.90913,1.131308,8.94429,1.064952Q8.99085,0.97707,9.00024,0.878058Q9.00963,0.779046,8.98042,0.6839770000000001Q8.9512,0.5889093,8.88783,0.5122581Q8.82446,0.4356068,8.73658,0.389042Q8.00233,0,7.16667,0Q5.7761,0,4.79281,0.983284Q3.80952,1.96657,3.80952,3.35714Q3.80952,4.0014199999999995,4.040789999999999,4.58544L0.741685,7.88454Q0.348682,8.27754,0.348682,8.83333Q0.348682,9.38912,0.741685,9.78213Q1.1346859999999999,10.17513,1.69048,10.17513Q2.24627,10.17513,2.63927,9.78213L5.93837,6.48302Q6.52239,6.71429,7.16667,6.71429Q8.55724,6.71429,9.54052,5.731Q10.5238,4.74771,10.5238,3.35714ZM9.48683,2.93456L8.23451,4.18689Q8.19968,4.22171,8.15874,4.24907Q8.11779,4.2764299999999995,8.072289999999999,4.29527Q8.0268,4.31412,7.9785,4.323729999999999Q7.9302,4.33333,7.88095,4.33333Q7.83171,4.33333,7.78341,4.323729999999999Q7.73511,4.31412,7.68961,4.29527Q7.64411,4.2764299999999995,7.60317,4.24907Q7.56222,4.22171,7.5274,4.18689L6.33692,2.99641Q6.2666,2.92608,6.22854,2.8342Q6.19048,2.74231,6.19048,2.64286Q6.19048,2.5434,6.22854,2.45152Q6.2666,2.35963,6.33692,2.2893L7.58925,1.036977Q7.38287,1,7.16667,1Q6.19031,1,5.49992,1.69039Q4.80952,2.3807799999999997,4.80952,3.35714Q4.80952,3.94422,5.0822,4.45886Q5.11975,4.52975,5.13325,4.60882Q5.14675,4.68789,5.13483,4.76722Q5.12292,4.84655,5.08679,4.91817Q5.05066,4.98978,4.99393,5.04651L1.448792,8.59165Q1.2071070000000002,8.83333,1.448792,9.07502Q1.5489,9.17513,1.69048,9.17513Q1.83205,9.17513,1.93216,9.07502L5.4773,5.52988Q5.53403,5.47315,5.60565,5.43702Q5.67726,5.40089,5.75659,5.38898Q5.83592,5.37706,5.91499,5.39056Q5.99406,5.40406,6.06495,5.44161Q6.57959,5.71429,7.16667,5.71429Q8.14302,5.71429,8.83342,5.02389Q9.52381,4.3335,9.52381,3.35714Q9.52381,3.14094,9.48683,2.93456Z" fill-rule="evenodd" fill="#FFFFFF" fill-opacity="1"/></g></svg>