<svg xmlns="http://www.w3.org/2000/svg" xmlns:xlink="http://www.w3.org/1999/xlink" fill="none" version="1.1" width="16" height="16" viewBox="0 0 16 16"><defs><clipPath id="master_svg0_63_65195"><rect x="0" y="0" width="16" height="16" rx="0"/></clipPath></defs><g clip-path="url(#master_svg0_63_65195)"><g><path d="M13.9628046875,11.6051134375L8.657034687500001,2.4146484375C8.5085246875,2.1574564375,8.2341246875,1.9990234375,7.9371846875,1.9990234375C7.6402146875,1.9989987183,7.3657946875,2.1574424375,7.2173446875,2.4146484375L1.9112496875,11.6051134375C1.7626562875,11.8623034375,1.7626562875,12.1792234375,1.9112496875,12.4363234375C2.0598436875,12.6935234375,2.3342186875,12.8520234375,2.6310936875,12.8520234375L13.2431046875,12.8520234375C13.5402046875,12.8520234375,13.8144046875,12.6935234375,13.9630046875,12.4363234375C14.1116046875,12.1792234375,14.1114046875,11.8623034375,13.9628046875,11.6051134375ZM8.0445346875,4.9821534375C8.4221846875,4.9790234375,8.7965646875,5.3143334375,8.7965646875,5.625273437500001L8.6100046875,8.841053437500001C8.6100046875,9.1519934375,8.3556246875,9.406523437499999,8.0446846875,9.406523437499999C7.7337546875,9.406523437499999,7.4793746875,9.1521534375,7.4793746875,8.841053437500001L7.2928146875,5.625273437500001C7.2925046875,5.3143334375,7.5892146875,4.9940234375,8.0445346875,4.9821534375ZM8.0445346875,11.7441834375C7.6154646875,11.7441834375,7.2676546875,11.3963634375,7.2676546875,10.9673034375C7.2676546875,10.5382434375,7.6154646875,10.1904334375,8.0445346875,10.1904334375C8.4735946875,10.1904334375,8.8214046875,10.5382434375,8.8214046875,10.9673034375C8.8214046875,11.3963634375,8.4735946875,11.7441834375,8.0445346875,11.7441834375Z" fill="#FF7648" fill-opacity="1"/></g></g></svg>