<svg xmlns="http://www.w3.org/2000/svg" xmlns:xlink="http://www.w3.org/1999/xlink" fill="none" version="1.1" width="20" height="20" viewBox="0 0 20 20"><g><g><path d="M0,7C0,8.104569999999999,0.895431,9,2,9L18,9C19.1046,9,20,8.104569999999999,20,7L20,3C20,1.8954309999999999,19.1046,1,18,1L2,1C0.895431,1,0,1.8954309999999999,0,3L0,7Z" fill="#3563EF" fill-opacity="1"/></g><g><path d="M0,17C0,18.10457,0.895431,19,2,19L18,19C19.1046,19,20,18.10457,20,17L20,13C20,11.895431,19.1046,11,18,11L2,11C0.895431,11,0,11.895431,0,13L0,17Z" fill="#3563EF" fill-opacity="1"/></g><g><rect x="2" y="3" width="6" height="4" rx="2" fill="#F6F8FB" fill-opacity="1"/></g><g><rect x="2" y="13" width="6" height="4" rx="2" fill="#F6F8FB" fill-opacity="1"/></g></g></svg>