<svg xmlns="http://www.w3.org/2000/svg" xmlns:xlink="http://www.w3.org/1999/xlink" fill="none" version="1.1" width="16" height="16" viewBox="0 0 16 16"><defs><clipPath id="master_svg0_63_66105"><rect x="0" y="0" width="16" height="16" rx="0"/></clipPath></defs><g clip-path="url(#master_svg0_63_66105)"><g><path d="M14.285722265625,1.7138671875L1.714251265625,1.7138671875C1.3999652656250001,1.7138671875,1.142822265625,1.9710101875000001,1.142822265625,2.2852961875L1.142822265625,11.9995671875C1.142822265625,12.3138671875,1.3999652656250001,12.5709671875,1.714251265625,12.5709671875L14.285722265625,12.5709671875C14.599922265625,12.5709671875,14.857122265625,12.3138671875,14.857122265625,11.9995671875L14.857122265625,2.2852961875C14.857122265625,1.9710101875000001,14.599922265625,1.7138671875,14.285722265625,1.7138671875ZM7.857112265625,9.3995771875C7.742822265625,9.485297187499999,7.628532265625,9.5424371875,7.485682265625,9.5424371875C7.342822265625,9.5424371875,7.199962265625,9.485297187499999,7.085682265625,9.3710071875L5.289602265625,7.5982571875C5.066952265625,7.3784971875,5.065772265625,7.0194871875,5.286982265625,6.7982771875C5.507182265625,6.5780771875,5.864182265625,6.5780771875,6.084372265625,6.7982771875L7.514252265625,8.228157187499999L10.473622265625,5.7910271875C10.717612265625,5.5900871875,11.077952265625,5.6233271875,11.281022265625,5.8655071875C11.487822265625,6.1119671875,11.452522265625,6.4799771875,11.202822265625,6.6827471875L7.857112265625,9.3995771875ZM11.714222265625,13.1424671875L4.285682265625001,13.1424671875C3.970092265625,13.1424671875,3.714252265625,13.3982671875,3.714252265625,13.7138671875C3.714252265625,14.0294671875,3.970092265625,14.2852671875,4.285682265625001,14.2852671875L11.714222265625,14.2852671875C12.029822265625,14.2852671875,12.285722265625,14.0294671875,12.285722265625,13.7138671875C12.285722265625,13.3982671875,12.029822265625,13.1424671875,11.714222265625,13.1424671875" fill="#4DC591" fill-opacity="1"/></g></g></svg>