<svg xmlns="http://www.w3.org/2000/svg" xmlns:xlink="http://www.w3.org/1999/xlink" fill="none" version="1.1" width="48" height="44" viewBox="0 0 48 44"><defs><linearGradient x1="0" y1="-0.14241108298301697" x2="0.9459364414215088" y2="1.0985685586929321" id="master_svg0_10_5523"><stop offset="0%" stop-color="#0365FF" stop-opacity="1"/><stop offset="100%" stop-color="#589AFF" stop-opacity="1"/><stop offset="100%" stop-color="#247BFF" stop-opacity="1"/></linearGradient><linearGradient x1="0.5" y1="0" x2="0.5" y2="1" id="master_svg1_10_5707"><stop offset="0%" stop-color="#4A94FC" stop-opacity="1"/><stop offset="100%" stop-color="#0352B7" stop-opacity="1"/></linearGradient><filter id="master_svg2_63_66293" filterUnits="objectBoundingBox" color-interpolation-filters="sRGB" x="0" y="0" width="36" height="36"><feFlood flood-opacity="0" result="BackgroundImageFix"/><feBlend mode="normal" in="SourceGraphic" in2="BackgroundImageFix" result="shape"/><feGaussianBlur in="BackgroundImage" stdDeviation="1"/><feComposite in2="SourceAlpha" operator="in" result="effect1_foregroundBlur"/><feBlend mode="normal" in="SourceGraphic" in2="effect1_foregroundBlur" result="shape"/></filter><linearGradient x1="-0.05000000447034836" y1="0.0714285746216774" x2="1.0499999523162842" y2="0.9285714030265808" id="master_svg3_10_5761"><stop offset="0%" stop-color="#FFFFFF" stop-opacity="0.800000011920929"/><stop offset="100%" stop-color="#589AFF" stop-opacity="0.30000001192092896"/><stop offset="100%" stop-color="#7FBFFA" stop-opacity="1"/></linearGradient><clipPath id="master_svg4_63_66295"><rect x="18" y="14" width="24" height="24" rx="0"/></clipPath></defs><g><g><rect x="0" y="0" width="36" height="36" rx="3" fill="url(#master_svg0_10_5523)" fill-opacity="1"/><rect x="0.30000001192092896" y="0.30000001192092896" width="35.39999997615814" height="35.39999997615814" rx="2.699999988079071" stroke="url(#master_svg1_10_5707)" fill-opacity="0" fill="none" stroke-width="0.6000000238418579"/></g><g filter="url(#master_svg2_63_66293)"><rect x="12" y="8" width="36" height="36" rx="2" fill="#C0E0FF" fill-opacity="0.6000000238418579"/><rect x="12.305947691202164" y="8.305947691202164" width="35.38810461759567" height="35.38810461759567" rx="1.6940523087978363" stroke="url(#master_svg3_10_5761)" fill-opacity="0" fill="none" stroke-width="0.6118953824043274"/></g><g><g clip-path="url(#master_svg4_63_66295)"><g><path d="M21.333333,27.93327734375Q21.335,27.91663144375,21.335,27.89990234375Q21.335,27.86690774375,21.328563,27.83454704375Q21.322126,27.80218644375,21.3095,27.77170334375Q21.296873,27.74122034375,21.278542,27.71378634375Q21.260211,27.68635234375,21.236881,27.66302134375Q21.21355,27.63969134375,21.186116,27.62136034375Q21.158682,27.60302934375,21.128199,27.59040234375Q21.0977159,27.57777634375,21.0653553,27.57133934375Q21.0329946,27.56490234375,21,27.56490234375Q20.9670054,27.56490234375,20.9346447,27.57133934375Q20.9022841,27.57777634375,20.871801,27.59040234375Q20.841318,27.60302934375,20.813884,27.62136034375Q20.78645,27.63969134375,20.763119,27.66302134375Q20.739789,27.68635234375,20.721458,27.71378634375Q20.703127,27.74122034375,20.6905,27.77170334375Q20.677874,27.80218644375,20.671437,27.83454704375Q20.665,27.86690774375,20.665,27.89990234375Q20.665,27.91663144375,20.666667,27.93327734375L20.666667,32.39990234375Q20.666667,33.366402343749996,21.350084,34.04982234375Q22.0335,34.733232343750004,23,34.733232343750004L37,34.733232343750004Q37.966499999999996,34.733232343750004,38.6499,34.04982234375Q39.3333,33.366402343749996,39.3333,32.39990234375L39.3333,27.93328094375Q39.335,27.91663324375,39.335,27.89990234375Q39.335,27.86690774375,39.3286,27.83454704375Q39.3221,27.80218644375,39.3095,27.77170334375Q39.2969,27.74122034375,39.2785,27.71378634375Q39.2602,27.68635234375,39.2369,27.66302134375Q39.213499999999996,27.63969134375,39.186099999999996,27.62136034375Q39.158699999999996,27.60302934375,39.1282,27.59040234375Q39.0977,27.57777634375,39.0654,27.57133934375Q39.033,27.56490234375,39,27.56490234375Q38.967,27.56490234375,38.9346,27.57133934375Q38.9023,27.57777634375,38.8718,27.59040234375Q38.841300000000004,27.60302934375,38.813900000000004,27.62136034375Q38.7864,27.63969134375,38.7631,27.66302134375Q38.7398,27.68635234375,38.7215,27.71378634375Q38.7031,27.74122034375,38.6905,27.77170334375Q38.6779,27.80218644375,38.6714,27.83454704375Q38.665,27.86690774375,38.665,27.89990234375Q38.665,27.91663324375,38.6667,27.93328094375L38.6667,32.39990234375Q38.6667,33.09026234375,38.1785,33.57841234375Q37.6904,34.066572343749996,37,34.066572343749996L23,34.066572343749996Q22.30964,34.066572343749996,21.821489,33.57841234375Q21.333333,33.09026234375,21.333333,32.39990234375L21.333333,27.93327734375Z" fill-rule="evenodd" fill="#FFFFFF" fill-opacity="1" style="mix-blend-mode:passthrough"/></g><g><path d="M31.25,31.949951171875Q31.25,32.011361171875,31.24398,32.072471171875Q31.23796,32.133581171875,31.22598,32.193811171875Q31.214,32.254041171875,31.19618,32.312811171875Q31.178350000000002,32.371571171875,31.15485,32.428301171875Q31.13135,32.485041171875,31.1024,32.539201171875Q31.07345,32.593351171875,31.03934,32.644411171875Q31.00522,32.695471171875,30.96626,32.742941171875Q30.92731,32.790411171875,30.88388,32.833831171875Q30.84046,32.877261171875,30.79299,32.916211171875Q30.74552,32.955171171875,30.69446,32.989291171875Q30.6434,33.023401171875,30.58925,33.052351171875Q30.53509,33.081301171875,30.47835,33.104801171875Q30.42162,33.128301171875,30.36286,33.146121171875Q30.30409,33.163951171875,30.24386,33.175931171875Q30.18363,33.187911171875,30.12252,33.193931171875Q30.06141,33.199951171875,30,33.199951171875Q29.93859,33.199951171875,29.87748,33.193931171875Q29.81637,33.187911171875,29.75614,33.175931171875Q29.695908,33.163951171875,29.637144,33.146121171875Q29.57838,33.128301171875,29.521646,33.104801171875Q29.464911,33.081301171875,29.410754,33.052351171875Q29.356596,33.023401171875,29.305537,32.989291171875Q29.254478,32.955171171875,29.207008,32.916211171875Q29.159539,32.877261171875,29.116116,32.833831171875Q29.072694,32.790411171875,29.033737,32.742941171875Q28.99478,32.695471171875,28.960663,32.644411171875Q28.926546,32.593351171875,28.897598,32.539201171875Q28.868651,32.485041171875,28.8451506,32.428301171875Q28.8216505,32.371571171875,28.8038246,32.312811171875Q28.7859986,32.254041171875,28.7740184,32.193811171875Q28.7620382,32.133581171875,28.75601909,32.072471171875Q28.75,32.011361171875,28.75,31.949951171875Q28.75,31.888541171875,28.75601909,31.827431171875Q28.7620382,31.766321171875,28.7740184,31.706091171875Q28.7859986,31.645859171875,28.8038246,31.587095171875Q28.8216505,31.528331171875,28.8451506,31.471596171875Q28.868651,31.414862171875,28.897598,31.360705171875Q28.926546,31.306547171875,28.960663,31.255488171875Q28.99478,31.204429171875,29.033737,31.156959171875Q29.072694,31.109490171875,29.116116,31.066067171875Q29.159539,31.022645171875,29.207008,30.983688171875Q29.254478,30.944731171875,29.305537,30.910614171875Q29.356596,30.876497171875,29.410754,30.847549171875Q29.464911,30.818602171875,29.521645,30.795101671875Q29.57838,30.771601671875,29.637144,30.753775771875Q29.695908,30.735949771875,29.75614,30.723969571875Q29.81637,30.711989371875,29.87748,30.705970261875Q29.93859,30.699951171875,30,30.699951171875Q30.06141,30.699951171875,30.12252,30.705970261875Q30.18363,30.711989371875,30.24386,30.723969571875Q30.30409,30.735949771875,30.36286,30.753775771875Q30.42162,30.771601671875,30.47835,30.795101671875Q30.53509,30.818602171875,30.58925,30.847549171875Q30.6434,30.876497171875,30.69446,30.910614171875Q30.74552,30.944731171875,30.79299,30.983688171875Q30.84046,31.022645171875,30.88388,31.066067171875Q30.92731,31.109490171875,30.96626,31.156959171875Q31.00522,31.204429171875,31.03934,31.255488171875Q31.07345,31.306547171875,31.1024,31.360705171875Q31.13135,31.414862171875,31.15485,31.471596171875Q31.178350000000002,31.528331171875,31.19617,31.587095171875Q31.214,31.645859171875,31.22598,31.706091171875Q31.23796,31.766321171875,31.24398,31.827431171875Q31.25,31.888541171875,31.25,31.949951171875Z" fill="#FFFFFF" fill-opacity="1" style="mix-blend-mode:passthrough"/></g><g><path d="M23,16L37,16C38.104600000000005,16,39,16.895431,39,18L39,27.5C39,28.604599999999998,38.104600000000005,29.5,37,29.5L23,29.5C21.895431,29.5,21,28.604599999999998,21,27.5L21,18C21,16.895431,21.895431,16,23,16M24.5,18.5L26,18.5C26.27615,18.5,26.5,18.723860000000002,26.5,19L26.5,20.5C26.5,20.77615,26.27615,21,26,21L24.5,21C24.22385,21,24,20.77615,24,20.5L24,19C24,18.723860000000002,24.22385,18.5,24.5,18.5ZM29.25,18.5L30.75,18.5C31.0261,18.5,31.25,18.723860000000002,31.25,19L31.25,20.5C31.25,20.77615,31.0261,21,30.75,21L29.25,21C28.97385,21,28.75,20.77615,28.75,20.5L28.75,19C28.75,18.723860000000002,28.97385,18.5,29.25,18.5ZM34,18.5L35.5,18.5C35.7761,18.5,36,18.723860000000002,36,19L36,20.5C36,20.77615,35.7761,21,35.5,21L34,21C33.7239,21,33.5,20.77615,33.5,20.5L33.5,19C33.5,18.723860000000002,33.7239,18.5,34,18.5ZM26,22L24.5,22C24.22385,22,24,22.22385,24,22.5L24,24C24,24.27615,24.22385,24.5,24.5,24.5L26,24.5C26.27615,24.5,26.5,24.27615,26.5,24L26.5,22.5C26.5,22.22385,26.27615,22,26,22ZM30.75,22L29.25,22C28.97385,22,28.75,22.22385,28.75,22.5L28.75,24C28.75,24.27615,28.97385,24.5,29.25,24.5L30.75,24.5C31.0261,24.5,31.25,24.27615,31.25,24L31.25,22.5C31.25,22.22385,31.0261,22,30.75,22Z" fill-rule="evenodd" fill="#FFFFFF" fill-opacity="1" style="mix-blend-mode:passthrough"/><path d="M23,15.666667L37,15.666667Q37.966499999999996,15.666667,38.6499,16.350084Q39.3333,17.0335,39.3333,18L39.3333,27.5Q39.3333,28.4665,38.6499,29.149900000000002Q37.966499999999996,29.8333,37,29.8333L23,29.8333Q22.0335,29.8333,21.350084,29.149900000000002Q20.666667,28.4665,20.666667,27.5L20.666667,18Q20.666667,17.0335,21.350084,16.350084Q22.0335,15.666667,23,15.666666L23,16.333333Q22.30964,16.333333,21.821489,16.821489Q21.333333,17.30964,21.333333,18L21.333333,27.5Q21.333333,28.1904,21.821489,28.6785Q22.30964,29.1667,23,29.1667L37,29.1667Q37.6904,29.1667,38.1785,28.6785Q38.6667,28.1904,38.6667,27.5L38.6667,18Q38.6667,17.30964,38.1785,16.821489Q37.6904,16.333333,37,16.333333L23,16.333333L23,15.666667ZM24.5,18.16667L26,18.16667Q26.83333,18.16667,26.83333,19L26.83333,20.5Q26.83333,20.84518,26.58926,21.08926Q26.34518,21.33333,26,21.33333L24.5,21.33333Q23.66667,21.33333,23.66667,20.5L23.66667,19Q23.66667,18.65482,23.91074,18.41075Q24.15482,18.16667,24.5,18.16667ZM24.5,18.83333Q24.33333,18.83333,24.33333,19L24.33333,20.5Q24.33333,20.66667,24.5,20.66667L26,20.66667Q26.16667,20.66667,26.16667,20.5L26.16667,19Q26.16667,18.83333,26,18.83333L24.5,18.83333ZM29.25,18.16667L30.75,18.16667Q31.0952,18.16667,31.3393,18.41075Q31.5833,18.65482,31.5833,19L31.5833,20.5Q31.5833,20.84518,31.3393,21.08926Q31.0952,21.33333,30.75,21.33333L29.25,21.33333Q28.41667,21.33333,28.41667,20.5L28.41667,19Q28.41667,18.65482,28.66074,18.41075Q28.90482,18.16667,29.25,18.16667ZM29.25,18.83333Q29.08333,18.83333,29.08333,19L29.08333,20.5Q29.08333,20.66667,29.25,20.66667L30.75,20.66667Q30.91667,20.66667,30.91667,20.5L30.91667,19Q30.91667,18.83333,30.75,18.83333L29.25,18.83333ZM34,18.16667L35.5,18.16667Q35.8452,18.16667,36.0893,18.41075Q36.3333,18.65482,36.3333,19L36.3333,20.5Q36.3333,21.33333,35.5,21.33333L34,21.33333Q33.1667,21.33333,33.1667,20.5L33.1667,19Q33.1667,18.65482,33.4107,18.41075Q33.6548,18.16667,34,18.16667ZM34,18.83333Q33.8333,18.83333,33.8333,19L33.8333,20.5Q33.8333,20.66667,34,20.66667L35.5,20.66667Q35.6667,20.66667,35.6667,20.5L35.6667,19Q35.6667,18.83333,35.5,18.83333L34,18.83333ZM26,22.33333L24.5,22.33333Q24.33333,22.33333,24.33333,22.5L24.33333,24Q24.33333,24.16667,24.5,24.16667L26,24.16667Q26.16667,24.16667,26.16667,24L26.16667,22.5Q26.16667,22.33333,26,22.33333ZM26,21.66667Q26.34518,21.66667,26.58926,21.91074Q26.83333,22.15482,26.83333,22.5L26.83333,24Q26.83333,24.83333,26,24.83333L24.5,24.83333Q24.15482,24.83333,23.91074,24.58926Q23.66667,24.34518,23.66667,24L23.66667,22.5Q23.66667,21.66667,24.5,21.66667L26,21.66667ZM30.75,22.33333L29.25,22.33333Q29.08333,22.33333,29.08333,22.5L29.08333,24Q29.08333,24.16667,29.25,24.16667L30.75,24.16667Q30.91667,24.16667,30.91667,24L30.91667,22.5Q30.91667,22.33333,30.75,22.33333ZM30.75,21.66667Q31.0952,21.66667,31.3393,21.91074Q31.5833,22.15482,31.5833,22.5L31.5833,24Q31.5833,24.83333,30.75,24.83333L29.25,24.83333Q28.90482,24.83333,28.66074,24.58926Q28.41667,24.34518,28.41667,24L28.41667,22.5Q28.41667,21.66667,29.25,21.66667L30.75,21.66667Z" fill="#FFFFFF" fill-opacity="1" style="mix-blend-mode:passthrough"/></g></g></g></g></svg>