<svg xmlns="http://www.w3.org/2000/svg" xmlns:xlink="http://www.w3.org/1999/xlink" fill="none" version="1.1" width="16" height="16" viewBox="0 0 16 16"><defs><clipPath id="master_svg0_63_65247"><rect x="0" y="0" width="16" height="16" rx="0"/></clipPath></defs><g clip-path="url(#master_svg0_63_65247)"><g><path d="M14.285722265625,1.7138671875L1.714251265625,1.7138671875C1.3999652656250001,1.7138671875,1.142822265625,1.9710101875000001,1.142822265625,2.2852961875L1.142822265625,11.9995671875C1.142822265625,12.3138671875,1.3999652656250001,12.5709671875,1.714251265625,12.5709671875L14.285722265625,12.5709671875C14.599922265625,12.5709671875,14.857122265625,12.3138671875,14.857122265625,11.9995671875L14.857122265625,2.2852961875C14.857122265625,1.9710101875000001,14.599922265625,1.7138671875,14.285722265625,1.7138671875ZM9.904092265625,9.281307187500001C9.673692265625,9.5037671875,9.306032265625,9.4954871875,9.085882265625,9.2628671875L7.971392265625,8.0852971875L6.785472265625,9.2076771875C6.556122265625,9.4247471875,6.194732265625,9.4166071875,5.975382265625,9.1894271875C5.752922265625,8.959017187499999,5.761202265625,8.591367187500001,5.993822265625,8.371217187500001L7.171392265625,7.2567271875L6.049012265625,6.0708071875C5.831942265625,5.8414471875,5.840082265625,5.4800571875,6.067262265625,5.2607171875C6.297672265625,5.0382471875,6.665322265625,5.0465371875,6.885472265625,5.2791471875L7.999962265625,6.4567271875L9.185882265625,5.3343371875C9.415242265625,5.1172671874999995,9.776632265625,5.1254071875000005,9.995972265625,5.3525871875C10.218432265625,5.5829971875,10.210152265625,5.9506571875,9.977542265625,6.1708071875L8.799962265625,7.2852971875L9.922352265625,8.4712071875C10.139422265625,8.700567187499999,10.131272265625,9.0619571875,9.904092265625,9.281307187500001M11.714222265625,13.1424671875L4.285682265625001,13.1424671875C3.970092265625,13.1424671875,3.714252265625,13.3982671875,3.714252265625,13.7138671875C3.714252265625,14.0294671875,3.970092265625,14.2852671875,4.285682265625001,14.2852671875L11.714222265625,14.2852671875C12.029822265625,14.2852671875,12.285722265625,14.0294671875,12.285722265625,13.7138671875C12.285722265625,13.3982671875,12.029822265625,13.1424671875,11.714222265625,13.1424671875" fill="#8A92A6" fill-opacity="1"/></g></g></svg>