<svg xmlns="http://www.w3.org/2000/svg" xmlns:xlink="http://www.w3.org/1999/xlink" fill="none" version="1.1" width="48" height="44" viewBox="0 0 48 44"><defs><linearGradient x1="0" y1="-0.14241108298301697" x2="0.9459364414215088" y2="1.0985685586929321" id="master_svg0_10_5523"><stop offset="0%" stop-color="#0365FF" stop-opacity="1"/><stop offset="100%" stop-color="#589AFF" stop-opacity="1"/><stop offset="100%" stop-color="#247BFF" stop-opacity="1"/></linearGradient><linearGradient x1="0.5" y1="0" x2="0.5" y2="1" id="master_svg1_10_5707"><stop offset="0%" stop-color="#4A94FC" stop-opacity="1"/><stop offset="100%" stop-color="#0352B7" stop-opacity="1"/></linearGradient><filter id="master_svg2_68_12352" filterUnits="objectBoundingBox" color-interpolation-filters="sRGB" x="0" y="0" width="36" height="36"><feFlood flood-opacity="0" result="BackgroundImageFix"/><feBlend mode="normal" in="SourceGraphic" in2="BackgroundImageFix" result="shape"/><feGaussianBlur in="BackgroundImage" stdDeviation="1"/><feComposite in2="SourceAlpha" operator="in" result="effect1_foregroundBlur"/><feBlend mode="normal" in="SourceGraphic" in2="effect1_foregroundBlur" result="shape"/></filter><linearGradient x1="-0.05000000447034836" y1="0.0714285746216774" x2="1.0499999523162842" y2="0.9285714030265808" id="master_svg3_10_5761"><stop offset="0%" stop-color="#FFFFFF" stop-opacity="0.800000011920929"/><stop offset="100%" stop-color="#589AFF" stop-opacity="0.30000001192092896"/><stop offset="100%" stop-color="#7FBFFA" stop-opacity="1"/></linearGradient><clipPath id="master_svg4_68_12346"><rect x="18" y="14" width="24" height="24" rx="0"/></clipPath></defs><g><g><g><rect x="0" y="0" width="36" height="36" rx="3" fill="url(#master_svg0_10_5523)" fill-opacity="1"/><rect x="0.30000001192092896" y="0.30000001192092896" width="35.39999997615814" height="35.39999997615814" rx="2.699999988079071" stroke="url(#master_svg1_10_5707)" fill-opacity="0" fill="none" stroke-width="0.6000000238418579"/></g><g filter="url(#master_svg2_68_12352)"><rect x="12" y="8" width="36" height="36" rx="2" fill="#C0E0FF" fill-opacity="0.6000000238418579"/><rect x="12.305947691202164" y="8.305947691202164" width="35.38810461759567" height="35.38810461759567" rx="1.6940523087978363" stroke="url(#master_svg3_10_5761)" fill-opacity="0" fill="none" stroke-width="0.6118953824043274"/></g></g><g clip-path="url(#master_svg4_68_12346)"><g><path d="M20.5,27Q20.5,26.9507543,20.509607,26.9024549Q20.519215,26.854155,20.53806,26.808658Q20.556906,26.763161,20.584265,26.722215Q20.611625,26.681269,20.646447,26.646447Q20.681269,26.611625,20.722215,26.584265Q20.763161,26.556906,20.808658,26.53806Q20.854155,26.519215,20.9024549,26.509607Q20.9507543,26.5,21,26.5Q21.0492457,26.5,21.0975451,26.509607Q21.145845,26.519215,21.191342,26.53806Q21.236839,26.556906,21.277785,26.584265Q21.318731,26.611625,21.353553,26.646447Q21.388375,26.681269,21.415735,26.722215Q21.443094,26.763161,21.46194,26.808658Q21.480785,26.854155,21.490393,26.9024549Q21.5,26.9507543,21.5,27L21.5,35Q21.5,35.04924,21.490393,35.09754Q21.480785,35.14584,21.46194,35.19134Q21.443094,35.23684,21.415735,35.27778Q21.388375,35.31873,21.353553,35.35355Q21.318731,35.38837,21.277785,35.415729999999996Q21.236839,35.44309,21.191342,35.46194Q21.145845,35.480779999999996,21.0975451,35.49039Q21.0492457,35.5,21,35.5Q20.9507543,35.5,20.9024549,35.49039Q20.854155,35.480779999999996,20.808658,35.46194Q20.763161,35.44309,20.722215,35.415729999999996Q20.681269,35.38837,20.646447,35.35355Q20.611625,35.31873,20.584265,35.27778Q20.556906,35.23684,20.53806,35.19134Q20.519215,35.14584,20.509607,35.09754Q20.5,35.04924,20.5,35L20.5,27Z" fill-rule="evenodd" fill="#FFFFFF" fill-opacity="1" style="mix-blend-mode:passthrough"/></g><g><path d="M26.91603,27.77735Q27,27.651388,27,27.5Q27,27.4507543,26.990389999999998,27.4024549Q26.98078,27.354155,26.96194,27.308658Q26.943089999999998,27.263161,26.91573,27.222215Q26.888370000000002,27.181269,26.85355,27.146447Q26.818730000000002,27.111625,26.77778,27.084265Q26.73684,27.056906,26.69134,27.03806Q26.64584,27.019215,26.597540000000002,27.009607Q26.54924,27,26.5,27Q26.43826,27,26.37838,27.015016Q26.3185,27.030032,26.26407,27.059163Q26.20964,27.088293,26.16393,27.129788Q26.11822,27.171283,26.08397,27.22265L26.0839,27.222767L24.23241,30L21,30Q20.9507543,30,20.9024549,30.00961Q20.854155,30.01921,20.808658,30.03806Q20.763161,30.05691,20.722215,30.08426Q20.681269,30.11162,20.646447,30.14645Q20.611625,30.18127,20.584265,30.22221Q20.556906,30.26316,20.53806,30.30866Q20.519215,30.35415,20.509607,30.40245Q20.5,30.45075,20.5,30.5Q20.5,30.54925,20.509607,30.59754Q20.519215,30.64584,20.53806,30.69134Q20.556906,30.73684,20.584265,30.77778Q20.611625,30.81873,20.646447,30.85355Q20.681269,30.888370000000002,20.722215,30.91573Q20.763161,30.94309,20.808658,30.96194Q20.854155,30.98078,20.9024549,30.99039Q20.9507543,31,21,31L24.5,31Q24.56174,31,24.62162,30.98498Q24.6815,30.96997,24.73593,30.94084Q24.79036,30.91171,24.83607,30.87021Q24.88178,30.82872,24.91603,30.77735L26.91595,27.777467L26.91603,27.77735Z" fill-rule="evenodd" fill="#FFFFFF" fill-opacity="1" style="mix-blend-mode:passthrough"/></g><g><path d="M21.777439,23.584034L35.0141,32.40845L39.7428,29.57125Q39.8615,29.5,40,29.5Q40.0492,29.5,40.0975,29.509610000000002Q40.1458,29.51922,40.1913,29.53806Q40.2368,29.556910000000002,40.2778,29.58427Q40.3187,29.611629999999998,40.3536,29.64645Q40.388400000000004,29.681269999999998,40.4157,29.72222Q40.4431,29.76316,40.4619,29.80866Q40.4808,29.85416,40.4904,29.902459999999998Q40.5,29.95076,40.5,30Q40.5,30.06476,40.4835,30.12738Q40.467,30.19,40.4351,30.24635Q40.4032,30.3027,40.358000000000004,30.34907Q40.312799999999996,30.39543,40.2572,30.42875L40.256699999999995,30.42905L35.5285,33.265950000000004Q34.986000000000004,33.59152,34.4594,33.24055L21.222739,24.416085L21.22265,24.416025Q21.171283,24.38178,21.129788,24.33607Q21.088293,24.29036,21.059163,24.235929Q21.030032,24.181498,21.015016,24.121617Q21,24.0617355,21,24Q21,23.9507543,21.009607,23.9024549Q21.019215,23.854155,21.03806,23.808658Q21.056906,23.763161,21.084265,23.722215Q21.111625,23.681269,21.146447,23.646447Q21.181269,23.611625,21.222215,23.584265Q21.263161,23.556906,21.308658,23.53806Q21.354155,23.519215,21.4024549,23.509607Q21.4507543,23.5,21.5,23.5Q21.651388,23.5,21.77735,23.583975L21.777439,23.584034Z" fill-rule="evenodd" fill="#FFFFFF" fill-opacity="1" style="mix-blend-mode:passthrough"/></g><g><path d="M21.53907025,20.36028625C21.26649535,20.178586250000002,21.23939035,19.78818625,21.48424025,19.57053625L25.21400625,16.25520425C25.38280625,16.10514905,25.63125625,16.08689915,25.82020625,16.21067915L39.35240625,25.07658625C39.656006250000004,25.27558625,39.65310625,25.72173625,39.34680625,25.91663625L34.77480625,28.826106250000002C34.607806249999996,28.93240625,34.39380625,28.93010625,34.22910625,28.82030625L21.53907025,20.36028625Z" fill="#FFFFFF" fill-opacity="1" style="mix-blend-mode:passthrough"/><path d="M21.26172005,20.77630625L33.95170625,29.23630625L33.951806250000004,29.23630625Q34.49380625,29.59760625,35.04330625,29.24790625L39.61520625,26.338506250000002Q40.07470625,26.046096249999998,40.07830625,25.50144625Q40.08190625,24.95685625,39.62640625,24.65835625L26.09419625,15.79243325Q25.45388625,15.37296825,24.88182625,15.88149825L21.15205325,19.19683625Q20.78478725,19.52330625,20.81882225,20.01351625Q20.85285825,20.503756250000002,21.26172005,20.77630625ZM34.50640625,28.40420625L34.50630625,28.40420625L21.81642025,19.94425625L21.81642725,19.94423625L25.546186249999998,16.62890925L25.54621625,16.62892425L39.07830625,25.49481625L34.50640625,28.40420625Z" fill-rule="evenodd" fill="#FFFFFF" fill-opacity="1" style="mix-blend-mode:passthrough"/></g></g></g></svg>