<svg xmlns="http://www.w3.org/2000/svg" xmlns:xlink="http://www.w3.org/1999/xlink" fill="none" version="1.1" width="34" height="33" viewBox="0 0 34 33"><defs><clipPath id="master_svg0_3_0754"><rect x="13" y="9" width="16" height="16" rx="0"/></clipPath></defs><g><g><path d="M0,31C0,32.104600000000005,0.895431,33,2,33L8.65385,33L16,33C17.1046,33,18,32.104600000000005,18,31L18,9C18,7.895431,17.1046,7,16,7L2,7C0.895431,7,0,7.895431,0,9L0,31Z" fill="#94BFFF" fill-opacity="1"/></g><g><path d="M8,31C8,32.1046,8.895431,33,10,33L20.5,33L32,33C33.104600000000005,33,34,32.1046,34,31L34,16.5L34,12.375L34,10L24,0L21,0L10,0C8.895431,0,8,0.895431,8,2L8,31Z" fill="#3563EF" fill-opacity="1"/></g><g><path d="M24,8C24,9.10457,24.895431,10,26,10L34,10L24,0L24,8Z" fill="#94BFFF" fill-opacity="1"/></g><g clip-path="url(#master_svg0_3_0754)"><g><path d="M20.25843,11.428934C20.334310000000002,11.302152,20.44125,11.196412,20.56934,11.121518C20.98949,10.875913,21.53099,11.0143577,21.77884,11.43086L27.877499999999998,21.6798C27.957700000000003,21.814500000000002,28,21.9681,28,22.124499999999998C28,22.6081,27.6045,23,27.1167,23L14.883441,23C14.724834,23,14.56915,22.957700000000003,14.432737,22.877499999999998C14.0131843,22.6308,13.874864,22.093600000000002,14.12377,21.677799999999998L20.25843,11.428934L20.25843,11.428934ZM21.02028,14.19462C20.654429999999998,14.19462,20.35783,14.48861,20.35783,14.85124L20.35783,18.79097C20.35783,19.1536,20.654429999999998,19.447589999999998,21.02028,19.447589999999998C21.38613,19.447589999999998,21.68274,19.1536,21.68274,18.79097L21.68274,14.85124C21.68274,14.48861,21.38613,14.19462,21.02028,14.19462ZM21.02028,20.32309C20.654429999999998,20.32309,20.35783,20.61708,20.35783,20.97971C20.35783,21.3423,20.654429999999998,21.6363,21.02028,21.6363C21.38613,21.6363,21.68274,21.3423,21.68274,20.97971C21.68274,20.61708,21.38613,20.32309,21.02028,20.32309Z" fill="#FFFFFF" fill-opacity="1" style="mix-blend-mode:passthrough"/></g></g></g></svg>