<svg xmlns="http://www.w3.org/2000/svg" xmlns:xlink="http://www.w3.org/1999/xlink" fill="none" version="1.1" width="32" height="34" viewBox="0 0 32 34"><defs><clipPath id="master_svg0_3_0762"><rect x="8" y="9" width="16" height="16" rx="0"/></clipPath></defs><g><g><path d="M7.124556,31.8826C7.0569815,33.0313,7.970359,34,9.1211,34L15.65385,34L22.8789,34C24.0296,34,24.943,33.0313,24.8754,31.8826L23.1107,1.88256C23.0486,0.825431,22.173099999999998,0,21.1142,0L10.88581,0C9.82686,0,8.95145,0.825431,8.88926,1.88256L7.124556,31.8826Z" fill="#94BFFF" fill-opacity="1"/></g><g><path d="M0,27C0,28.1046,0.895431,29,2,29L15.3846,29L30,29C31.1046,29,32,28.1046,32,27L32,7C32,5.895431,31.1046,5,30,5L2,5C0.895431,5,0,5.895431,0,7L0,27Z" fill="#3563EF" fill-opacity="1"/></g><g clip-path="url(#master_svg0_3_0762)"><g><path d="M11.01844,11.188068L11.02589,11.195507L21.098100000000002,21.8801C21.3407,22.1333,21.344,22.5472,21.1053,22.8047C20.8666,23.0621,20.476399999999998,23.0655,20.2337,22.8123L20.226300000000002,22.8049L10.15411,12.1203C9.911312,11.867105,9.907976,11.453062,10.14666,11.195506C10.38533,10.9379499,10.77564,10.9344111,11.01844,11.187602L11.01844,11.188068ZM16.00325,19.59765C16.29954,19.59765,16.64054,19.698079999999997,17.026690000000002,19.89801L17.698169999999998,20.61078L16.07645,22.3697L16.07513,22.3711C16.03592,22.412,15.97327,22.4128,15.933119999999999,22.372999999999998L15.93005,22.3697L14.23076,20.52616C14.18607,20.47782,14.19341,20.39839,14.2461,20.36017C14.946069999999999,19.851979999999998,15.53208,19.59765,16.00369,19.59765L16.00325,19.59765ZM20.1128,17.53466L20.1369,17.55884C20.553800000000003,17.89092,20.6096,18.5321,20.256999999999998,18.93952C19.904400000000003,19.34693,19.2975,19.34272,18.94996,18.93045C18.737389999999998,18.72234,18.50552,18.53759,18.25788,18.37902L15.84722,15.82178C17.42526,15.78061,18.956,16.39529,20.1128,17.53466ZM13.6522,16.31835L15.061340000000001,17.81317C14.29791,17.98931,13.59365,18.38133,13.02323,18.94765C12.67774,19.33986,12.092649999999999,19.34388,11.7424,18.95644C11.39216,18.569,11.42044,17.94904,11.80432,17.59929L11.81001,17.59418L11.8179,17.58627C12.35231,17.04982,12.97373,16.620269999999998,13.6522,16.31835ZM11.00573,13.51143L12.30661,14.89095C11.66184,15.26173,11.06883,15.72586,10.54463,16.26999C10.53192,16.28348,10.51834,16.295569999999998,10.50563,16.30858L10.49949,16.315089999999998L10.49204,16.32207C10.13612,16.66999,9.583836,16.65433,9.245946,16.28673C8.927517,15.93431,8.9170345,15.38175,9.221839,15.016020000000001L9.230605,15.005320000000001L9.313883,14.918379999999999C9.826912,14.38431,10.39435,13.912420000000001,11.00573,13.51143ZM22.7137,14.93977L22.7128,14.94116C23.082900000000002,15.29964,23.0973,15.9128,22.7446,16.29042C22.3918,16.66805,21.8137,16.65834,21.4724,16.26906L21.4711,16.26999C19.5689,14.28079,16.83738,13.46654,14.236889999999999,14.11355L12.80452,12.59362C16.25779,11.285901,20.112099999999998,12.1987,22.7132,14.94023L22.7137,14.93977Z" fill="#FFFFFF" fill-opacity="1" style="mix-blend-mode:passthrough"/></g></g></g></svg>