<svg xmlns="http://www.w3.org/2000/svg" xmlns:xlink="http://www.w3.org/1999/xlink" fill="none" version="1.1" width="33" height="33" viewBox="0 0 33 33"><defs><clipPath id="master_svg0_3_03836"><rect x="5" y="8" width="16" height="16" rx="0"/></clipPath></defs><g><g><g><g><path d="M15,31C15,32.104600000000005,15.895431,33,17,33L23.65385,33L31,33C32.104600000000005,33,33,32.104600000000005,33,31L33,9C33,7.895431,32.104600000000005,7,31,7L17,7C15.895431,7,15,7.895431,15,9L15,31Z" fill="#94BFFF" fill-opacity="1"/></g><g><path d="M0,31C0,32.1046,0.895431,33,2,33L12.5,33L24,33C25.1046,33,26,32.1046,26,31L26,2C26,0.895431,25.1046,0,24,0L2,0C0.895431,0,0,0.895431,0,2L0,31Z" fill="#3563EF" fill-opacity="1"/></g></g></g><g clip-path="url(#master_svg0_3_03836)"><g><g><path d="M6.25,16.66650390625Q6.25,16.59263540625,6.264411,16.52018590625Q6.278822,16.44773690625,6.30709,16.37949090625Q6.335359,16.31124590625,6.376398,16.24982590625Q6.417437,16.188406906250002,6.46967,16.13617390625Q6.521903,16.08394090625,6.583322,16.042901906250002Q6.644742,16.00186290625,6.712987,15.97359390625Q6.781233,15.94532590625,6.853682,15.930914906249999Q6.9261315,15.91650390625,7,15.91650390625Q7.0738685,15.91650390625,7.146318,15.930914906249999Q7.218767,15.94532590625,7.287013,15.97359390625Q7.355258,16.00186290625,7.416678,16.042901906250002Q7.478097,16.08394090625,7.53033,16.13617390625Q7.582563,16.188406906250002,7.623602,16.24982590625Q7.664641,16.31124590625,7.69291,16.37949090625Q7.721178,16.44773690625,7.735589,16.52018590625Q7.75,16.59263540625,7.75,16.66650390625L7.75,21.99983390625Q7.75,22.07370390625,7.735589,22.14615390625Q7.721178,22.21860390625,7.69291,22.286853906250002Q7.664641,22.355093906249998,7.623602,22.41651390625Q7.582563,22.47793390625,7.53033,22.53016390625Q7.478097,22.58240390625,7.416678,22.62343390625Q7.355258,22.66447390625,7.287013,22.69274390625Q7.218767,22.72101390625,7.146318,22.73542390625Q7.0738685,22.74983390625,7,22.74983390625Q6.9261315,22.74983390625,6.853682,22.73542390625Q6.781233,22.72101390625,6.712987,22.69274390625Q6.644742,22.66447390625,6.583322,22.62343390625Q6.521903,22.58240390625,6.46967,22.53016390625Q6.417437,22.47793390625,6.376398,22.41651390625Q6.335359,22.355093906249998,6.30709,22.286853906250002Q6.278822,22.21860390625,6.264411,22.14615390625Q6.25,22.07370390625,6.25,21.99983390625L6.25,16.66650390625Z" fill-rule="evenodd" fill="#FFFFFF" fill-opacity="1"/></g><g><path d="M11.290700000000001,17.416025Q11.41667,17.227082,11.41667,17Q11.41667,16.9261315,11.40226,16.853682Q11.38784,16.781233,11.359580000000001,16.712987Q11.33131,16.644742,11.29027,16.583322Q11.24923,16.521903000000002,11.197,16.46967Q11.14476,16.417437,11.08334,16.376398000000002Q11.02192,16.335359,10.95368,16.30709Q10.88543,16.278822,10.81298,16.264411Q10.74053,16.25,10.66667,16.25Q10.57406,16.25,10.48424,16.272524Q10.39442,16.295048,10.31277,16.338744Q10.23113,16.38244,10.16256,16.444682Q10.094,16.506924,10.042629999999999,16.583975L10.0425,16.584173L8.93195,18.25L7,18.25Q6.9261315,18.25,6.853682,18.26441Q6.781233,18.27882,6.712987,18.30709Q6.644742,18.33536,6.583322,18.3764Q6.521903,18.41744,6.46967,18.46967Q6.417437,18.5219,6.376398,18.58332Q6.335359,18.64474,6.30709,18.71299Q6.278822,18.78123,6.264411,18.85368Q6.25,18.92613,6.25,19Q6.25,19.07387,6.264411,19.14632Q6.278822,19.21877,6.30709,19.28701Q6.335359,19.35526,6.376398,19.41668Q6.417437,19.4781,6.46967,19.53033Q6.521903,19.58256,6.583322,19.6236Q6.644742,19.66464,6.712987,19.69291Q6.781233,19.72118,6.853682,19.735590000000002Q6.9261315,19.75,7,19.75L9.33333,19.75Q9.42594,19.75,9.51576,19.72748Q9.60558,19.70495,9.68723,19.66126Q9.76887,19.61756,9.83744,19.555320000000002Q9.906,19.49308,9.957370000000001,19.41603L11.290569999999999,17.416223L11.290700000000001,17.416025L11.290700000000001,17.416025Z" fill-rule="evenodd" fill="#FFFFFF" fill-opacity="1"/></g><g><path d="M7.74921591796875,14.04246590625L16.35430091796875,19.77918390625L19.280690917968748,18.02338390625Q19.45879091796875,17.91650390625,19.66649091796875,17.91650390625Q19.74039091796875,17.91650390625,19.81289091796875,17.930913906249998Q19.88529091796875,17.94532390625,19.95349091796875,17.97359390625Q20.02179091796875,18.00186390625,20.08319091796875,18.04290390625Q20.14459091796875,18.08394390625,20.19689091796875,18.13617390625Q20.24909091796875,18.18840390625,20.290090917968747,18.24982390625Q20.331190917968748,18.31124390625,20.35939091796875,18.37949390625Q20.38769091796875,18.44773390625,20.40209091796875,18.52018390625Q20.41649091796875,18.59263390625,20.41649091796875,18.66650390625Q20.41649091796875,18.76364390625,20.39179091796875,18.85757390625Q20.36699091796875,18.95150390625,20.31919091796875,19.03603390625Q20.27129091796875,19.12055390625,20.20349091796875,19.190103906250002Q20.135690917968752,19.25965390625,20.05239091796875,19.30962390625L20.051590917968753,19.31007390625L16.89993091796875,21.20109390625Q16.312140917968748,21.55380390625,15.74171091796875,21.17357390625L6.91716591796875,15.29054190625Q6.84011491796875,15.23917490625,6.77787291796875,15.17060890625Q6.71563091796875,15.10204290625,6.67193491796875,15.02039690625Q6.6282389179687495,14.93875090625,6.60571491796875,14.84892890625Q6.58319091796875,14.75910710625,6.58319091796875,14.66650390625Q6.58319091796875,14.59263540625,6.59760191796875,14.52018590625Q6.61201291796875,14.44773690625,6.64028091796875,14.37949090625Q6.66854991796875,14.31124590625,6.70958891796875,14.24982590625Q6.75062791796875,14.18840690625,6.80286091796875,14.13617390625Q6.85509391796875,14.08394090625,6.91651291796875,14.04290190625Q6.97793291796875,14.00186290625,7.04617791796875,13.97359390625Q7.11442391796875,13.94532590625,7.18687291796875,13.930914906249999Q7.25932241796875,13.91650390625,7.33319091796875,13.91650390625Q7.56027291796875,13.91650390625,7.74921591796875,14.04246590625Z" fill-rule="evenodd" fill="#FFFFFF" fill-opacity="1"/></g><g><path d="M7.3593805,12.239377031250001C7.1776636,12.11824703125,7.1595936,11.85797703125,7.3228265,11.71287703125L9.8093375,9.50265563125C9.9218675,9.40261893125,10.087507500000001,9.39045223125,10.2134675,9.47297223125L19.2349375,15.383577031249999C19.437337499999998,15.51623703125,19.4354375,15.81367703125,19.2312375,15.94360703125L16.1832375,17.88324703125C16.0718675,17.95410703125,15.9292075,17.95257703125,15.8193675,17.87937703125L7.3593805,12.239377031250001Z" fill="#FFFFFF" fill-opacity="1"/><path d="M6.9433545,12.86341703125L15.4033475,18.503417031250002L15.4034275,18.50346703125Q15.9905975,18.89479703125,16.5858975,18.51598703125L19.6338375,16.57637703125Q20.1316375,16.259617031250002,20.135537499999998,15.66957703125Q20.1394375,15.07960703125,19.645937500000002,14.756227031249999L10.6244575,8.84560403125Q9.9307975,8.39118703125,9.3110675,8.94209703125L6.8245465,11.15232703125Q6.4266775,11.50599703125,6.4635485,12.03705703125Q6.5004205,12.56814703125,6.9433545,12.86341703125ZM16.0095575,17.104777031250002L8.2245775,11.91478703125L10.0692275,10.27510503125L18.2841375,15.65729703125L16.0095575,17.104777031250002Z" fill-rule="evenodd" fill="#FFFFFF" fill-opacity="1"/></g></g></g></g></svg>