<svg xmlns="http://www.w3.org/2000/svg" xmlns:xlink="http://www.w3.org/1999/xlink" fill="none" version="1.1" width="32" height="32" viewBox="0 0 32 32"><defs><clipPath id="master_svg0_82_18209"><rect x="4" y="9" width="16" height="16" rx="0"/></clipPath></defs><g><g><g><g><g><path d="M14,30C14,31.1046,14.895431,32,16,32L22.65385,32L30,32C31.1046,32,32,31.1046,32,30L32,8C32,6.895431,31.1046,6,30,6L16,6C14.895431,6,14,6.895431,14,8L14,30Z" fill="#94BFFF" fill-opacity="1"/></g><g><path d="M0,30C0,31.1046,0.895431,32,2,32L12.5,32L24,32C25.1046,32,26,31.1046,26,30L26,2C26,0.895431,25.1046,0,24,0L2,0C0.895431,0,0,0.895431,0,2L0,30Z" fill="#3563EF" fill-opacity="1"/></g></g></g></g><g><g clip-path="url(#master_svg0_82_18209)"><g><path d="M16.29266223754883,21.23572421875C16.81246223754883,21.23572421875,17.233862237548827,21.65712421875,17.233862237548827,22.176924218750003C17.233862237548827,22.69672421875,16.81246223754883,23.118124218749998,16.29266223754883,23.118124218749998L7.822112237548828,23.118124218749998C7.302322237548828,23.118124218749998,6.880942237548828,22.69672421875,6.880942237548828,22.176924218750003C6.880942237548828,21.65712421875,7.302322237548828,21.23572421875,7.822112237548828,21.23572421875L16.29266223754883,21.23572421875ZM18.117662237548828,10.88279479975C18.37736223754883,10.88279479975,18.58826223754883,11.07432421875,18.58826223754883,11.31103021875L18.58826223754883,19.86632421875C18.58826223754883,20.10303421875,18.37736223754883,20.29455421875,18.117662237548828,20.29455421875L5.882350237548828,20.29455421875C5.622586237548828,20.29455421875,5.411762237548828,20.10303421875,5.411762237548828,19.86632421875L5.411762237548828,11.31150121875C5.411762237548828,11.07385321875,5.622586237548828,10.88232421875,5.882350237548828,10.88232421875L18.117662237548828,10.88232421875L18.117662237548828,10.88279479975ZM15.935962237548829,12.90256421875C15.752262237548829,12.71885421875,15.454362237548828,12.71885421875,15.270592237548827,12.90256421875L11.213172237548829,16.95950421875L9.509642237548828,15.25550421875C9.325892237548828,15.07162421875,9.027882237548829,15.07151421875,8.844002237548828,15.25526421875C8.660122237548828,15.43901421875,8.660012237548829,15.73703421875,8.843762237548829,15.92091421875L10.873882237548827,17.95103421875C10.958582237548828,18.03573421875,11.067762237548827,18.08138421875,11.178822237548829,18.08797421875L11.248002237548828,18.08797421875C11.36302223754883,18.08135421875,11.471582237548828,18.032604218750002,11.552942237548828,17.95103421875L15.935962237548829,13.567974218749999C16.11966223754883,13.38420421875,16.11966223754883,13.08632421875,15.935962237548829,12.90256421875Z" fill="#FFFFFF" fill-opacity="1" style="mix-blend-mode:passthrough"/></g></g></g></g></svg>