<svg xmlns="http://www.w3.org/2000/svg" xmlns:xlink="http://www.w3.org/1999/xlink" fill="none" version="1.1" width="33" height="33" viewBox="0 0 33 33"><defs><clipPath id="master_svg0_3_0746"><rect x="5" y="5" width="16" height="16" rx="0"/></clipPath></defs><g><g><path d="M13,23.0625C13,24.473,14.42075,25.4403,15.73305,24.9233L23,22.0606L30.267,24.9233C31.5793,25.4403,33,24.473,33,23.0625L33,2C33,0.895431,32.104600000000005,0,31,0L15,0C13.895431,0,13,0.895431,13,2L13,23.0625Z" fill="#94BFFF" fill-opacity="1"/></g><g><path d="M0,30.0879C0,31.4915,1.40795,32.4585,2.71796,31.9546L13,28L23.282,31.9546C24.592,32.4585,26,31.4915,26,30.0879L26,2C26,0.895431,25.1046,0,24,0L2,0C0.895431,0,0,0.895431,0,2L0,30.0879Z" fill="#3563EF" fill-opacity="1"/></g><g><g clip-path="url(#master_svg0_3_0746)"><g><path d="M6.920654046875,7.375L19.225348046875,7.375C19.710948046875,7.375,20.104248046875,7.76875,20.104248046875,8.253906L20.104248046875,10.822659999999999C20.104248046875,11.30828,19.710448046875,11.70203,19.225348046875,11.70203L6.920654046875,11.70203C6.435248046875,11.70203,6.041748046875,11.308530000000001,6.041748046875,10.823129999999999L6.041748046875,8.253906C6.041748046875,7.768281,6.435498046875,7.375,6.920654046875,7.375ZM8.232218046875,9.10563C7.993268046875,9.10563,7.799558046875,9.29933,7.799558046875,9.53828C7.799558046875,9.77723,7.993268046875,9.97094,8.232218046875,9.97094L10.882528046874999,9.97094C11.121478046875,9.97094,11.315188046875,9.77723,11.315188046875,9.53828C11.315188046875,9.29933,11.121478046875,9.10563,10.882528046874999,9.10563L8.232218046875,9.10563ZM6.920654046875,14.29844L19.225348046875,14.29844C19.710948046875,14.29844,20.104248046875,14.69219,20.104248046875,15.177340000000001L20.104248046875,17.7466C20.104248046875,18.2317,19.710448046875,18.625,19.225348046875,18.625L6.920654046875,18.625C6.435248046875,18.625,6.041748046875,18.2315,6.041748046875,17.7461L6.041748046875,15.177340000000001C6.041748046875,14.69172,6.435498046875,14.29797,6.920654046875,14.29797L6.920654046875,14.29844ZM8.232218046875,16.02953C7.993268046875,16.02953,7.799558046875,16.22324,7.799558046875,16.46219C7.799558046875,16.701140000000002,7.993268046875,16.894840000000002,8.232218046875,16.894840000000002L10.882528046874999,16.894840000000002C11.121478046875,16.894840000000002,11.315188046875,16.701140000000002,11.315188046875,16.46219C11.315188046875,16.22324,11.121478046875,16.02953,10.882528046874999,16.02953L8.232218046875,16.02953Z" fill="#FFFFFF" fill-opacity="1" style="mix-blend-mode:passthrough"/></g></g></g></g></svg>