<svg xmlns="http://www.w3.org/2000/svg" xmlns:xlink="http://www.w3.org/1999/xlink" fill="none" version="1.1" width="12.208740234375" height="107.06982421875" viewBox="0 0 12.208740234375 107.06982421875"><g><g transform="matrix(0,1,-1,0,8.65110468864441,-3.5683786869049072)"><path d="M110.63774168777466,3.541363000869751L6.109741687774658,3.541363000869751L6.109741687774658,1.541363000869751L110.63774168777466,1.541363000869751L110.63774168777466,3.541363000869751Z" fill-rule="evenodd" fill="#FFFFFF" fill-opacity="1"/></g><g><path d="M0,11.8341C0,12.1893,0.188407,12.5179,0.49497,12.6972L5.59936,15.684C5.91131,15.8665,6.29748,15.8665,6.60942,15.684L11.7138,12.6972C12.0204,12.5179,12.2088,12.1893,12.2088,11.8341L12.2088,1C12.2088,0.447715,11.7611,0,11.2088,0L1,0C0.447715,0,0,0.447715,0,1L0,11.8341Z" fill="#FFFFFF" fill-opacity="1"/></g></g></svg>