<svg xmlns="http://www.w3.org/2000/svg" xmlns:xlink="http://www.w3.org/1999/xlink" fill="none" version="1.1" width="59.000244140625" height="64.5162353515625" viewBox="0 0 59.000244140625 64.5162353515625"><defs><filter id="master_svg0_82_20603" filterUnits="objectBoundingBox" color-interpolation-filters="sRGB" x="-0.3" y="-0.21739130434782608" width="1.6" height="1.5217391304347827"><feFlood flood-opacity="0" result="BackgroundImageFix"/><feColorMatrix in="SourceAlpha" type="matrix" values="0 0 0 0 0 0 0 0 0 0 0 0 0 0 0 0 0 0 127 0"/><feOffset dy="2" dx="0"/><feGaussianBlur stdDeviation="3"/><feColorMatrix type="matrix" values="0 0 0 0 0.20000000298023224 0 0 0 0 0.20000000298023224 0 0 0 0 0.20000000298023224 0 0 0 0.15000000596046448 0"/><feBlend mode="normal" in2="BackgroundImageFix" result="effect1_dropShadow"/><feBlend mode="normal" in="SourceGraphic" in2="effect1_dropShadow" result="shape"/></filter><clipPath id="master_svg1_82_18217"><rect x="17.5001220703125" y="15.5" width="24" height="24" rx="0"/></clipPath></defs><g><g><g><g><g><g><g filter="url(#master_svg0_82_20603)"><path d="M29.5001220703125,7.5C18.344312070312498,7.609545,9.3901400703125,16.712809999999998,9.5011436503125,27.832C9.4901696203125,33.2017,11.594932070312499,38.361000000000004,15.3623820703125,42.1993L28.2514220703125,52.5018C28.9815220703125,53.0855,30.0187220703125,53.0855,30.7488220703125,52.5018L43.6378220703125,42.1993C47.4053220703125,38.361000000000004,49.5101220703125,33.2017,49.4991220703125,27.832C49.6101220703125,16.71282,40.6559220703125,7.609548,29.5001220703125,7.5Z" fill="#FFFFFF" fill-opacity="1"/><path d="M43.9947220703125,42.5496Q50.0146220703125,36.416399999999996,49.9991220703125,27.837L49.9991220703125,27.8337L49.9991220703125,27.831Q50.0823220703125,19.2879,44.0811220703125,13.18677Q38.0785220703125,7.084218,29.5050220703125,7.000024Q20.921722070312498,7.084211,14.9191120703125,13.18676Q8.9158430703125,19.29,9.0011680703125,27.837Q8.9836020703125,36.4143,15.0055520703125,42.5496L15.0266620703125,42.5711L27.9392220703125,52.8924Q29.5001220703125,54.1401,31.0610220703125,52.8924L43.9736220703125,42.5711L43.9947220703125,42.5496ZM43.3682220703125,13.888010000000001Q49.0803220703125,19.6953,48.9991220703125,27.827L48.9991220703125,27.833Q49.0158220703125,35.9914,43.3020220703125,41.8277L30.4367220703125,52.1113Q29.5001220703125,52.8599,28.5635220703125,52.1113L15.6982320703125,41.8277Q9.9844690703125,35.9914,10.0011180703125,27.827Q9.9199420703125,19.6952,15.632042070312501,13.888010000000001Q21.3448220703125,8.080105,29.4952220703125,7.999976Q37.6554220703125,8.080109,43.3682220703125,13.888010000000001Z" fill-rule="evenodd" fill="#FFFFFF" fill-opacity="1"/></g><g><g><ellipse cx="29.5001220703125" cy="27.5" rx="18" ry="18" fill="#3563EF" fill-opacity="1"/></g></g></g></g></g></g></g><g><g clip-path="url(#master_svg1_82_18217)"><g><path d="M39.086116015624995,37.5045C38.522216015625,37.913799999999995,37.734516015625005,38.275,36.742716015625,38.577600000000004C34.795316015625,39.1721,32.221316015625,39.5,29.492816015625,39.5C26.764206015625,39.5,24.188926015625,39.1721,22.242796015625,38.577600000000004C21.253736015625,38.275,20.463296015625,37.913799999999995,19.899446015625,37.5045C19.408921015625,37.15,18.826416015625,36.556799999999996,18.826416015625,35.7517C18.826416015625,34.9439,19.408921015625,34.3508,19.899446015625,34.0002C20.463296015625,33.589600000000004,21.251076015625,33.2271,22.242796015625,32.925799999999995C22.802646015625,32.7525,23.415806015625,32.604600000000005,24.067626015625,32.479299999999995C24.505186015625,32.3885,24.916586015625,32.7202,24.920716015625,33.167100000000005C24.918766015625,33.5059,24.676606015624998,33.7956,24.343546015625,33.857600000000005C23.741046015625,33.9709,23.181206015625,34.1095,22.665346015625,34.2668C20.759216015625,34.8519,20.254016015624998,35.4931,20.254016015624998,35.7517C20.254016015624998,36.009,20.759216015625,36.647400000000005,22.665346015625,37.2339C24.480846015624998,37.7898,26.904166015625,38.0937,29.492816015625,38.0937C32.081416015625,38.0937,34.506016015625,37.7898,36.318916015625,37.2339C38.226316015625,36.647400000000005,38.730216015625004,36.0076,38.730216015625004,35.7517C38.730216015625004,35.4931,38.226316015625,34.8519,36.318916015625,34.2654C35.767316015625,34.0984,35.207116015625004,33.9613,34.640716015625,33.8549C34.308616015625,33.7924,34.067316015624996,33.5036,34.064816015625,33.165800000000004C34.064816015625,32.721900000000005,34.475416015625,32.3926,34.916616015624996,32.476600000000005C35.569716015625005,32.6032,36.182916015625,32.7525,36.742716015625,32.924499999999995C37.730516015625,33.2271,38.522316015625,33.587,39.086116015624995,33.9975C39.578016015624996,34.3508,40.160516015625,34.9439,40.160516015625,35.7517C40.160516015625,36.556799999999996,39.578016015624996,37.15,39.086116015624995,37.5045ZM35.431116015625,29.811999999999998L30.464516015625,34.784C29.928716015625,35.3228,29.056816015625,35.3228,28.521056015625,34.784L23.554436015625,29.811999999999998C22.763156015625,29.0206,22.139776015625,28.0776,21.721606015625,27.0395C21.317156015625,26.0368,21.109866015625002,24.965510000000002,21.111116015625,23.88434C21.111116015625,22.79397,21.316386015625,21.73294,21.721606015625,20.72655C22.138756015625,19.68792,22.762276015624998,18.74471,23.554436015625,17.95399C25.129886015625,16.380492,27.266136015625,15.49769695,29.492816015625,15.50000418066C30.585816015625,15.50000418066,31.649516015625,15.706613,32.657216015624996,16.111834C33.700916015625,16.53305,34.632716015625,17.15154,35.431116015625,17.95132C36.998116015625,19.52696,37.876716015625,21.65947,37.874416015625,23.88167C37.876716015625,26.1039,36.998116015625,28.2364,35.431116015625,29.811999999999998ZM33.521016015625,22.97392C33.478616015625,22.82311,33.352916015625,22.71038,33.198416015625,22.68467L30.897716015625,22.26079L29.856716015625,20.09339C29.790416015625,19.95509,29.651516015625,19.86627,29.498116015625,19.86412C29.344316015624997,19.86608,29.204916015625003,19.95488,29.138216015624998,20.09339L28.109166015625,22.26079L25.808476015625,22.698C25.647496015625002,22.71771,25.513776015624998,22.8315,25.468566015625,22.98725C25.421396015625,23.13897,25.461326015624998,23.30433,25.572536015625,23.4178L27.252076015625,25.03068L26.820196015625,27.369999999999997C26.794866015625,27.53,26.858846015624998,27.6899,26.981476015625,27.7819C27.106386015625,27.8707,27.270346015625,27.8825,27.406696015625002,27.8126L29.494116015625,26.7422L31.576216015625,27.8126C31.711416015624998,27.8898,31.879916015625,27.8777,32.002716015625,27.7819C32.128316015625,27.6843,32.189816015625,27.525399999999998,32.162716015625,27.3687L31.742816015625,25.03068L33.405016015625,23.40447C33.520816015625,23.29429,33.565516015625,23.12876,33.521016015625,22.97526L33.521016015625,22.97392Z" fill="#FFFFFF" fill-opacity="1" style="mix-blend-mode:passthrough"/></g></g></g></g></svg>