<svg xmlns="http://www.w3.org/2000/svg" xmlns:xlink="http://www.w3.org/1999/xlink" fill="none" version="1.1" width="59.00030517578125" height="64.5162353515625" viewBox="0 0 59.00030517578125 64.5162353515625"><defs><filter id="master_svg0_82_20008" filterUnits="objectBoundingBox" color-interpolation-filters="sRGB" x="-0.3" y="-0.21739130434782608" width="1.6" height="1.5217391304347827"><feFlood flood-opacity="0" result="BackgroundImageFix"/><feColorMatrix in="SourceAlpha" type="matrix" values="0 0 0 0 0 0 0 0 0 0 0 0 0 0 0 0 0 0 127 0"/><feOffset dy="2" dx="0"/><feGaussianBlur stdDeviation="3"/><feColorMatrix type="matrix" values="0 0 0 0 0.20000000298023224 0 0 0 0 0.20000000298023224 0 0 0 0 0.20000000298023224 0 0 0 0.15000000596046448 0"/><feBlend mode="normal" in2="BackgroundImageFix" result="effect1_dropShadow"/><feBlend mode="normal" in="SourceGraphic" in2="effect1_dropShadow" result="shape"/></filter><clipPath id="master_svg1_82_18166"><rect x="17.5001220703125" y="15.5" width="24" height="24" rx="0"/></clipPath></defs><g><g><g filter="url(#master_svg0_82_20008)"><path d="M29.5001220703125,7.5C18.344312070312498,7.609545,9.3901400703125,16.712809999999998,9.5011436503125,27.832C9.4901696203125,33.2017,11.594932070312499,38.361000000000004,15.3623820703125,42.1993L28.2514220703125,52.5018C28.9815220703125,53.0855,30.0187220703125,53.0855,30.7488220703125,52.5018L43.6378220703125,42.1993C47.4053220703125,38.361000000000004,49.5101220703125,33.2017,49.4991220703125,27.832C49.6101220703125,16.71282,40.6559220703125,7.609548,29.5001220703125,7.5Z" fill="#FFFFFF" fill-opacity="1"/><path d="M43.9947220703125,42.5496Q50.0146220703125,36.416399999999996,49.9991220703125,27.837L49.9991220703125,27.8337L49.9991220703125,27.831Q50.0823220703125,19.2879,44.0811220703125,13.18677Q38.0785220703125,7.084218,29.5050220703125,7.000024Q20.921722070312498,7.084211,14.9191120703125,13.18676Q8.9158430703125,19.29,9.0011680703125,27.837Q8.9836020703125,36.4143,15.0055520703125,42.5496L15.0266620703125,42.5711L27.9392220703125,52.8924Q29.5001220703125,54.1401,31.0610220703125,52.8924L43.9736220703125,42.5711L43.9947220703125,42.5496ZM43.3682220703125,13.888010000000001Q49.0803220703125,19.6953,48.9991220703125,27.827L48.9991220703125,27.833Q49.0158220703125,35.9914,43.3020220703125,41.8277L30.4367220703125,52.1113Q29.5001220703125,52.8599,28.5635220703125,52.1113L15.6982320703125,41.8277Q9.9844690703125,35.9914,10.0011180703125,27.827Q9.9199420703125,19.6952,15.632042070312501,13.888010000000001Q21.3448220703125,8.080105,29.4952220703125,7.999976Q37.6554220703125,8.080109,43.3682220703125,13.888010000000001Z" fill-rule="evenodd" fill="#FFFFFF" fill-opacity="1"/></g><g><g><ellipse cx="29.5001220703125" cy="27.5" rx="18" ry="18" fill="#4DC591" fill-opacity="1"/></g></g></g><g><g clip-path="url(#master_svg1_82_18166)"><g><path d="M36.46011596679688,28.9400244140625L36.46011596679688,29.3000244140625C36.34011596679687,33.7400244140625,33.34011596679687,37.2200244140625,29.620115966796874,37.2200244140625C25.780115966796874,37.2200244140625,22.660115966796873,33.5000244140625,22.660115966796873,28.9400244140625L36.46011596679688,28.9400244140625ZM26.140115966796877,18.6200244140625L26.140115966796877,24.0200244140625C26.140115966796877,24.3800244140625,26.500115966796876,24.7400244140625,26.860115966796876,24.7400244140625L32.38011596679688,24.7400244140625C32.74011596679688,24.7400244140625,33.10011596679688,24.3800244140625,33.10011596679688,24.0200244140625L33.10011596679688,18.6200244140625C35.98011596679687,19.9400244140625,37.78011596679687,22.7000244140625,37.900115966796875,25.8200244140625L37.900115966796875,26.1800244140625L38.620115966796874,26.1800244140625C38.98011596679687,26.1800244140625,39.34011596679687,26.5400244140625,39.34011596679687,26.9000244140625C39.34011596679687,27.2600244140625,38.98011596679687,27.6200244140625,38.620115966796874,27.6200244140625L20.620115966796874,27.6200244140625C20.260115966796874,27.6200244140625,19.900115966796875,27.2600244140625,19.900115966796875,26.9000244140625C19.900115966796875,26.5400244140625,20.260115966796874,26.1800244140625,20.620115966796874,26.1800244140625L21.340115966796876,26.1800244140625C21.220115966796875,22.9400244140625,23.140115966796877,19.9400244140625,26.140115966796877,18.6200244140625ZM29.500115966796876,17.9000244140625C30.220115966796875,17.9000244140625,30.940115966796874,18.0200244140625,31.540115966796876,18.1400244140625L31.540115966796876,23.4200244140625L27.340115966796876,23.4200244140625L27.340115966796876,18.1400244140625C28.180115966796876,18.0200244140625,28.900115966796875,17.9000244140625,29.500115966796876,17.9000244140625Z" fill="#FFFFFF" fill-opacity="1" style="mix-blend-mode:passthrough"/></g></g></g></g></svg>