<svg xmlns="http://www.w3.org/2000/svg" xmlns:xlink="http://www.w3.org/1999/xlink" fill="none" version="1.1" width="59.00030517578125" height="64.5162353515625" viewBox="0 0 59.00030517578125 64.5162353515625"><defs><filter id="master_svg0_82_19570" filterUnits="objectBoundingBox" color-interpolation-filters="sRGB" x="-0.3" y="-0.21739130434782608" width="1.6" height="1.5217391304347827"><feFlood flood-opacity="0" result="BackgroundImageFix"/><feColorMatrix in="SourceAlpha" type="matrix" values="0 0 0 0 0 0 0 0 0 0 0 0 0 0 0 0 0 0 127 0"/><feOffset dy="2" dx="0"/><feGaussianBlur stdDeviation="3"/><feColorMatrix type="matrix" values="0 0 0 0 0.20000000298023224 0 0 0 0 0.20000000298023224 0 0 0 0 0.20000000298023224 0 0 0 0.15000000596046448 0"/><feBlend mode="normal" in2="BackgroundImageFix" result="effect1_dropShadow"/><feBlend mode="normal" in="SourceGraphic" in2="effect1_dropShadow" result="shape"/></filter><clipPath id="master_svg1_82_19573"><rect x="17.5001220703125" y="15.5" width="24" height="24" rx="0"/></clipPath></defs><g><g filter="url(#master_svg0_82_19570)"><path d="M29.5001220703125,7.5C18.344312070312498,7.609545,9.3901400703125,16.712809999999998,9.5011436503125,27.832C9.4901696203125,33.2017,11.594932070312499,38.361000000000004,15.3623820703125,42.1993L28.2514220703125,52.5018C28.9815220703125,53.0855,30.0187220703125,53.0855,30.7488220703125,52.5018L43.6378220703125,42.1993C47.4053220703125,38.361000000000004,49.5101220703125,33.2017,49.4991220703125,27.832C49.6101220703125,16.71282,40.6559220703125,7.609548,29.5001220703125,7.5Z" fill="#FFFFFF" fill-opacity="1"/><path d="M43.9947220703125,42.5496Q50.0146220703125,36.416399999999996,49.9991220703125,27.837L49.9991220703125,27.8337L49.9991220703125,27.831Q50.0823220703125,19.2879,44.0811220703125,13.18677Q38.0785220703125,7.084218,29.5050220703125,7.000024Q20.921722070312498,7.084211,14.9191120703125,13.18676Q8.9158430703125,19.29,9.0011680703125,27.837Q8.9836020703125,36.4143,15.0055520703125,42.5496L15.0266620703125,42.5711L27.9392220703125,52.8924Q29.5001220703125,54.1401,31.0610220703125,52.8924L43.9736220703125,42.5711L43.9947220703125,42.5496ZM43.3682220703125,13.888010000000001Q49.0803220703125,19.6953,48.9991220703125,27.827L48.9991220703125,27.833Q49.0158220703125,35.9914,43.3020220703125,41.8277L30.4367220703125,52.1113Q29.5001220703125,52.8599,28.5635220703125,52.1113L15.6982320703125,41.8277Q9.9844690703125,35.9914,10.0011180703125,27.827Q9.9199420703125,19.6952,15.632042070312501,13.888010000000001Q21.3448220703125,8.080105,29.4952220703125,7.999976Q37.6554220703125,8.080109,43.3682220703125,13.888010000000001Z" fill-rule="evenodd" fill="#FFFFFF" fill-opacity="1"/></g><g><g><ellipse cx="29.5001220703125" cy="27.5" rx="18" ry="18" fill="#4DC591" fill-opacity="1"/></g><g clip-path="url(#master_svg1_82_19573)"><g><g><path d="M19.5001220703125,28.499755859375Q19.5001220703125,28.401264459375,19.5193370703125,28.304665859375Q19.538552070312498,28.208066859375,19.5762430703125,28.117072859375Q19.6139340703125,28.026077859375,19.6686520703125,27.944185859375Q19.7233710703125,27.862292859375,19.7930150703125,27.792648859375Q19.8626590703125,27.723004859375,19.9445520703125,27.668285859375Q20.0264440703125,27.613567859375,20.1174390703125,27.575876859375Q20.2084330703125,27.538185859374998,20.3050320703125,27.518970859375Q20.4016306703125,27.499755859375,20.5001220703125,27.499755859375Q20.5986134703125,27.499755859375,20.6952120703125,27.518970859375Q20.7918110703125,27.538185859374998,20.8828050703125,27.575876859375Q20.9738000703125,27.613567859375,21.0556920703125,27.668285859375Q21.1375850703125,27.723004859375,21.2072290703125,27.792648859375Q21.2768730703125,27.862292859375,21.3315920703125,27.944185859375Q21.3863100703125,28.026077859375,21.4240010703125,28.117072859375Q21.461692070312502,28.208066859375,21.4809070703125,28.304665859375Q21.5001220703125,28.401264459375,21.5001220703125,28.499755859375L21.5001220703125,36.499755859375Q21.5001220703125,36.598245859375,21.4809070703125,36.694845859375Q21.461692070312502,36.791445859375,21.4240010703125,36.882435859375Q21.3863100703125,36.973435859375,21.3315920703125,37.055325859375Q21.2768730703125,37.137215859375004,21.2072290703125,37.206865859375Q21.1375850703125,37.276505859375,21.0556920703125,37.331225859374996Q20.9738000703125,37.385945859375,20.8828050703125,37.423635859375Q20.7918110703125,37.461325859375,20.6952120703125,37.480535859374996Q20.5986134703125,37.499755859375,20.5001220703125,37.499755859375Q20.4016306703125,37.499755859375,20.3050320703125,37.480535859374996Q20.2084330703125,37.461325859375,20.1174390703125,37.423635859375Q20.0264440703125,37.385945859375,19.9445520703125,37.331225859374996Q19.8626590703125,37.276505859375,19.7930150703125,37.206865859375Q19.7233710703125,37.137215859375004,19.6686520703125,37.055325859375Q19.6139340703125,36.973435859375,19.5762430703125,36.882435859375Q19.538552070312498,36.791445859375,19.5193370703125,36.694845859375Q19.5001220703125,36.598245859375,19.5001220703125,36.499755859375L19.5001220703125,28.499755859375Z" fill-rule="evenodd" fill="#FFFFFF" fill-opacity="1"/></g><g><path d="M26.8321720703125,29.5547Q27.0001220703125,29.302776,27.0001220703125,29Q27.0001220703125,28.9015086,26.9809020703125,28.80491Q26.961692070312502,28.708311,26.9240020703125,28.617317Q26.8863120703125,28.526322,26.8315920703125,28.44443Q26.7768720703125,28.362537,26.7072320703125,28.292893Q26.6375820703125,28.223249,26.5556920703125,28.16853Q26.4738020703125,28.113812,26.3828020703125,28.076121Q26.2918120703125,28.038429999999998,26.1952120703125,28.019215Q26.098612070312498,28,26.0001220703125,28Q25.8766520703125,28,25.7568920703125,28.030032Q25.6371220703125,28.060065,25.5282620703125,28.118325Q25.4194020703125,28.176586,25.3279820703125,28.259576Q25.2365620703125,28.342566,25.1680720703125,28.4453L25.1679120703125,28.445534L23.4649420703125,31L20.5001220703125,31Q20.4016306703125,31,20.3050320703125,31.01921Q20.2084330703125,31.038429999999998,20.1174390703125,31.07612Q20.0264440703125,31.11381,19.9445520703125,31.16853Q19.8626590703125,31.22325,19.7930150703125,31.29289Q19.7233710703125,31.36254,19.6686520703125,31.44443Q19.6139340703125,31.52632,19.5762430703125,31.61732Q19.538552070312498,31.70831,19.5193370703125,31.80491Q19.5001220703125,31.901510000000002,19.5001220703125,32Q19.5001220703125,32.09849,19.5193370703125,32.19509Q19.538552070312498,32.29169,19.5762430703125,32.38268Q19.6139340703125,32.47368,19.6686520703125,32.55557Q19.7233710703125,32.63746,19.7930150703125,32.70711Q19.8626590703125,32.77675,19.9445520703125,32.83147Q20.0264440703125,32.88619,20.1174390703125,32.92388Q20.2084330703125,32.96157,20.3050320703125,32.98078Q20.4016306703125,33,20.5001220703125,33L24.0001220703125,33Q24.1235920703125,33,24.2433520703125,32.96997Q24.3631220703125,32.93993,24.4719820703125,32.88167Q24.5808420703125,32.82341,24.6722620703125,32.74042Q24.7636820703125,32.65743,24.8321720703125,32.5547L26.8320120703125,29.554934L26.8321720703125,29.5547Z" fill-rule="evenodd" fill="#FFFFFF" fill-opacity="1"/></g><g><path d="M21.55481796484375,24.667824859375L34.52803896484375,33.316665859375L38.98543896484375,30.642265859375Q39.22293896484375,30.499755859375,39.49993896484375,30.499755859375Q39.59843896484375,30.499755859375,39.69503896484375,30.518975859375Q39.79163896484375,30.538185859374998,39.88263896484375,30.575875859375Q39.97363896484375,30.613565859375,40.05553896484375,30.668285859375Q40.13743896484375,30.723005859375,40.20703896484375,30.792645859375Q40.27673896484375,30.862295859375,40.33143896484375,30.944185859375Q40.38613896484375,31.026075859375,40.42383896484375,31.117075859375Q40.461538964843754,31.208065859375,40.48073896484375,31.304665859375Q40.49993896484375,31.401265859375002,40.49993896484375,31.499755859375Q40.49993896484375,31.629275859375,40.46693896484375,31.754515859375Q40.43393896484375,31.879755859375,40.37013896484375,31.992455859375Q40.30633896484375,32.105155859375,40.21593896484375,32.197885859375Q40.12543896484375,32.290615859375,40.01443896484375,32.357255859375L40.01343896484375,32.357855859375L35.28573896484375,35.194455859375Q34.47183896484375,35.682855859374996,33.68203896484375,35.156345859375L20.44541696484375,26.331924859375L20.44523896484375,26.331805859375Q20.34250496484375,26.263316859375,20.25951496484375,26.171895859375Q20.17652496484375,26.080474859375,20.11826396484375,25.971613859375Q20.06000396484375,25.862752859375,20.02997096484375,25.742989859375Q19.99993896484375,25.623226859375,19.99993896484375,25.499755859375Q19.99993896484375,25.401264459375,20.01915396484375,25.304665859375Q20.038368964843748,25.208066859375,20.07605996484375,25.117072859375Q20.11375096484375,25.026077859375,20.16846896484375,24.944185859375Q20.22318796484375,24.862292859375,20.29283196484375,24.792648859375Q20.36247596484375,24.723004859375,20.44436896484375,24.668285859375Q20.52626096484375,24.613567859375,20.61725596484375,24.575876859375Q20.70824996484375,24.538185859374998,20.80484896484375,24.518970859375Q20.90144756484375,24.499755859375,20.99993896484375,24.499755859375Q21.30271496484375,24.499755859375,21.55463896484375,24.667705859375L21.55481796484375,24.667824859375Z" fill-rule="evenodd" fill="#FFFFFF" fill-opacity="1"/></g><g><path d="M21.0391923203125,21.859065546875C20.7666174203125,21.677365546875002,20.7395124203125,21.286965546875,20.9843623203125,21.069315546875L24.7141283203125,17.753983546875C24.8829283203125,17.603928346875,25.1313783203125,17.585678446875,25.3203283203125,17.709458446875L38.8525283203125,26.575365546875C39.156128320312504,26.774365546875,39.1532283203125,27.220515546875,38.8469283203125,27.415415546875L34.2749283203125,30.324885546875002C34.107928320312496,30.431185546875,33.8939283203125,30.428885546875,33.7292283203125,30.319085546875L21.0391923203125,21.859065546875Z" fill="#FFFFFF" fill-opacity="1"/><path d="M20.4844913203125,22.691115546875L33.1744283203125,31.151085546875002L33.1746283203125,31.151185546875Q33.987628320312496,31.692985546875,34.8118283203125,31.168485546875L39.3837283203125,28.259085546875Q40.0730283203125,27.820485546875,40.0784283203125,27.003535546875Q40.0838283203125,26.186655546875002,39.4005283203125,25.738905546875L25.8683083203125,16.872967546875Q24.9078483203125,16.243775546875,24.0497683203125,17.006572546875L20.3199893203125,20.321915546875Q19.7690883203125,20.811605546875,19.8201443203125,21.546925546875Q19.8711993203125,22.282285546875002,20.4844913203125,22.691115546875ZM34.0128283203125,29.306385546875L22.1328983203125,21.386345546875L25.0924383203125,18.755665546875L37.656728320312496,26.987475546875L34.0128283203125,29.306385546875Z" fill-rule="evenodd" fill="#FFFFFF" fill-opacity="1"/></g></g></g></g></g></svg>