<svg xmlns="http://www.w3.org/2000/svg" xmlns:xlink="http://www.w3.org/1999/xlink" fill="none" version="1.1" width="48" height="99" viewBox="0 0 48 99"><defs><clipPath id="master_svg0_102_13745"><rect x="12" y="32.2711181640625" width="24" height="24" rx="0"/></clipPath></defs><g><g><g><g clip-path="url(#master_svg0_102_13745)"><g><path d="M15.8542296484375,40.028525546875C15.8542296484375,42.269255546875,17.707679648437498,44.085615546875,19.9942296484375,44.085615546875C22.280779648437502,44.085615546875,24.1353396484375,42.269255546875,24.1353396484375,40.028525546875C24.1353396484375,37.787795546875,22.2818696484375,35.971435546875,19.9942296484375,35.971435546875C17.7076896484375,35.971435546875,15.8542296484375,37.787795546875,15.8542296484375,40.028525546875ZM25.459639648437502,42.095795546875C25.459639648437502,43.955795546875,26.9989396484375,45.463435546875004,28.8960396484375,45.463435546875004C30.7942396484375,45.463435546875004,32.3324396484375,43.955795546875,32.3324396484375,42.095795546875C32.3324396484375,40.235795546874996,30.7953396484375,38.728165546875,28.8960396484375,38.728165546875C26.9989396484375,38.728165546875,25.459639648437502,40.235795546874996,25.459639648437502,42.095795546875ZM13.0931396484375,50.677935546875L13.0931396484375,51.016135546875C13.0931396484375,52.199835546875,15.4876896484375,52.199835546875,18.4418696484375,52.199835546875L21.7418696484375,52.199835546875C21.6075796484375,51.889735546875,21.5406496484375,51.554735546875,21.5454996484375,51.216935546875L21.5454996484375,50.936535546875C21.5454996484375,48.868135546874996,22.6233196484375,47.050735546875,24.2487396484375,45.979435546874996C23.5145396484375,45.623885546875,22.7093396484375,45.438915546875,21.893499648437498,45.438345546875L18.4418696484375,45.438345546875C15.4876896484375,45.438345546875,13.0931396484375,47.783835546875,13.0931396484375,50.677935546875ZM23.1687396484375,50.936535546875L23.1687396484375,51.216935546875C23.1687396484375,52.198735546875,25.156439648437498,52.198735546875,27.6087396484375,52.198735546875L30.4735396484375,52.198735546875C32.9247396484375,52.198735546875,34.911339648437504,52.162735546875,34.911339648437504,51.216935546875L34.911339648437504,50.936535546875C34.911339648437504,48.534335546875,32.9247396484375,46.587035546875,30.4735396484375,46.587035546875L27.6087396484375,46.587035546875C25.156439648437498,46.587035546875,23.1687396484375,48.534335546875,23.1687396484375,50.936535546875Z" fill="#3563EF" fill-opacity="1"/></g></g></g><g><ellipse cx="24" cy="44.2711181640625" rx="17.25" ry="17.25" fill-opacity="0" stroke-opacity="1" stroke="#3563EF" fill="none" stroke-width="1.5"/></g><g><path d="M32.856700000000004,23.309743Q36.9388,25.03657,40.0867,28.18445Q43.235,31.33278,44.9619,35.4156Q46.75,39.6432,46.75,44.271100000000004Q46.75,44.345,46.7356,44.4174Q46.7212,44.4899,46.6929,44.558099999999996Q46.6646,44.626400000000004,46.6236,44.687799999999996Q46.5826,44.7492,46.5303,44.801500000000004Q46.4781,44.8537,46.4167,44.8947Q46.3553,44.9358,46.287,44.964Q46.2188,44.9923,46.1463,45.006699999999995Q46.0739,45.021100000000004,46,45.021100000000004Q45.9261,45.021100000000004,45.8537,45.006699999999995Q45.7812,44.9923,45.713,44.964Q45.6447,44.9358,45.5833,44.8947Q45.5219,44.8537,45.4697,44.801500000000004Q45.4174,44.7492,45.3764,44.687799999999996Q45.3354,44.626400000000004,45.3071,44.558099999999996Q45.2788,44.4899,45.2644,44.4174Q45.25,44.345,45.25,44.271100000000004Q45.25,39.9473,43.5804,35.9999Q41.9675,32.18656,39.026,29.24511Q36.0858,26.30486,32.2744,24.692078Q32.2733,24.691623,32.2722,24.691167L32.2712,24.690753Q32.169399999999996,24.647693,32.0844,24.577092Q31.9993,24.506491,31.9382,24.414353Q31.8772,24.322216,31.8453,24.216377Q31.8134,24.110539,31.8134,24Q31.8134,23.9261315,31.8278,23.853682Q31.8422,23.781233,31.8705,23.712987Q31.8987,23.644742,31.9398,23.583322Q31.9808,23.521903000000002,32.033100000000005,23.46967Q32.085300000000004,23.417437,32.146699999999996,23.376398000000002Q32.2081,23.335359,32.276399999999995,23.30709Q32.3446,23.278822,32.417100000000005,23.264411Q32.4895,23.25,32.5634,23.25Q32.7155,23.25,32.855599999999995,23.309247L32.8557,23.309288L32.856700000000004,23.309743ZM12.1194,26.64985Q12.1957,26.59834,12.2572,26.52992Q12.3188,26.46151,12.3619,26.38024Q12.4051,26.29898,12.4273,26.209690000000002Q12.4496,26.1204,12.4496,26.02839Q12.4496,25.95452,12.4352,25.88207Q12.4208,25.80962,12.3925,25.74137Q12.3642,25.67313,12.3232,25.61171Q12.2822,25.55029,12.2299,25.49806Q12.1777,25.44582,12.1163,25.40478Q12.0548,25.36374,11.9866,25.33548Q11.91836,25.30721,11.84591,25.2928Q11.77346,25.27839,11.69959,25.27839Q11.46999,25.27839,11.27974,25.40692Q9.46452,26.63326,7.91332,28.18445Q1.25,34.8478,1.25,44.271100000000004Q1.25,48.899100000000004,3.03812,53.1267Q3.89749,55.158500000000004,5.13579,56.9914Q5.1873000000000005,57.0676,5.25572,57.1292Q5.32413,57.1907,5.4054,57.2339Q5.4866600000000005,57.2771,5.575950000000001,57.2993Q5.66524,57.3215,5.75725,57.3215Q5.83112,57.3215,5.90357,57.3071Q5.97602,57.2927,6.04427,57.2644Q6.11251,57.2362,6.17393,57.1951Q6.23535,57.1541,6.28758,57.1019Q6.33982,57.0496,6.38086,56.9882Q6.4219,56.9268,6.45016,56.8586Q6.47843,56.7903,6.49284,56.7179Q6.50725,56.6454,6.50725,56.5715Q6.50725,56.3419,6.37872,56.1517Q5.22213,54.4397,4.41962,52.5424Q2.75,48.594899999999996,2.75,44.271100000000004Q2.75,35.4691,8.973980000000001,29.24511Q10.42283,27.79626,12.118,26.65082L12.1194,26.64985L12.1194,26.64985ZM44.9619,53.1267Q45.0211,52.986599999999996,45.0211,52.8345Q45.0211,52.7607,45.0067,52.688199999999995Q44.9923,52.6158,44.964,52.5475Q44.9358,52.479299999999995,44.8947,52.4178Q44.8537,52.3564,44.8015,52.3042Q44.7492,52.251999999999995,44.6878,52.210899999999995Q44.6264,52.1699,44.5581,52.1416Q44.4899,52.113299999999995,44.4174,52.0989Q44.345,52.0845,44.2711,52.0845Q44.1606,52.0845,44.0548,52.1164Q43.9489,52.1483,43.8568,52.2094Q43.7646,52.270399999999995,43.694,52.3555Q43.6234,52.4406,43.5804,52.5424Q41.9675,56.3557,39.026,59.2971Q32.802,65.52109999999999,24,65.52109999999999Q23.9261,65.52109999999999,23.8537,65.5355Q23.7812,65.54990000000001,23.713,65.57820000000001Q23.6447,65.6065,23.5833,65.64750000000001Q23.5219,65.68860000000001,23.4697,65.74080000000001Q23.4174,65.793,23.3764,65.8545Q23.3354,65.9159,23.3071,65.9841Q23.2788,66.0524,23.2644,66.1248Q23.25,66.1973,23.25,66.27109999999999Q23.25,66.345,23.2644,66.4174Q23.2788,66.4899,23.3071,66.5581Q23.3354,66.62639999999999,23.3764,66.68780000000001Q23.4174,66.7492,23.4697,66.8015Q23.5219,66.8537,23.5833,66.8947Q23.6447,66.9358,23.713,66.964Q23.7812,66.9923,23.8537,67.0067Q23.9261,67.02109999999999,24,67.02109999999999Q33.4234,67.02109999999999,40.0867,60.3578Q43.235,57.2095,44.9619,53.1267Z" fill-rule="evenodd" fill="#3563EF" fill-opacity="1"/></g><g><path d="M24.273881171875,92.016582Q25.244231171875,92.272909,26.000341171875,92.745134Q26.782141171875,93.2334,27.221051171875,93.88143Q27.699951171875,94.58861,27.699951171875,95.3773Q27.699951171875,95.42655,27.690351171875,95.47485Q27.680751171875002,95.52315,27.661851171875,95.56864Q27.643051171875,95.61414,27.615651171875,95.65509Q27.588351171875,95.69603,27.553551171875,95.73085Q27.518651171875,95.76568,27.477751171875,95.79304Q27.436751171875002,95.8204,27.391251171875,95.83924Q27.345751171875,95.85809,27.297451171875,95.86769Q27.249151171875,95.8773,27.199951171875,95.8773Q27.150701171875,95.8773,27.102401171875,95.86769Q27.054101171875,95.85809,27.008611171875,95.83924Q26.963111171875,95.8204,26.922161171875,95.79304Q26.881221171874998,95.76568,26.846401171875,95.73085Q26.811571171875002,95.69603,26.784211171875,95.65509Q26.756851171875,95.61414,26.738011171875,95.56864Q26.719161171875,95.52315,26.709561171875002,95.47485Q26.699951171875,95.42655,26.699951171875,95.3773Q26.699951171875,94.89537,26.393031171875002,94.44218Q26.072871171875,93.96943,25.470631171875,93.59331Q24.842701171875,93.201144,24.018481171875,92.983418Q23.938451171875002,92.962277,23.869501171875,92.916471Q23.800551171875,92.870665,23.750041171875,92.805083Q23.699531171875,92.7395,23.672851171875,92.661139Q23.646181171875,92.5827777,23.646181171875,92.5Q23.646181171875,92.4507543,23.655781171875,92.4024549Q23.665391171875,92.354155,23.684241171875,92.308658Q23.703081171875,92.263161,23.730441171875,92.222215Q23.757801171875002,92.181269,23.792621171875,92.146447Q23.827441171875,92.111625,23.868391171875,92.084265Q23.909341171875,92.056906,23.954831171875,92.03806Q24.000331171875,92.019215,24.048631171875,92.009607Q24.096931171875,92,24.146181171875,92Q24.211101171875,92,24.273881171875,92.016582ZM19.598771171875,93.248584Q19.666721171875,93.219914,19.723501171875,93.172849Q19.780281171875,93.125783,19.821051171875,93.064329Q19.861821171875,93.002875,19.883111171875,92.932267Q19.904401171875,92.861659,19.904401171875,92.787911Q19.904401171875,92.738665,19.894791171875,92.690366Q19.885191171875,92.642066,19.866341171875,92.596569Q19.847501171875,92.5510719,19.820141171875,92.5101256Q19.792781171875,92.4691793,19.757961171875,92.4343574Q19.723131171875,92.399535,19.682191171875,92.372176Q19.641241171875,92.344817,19.595741171874998,92.325971Q19.550251171875,92.307125,19.501951171875,92.297518Q19.453651171875,92.287911,19.404401171875,92.287911Q19.303241171875,92.287911,19.210031171875,92.327238Q18.774331171875,92.5110741,18.399561171875,92.745134Q16.699951171875,93.8066,16.699951171875,95.3773Q16.699951171875,96.16599,17.178882671875,96.87317Q17.400027171875,97.19971,17.714463171875,97.49038Q17.783756171875,97.55444,17.871631171875,97.58884Q17.959506171875,97.62323,18.053872171875,97.62323Q18.103118171875,97.62323,18.151418171875,97.61362Q18.199717171875,97.60402,18.245211171875,97.58517Q18.290711171875,97.56633,18.331661171874998,97.53897Q18.372601171875,97.51161,18.407421171875,97.47679Q18.442251171875,97.44196,18.469611171875002,97.40102Q18.496971171875,97.36007000000001,18.515811171875,97.31457Q18.534661171875,97.26908,18.544261171875,97.22078Q18.553871171875,97.17248000000001,18.553871171875,97.12323Q18.553871171875,97.01867,18.511971171875,96.92286Q18.470061171875,96.82706,18.393281171875,96.75608Q18.163426171875,96.54359,18.006869171875,96.31242Q17.699951171875,95.85923,17.699951171875,95.3773Q17.699951171875,94.36107,18.929281171875,93.59331Q19.236471171875,93.40145,19.598771171875,93.248584ZM26.685441171875,97.49039Q26.762221171874998,97.4194,26.804131171875,97.3236Q26.846031171874998,97.2278,26.846031171874998,97.12323Q26.846031171874998,97.07399,26.836421171875,97.02569Q26.826811171875,96.97739,26.807971171875,96.93189Q26.789121171875,96.88639,26.761761171875,96.84545Q26.734401171875,96.8045,26.699581171875,96.76968Q26.664761171875,96.73486,26.623811171874998,96.7075Q26.582871171875,96.68014,26.537371171875,96.66129Q26.491871171874998,96.64245,26.443571171875,96.63284Q26.395271171875002,96.62323,26.346031171874998,96.62323Q26.251661171875,96.62323,26.163791171874998,96.65763Q26.075911171875,96.69202,26.006621171875,96.75608L26.006011171875002,96.75665Q25.771261171875,96.97354,25.470631171875,97.1613Q24.127711171875,98,22.199951171875,98Q22.150701171875,98,22.102401171875,98.00961Q22.054101171875,98.01921,22.008611171875,98.03806Q21.963111171875,98.05691,21.922161171875,98.08426Q21.881221171874998,98.11162,21.846401171875,98.14645Q21.811571171875002,98.18127,21.784211171875,98.22221Q21.756851171875,98.26316,21.738011171875,98.30866Q21.719161171875,98.35415,21.709561171875002,98.40245Q21.699951171875,98.45075,21.699951171875,98.5Q21.699951171875,98.54925,21.709561171875002,98.59755Q21.719161171875,98.64583999999999,21.738011171875,98.69134Q21.756851171875,98.73684,21.784211171875,98.77778Q21.811571171875002,98.81873,21.846401171875,98.85355Q21.881221171874998,98.88837,21.922161171875,98.91573Q21.963111171875,98.94309,22.008611171875,98.96194Q22.054101171875,98.98078,22.102401171875,98.99039Q22.150701171875,99,22.199951171875,99Q24.414331171875,99,26.000341171875,98.00947Q26.381281171875003,97.77156,26.685441171875,97.49039Z" fill-rule="evenodd" fill="#3563EF" fill-opacity="1"/></g><g transform="matrix(0,1,-1,0,93.2711181640625,47.2711181640625)"><path d="M24,70.2711181640625L23,70.2711181640625L23,71.7711181640625L24,71.7711181640625L24,70.2711181640625ZM28,70.2711181640625L26,70.2711181640625L26,71.7711181640625L28,71.7711181640625L28,70.2711181640625ZM32,70.2711181640625L30,70.2711181640625L30,71.7711181640625L32,71.7711181640625L32,70.2711181640625ZM36,70.2711181640625L34,70.2711181640625L34,71.7711181640625L36,71.7711181640625L36,70.2711181640625ZM40,70.2711181640625L38,70.2711181640625L38,71.7711181640625L40,71.7711181640625L40,70.2711181640625ZM44,70.2711181640625L42,70.2711181640625L42,71.7711181640625L44,71.7711181640625L44,70.2711181640625ZM47,70.2711181640625L46,70.2711181640625L46,71.7711181640625L47,71.7711181640625L47,70.2711181640625Z" fill-rule="evenodd" fill="#3563EF" fill-opacity="1"/></g><g><ellipse cx="22.25" cy="95.25" rx="1.25" ry="1.25" fill="#3563EF" fill-opacity="1"/></g></g><g><path d="M2.608,3.792L2.608,11.008C1.968,11.184,1.312,11.36,0.64,11.52L1.088,13.024C2.912,12.528,4.528,11.984,5.936,11.408L5.936,9.888C5.36,10.112,4.768,10.336,4.144,10.544L4.144,3.792L5.872,3.792L5.872,2.32L0.832,2.32L0.832,3.792L2.608,3.792ZM6.384,1.44L6.384,2.912L10.128,2.912C10.064,3.376,9.968,3.824,9.84,4.272L6.992,4.272L6.992,12.016L8.448,12.016L8.448,5.68L13.232,5.68L13.232,12.016L14.704,12.016L14.704,4.272L11.344,4.272C11.44,3.84,11.536,3.392,11.616,2.912L15.344,2.912L15.344,1.44L6.384,1.44ZM12.32,11.92L11.312,12.896C12.656,13.92,13.696,14.864,14.432,15.744L15.52,14.656C14.656,13.76,13.6,12.848,12.32,11.92ZM10.032,6.48L10.032,9.28C9.968,10.592,9.6,11.664,8.96,12.496C8.288,13.264,7.008,13.904,5.152,14.416L5.984,15.712C7.904,15.168,9.28,14.432,10.128,13.472C10.992,12.416,11.472,11.008,11.552,9.28L11.552,6.48L10.032,6.48ZM29.584,1.536L18.432,1.536L18.432,15.664L19.984,15.664L19.984,14.688L28.048,14.688L28.048,15.632L29.584,15.632L29.584,1.536ZM19.984,13.216L19.984,10.56L28.048,10.56L28.048,13.216L19.984,13.216ZM19.984,9.184L19.984,6.72L28.048,6.72L28.048,9.184L19.984,9.184ZM19.984,5.312L19.984,3.008L28.048,3.008L28.048,5.312L19.984,5.312ZM35.248,4.16L33.872,4.656C34.208,5.296,34.496,5.984,34.752,6.704L32.768,6.704L32.768,8.16L40.816,8.16L40.816,6.704L39.088,6.704C39.424,6.064,39.728,5.344,40.016,4.544L38.624,4.064C38.336,4.992,37.984,5.872,37.6,6.704L36.176,6.704C35.888,5.712,35.584,4.864,35.248,4.16ZM41.44,1.424L41.44,15.616L42.912,15.616L42.912,2.832L45.312,2.832C44.8,4.496,44.288,5.936,43.76,7.136C45.008,8.624,45.648,9.824,45.664,10.736C45.648,11.296,45.6,11.664,45.504,11.824C45.408,12.016,45.168,12.112,44.816,12.128C44.416,12.128,43.936,12.096,43.36,12.032L43.84,13.632C45.184,13.632,46.096,13.408,46.544,12.992C46.96,12.576,47.184,11.824,47.184,10.736C47.168,9.808,46.56,8.608,45.376,7.136C45.952,5.728,46.496,4.208,46.992,2.576L46.992,1.424L41.44,1.424ZM33.072,2.32L33.072,3.776L40.672,3.776L40.672,2.32L37.504,2.32C37.376,1.76,37.232,1.248,37.088,0.783999L35.536,1.04C35.696,1.424,35.856,1.856,36.016,2.32L33.072,2.32ZM40.176,9.328L33.616,9.328L33.616,15.6L35.104,15.6L35.104,14.768L38.656,14.768L38.656,15.6L40.176,15.6L40.176,9.328ZM35.104,13.328L35.104,10.768L38.656,10.768L38.656,13.328L35.104,13.328Z" fill="#3563EF" fill-opacity="1"/></g></g></svg>