<svg xmlns="http://www.w3.org/2000/svg" xmlns:xlink="http://www.w3.org/1999/xlink" fill="none" version="1.1" width="45" height="48.513671875" viewBox="0 0 45 48.513671875"><defs><filter id="master_svg0_1_18362" filterUnits="objectBoundingBox" color-interpolation-filters="sRGB" x="-12" y="-10" width="50" height="54"><feFlood flood-opacity="0" result="BackgroundImageFix"/><feColorMatrix in="SourceAlpha" type="matrix" values="0 0 0 0 0 0 0 0 0 0 0 0 0 0 0 0 0 0 127 0"/><feOffset dy="2" dx="0"/><feGaussianBlur stdDeviation="3"/><feColorMatrix type="matrix" values="0 0 0 0 0.20000000298023224 0 0 0 0 0.20000000298023224 0 0 0 0 0.20000000298023224 0 0 0 0.15000000596046448 0"/><feBlend mode="normal" in2="BackgroundImageFix" result="effect1_dropShadow"/><feBlend mode="normal" in="SourceGraphic" in2="effect1_dropShadow" result="shape"/></filter></defs><g><g filter="url(#master_svg0_1_18362)"><path d="M22.5,7.5C15.248719999999999,7.5714421,9.4285119,13.50836,9.500664029,20.759999999999998C9.49353091,24.262,10.86163,27.6267,13.31047,30.13L21.2487,36.4965C21.9799,37.0828,23.0201,37.0828,23.7513,36.4965L31.6895,30.13C34.138400000000004,27.6267,35.5065,24.262,35.499300000000005,20.759999999999998C35.5715,13.50836,29.7513,7.5714442,22.5,7.5Z" fill="#FFFFFF" fill-opacity="1"/><path d="M32.047,30.4796Q36.0098,26.4286,35.999300000000005,20.7619Q36.0544,15.11804,32.103,11.0874Q28.1505,7.055646,22.5049,7.000024Q16.84949,7.055646,12.897,11.0874Q8.944514,15.11914,9.000688,20.765Q8.989119,26.4276,12.953050000000001,30.4796L12.97413,30.5012L20.9359,36.8865Q22.5,38.1409,24.0641,36.8865L32.0259,30.5012L32.047,30.4796ZM31.3889,11.78745Q35.0514,15.5234,34.9994,20.755000000000003L34.999300000000005,20.761Q35.010000000000005,26.0057,31.353,29.759L23.438499999999998,36.1064Q22.5,36.8591,21.561500000000002,36.1064L13.64701,29.759Q9.98998,26.0057,10.000639,20.755000000000003Q9.948586,15.5234,13.61109,11.78745Q17.27358,8.051517,22.4951,7.999976Q27.7264,8.051519,31.3889,11.78745Z" fill-rule="evenodd" fill="#FFFFFF" fill-opacity="1"/></g><g><ellipse cx="22.5" cy="20.5" rx="12" ry="12" fill="#FF5245" fill-opacity="1"/></g><g><path d="M29.2136,23.47353L23.712580000000003,14.330466C23.42958,13.642053,22.65626,13.31748,21.98279,13.604447C21.65875,13.738738,21.40063,14.00016,21.26594,14.330466L15.811648,23.46555C15.102591,24.5905,15.64802,25.5,16.99601,25.5L27.990299999999998,25.5C29.3383,25.5,29.883699999999997,24.5905,29.2136,23.47353ZM21.717869999999998,16.93137C21.92574,16.72476,22.20763,16.61508,22.49705,16.6282C23.05372,16.60567,23.52367,17.04766,23.548949999999998,17.6175L23.548949999999998,17.6893C23.548949999999998,17.95259,23.13598,19.87534,23.00352,21.27153L22.00617,21.27153C21.88929,19.87534,21.445149999999998,17.95259,21.445149999999998,17.6893C21.432290000000002,17.40931,21.53067,17.1359,21.717869999999998,16.93137ZM23.2139,23.5852C22.79595,23.980600000000003,22.15141,23.980600000000003,21.73345,23.5852C21.53641,23.4075,21.42299,23.152,21.42178,22.883139999999997C21.42373,22.61215,21.536830000000002,22.354480000000002,21.73345,22.17308C21.94499,21.97329,22.22505,21.86719,22.51264,21.877879999999998C22.80106,21.86168,23.08315,21.96855,23.29182,22.17308C23.4909,22.352629999999998,23.60452,22.61149,23.60349,22.883139999999997C23.606450000000002,23.15292,23.49227,23.41011,23.29182,23.5852L23.2139,23.5852Z" fill="#FFFFFF" fill-opacity="1"/></g></g></svg>