<svg xmlns="http://www.w3.org/2000/svg" xmlns:xlink="http://www.w3.org/1999/xlink" fill="none" version="1.1" width="24" height="24" viewBox="0 0 24 24"><g><g><g><path d="M12.585129013671875,2.46918L12.585189013671876,2.469104L12.585299013671875,2.468956Q12.665259013671875,2.369165,12.707629013671875,2.248518Q12.749999013671875,2.127871,12.749999013671875,1.9999999999999993Q12.749999013671875,1.9157362,12.731299013671876,1.833573Q12.712599013671875,1.75141,12.676139013671875,1.675445Q12.639679013671875,1.599479,12.587259013671876,1.533499Q12.534849013671876,1.467519,12.469099013671876,1.414815L12.468959013671874,1.414696Q12.369169013671875,1.3347419999999999,12.248519013671874,1.2923710000000002Q12.127869013671875,1.25,11.999999013671875,1.25Q11.915739013671875,1.25,11.833569013671875,1.268698Q11.751409013671875,1.287397,11.675449013671875,1.323861Q11.599479013671875,1.360325,11.533499013671875,1.412737Q11.467519013671875,1.46515,11.414819013671876,1.530896L11.414749013671875,1.530972L9.434964013671875,4.0006699999999995L9.434804013671876,4.00087Q9.354794013671874,4.1006800000000005,9.312391013671874,4.22136Q9.269989013671875,4.34205,9.269989013671875,4.46997L9.270003013671875,4.47462Q9.270522013671876,4.5583,9.289469013671875,4.6398Q9.308416013671875,4.721299999999999,9.344860013671875,4.79662Q9.381303013671875,4.87194,9.433450013671875,4.93738Q9.485598013671876,5.00282,9.550885013671875,5.05516Q9.650694013671876,5.1351700000000005,9.771382013671875,5.177569999999999Q9.892069013671875,5.21997,10.019989013671875,5.21997L10.024639763671875,5.21996Q10.108313313671875,5.2194400000000005,10.189815013671875,5.20049Q10.271317013671876,5.18154,10.346639013671876,5.145099999999999Q10.421961013671876,5.10866,10.487399013671874,5.056509999999999Q10.552838013671876,5.00436,10.605174013671874,4.93907L10.605334013671875,4.93887L12.585129013671875,2.46918Z" fill-rule="evenodd" fill="#FFFFFF" fill-opacity="1"/></g><g><path d="M9.848885351562501,3.729800703125L9.848845351562499,3.729809703125Q9.7875153515625,3.744182703125,9.7294553515625,3.768582703125Q9.671385351562499,3.792982703125,9.6181953515625,3.826726703125Q9.5650153515625,3.860470703125,9.5181953515625,3.902611703125Q9.4713853515625,3.944753703125,9.4322553515625,3.994112703125Q9.3931253515625,4.043472703125,9.3627853515625,4.098666703125Q9.3324353515625,4.153860403125,9.311715351562501,4.213342973125Q9.2909953515625,4.272825503125,9.2804953515625,4.334930703125Q9.2699853515625,4.397034703125,9.2699853515625,4.460021703125Q9.2699853515625,4.468849703125,9.2701953515625,4.477676703125Q9.272025351562501,4.555436703125,9.2897753515625,4.631165703125Q9.3041453515625,4.692490703125,9.3285453515625,4.750559703125Q9.3529453515625,4.808628703125,9.3866953515625,4.861814703125Q9.4204353515625,4.914999703125,9.4625753515625,4.961812703125Q9.5047153515625,5.008625703125,9.5540753515625,5.047753703125Q9.6034353515625,5.086881703125,9.6586353515625,5.117229703125Q9.7138253515625,5.147577703125,9.773305351562499,5.168293703125Q9.832795351562499,5.189010703125,9.8948953515625,5.199516703125Q9.9570053515625,5.210021703125,10.0199853515625,5.210021703125Q10.0288153515625,5.210021703125,10.0376453515625,5.2098137031250005Q10.1154053515625,5.207982703125,10.191135351562501,5.190233703125L10.1913653515625,5.1901787031249995Q11.1310353515625,4.969970703125,11.9999953515625,4.969970703125Q15.3718853515625,4.969970703125,17.755885351562497,7.3540607031250005Q20.1399853515625,9.738150703125001,20.1399853515625,13.109980703125Q20.1399853515625,16.481870703125,17.755885351562497,18.865870703124997Q15.3718853515625,21.249970703125,11.9999953515625,21.249970703125Q8.628165351562501,21.249970703125,6.2440753515625005,18.865870703124997Q3.8599853515625,16.481870703125,3.8599853515625,13.109980703125Q3.8599853515625,10.450620703125,5.5092453515625,8.250990703125L5.5100053515625,8.249980703125Q5.5830253515625,8.152620703125,5.6215153515625005,8.037160703125Q5.6600053515625,7.9217007031249995,5.6600053515625,7.799990703125L5.6599753515625,7.7933907031250005Q5.6595353515625,7.743400703124999,5.652465351562499,7.693920703125Q5.631365351562501,7.546240703125,5.5553553515625005,7.417870703125001Q5.4793553515625,7.289500703125,5.3600053515625,7.199990703125Q5.2626353515624995,7.126960703125,5.1471753515625,7.088480703125001Q5.0317153515625,7.049990703125,4.9100053515625,7.049990703125Q4.8955853515625005,7.049990703125,4.8811853515625,7.050540703125Q4.7975753515625,7.0537607031250005,4.7167253515625,7.075320703125Q4.6358753515625,7.0968807031250005,4.5617653515625,7.135740703125Q4.4876553515625,7.174590703125,4.4239353515625,7.228820703125Q4.3602053515625006,7.283050703124999,4.3100053515625,7.349990703125Q2.3599853515625,9.950010703124999,2.3599853515625,13.109980703125Q2.3599853515625,15.070770703125,3.1178239015624998,16.862570703125Q3.8495763515625,18.592770703124998,5.1834153515625,19.926570703125Q6.5172453515625,21.260370703125,8.2473753515625,21.992170703125Q10.0391753515625,22.749970703125,11.9999953515625,22.749970703125Q13.9607853515625,22.749970703125,15.7525853515625,21.992170703125Q17.482785351562498,21.260370703125,18.8165853515625,19.926570703125Q20.1503853515625,18.592770703124998,20.8821853515625,16.862570703125Q21.6399853515625,15.070770703125,21.6399853515625,13.109980703125Q21.6399853515625,11.149160703125,20.8821853515625,9.357360703125Q20.1503853515625,7.6272407031250005,18.8165853515625,6.293400703125Q17.482785351562498,4.959562703125,15.7525853515625,4.227809313125Q13.9607853515625,3.469970703125,11.9999953515625,3.469970703125Q10.9577153515625,3.469970703125,9.8493253515625,3.729696703125L9.848885351562501,3.729800703125Z" fill-rule="evenodd" fill="#FFFFFF" fill-opacity="1"/></g><g style="opacity:0;"></g></g></g></svg>