<svg xmlns="http://www.w3.org/2000/svg" xmlns:xlink="http://www.w3.org/1999/xlink" fill="none" version="1.1" width="20" height="20" viewBox="0 0 20 20"><defs><clipPath id="master_svg0_4_9397"><rect x="0" y="0" width="20" height="20" rx="0"/></clipPath></defs><g clip-path="url(#master_svg0_4_9397)"><g><g><path d="M17.6,12.625L17.6,3.875Q17.6,3.212563,17.0183,2.776284Q16.5166,2.4,15.8333,2.4L4.16667,2.4Q3.483419,2.4,2.9817095,2.776282Q2.4,3.212564,2.4,3.875L2.4,12.625Q2.4,13.2874,2.9817121,13.7237Q3.483417,14.1,4.16667,14.1L15.8333,14.1Q16.5166,14.1,17.0183,13.7237Q17.6,13.2874,17.6,12.625ZM16.298299999999998,3.73628Q16.4,3.8125590000000003,16.4,3.875L16.4,12.625Q16.4,12.68745,16.298299999999998,12.76372Q16.1166,12.9,15.8333,12.9L4.16667,12.9Q3.883414,12.9,3.701707,12.76372Q3.6,12.68744,3.6,12.625L3.6,3.875Q3.6,3.812564,3.701709,3.736282Q3.883419,3.6,4.16667,3.6L15.8333,3.6Q16.1166,3.6,16.298299999999998,3.73628Z" fill-rule="evenodd" fill="#232D42" fill-opacity="1"/></g><g><path d="M13.945979999999999,6.901379Q14.020340000000001,6.818748,14.06017,6.714958Q14.1,6.611169,14.1,6.5Q14.1,6.4409051999999996,14.088470000000001,6.382946Q14.07694,6.324986,14.05433,6.27039Q14.03171,6.215793,13.99888,6.166658Q13.96605,6.117522,13.92426,6.075736Q13.882480000000001,6.03395,13.83334,6.001118Q13.78421,5.968287,13.729610000000001,5.945672Q13.67501,5.923058,13.617049999999999,5.911529Q13.559090000000001,5.9,13.5,5.9Q13.37243,5.9,13.2559,5.9519Q13.13936,6.0038,13.054020000000001,6.098621L10.83582,8.56329L9.83357,6.61448Q9.80655,6.5619273,9.76979,6.5156575Q9.73303,6.4693876,9.687940000000001,6.4311784Q9.64286,6.392969,9.5912,6.364289Q9.53953,6.335609,9.48326,6.317559Q9.42699,6.29951,9.368269999999999,6.2927859999999995Q9.30956,6.286061,9.25067,6.29092Q9.19177,6.295779,9.13496,6.312034Q9.07814,6.328289,9.02559,6.355316Q8.92768,6.4056711,8.85402,6.4875096L6.054024,9.59862Q5.979656,9.68125,5.939828,9.78504Q5.9,9.88883,5.9,10Q5.9,10.05909,5.911529,10.117049999999999Q5.923058,10.17501,5.945672,10.229610000000001Q5.968287,10.28421,6.001118,10.33334Q6.03395,10.382480000000001,6.075736,10.42426Q6.117522,10.46605,6.166658,10.49888Q6.215793,10.53171,6.27039,10.55433Q6.324986,10.57694,6.382946,10.588470000000001Q6.4409051999999996,10.6,6.5,10.6Q6.627569,10.6,6.744103,10.5481Q6.860638,10.4962,6.945977,10.40138L6.946344,10.400970000000001L9.16418,7.93671L10.16643,9.88552Q10.21678,9.98343,10.29862,10.05709Q10.34255,10.09662,10.39334,10.12682Q10.44413,10.157029999999999,10.499839999999999,10.17674Q10.55555,10.19645,10.61404,10.20492Q10.672519999999999,10.21339,10.731539999999999,10.210280000000001Q10.79055,10.207180000000001,10.847819999999999,10.19262Q10.905100000000001,10.17806,10.95843,10.1526Q11.011759999999999,10.12715,11.0591,10.09178Q11.10644,10.05641,11.14598,10.01249L13.94566,6.90173L13.945979999999999,6.901379L13.945979999999999,6.901379Z" fill-rule="evenodd" fill="#232D42" fill-opacity="1"/></g><g><path d="M5.333333253860474,15.4L14.666663253860474,15.4Q14.725763253860473,15.4,14.783723253860474,15.411529Q14.841683253860474,15.423058,14.896273253860473,15.445672Q14.950873253860474,15.468287,15.000003253860474,15.501118Q15.049143253860473,15.53395,15.090933253860474,15.575736Q15.132713253860473,15.617522,15.165543253860474,15.666658Q15.198373253860474,15.715793,15.220993253860474,15.77039Q15.243603253860474,15.824985999999999,15.255133253860473,15.882946Q15.266663253860473,15.9409052,15.266663253860473,16Q15.266663253860473,16.0590948,15.255133253860473,16.117054Q15.243603253860474,16.175014,15.220993253860474,16.22961Q15.198373253860474,16.284207,15.165543253860474,16.333342000000002Q15.132713253860473,16.382478,15.090933253860474,16.424264Q15.049143253860473,16.46605,15.000003253860474,16.498882Q14.950873253860474,16.531713,14.896273253860473,16.554328Q14.841683253860474,16.576942,14.783723253860474,16.588471Q14.725763253860473,16.6,14.666663253860474,16.6L5.333333253860474,16.6Q5.274238453860473,16.6,5.216279253860473,16.588471Q5.158319253860474,16.576942,5.1037232538604735,16.554328Q5.049126253860473,16.531713,4.999991253860474,16.498882Q4.950855253860474,16.46605,4.909069253860474,16.424264Q4.867283253860474,16.382478,4.834451253860474,16.333342000000002Q4.801620253860474,16.284207,4.779005253860474,16.22961Q4.756391253860474,16.175014,4.7448622538604734,16.117054Q4.733333253860474,16.0590948,4.733333253860474,16Q4.733333253860474,15.9409052,4.7448622538604734,15.882946Q4.756391253860474,15.824985999999999,4.779005253860474,15.77039Q4.801620253860474,15.715793,4.834451253860474,15.666658Q4.867283253860474,15.617522,4.909069253860474,15.575736Q4.950855253860474,15.53395,4.999991253860474,15.501118Q5.049126253860473,15.468287,5.1037232538604735,15.445672Q5.158319253860474,15.423058,5.216279253860473,15.411529Q5.274238453860473,15.4,5.333333253860474,15.4Z" fill-rule="evenodd" fill="#232D42" fill-opacity="1"/></g></g></g></svg>