<svg xmlns="http://www.w3.org/2000/svg" xmlns:xlink="http://www.w3.org/1999/xlink" fill="none" version="1.1" width="20" height="20" viewBox="0 0 20 20"><g><g><path d="M15.5165234375,9.8331346875L15.5165234375,7.4248046875Q15.5165234375,5.1551946875,13.9013234375,3.5400046874999997Q12.2861034375,1.9248036874999999,10.0164934375,1.9248046875Q7.7406334375,1.9248046875,6.1285634375,3.5368746875Q4.5164934375,5.1489446875,4.5164934375,7.4248046875L4.5164934375,9.8331346875Q4.5164934375,10.6153046875,4.1120224375,11.2937746875L3.1548124375,12.8836046875Q2.5876884374999998,13.8261046875,2.9361494375,14.7672046875Q3.2833815375,15.7049046875,4.3228634375,16.0567046875Q10.0123334375,17.9576046875,15.6999234375,16.0574046875Q16.6838234375,15.7321046875,17.0449234375,14.7543046875Q17.4058234375,13.7769046875,16.8702234375,12.8842046875L15.9115234375,11.2918946875Q15.5165234375,10.6070246875,15.5165234375,9.8331346875ZM13.1941934375,4.2471046875Q14.5165234375,5.5694146875,14.5165234375,7.4248046875L14.5165234375,9.8331346875Q14.5165234375,10.8748046875,15.0548234375,11.8077146875L16.0127234375,13.3987046875Q16.301623437499998,13.8802046875,16.106823437499997,14.4078046875Q15.9126234375,14.9338046875,15.3830234375,15.1089046875Q10.0123334375,16.9033046875,4.6434634374999995,15.1095046875Q4.0555964375,14.9106046875,3.8739254375,14.4199046875Q3.6924084375,13.9297046875,4.0115124375,13.3994046875L4.9709734375,11.8058346875Q5.516493437499999,10.8907546875,5.516493437499999,9.8331346875L5.516493437499999,7.4248046875Q5.516493437499999,5.5631646875000005,6.835673437500001,4.2439846875Q8.1548534375,2.9248046875,10.0164934375,2.9248046875Q11.8718834375,2.9248046875,13.1941934375,4.2471046875Z" fill-rule="evenodd" fill="#2B3D56" fill-opacity="1"/></g><g><path d="M11.24405942779541,1.4993776746139527Q10.69149942779541,1.1166666746139526,10.01666942779541,1.1166666746139526Q9.34183642779541,1.1166666746139526,8.78926942779541,1.4993776746139527Q8.24870142779541,1.8737796746139526,8.00947142779541,2.4842296746139527Q7.9473484277954105,2.642746674613953,7.99487442779541,2.8062366746139524Q8.02263742779541,2.901736674613953,8.08483342779541,2.9793466746139528Q8.14702942779541,3.0569566746139527,8.23419142779541,3.1048566746139525Q8.32135342779541,3.1527566746139524,8.42021052779541,3.1636566746139527Q8.51906782779541,3.1745566746139526,8.61457042779541,3.146786674613953Q9.60295942779541,2.8594666746139525,10.69816942779541,2.9963666746139523Q11.04574942779541,3.0384966746139526,11.41892942779541,3.1468366746139527Q11.58233942779541,3.1942866746139527,11.74076942779541,3.1321966746139527Q11.78661942779541,3.1142266746139526,11.82807942779541,3.0876566746139527Q11.86954942779541,3.0610866746139527,11.90502942779541,3.026946674613953Q11.94051942779541,2.9927966746139525,11.96865942779541,2.952386674613953Q11.996799427795409,2.9119666746139528,12.01650942779541,2.866846674613953Q12.03622942779541,2.8217166746139526,12.04675942779541,2.7736066746139527Q12.05729942779541,2.7255066746139525,12.05823942779541,2.6762666746139527Q12.05918942779541,2.6270266746139526,12.05050942779541,2.5785546746139527Q12.04182942779541,2.5300806746139526,12.02385942779541,2.4842296746139527Q11.78462942779541,1.8737796746139526,11.24405942779541,1.4993776746139527Z" fill-rule="evenodd" fill="#2B3D56" fill-opacity="1"/></g><g><path d="M8.603556889190674,17.29644225250244Q8.016666889190674,16.709560252502442,8.016666889190674,15.883332252502441L7.016666889190674,15.883332252502441Q7.016666889190674,16.488488252502442,7.254187889190674,17.04919225250244Q7.483561889190674,17.59067225250244,7.896445889190674,18.00355225250244Q8.309329889190673,18.416432252502442,8.850806889190673,18.64581225250244Q9.411506889190674,18.88333225250244,10.016666889190674,18.88333225250244Q11.255026889190674,18.88333225250244,12.135846889190674,18.00251225250244Q13.016666889190674,17.12169225250244,13.016666889190674,15.883332252502441L12.016666889190674,15.883332252502441Q12.016666889190674,16.70747525250244,11.428736889190674,17.29540225250244Q10.840806889190674,17.88333225250244,10.016666889190674,17.88333225250244Q9.190436889190673,17.88333225250244,8.603556889190674,17.29644225250244Z" fill-rule="evenodd" fill="#2B3D56" fill-opacity="1"/></g><g style="opacity:0;"></g></g></svg>