<svg xmlns="http://www.w3.org/2000/svg" xmlns:xlink="http://www.w3.org/1999/xlink" fill="none" version="1.1" width="20" height="20" viewBox="0 0 20 20"><defs><clipPath id="master_svg0_4_9275"><rect x="0" y="0" width="20" height="20" rx="0"/></clipPath></defs><g clip-path="url(#master_svg0_4_9275)"><g><g transform="matrix(0,0.9999999403953552,-0.9999999403953552,0,18.75061025222385,-15.41735738015268)"><path d="M20.153594375,15.1515259765625Q20.907574375,16.4333259765625,22.394614375,16.4333259765625L28.440184375,16.4333259765625Q29.927284375,16.4333259765625,30.681284375,15.1515259765625L33.671384375,10.0681759765625Q34.446784375,8.7499559765625,33.671384375,7.4317359765625L30.681284375,2.3484029765625Q29.927284375,1.0666259765625,28.440184375,1.0666259765625L22.394614375,1.0666259765625Q20.907574375,1.0666259765625,20.153594375,2.3483539765625L17.163341775,7.4316859765625Q16.387872375,8.7499559765625,17.163341875,10.0682259765625L20.153594375,15.1515259765625ZM28.440184375,15.2333259765625L22.394614375,15.2333259765625Q21.593894374999998,15.2333259765625,21.187914375,14.5431259765625L18.197654375,9.4597959765625Q17.780097375,8.7499559765625,18.197654375,8.0401159765625L21.187914375,2.9567859765625Q21.593894374999998,2.2666259765625,22.394614375,2.2666259765625L28.440184375,2.2666259765625Q29.240984375,2.2666259765625,29.646884375,2.9568159765625L32.636984375,8.0401459765625Q33.054584375,8.7499559765625,32.636984375,9.459765976562501L29.646884375,14.5431259765625Q29.240984375,15.2333259765625,28.440184375,15.2333259765625Z" fill-rule="evenodd" fill="#232D42" fill-opacity="1"/></g><g transform="matrix(0,0.9999999403953552,-0.9999999403953552,0,20.00060987969482,-4.167357678175904)"><path d="M12.269918375,8.1025599765625Q11.483984375,8.8884939765625,11.483984375,9.9999559765625Q11.483984375,11.1114259765625,12.269918375,11.8973559765625Q13.055852375,12.683295976562501,14.167314375,12.683295976562501Q15.278784375,12.683295976562501,16.064714375,11.8973559765625Q16.850654375,11.1114259765625,16.850654375,9.9999559765625Q16.850654375,8.8884939765625,16.064714375,8.1025599765625Q15.278784375,7.3166259765625,14.167314375,7.3166259765625Q13.055852375,7.3166259765625,12.269918375,8.1025599765625ZM13.118444375,11.048825976562501Q12.683984375,10.6143659765625,12.683984375,9.9999559765625Q12.683984375,9.3855459765625,13.118444375,8.9510859765625Q13.552904375,8.5166259765625,14.167314375,8.5166259765625Q14.781724375,8.5166259765625,15.216184375000001,8.9510859765625Q15.650654375,9.3855459765625,15.650654375,9.9999559765625Q15.650654375,10.6143659765625,15.216184375000001,11.048825976562501Q14.781724375,11.4832959765625,14.167314375,11.4832959765625Q13.552904375,11.4832959765625,13.118444375,11.048825976562501Z" fill-rule="evenodd" fill="#232D42" fill-opacity="1"/></g></g></g></svg>